%
M48
M72
T01C0.03200
T02C0.03600
T03C0.04000
T04C0.11811
%
T01
X106800Y145500
X107300Y164500
X84800Y166000
X85300Y148500
X45300Y148500
X44800Y166000
X147300Y164500
X146800Y145500
X170800Y144500
X172800Y164000
X212800Y164000
X210800Y144500
X248800Y160500
X248800Y170500
X248800Y180500
X248800Y190500
X248800Y200500
X248800Y210500
X248800Y220500
X248800Y230500
X248800Y240500
X248800Y250500
X251800Y339000
X261800Y339000
X271800Y339000
X281800Y339000
X291800Y339000
X301800Y339000
X311800Y339000
X321800Y339000
X331800Y339000
X341800Y339000
X351800Y339000
X241800Y339000
X201800Y16500
X191800Y16500
X181800Y16500
X171800Y16500
X161800Y16500
T02
X196800Y204000
X196800Y214000
X196800Y224000
X196800Y234000
X196800Y244000
X196800Y254000
X196800Y264000
X196800Y274000
X196800Y284000
X196800Y294000
X206800Y294000
X206800Y284000
X206800Y274000
X206800Y264000
X206800Y254000
X206800Y244000
X206800Y234000
X206800Y224000
X206800Y214000
X206800Y204000
X37300Y204500
X37300Y214500
X37300Y224500
X37300Y234500
X37300Y244500
X37300Y254500
X37300Y264500
X37300Y274500
X37300Y284500
X37300Y294500
X27300Y294500
X27300Y284500
X27300Y274500
X27300Y264500
X27300Y254500
X27300Y244500
X27300Y234500
X27300Y224500
X27300Y214500
X27300Y204500
T03
X81800Y115500
X91800Y115500
X101800Y115500
X111800Y115500
X111800Y75000
X101800Y75000
X121800Y75000
X131800Y75000
X243800Y115500
X253800Y115500
X263800Y115500
X273800Y115500
X273800Y74000
X263800Y74000
X283800Y74000
X293800Y74000
X338800Y282000
X348800Y282000
X358800Y282000
X368800Y282000
T04
X32800Y28000
X369400Y28200
X31600Y362400
M30
