G75*
%MOIN*%
%OFA0B0*%
%FSLAX25Y25*%
%IPPOS*%
%LPD*%
%AMOC8*
5,1,8,0,0,1.08239X$1,22.5*
%
%ADD10C,0.00000*%
%ADD11OC8,0.05200*%
%ADD12C,0.06000*%
%ADD13C,0.05200*%
%ADD14OC8,0.05600*%
%ADD15C,0.01600*%
D10*
X0006800Y0003000D02*
X0001800Y0394701D01*
X0401721Y0392701D01*
X0401721Y0001000D01*
X0006800Y0003000D01*
X0026894Y0028000D02*
X0026896Y0028153D01*
X0026902Y0028307D01*
X0026912Y0028460D01*
X0026926Y0028612D01*
X0026944Y0028765D01*
X0026966Y0028916D01*
X0026991Y0029067D01*
X0027021Y0029218D01*
X0027055Y0029368D01*
X0027092Y0029516D01*
X0027133Y0029664D01*
X0027178Y0029810D01*
X0027227Y0029956D01*
X0027280Y0030100D01*
X0027336Y0030242D01*
X0027396Y0030383D01*
X0027460Y0030523D01*
X0027527Y0030661D01*
X0027598Y0030797D01*
X0027673Y0030931D01*
X0027750Y0031063D01*
X0027832Y0031193D01*
X0027916Y0031321D01*
X0028004Y0031447D01*
X0028095Y0031570D01*
X0028189Y0031691D01*
X0028287Y0031809D01*
X0028387Y0031925D01*
X0028491Y0032038D01*
X0028597Y0032149D01*
X0028706Y0032257D01*
X0028818Y0032362D01*
X0028932Y0032463D01*
X0029050Y0032562D01*
X0029169Y0032658D01*
X0029291Y0032751D01*
X0029416Y0032840D01*
X0029543Y0032927D01*
X0029672Y0033009D01*
X0029803Y0033089D01*
X0029936Y0033165D01*
X0030071Y0033238D01*
X0030208Y0033307D01*
X0030347Y0033372D01*
X0030487Y0033434D01*
X0030629Y0033492D01*
X0030772Y0033547D01*
X0030917Y0033598D01*
X0031063Y0033645D01*
X0031210Y0033688D01*
X0031358Y0033727D01*
X0031507Y0033763D01*
X0031657Y0033794D01*
X0031808Y0033822D01*
X0031959Y0033846D01*
X0032112Y0033866D01*
X0032264Y0033882D01*
X0032417Y0033894D01*
X0032570Y0033902D01*
X0032723Y0033906D01*
X0032877Y0033906D01*
X0033030Y0033902D01*
X0033183Y0033894D01*
X0033336Y0033882D01*
X0033488Y0033866D01*
X0033641Y0033846D01*
X0033792Y0033822D01*
X0033943Y0033794D01*
X0034093Y0033763D01*
X0034242Y0033727D01*
X0034390Y0033688D01*
X0034537Y0033645D01*
X0034683Y0033598D01*
X0034828Y0033547D01*
X0034971Y0033492D01*
X0035113Y0033434D01*
X0035253Y0033372D01*
X0035392Y0033307D01*
X0035529Y0033238D01*
X0035664Y0033165D01*
X0035797Y0033089D01*
X0035928Y0033009D01*
X0036057Y0032927D01*
X0036184Y0032840D01*
X0036309Y0032751D01*
X0036431Y0032658D01*
X0036550Y0032562D01*
X0036668Y0032463D01*
X0036782Y0032362D01*
X0036894Y0032257D01*
X0037003Y0032149D01*
X0037109Y0032038D01*
X0037213Y0031925D01*
X0037313Y0031809D01*
X0037411Y0031691D01*
X0037505Y0031570D01*
X0037596Y0031447D01*
X0037684Y0031321D01*
X0037768Y0031193D01*
X0037850Y0031063D01*
X0037927Y0030931D01*
X0038002Y0030797D01*
X0038073Y0030661D01*
X0038140Y0030523D01*
X0038204Y0030383D01*
X0038264Y0030242D01*
X0038320Y0030100D01*
X0038373Y0029956D01*
X0038422Y0029810D01*
X0038467Y0029664D01*
X0038508Y0029516D01*
X0038545Y0029368D01*
X0038579Y0029218D01*
X0038609Y0029067D01*
X0038634Y0028916D01*
X0038656Y0028765D01*
X0038674Y0028612D01*
X0038688Y0028460D01*
X0038698Y0028307D01*
X0038704Y0028153D01*
X0038706Y0028000D01*
X0038704Y0027847D01*
X0038698Y0027693D01*
X0038688Y0027540D01*
X0038674Y0027388D01*
X0038656Y0027235D01*
X0038634Y0027084D01*
X0038609Y0026933D01*
X0038579Y0026782D01*
X0038545Y0026632D01*
X0038508Y0026484D01*
X0038467Y0026336D01*
X0038422Y0026190D01*
X0038373Y0026044D01*
X0038320Y0025900D01*
X0038264Y0025758D01*
X0038204Y0025617D01*
X0038140Y0025477D01*
X0038073Y0025339D01*
X0038002Y0025203D01*
X0037927Y0025069D01*
X0037850Y0024937D01*
X0037768Y0024807D01*
X0037684Y0024679D01*
X0037596Y0024553D01*
X0037505Y0024430D01*
X0037411Y0024309D01*
X0037313Y0024191D01*
X0037213Y0024075D01*
X0037109Y0023962D01*
X0037003Y0023851D01*
X0036894Y0023743D01*
X0036782Y0023638D01*
X0036668Y0023537D01*
X0036550Y0023438D01*
X0036431Y0023342D01*
X0036309Y0023249D01*
X0036184Y0023160D01*
X0036057Y0023073D01*
X0035928Y0022991D01*
X0035797Y0022911D01*
X0035664Y0022835D01*
X0035529Y0022762D01*
X0035392Y0022693D01*
X0035253Y0022628D01*
X0035113Y0022566D01*
X0034971Y0022508D01*
X0034828Y0022453D01*
X0034683Y0022402D01*
X0034537Y0022355D01*
X0034390Y0022312D01*
X0034242Y0022273D01*
X0034093Y0022237D01*
X0033943Y0022206D01*
X0033792Y0022178D01*
X0033641Y0022154D01*
X0033488Y0022134D01*
X0033336Y0022118D01*
X0033183Y0022106D01*
X0033030Y0022098D01*
X0032877Y0022094D01*
X0032723Y0022094D01*
X0032570Y0022098D01*
X0032417Y0022106D01*
X0032264Y0022118D01*
X0032112Y0022134D01*
X0031959Y0022154D01*
X0031808Y0022178D01*
X0031657Y0022206D01*
X0031507Y0022237D01*
X0031358Y0022273D01*
X0031210Y0022312D01*
X0031063Y0022355D01*
X0030917Y0022402D01*
X0030772Y0022453D01*
X0030629Y0022508D01*
X0030487Y0022566D01*
X0030347Y0022628D01*
X0030208Y0022693D01*
X0030071Y0022762D01*
X0029936Y0022835D01*
X0029803Y0022911D01*
X0029672Y0022991D01*
X0029543Y0023073D01*
X0029416Y0023160D01*
X0029291Y0023249D01*
X0029169Y0023342D01*
X0029050Y0023438D01*
X0028932Y0023537D01*
X0028818Y0023638D01*
X0028706Y0023743D01*
X0028597Y0023851D01*
X0028491Y0023962D01*
X0028387Y0024075D01*
X0028287Y0024191D01*
X0028189Y0024309D01*
X0028095Y0024430D01*
X0028004Y0024553D01*
X0027916Y0024679D01*
X0027832Y0024807D01*
X0027750Y0024937D01*
X0027673Y0025069D01*
X0027598Y0025203D01*
X0027527Y0025339D01*
X0027460Y0025477D01*
X0027396Y0025617D01*
X0027336Y0025758D01*
X0027280Y0025900D01*
X0027227Y0026044D01*
X0027178Y0026190D01*
X0027133Y0026336D01*
X0027092Y0026484D01*
X0027055Y0026632D01*
X0027021Y0026782D01*
X0026991Y0026933D01*
X0026966Y0027084D01*
X0026944Y0027235D01*
X0026926Y0027388D01*
X0026912Y0027540D01*
X0026902Y0027693D01*
X0026896Y0027847D01*
X0026894Y0028000D01*
X0025694Y0362400D02*
X0025696Y0362553D01*
X0025702Y0362707D01*
X0025712Y0362860D01*
X0025726Y0363012D01*
X0025744Y0363165D01*
X0025766Y0363316D01*
X0025791Y0363467D01*
X0025821Y0363618D01*
X0025855Y0363768D01*
X0025892Y0363916D01*
X0025933Y0364064D01*
X0025978Y0364210D01*
X0026027Y0364356D01*
X0026080Y0364500D01*
X0026136Y0364642D01*
X0026196Y0364783D01*
X0026260Y0364923D01*
X0026327Y0365061D01*
X0026398Y0365197D01*
X0026473Y0365331D01*
X0026550Y0365463D01*
X0026632Y0365593D01*
X0026716Y0365721D01*
X0026804Y0365847D01*
X0026895Y0365970D01*
X0026989Y0366091D01*
X0027087Y0366209D01*
X0027187Y0366325D01*
X0027291Y0366438D01*
X0027397Y0366549D01*
X0027506Y0366657D01*
X0027618Y0366762D01*
X0027732Y0366863D01*
X0027850Y0366962D01*
X0027969Y0367058D01*
X0028091Y0367151D01*
X0028216Y0367240D01*
X0028343Y0367327D01*
X0028472Y0367409D01*
X0028603Y0367489D01*
X0028736Y0367565D01*
X0028871Y0367638D01*
X0029008Y0367707D01*
X0029147Y0367772D01*
X0029287Y0367834D01*
X0029429Y0367892D01*
X0029572Y0367947D01*
X0029717Y0367998D01*
X0029863Y0368045D01*
X0030010Y0368088D01*
X0030158Y0368127D01*
X0030307Y0368163D01*
X0030457Y0368194D01*
X0030608Y0368222D01*
X0030759Y0368246D01*
X0030912Y0368266D01*
X0031064Y0368282D01*
X0031217Y0368294D01*
X0031370Y0368302D01*
X0031523Y0368306D01*
X0031677Y0368306D01*
X0031830Y0368302D01*
X0031983Y0368294D01*
X0032136Y0368282D01*
X0032288Y0368266D01*
X0032441Y0368246D01*
X0032592Y0368222D01*
X0032743Y0368194D01*
X0032893Y0368163D01*
X0033042Y0368127D01*
X0033190Y0368088D01*
X0033337Y0368045D01*
X0033483Y0367998D01*
X0033628Y0367947D01*
X0033771Y0367892D01*
X0033913Y0367834D01*
X0034053Y0367772D01*
X0034192Y0367707D01*
X0034329Y0367638D01*
X0034464Y0367565D01*
X0034597Y0367489D01*
X0034728Y0367409D01*
X0034857Y0367327D01*
X0034984Y0367240D01*
X0035109Y0367151D01*
X0035231Y0367058D01*
X0035350Y0366962D01*
X0035468Y0366863D01*
X0035582Y0366762D01*
X0035694Y0366657D01*
X0035803Y0366549D01*
X0035909Y0366438D01*
X0036013Y0366325D01*
X0036113Y0366209D01*
X0036211Y0366091D01*
X0036305Y0365970D01*
X0036396Y0365847D01*
X0036484Y0365721D01*
X0036568Y0365593D01*
X0036650Y0365463D01*
X0036727Y0365331D01*
X0036802Y0365197D01*
X0036873Y0365061D01*
X0036940Y0364923D01*
X0037004Y0364783D01*
X0037064Y0364642D01*
X0037120Y0364500D01*
X0037173Y0364356D01*
X0037222Y0364210D01*
X0037267Y0364064D01*
X0037308Y0363916D01*
X0037345Y0363768D01*
X0037379Y0363618D01*
X0037409Y0363467D01*
X0037434Y0363316D01*
X0037456Y0363165D01*
X0037474Y0363012D01*
X0037488Y0362860D01*
X0037498Y0362707D01*
X0037504Y0362553D01*
X0037506Y0362400D01*
X0037504Y0362247D01*
X0037498Y0362093D01*
X0037488Y0361940D01*
X0037474Y0361788D01*
X0037456Y0361635D01*
X0037434Y0361484D01*
X0037409Y0361333D01*
X0037379Y0361182D01*
X0037345Y0361032D01*
X0037308Y0360884D01*
X0037267Y0360736D01*
X0037222Y0360590D01*
X0037173Y0360444D01*
X0037120Y0360300D01*
X0037064Y0360158D01*
X0037004Y0360017D01*
X0036940Y0359877D01*
X0036873Y0359739D01*
X0036802Y0359603D01*
X0036727Y0359469D01*
X0036650Y0359337D01*
X0036568Y0359207D01*
X0036484Y0359079D01*
X0036396Y0358953D01*
X0036305Y0358830D01*
X0036211Y0358709D01*
X0036113Y0358591D01*
X0036013Y0358475D01*
X0035909Y0358362D01*
X0035803Y0358251D01*
X0035694Y0358143D01*
X0035582Y0358038D01*
X0035468Y0357937D01*
X0035350Y0357838D01*
X0035231Y0357742D01*
X0035109Y0357649D01*
X0034984Y0357560D01*
X0034857Y0357473D01*
X0034728Y0357391D01*
X0034597Y0357311D01*
X0034464Y0357235D01*
X0034329Y0357162D01*
X0034192Y0357093D01*
X0034053Y0357028D01*
X0033913Y0356966D01*
X0033771Y0356908D01*
X0033628Y0356853D01*
X0033483Y0356802D01*
X0033337Y0356755D01*
X0033190Y0356712D01*
X0033042Y0356673D01*
X0032893Y0356637D01*
X0032743Y0356606D01*
X0032592Y0356578D01*
X0032441Y0356554D01*
X0032288Y0356534D01*
X0032136Y0356518D01*
X0031983Y0356506D01*
X0031830Y0356498D01*
X0031677Y0356494D01*
X0031523Y0356494D01*
X0031370Y0356498D01*
X0031217Y0356506D01*
X0031064Y0356518D01*
X0030912Y0356534D01*
X0030759Y0356554D01*
X0030608Y0356578D01*
X0030457Y0356606D01*
X0030307Y0356637D01*
X0030158Y0356673D01*
X0030010Y0356712D01*
X0029863Y0356755D01*
X0029717Y0356802D01*
X0029572Y0356853D01*
X0029429Y0356908D01*
X0029287Y0356966D01*
X0029147Y0357028D01*
X0029008Y0357093D01*
X0028871Y0357162D01*
X0028736Y0357235D01*
X0028603Y0357311D01*
X0028472Y0357391D01*
X0028343Y0357473D01*
X0028216Y0357560D01*
X0028091Y0357649D01*
X0027969Y0357742D01*
X0027850Y0357838D01*
X0027732Y0357937D01*
X0027618Y0358038D01*
X0027506Y0358143D01*
X0027397Y0358251D01*
X0027291Y0358362D01*
X0027187Y0358475D01*
X0027087Y0358591D01*
X0026989Y0358709D01*
X0026895Y0358830D01*
X0026804Y0358953D01*
X0026716Y0359079D01*
X0026632Y0359207D01*
X0026550Y0359337D01*
X0026473Y0359469D01*
X0026398Y0359603D01*
X0026327Y0359739D01*
X0026260Y0359877D01*
X0026196Y0360017D01*
X0026136Y0360158D01*
X0026080Y0360300D01*
X0026027Y0360444D01*
X0025978Y0360590D01*
X0025933Y0360736D01*
X0025892Y0360884D01*
X0025855Y0361032D01*
X0025821Y0361182D01*
X0025791Y0361333D01*
X0025766Y0361484D01*
X0025744Y0361635D01*
X0025726Y0361788D01*
X0025712Y0361940D01*
X0025702Y0362093D01*
X0025696Y0362247D01*
X0025694Y0362400D01*
X0363494Y0028200D02*
X0363496Y0028353D01*
X0363502Y0028507D01*
X0363512Y0028660D01*
X0363526Y0028812D01*
X0363544Y0028965D01*
X0363566Y0029116D01*
X0363591Y0029267D01*
X0363621Y0029418D01*
X0363655Y0029568D01*
X0363692Y0029716D01*
X0363733Y0029864D01*
X0363778Y0030010D01*
X0363827Y0030156D01*
X0363880Y0030300D01*
X0363936Y0030442D01*
X0363996Y0030583D01*
X0364060Y0030723D01*
X0364127Y0030861D01*
X0364198Y0030997D01*
X0364273Y0031131D01*
X0364350Y0031263D01*
X0364432Y0031393D01*
X0364516Y0031521D01*
X0364604Y0031647D01*
X0364695Y0031770D01*
X0364789Y0031891D01*
X0364887Y0032009D01*
X0364987Y0032125D01*
X0365091Y0032238D01*
X0365197Y0032349D01*
X0365306Y0032457D01*
X0365418Y0032562D01*
X0365532Y0032663D01*
X0365650Y0032762D01*
X0365769Y0032858D01*
X0365891Y0032951D01*
X0366016Y0033040D01*
X0366143Y0033127D01*
X0366272Y0033209D01*
X0366403Y0033289D01*
X0366536Y0033365D01*
X0366671Y0033438D01*
X0366808Y0033507D01*
X0366947Y0033572D01*
X0367087Y0033634D01*
X0367229Y0033692D01*
X0367372Y0033747D01*
X0367517Y0033798D01*
X0367663Y0033845D01*
X0367810Y0033888D01*
X0367958Y0033927D01*
X0368107Y0033963D01*
X0368257Y0033994D01*
X0368408Y0034022D01*
X0368559Y0034046D01*
X0368712Y0034066D01*
X0368864Y0034082D01*
X0369017Y0034094D01*
X0369170Y0034102D01*
X0369323Y0034106D01*
X0369477Y0034106D01*
X0369630Y0034102D01*
X0369783Y0034094D01*
X0369936Y0034082D01*
X0370088Y0034066D01*
X0370241Y0034046D01*
X0370392Y0034022D01*
X0370543Y0033994D01*
X0370693Y0033963D01*
X0370842Y0033927D01*
X0370990Y0033888D01*
X0371137Y0033845D01*
X0371283Y0033798D01*
X0371428Y0033747D01*
X0371571Y0033692D01*
X0371713Y0033634D01*
X0371853Y0033572D01*
X0371992Y0033507D01*
X0372129Y0033438D01*
X0372264Y0033365D01*
X0372397Y0033289D01*
X0372528Y0033209D01*
X0372657Y0033127D01*
X0372784Y0033040D01*
X0372909Y0032951D01*
X0373031Y0032858D01*
X0373150Y0032762D01*
X0373268Y0032663D01*
X0373382Y0032562D01*
X0373494Y0032457D01*
X0373603Y0032349D01*
X0373709Y0032238D01*
X0373813Y0032125D01*
X0373913Y0032009D01*
X0374011Y0031891D01*
X0374105Y0031770D01*
X0374196Y0031647D01*
X0374284Y0031521D01*
X0374368Y0031393D01*
X0374450Y0031263D01*
X0374527Y0031131D01*
X0374602Y0030997D01*
X0374673Y0030861D01*
X0374740Y0030723D01*
X0374804Y0030583D01*
X0374864Y0030442D01*
X0374920Y0030300D01*
X0374973Y0030156D01*
X0375022Y0030010D01*
X0375067Y0029864D01*
X0375108Y0029716D01*
X0375145Y0029568D01*
X0375179Y0029418D01*
X0375209Y0029267D01*
X0375234Y0029116D01*
X0375256Y0028965D01*
X0375274Y0028812D01*
X0375288Y0028660D01*
X0375298Y0028507D01*
X0375304Y0028353D01*
X0375306Y0028200D01*
X0375304Y0028047D01*
X0375298Y0027893D01*
X0375288Y0027740D01*
X0375274Y0027588D01*
X0375256Y0027435D01*
X0375234Y0027284D01*
X0375209Y0027133D01*
X0375179Y0026982D01*
X0375145Y0026832D01*
X0375108Y0026684D01*
X0375067Y0026536D01*
X0375022Y0026390D01*
X0374973Y0026244D01*
X0374920Y0026100D01*
X0374864Y0025958D01*
X0374804Y0025817D01*
X0374740Y0025677D01*
X0374673Y0025539D01*
X0374602Y0025403D01*
X0374527Y0025269D01*
X0374450Y0025137D01*
X0374368Y0025007D01*
X0374284Y0024879D01*
X0374196Y0024753D01*
X0374105Y0024630D01*
X0374011Y0024509D01*
X0373913Y0024391D01*
X0373813Y0024275D01*
X0373709Y0024162D01*
X0373603Y0024051D01*
X0373494Y0023943D01*
X0373382Y0023838D01*
X0373268Y0023737D01*
X0373150Y0023638D01*
X0373031Y0023542D01*
X0372909Y0023449D01*
X0372784Y0023360D01*
X0372657Y0023273D01*
X0372528Y0023191D01*
X0372397Y0023111D01*
X0372264Y0023035D01*
X0372129Y0022962D01*
X0371992Y0022893D01*
X0371853Y0022828D01*
X0371713Y0022766D01*
X0371571Y0022708D01*
X0371428Y0022653D01*
X0371283Y0022602D01*
X0371137Y0022555D01*
X0370990Y0022512D01*
X0370842Y0022473D01*
X0370693Y0022437D01*
X0370543Y0022406D01*
X0370392Y0022378D01*
X0370241Y0022354D01*
X0370088Y0022334D01*
X0369936Y0022318D01*
X0369783Y0022306D01*
X0369630Y0022298D01*
X0369477Y0022294D01*
X0369323Y0022294D01*
X0369170Y0022298D01*
X0369017Y0022306D01*
X0368864Y0022318D01*
X0368712Y0022334D01*
X0368559Y0022354D01*
X0368408Y0022378D01*
X0368257Y0022406D01*
X0368107Y0022437D01*
X0367958Y0022473D01*
X0367810Y0022512D01*
X0367663Y0022555D01*
X0367517Y0022602D01*
X0367372Y0022653D01*
X0367229Y0022708D01*
X0367087Y0022766D01*
X0366947Y0022828D01*
X0366808Y0022893D01*
X0366671Y0022962D01*
X0366536Y0023035D01*
X0366403Y0023111D01*
X0366272Y0023191D01*
X0366143Y0023273D01*
X0366016Y0023360D01*
X0365891Y0023449D01*
X0365769Y0023542D01*
X0365650Y0023638D01*
X0365532Y0023737D01*
X0365418Y0023838D01*
X0365306Y0023943D01*
X0365197Y0024051D01*
X0365091Y0024162D01*
X0364987Y0024275D01*
X0364887Y0024391D01*
X0364789Y0024509D01*
X0364695Y0024630D01*
X0364604Y0024753D01*
X0364516Y0024879D01*
X0364432Y0025007D01*
X0364350Y0025137D01*
X0364273Y0025269D01*
X0364198Y0025403D01*
X0364127Y0025539D01*
X0364060Y0025677D01*
X0363996Y0025817D01*
X0363936Y0025958D01*
X0363880Y0026100D01*
X0363827Y0026244D01*
X0363778Y0026390D01*
X0363733Y0026536D01*
X0363692Y0026684D01*
X0363655Y0026832D01*
X0363621Y0026982D01*
X0363591Y0027133D01*
X0363566Y0027284D01*
X0363544Y0027435D01*
X0363526Y0027588D01*
X0363512Y0027740D01*
X0363502Y0027893D01*
X0363496Y0028047D01*
X0363494Y0028200D01*
D11*
X0210800Y0144500D03*
X0212800Y0164000D03*
X0172800Y0164000D03*
X0170800Y0144500D03*
X0146800Y0145500D03*
X0147300Y0164500D03*
X0107300Y0164500D03*
X0106800Y0145500D03*
X0085300Y0148500D03*
X0084800Y0166000D03*
X0044800Y0166000D03*
X0045300Y0148500D03*
D12*
X0081800Y0118500D02*
X0081800Y0112500D01*
X0091800Y0112500D02*
X0091800Y0118500D01*
X0101800Y0118500D02*
X0101800Y0112500D01*
X0111800Y0112500D02*
X0111800Y0118500D01*
X0111800Y0078000D02*
X0111800Y0072000D01*
X0101800Y0072000D02*
X0101800Y0078000D01*
X0121800Y0078000D02*
X0121800Y0072000D01*
X0131800Y0072000D02*
X0131800Y0078000D01*
X0243800Y0112500D02*
X0243800Y0118500D01*
X0253800Y0118500D02*
X0253800Y0112500D01*
X0263800Y0112500D02*
X0263800Y0118500D01*
X0273800Y0118500D02*
X0273800Y0112500D01*
X0273800Y0077000D02*
X0273800Y0071000D01*
X0263800Y0071000D02*
X0263800Y0077000D01*
X0283800Y0077000D02*
X0283800Y0071000D01*
X0293800Y0071000D02*
X0293800Y0077000D01*
X0338800Y0279000D02*
X0338800Y0285000D01*
X0348800Y0285000D02*
X0348800Y0279000D01*
X0358800Y0279000D02*
X0358800Y0285000D01*
X0368800Y0285000D02*
X0368800Y0279000D01*
D13*
X0351800Y0336400D02*
X0351800Y0341600D01*
X0341800Y0341600D02*
X0341800Y0336400D01*
X0331800Y0336400D02*
X0331800Y0341600D01*
X0321800Y0341600D02*
X0321800Y0336400D01*
X0311800Y0336400D02*
X0311800Y0341600D01*
X0301800Y0341600D02*
X0301800Y0336400D01*
X0291800Y0336400D02*
X0291800Y0341600D01*
X0281800Y0341600D02*
X0281800Y0336400D01*
X0271800Y0336400D02*
X0271800Y0341600D01*
X0261800Y0341600D02*
X0261800Y0336400D01*
X0251800Y0336400D02*
X0251800Y0341600D01*
X0241800Y0341600D02*
X0241800Y0336400D01*
X0246200Y0250500D02*
X0251400Y0250500D01*
X0251400Y0240500D02*
X0246200Y0240500D01*
X0246200Y0230500D02*
X0251400Y0230500D01*
X0251400Y0220500D02*
X0246200Y0220500D01*
X0246200Y0210500D02*
X0251400Y0210500D01*
X0251400Y0200500D02*
X0246200Y0200500D01*
X0246200Y0190500D02*
X0251400Y0190500D01*
X0251400Y0180500D02*
X0246200Y0180500D01*
X0246200Y0170500D02*
X0251400Y0170500D01*
X0251400Y0160500D02*
X0246200Y0160500D01*
X0201800Y0019100D02*
X0201800Y0013900D01*
X0191800Y0013900D02*
X0191800Y0019100D01*
X0181800Y0019100D02*
X0181800Y0013900D01*
X0171800Y0013900D02*
X0171800Y0019100D01*
X0161800Y0019100D02*
X0161800Y0013900D01*
D14*
X0196800Y0204000D03*
X0196800Y0214000D03*
X0196800Y0224000D03*
X0196800Y0234000D03*
X0196800Y0244000D03*
X0196800Y0254000D03*
X0196800Y0264000D03*
X0196800Y0274000D03*
X0196800Y0284000D03*
X0196800Y0294000D03*
X0206800Y0294000D03*
X0206800Y0284000D03*
X0206800Y0274000D03*
X0206800Y0264000D03*
X0206800Y0254000D03*
X0206800Y0244000D03*
X0206800Y0234000D03*
X0206800Y0224000D03*
X0206800Y0214000D03*
X0206800Y0204000D03*
X0037300Y0204500D03*
X0037300Y0214500D03*
X0037300Y0224500D03*
X0037300Y0234500D03*
X0037300Y0244500D03*
X0037300Y0254500D03*
X0037300Y0264500D03*
X0037300Y0274500D03*
X0037300Y0284500D03*
X0037300Y0294500D03*
X0027300Y0294500D03*
X0027300Y0284500D03*
X0027300Y0274500D03*
X0027300Y0264500D03*
X0027300Y0254500D03*
X0027300Y0244500D03*
X0027300Y0234500D03*
X0027300Y0224500D03*
X0027300Y0214500D03*
X0027300Y0204500D03*
D15*
X0031700Y0203799D02*
X0032900Y0203799D01*
X0032900Y0202677D02*
X0035477Y0200100D01*
X0039123Y0200100D01*
X0041700Y0202677D01*
X0041700Y0206323D01*
X0039123Y0208900D01*
X0035477Y0208900D01*
X0032900Y0206323D01*
X0032900Y0202677D01*
X0033377Y0202201D02*
X0031223Y0202201D01*
X0031700Y0202677D02*
X0029123Y0200100D01*
X0025477Y0200100D01*
X0022900Y0202677D01*
X0022900Y0206323D01*
X0025477Y0208900D01*
X0029123Y0208900D01*
X0031700Y0206323D01*
X0031700Y0202677D01*
X0031700Y0205398D02*
X0032900Y0205398D01*
X0033574Y0206996D02*
X0031026Y0206996D01*
X0029428Y0208595D02*
X0035172Y0208595D01*
X0035477Y0210100D02*
X0039123Y0210100D01*
X0041700Y0212677D01*
X0041700Y0216323D01*
X0039123Y0218900D01*
X0035477Y0218900D01*
X0032900Y0216323D01*
X0032900Y0212677D01*
X0035477Y0210100D01*
X0035384Y0210193D02*
X0029216Y0210193D01*
X0029123Y0210100D02*
X0031700Y0212677D01*
X0031700Y0216323D01*
X0029123Y0218900D01*
X0025477Y0218900D01*
X0022900Y0216323D01*
X0022900Y0212677D01*
X0025477Y0210100D01*
X0029123Y0210100D01*
X0030814Y0211792D02*
X0033786Y0211792D01*
X0032900Y0213390D02*
X0031700Y0213390D01*
X0031700Y0214989D02*
X0032900Y0214989D01*
X0033165Y0216587D02*
X0031435Y0216587D01*
X0029837Y0218186D02*
X0034763Y0218186D01*
X0035477Y0220100D02*
X0039123Y0220100D01*
X0041700Y0222677D01*
X0041700Y0226323D01*
X0039123Y0228900D01*
X0035477Y0228900D01*
X0032900Y0226323D01*
X0032900Y0222677D01*
X0035477Y0220100D01*
X0034195Y0221383D02*
X0030405Y0221383D01*
X0029123Y0220100D02*
X0031700Y0222677D01*
X0031700Y0226323D01*
X0029123Y0228900D01*
X0025477Y0228900D01*
X0022900Y0226323D01*
X0022900Y0222677D01*
X0025477Y0220100D01*
X0029123Y0220100D01*
X0031700Y0222981D02*
X0032900Y0222981D01*
X0032900Y0224580D02*
X0031700Y0224580D01*
X0031700Y0226178D02*
X0032900Y0226178D01*
X0034354Y0227777D02*
X0030246Y0227777D01*
X0029123Y0230100D02*
X0025477Y0230100D01*
X0022900Y0232677D01*
X0022900Y0236323D01*
X0025477Y0238900D01*
X0029123Y0238900D01*
X0031700Y0236323D01*
X0031700Y0232677D01*
X0029123Y0230100D01*
X0029996Y0230974D02*
X0034604Y0230974D01*
X0035477Y0230100D02*
X0039123Y0230100D01*
X0041700Y0232677D01*
X0041700Y0236323D01*
X0039123Y0238900D01*
X0035477Y0238900D01*
X0032900Y0236323D01*
X0032900Y0232677D01*
X0035477Y0230100D01*
X0033005Y0232572D02*
X0031595Y0232572D01*
X0031700Y0234171D02*
X0032900Y0234171D01*
X0032900Y0235769D02*
X0031700Y0235769D01*
X0030655Y0237368D02*
X0033945Y0237368D01*
X0035477Y0240100D02*
X0039123Y0240100D01*
X0041700Y0242677D01*
X0041700Y0246323D01*
X0039123Y0248900D01*
X0035477Y0248900D01*
X0032900Y0246323D01*
X0032900Y0242677D01*
X0035477Y0240100D01*
X0035013Y0240565D02*
X0029587Y0240565D01*
X0029123Y0240100D02*
X0031700Y0242677D01*
X0031700Y0246323D01*
X0029123Y0248900D01*
X0025477Y0248900D01*
X0022900Y0246323D01*
X0022900Y0242677D01*
X0025477Y0240100D01*
X0029123Y0240100D01*
X0031186Y0242163D02*
X0033414Y0242163D01*
X0032900Y0243762D02*
X0031700Y0243762D01*
X0031700Y0245360D02*
X0032900Y0245360D01*
X0033536Y0246959D02*
X0031064Y0246959D01*
X0029465Y0248557D02*
X0035135Y0248557D01*
X0035477Y0250100D02*
X0039123Y0250100D01*
X0041700Y0252677D01*
X0041700Y0256323D01*
X0039123Y0258900D01*
X0035477Y0258900D01*
X0032900Y0256323D01*
X0032900Y0252677D01*
X0035477Y0250100D01*
X0035422Y0250156D02*
X0029178Y0250156D01*
X0029123Y0250100D02*
X0031700Y0252677D01*
X0031700Y0256323D01*
X0029123Y0258900D01*
X0025477Y0258900D01*
X0022900Y0256323D01*
X0022900Y0252677D01*
X0025477Y0250100D01*
X0029123Y0250100D01*
X0030777Y0251754D02*
X0033823Y0251754D01*
X0032900Y0253353D02*
X0031700Y0253353D01*
X0031700Y0254951D02*
X0032900Y0254951D01*
X0033127Y0256550D02*
X0031473Y0256550D01*
X0029874Y0258148D02*
X0034726Y0258148D01*
X0035477Y0260100D02*
X0039123Y0260100D01*
X0041700Y0262677D01*
X0041700Y0266323D01*
X0039123Y0268900D01*
X0035477Y0268900D01*
X0032900Y0266323D01*
X0032900Y0262677D01*
X0035477Y0260100D01*
X0034232Y0261345D02*
X0030368Y0261345D01*
X0029123Y0260100D02*
X0031700Y0262677D01*
X0031700Y0266323D01*
X0029123Y0268900D01*
X0025477Y0268900D01*
X0022900Y0266323D01*
X0022900Y0262677D01*
X0025477Y0260100D01*
X0029123Y0260100D01*
X0031700Y0262944D02*
X0032900Y0262944D01*
X0032900Y0264542D02*
X0031700Y0264542D01*
X0031700Y0266141D02*
X0032900Y0266141D01*
X0034317Y0267739D02*
X0030283Y0267739D01*
X0029123Y0270100D02*
X0025477Y0270100D01*
X0022900Y0272677D01*
X0022900Y0276323D01*
X0025477Y0278900D01*
X0029123Y0278900D01*
X0031700Y0276323D01*
X0031700Y0272677D01*
X0029123Y0270100D01*
X0029959Y0270937D02*
X0034641Y0270937D01*
X0035477Y0270100D02*
X0039123Y0270100D01*
X0041700Y0272677D01*
X0041700Y0276323D01*
X0039123Y0278900D01*
X0035477Y0278900D01*
X0032900Y0276323D01*
X0032900Y0272677D01*
X0035477Y0270100D01*
X0033042Y0272535D02*
X0031558Y0272535D01*
X0031700Y0274134D02*
X0032900Y0274134D01*
X0032900Y0275732D02*
X0031700Y0275732D01*
X0030692Y0277331D02*
X0033908Y0277331D01*
X0035395Y0279900D02*
X0032700Y0282595D01*
X0032700Y0284400D01*
X0037200Y0284400D01*
X0037200Y0284600D01*
X0037200Y0289100D01*
X0035395Y0289100D01*
X0032700Y0286405D01*
X0032700Y0284600D01*
X0037200Y0284600D01*
X0037400Y0284600D01*
X0037400Y0289100D01*
X0039205Y0289100D01*
X0041900Y0286405D01*
X0041900Y0284600D01*
X0037400Y0284600D01*
X0037400Y0284400D01*
X0041900Y0284400D01*
X0041900Y0282595D01*
X0039205Y0279900D01*
X0037400Y0279900D01*
X0037400Y0284400D01*
X0037200Y0284400D01*
X0037200Y0279900D01*
X0035395Y0279900D01*
X0034767Y0280528D02*
X0029550Y0280528D01*
X0029123Y0280100D02*
X0031700Y0282677D01*
X0031700Y0286323D01*
X0029123Y0288900D01*
X0025477Y0288900D01*
X0022900Y0286323D01*
X0022900Y0282677D01*
X0025477Y0280100D01*
X0029123Y0280100D01*
X0031149Y0282126D02*
X0033169Y0282126D01*
X0032700Y0283725D02*
X0031700Y0283725D01*
X0031700Y0285323D02*
X0032700Y0285323D01*
X0033216Y0286922D02*
X0031101Y0286922D01*
X0029502Y0288520D02*
X0034815Y0288520D01*
X0035477Y0290100D02*
X0039123Y0290100D01*
X0041700Y0292677D01*
X0041700Y0296323D01*
X0039123Y0298900D01*
X0035477Y0298900D01*
X0032900Y0296323D01*
X0032900Y0292677D01*
X0035477Y0290100D01*
X0035459Y0290119D02*
X0029141Y0290119D01*
X0029123Y0290100D02*
X0031700Y0292677D01*
X0031700Y0295506D01*
X0072794Y0336600D01*
X0237600Y0336600D01*
X0237600Y0335565D01*
X0238239Y0334021D01*
X0239400Y0332860D01*
X0239400Y0257023D01*
X0239765Y0256141D01*
X0242833Y0253073D01*
X0242639Y0252879D01*
X0242000Y0251335D01*
X0242000Y0249665D01*
X0242639Y0248121D01*
X0243821Y0246939D01*
X0245365Y0246300D01*
X0252235Y0246300D01*
X0253779Y0246939D01*
X0254961Y0248121D01*
X0255600Y0249665D01*
X0255600Y0251335D01*
X0254961Y0252879D01*
X0253779Y0254061D01*
X0252235Y0254700D01*
X0247994Y0254700D01*
X0244200Y0258494D01*
X0244200Y0332860D01*
X0245361Y0334021D01*
X0246000Y0335565D01*
X0246000Y0342435D01*
X0245361Y0343979D01*
X0244179Y0345161D01*
X0242635Y0345800D01*
X0240965Y0345800D01*
X0239421Y0345161D01*
X0238239Y0343979D01*
X0237600Y0342435D01*
X0237600Y0341400D01*
X0071323Y0341400D01*
X0070441Y0341035D01*
X0028306Y0298900D01*
X0025477Y0298900D01*
X0022900Y0296323D01*
X0022900Y0292677D01*
X0025477Y0290100D01*
X0029123Y0290100D01*
X0030740Y0291717D02*
X0033860Y0291717D01*
X0032900Y0293316D02*
X0031700Y0293316D01*
X0031700Y0294914D02*
X0032900Y0294914D01*
X0032707Y0296513D02*
X0033090Y0296513D01*
X0034305Y0298111D02*
X0034689Y0298111D01*
X0035904Y0299710D02*
X0140116Y0299710D01*
X0141714Y0301308D02*
X0037502Y0301308D01*
X0039101Y0302907D02*
X0143313Y0302907D01*
X0144911Y0304505D02*
X0040699Y0304505D01*
X0042298Y0306104D02*
X0146510Y0306104D01*
X0148108Y0307702D02*
X0043896Y0307702D01*
X0045495Y0309301D02*
X0149707Y0309301D01*
X0150441Y0310035D02*
X0120441Y0280035D01*
X0119765Y0279359D01*
X0119400Y0278477D01*
X0119400Y0161494D01*
X0107606Y0149700D01*
X0105060Y0149700D01*
X0102600Y0147240D01*
X0102600Y0143760D01*
X0105060Y0141300D01*
X0108540Y0141300D01*
X0111000Y0143760D01*
X0111000Y0146306D01*
X0123835Y0159141D01*
X0124200Y0160023D01*
X0124200Y0277006D01*
X0152794Y0305600D01*
X0210806Y0305600D01*
X0219400Y0297006D01*
X0219400Y0218994D01*
X0216806Y0216400D01*
X0210623Y0216400D01*
X0208623Y0218400D01*
X0204977Y0218400D01*
X0202400Y0215823D01*
X0202400Y0212177D01*
X0204977Y0209600D01*
X0208623Y0209600D01*
X0210623Y0211600D01*
X0218277Y0211600D01*
X0219159Y0211965D01*
X0223159Y0215965D01*
X0223835Y0216641D01*
X0224200Y0217523D01*
X0224200Y0298477D01*
X0223835Y0299359D01*
X0213835Y0309359D01*
X0213159Y0310035D01*
X0212277Y0310400D01*
X0151323Y0310400D01*
X0150441Y0310035D01*
X0151800Y0308000D02*
X0121800Y0278000D01*
X0121800Y0160500D01*
X0106800Y0145500D01*
X0110295Y0143056D02*
X0143305Y0143056D01*
X0142600Y0143760D02*
X0145060Y0141300D01*
X0148540Y0141300D01*
X0151000Y0143760D01*
X0151000Y0147240D01*
X0148540Y0149700D01*
X0145060Y0149700D01*
X0142600Y0147240D01*
X0142600Y0143760D01*
X0142600Y0144654D02*
X0111000Y0144654D01*
X0111000Y0146253D02*
X0142600Y0146253D01*
X0143211Y0147851D02*
X0112545Y0147851D01*
X0114144Y0149450D02*
X0144810Y0149450D01*
X0148790Y0149450D02*
X0162456Y0149450D01*
X0160858Y0151048D02*
X0115742Y0151048D01*
X0117341Y0152647D02*
X0159259Y0152647D01*
X0157661Y0154245D02*
X0118939Y0154245D01*
X0120538Y0155844D02*
X0156062Y0155844D01*
X0154765Y0157141D02*
X0166600Y0145306D01*
X0166600Y0142760D01*
X0169060Y0140300D01*
X0172540Y0140300D01*
X0175000Y0142760D01*
X0175000Y0146240D01*
X0172540Y0148700D01*
X0169994Y0148700D01*
X0159200Y0159494D01*
X0159200Y0168477D01*
X0158835Y0169359D01*
X0158159Y0170035D01*
X0144200Y0183994D01*
X0144200Y0277006D01*
X0148794Y0281600D01*
X0192977Y0281600D01*
X0194977Y0279600D01*
X0198623Y0279600D01*
X0201200Y0282177D01*
X0201200Y0285823D01*
X0198623Y0288400D01*
X0194977Y0288400D01*
X0192977Y0286400D01*
X0147323Y0286400D01*
X0146441Y0286035D01*
X0140441Y0280035D01*
X0139765Y0279359D01*
X0139400Y0278477D01*
X0139400Y0182523D01*
X0139765Y0181641D01*
X0154400Y0167006D01*
X0154400Y0158023D01*
X0154765Y0157141D01*
X0154640Y0157442D02*
X0122136Y0157442D01*
X0123735Y0159041D02*
X0154400Y0159041D01*
X0154400Y0160639D02*
X0149379Y0160639D01*
X0149040Y0160300D02*
X0151500Y0162760D01*
X0151500Y0166240D01*
X0149040Y0168700D01*
X0146494Y0168700D01*
X0134200Y0180994D01*
X0134200Y0277006D01*
X0148794Y0291600D01*
X0192977Y0291600D01*
X0194977Y0289600D01*
X0198623Y0289600D01*
X0201200Y0292177D01*
X0201200Y0295823D01*
X0198623Y0298400D01*
X0194977Y0298400D01*
X0192977Y0296400D01*
X0147323Y0296400D01*
X0146441Y0296035D01*
X0130441Y0280035D01*
X0129765Y0279359D01*
X0129400Y0278477D01*
X0129400Y0179523D01*
X0129765Y0178641D01*
X0143100Y0165306D01*
X0143100Y0162760D01*
X0145560Y0160300D01*
X0149040Y0160300D01*
X0150977Y0162238D02*
X0154400Y0162238D01*
X0154400Y0163836D02*
X0151500Y0163836D01*
X0151500Y0165435D02*
X0154400Y0165435D01*
X0154373Y0167033D02*
X0150706Y0167033D01*
X0149108Y0168632D02*
X0152774Y0168632D01*
X0151176Y0170230D02*
X0144964Y0170230D01*
X0143365Y0171829D02*
X0149577Y0171829D01*
X0147979Y0173427D02*
X0141767Y0173427D01*
X0140168Y0175026D02*
X0146380Y0175026D01*
X0144782Y0176624D02*
X0138570Y0176624D01*
X0136971Y0178223D02*
X0143183Y0178223D01*
X0141585Y0179821D02*
X0135373Y0179821D01*
X0134200Y0181420D02*
X0139986Y0181420D01*
X0139400Y0183018D02*
X0134200Y0183018D01*
X0134200Y0184617D02*
X0139400Y0184617D01*
X0139400Y0186215D02*
X0134200Y0186215D01*
X0134200Y0187814D02*
X0139400Y0187814D01*
X0139400Y0189412D02*
X0134200Y0189412D01*
X0134200Y0191011D02*
X0139400Y0191011D01*
X0139400Y0192609D02*
X0134200Y0192609D01*
X0134200Y0194208D02*
X0139400Y0194208D01*
X0139400Y0195806D02*
X0134200Y0195806D01*
X0134200Y0197405D02*
X0139400Y0197405D01*
X0139400Y0199003D02*
X0134200Y0199003D01*
X0134200Y0200602D02*
X0139400Y0200602D01*
X0139400Y0202201D02*
X0134200Y0202201D01*
X0134200Y0203799D02*
X0139400Y0203799D01*
X0139400Y0205398D02*
X0134200Y0205398D01*
X0134200Y0206996D02*
X0139400Y0206996D01*
X0139400Y0208595D02*
X0134200Y0208595D01*
X0134200Y0210193D02*
X0139400Y0210193D01*
X0139400Y0211792D02*
X0134200Y0211792D01*
X0134200Y0213390D02*
X0139400Y0213390D01*
X0139400Y0214989D02*
X0134200Y0214989D01*
X0134200Y0216587D02*
X0139400Y0216587D01*
X0139400Y0218186D02*
X0134200Y0218186D01*
X0134200Y0219784D02*
X0139400Y0219784D01*
X0139400Y0221383D02*
X0134200Y0221383D01*
X0134200Y0222981D02*
X0139400Y0222981D01*
X0139400Y0224580D02*
X0134200Y0224580D01*
X0134200Y0226178D02*
X0139400Y0226178D01*
X0139400Y0227777D02*
X0134200Y0227777D01*
X0134200Y0229375D02*
X0139400Y0229375D01*
X0139400Y0230974D02*
X0134200Y0230974D01*
X0134200Y0232572D02*
X0139400Y0232572D01*
X0139400Y0234171D02*
X0134200Y0234171D01*
X0134200Y0235769D02*
X0139400Y0235769D01*
X0139400Y0237368D02*
X0134200Y0237368D01*
X0134200Y0238966D02*
X0139400Y0238966D01*
X0139400Y0240565D02*
X0134200Y0240565D01*
X0134200Y0242163D02*
X0139400Y0242163D01*
X0139400Y0243762D02*
X0134200Y0243762D01*
X0134200Y0245360D02*
X0139400Y0245360D01*
X0139400Y0246959D02*
X0134200Y0246959D01*
X0134200Y0248557D02*
X0139400Y0248557D01*
X0139400Y0250156D02*
X0134200Y0250156D01*
X0134200Y0251754D02*
X0139400Y0251754D01*
X0139400Y0253353D02*
X0134200Y0253353D01*
X0134200Y0254951D02*
X0139400Y0254951D01*
X0139400Y0256550D02*
X0134200Y0256550D01*
X0134200Y0258148D02*
X0139400Y0258148D01*
X0139400Y0259747D02*
X0134200Y0259747D01*
X0134200Y0261345D02*
X0139400Y0261345D01*
X0139400Y0262944D02*
X0134200Y0262944D01*
X0134200Y0264542D02*
X0139400Y0264542D01*
X0139400Y0266141D02*
X0134200Y0266141D01*
X0134200Y0267739D02*
X0139400Y0267739D01*
X0139400Y0269338D02*
X0134200Y0269338D01*
X0134200Y0270937D02*
X0139400Y0270937D01*
X0139400Y0272535D02*
X0134200Y0272535D01*
X0134200Y0274134D02*
X0139400Y0274134D01*
X0139400Y0275732D02*
X0134200Y0275732D01*
X0134525Y0277331D02*
X0139400Y0277331D01*
X0139587Y0278929D02*
X0136123Y0278929D01*
X0137722Y0280528D02*
X0140933Y0280528D01*
X0142532Y0282126D02*
X0139320Y0282126D01*
X0140919Y0283725D02*
X0144130Y0283725D01*
X0145729Y0285323D02*
X0142517Y0285323D01*
X0144116Y0286922D02*
X0193499Y0286922D01*
X0194459Y0290119D02*
X0147313Y0290119D01*
X0145714Y0288520D02*
X0219400Y0288520D01*
X0219400Y0286922D02*
X0210101Y0286922D01*
X0211200Y0285823D02*
X0208623Y0288400D01*
X0204977Y0288400D01*
X0202400Y0285823D01*
X0202400Y0282177D01*
X0204977Y0279600D01*
X0208623Y0279600D01*
X0211200Y0282177D01*
X0211200Y0285823D01*
X0211200Y0285323D02*
X0219400Y0285323D01*
X0219400Y0283725D02*
X0211200Y0283725D01*
X0211149Y0282126D02*
X0219400Y0282126D01*
X0219400Y0280528D02*
X0209550Y0280528D01*
X0208623Y0278400D02*
X0204977Y0278400D01*
X0202400Y0275823D01*
X0202400Y0272177D01*
X0204977Y0269600D01*
X0208623Y0269600D01*
X0211200Y0272177D01*
X0211200Y0275823D01*
X0208623Y0278400D01*
X0209692Y0277331D02*
X0219400Y0277331D01*
X0219400Y0278929D02*
X0146123Y0278929D01*
X0144525Y0277331D02*
X0193908Y0277331D01*
X0192977Y0276400D02*
X0194977Y0278400D01*
X0198623Y0278400D01*
X0201200Y0275823D01*
X0201200Y0272177D01*
X0198623Y0269600D01*
X0194977Y0269600D01*
X0192977Y0271600D01*
X0153794Y0271600D01*
X0149200Y0267006D01*
X0149200Y0193994D01*
X0167794Y0175400D01*
X0177277Y0175400D01*
X0178159Y0175035D01*
X0188159Y0165035D01*
X0188835Y0164359D01*
X0189200Y0163477D01*
X0189200Y0142523D01*
X0188835Y0141641D01*
X0178835Y0131641D01*
X0178159Y0130965D01*
X0177277Y0130600D01*
X0097794Y0130600D01*
X0094200Y0127006D01*
X0094200Y0122485D01*
X0094406Y0122400D01*
X0095700Y0121106D01*
X0096400Y0119415D01*
X0096400Y0111585D01*
X0095700Y0109894D01*
X0094406Y0108600D01*
X0092715Y0107900D01*
X0090885Y0107900D01*
X0089194Y0108600D01*
X0087900Y0109894D01*
X0087200Y0111585D01*
X0087200Y0119415D01*
X0087900Y0121106D01*
X0089194Y0122400D01*
X0089400Y0122485D01*
X0089400Y0128477D01*
X0089765Y0129359D01*
X0090441Y0130035D01*
X0095441Y0135035D01*
X0096323Y0135400D01*
X0175806Y0135400D01*
X0184400Y0143994D01*
X0184400Y0162006D01*
X0175806Y0170600D01*
X0166323Y0170600D01*
X0165441Y0170965D01*
X0164765Y0171641D01*
X0144765Y0191641D01*
X0144400Y0192523D01*
X0144400Y0268477D01*
X0144765Y0269359D01*
X0145441Y0270035D01*
X0151441Y0276035D01*
X0152323Y0276400D01*
X0192977Y0276400D01*
X0194050Y0280528D02*
X0147722Y0280528D01*
X0147800Y0284000D02*
X0141800Y0278000D01*
X0141800Y0183000D01*
X0156800Y0168000D01*
X0156800Y0158500D01*
X0170800Y0144500D01*
X0173697Y0141457D02*
X0181863Y0141457D01*
X0180264Y0139859D02*
X0009853Y0139859D01*
X0009833Y0141457D02*
X0104903Y0141457D01*
X0103305Y0143056D02*
X0009813Y0143056D01*
X0009792Y0144654D02*
X0043206Y0144654D01*
X0043560Y0144300D02*
X0047040Y0144300D01*
X0049500Y0146760D01*
X0049500Y0150240D01*
X0047040Y0152700D01*
X0043560Y0152700D01*
X0041100Y0150240D01*
X0041100Y0146760D01*
X0043560Y0144300D01*
X0041608Y0146253D02*
X0009772Y0146253D01*
X0009751Y0147851D02*
X0041100Y0147851D01*
X0041100Y0149450D02*
X0009731Y0149450D01*
X0009711Y0151048D02*
X0041908Y0151048D01*
X0043507Y0152647D02*
X0009690Y0152647D01*
X0009670Y0154245D02*
X0112151Y0154245D01*
X0110553Y0152647D02*
X0087093Y0152647D01*
X0087040Y0152700D02*
X0083560Y0152700D01*
X0081100Y0150240D01*
X0081100Y0146760D01*
X0083560Y0144300D01*
X0087040Y0144300D01*
X0089500Y0146760D01*
X0089500Y0150240D01*
X0087040Y0152700D01*
X0088692Y0151048D02*
X0108954Y0151048D01*
X0104810Y0149450D02*
X0089500Y0149450D01*
X0089500Y0147851D02*
X0103211Y0147851D01*
X0102600Y0146253D02*
X0088992Y0146253D01*
X0087394Y0144654D02*
X0102600Y0144654D01*
X0108697Y0141457D02*
X0144903Y0141457D01*
X0148697Y0141457D02*
X0167903Y0141457D01*
X0166600Y0143056D02*
X0150295Y0143056D01*
X0151000Y0144654D02*
X0166600Y0144654D01*
X0165653Y0146253D02*
X0151000Y0146253D01*
X0150389Y0147851D02*
X0164055Y0147851D01*
X0167646Y0151048D02*
X0184400Y0151048D01*
X0184400Y0149450D02*
X0169244Y0149450D01*
X0173389Y0147851D02*
X0184400Y0147851D01*
X0184400Y0146253D02*
X0174987Y0146253D01*
X0175000Y0144654D02*
X0184400Y0144654D01*
X0183461Y0143056D02*
X0175000Y0143056D01*
X0178666Y0138260D02*
X0009874Y0138260D01*
X0009894Y0136662D02*
X0177067Y0136662D01*
X0176800Y0133000D02*
X0096800Y0133000D01*
X0091800Y0128000D01*
X0091800Y0115500D01*
X0096400Y0115881D02*
X0097200Y0115881D01*
X0097200Y0117479D02*
X0096400Y0117479D01*
X0096400Y0119078D02*
X0097200Y0119078D01*
X0097200Y0119415D02*
X0097200Y0111585D01*
X0097900Y0109894D01*
X0099194Y0108600D01*
X0100885Y0107900D01*
X0102715Y0107900D01*
X0104406Y0108600D01*
X0105700Y0109894D01*
X0106400Y0111585D01*
X0106400Y0119415D01*
X0105700Y0121106D01*
X0104406Y0122400D01*
X0102715Y0123100D01*
X0100885Y0123100D01*
X0099194Y0122400D01*
X0097900Y0121106D01*
X0097200Y0119415D01*
X0097723Y0120676D02*
X0095877Y0120676D01*
X0094530Y0122275D02*
X0099070Y0122275D01*
X0094200Y0123873D02*
X0174279Y0123873D01*
X0172681Y0122275D02*
X0114770Y0122275D01*
X0114927Y0122161D02*
X0114316Y0122605D01*
X0113643Y0122948D01*
X0112924Y0123182D01*
X0112178Y0123300D01*
X0112000Y0123300D01*
X0112000Y0115700D01*
X0111600Y0115700D01*
X0111600Y0123300D01*
X0111422Y0123300D01*
X0110676Y0123182D01*
X0109957Y0122948D01*
X0109284Y0122605D01*
X0108673Y0122161D01*
X0108139Y0121627D01*
X0107695Y0121016D01*
X0107352Y0120343D01*
X0107118Y0119624D01*
X0107000Y0118878D01*
X0107000Y0115700D01*
X0111600Y0115700D01*
X0111600Y0115300D01*
X0107000Y0115300D01*
X0107000Y0112122D01*
X0107118Y0111376D01*
X0107352Y0110657D01*
X0107695Y0109984D01*
X0108139Y0109373D01*
X0108673Y0108839D01*
X0109284Y0108395D01*
X0109957Y0108052D01*
X0110676Y0107818D01*
X0111422Y0107700D01*
X0111600Y0107700D01*
X0111600Y0115300D01*
X0112000Y0115300D01*
X0112000Y0115700D01*
X0116600Y0115700D01*
X0116600Y0118878D01*
X0116482Y0119624D01*
X0116248Y0120343D01*
X0115905Y0121016D01*
X0115461Y0121627D01*
X0114927Y0122161D01*
X0116078Y0120676D02*
X0171082Y0120676D01*
X0169484Y0119078D02*
X0116568Y0119078D01*
X0116600Y0117479D02*
X0167885Y0117479D01*
X0166287Y0115881D02*
X0116600Y0115881D01*
X0116600Y0115300D02*
X0112000Y0115300D01*
X0112000Y0107700D01*
X0112178Y0107700D01*
X0112924Y0107818D01*
X0113643Y0108052D01*
X0114316Y0108395D01*
X0114927Y0108839D01*
X0115461Y0109373D01*
X0115905Y0109984D01*
X0116248Y0110657D01*
X0116482Y0111376D01*
X0116600Y0112122D01*
X0116600Y0115300D01*
X0116600Y0114282D02*
X0164733Y0114282D01*
X0164765Y0114359D02*
X0164400Y0113477D01*
X0164400Y0033994D01*
X0160441Y0030035D01*
X0159765Y0029359D01*
X0159400Y0028477D01*
X0159400Y0022640D01*
X0158239Y0021479D01*
X0157600Y0019935D01*
X0157600Y0013065D01*
X0158239Y0011521D01*
X0159421Y0010339D01*
X0160965Y0009700D01*
X0162635Y0009700D01*
X0164179Y0010339D01*
X0165361Y0011521D01*
X0166000Y0013065D01*
X0166000Y0019935D01*
X0165361Y0021479D01*
X0164200Y0022640D01*
X0164200Y0027006D01*
X0168835Y0031641D01*
X0169200Y0032523D01*
X0169200Y0112006D01*
X0193835Y0136641D01*
X0194200Y0137523D01*
X0194200Y0168477D01*
X0193835Y0169359D01*
X0193159Y0170035D01*
X0183159Y0180035D01*
X0182277Y0180400D01*
X0172794Y0180400D01*
X0159200Y0193994D01*
X0159200Y0247006D01*
X0163794Y0251600D01*
X0192977Y0251600D01*
X0194977Y0249600D01*
X0198623Y0249600D01*
X0201200Y0252177D01*
X0201200Y0255823D01*
X0198623Y0258400D01*
X0194977Y0258400D01*
X0192977Y0256400D01*
X0162323Y0256400D01*
X0161441Y0256035D01*
X0155441Y0250035D01*
X0155441Y0250035D01*
X0154765Y0249359D01*
X0154400Y0248477D01*
X0154400Y0192523D01*
X0154765Y0191641D01*
X0169765Y0176641D01*
X0170441Y0175965D01*
X0171323Y0175600D01*
X0180806Y0175600D01*
X0189400Y0167006D01*
X0189400Y0138994D01*
X0165441Y0115035D01*
X0164765Y0114359D01*
X0164400Y0112684D02*
X0116600Y0112684D01*
X0116387Y0111085D02*
X0164400Y0111085D01*
X0164400Y0109487D02*
X0115544Y0109487D01*
X0113140Y0107888D02*
X0164400Y0107888D01*
X0164400Y0106290D02*
X0010282Y0106290D01*
X0010261Y0107888D02*
X0110460Y0107888D01*
X0111600Y0107888D02*
X0112000Y0107888D01*
X0112000Y0109487D02*
X0111600Y0109487D01*
X0111600Y0111085D02*
X0112000Y0111085D01*
X0112000Y0112684D02*
X0111600Y0112684D01*
X0111600Y0114282D02*
X0112000Y0114282D01*
X0112000Y0115881D02*
X0111600Y0115881D01*
X0111600Y0117479D02*
X0112000Y0117479D01*
X0112000Y0119078D02*
X0111600Y0119078D01*
X0111600Y0120676D02*
X0112000Y0120676D01*
X0112000Y0122275D02*
X0111600Y0122275D01*
X0108830Y0122275D02*
X0104530Y0122275D01*
X0105877Y0120676D02*
X0107522Y0120676D01*
X0107032Y0119078D02*
X0106400Y0119078D01*
X0106400Y0117479D02*
X0107000Y0117479D01*
X0107000Y0115881D02*
X0106400Y0115881D01*
X0106400Y0114282D02*
X0107000Y0114282D01*
X0107000Y0112684D02*
X0106400Y0112684D01*
X0106193Y0111085D02*
X0107213Y0111085D01*
X0108056Y0109487D02*
X0105292Y0109487D01*
X0098308Y0109487D02*
X0095292Y0109487D01*
X0096193Y0111085D02*
X0097407Y0111085D01*
X0097200Y0112684D02*
X0096400Y0112684D01*
X0096400Y0114282D02*
X0097200Y0114282D01*
X0089070Y0122275D02*
X0084530Y0122275D01*
X0084406Y0122400D02*
X0082715Y0123100D01*
X0080885Y0123100D01*
X0079194Y0122400D01*
X0077900Y0121106D01*
X0077200Y0119415D01*
X0077200Y0111585D01*
X0077900Y0109894D01*
X0079194Y0108600D01*
X0080885Y0107900D01*
X0082715Y0107900D01*
X0084406Y0108600D01*
X0085700Y0109894D01*
X0086400Y0111585D01*
X0086400Y0119415D01*
X0085700Y0121106D01*
X0084406Y0122400D01*
X0085877Y0120676D02*
X0087723Y0120676D01*
X0087200Y0119078D02*
X0086400Y0119078D01*
X0086400Y0117479D02*
X0087200Y0117479D01*
X0087200Y0115881D02*
X0086400Y0115881D01*
X0086400Y0114282D02*
X0087200Y0114282D01*
X0087200Y0112684D02*
X0086400Y0112684D01*
X0086193Y0111085D02*
X0087407Y0111085D01*
X0088308Y0109487D02*
X0085292Y0109487D01*
X0078308Y0109487D02*
X0010241Y0109487D01*
X0010221Y0111085D02*
X0077407Y0111085D01*
X0077200Y0112684D02*
X0010200Y0112684D01*
X0010180Y0114282D02*
X0077200Y0114282D01*
X0077200Y0115881D02*
X0010159Y0115881D01*
X0010139Y0117479D02*
X0077200Y0117479D01*
X0077200Y0119078D02*
X0010119Y0119078D01*
X0010098Y0120676D02*
X0077723Y0120676D01*
X0079070Y0122275D02*
X0010078Y0122275D01*
X0010057Y0123873D02*
X0089400Y0123873D01*
X0089400Y0125472D02*
X0010037Y0125472D01*
X0010017Y0127070D02*
X0089400Y0127070D01*
X0089479Y0128669D02*
X0009996Y0128669D01*
X0009976Y0130268D02*
X0090673Y0130268D01*
X0092272Y0131866D02*
X0009955Y0131866D01*
X0009935Y0133465D02*
X0093870Y0133465D01*
X0095509Y0135063D02*
X0009915Y0135063D01*
X0009649Y0155844D02*
X0113750Y0155844D01*
X0115348Y0157442D02*
X0009629Y0157442D01*
X0009609Y0159041D02*
X0116947Y0159041D01*
X0118545Y0160639D02*
X0109662Y0160639D01*
X0109123Y0160100D02*
X0111700Y0162677D01*
X0111700Y0164500D01*
X0111700Y0166323D01*
X0109123Y0168900D01*
X0107300Y0168900D01*
X0107300Y0164500D01*
X0111700Y0164500D01*
X0107300Y0164500D01*
X0107300Y0164500D01*
X0107300Y0164500D01*
X0107300Y0160100D01*
X0109123Y0160100D01*
X0107300Y0160100D02*
X0107300Y0164500D01*
X0107300Y0164500D01*
X0107300Y0164500D01*
X0102900Y0164500D01*
X0102900Y0166323D01*
X0105477Y0168900D01*
X0107300Y0168900D01*
X0107300Y0164500D01*
X0102900Y0164500D01*
X0102900Y0162677D01*
X0105477Y0160100D01*
X0107300Y0160100D01*
X0107300Y0160639D02*
X0107300Y0160639D01*
X0107300Y0162238D02*
X0107300Y0162238D01*
X0107300Y0163836D02*
X0107300Y0163836D01*
X0107300Y0165435D02*
X0107300Y0165435D01*
X0107300Y0167033D02*
X0107300Y0167033D01*
X0107300Y0168632D02*
X0107300Y0168632D01*
X0109391Y0168632D02*
X0119400Y0168632D01*
X0119400Y0170230D02*
X0046792Y0170230D01*
X0046623Y0170400D02*
X0044800Y0170400D01*
X0044800Y0166000D01*
X0049200Y0166000D01*
X0049200Y0167823D01*
X0046623Y0170400D01*
X0044800Y0170400D02*
X0042977Y0170400D01*
X0040400Y0167823D01*
X0040400Y0166000D01*
X0044800Y0166000D01*
X0044800Y0166000D01*
X0044800Y0166000D01*
X0049200Y0166000D01*
X0049200Y0164177D01*
X0046623Y0161600D01*
X0044800Y0161600D01*
X0044800Y0166000D01*
X0044800Y0166000D01*
X0044800Y0166000D01*
X0044800Y0170400D01*
X0044800Y0170230D02*
X0044800Y0170230D01*
X0044800Y0168632D02*
X0044800Y0168632D01*
X0044800Y0167033D02*
X0044800Y0167033D01*
X0044800Y0166000D02*
X0040400Y0166000D01*
X0040400Y0164177D01*
X0042977Y0161600D01*
X0044800Y0161600D01*
X0044800Y0166000D01*
X0044800Y0165435D02*
X0044800Y0165435D01*
X0044800Y0163836D02*
X0044800Y0163836D01*
X0044800Y0162238D02*
X0044800Y0162238D01*
X0047260Y0162238D02*
X0082623Y0162238D01*
X0083060Y0161800D02*
X0086540Y0161800D01*
X0089000Y0164260D01*
X0089000Y0167740D01*
X0086540Y0170200D01*
X0083060Y0170200D01*
X0080600Y0167740D01*
X0080600Y0164260D01*
X0083060Y0161800D01*
X0081024Y0163836D02*
X0048859Y0163836D01*
X0049200Y0165435D02*
X0080600Y0165435D01*
X0080600Y0167033D02*
X0049200Y0167033D01*
X0048391Y0168632D02*
X0081492Y0168632D01*
X0088108Y0168632D02*
X0105209Y0168632D01*
X0103611Y0167033D02*
X0089000Y0167033D01*
X0089000Y0165435D02*
X0102900Y0165435D01*
X0102900Y0163836D02*
X0088576Y0163836D01*
X0086977Y0162238D02*
X0103340Y0162238D01*
X0104938Y0160639D02*
X0009588Y0160639D01*
X0009568Y0162238D02*
X0042340Y0162238D01*
X0040741Y0163836D02*
X0009547Y0163836D01*
X0009527Y0165435D02*
X0040400Y0165435D01*
X0040400Y0167033D02*
X0009507Y0167033D01*
X0009486Y0168632D02*
X0041209Y0168632D01*
X0042808Y0170230D02*
X0009466Y0170230D01*
X0009445Y0171829D02*
X0119400Y0171829D01*
X0119400Y0173427D02*
X0009425Y0173427D01*
X0009405Y0175026D02*
X0119400Y0175026D01*
X0119400Y0176624D02*
X0009384Y0176624D01*
X0009364Y0178223D02*
X0119400Y0178223D01*
X0119400Y0179821D02*
X0009343Y0179821D01*
X0009323Y0181420D02*
X0119400Y0181420D01*
X0119400Y0183018D02*
X0009302Y0183018D01*
X0009282Y0184617D02*
X0119400Y0184617D01*
X0119400Y0186215D02*
X0009262Y0186215D01*
X0009241Y0187814D02*
X0119400Y0187814D01*
X0119400Y0189412D02*
X0009221Y0189412D01*
X0009200Y0191011D02*
X0119400Y0191011D01*
X0119400Y0192609D02*
X0009180Y0192609D01*
X0009160Y0194208D02*
X0119400Y0194208D01*
X0119400Y0195806D02*
X0009139Y0195806D01*
X0009119Y0197405D02*
X0119400Y0197405D01*
X0119400Y0199003D02*
X0009098Y0199003D01*
X0009078Y0200602D02*
X0024975Y0200602D01*
X0023377Y0202201D02*
X0009058Y0202201D01*
X0009037Y0203799D02*
X0022900Y0203799D01*
X0022900Y0205398D02*
X0009017Y0205398D01*
X0008996Y0206996D02*
X0023574Y0206996D01*
X0025172Y0208595D02*
X0008976Y0208595D01*
X0008956Y0210193D02*
X0025384Y0210193D01*
X0023786Y0211792D02*
X0008935Y0211792D01*
X0008915Y0213390D02*
X0022900Y0213390D01*
X0022900Y0214989D02*
X0008894Y0214989D01*
X0008874Y0216587D02*
X0023165Y0216587D01*
X0024763Y0218186D02*
X0008854Y0218186D01*
X0008833Y0219784D02*
X0119400Y0219784D01*
X0119400Y0218186D02*
X0039837Y0218186D01*
X0041435Y0216587D02*
X0119400Y0216587D01*
X0119400Y0214989D02*
X0041700Y0214989D01*
X0041700Y0213390D02*
X0119400Y0213390D01*
X0119400Y0211792D02*
X0040814Y0211792D01*
X0039216Y0210193D02*
X0119400Y0210193D01*
X0119400Y0208595D02*
X0039428Y0208595D01*
X0041026Y0206996D02*
X0119400Y0206996D01*
X0119400Y0205398D02*
X0041700Y0205398D01*
X0041700Y0203799D02*
X0119400Y0203799D01*
X0119400Y0202201D02*
X0041223Y0202201D01*
X0039625Y0200602D02*
X0119400Y0200602D01*
X0124200Y0200602D02*
X0129400Y0200602D01*
X0129400Y0199003D02*
X0124200Y0199003D01*
X0124200Y0197405D02*
X0129400Y0197405D01*
X0129400Y0195806D02*
X0124200Y0195806D01*
X0124200Y0194208D02*
X0129400Y0194208D01*
X0129400Y0192609D02*
X0124200Y0192609D01*
X0124200Y0191011D02*
X0129400Y0191011D01*
X0129400Y0189412D02*
X0124200Y0189412D01*
X0124200Y0187814D02*
X0129400Y0187814D01*
X0129400Y0186215D02*
X0124200Y0186215D01*
X0124200Y0184617D02*
X0129400Y0184617D01*
X0129400Y0183018D02*
X0124200Y0183018D01*
X0124200Y0181420D02*
X0129400Y0181420D01*
X0129400Y0179821D02*
X0124200Y0179821D01*
X0124200Y0178223D02*
X0130183Y0178223D01*
X0131782Y0176624D02*
X0124200Y0176624D01*
X0124200Y0175026D02*
X0133380Y0175026D01*
X0134979Y0173427D02*
X0124200Y0173427D01*
X0124200Y0171829D02*
X0136577Y0171829D01*
X0138176Y0170230D02*
X0124200Y0170230D01*
X0124200Y0168632D02*
X0139774Y0168632D01*
X0141373Y0167033D02*
X0124200Y0167033D01*
X0124200Y0165435D02*
X0142971Y0165435D01*
X0143100Y0163836D02*
X0124200Y0163836D01*
X0124200Y0162238D02*
X0143623Y0162238D01*
X0145221Y0160639D02*
X0124200Y0160639D01*
X0119400Y0162238D02*
X0111260Y0162238D01*
X0111700Y0163836D02*
X0119400Y0163836D01*
X0119400Y0165435D02*
X0111700Y0165435D01*
X0110989Y0167033D02*
X0119400Y0167033D01*
X0131800Y0180000D02*
X0147300Y0164500D01*
X0154767Y0173427D02*
X0162979Y0173427D01*
X0164577Y0171829D02*
X0156365Y0171829D01*
X0157964Y0170230D02*
X0176176Y0170230D01*
X0177774Y0168632D02*
X0159136Y0168632D01*
X0159200Y0167033D02*
X0169611Y0167033D01*
X0168400Y0165823D02*
X0170977Y0168400D01*
X0172800Y0168400D01*
X0174623Y0168400D01*
X0177200Y0165823D01*
X0177200Y0164000D01*
X0172800Y0164000D01*
X0172800Y0164000D01*
X0172800Y0164000D01*
X0172800Y0168400D01*
X0172800Y0164000D01*
X0177200Y0164000D01*
X0177200Y0162177D01*
X0174623Y0159600D01*
X0172800Y0159600D01*
X0172800Y0164000D01*
X0172800Y0164000D01*
X0172800Y0164000D01*
X0168400Y0164000D01*
X0168400Y0165823D01*
X0168400Y0165435D02*
X0159200Y0165435D01*
X0159200Y0163836D02*
X0168400Y0163836D01*
X0168400Y0164000D02*
X0168400Y0162177D01*
X0170977Y0159600D01*
X0172800Y0159600D01*
X0172800Y0164000D01*
X0168400Y0164000D01*
X0168400Y0162238D02*
X0159200Y0162238D01*
X0159200Y0160639D02*
X0169938Y0160639D01*
X0172800Y0160639D02*
X0172800Y0160639D01*
X0172800Y0162238D02*
X0172800Y0162238D01*
X0172800Y0163836D02*
X0172800Y0163836D01*
X0172800Y0165435D02*
X0172800Y0165435D01*
X0172800Y0167033D02*
X0172800Y0167033D01*
X0175989Y0167033D02*
X0179373Y0167033D01*
X0180971Y0165435D02*
X0177200Y0165435D01*
X0177200Y0163836D02*
X0182570Y0163836D01*
X0184168Y0162238D02*
X0177200Y0162238D01*
X0175662Y0160639D02*
X0184400Y0160639D01*
X0184400Y0159041D02*
X0159653Y0159041D01*
X0161252Y0157442D02*
X0184400Y0157442D01*
X0184400Y0155844D02*
X0162850Y0155844D01*
X0164449Y0154245D02*
X0184400Y0154245D01*
X0184400Y0152647D02*
X0166047Y0152647D01*
X0182257Y0135063D02*
X0185469Y0135063D01*
X0187067Y0136662D02*
X0183856Y0136662D01*
X0185454Y0138260D02*
X0188666Y0138260D01*
X0189400Y0139859D02*
X0187053Y0139859D01*
X0188651Y0141457D02*
X0189400Y0141457D01*
X0189400Y0143056D02*
X0189200Y0143056D01*
X0189200Y0144654D02*
X0189400Y0144654D01*
X0189400Y0146253D02*
X0189200Y0146253D01*
X0189200Y0147851D02*
X0189400Y0147851D01*
X0189400Y0149450D02*
X0189200Y0149450D01*
X0189200Y0151048D02*
X0189400Y0151048D01*
X0189400Y0152647D02*
X0189200Y0152647D01*
X0189200Y0154245D02*
X0189400Y0154245D01*
X0189400Y0155844D02*
X0189200Y0155844D01*
X0189200Y0157442D02*
X0189400Y0157442D01*
X0189400Y0159041D02*
X0189200Y0159041D01*
X0189200Y0160639D02*
X0189400Y0160639D01*
X0189400Y0162238D02*
X0189200Y0162238D01*
X0189051Y0163836D02*
X0189400Y0163836D01*
X0189400Y0165435D02*
X0187759Y0165435D01*
X0186161Y0167033D02*
X0189373Y0167033D01*
X0187774Y0168632D02*
X0184562Y0168632D01*
X0182964Y0170230D02*
X0186176Y0170230D01*
X0184577Y0171829D02*
X0181365Y0171829D01*
X0179767Y0173427D02*
X0182979Y0173427D01*
X0181380Y0175026D02*
X0178168Y0175026D01*
X0176800Y0173000D02*
X0186800Y0163000D01*
X0186800Y0143000D01*
X0176800Y0133000D01*
X0179060Y0131866D02*
X0182272Y0131866D01*
X0183870Y0133465D02*
X0180659Y0133465D01*
X0180673Y0130268D02*
X0097462Y0130268D01*
X0095863Y0128669D02*
X0179075Y0128669D01*
X0177476Y0127070D02*
X0094265Y0127070D01*
X0094200Y0125472D02*
X0175878Y0125472D01*
X0179469Y0122275D02*
X0182681Y0122275D01*
X0184279Y0123873D02*
X0181068Y0123873D01*
X0182666Y0125472D02*
X0185878Y0125472D01*
X0187476Y0127070D02*
X0184265Y0127070D01*
X0185863Y0128669D02*
X0189075Y0128669D01*
X0190673Y0130268D02*
X0187462Y0130268D01*
X0189060Y0131866D02*
X0192272Y0131866D01*
X0193870Y0133465D02*
X0190659Y0133465D01*
X0192257Y0135063D02*
X0194400Y0135063D01*
X0194400Y0133994D02*
X0175441Y0115035D01*
X0174765Y0114359D01*
X0174400Y0113477D01*
X0174400Y0033994D01*
X0169765Y0029359D01*
X0169400Y0028477D01*
X0169400Y0022640D01*
X0168239Y0021479D01*
X0167600Y0019935D01*
X0167600Y0013065D01*
X0168239Y0011521D01*
X0169421Y0010339D01*
X0170965Y0009700D01*
X0172635Y0009700D01*
X0174179Y0010339D01*
X0175361Y0011521D01*
X0176000Y0013065D01*
X0176000Y0019935D01*
X0175361Y0021479D01*
X0174200Y0022640D01*
X0174200Y0027006D01*
X0178835Y0031641D01*
X0179200Y0032523D01*
X0179200Y0112006D01*
X0198835Y0131641D01*
X0199200Y0132523D01*
X0199200Y0173477D01*
X0198835Y0174359D01*
X0198159Y0175035D01*
X0183159Y0190035D01*
X0182277Y0190400D01*
X0172794Y0190400D01*
X0164200Y0198994D01*
X0164200Y0237006D01*
X0168794Y0241600D01*
X0192977Y0241600D01*
X0194977Y0239600D01*
X0198623Y0239600D01*
X0201200Y0242177D01*
X0201200Y0245823D01*
X0198623Y0248400D01*
X0194977Y0248400D01*
X0192977Y0246400D01*
X0167323Y0246400D01*
X0166441Y0246035D01*
X0160441Y0240035D01*
X0159765Y0239359D01*
X0159400Y0238477D01*
X0159400Y0197523D01*
X0159765Y0196641D01*
X0169765Y0186641D01*
X0170441Y0185965D01*
X0171323Y0185600D01*
X0180806Y0185600D01*
X0194400Y0172006D01*
X0194400Y0133994D01*
X0196800Y0133000D02*
X0176800Y0113000D01*
X0176800Y0033000D01*
X0171800Y0028000D01*
X0171800Y0016500D01*
X0176000Y0016773D02*
X0177600Y0016773D01*
X0177600Y0015175D02*
X0176000Y0015175D01*
X0176000Y0013576D02*
X0177600Y0013576D01*
X0177600Y0013065D02*
X0178239Y0011521D01*
X0179421Y0010339D01*
X0180965Y0009700D01*
X0182635Y0009700D01*
X0184179Y0010339D01*
X0185361Y0011521D01*
X0186000Y0013065D01*
X0186000Y0019935D01*
X0185361Y0021479D01*
X0184179Y0022661D01*
X0182635Y0023300D01*
X0180965Y0023300D01*
X0179421Y0022661D01*
X0178239Y0021479D01*
X0177600Y0019935D01*
X0177600Y0013065D01*
X0178050Y0011978D02*
X0175550Y0011978D01*
X0174219Y0010379D02*
X0179381Y0010379D01*
X0184219Y0010379D02*
X0189381Y0010379D01*
X0189421Y0010339D02*
X0190965Y0009700D01*
X0192635Y0009700D01*
X0194179Y0010339D01*
X0195361Y0011521D01*
X0196000Y0013065D01*
X0196000Y0019935D01*
X0195361Y0021479D01*
X0194179Y0022661D01*
X0192635Y0023300D01*
X0190965Y0023300D01*
X0189421Y0022661D01*
X0188239Y0021479D01*
X0187600Y0019935D01*
X0187600Y0013065D01*
X0188239Y0011521D01*
X0189421Y0010339D01*
X0188050Y0011978D02*
X0185550Y0011978D01*
X0186000Y0013576D02*
X0187600Y0013576D01*
X0187600Y0015175D02*
X0186000Y0015175D01*
X0186000Y0016773D02*
X0187600Y0016773D01*
X0187600Y0018372D02*
X0186000Y0018372D01*
X0185986Y0019970D02*
X0187614Y0019970D01*
X0188329Y0021569D02*
X0185271Y0021569D01*
X0182956Y0023167D02*
X0190644Y0023167D01*
X0192956Y0023167D02*
X0200091Y0023167D01*
X0200111Y0023178D02*
X0199494Y0022863D01*
X0198934Y0022456D01*
X0198444Y0021966D01*
X0198037Y0021406D01*
X0197722Y0020789D01*
X0197508Y0020130D01*
X0197400Y0019446D01*
X0197400Y0016500D01*
X0201800Y0016500D01*
X0206200Y0016500D01*
X0206200Y0019446D01*
X0206092Y0020130D01*
X0205878Y0020789D01*
X0205563Y0021406D01*
X0205156Y0021966D01*
X0204666Y0022456D01*
X0204106Y0022863D01*
X0203489Y0023178D01*
X0202830Y0023392D01*
X0202146Y0023500D01*
X0201800Y0023500D01*
X0201800Y0016500D01*
X0201800Y0016500D01*
X0201800Y0016500D01*
X0206200Y0016500D01*
X0206200Y0013554D01*
X0206092Y0012870D01*
X0205878Y0012211D01*
X0205563Y0011594D01*
X0205156Y0011034D01*
X0204666Y0010544D01*
X0204106Y0010137D01*
X0203489Y0009822D01*
X0202830Y0009608D01*
X0202146Y0009500D01*
X0201800Y0009500D01*
X0201800Y0016500D01*
X0201800Y0016500D01*
X0201800Y0023500D01*
X0201454Y0023500D01*
X0200770Y0023392D01*
X0200111Y0023178D01*
X0201800Y0023167D02*
X0201800Y0023167D01*
X0201800Y0021569D02*
X0201800Y0021569D01*
X0201800Y0019970D02*
X0201800Y0019970D01*
X0201800Y0018372D02*
X0201800Y0018372D01*
X0201800Y0016773D02*
X0201800Y0016773D01*
X0201800Y0016500D02*
X0201800Y0016500D01*
X0201800Y0009500D01*
X0201454Y0009500D01*
X0200770Y0009608D01*
X0200111Y0009822D01*
X0199494Y0010137D01*
X0198934Y0010544D01*
X0198444Y0011034D01*
X0198037Y0011594D01*
X0197722Y0012211D01*
X0197508Y0012870D01*
X0197400Y0013554D01*
X0197400Y0016500D01*
X0201800Y0016500D01*
X0201800Y0015175D02*
X0201800Y0015175D01*
X0201800Y0013576D02*
X0201800Y0013576D01*
X0201800Y0011978D02*
X0201800Y0011978D01*
X0201800Y0010379D02*
X0201800Y0010379D01*
X0204440Y0010379D02*
X0396921Y0010379D01*
X0396921Y0008781D02*
X0011527Y0008781D01*
X0011539Y0007776D02*
X0006662Y0389876D01*
X0396921Y0387925D01*
X0396921Y0005824D01*
X0011539Y0007776D01*
X0011506Y0010379D02*
X0159381Y0010379D01*
X0158050Y0011978D02*
X0037262Y0011978D01*
X0038938Y0012360D02*
X0038938Y0012360D01*
X0043275Y0014864D01*
X0046682Y0018536D01*
X0048855Y0023048D01*
X0049601Y0028000D01*
X0048855Y0032952D01*
X0046682Y0037464D01*
X0046682Y0037464D01*
X0043275Y0041136D01*
X0038938Y0043640D01*
X0034056Y0044754D01*
X0034056Y0044754D01*
X0029061Y0044380D01*
X0024399Y0042550D01*
X0020484Y0039428D01*
X0020484Y0039428D01*
X0020484Y0039428D01*
X0017663Y0035290D01*
X0017663Y0035290D01*
X0016186Y0030504D01*
X0016186Y0025496D01*
X0017663Y0020710D01*
X0020484Y0016572D01*
X0024399Y0013450D01*
X0029061Y0011620D01*
X0029061Y0011620D01*
X0034056Y0011246D01*
X0038938Y0012360D01*
X0041044Y0013576D02*
X0157600Y0013576D01*
X0157600Y0015175D02*
X0043563Y0015175D01*
X0043275Y0014864D02*
X0043275Y0014864D01*
X0045047Y0016773D02*
X0157600Y0016773D01*
X0157600Y0018372D02*
X0046530Y0018372D01*
X0046682Y0018536D02*
X0046682Y0018536D01*
X0047373Y0019970D02*
X0157614Y0019970D01*
X0158329Y0021569D02*
X0048142Y0021569D01*
X0048855Y0023048D02*
X0048855Y0023048D01*
X0048873Y0023167D02*
X0159400Y0023167D01*
X0159400Y0024766D02*
X0049114Y0024766D01*
X0049355Y0026364D02*
X0159400Y0026364D01*
X0159400Y0027963D02*
X0049596Y0027963D01*
X0049366Y0029561D02*
X0159967Y0029561D01*
X0161566Y0031160D02*
X0049125Y0031160D01*
X0048884Y0032758D02*
X0163164Y0032758D01*
X0164400Y0034357D02*
X0048178Y0034357D01*
X0048855Y0032952D02*
X0048855Y0032952D01*
X0047409Y0035955D02*
X0164400Y0035955D01*
X0164400Y0037554D02*
X0046599Y0037554D01*
X0045116Y0039152D02*
X0164400Y0039152D01*
X0164400Y0040751D02*
X0043632Y0040751D01*
X0043275Y0041136D02*
X0043275Y0041136D01*
X0041173Y0042349D02*
X0164400Y0042349D01*
X0164400Y0043948D02*
X0037588Y0043948D01*
X0038938Y0043640D02*
X0038938Y0043640D01*
X0029061Y0044380D02*
X0029061Y0044380D01*
X0027961Y0043948D02*
X0011078Y0043948D01*
X0011057Y0045546D02*
X0164400Y0045546D01*
X0164400Y0047145D02*
X0011037Y0047145D01*
X0011016Y0048743D02*
X0164400Y0048743D01*
X0164400Y0050342D02*
X0010996Y0050342D01*
X0010976Y0051940D02*
X0164400Y0051940D01*
X0164400Y0053539D02*
X0010955Y0053539D01*
X0010935Y0055137D02*
X0164400Y0055137D01*
X0164400Y0056736D02*
X0010914Y0056736D01*
X0010894Y0058334D02*
X0164400Y0058334D01*
X0164400Y0059933D02*
X0010874Y0059933D01*
X0010853Y0061532D02*
X0164400Y0061532D01*
X0164400Y0063130D02*
X0010833Y0063130D01*
X0010812Y0064729D02*
X0164400Y0064729D01*
X0164400Y0066327D02*
X0010792Y0066327D01*
X0010772Y0067926D02*
X0099242Y0067926D01*
X0099284Y0067895D02*
X0099957Y0067552D01*
X0100676Y0067318D01*
X0101422Y0067200D01*
X0101600Y0067200D01*
X0101600Y0074800D01*
X0102000Y0074800D01*
X0102000Y0075200D01*
X0106600Y0075200D01*
X0106600Y0078378D01*
X0106482Y0079124D01*
X0106248Y0079843D01*
X0105905Y0080516D01*
X0105461Y0081127D01*
X0104927Y0081661D01*
X0104316Y0082105D01*
X0103643Y0082448D01*
X0102924Y0082682D01*
X0102178Y0082800D01*
X0102000Y0082800D01*
X0102000Y0075200D01*
X0101600Y0075200D01*
X0101600Y0082800D01*
X0101422Y0082800D01*
X0100676Y0082682D01*
X0099957Y0082448D01*
X0099284Y0082105D01*
X0098673Y0081661D01*
X0098139Y0081127D01*
X0097695Y0080516D01*
X0097352Y0079843D01*
X0097118Y0079124D01*
X0097000Y0078378D01*
X0097000Y0075200D01*
X0101600Y0075200D01*
X0101600Y0074800D01*
X0097000Y0074800D01*
X0097000Y0071622D01*
X0097118Y0070876D01*
X0097352Y0070157D01*
X0097695Y0069484D01*
X0098139Y0068873D01*
X0098673Y0068339D01*
X0099284Y0067895D01*
X0097674Y0069524D02*
X0010751Y0069524D01*
X0010731Y0071123D02*
X0097079Y0071123D01*
X0097000Y0072721D02*
X0010710Y0072721D01*
X0010690Y0074320D02*
X0097000Y0074320D01*
X0097000Y0075918D02*
X0010670Y0075918D01*
X0010649Y0077517D02*
X0097000Y0077517D01*
X0097117Y0079115D02*
X0010629Y0079115D01*
X0010608Y0080714D02*
X0097838Y0080714D01*
X0099690Y0082312D02*
X0010588Y0082312D01*
X0010568Y0083911D02*
X0164400Y0083911D01*
X0164400Y0085509D02*
X0010547Y0085509D01*
X0010527Y0087108D02*
X0164400Y0087108D01*
X0164400Y0088706D02*
X0010506Y0088706D01*
X0010486Y0090305D02*
X0164400Y0090305D01*
X0164400Y0091903D02*
X0010466Y0091903D01*
X0010445Y0093502D02*
X0164400Y0093502D01*
X0164400Y0095100D02*
X0010425Y0095100D01*
X0010404Y0096699D02*
X0164400Y0096699D01*
X0164400Y0098297D02*
X0010384Y0098297D01*
X0010364Y0099896D02*
X0164400Y0099896D01*
X0164400Y0101494D02*
X0010343Y0101494D01*
X0010323Y0103093D02*
X0164400Y0103093D01*
X0164400Y0104691D02*
X0010302Y0104691D01*
X0047394Y0144654D02*
X0083206Y0144654D01*
X0081608Y0146253D02*
X0048992Y0146253D01*
X0049500Y0147851D02*
X0081100Y0147851D01*
X0081100Y0149450D02*
X0049500Y0149450D01*
X0048692Y0151048D02*
X0081908Y0151048D01*
X0083507Y0152647D02*
X0047093Y0152647D01*
X0034975Y0200602D02*
X0029625Y0200602D01*
X0024195Y0221383D02*
X0008813Y0221383D01*
X0008792Y0222981D02*
X0022900Y0222981D01*
X0022900Y0224580D02*
X0008772Y0224580D01*
X0008752Y0226178D02*
X0022900Y0226178D01*
X0024354Y0227777D02*
X0008731Y0227777D01*
X0008711Y0229375D02*
X0119400Y0229375D01*
X0119400Y0227777D02*
X0040246Y0227777D01*
X0041700Y0226178D02*
X0119400Y0226178D01*
X0119400Y0224580D02*
X0041700Y0224580D01*
X0041700Y0222981D02*
X0119400Y0222981D01*
X0119400Y0221383D02*
X0040405Y0221383D01*
X0039996Y0230974D02*
X0119400Y0230974D01*
X0119400Y0232572D02*
X0041595Y0232572D01*
X0041700Y0234171D02*
X0119400Y0234171D01*
X0119400Y0235769D02*
X0041700Y0235769D01*
X0040655Y0237368D02*
X0119400Y0237368D01*
X0119400Y0238966D02*
X0008588Y0238966D01*
X0008609Y0237368D02*
X0023945Y0237368D01*
X0022900Y0235769D02*
X0008629Y0235769D01*
X0008650Y0234171D02*
X0022900Y0234171D01*
X0023005Y0232572D02*
X0008670Y0232572D01*
X0008690Y0230974D02*
X0024604Y0230974D01*
X0025013Y0240565D02*
X0008568Y0240565D01*
X0008548Y0242163D02*
X0023414Y0242163D01*
X0022900Y0243762D02*
X0008527Y0243762D01*
X0008507Y0245360D02*
X0022900Y0245360D01*
X0023536Y0246959D02*
X0008486Y0246959D01*
X0008466Y0248557D02*
X0025135Y0248557D01*
X0025422Y0250156D02*
X0008445Y0250156D01*
X0008425Y0251754D02*
X0023823Y0251754D01*
X0022900Y0253353D02*
X0008405Y0253353D01*
X0008384Y0254951D02*
X0022900Y0254951D01*
X0023127Y0256550D02*
X0008364Y0256550D01*
X0008343Y0258148D02*
X0024726Y0258148D01*
X0024232Y0261345D02*
X0008303Y0261345D01*
X0008323Y0259747D02*
X0119400Y0259747D01*
X0119400Y0261345D02*
X0040368Y0261345D01*
X0041700Y0262944D02*
X0119400Y0262944D01*
X0119400Y0264542D02*
X0041700Y0264542D01*
X0041700Y0266141D02*
X0119400Y0266141D01*
X0119400Y0267739D02*
X0040283Y0267739D01*
X0039959Y0270937D02*
X0119400Y0270937D01*
X0119400Y0272535D02*
X0041558Y0272535D01*
X0041700Y0274134D02*
X0119400Y0274134D01*
X0119400Y0275732D02*
X0041700Y0275732D01*
X0040692Y0277331D02*
X0119400Y0277331D01*
X0119587Y0278929D02*
X0008078Y0278929D01*
X0008099Y0277331D02*
X0023908Y0277331D01*
X0022900Y0275732D02*
X0008119Y0275732D01*
X0008139Y0274134D02*
X0022900Y0274134D01*
X0023042Y0272535D02*
X0008160Y0272535D01*
X0008180Y0270937D02*
X0024641Y0270937D01*
X0024317Y0267739D02*
X0008221Y0267739D01*
X0008241Y0266141D02*
X0022900Y0266141D01*
X0022900Y0264542D02*
X0008262Y0264542D01*
X0008282Y0262944D02*
X0022900Y0262944D01*
X0008201Y0269338D02*
X0119400Y0269338D01*
X0124200Y0269338D02*
X0129400Y0269338D01*
X0129400Y0270937D02*
X0124200Y0270937D01*
X0124200Y0272535D02*
X0129400Y0272535D01*
X0129400Y0274134D02*
X0124200Y0274134D01*
X0124200Y0275732D02*
X0129400Y0275732D01*
X0129400Y0277331D02*
X0124525Y0277331D01*
X0126123Y0278929D02*
X0129587Y0278929D01*
X0130933Y0280528D02*
X0127722Y0280528D01*
X0129320Y0282126D02*
X0132532Y0282126D01*
X0134130Y0283725D02*
X0130919Y0283725D01*
X0132517Y0285323D02*
X0135729Y0285323D01*
X0137328Y0286922D02*
X0134116Y0286922D01*
X0135714Y0288520D02*
X0138926Y0288520D01*
X0140525Y0290119D02*
X0137313Y0290119D01*
X0138911Y0291717D02*
X0142123Y0291717D01*
X0143722Y0293316D02*
X0140510Y0293316D01*
X0142108Y0294914D02*
X0145320Y0294914D01*
X0143707Y0296513D02*
X0193090Y0296513D01*
X0194689Y0298111D02*
X0145305Y0298111D01*
X0146904Y0299710D02*
X0216696Y0299710D01*
X0215098Y0301308D02*
X0148502Y0301308D01*
X0150101Y0302907D02*
X0213499Y0302907D01*
X0211901Y0304505D02*
X0151699Y0304505D01*
X0151800Y0308000D02*
X0211800Y0308000D01*
X0221800Y0298000D01*
X0221800Y0218000D01*
X0217800Y0214000D01*
X0206800Y0214000D01*
X0202400Y0213390D02*
X0201200Y0213390D01*
X0201200Y0212177D02*
X0198623Y0209600D01*
X0194977Y0209600D01*
X0192400Y0212177D01*
X0192400Y0215823D01*
X0194977Y0218400D01*
X0198623Y0218400D01*
X0201200Y0215823D01*
X0201200Y0212177D01*
X0200814Y0211792D02*
X0202786Y0211792D01*
X0204384Y0210193D02*
X0199216Y0210193D01*
X0198623Y0208400D02*
X0194977Y0208400D01*
X0192400Y0205823D01*
X0192400Y0202177D01*
X0194977Y0199600D01*
X0198623Y0199600D01*
X0201200Y0202177D01*
X0201200Y0205823D01*
X0198623Y0208400D01*
X0200026Y0206996D02*
X0203574Y0206996D01*
X0202400Y0205823D02*
X0202400Y0202177D01*
X0204977Y0199600D01*
X0208623Y0199600D01*
X0211200Y0202177D01*
X0211200Y0205823D01*
X0208623Y0208400D01*
X0204977Y0208400D01*
X0202400Y0205823D01*
X0202400Y0205398D02*
X0201200Y0205398D01*
X0201200Y0203799D02*
X0202400Y0203799D01*
X0202400Y0202201D02*
X0201200Y0202201D01*
X0199625Y0200602D02*
X0203975Y0200602D01*
X0209625Y0200602D02*
X0242000Y0200602D01*
X0242000Y0201335D02*
X0242000Y0199665D01*
X0242639Y0198121D01*
X0243821Y0196939D01*
X0245365Y0196300D01*
X0252235Y0196300D01*
X0253779Y0196939D01*
X0254961Y0198121D01*
X0255600Y0199665D01*
X0255600Y0201335D01*
X0254961Y0202879D01*
X0253779Y0204061D01*
X0252235Y0204700D01*
X0245365Y0204700D01*
X0243821Y0204061D01*
X0242639Y0202879D01*
X0242000Y0201335D01*
X0242358Y0202201D02*
X0211200Y0202201D01*
X0211200Y0203799D02*
X0243559Y0203799D01*
X0245365Y0206300D02*
X0243821Y0206939D01*
X0242639Y0208121D01*
X0242000Y0209665D01*
X0242000Y0211335D01*
X0242639Y0212879D01*
X0243821Y0214061D01*
X0245365Y0214700D01*
X0252235Y0214700D01*
X0253779Y0214061D01*
X0254961Y0212879D01*
X0255600Y0211335D01*
X0255600Y0209665D01*
X0254961Y0208121D01*
X0253779Y0206939D01*
X0252235Y0206300D01*
X0245365Y0206300D01*
X0243764Y0206996D02*
X0210026Y0206996D01*
X0211200Y0205398D02*
X0366400Y0205398D01*
X0366400Y0206996D02*
X0253836Y0206996D01*
X0255157Y0208595D02*
X0366400Y0208595D01*
X0366400Y0210193D02*
X0255600Y0210193D01*
X0255411Y0211792D02*
X0366400Y0211792D01*
X0366400Y0213390D02*
X0254450Y0213390D01*
X0252929Y0216587D02*
X0366400Y0216587D01*
X0366400Y0214989D02*
X0222183Y0214989D01*
X0223781Y0216587D02*
X0244671Y0216587D01*
X0245365Y0216300D02*
X0243821Y0216939D01*
X0242639Y0218121D01*
X0242000Y0219665D01*
X0242000Y0221335D01*
X0242639Y0222879D01*
X0243821Y0224061D01*
X0245365Y0224700D01*
X0252235Y0224700D01*
X0253779Y0224061D01*
X0254961Y0222879D01*
X0255600Y0221335D01*
X0255600Y0219665D01*
X0254961Y0218121D01*
X0253779Y0216939D01*
X0252235Y0216300D01*
X0245365Y0216300D01*
X0242613Y0218186D02*
X0224200Y0218186D01*
X0224200Y0219784D02*
X0242000Y0219784D01*
X0242020Y0221383D02*
X0224200Y0221383D01*
X0224200Y0222981D02*
X0242741Y0222981D01*
X0245074Y0224580D02*
X0224200Y0224580D01*
X0224200Y0226178D02*
X0366400Y0226178D01*
X0366400Y0224580D02*
X0252526Y0224580D01*
X0252235Y0226300D02*
X0253779Y0226939D01*
X0254961Y0228121D01*
X0255600Y0229665D01*
X0255600Y0231335D01*
X0254961Y0232879D01*
X0253779Y0234061D01*
X0252235Y0234700D01*
X0245365Y0234700D01*
X0243821Y0234061D01*
X0242639Y0232879D01*
X0242000Y0231335D01*
X0242000Y0229665D01*
X0242639Y0228121D01*
X0243821Y0226939D01*
X0245365Y0226300D01*
X0252235Y0226300D01*
X0254616Y0227777D02*
X0366400Y0227777D01*
X0366400Y0229375D02*
X0255480Y0229375D01*
X0255600Y0230974D02*
X0366400Y0230974D01*
X0366400Y0232572D02*
X0255088Y0232572D01*
X0253513Y0234171D02*
X0366400Y0234171D01*
X0366400Y0235769D02*
X0224200Y0235769D01*
X0224200Y0234171D02*
X0244087Y0234171D01*
X0242512Y0232572D02*
X0224200Y0232572D01*
X0224200Y0230974D02*
X0242000Y0230974D01*
X0242120Y0229375D02*
X0224200Y0229375D01*
X0224200Y0227777D02*
X0242984Y0227777D01*
X0245170Y0236208D02*
X0245854Y0236100D01*
X0248800Y0236100D01*
X0251746Y0236100D01*
X0252430Y0236208D01*
X0253089Y0236422D01*
X0253706Y0236737D01*
X0254266Y0237144D01*
X0254756Y0237634D01*
X0255163Y0238194D01*
X0255478Y0238811D01*
X0255692Y0239470D01*
X0255800Y0240154D01*
X0255800Y0240500D01*
X0255800Y0240846D01*
X0255692Y0241530D01*
X0255478Y0242189D01*
X0255163Y0242806D01*
X0254756Y0243366D01*
X0254266Y0243856D01*
X0253706Y0244263D01*
X0253089Y0244578D01*
X0252430Y0244792D01*
X0251746Y0244900D01*
X0248800Y0244900D01*
X0248800Y0240500D01*
X0248800Y0240500D01*
X0255800Y0240500D01*
X0248800Y0240500D01*
X0248800Y0240500D01*
X0248800Y0244900D01*
X0245854Y0244900D01*
X0245170Y0244792D01*
X0244511Y0244578D01*
X0243894Y0244263D01*
X0243334Y0243856D01*
X0242844Y0243366D01*
X0242437Y0242806D01*
X0242122Y0242189D01*
X0241908Y0241530D01*
X0241800Y0240846D01*
X0241800Y0240500D01*
X0248800Y0240500D01*
X0248800Y0236100D01*
X0248800Y0240500D01*
X0248800Y0240500D01*
X0248800Y0240500D01*
X0241800Y0240500D01*
X0241800Y0240154D01*
X0241908Y0239470D01*
X0242122Y0238811D01*
X0242437Y0238194D01*
X0242844Y0237634D01*
X0243334Y0237144D01*
X0243894Y0236737D01*
X0244511Y0236422D01*
X0245170Y0236208D01*
X0243110Y0237368D02*
X0224200Y0237368D01*
X0224200Y0238966D02*
X0242072Y0238966D01*
X0241800Y0240565D02*
X0224200Y0240565D01*
X0224200Y0242163D02*
X0242114Y0242163D01*
X0243239Y0243762D02*
X0224200Y0243762D01*
X0224200Y0245360D02*
X0366400Y0245360D01*
X0366400Y0243762D02*
X0254361Y0243762D01*
X0255486Y0242163D02*
X0366400Y0242163D01*
X0366400Y0240565D02*
X0255800Y0240565D01*
X0255528Y0238966D02*
X0366400Y0238966D01*
X0366400Y0237368D02*
X0254490Y0237368D01*
X0248800Y0237368D02*
X0248800Y0237368D01*
X0248800Y0238966D02*
X0248800Y0238966D01*
X0248800Y0240565D02*
X0248800Y0240565D01*
X0248800Y0242163D02*
X0248800Y0242163D01*
X0248800Y0243762D02*
X0248800Y0243762D01*
X0253799Y0246959D02*
X0366400Y0246959D01*
X0366400Y0248557D02*
X0255141Y0248557D01*
X0255600Y0250156D02*
X0366400Y0250156D01*
X0366400Y0251754D02*
X0255426Y0251754D01*
X0254487Y0253353D02*
X0366400Y0253353D01*
X0366400Y0254951D02*
X0247743Y0254951D01*
X0246144Y0256550D02*
X0366400Y0256550D01*
X0366400Y0258148D02*
X0244546Y0258148D01*
X0244200Y0259747D02*
X0366400Y0259747D01*
X0366400Y0261345D02*
X0244200Y0261345D01*
X0244200Y0262944D02*
X0366400Y0262944D01*
X0366400Y0264542D02*
X0244200Y0264542D01*
X0244200Y0266141D02*
X0366400Y0266141D01*
X0366400Y0267739D02*
X0244200Y0267739D01*
X0244200Y0269338D02*
X0366400Y0269338D01*
X0366400Y0270937D02*
X0244200Y0270937D01*
X0244200Y0272535D02*
X0366400Y0272535D01*
X0366400Y0274134D02*
X0244200Y0274134D01*
X0244200Y0275732D02*
X0335563Y0275732D01*
X0336194Y0275100D02*
X0337885Y0274400D01*
X0339715Y0274400D01*
X0341406Y0275100D01*
X0342700Y0276394D01*
X0343400Y0278085D01*
X0343400Y0285915D01*
X0342700Y0287606D01*
X0341406Y0288900D01*
X0339715Y0289600D01*
X0337885Y0289600D01*
X0336194Y0288900D01*
X0334900Y0287606D01*
X0334200Y0285915D01*
X0334200Y0278085D01*
X0334900Y0276394D01*
X0336194Y0275100D01*
X0334513Y0277331D02*
X0244200Y0277331D01*
X0244200Y0278929D02*
X0334200Y0278929D01*
X0334200Y0280528D02*
X0244200Y0280528D01*
X0244200Y0282126D02*
X0334200Y0282126D01*
X0334200Y0283725D02*
X0244200Y0283725D01*
X0244200Y0285323D02*
X0334200Y0285323D01*
X0334617Y0286922D02*
X0244200Y0286922D01*
X0244200Y0288520D02*
X0335815Y0288520D01*
X0341785Y0288520D02*
X0345815Y0288520D01*
X0346194Y0288900D02*
X0344900Y0287606D01*
X0344200Y0285915D01*
X0344200Y0278085D01*
X0344900Y0276394D01*
X0346194Y0275100D01*
X0347885Y0274400D01*
X0349715Y0274400D01*
X0351406Y0275100D01*
X0352700Y0276394D01*
X0353400Y0278085D01*
X0353400Y0285915D01*
X0352700Y0287606D01*
X0351406Y0288900D01*
X0349715Y0289600D01*
X0347885Y0289600D01*
X0346194Y0288900D01*
X0344617Y0286922D02*
X0342983Y0286922D01*
X0343400Y0285323D02*
X0344200Y0285323D01*
X0344200Y0283725D02*
X0343400Y0283725D01*
X0343400Y0282126D02*
X0344200Y0282126D01*
X0344200Y0280528D02*
X0343400Y0280528D01*
X0343400Y0278929D02*
X0344200Y0278929D01*
X0344513Y0277331D02*
X0343087Y0277331D01*
X0342037Y0275732D02*
X0345563Y0275732D01*
X0352037Y0275732D02*
X0355280Y0275732D01*
X0355139Y0275873D02*
X0355673Y0275339D01*
X0356284Y0274895D01*
X0356957Y0274552D01*
X0357676Y0274318D01*
X0358422Y0274200D01*
X0358600Y0274200D01*
X0358600Y0281800D01*
X0359000Y0281800D01*
X0359000Y0282200D01*
X0363600Y0282200D01*
X0363600Y0282806D01*
X0364200Y0282206D01*
X0364200Y0278085D01*
X0364900Y0276394D01*
X0366194Y0275100D01*
X0366400Y0275015D01*
X0366400Y0160994D01*
X0305806Y0100400D01*
X0262294Y0100400D01*
X0254771Y0107923D01*
X0256406Y0108600D01*
X0257700Y0109894D01*
X0258400Y0111585D01*
X0258400Y0119415D01*
X0257700Y0121106D01*
X0256406Y0122400D01*
X0254715Y0123100D01*
X0252885Y0123100D01*
X0251194Y0122400D01*
X0249900Y0121106D01*
X0249200Y0119415D01*
X0249200Y0113494D01*
X0248400Y0114294D01*
X0248400Y0119415D01*
X0247700Y0121106D01*
X0246406Y0122400D01*
X0244715Y0123100D01*
X0242885Y0123100D01*
X0241194Y0122400D01*
X0239900Y0121106D01*
X0239200Y0119415D01*
X0239200Y0111585D01*
X0239900Y0109894D01*
X0241194Y0108600D01*
X0242885Y0107900D01*
X0244715Y0107900D01*
X0246406Y0108600D01*
X0246856Y0109050D01*
X0259941Y0095965D01*
X0260823Y0095600D01*
X0307277Y0095600D01*
X0308159Y0095965D01*
X0308835Y0096641D01*
X0370835Y0158641D01*
X0371200Y0159523D01*
X0371200Y0275015D01*
X0371406Y0275100D01*
X0372700Y0276394D01*
X0373400Y0278085D01*
X0373400Y0285915D01*
X0372700Y0287606D01*
X0371406Y0288900D01*
X0369715Y0289600D01*
X0367885Y0289600D01*
X0366194Y0288900D01*
X0365244Y0287950D01*
X0353159Y0300035D01*
X0352277Y0300400D01*
X0272794Y0300400D01*
X0254200Y0318994D01*
X0254200Y0332860D01*
X0255361Y0334021D01*
X0256000Y0335565D01*
X0256000Y0342435D01*
X0255361Y0343979D01*
X0254179Y0345161D01*
X0252635Y0345800D01*
X0250965Y0345800D01*
X0249421Y0345161D01*
X0248239Y0343979D01*
X0247600Y0342435D01*
X0247600Y0335565D01*
X0248239Y0334021D01*
X0249400Y0332860D01*
X0249400Y0317523D01*
X0249765Y0316641D01*
X0269765Y0296641D01*
X0270441Y0295965D01*
X0271323Y0295600D01*
X0350806Y0295600D01*
X0356958Y0289448D01*
X0356957Y0289448D01*
X0356284Y0289105D01*
X0355673Y0288661D01*
X0355139Y0288127D01*
X0354695Y0287516D01*
X0354352Y0286843D01*
X0354118Y0286124D01*
X0354000Y0285378D01*
X0354000Y0282200D01*
X0358600Y0282200D01*
X0358600Y0281800D01*
X0354000Y0281800D01*
X0354000Y0278622D01*
X0354118Y0277876D01*
X0354352Y0277157D01*
X0354695Y0276484D01*
X0355139Y0275873D01*
X0354295Y0277331D02*
X0353087Y0277331D01*
X0353400Y0278929D02*
X0354000Y0278929D01*
X0354000Y0280528D02*
X0353400Y0280528D01*
X0353400Y0282126D02*
X0358600Y0282126D01*
X0359000Y0282126D02*
X0364200Y0282126D01*
X0363600Y0281800D02*
X0359000Y0281800D01*
X0359000Y0274200D01*
X0359178Y0274200D01*
X0359924Y0274318D01*
X0360643Y0274552D01*
X0361316Y0274895D01*
X0361927Y0275339D01*
X0362461Y0275873D01*
X0362905Y0276484D01*
X0363248Y0277157D01*
X0363482Y0277876D01*
X0363600Y0278622D01*
X0363600Y0281800D01*
X0363600Y0280528D02*
X0364200Y0280528D01*
X0364200Y0278929D02*
X0363600Y0278929D01*
X0363305Y0277331D02*
X0364512Y0277331D01*
X0365563Y0275732D02*
X0362320Y0275732D01*
X0359000Y0275732D02*
X0358600Y0275732D01*
X0358600Y0277331D02*
X0359000Y0277331D01*
X0359000Y0278929D02*
X0358600Y0278929D01*
X0358600Y0280528D02*
X0359000Y0280528D01*
X0354000Y0283725D02*
X0353400Y0283725D01*
X0353400Y0285323D02*
X0354000Y0285323D01*
X0354392Y0286922D02*
X0352983Y0286922D01*
X0351785Y0288520D02*
X0355532Y0288520D01*
X0356287Y0290119D02*
X0244200Y0290119D01*
X0244200Y0291717D02*
X0354689Y0291717D01*
X0353090Y0293316D02*
X0244200Y0293316D01*
X0244200Y0294914D02*
X0351492Y0294914D01*
X0351800Y0298000D02*
X0366800Y0283000D01*
X0368800Y0282000D02*
X0368800Y0160000D01*
X0306800Y0098000D01*
X0261300Y0098000D01*
X0243800Y0115500D01*
X0248400Y0115881D02*
X0249200Y0115881D01*
X0249200Y0117479D02*
X0248400Y0117479D01*
X0248400Y0119078D02*
X0249200Y0119078D01*
X0249723Y0120676D02*
X0247877Y0120676D01*
X0246530Y0122275D02*
X0251070Y0122275D01*
X0256530Y0122275D02*
X0261070Y0122275D01*
X0261194Y0122400D02*
X0259900Y0121106D01*
X0259200Y0119415D01*
X0259200Y0111585D01*
X0259900Y0109894D01*
X0261194Y0108600D01*
X0262885Y0107900D01*
X0264715Y0107900D01*
X0266406Y0108600D01*
X0267700Y0109894D01*
X0268400Y0111585D01*
X0268400Y0119415D01*
X0267700Y0121106D01*
X0266406Y0122400D01*
X0264715Y0123100D01*
X0262885Y0123100D01*
X0261194Y0122400D01*
X0259723Y0120676D02*
X0257877Y0120676D01*
X0258400Y0119078D02*
X0259200Y0119078D01*
X0259200Y0117479D02*
X0258400Y0117479D01*
X0258400Y0115881D02*
X0259200Y0115881D01*
X0259200Y0114282D02*
X0258400Y0114282D01*
X0258400Y0112684D02*
X0259200Y0112684D01*
X0259407Y0111085D02*
X0258193Y0111085D01*
X0257292Y0109487D02*
X0260308Y0109487D01*
X0256404Y0106290D02*
X0311696Y0106290D01*
X0313294Y0107888D02*
X0275140Y0107888D01*
X0274924Y0107818D02*
X0275643Y0108052D01*
X0276316Y0108395D01*
X0276927Y0108839D01*
X0277461Y0109373D01*
X0277905Y0109984D01*
X0278248Y0110657D01*
X0278482Y0111376D01*
X0278600Y0112122D01*
X0278600Y0115300D01*
X0274000Y0115300D01*
X0274000Y0115700D01*
X0273600Y0115700D01*
X0273600Y0123300D01*
X0273422Y0123300D01*
X0272676Y0123182D01*
X0271957Y0122948D01*
X0271284Y0122605D01*
X0270673Y0122161D01*
X0270139Y0121627D01*
X0269695Y0121016D01*
X0269352Y0120343D01*
X0269118Y0119624D01*
X0269000Y0118878D01*
X0269000Y0115700D01*
X0273600Y0115700D01*
X0273600Y0115300D01*
X0269000Y0115300D01*
X0269000Y0112122D01*
X0269118Y0111376D01*
X0269352Y0110657D01*
X0269695Y0109984D01*
X0270139Y0109373D01*
X0270673Y0108839D01*
X0271284Y0108395D01*
X0271957Y0108052D01*
X0272676Y0107818D01*
X0273422Y0107700D01*
X0273600Y0107700D01*
X0273600Y0115300D01*
X0274000Y0115300D01*
X0274000Y0107700D01*
X0274178Y0107700D01*
X0274924Y0107818D01*
X0274000Y0107888D02*
X0273600Y0107888D01*
X0272460Y0107888D02*
X0254806Y0107888D01*
X0258003Y0104691D02*
X0310097Y0104691D01*
X0308499Y0103093D02*
X0259601Y0103093D01*
X0261200Y0101494D02*
X0306900Y0101494D01*
X0310491Y0098297D02*
X0396921Y0098297D01*
X0396921Y0096699D02*
X0308893Y0096699D01*
X0312090Y0099896D02*
X0396921Y0099896D01*
X0396921Y0101494D02*
X0313688Y0101494D01*
X0315287Y0103093D02*
X0396921Y0103093D01*
X0396921Y0104691D02*
X0316885Y0104691D01*
X0318484Y0106290D02*
X0396921Y0106290D01*
X0396921Y0107888D02*
X0320082Y0107888D01*
X0321681Y0109487D02*
X0396921Y0109487D01*
X0396921Y0111085D02*
X0323279Y0111085D01*
X0324878Y0112684D02*
X0396921Y0112684D01*
X0396921Y0114282D02*
X0326477Y0114282D01*
X0328075Y0115881D02*
X0396921Y0115881D01*
X0396921Y0117479D02*
X0329674Y0117479D01*
X0331272Y0119078D02*
X0396921Y0119078D01*
X0396921Y0120676D02*
X0332871Y0120676D01*
X0334469Y0122275D02*
X0396921Y0122275D01*
X0396921Y0123873D02*
X0336068Y0123873D01*
X0337666Y0125472D02*
X0396921Y0125472D01*
X0396921Y0127070D02*
X0339265Y0127070D01*
X0340863Y0128669D02*
X0396921Y0128669D01*
X0396921Y0130268D02*
X0342462Y0130268D01*
X0344060Y0131866D02*
X0396921Y0131866D01*
X0396921Y0133465D02*
X0345659Y0133465D01*
X0347257Y0135063D02*
X0396921Y0135063D01*
X0396921Y0136662D02*
X0348856Y0136662D01*
X0350454Y0138260D02*
X0396921Y0138260D01*
X0396921Y0139859D02*
X0352053Y0139859D01*
X0353651Y0141457D02*
X0396921Y0141457D01*
X0396921Y0143056D02*
X0355250Y0143056D01*
X0356848Y0144654D02*
X0396921Y0144654D01*
X0396921Y0146253D02*
X0358447Y0146253D01*
X0360045Y0147851D02*
X0396921Y0147851D01*
X0396921Y0149450D02*
X0361644Y0149450D01*
X0363242Y0151048D02*
X0396921Y0151048D01*
X0396921Y0152647D02*
X0364841Y0152647D01*
X0366439Y0154245D02*
X0396921Y0154245D01*
X0396921Y0155844D02*
X0368038Y0155844D01*
X0369636Y0157442D02*
X0396921Y0157442D01*
X0396921Y0159041D02*
X0371000Y0159041D01*
X0371200Y0160639D02*
X0396921Y0160639D01*
X0396921Y0162238D02*
X0371200Y0162238D01*
X0371200Y0163836D02*
X0396921Y0163836D01*
X0396921Y0165435D02*
X0371200Y0165435D01*
X0371200Y0167033D02*
X0396921Y0167033D01*
X0396921Y0168632D02*
X0371200Y0168632D01*
X0371200Y0170230D02*
X0396921Y0170230D01*
X0396921Y0171829D02*
X0371200Y0171829D01*
X0371200Y0173427D02*
X0396921Y0173427D01*
X0396921Y0175026D02*
X0371200Y0175026D01*
X0371200Y0176624D02*
X0396921Y0176624D01*
X0396921Y0178223D02*
X0371200Y0178223D01*
X0371200Y0179821D02*
X0396921Y0179821D01*
X0396921Y0181420D02*
X0371200Y0181420D01*
X0371200Y0183018D02*
X0396921Y0183018D01*
X0396921Y0184617D02*
X0371200Y0184617D01*
X0371200Y0186215D02*
X0396921Y0186215D01*
X0396921Y0187814D02*
X0371200Y0187814D01*
X0371200Y0189412D02*
X0396921Y0189412D01*
X0396921Y0191011D02*
X0371200Y0191011D01*
X0371200Y0192609D02*
X0396921Y0192609D01*
X0396921Y0194208D02*
X0371200Y0194208D01*
X0371200Y0195806D02*
X0396921Y0195806D01*
X0396921Y0197405D02*
X0371200Y0197405D01*
X0371200Y0199003D02*
X0396921Y0199003D01*
X0396921Y0200602D02*
X0371200Y0200602D01*
X0371200Y0202201D02*
X0396921Y0202201D01*
X0396921Y0203799D02*
X0371200Y0203799D01*
X0371200Y0205398D02*
X0396921Y0205398D01*
X0396921Y0206996D02*
X0371200Y0206996D01*
X0371200Y0208595D02*
X0396921Y0208595D01*
X0396921Y0210193D02*
X0371200Y0210193D01*
X0371200Y0211792D02*
X0396921Y0211792D01*
X0396921Y0213390D02*
X0371200Y0213390D01*
X0371200Y0214989D02*
X0396921Y0214989D01*
X0396921Y0216587D02*
X0371200Y0216587D01*
X0371200Y0218186D02*
X0396921Y0218186D01*
X0396921Y0219784D02*
X0371200Y0219784D01*
X0371200Y0221383D02*
X0396921Y0221383D01*
X0396921Y0222981D02*
X0371200Y0222981D01*
X0371200Y0224580D02*
X0396921Y0224580D01*
X0396921Y0226178D02*
X0371200Y0226178D01*
X0371200Y0227777D02*
X0396921Y0227777D01*
X0396921Y0229375D02*
X0371200Y0229375D01*
X0371200Y0230974D02*
X0396921Y0230974D01*
X0396921Y0232572D02*
X0371200Y0232572D01*
X0371200Y0234171D02*
X0396921Y0234171D01*
X0396921Y0235769D02*
X0371200Y0235769D01*
X0371200Y0237368D02*
X0396921Y0237368D01*
X0396921Y0238966D02*
X0371200Y0238966D01*
X0371200Y0240565D02*
X0396921Y0240565D01*
X0396921Y0242163D02*
X0371200Y0242163D01*
X0371200Y0243762D02*
X0396921Y0243762D01*
X0396921Y0245360D02*
X0371200Y0245360D01*
X0371200Y0246959D02*
X0396921Y0246959D01*
X0396921Y0248557D02*
X0371200Y0248557D01*
X0371200Y0250156D02*
X0396921Y0250156D01*
X0396921Y0251754D02*
X0371200Y0251754D01*
X0371200Y0253353D02*
X0396921Y0253353D01*
X0396921Y0254951D02*
X0371200Y0254951D01*
X0371200Y0256550D02*
X0396921Y0256550D01*
X0396921Y0258148D02*
X0371200Y0258148D01*
X0371200Y0259747D02*
X0396921Y0259747D01*
X0396921Y0261345D02*
X0371200Y0261345D01*
X0371200Y0262944D02*
X0396921Y0262944D01*
X0396921Y0264542D02*
X0371200Y0264542D01*
X0371200Y0266141D02*
X0396921Y0266141D01*
X0396921Y0267739D02*
X0371200Y0267739D01*
X0371200Y0269338D02*
X0396921Y0269338D01*
X0396921Y0270937D02*
X0371200Y0270937D01*
X0371200Y0272535D02*
X0396921Y0272535D01*
X0396921Y0274134D02*
X0371200Y0274134D01*
X0372037Y0275732D02*
X0396921Y0275732D01*
X0396921Y0277331D02*
X0373087Y0277331D01*
X0373400Y0278929D02*
X0396921Y0278929D01*
X0396921Y0280528D02*
X0373400Y0280528D01*
X0373400Y0282126D02*
X0396921Y0282126D01*
X0396921Y0283725D02*
X0373400Y0283725D01*
X0373400Y0285323D02*
X0396921Y0285323D01*
X0396921Y0286922D02*
X0372983Y0286922D01*
X0371785Y0288520D02*
X0396921Y0288520D01*
X0396921Y0290119D02*
X0363075Y0290119D01*
X0361477Y0291717D02*
X0396921Y0291717D01*
X0396921Y0293316D02*
X0359878Y0293316D01*
X0358280Y0294914D02*
X0396921Y0294914D01*
X0396921Y0296513D02*
X0356681Y0296513D01*
X0355083Y0298111D02*
X0396921Y0298111D01*
X0396921Y0299710D02*
X0353484Y0299710D01*
X0351800Y0298000D02*
X0271800Y0298000D01*
X0251800Y0318000D01*
X0251800Y0339000D01*
X0256000Y0339672D02*
X0257400Y0339672D01*
X0257400Y0339000D02*
X0261800Y0339000D01*
X0266200Y0339000D01*
X0266200Y0341946D01*
X0266092Y0342630D01*
X0265878Y0343289D01*
X0265563Y0343906D01*
X0265156Y0344466D01*
X0264666Y0344956D01*
X0264106Y0345363D01*
X0263489Y0345678D01*
X0262830Y0345892D01*
X0262146Y0346000D01*
X0261800Y0346000D01*
X0261800Y0339000D01*
X0261800Y0339000D01*
X0261800Y0339000D01*
X0266200Y0339000D01*
X0266200Y0336054D01*
X0266092Y0335370D01*
X0265878Y0334711D01*
X0265563Y0334094D01*
X0265156Y0333534D01*
X0264666Y0333044D01*
X0264106Y0332637D01*
X0263489Y0332322D01*
X0262830Y0332108D01*
X0262146Y0332000D01*
X0261800Y0332000D01*
X0261800Y0339000D01*
X0261800Y0339000D01*
X0261800Y0339000D01*
X0261800Y0346000D01*
X0261454Y0346000D01*
X0260770Y0345892D01*
X0260111Y0345678D01*
X0259494Y0345363D01*
X0258934Y0344956D01*
X0258444Y0344466D01*
X0258037Y0343906D01*
X0257722Y0343289D01*
X0257508Y0342630D01*
X0257400Y0341946D01*
X0257400Y0339000D01*
X0257400Y0336054D01*
X0257508Y0335370D01*
X0257722Y0334711D01*
X0258037Y0334094D01*
X0258444Y0333534D01*
X0258934Y0333044D01*
X0259494Y0332637D01*
X0260111Y0332322D01*
X0260770Y0332108D01*
X0261454Y0332000D01*
X0261800Y0332000D01*
X0261800Y0339000D01*
X0257400Y0339000D01*
X0257400Y0338074D02*
X0256000Y0338074D01*
X0256000Y0336475D02*
X0257400Y0336475D01*
X0257668Y0334877D02*
X0255715Y0334877D01*
X0254618Y0333278D02*
X0258699Y0333278D01*
X0261800Y0333278D02*
X0261800Y0333278D01*
X0261800Y0334877D02*
X0261800Y0334877D01*
X0261800Y0336475D02*
X0261800Y0336475D01*
X0261800Y0338074D02*
X0261800Y0338074D01*
X0261800Y0339672D02*
X0261800Y0339672D01*
X0261800Y0341271D02*
X0261800Y0341271D01*
X0261800Y0342870D02*
X0261800Y0342870D01*
X0261800Y0344468D02*
X0261800Y0344468D01*
X0265155Y0344468D02*
X0268728Y0344468D01*
X0268239Y0343979D02*
X0269421Y0345161D01*
X0270965Y0345800D01*
X0272635Y0345800D01*
X0274179Y0345161D01*
X0275361Y0343979D01*
X0276000Y0342435D01*
X0276000Y0335565D01*
X0275361Y0334021D01*
X0274179Y0332839D01*
X0272635Y0332200D01*
X0270965Y0332200D01*
X0269421Y0332839D01*
X0268239Y0334021D01*
X0267600Y0335565D01*
X0267600Y0342435D01*
X0268239Y0343979D01*
X0267780Y0342870D02*
X0266014Y0342870D01*
X0266200Y0341271D02*
X0267600Y0341271D01*
X0267600Y0339672D02*
X0266200Y0339672D01*
X0266200Y0338074D02*
X0267600Y0338074D01*
X0267600Y0336475D02*
X0266200Y0336475D01*
X0265932Y0334877D02*
X0267885Y0334877D01*
X0268982Y0333278D02*
X0264901Y0333278D01*
X0257400Y0341271D02*
X0256000Y0341271D01*
X0255820Y0342870D02*
X0257586Y0342870D01*
X0258445Y0344468D02*
X0254872Y0344468D01*
X0248728Y0344468D02*
X0244872Y0344468D01*
X0245820Y0342870D02*
X0247780Y0342870D01*
X0247600Y0341271D02*
X0246000Y0341271D01*
X0246000Y0339672D02*
X0247600Y0339672D01*
X0247600Y0338074D02*
X0246000Y0338074D01*
X0246000Y0336475D02*
X0247600Y0336475D01*
X0247885Y0334877D02*
X0245715Y0334877D01*
X0244618Y0333278D02*
X0248982Y0333278D01*
X0249400Y0331680D02*
X0244200Y0331680D01*
X0244200Y0330081D02*
X0249400Y0330081D01*
X0249400Y0328483D02*
X0244200Y0328483D01*
X0244200Y0326884D02*
X0249400Y0326884D01*
X0249400Y0325286D02*
X0244200Y0325286D01*
X0244200Y0323687D02*
X0249400Y0323687D01*
X0249400Y0322089D02*
X0244200Y0322089D01*
X0244200Y0320490D02*
X0249400Y0320490D01*
X0249400Y0318892D02*
X0244200Y0318892D01*
X0244200Y0317293D02*
X0249495Y0317293D01*
X0250711Y0315695D02*
X0244200Y0315695D01*
X0244200Y0314096D02*
X0252310Y0314096D01*
X0253908Y0312498D02*
X0244200Y0312498D01*
X0244200Y0310899D02*
X0255507Y0310899D01*
X0257105Y0309301D02*
X0244200Y0309301D01*
X0244200Y0307702D02*
X0258704Y0307702D01*
X0260302Y0306104D02*
X0244200Y0306104D01*
X0244200Y0304505D02*
X0261901Y0304505D01*
X0263499Y0302907D02*
X0244200Y0302907D01*
X0244200Y0301308D02*
X0265098Y0301308D01*
X0266696Y0299710D02*
X0244200Y0299710D01*
X0244200Y0298111D02*
X0268295Y0298111D01*
X0269893Y0296513D02*
X0244200Y0296513D01*
X0239400Y0296513D02*
X0224200Y0296513D01*
X0224200Y0298111D02*
X0239400Y0298111D01*
X0239400Y0299710D02*
X0223484Y0299710D01*
X0221886Y0301308D02*
X0239400Y0301308D01*
X0239400Y0302907D02*
X0220287Y0302907D01*
X0218689Y0304505D02*
X0239400Y0304505D01*
X0239400Y0306104D02*
X0217090Y0306104D01*
X0215492Y0307702D02*
X0239400Y0307702D01*
X0239400Y0309301D02*
X0213893Y0309301D01*
X0208705Y0298600D02*
X0206900Y0298600D01*
X0206900Y0294100D01*
X0206700Y0294100D01*
X0206700Y0298600D01*
X0204895Y0298600D01*
X0202200Y0295905D01*
X0202200Y0294100D01*
X0206700Y0294100D01*
X0206700Y0293900D01*
X0202200Y0293900D01*
X0202200Y0292095D01*
X0204895Y0289400D01*
X0206700Y0289400D01*
X0206700Y0293900D01*
X0206900Y0293900D01*
X0206900Y0294100D01*
X0211400Y0294100D01*
X0211400Y0295905D01*
X0208705Y0298600D01*
X0209194Y0298111D02*
X0218295Y0298111D01*
X0219400Y0296513D02*
X0210793Y0296513D01*
X0211400Y0294914D02*
X0219400Y0294914D01*
X0219400Y0293316D02*
X0211400Y0293316D01*
X0211400Y0293900D02*
X0206900Y0293900D01*
X0206900Y0289400D01*
X0208705Y0289400D01*
X0211400Y0292095D01*
X0211400Y0293900D01*
X0211023Y0291717D02*
X0219400Y0291717D01*
X0219400Y0290119D02*
X0209424Y0290119D01*
X0206900Y0290119D02*
X0206700Y0290119D01*
X0206700Y0291717D02*
X0206900Y0291717D01*
X0206900Y0293316D02*
X0206700Y0293316D01*
X0206700Y0294914D02*
X0206900Y0294914D01*
X0206900Y0296513D02*
X0206700Y0296513D01*
X0206700Y0298111D02*
X0206900Y0298111D01*
X0204406Y0298111D02*
X0198911Y0298111D01*
X0200510Y0296513D02*
X0202807Y0296513D01*
X0202200Y0294914D02*
X0201200Y0294914D01*
X0201200Y0293316D02*
X0202200Y0293316D01*
X0202577Y0291717D02*
X0200740Y0291717D01*
X0199141Y0290119D02*
X0204176Y0290119D01*
X0203499Y0286922D02*
X0200101Y0286922D01*
X0201200Y0285323D02*
X0202400Y0285323D01*
X0202400Y0283725D02*
X0201200Y0283725D01*
X0201149Y0282126D02*
X0202451Y0282126D01*
X0204050Y0280528D02*
X0199550Y0280528D01*
X0199692Y0277331D02*
X0203908Y0277331D01*
X0202400Y0275732D02*
X0201200Y0275732D01*
X0201200Y0274134D02*
X0202400Y0274134D01*
X0202400Y0272535D02*
X0201200Y0272535D01*
X0199959Y0270937D02*
X0203641Y0270937D01*
X0204977Y0268400D02*
X0202400Y0265823D01*
X0202400Y0262177D01*
X0204977Y0259600D01*
X0208623Y0259600D01*
X0211200Y0262177D01*
X0211200Y0265823D01*
X0208623Y0268400D01*
X0204977Y0268400D01*
X0204317Y0267739D02*
X0199283Y0267739D01*
X0198623Y0268400D02*
X0194977Y0268400D01*
X0192400Y0265823D01*
X0192400Y0262177D01*
X0194977Y0259600D01*
X0198623Y0259600D01*
X0201200Y0262177D01*
X0201200Y0265823D01*
X0198623Y0268400D01*
X0200882Y0266141D02*
X0202718Y0266141D01*
X0202400Y0264542D02*
X0201200Y0264542D01*
X0201200Y0262944D02*
X0202400Y0262944D01*
X0203232Y0261345D02*
X0200368Y0261345D01*
X0198769Y0259747D02*
X0204831Y0259747D01*
X0204977Y0258400D02*
X0202400Y0255823D01*
X0202400Y0252177D01*
X0204977Y0249600D01*
X0208623Y0249600D01*
X0211200Y0252177D01*
X0211200Y0255823D01*
X0208623Y0258400D01*
X0204977Y0258400D01*
X0204726Y0258148D02*
X0198874Y0258148D01*
X0200473Y0256550D02*
X0203127Y0256550D01*
X0202400Y0254951D02*
X0201200Y0254951D01*
X0201200Y0253353D02*
X0202400Y0253353D01*
X0202823Y0251754D02*
X0200777Y0251754D01*
X0199178Y0250156D02*
X0204422Y0250156D01*
X0204977Y0248400D02*
X0202400Y0245823D01*
X0202400Y0242177D01*
X0204977Y0239600D01*
X0208623Y0239600D01*
X0211200Y0242177D01*
X0211200Y0245823D01*
X0208623Y0248400D01*
X0204977Y0248400D01*
X0203536Y0246959D02*
X0200064Y0246959D01*
X0201200Y0245360D02*
X0202400Y0245360D01*
X0202400Y0243762D02*
X0201200Y0243762D01*
X0201186Y0242163D02*
X0202414Y0242163D01*
X0204013Y0240565D02*
X0199587Y0240565D01*
X0198623Y0238400D02*
X0194977Y0238400D01*
X0192400Y0235823D01*
X0192400Y0232177D01*
X0194977Y0229600D01*
X0198623Y0229600D01*
X0201200Y0232177D01*
X0201200Y0235823D01*
X0198623Y0238400D01*
X0199655Y0237368D02*
X0203945Y0237368D01*
X0204977Y0238400D02*
X0202400Y0235823D01*
X0202400Y0232177D01*
X0204977Y0229600D01*
X0208623Y0229600D01*
X0211200Y0232177D01*
X0211200Y0235823D01*
X0208623Y0238400D01*
X0204977Y0238400D01*
X0202400Y0235769D02*
X0201200Y0235769D01*
X0201200Y0234171D02*
X0202400Y0234171D01*
X0202400Y0232572D02*
X0201200Y0232572D01*
X0199996Y0230974D02*
X0203604Y0230974D01*
X0204977Y0228400D02*
X0202400Y0225823D01*
X0202400Y0222177D01*
X0204977Y0219600D01*
X0208623Y0219600D01*
X0211200Y0222177D01*
X0211200Y0225823D01*
X0208623Y0228400D01*
X0204977Y0228400D01*
X0204354Y0227777D02*
X0199246Y0227777D01*
X0198623Y0228400D02*
X0194977Y0228400D01*
X0192400Y0225823D01*
X0192400Y0222177D01*
X0194977Y0219600D01*
X0198623Y0219600D01*
X0201200Y0222177D01*
X0201200Y0225823D01*
X0198623Y0228400D01*
X0200844Y0226178D02*
X0202756Y0226178D01*
X0202400Y0224580D02*
X0201200Y0224580D01*
X0201200Y0222981D02*
X0202400Y0222981D01*
X0203195Y0221383D02*
X0200405Y0221383D01*
X0198807Y0219784D02*
X0204793Y0219784D01*
X0204763Y0218186D02*
X0198837Y0218186D01*
X0200435Y0216587D02*
X0203165Y0216587D01*
X0202400Y0214989D02*
X0201200Y0214989D01*
X0194763Y0218186D02*
X0164200Y0218186D01*
X0164200Y0219784D02*
X0194793Y0219784D01*
X0193195Y0221383D02*
X0164200Y0221383D01*
X0164200Y0222981D02*
X0192400Y0222981D01*
X0192400Y0224580D02*
X0164200Y0224580D01*
X0164200Y0226178D02*
X0192756Y0226178D01*
X0194354Y0227777D02*
X0164200Y0227777D01*
X0164200Y0229375D02*
X0219400Y0229375D01*
X0219400Y0227777D02*
X0209246Y0227777D01*
X0210844Y0226178D02*
X0219400Y0226178D01*
X0219400Y0224580D02*
X0211200Y0224580D01*
X0211200Y0222981D02*
X0219400Y0222981D01*
X0219400Y0221383D02*
X0210405Y0221383D01*
X0208807Y0219784D02*
X0219400Y0219784D01*
X0218592Y0218186D02*
X0208837Y0218186D01*
X0210435Y0216587D02*
X0216993Y0216587D01*
X0220584Y0213390D02*
X0243150Y0213390D01*
X0242189Y0211792D02*
X0218740Y0211792D01*
X0209216Y0210193D02*
X0242000Y0210193D01*
X0242443Y0208595D02*
X0164200Y0208595D01*
X0164200Y0210193D02*
X0194384Y0210193D01*
X0192786Y0211792D02*
X0164200Y0211792D01*
X0164200Y0213390D02*
X0192400Y0213390D01*
X0192400Y0214989D02*
X0164200Y0214989D01*
X0164200Y0216587D02*
X0193165Y0216587D01*
X0193574Y0206996D02*
X0164200Y0206996D01*
X0164200Y0205398D02*
X0192400Y0205398D01*
X0192400Y0203799D02*
X0164200Y0203799D01*
X0164200Y0202201D02*
X0192400Y0202201D01*
X0193975Y0200602D02*
X0164200Y0200602D01*
X0164200Y0199003D02*
X0242274Y0199003D01*
X0243355Y0197405D02*
X0165789Y0197405D01*
X0167388Y0195806D02*
X0366400Y0195806D01*
X0366400Y0194208D02*
X0253782Y0194208D01*
X0253706Y0194263D02*
X0253089Y0194578D01*
X0252430Y0194792D01*
X0251746Y0194900D01*
X0248800Y0194900D01*
X0248800Y0190500D01*
X0248800Y0190500D01*
X0255800Y0190500D01*
X0255800Y0190846D01*
X0255692Y0191530D01*
X0255478Y0192189D01*
X0255163Y0192806D01*
X0254756Y0193366D01*
X0254266Y0193856D01*
X0253706Y0194263D01*
X0255263Y0192609D02*
X0366400Y0192609D01*
X0366400Y0191011D02*
X0255774Y0191011D01*
X0255800Y0190500D02*
X0248800Y0190500D01*
X0248800Y0190500D01*
X0248800Y0194900D01*
X0245854Y0194900D01*
X0245170Y0194792D01*
X0244511Y0194578D01*
X0243894Y0194263D01*
X0243334Y0193856D01*
X0242844Y0193366D01*
X0242437Y0192806D01*
X0242122Y0192189D01*
X0241908Y0191530D01*
X0241800Y0190846D01*
X0241800Y0190500D01*
X0248800Y0190500D01*
X0248800Y0186100D01*
X0251746Y0186100D01*
X0252430Y0186208D01*
X0253089Y0186422D01*
X0253706Y0186737D01*
X0254266Y0187144D01*
X0254756Y0187634D01*
X0255163Y0188194D01*
X0255478Y0188811D01*
X0255692Y0189470D01*
X0255800Y0190154D01*
X0255800Y0190500D01*
X0255673Y0189412D02*
X0366400Y0189412D01*
X0366400Y0187814D02*
X0254887Y0187814D01*
X0252452Y0186215D02*
X0366400Y0186215D01*
X0366400Y0184617D02*
X0252436Y0184617D01*
X0252235Y0184700D02*
X0245365Y0184700D01*
X0243821Y0184061D01*
X0242639Y0182879D01*
X0242000Y0181335D01*
X0242000Y0179665D01*
X0242639Y0178121D01*
X0243821Y0176939D01*
X0245365Y0176300D01*
X0252235Y0176300D01*
X0253779Y0176939D01*
X0254961Y0178121D01*
X0255600Y0179665D01*
X0255600Y0181335D01*
X0254961Y0182879D01*
X0253779Y0184061D01*
X0252235Y0184700D01*
X0254821Y0183018D02*
X0366400Y0183018D01*
X0366400Y0181420D02*
X0255565Y0181420D01*
X0255600Y0179821D02*
X0366400Y0179821D01*
X0366400Y0178223D02*
X0255003Y0178223D01*
X0253018Y0176624D02*
X0366400Y0176624D01*
X0366400Y0175026D02*
X0198168Y0175026D01*
X0199200Y0173427D02*
X0243188Y0173427D01*
X0242639Y0172879D02*
X0242000Y0171335D01*
X0242000Y0169665D01*
X0242639Y0168121D01*
X0243821Y0166939D01*
X0245365Y0166300D01*
X0252235Y0166300D01*
X0253779Y0166939D01*
X0254961Y0168121D01*
X0255600Y0169665D01*
X0255600Y0171335D01*
X0254961Y0172879D01*
X0253779Y0174061D01*
X0252235Y0174700D01*
X0245365Y0174700D01*
X0243821Y0174061D01*
X0242639Y0172879D01*
X0242204Y0171829D02*
X0199200Y0171829D01*
X0199200Y0170230D02*
X0242000Y0170230D01*
X0242428Y0168632D02*
X0199200Y0168632D01*
X0199200Y0167033D02*
X0209894Y0167033D01*
X0211060Y0168200D02*
X0208600Y0165740D01*
X0208600Y0162260D01*
X0211060Y0159800D01*
X0214540Y0159800D01*
X0217000Y0162260D01*
X0217000Y0165740D01*
X0214540Y0168200D01*
X0211060Y0168200D01*
X0208600Y0165435D02*
X0199200Y0165435D01*
X0199200Y0163836D02*
X0208600Y0163836D01*
X0208623Y0162238D02*
X0199200Y0162238D01*
X0199200Y0160639D02*
X0210221Y0160639D01*
X0215379Y0160639D02*
X0242000Y0160639D01*
X0242000Y0161335D02*
X0242000Y0159665D01*
X0242639Y0158121D01*
X0243821Y0156939D01*
X0245365Y0156300D01*
X0252235Y0156300D01*
X0253779Y0156939D01*
X0254961Y0158121D01*
X0255600Y0159665D01*
X0255600Y0161335D01*
X0254961Y0162879D01*
X0253779Y0164061D01*
X0252235Y0164700D01*
X0245365Y0164700D01*
X0243821Y0164061D01*
X0242639Y0162879D01*
X0242000Y0161335D01*
X0242374Y0162238D02*
X0216977Y0162238D01*
X0217000Y0163836D02*
X0243597Y0163836D01*
X0243727Y0167033D02*
X0215706Y0167033D01*
X0217000Y0165435D02*
X0366400Y0165435D01*
X0366400Y0167033D02*
X0253873Y0167033D01*
X0255172Y0168632D02*
X0366400Y0168632D01*
X0366400Y0170230D02*
X0255600Y0170230D01*
X0255396Y0171829D02*
X0366400Y0171829D01*
X0366400Y0173427D02*
X0254412Y0173427D01*
X0254003Y0163836D02*
X0366400Y0163836D01*
X0366400Y0162238D02*
X0255226Y0162238D01*
X0255600Y0160639D02*
X0366045Y0160639D01*
X0364447Y0159041D02*
X0255342Y0159041D01*
X0254282Y0157442D02*
X0362848Y0157442D01*
X0361250Y0155844D02*
X0199200Y0155844D01*
X0199200Y0157442D02*
X0243318Y0157442D01*
X0242258Y0159041D02*
X0199200Y0159041D01*
X0194400Y0159041D02*
X0194200Y0159041D01*
X0194200Y0160639D02*
X0194400Y0160639D01*
X0194400Y0162238D02*
X0194200Y0162238D01*
X0194200Y0163836D02*
X0194400Y0163836D01*
X0194400Y0165435D02*
X0194200Y0165435D01*
X0194200Y0167033D02*
X0194400Y0167033D01*
X0194400Y0168632D02*
X0194136Y0168632D01*
X0194400Y0170230D02*
X0192964Y0170230D01*
X0194400Y0171829D02*
X0191365Y0171829D01*
X0189767Y0173427D02*
X0192979Y0173427D01*
X0191380Y0175026D02*
X0188168Y0175026D01*
X0186570Y0176624D02*
X0189782Y0176624D01*
X0188183Y0178223D02*
X0184971Y0178223D01*
X0183373Y0179821D02*
X0186585Y0179821D01*
X0184986Y0181420D02*
X0171774Y0181420D01*
X0170176Y0183018D02*
X0183387Y0183018D01*
X0181789Y0184617D02*
X0168577Y0184617D01*
X0166979Y0186215D02*
X0170190Y0186215D01*
X0168592Y0187814D02*
X0165380Y0187814D01*
X0163782Y0189412D02*
X0166993Y0189412D01*
X0165395Y0191011D02*
X0162183Y0191011D01*
X0160585Y0192609D02*
X0163796Y0192609D01*
X0162198Y0194208D02*
X0159200Y0194208D01*
X0159200Y0195806D02*
X0160599Y0195806D01*
X0159449Y0197405D02*
X0159200Y0197405D01*
X0159200Y0199003D02*
X0159400Y0199003D01*
X0159400Y0200602D02*
X0159200Y0200602D01*
X0159200Y0202201D02*
X0159400Y0202201D01*
X0159400Y0203799D02*
X0159200Y0203799D01*
X0159200Y0205398D02*
X0159400Y0205398D01*
X0159400Y0206996D02*
X0159200Y0206996D01*
X0159200Y0208595D02*
X0159400Y0208595D01*
X0159400Y0210193D02*
X0159200Y0210193D01*
X0159200Y0211792D02*
X0159400Y0211792D01*
X0159400Y0213390D02*
X0159200Y0213390D01*
X0159200Y0214989D02*
X0159400Y0214989D01*
X0159400Y0216587D02*
X0159200Y0216587D01*
X0159200Y0218186D02*
X0159400Y0218186D01*
X0159400Y0219784D02*
X0159200Y0219784D01*
X0159200Y0221383D02*
X0159400Y0221383D01*
X0159400Y0222981D02*
X0159200Y0222981D01*
X0159200Y0224580D02*
X0159400Y0224580D01*
X0159400Y0226178D02*
X0159200Y0226178D01*
X0159200Y0227777D02*
X0159400Y0227777D01*
X0159400Y0229375D02*
X0159200Y0229375D01*
X0159200Y0230974D02*
X0159400Y0230974D01*
X0159400Y0232572D02*
X0159200Y0232572D01*
X0159200Y0234171D02*
X0159400Y0234171D01*
X0159400Y0235769D02*
X0159200Y0235769D01*
X0159200Y0237368D02*
X0159400Y0237368D01*
X0159200Y0238966D02*
X0159603Y0238966D01*
X0159200Y0240565D02*
X0160971Y0240565D01*
X0162569Y0242163D02*
X0159200Y0242163D01*
X0159200Y0243762D02*
X0164168Y0243762D01*
X0165766Y0245360D02*
X0159200Y0245360D01*
X0159200Y0246959D02*
X0193536Y0246959D01*
X0194422Y0250156D02*
X0162350Y0250156D01*
X0160751Y0248557D02*
X0219400Y0248557D01*
X0219400Y0246959D02*
X0210064Y0246959D01*
X0211200Y0245360D02*
X0219400Y0245360D01*
X0219400Y0243762D02*
X0211200Y0243762D01*
X0211186Y0242163D02*
X0219400Y0242163D01*
X0219400Y0240565D02*
X0209587Y0240565D01*
X0209655Y0237368D02*
X0219400Y0237368D01*
X0219400Y0238966D02*
X0166160Y0238966D01*
X0164562Y0237368D02*
X0193945Y0237368D01*
X0192400Y0235769D02*
X0164200Y0235769D01*
X0164200Y0234171D02*
X0192400Y0234171D01*
X0192400Y0232572D02*
X0164200Y0232572D01*
X0164200Y0230974D02*
X0193604Y0230974D01*
X0194013Y0240565D02*
X0167759Y0240565D01*
X0167800Y0244000D02*
X0161800Y0238000D01*
X0161800Y0198000D01*
X0171800Y0188000D01*
X0181800Y0188000D01*
X0196800Y0173000D01*
X0196800Y0133000D01*
X0198928Y0131866D02*
X0337272Y0131866D01*
X0338870Y0133465D02*
X0199200Y0133465D01*
X0199200Y0135063D02*
X0340469Y0135063D01*
X0342067Y0136662D02*
X0199200Y0136662D01*
X0199200Y0138260D02*
X0343666Y0138260D01*
X0345264Y0139859D02*
X0199200Y0139859D01*
X0199200Y0141457D02*
X0207903Y0141457D01*
X0209060Y0140300D02*
X0212540Y0140300D01*
X0215000Y0142760D01*
X0215000Y0146240D01*
X0212540Y0148700D01*
X0209060Y0148700D01*
X0206600Y0146240D01*
X0206600Y0142760D01*
X0209060Y0140300D01*
X0206600Y0143056D02*
X0199200Y0143056D01*
X0199200Y0144654D02*
X0206600Y0144654D01*
X0206613Y0146253D02*
X0199200Y0146253D01*
X0199200Y0147851D02*
X0208211Y0147851D01*
X0213389Y0147851D02*
X0353257Y0147851D01*
X0351659Y0146253D02*
X0214987Y0146253D01*
X0215000Y0144654D02*
X0350060Y0144654D01*
X0348461Y0143056D02*
X0215000Y0143056D01*
X0213697Y0141457D02*
X0346863Y0141457D01*
X0354856Y0149450D02*
X0199200Y0149450D01*
X0199200Y0151048D02*
X0356454Y0151048D01*
X0358053Y0152647D02*
X0199200Y0152647D01*
X0199200Y0154245D02*
X0359651Y0154245D01*
X0335673Y0130268D02*
X0197462Y0130268D01*
X0195863Y0128669D02*
X0334075Y0128669D01*
X0332476Y0127070D02*
X0194265Y0127070D01*
X0192666Y0125472D02*
X0330878Y0125472D01*
X0329279Y0123873D02*
X0191068Y0123873D01*
X0189469Y0122275D02*
X0241070Y0122275D01*
X0239723Y0120676D02*
X0187871Y0120676D01*
X0186272Y0119078D02*
X0239200Y0119078D01*
X0239200Y0117479D02*
X0184674Y0117479D01*
X0183075Y0115881D02*
X0239200Y0115881D01*
X0239200Y0114282D02*
X0181477Y0114282D01*
X0179878Y0112684D02*
X0239200Y0112684D01*
X0239407Y0111085D02*
X0179200Y0111085D01*
X0179200Y0109487D02*
X0240308Y0109487D01*
X0248018Y0107888D02*
X0179200Y0107888D01*
X0179200Y0106290D02*
X0249616Y0106290D01*
X0251215Y0104691D02*
X0179200Y0104691D01*
X0179200Y0103093D02*
X0252813Y0103093D01*
X0254412Y0101494D02*
X0179200Y0101494D01*
X0179200Y0099896D02*
X0256010Y0099896D01*
X0257609Y0098297D02*
X0179200Y0098297D01*
X0179200Y0096699D02*
X0259207Y0096699D01*
X0267292Y0109487D02*
X0270056Y0109487D01*
X0269213Y0111085D02*
X0268193Y0111085D01*
X0268400Y0112684D02*
X0269000Y0112684D01*
X0269000Y0114282D02*
X0268400Y0114282D01*
X0268400Y0115881D02*
X0269000Y0115881D01*
X0269000Y0117479D02*
X0268400Y0117479D01*
X0268400Y0119078D02*
X0269032Y0119078D01*
X0269522Y0120676D02*
X0267877Y0120676D01*
X0266530Y0122275D02*
X0270830Y0122275D01*
X0273600Y0122275D02*
X0274000Y0122275D01*
X0274000Y0123300D02*
X0274000Y0115700D01*
X0278600Y0115700D01*
X0278600Y0118878D01*
X0278482Y0119624D01*
X0278248Y0120343D01*
X0277905Y0121016D01*
X0277461Y0121627D01*
X0276927Y0122161D01*
X0276316Y0122605D01*
X0275643Y0122948D01*
X0274924Y0123182D01*
X0274178Y0123300D01*
X0274000Y0123300D01*
X0274000Y0120676D02*
X0273600Y0120676D01*
X0273600Y0119078D02*
X0274000Y0119078D01*
X0274000Y0117479D02*
X0273600Y0117479D01*
X0273600Y0115881D02*
X0274000Y0115881D01*
X0274000Y0114282D02*
X0273600Y0114282D01*
X0273600Y0112684D02*
X0274000Y0112684D01*
X0274000Y0111085D02*
X0273600Y0111085D01*
X0273600Y0109487D02*
X0274000Y0109487D01*
X0277544Y0109487D02*
X0314893Y0109487D01*
X0316491Y0111085D02*
X0278387Y0111085D01*
X0278600Y0112684D02*
X0318090Y0112684D01*
X0319688Y0114282D02*
X0278600Y0114282D01*
X0278600Y0115881D02*
X0321287Y0115881D01*
X0322885Y0117479D02*
X0278600Y0117479D01*
X0278568Y0119078D02*
X0324484Y0119078D01*
X0326082Y0120676D02*
X0278078Y0120676D01*
X0276770Y0122275D02*
X0327681Y0122275D01*
X0296406Y0080900D02*
X0294715Y0081600D01*
X0292885Y0081600D01*
X0291194Y0080900D01*
X0289900Y0079606D01*
X0289200Y0077915D01*
X0289200Y0070085D01*
X0289900Y0068394D01*
X0291194Y0067100D01*
X0292885Y0066400D01*
X0294715Y0066400D01*
X0296406Y0067100D01*
X0297700Y0068394D01*
X0298400Y0070085D01*
X0298400Y0077915D01*
X0297700Y0079606D01*
X0296406Y0080900D01*
X0296592Y0080714D02*
X0396921Y0080714D01*
X0396921Y0082312D02*
X0179200Y0082312D01*
X0179200Y0080714D02*
X0261008Y0080714D01*
X0261194Y0080900D02*
X0259900Y0079606D01*
X0259200Y0077915D01*
X0259200Y0070085D01*
X0259900Y0068394D01*
X0261194Y0067100D01*
X0262885Y0066400D01*
X0264715Y0066400D01*
X0266406Y0067100D01*
X0267700Y0068394D01*
X0268400Y0070085D01*
X0268400Y0077915D01*
X0267700Y0079606D01*
X0266406Y0080900D01*
X0264715Y0081600D01*
X0262885Y0081600D01*
X0261194Y0080900D01*
X0259697Y0079115D02*
X0179200Y0079115D01*
X0179200Y0077517D02*
X0259200Y0077517D01*
X0259200Y0075918D02*
X0179200Y0075918D01*
X0179200Y0074320D02*
X0259200Y0074320D01*
X0259200Y0072721D02*
X0179200Y0072721D01*
X0179200Y0071123D02*
X0259200Y0071123D01*
X0259432Y0069524D02*
X0179200Y0069524D01*
X0179200Y0067926D02*
X0260369Y0067926D01*
X0267231Y0067926D02*
X0270369Y0067926D01*
X0269900Y0068394D02*
X0271194Y0067100D01*
X0272885Y0066400D01*
X0274715Y0066400D01*
X0276406Y0067100D01*
X0277700Y0068394D01*
X0278400Y0070085D01*
X0278400Y0077915D01*
X0277700Y0079606D01*
X0276406Y0080900D01*
X0274715Y0081600D01*
X0272885Y0081600D01*
X0271194Y0080900D01*
X0269900Y0079606D01*
X0269200Y0077915D01*
X0269200Y0070085D01*
X0269900Y0068394D01*
X0269432Y0069524D02*
X0268168Y0069524D01*
X0268400Y0071123D02*
X0269200Y0071123D01*
X0269200Y0072721D02*
X0268400Y0072721D01*
X0268400Y0074320D02*
X0269200Y0074320D01*
X0269200Y0075918D02*
X0268400Y0075918D01*
X0268400Y0077517D02*
X0269200Y0077517D01*
X0269697Y0079115D02*
X0267903Y0079115D01*
X0266592Y0080714D02*
X0271008Y0080714D01*
X0276592Y0080714D02*
X0281008Y0080714D01*
X0281194Y0080900D02*
X0279900Y0079606D01*
X0279200Y0077915D01*
X0279200Y0070085D01*
X0279900Y0068394D01*
X0281194Y0067100D01*
X0282885Y0066400D01*
X0284715Y0066400D01*
X0286406Y0067100D01*
X0287700Y0068394D01*
X0288400Y0070085D01*
X0288400Y0077915D01*
X0287700Y0079606D01*
X0286406Y0080900D01*
X0284715Y0081600D01*
X0282885Y0081600D01*
X0281194Y0080900D01*
X0279697Y0079115D02*
X0277903Y0079115D01*
X0278400Y0077517D02*
X0279200Y0077517D01*
X0279200Y0075918D02*
X0278400Y0075918D01*
X0278400Y0074320D02*
X0279200Y0074320D01*
X0279200Y0072721D02*
X0278400Y0072721D01*
X0278400Y0071123D02*
X0279200Y0071123D01*
X0279432Y0069524D02*
X0278168Y0069524D01*
X0277231Y0067926D02*
X0280369Y0067926D01*
X0287231Y0067926D02*
X0290369Y0067926D01*
X0289432Y0069524D02*
X0288168Y0069524D01*
X0288400Y0071123D02*
X0289200Y0071123D01*
X0289200Y0072721D02*
X0288400Y0072721D01*
X0288400Y0074320D02*
X0289200Y0074320D01*
X0289200Y0075918D02*
X0288400Y0075918D01*
X0288400Y0077517D02*
X0289200Y0077517D01*
X0289697Y0079115D02*
X0287903Y0079115D01*
X0286592Y0080714D02*
X0291008Y0080714D01*
X0297903Y0079115D02*
X0396921Y0079115D01*
X0396921Y0077517D02*
X0298400Y0077517D01*
X0298400Y0075918D02*
X0396921Y0075918D01*
X0396921Y0074320D02*
X0298400Y0074320D01*
X0298400Y0072721D02*
X0396921Y0072721D01*
X0396921Y0071123D02*
X0298400Y0071123D01*
X0298168Y0069524D02*
X0396921Y0069524D01*
X0396921Y0067926D02*
X0297231Y0067926D01*
X0249200Y0114282D02*
X0248412Y0114282D01*
X0194400Y0136662D02*
X0193843Y0136662D01*
X0194200Y0138260D02*
X0194400Y0138260D01*
X0194400Y0139859D02*
X0194200Y0139859D01*
X0194200Y0141457D02*
X0194400Y0141457D01*
X0194400Y0143056D02*
X0194200Y0143056D01*
X0194200Y0144654D02*
X0194400Y0144654D01*
X0194400Y0146253D02*
X0194200Y0146253D01*
X0194200Y0147851D02*
X0194400Y0147851D01*
X0194400Y0149450D02*
X0194200Y0149450D01*
X0194200Y0151048D02*
X0194400Y0151048D01*
X0194400Y0152647D02*
X0194200Y0152647D01*
X0194200Y0154245D02*
X0194400Y0154245D01*
X0194400Y0155844D02*
X0194200Y0155844D01*
X0194200Y0157442D02*
X0194400Y0157442D01*
X0191800Y0168000D02*
X0191800Y0138000D01*
X0166800Y0113000D01*
X0166800Y0033000D01*
X0161800Y0028000D01*
X0161800Y0016500D01*
X0166000Y0016773D02*
X0167600Y0016773D01*
X0167600Y0015175D02*
X0166000Y0015175D01*
X0166000Y0013576D02*
X0167600Y0013576D01*
X0168050Y0011978D02*
X0165550Y0011978D01*
X0164219Y0010379D02*
X0169381Y0010379D01*
X0167600Y0018372D02*
X0166000Y0018372D01*
X0165986Y0019970D02*
X0167614Y0019970D01*
X0168329Y0021569D02*
X0165271Y0021569D01*
X0164200Y0023167D02*
X0169400Y0023167D01*
X0169400Y0024766D02*
X0164200Y0024766D01*
X0164200Y0026364D02*
X0169400Y0026364D01*
X0169400Y0027963D02*
X0165157Y0027963D01*
X0166755Y0029561D02*
X0169967Y0029561D01*
X0171566Y0031160D02*
X0168354Y0031160D01*
X0169200Y0032758D02*
X0173164Y0032758D01*
X0174400Y0034357D02*
X0169200Y0034357D01*
X0169200Y0035955D02*
X0174400Y0035955D01*
X0174400Y0037554D02*
X0169200Y0037554D01*
X0169200Y0039152D02*
X0174400Y0039152D01*
X0174400Y0040751D02*
X0169200Y0040751D01*
X0169200Y0042349D02*
X0174400Y0042349D01*
X0174400Y0043948D02*
X0169200Y0043948D01*
X0169200Y0045546D02*
X0174400Y0045546D01*
X0174400Y0047145D02*
X0169200Y0047145D01*
X0169200Y0048743D02*
X0174400Y0048743D01*
X0174400Y0050342D02*
X0169200Y0050342D01*
X0169200Y0051940D02*
X0174400Y0051940D01*
X0174400Y0053539D02*
X0169200Y0053539D01*
X0169200Y0055137D02*
X0174400Y0055137D01*
X0174400Y0056736D02*
X0169200Y0056736D01*
X0169200Y0058334D02*
X0174400Y0058334D01*
X0174400Y0059933D02*
X0169200Y0059933D01*
X0169200Y0061532D02*
X0174400Y0061532D01*
X0174400Y0063130D02*
X0169200Y0063130D01*
X0169200Y0064729D02*
X0174400Y0064729D01*
X0174400Y0066327D02*
X0169200Y0066327D01*
X0169200Y0067926D02*
X0174400Y0067926D01*
X0174400Y0069524D02*
X0169200Y0069524D01*
X0169200Y0071123D02*
X0174400Y0071123D01*
X0174400Y0072721D02*
X0169200Y0072721D01*
X0169200Y0074320D02*
X0174400Y0074320D01*
X0174400Y0075918D02*
X0169200Y0075918D01*
X0169200Y0077517D02*
X0174400Y0077517D01*
X0174400Y0079115D02*
X0169200Y0079115D01*
X0169200Y0080714D02*
X0174400Y0080714D01*
X0174400Y0082312D02*
X0169200Y0082312D01*
X0169200Y0083911D02*
X0174400Y0083911D01*
X0174400Y0085509D02*
X0169200Y0085509D01*
X0169200Y0087108D02*
X0174400Y0087108D01*
X0174400Y0088706D02*
X0169200Y0088706D01*
X0169200Y0090305D02*
X0174400Y0090305D01*
X0174400Y0091903D02*
X0169200Y0091903D01*
X0169200Y0093502D02*
X0174400Y0093502D01*
X0174400Y0095100D02*
X0169200Y0095100D01*
X0169200Y0096699D02*
X0174400Y0096699D01*
X0174400Y0098297D02*
X0169200Y0098297D01*
X0169200Y0099896D02*
X0174400Y0099896D01*
X0174400Y0101494D02*
X0169200Y0101494D01*
X0169200Y0103093D02*
X0174400Y0103093D01*
X0174400Y0104691D02*
X0169200Y0104691D01*
X0169200Y0106290D02*
X0174400Y0106290D01*
X0174400Y0107888D02*
X0169200Y0107888D01*
X0169200Y0109487D02*
X0174400Y0109487D01*
X0174400Y0111085D02*
X0169200Y0111085D01*
X0169878Y0112684D02*
X0174400Y0112684D01*
X0174733Y0114282D02*
X0171477Y0114282D01*
X0173075Y0115881D02*
X0176287Y0115881D01*
X0177885Y0117479D02*
X0174674Y0117479D01*
X0176272Y0119078D02*
X0179484Y0119078D01*
X0181082Y0120676D02*
X0177871Y0120676D01*
X0179200Y0095100D02*
X0396921Y0095100D01*
X0396921Y0093502D02*
X0179200Y0093502D01*
X0179200Y0091903D02*
X0396921Y0091903D01*
X0396921Y0090305D02*
X0179200Y0090305D01*
X0179200Y0088706D02*
X0396921Y0088706D01*
X0396921Y0087108D02*
X0179200Y0087108D01*
X0179200Y0085509D02*
X0396921Y0085509D01*
X0396921Y0083911D02*
X0179200Y0083911D01*
X0164400Y0082312D02*
X0133410Y0082312D01*
X0132715Y0082600D02*
X0134406Y0081900D01*
X0135700Y0080606D01*
X0136400Y0078915D01*
X0136400Y0071085D01*
X0135700Y0069394D01*
X0134406Y0068100D01*
X0132715Y0067400D01*
X0130885Y0067400D01*
X0129194Y0068100D01*
X0127900Y0069394D01*
X0127200Y0071085D01*
X0127200Y0078915D01*
X0127900Y0080606D01*
X0129194Y0081900D01*
X0130885Y0082600D01*
X0132715Y0082600D01*
X0130190Y0082312D02*
X0123410Y0082312D01*
X0122715Y0082600D02*
X0120885Y0082600D01*
X0119194Y0081900D01*
X0117900Y0080606D01*
X0117200Y0078915D01*
X0117200Y0071085D01*
X0117900Y0069394D01*
X0119194Y0068100D01*
X0120885Y0067400D01*
X0122715Y0067400D01*
X0124406Y0068100D01*
X0125700Y0069394D01*
X0126400Y0071085D01*
X0126400Y0078915D01*
X0125700Y0080606D01*
X0124406Y0081900D01*
X0122715Y0082600D01*
X0120190Y0082312D02*
X0113410Y0082312D01*
X0112715Y0082600D02*
X0114406Y0081900D01*
X0115700Y0080606D01*
X0116400Y0078915D01*
X0116400Y0071085D01*
X0115700Y0069394D01*
X0114406Y0068100D01*
X0112715Y0067400D01*
X0110885Y0067400D01*
X0109194Y0068100D01*
X0107900Y0069394D01*
X0107200Y0071085D01*
X0107200Y0078915D01*
X0107900Y0080606D01*
X0109194Y0081900D01*
X0110885Y0082600D01*
X0112715Y0082600D01*
X0110190Y0082312D02*
X0103910Y0082312D01*
X0102000Y0082312D02*
X0101600Y0082312D01*
X0101600Y0080714D02*
X0102000Y0080714D01*
X0102000Y0079115D02*
X0101600Y0079115D01*
X0101600Y0077517D02*
X0102000Y0077517D01*
X0102000Y0075918D02*
X0101600Y0075918D01*
X0102000Y0074800D02*
X0106600Y0074800D01*
X0106600Y0071622D01*
X0106482Y0070876D01*
X0106248Y0070157D01*
X0105905Y0069484D01*
X0105461Y0068873D01*
X0104927Y0068339D01*
X0104316Y0067895D01*
X0103643Y0067552D01*
X0102924Y0067318D01*
X0102178Y0067200D01*
X0102000Y0067200D01*
X0102000Y0074800D01*
X0102000Y0074320D02*
X0101600Y0074320D01*
X0101600Y0072721D02*
X0102000Y0072721D01*
X0102000Y0071123D02*
X0101600Y0071123D01*
X0101600Y0069524D02*
X0102000Y0069524D01*
X0102000Y0067926D02*
X0101600Y0067926D01*
X0104358Y0067926D02*
X0109616Y0067926D01*
X0107847Y0069524D02*
X0105926Y0069524D01*
X0106521Y0071123D02*
X0107200Y0071123D01*
X0107200Y0072721D02*
X0106600Y0072721D01*
X0106600Y0074320D02*
X0107200Y0074320D01*
X0107200Y0075918D02*
X0106600Y0075918D01*
X0106600Y0077517D02*
X0107200Y0077517D01*
X0107283Y0079115D02*
X0106483Y0079115D01*
X0105762Y0080714D02*
X0108008Y0080714D01*
X0115592Y0080714D02*
X0118008Y0080714D01*
X0117283Y0079115D02*
X0116317Y0079115D01*
X0116400Y0077517D02*
X0117200Y0077517D01*
X0117200Y0075918D02*
X0116400Y0075918D01*
X0116400Y0074320D02*
X0117200Y0074320D01*
X0117200Y0072721D02*
X0116400Y0072721D01*
X0116400Y0071123D02*
X0117200Y0071123D01*
X0117847Y0069524D02*
X0115753Y0069524D01*
X0113984Y0067926D02*
X0119616Y0067926D01*
X0123984Y0067926D02*
X0129616Y0067926D01*
X0127847Y0069524D02*
X0125753Y0069524D01*
X0126400Y0071123D02*
X0127200Y0071123D01*
X0127200Y0072721D02*
X0126400Y0072721D01*
X0126400Y0074320D02*
X0127200Y0074320D01*
X0127200Y0075918D02*
X0126400Y0075918D01*
X0126400Y0077517D02*
X0127200Y0077517D01*
X0127283Y0079115D02*
X0126317Y0079115D01*
X0125592Y0080714D02*
X0128008Y0080714D01*
X0135592Y0080714D02*
X0164400Y0080714D01*
X0164400Y0079115D02*
X0136317Y0079115D01*
X0136400Y0077517D02*
X0164400Y0077517D01*
X0164400Y0075918D02*
X0136400Y0075918D01*
X0136400Y0074320D02*
X0164400Y0074320D01*
X0164400Y0072721D02*
X0136400Y0072721D01*
X0136400Y0071123D02*
X0164400Y0071123D01*
X0164400Y0069524D02*
X0135753Y0069524D01*
X0133984Y0067926D02*
X0164400Y0067926D01*
X0179200Y0066327D02*
X0396921Y0066327D01*
X0396921Y0064729D02*
X0179200Y0064729D01*
X0179200Y0063130D02*
X0396921Y0063130D01*
X0396921Y0061532D02*
X0179200Y0061532D01*
X0179200Y0059933D02*
X0396921Y0059933D01*
X0396921Y0058334D02*
X0179200Y0058334D01*
X0179200Y0056736D02*
X0396921Y0056736D01*
X0396921Y0055137D02*
X0179200Y0055137D01*
X0179200Y0053539D02*
X0396921Y0053539D01*
X0396921Y0051940D02*
X0179200Y0051940D01*
X0179200Y0050342D02*
X0396921Y0050342D01*
X0396921Y0048743D02*
X0179200Y0048743D01*
X0179200Y0047145D02*
X0396921Y0047145D01*
X0396921Y0045546D02*
X0179200Y0045546D01*
X0179200Y0043948D02*
X0364051Y0043948D01*
X0365661Y0044580D02*
X0360999Y0042750D01*
X0357084Y0039628D01*
X0357084Y0039628D01*
X0354263Y0035490D01*
X0354263Y0035490D01*
X0352786Y0030704D01*
X0352786Y0025696D01*
X0354263Y0020910D01*
X0357084Y0016772D01*
X0360999Y0013650D01*
X0365661Y0011820D01*
X0365661Y0011820D01*
X0370656Y0011446D01*
X0375538Y0012560D01*
X0379875Y0015064D01*
X0383282Y0018736D01*
X0385455Y0023248D01*
X0386201Y0028200D01*
X0385455Y0033152D01*
X0383282Y0037664D01*
X0383282Y0037664D01*
X0379875Y0041336D01*
X0375538Y0043840D01*
X0370656Y0044954D01*
X0370656Y0044954D01*
X0365661Y0044580D01*
X0365661Y0044580D01*
X0360999Y0042750D02*
X0360999Y0042750D01*
X0360497Y0042349D02*
X0179200Y0042349D01*
X0179200Y0040751D02*
X0358492Y0040751D01*
X0356760Y0039152D02*
X0179200Y0039152D01*
X0179200Y0037554D02*
X0355670Y0037554D01*
X0354580Y0035955D02*
X0179200Y0035955D01*
X0179200Y0034357D02*
X0353913Y0034357D01*
X0353420Y0032758D02*
X0179200Y0032758D01*
X0178354Y0031160D02*
X0352927Y0031160D01*
X0352786Y0029561D02*
X0176755Y0029561D01*
X0175157Y0027963D02*
X0352786Y0027963D01*
X0352786Y0026364D02*
X0174200Y0026364D01*
X0174200Y0024766D02*
X0353073Y0024766D01*
X0353566Y0023167D02*
X0203509Y0023167D01*
X0205445Y0021569D02*
X0354060Y0021569D01*
X0354263Y0020910D02*
X0354263Y0020910D01*
X0354904Y0019970D02*
X0206117Y0019970D01*
X0206200Y0018372D02*
X0355993Y0018372D01*
X0357083Y0016773D02*
X0206200Y0016773D01*
X0206200Y0015175D02*
X0359087Y0015175D01*
X0360999Y0013650D02*
X0360999Y0013650D01*
X0361187Y0013576D02*
X0206200Y0013576D01*
X0205759Y0011978D02*
X0365260Y0011978D01*
X0370656Y0011446D02*
X0370656Y0011446D01*
X0372986Y0011978D02*
X0396921Y0011978D01*
X0396921Y0013576D02*
X0377298Y0013576D01*
X0375538Y0012560D02*
X0375538Y0012560D01*
X0379875Y0015064D02*
X0379875Y0015064D01*
X0379978Y0015175D02*
X0396921Y0015175D01*
X0396921Y0016773D02*
X0381461Y0016773D01*
X0382944Y0018372D02*
X0396921Y0018372D01*
X0396921Y0019970D02*
X0383876Y0019970D01*
X0383282Y0018736D02*
X0383282Y0018736D01*
X0384646Y0021569D02*
X0396921Y0021569D01*
X0396921Y0023167D02*
X0385416Y0023167D01*
X0385455Y0023248D02*
X0385455Y0023248D01*
X0385684Y0024766D02*
X0396921Y0024766D01*
X0396921Y0026364D02*
X0385924Y0026364D01*
X0386165Y0027963D02*
X0396921Y0027963D01*
X0396921Y0029561D02*
X0385996Y0029561D01*
X0385755Y0031160D02*
X0396921Y0031160D01*
X0396921Y0032758D02*
X0385514Y0032758D01*
X0385455Y0033152D02*
X0385455Y0033152D01*
X0384875Y0034357D02*
X0396921Y0034357D01*
X0396921Y0035955D02*
X0384105Y0035955D01*
X0383335Y0037554D02*
X0396921Y0037554D01*
X0396921Y0039152D02*
X0381901Y0039152D01*
X0380418Y0040751D02*
X0396921Y0040751D01*
X0396921Y0042349D02*
X0378120Y0042349D01*
X0379875Y0041336D02*
X0379875Y0041336D01*
X0375538Y0043840D02*
X0375538Y0043840D01*
X0375065Y0043948D02*
X0396921Y0043948D01*
X0396921Y0007182D02*
X0128813Y0007182D01*
X0174200Y0023167D02*
X0180644Y0023167D01*
X0178329Y0021569D02*
X0175271Y0021569D01*
X0175986Y0019970D02*
X0177614Y0019970D01*
X0177600Y0018372D02*
X0176000Y0018372D01*
X0195271Y0021569D02*
X0198155Y0021569D01*
X0197483Y0019970D02*
X0195986Y0019970D01*
X0196000Y0018372D02*
X0197400Y0018372D01*
X0197400Y0016773D02*
X0196000Y0016773D01*
X0196000Y0015175D02*
X0197400Y0015175D01*
X0197400Y0013576D02*
X0196000Y0013576D01*
X0195550Y0011978D02*
X0197841Y0011978D01*
X0199160Y0010379D02*
X0194219Y0010379D01*
X0191800Y0168000D02*
X0181800Y0178000D01*
X0171800Y0178000D01*
X0156800Y0193000D01*
X0156800Y0248000D01*
X0162800Y0254000D01*
X0196800Y0254000D01*
X0193127Y0256550D02*
X0149200Y0256550D01*
X0149200Y0258148D02*
X0194726Y0258148D01*
X0194831Y0259747D02*
X0149200Y0259747D01*
X0149200Y0261345D02*
X0193232Y0261345D01*
X0192400Y0262944D02*
X0149200Y0262944D01*
X0149200Y0264542D02*
X0192400Y0264542D01*
X0192718Y0266141D02*
X0149200Y0266141D01*
X0149934Y0267739D02*
X0194317Y0267739D01*
X0193641Y0270937D02*
X0153131Y0270937D01*
X0151532Y0269338D02*
X0219400Y0269338D01*
X0219400Y0270937D02*
X0209959Y0270937D01*
X0211200Y0272535D02*
X0219400Y0272535D01*
X0219400Y0274134D02*
X0211200Y0274134D01*
X0211200Y0275732D02*
X0219400Y0275732D01*
X0224200Y0275732D02*
X0239400Y0275732D01*
X0239400Y0274134D02*
X0224200Y0274134D01*
X0224200Y0272535D02*
X0239400Y0272535D01*
X0239400Y0270937D02*
X0224200Y0270937D01*
X0224200Y0269338D02*
X0239400Y0269338D01*
X0239400Y0267739D02*
X0224200Y0267739D01*
X0224200Y0266141D02*
X0239400Y0266141D01*
X0239400Y0264542D02*
X0224200Y0264542D01*
X0224200Y0262944D02*
X0239400Y0262944D01*
X0239400Y0261345D02*
X0224200Y0261345D01*
X0224200Y0259747D02*
X0239400Y0259747D01*
X0239400Y0258148D02*
X0224200Y0258148D01*
X0224200Y0256550D02*
X0239596Y0256550D01*
X0240954Y0254951D02*
X0224200Y0254951D01*
X0224200Y0253353D02*
X0242553Y0253353D01*
X0242174Y0251754D02*
X0224200Y0251754D01*
X0224200Y0250156D02*
X0242000Y0250156D01*
X0242459Y0248557D02*
X0224200Y0248557D01*
X0224200Y0246959D02*
X0243801Y0246959D01*
X0248800Y0250500D02*
X0241800Y0257500D01*
X0241800Y0339000D01*
X0071800Y0339000D01*
X0027300Y0294500D01*
X0022900Y0294914D02*
X0007874Y0294914D01*
X0007895Y0293316D02*
X0022900Y0293316D01*
X0023860Y0291717D02*
X0007915Y0291717D01*
X0007935Y0290119D02*
X0025459Y0290119D01*
X0025098Y0288520D02*
X0007956Y0288520D01*
X0007976Y0286922D02*
X0023499Y0286922D01*
X0022900Y0285323D02*
X0007997Y0285323D01*
X0008017Y0283725D02*
X0022900Y0283725D01*
X0023451Y0282126D02*
X0008037Y0282126D01*
X0008058Y0280528D02*
X0025050Y0280528D01*
X0037200Y0280528D02*
X0037400Y0280528D01*
X0037400Y0282126D02*
X0037200Y0282126D01*
X0037200Y0283725D02*
X0037400Y0283725D01*
X0037400Y0285323D02*
X0037200Y0285323D01*
X0037200Y0286922D02*
X0037400Y0286922D01*
X0037400Y0288520D02*
X0037200Y0288520D01*
X0039141Y0290119D02*
X0130525Y0290119D01*
X0132123Y0291717D02*
X0040740Y0291717D01*
X0041700Y0293316D02*
X0133722Y0293316D01*
X0135320Y0294914D02*
X0041700Y0294914D01*
X0041510Y0296513D02*
X0136919Y0296513D01*
X0138517Y0298111D02*
X0039911Y0298111D01*
X0033911Y0304505D02*
X0007752Y0304505D01*
X0007772Y0302907D02*
X0032313Y0302907D01*
X0030714Y0301308D02*
X0007793Y0301308D01*
X0007813Y0299710D02*
X0029116Y0299710D01*
X0024689Y0298111D02*
X0007833Y0298111D01*
X0007854Y0296513D02*
X0023090Y0296513D01*
X0035510Y0306104D02*
X0007731Y0306104D01*
X0007711Y0307702D02*
X0037108Y0307702D01*
X0038707Y0309301D02*
X0007691Y0309301D01*
X0007670Y0310899D02*
X0040305Y0310899D01*
X0041904Y0312498D02*
X0007650Y0312498D01*
X0007629Y0314096D02*
X0043502Y0314096D01*
X0045101Y0315695D02*
X0007609Y0315695D01*
X0007588Y0317293D02*
X0046699Y0317293D01*
X0048298Y0318892D02*
X0007568Y0318892D01*
X0007548Y0320490D02*
X0049896Y0320490D01*
X0051495Y0322089D02*
X0007527Y0322089D01*
X0007507Y0323687D02*
X0053093Y0323687D01*
X0054692Y0325286D02*
X0007486Y0325286D01*
X0007466Y0326884D02*
X0056290Y0326884D01*
X0057889Y0328483D02*
X0007446Y0328483D01*
X0007425Y0330081D02*
X0059487Y0330081D01*
X0061086Y0331680D02*
X0007405Y0331680D01*
X0007384Y0333278D02*
X0062684Y0333278D01*
X0064283Y0334877D02*
X0007364Y0334877D01*
X0007344Y0336475D02*
X0065881Y0336475D01*
X0067480Y0338074D02*
X0007323Y0338074D01*
X0007303Y0339672D02*
X0069078Y0339672D01*
X0071011Y0341271D02*
X0007282Y0341271D01*
X0007262Y0342870D02*
X0237780Y0342870D01*
X0238728Y0344468D02*
X0007242Y0344468D01*
X0007221Y0346067D02*
X0027743Y0346067D01*
X0027861Y0346020D02*
X0027861Y0346020D01*
X0023199Y0347850D01*
X0023199Y0347850D01*
X0019284Y0350972D01*
X0019284Y0350972D01*
X0019284Y0350972D01*
X0016463Y0355110D01*
X0016463Y0355110D01*
X0014986Y0359896D01*
X0014986Y0364904D01*
X0016463Y0369690D01*
X0016463Y0369690D01*
X0019284Y0373828D01*
X0019284Y0373828D01*
X0023199Y0376950D01*
X0023199Y0376950D01*
X0027861Y0378780D01*
X0027861Y0378780D01*
X0032856Y0379154D01*
X0032856Y0379154D01*
X0037738Y0378040D01*
X0037738Y0378040D01*
X0042075Y0375536D01*
X0042075Y0375536D01*
X0045482Y0371864D01*
X0045482Y0371864D01*
X0047655Y0367352D01*
X0047655Y0367352D01*
X0048401Y0362400D01*
X0047655Y0357448D01*
X0047655Y0357448D01*
X0045482Y0352936D01*
X0045482Y0352936D01*
X0042075Y0349264D01*
X0042075Y0349264D01*
X0042075Y0349264D01*
X0037738Y0346760D01*
X0037738Y0346760D01*
X0032856Y0345646D01*
X0032856Y0345646D01*
X0027861Y0346020D01*
X0023670Y0347665D02*
X0007201Y0347665D01*
X0007180Y0349264D02*
X0021427Y0349264D01*
X0019422Y0350862D02*
X0007160Y0350862D01*
X0007140Y0352461D02*
X0018269Y0352461D01*
X0017179Y0354059D02*
X0007119Y0354059D01*
X0007099Y0355658D02*
X0016294Y0355658D01*
X0015801Y0357256D02*
X0007078Y0357256D01*
X0007058Y0358855D02*
X0015308Y0358855D01*
X0014986Y0360453D02*
X0007038Y0360453D01*
X0007017Y0362052D02*
X0014986Y0362052D01*
X0014986Y0363650D02*
X0006997Y0363650D01*
X0006976Y0365249D02*
X0015093Y0365249D01*
X0015586Y0366847D02*
X0006956Y0366847D01*
X0006936Y0368446D02*
X0016079Y0368446D01*
X0016704Y0370044D02*
X0006915Y0370044D01*
X0006895Y0371643D02*
X0017794Y0371643D01*
X0018884Y0373241D02*
X0006874Y0373241D01*
X0006854Y0374840D02*
X0020553Y0374840D01*
X0019284Y0373828D02*
X0019284Y0373828D01*
X0022557Y0376438D02*
X0006834Y0376438D01*
X0006813Y0378037D02*
X0025968Y0378037D01*
X0037743Y0378037D02*
X0396921Y0378037D01*
X0396921Y0379635D02*
X0006793Y0379635D01*
X0006772Y0381234D02*
X0396921Y0381234D01*
X0396921Y0382832D02*
X0006752Y0382832D01*
X0006731Y0384431D02*
X0396921Y0384431D01*
X0396921Y0386029D02*
X0006711Y0386029D01*
X0006691Y0387628D02*
X0396921Y0387628D01*
X0396921Y0376438D02*
X0040512Y0376438D01*
X0042721Y0374840D02*
X0396921Y0374840D01*
X0396921Y0373241D02*
X0044204Y0373241D01*
X0045589Y0371643D02*
X0396921Y0371643D01*
X0396921Y0370044D02*
X0046358Y0370044D01*
X0047128Y0368446D02*
X0396921Y0368446D01*
X0396921Y0366847D02*
X0047731Y0366847D01*
X0047972Y0365249D02*
X0396921Y0365249D01*
X0396921Y0363650D02*
X0048213Y0363650D01*
X0048349Y0362052D02*
X0396921Y0362052D01*
X0396921Y0360453D02*
X0048108Y0360453D01*
X0047867Y0358855D02*
X0396921Y0358855D01*
X0396921Y0357256D02*
X0047562Y0357256D01*
X0046793Y0355658D02*
X0396921Y0355658D01*
X0396921Y0354059D02*
X0046023Y0354059D01*
X0045041Y0352461D02*
X0396921Y0352461D01*
X0396921Y0350862D02*
X0043558Y0350862D01*
X0042074Y0349264D02*
X0396921Y0349264D01*
X0396921Y0347665D02*
X0039305Y0347665D01*
X0034699Y0346067D02*
X0396921Y0346067D01*
X0396921Y0344468D02*
X0354872Y0344468D01*
X0355361Y0343979D02*
X0354179Y0345161D01*
X0352635Y0345800D01*
X0350965Y0345800D01*
X0349421Y0345161D01*
X0348239Y0343979D01*
X0347600Y0342435D01*
X0347600Y0335565D01*
X0348239Y0334021D01*
X0349421Y0332839D01*
X0350965Y0332200D01*
X0352635Y0332200D01*
X0354179Y0332839D01*
X0355361Y0334021D01*
X0356000Y0335565D01*
X0356000Y0342435D01*
X0355361Y0343979D01*
X0355820Y0342870D02*
X0396921Y0342870D01*
X0396921Y0341271D02*
X0356000Y0341271D01*
X0356000Y0339672D02*
X0396921Y0339672D01*
X0396921Y0338074D02*
X0356000Y0338074D01*
X0356000Y0336475D02*
X0396921Y0336475D01*
X0396921Y0334877D02*
X0355715Y0334877D01*
X0354618Y0333278D02*
X0396921Y0333278D01*
X0396921Y0331680D02*
X0254200Y0331680D01*
X0254200Y0330081D02*
X0396921Y0330081D01*
X0396921Y0328483D02*
X0254200Y0328483D01*
X0254200Y0326884D02*
X0396921Y0326884D01*
X0396921Y0325286D02*
X0254200Y0325286D01*
X0254200Y0323687D02*
X0396921Y0323687D01*
X0396921Y0322089D02*
X0254200Y0322089D01*
X0254200Y0320490D02*
X0396921Y0320490D01*
X0396921Y0318892D02*
X0254302Y0318892D01*
X0255901Y0317293D02*
X0396921Y0317293D01*
X0396921Y0315695D02*
X0257499Y0315695D01*
X0259098Y0314096D02*
X0396921Y0314096D01*
X0396921Y0312498D02*
X0260696Y0312498D01*
X0262295Y0310899D02*
X0396921Y0310899D01*
X0396921Y0309301D02*
X0263893Y0309301D01*
X0265492Y0307702D02*
X0396921Y0307702D01*
X0396921Y0306104D02*
X0267090Y0306104D01*
X0268689Y0304505D02*
X0396921Y0304505D01*
X0396921Y0302907D02*
X0270287Y0302907D01*
X0271886Y0301308D02*
X0396921Y0301308D01*
X0365815Y0288520D02*
X0364674Y0288520D01*
X0344179Y0332839D02*
X0342635Y0332200D01*
X0340965Y0332200D01*
X0339421Y0332839D01*
X0338239Y0334021D01*
X0337600Y0335565D01*
X0337600Y0342435D01*
X0338239Y0343979D01*
X0339421Y0345161D01*
X0340965Y0345800D01*
X0342635Y0345800D01*
X0344179Y0345161D01*
X0345361Y0343979D01*
X0346000Y0342435D01*
X0346000Y0335565D01*
X0345361Y0334021D01*
X0344179Y0332839D01*
X0344618Y0333278D02*
X0348982Y0333278D01*
X0347885Y0334877D02*
X0345715Y0334877D01*
X0346000Y0336475D02*
X0347600Y0336475D01*
X0347600Y0338074D02*
X0346000Y0338074D01*
X0346000Y0339672D02*
X0347600Y0339672D01*
X0347600Y0341271D02*
X0346000Y0341271D01*
X0345820Y0342870D02*
X0347780Y0342870D01*
X0348728Y0344468D02*
X0344872Y0344468D01*
X0338728Y0344468D02*
X0334872Y0344468D01*
X0335361Y0343979D02*
X0334179Y0345161D01*
X0332635Y0345800D01*
X0330965Y0345800D01*
X0329421Y0345161D01*
X0328239Y0343979D01*
X0327600Y0342435D01*
X0327600Y0335565D01*
X0328239Y0334021D01*
X0329421Y0332839D01*
X0330965Y0332200D01*
X0332635Y0332200D01*
X0334179Y0332839D01*
X0335361Y0334021D01*
X0336000Y0335565D01*
X0336000Y0342435D01*
X0335361Y0343979D01*
X0335820Y0342870D02*
X0337780Y0342870D01*
X0337600Y0341271D02*
X0336000Y0341271D01*
X0336000Y0339672D02*
X0337600Y0339672D01*
X0337600Y0338074D02*
X0336000Y0338074D01*
X0336000Y0336475D02*
X0337600Y0336475D01*
X0337885Y0334877D02*
X0335715Y0334877D01*
X0334618Y0333278D02*
X0338982Y0333278D01*
X0328982Y0333278D02*
X0324618Y0333278D01*
X0324179Y0332839D02*
X0325361Y0334021D01*
X0326000Y0335565D01*
X0326000Y0342435D01*
X0325361Y0343979D01*
X0324179Y0345161D01*
X0322635Y0345800D01*
X0320965Y0345800D01*
X0319421Y0345161D01*
X0318239Y0343979D01*
X0317600Y0342435D01*
X0317600Y0335565D01*
X0318239Y0334021D01*
X0319421Y0332839D01*
X0320965Y0332200D01*
X0322635Y0332200D01*
X0324179Y0332839D01*
X0325715Y0334877D02*
X0327885Y0334877D01*
X0327600Y0336475D02*
X0326000Y0336475D01*
X0326000Y0338074D02*
X0327600Y0338074D01*
X0327600Y0339672D02*
X0326000Y0339672D01*
X0326000Y0341271D02*
X0327600Y0341271D01*
X0327780Y0342870D02*
X0325820Y0342870D01*
X0324872Y0344468D02*
X0328728Y0344468D01*
X0318728Y0344468D02*
X0314872Y0344468D01*
X0315361Y0343979D02*
X0314179Y0345161D01*
X0312635Y0345800D01*
X0310965Y0345800D01*
X0309421Y0345161D01*
X0308239Y0343979D01*
X0307600Y0342435D01*
X0307600Y0335565D01*
X0308239Y0334021D01*
X0309421Y0332839D01*
X0310965Y0332200D01*
X0312635Y0332200D01*
X0314179Y0332839D01*
X0315361Y0334021D01*
X0316000Y0335565D01*
X0316000Y0342435D01*
X0315361Y0343979D01*
X0315820Y0342870D02*
X0317780Y0342870D01*
X0317600Y0341271D02*
X0316000Y0341271D01*
X0316000Y0339672D02*
X0317600Y0339672D01*
X0317600Y0338074D02*
X0316000Y0338074D01*
X0316000Y0336475D02*
X0317600Y0336475D01*
X0317885Y0334877D02*
X0315715Y0334877D01*
X0314618Y0333278D02*
X0318982Y0333278D01*
X0308982Y0333278D02*
X0304618Y0333278D01*
X0304179Y0332839D02*
X0305361Y0334021D01*
X0306000Y0335565D01*
X0306000Y0342435D01*
X0305361Y0343979D01*
X0304179Y0345161D01*
X0302635Y0345800D01*
X0300965Y0345800D01*
X0299421Y0345161D01*
X0298239Y0343979D01*
X0297600Y0342435D01*
X0297600Y0335565D01*
X0298239Y0334021D01*
X0299421Y0332839D01*
X0300965Y0332200D01*
X0302635Y0332200D01*
X0304179Y0332839D01*
X0305715Y0334877D02*
X0307885Y0334877D01*
X0307600Y0336475D02*
X0306000Y0336475D01*
X0306000Y0338074D02*
X0307600Y0338074D01*
X0307600Y0339672D02*
X0306000Y0339672D01*
X0306000Y0341271D02*
X0307600Y0341271D01*
X0307780Y0342870D02*
X0305820Y0342870D01*
X0304872Y0344468D02*
X0308728Y0344468D01*
X0298728Y0344468D02*
X0294872Y0344468D01*
X0295361Y0343979D02*
X0294179Y0345161D01*
X0292635Y0345800D01*
X0290965Y0345800D01*
X0289421Y0345161D01*
X0288239Y0343979D01*
X0287600Y0342435D01*
X0287600Y0335565D01*
X0288239Y0334021D01*
X0289421Y0332839D01*
X0290965Y0332200D01*
X0292635Y0332200D01*
X0294179Y0332839D01*
X0295361Y0334021D01*
X0296000Y0335565D01*
X0296000Y0342435D01*
X0295361Y0343979D01*
X0295820Y0342870D02*
X0297780Y0342870D01*
X0297600Y0341271D02*
X0296000Y0341271D01*
X0296000Y0339672D02*
X0297600Y0339672D01*
X0297600Y0338074D02*
X0296000Y0338074D01*
X0296000Y0336475D02*
X0297600Y0336475D01*
X0297885Y0334877D02*
X0295715Y0334877D01*
X0294618Y0333278D02*
X0298982Y0333278D01*
X0288982Y0333278D02*
X0284618Y0333278D01*
X0284179Y0332839D02*
X0285361Y0334021D01*
X0286000Y0335565D01*
X0286000Y0342435D01*
X0285361Y0343979D01*
X0284179Y0345161D01*
X0282635Y0345800D01*
X0280965Y0345800D01*
X0279421Y0345161D01*
X0278239Y0343979D01*
X0277600Y0342435D01*
X0277600Y0335565D01*
X0278239Y0334021D01*
X0279421Y0332839D01*
X0280965Y0332200D01*
X0282635Y0332200D01*
X0284179Y0332839D01*
X0285715Y0334877D02*
X0287885Y0334877D01*
X0287600Y0336475D02*
X0286000Y0336475D01*
X0286000Y0338074D02*
X0287600Y0338074D01*
X0287600Y0339672D02*
X0286000Y0339672D01*
X0286000Y0341271D02*
X0287600Y0341271D01*
X0287780Y0342870D02*
X0285820Y0342870D01*
X0284872Y0344468D02*
X0288728Y0344468D01*
X0278728Y0344468D02*
X0274872Y0344468D01*
X0275820Y0342870D02*
X0277780Y0342870D01*
X0277600Y0341271D02*
X0276000Y0341271D01*
X0276000Y0339672D02*
X0277600Y0339672D01*
X0277600Y0338074D02*
X0276000Y0338074D01*
X0276000Y0336475D02*
X0277600Y0336475D01*
X0277885Y0334877D02*
X0275715Y0334877D01*
X0274618Y0333278D02*
X0278982Y0333278D01*
X0239400Y0331680D02*
X0067874Y0331680D01*
X0069473Y0333278D02*
X0238982Y0333278D01*
X0237885Y0334877D02*
X0071071Y0334877D01*
X0072670Y0336475D02*
X0237600Y0336475D01*
X0239400Y0330081D02*
X0066276Y0330081D01*
X0064677Y0328483D02*
X0239400Y0328483D01*
X0239400Y0326884D02*
X0063078Y0326884D01*
X0061480Y0325286D02*
X0239400Y0325286D01*
X0239400Y0323687D02*
X0059881Y0323687D01*
X0058283Y0322089D02*
X0239400Y0322089D01*
X0239400Y0320490D02*
X0056684Y0320490D01*
X0055086Y0318892D02*
X0239400Y0318892D01*
X0239400Y0317293D02*
X0053487Y0317293D01*
X0051889Y0315695D02*
X0239400Y0315695D01*
X0239400Y0314096D02*
X0050290Y0314096D01*
X0048692Y0312498D02*
X0239400Y0312498D01*
X0239400Y0310899D02*
X0047093Y0310899D01*
X0039785Y0288520D02*
X0128926Y0288520D01*
X0127328Y0286922D02*
X0041384Y0286922D01*
X0041900Y0285323D02*
X0125729Y0285323D01*
X0124130Y0283725D02*
X0041900Y0283725D01*
X0041431Y0282126D02*
X0122532Y0282126D01*
X0120933Y0280528D02*
X0039833Y0280528D01*
X0039874Y0258148D02*
X0119400Y0258148D01*
X0119400Y0256550D02*
X0041473Y0256550D01*
X0041700Y0254951D02*
X0119400Y0254951D01*
X0119400Y0253353D02*
X0041700Y0253353D01*
X0040777Y0251754D02*
X0119400Y0251754D01*
X0119400Y0250156D02*
X0039178Y0250156D01*
X0039465Y0248557D02*
X0119400Y0248557D01*
X0119400Y0246959D02*
X0041064Y0246959D01*
X0041700Y0245360D02*
X0119400Y0245360D01*
X0119400Y0243762D02*
X0041700Y0243762D01*
X0041186Y0242163D02*
X0119400Y0242163D01*
X0119400Y0240565D02*
X0039587Y0240565D01*
X0124200Y0240565D02*
X0129400Y0240565D01*
X0129400Y0242163D02*
X0124200Y0242163D01*
X0124200Y0243762D02*
X0129400Y0243762D01*
X0129400Y0245360D02*
X0124200Y0245360D01*
X0124200Y0246959D02*
X0129400Y0246959D01*
X0129400Y0248557D02*
X0124200Y0248557D01*
X0124200Y0250156D02*
X0129400Y0250156D01*
X0129400Y0251754D02*
X0124200Y0251754D01*
X0124200Y0253353D02*
X0129400Y0253353D01*
X0129400Y0254951D02*
X0124200Y0254951D01*
X0124200Y0256550D02*
X0129400Y0256550D01*
X0129400Y0258148D02*
X0124200Y0258148D01*
X0124200Y0259747D02*
X0129400Y0259747D01*
X0129400Y0261345D02*
X0124200Y0261345D01*
X0124200Y0262944D02*
X0129400Y0262944D01*
X0129400Y0264542D02*
X0124200Y0264542D01*
X0124200Y0266141D02*
X0129400Y0266141D01*
X0129400Y0267739D02*
X0124200Y0267739D01*
X0131800Y0278000D02*
X0131800Y0180000D01*
X0144200Y0184617D02*
X0151789Y0184617D01*
X0150190Y0186215D02*
X0144200Y0186215D01*
X0144200Y0187814D02*
X0148592Y0187814D01*
X0146993Y0189412D02*
X0144200Y0189412D01*
X0144200Y0191011D02*
X0145395Y0191011D01*
X0144400Y0192609D02*
X0144200Y0192609D01*
X0144200Y0194208D02*
X0144400Y0194208D01*
X0144400Y0195806D02*
X0144200Y0195806D01*
X0144200Y0197405D02*
X0144400Y0197405D01*
X0144400Y0199003D02*
X0144200Y0199003D01*
X0144200Y0200602D02*
X0144400Y0200602D01*
X0144400Y0202201D02*
X0144200Y0202201D01*
X0144200Y0203799D02*
X0144400Y0203799D01*
X0144400Y0205398D02*
X0144200Y0205398D01*
X0144200Y0206996D02*
X0144400Y0206996D01*
X0144400Y0208595D02*
X0144200Y0208595D01*
X0144200Y0210193D02*
X0144400Y0210193D01*
X0144400Y0211792D02*
X0144200Y0211792D01*
X0144200Y0213390D02*
X0144400Y0213390D01*
X0144400Y0214989D02*
X0144200Y0214989D01*
X0144200Y0216587D02*
X0144400Y0216587D01*
X0144400Y0218186D02*
X0144200Y0218186D01*
X0144200Y0219784D02*
X0144400Y0219784D01*
X0144400Y0221383D02*
X0144200Y0221383D01*
X0144200Y0222981D02*
X0144400Y0222981D01*
X0144400Y0224580D02*
X0144200Y0224580D01*
X0144200Y0226178D02*
X0144400Y0226178D01*
X0144400Y0227777D02*
X0144200Y0227777D01*
X0144200Y0229375D02*
X0144400Y0229375D01*
X0144400Y0230974D02*
X0144200Y0230974D01*
X0144200Y0232572D02*
X0144400Y0232572D01*
X0144400Y0234171D02*
X0144200Y0234171D01*
X0144200Y0235769D02*
X0144400Y0235769D01*
X0144400Y0237368D02*
X0144200Y0237368D01*
X0144200Y0238966D02*
X0144400Y0238966D01*
X0144400Y0240565D02*
X0144200Y0240565D01*
X0144200Y0242163D02*
X0144400Y0242163D01*
X0144400Y0243762D02*
X0144200Y0243762D01*
X0144200Y0245360D02*
X0144400Y0245360D01*
X0144400Y0246959D02*
X0144200Y0246959D01*
X0144200Y0248557D02*
X0144400Y0248557D01*
X0144400Y0250156D02*
X0144200Y0250156D01*
X0144200Y0251754D02*
X0144400Y0251754D01*
X0144400Y0253353D02*
X0144200Y0253353D01*
X0144200Y0254951D02*
X0144400Y0254951D01*
X0144400Y0256550D02*
X0144200Y0256550D01*
X0144200Y0258148D02*
X0144400Y0258148D01*
X0144400Y0259747D02*
X0144200Y0259747D01*
X0144200Y0261345D02*
X0144400Y0261345D01*
X0144400Y0262944D02*
X0144200Y0262944D01*
X0144200Y0264542D02*
X0144400Y0264542D01*
X0144400Y0266141D02*
X0144200Y0266141D01*
X0144200Y0267739D02*
X0144400Y0267739D01*
X0144200Y0269338D02*
X0144756Y0269338D01*
X0144200Y0270937D02*
X0146342Y0270937D01*
X0147941Y0272535D02*
X0144200Y0272535D01*
X0144200Y0274134D02*
X0149539Y0274134D01*
X0151138Y0275732D02*
X0144200Y0275732D01*
X0146800Y0268000D02*
X0146800Y0193000D01*
X0166800Y0173000D01*
X0176800Y0173000D01*
X0169782Y0176624D02*
X0166570Y0176624D01*
X0164971Y0178223D02*
X0168183Y0178223D01*
X0166585Y0179821D02*
X0163373Y0179821D01*
X0161774Y0181420D02*
X0164986Y0181420D01*
X0163388Y0183018D02*
X0160176Y0183018D01*
X0158577Y0184617D02*
X0161789Y0184617D01*
X0160190Y0186215D02*
X0156979Y0186215D01*
X0155380Y0187814D02*
X0158592Y0187814D01*
X0156993Y0189412D02*
X0153782Y0189412D01*
X0152183Y0191011D02*
X0155395Y0191011D01*
X0154400Y0192609D02*
X0150585Y0192609D01*
X0149200Y0194208D02*
X0154400Y0194208D01*
X0154400Y0195806D02*
X0149200Y0195806D01*
X0149200Y0197405D02*
X0154400Y0197405D01*
X0154400Y0199003D02*
X0149200Y0199003D01*
X0149200Y0200602D02*
X0154400Y0200602D01*
X0154400Y0202201D02*
X0149200Y0202201D01*
X0149200Y0203799D02*
X0154400Y0203799D01*
X0154400Y0205398D02*
X0149200Y0205398D01*
X0149200Y0206996D02*
X0154400Y0206996D01*
X0154400Y0208595D02*
X0149200Y0208595D01*
X0149200Y0210193D02*
X0154400Y0210193D01*
X0154400Y0211792D02*
X0149200Y0211792D01*
X0149200Y0213390D02*
X0154400Y0213390D01*
X0154400Y0214989D02*
X0149200Y0214989D01*
X0149200Y0216587D02*
X0154400Y0216587D01*
X0154400Y0218186D02*
X0149200Y0218186D01*
X0149200Y0219784D02*
X0154400Y0219784D01*
X0154400Y0221383D02*
X0149200Y0221383D01*
X0149200Y0222981D02*
X0154400Y0222981D01*
X0154400Y0224580D02*
X0149200Y0224580D01*
X0149200Y0226178D02*
X0154400Y0226178D01*
X0154400Y0227777D02*
X0149200Y0227777D01*
X0149200Y0229375D02*
X0154400Y0229375D01*
X0154400Y0230974D02*
X0149200Y0230974D01*
X0149200Y0232572D02*
X0154400Y0232572D01*
X0154400Y0234171D02*
X0149200Y0234171D01*
X0149200Y0235769D02*
X0154400Y0235769D01*
X0154400Y0237368D02*
X0149200Y0237368D01*
X0149200Y0238966D02*
X0154400Y0238966D01*
X0154400Y0240565D02*
X0149200Y0240565D01*
X0149200Y0242163D02*
X0154400Y0242163D01*
X0154400Y0243762D02*
X0149200Y0243762D01*
X0149200Y0245360D02*
X0154400Y0245360D01*
X0154400Y0246959D02*
X0149200Y0246959D01*
X0149200Y0248557D02*
X0154433Y0248557D01*
X0155562Y0250156D02*
X0149200Y0250156D01*
X0149200Y0251754D02*
X0157160Y0251754D01*
X0158759Y0253353D02*
X0149200Y0253353D01*
X0149200Y0254951D02*
X0160357Y0254951D01*
X0167800Y0244000D02*
X0196800Y0244000D01*
X0209178Y0250156D02*
X0219400Y0250156D01*
X0219400Y0251754D02*
X0210777Y0251754D01*
X0211200Y0253353D02*
X0219400Y0253353D01*
X0219400Y0254951D02*
X0211200Y0254951D01*
X0210473Y0256550D02*
X0219400Y0256550D01*
X0219400Y0258148D02*
X0208874Y0258148D01*
X0208769Y0259747D02*
X0219400Y0259747D01*
X0219400Y0261345D02*
X0210368Y0261345D01*
X0211200Y0262944D02*
X0219400Y0262944D01*
X0219400Y0264542D02*
X0211200Y0264542D01*
X0210882Y0266141D02*
X0219400Y0266141D01*
X0219400Y0267739D02*
X0209283Y0267739D01*
X0196800Y0274000D02*
X0152800Y0274000D01*
X0146800Y0268000D01*
X0147800Y0284000D02*
X0196800Y0284000D01*
X0196800Y0294000D02*
X0147800Y0294000D01*
X0131800Y0278000D01*
X0129400Y0238966D02*
X0124200Y0238966D01*
X0124200Y0237368D02*
X0129400Y0237368D01*
X0129400Y0235769D02*
X0124200Y0235769D01*
X0124200Y0234171D02*
X0129400Y0234171D01*
X0129400Y0232572D02*
X0124200Y0232572D01*
X0124200Y0230974D02*
X0129400Y0230974D01*
X0129400Y0229375D02*
X0124200Y0229375D01*
X0124200Y0227777D02*
X0129400Y0227777D01*
X0129400Y0226178D02*
X0124200Y0226178D01*
X0124200Y0224580D02*
X0129400Y0224580D01*
X0129400Y0222981D02*
X0124200Y0222981D01*
X0124200Y0221383D02*
X0129400Y0221383D01*
X0129400Y0219784D02*
X0124200Y0219784D01*
X0124200Y0218186D02*
X0129400Y0218186D01*
X0129400Y0216587D02*
X0124200Y0216587D01*
X0124200Y0214989D02*
X0129400Y0214989D01*
X0129400Y0213390D02*
X0124200Y0213390D01*
X0124200Y0211792D02*
X0129400Y0211792D01*
X0129400Y0210193D02*
X0124200Y0210193D01*
X0124200Y0208595D02*
X0129400Y0208595D01*
X0129400Y0206996D02*
X0124200Y0206996D01*
X0124200Y0205398D02*
X0129400Y0205398D01*
X0129400Y0203799D02*
X0124200Y0203799D01*
X0124200Y0202201D02*
X0129400Y0202201D01*
X0145176Y0183018D02*
X0153388Y0183018D01*
X0154986Y0181420D02*
X0146774Y0181420D01*
X0148373Y0179821D02*
X0156585Y0179821D01*
X0158183Y0178223D02*
X0149971Y0178223D01*
X0151570Y0176624D02*
X0159782Y0176624D01*
X0161380Y0175026D02*
X0153168Y0175026D01*
X0170585Y0192609D02*
X0242337Y0192609D01*
X0241826Y0191011D02*
X0172183Y0191011D01*
X0168986Y0194208D02*
X0243818Y0194208D01*
X0241800Y0190500D02*
X0241800Y0190154D01*
X0241908Y0189470D01*
X0242122Y0188811D01*
X0242437Y0188194D01*
X0242844Y0187634D01*
X0243334Y0187144D01*
X0243894Y0186737D01*
X0244511Y0186422D01*
X0245170Y0186208D01*
X0245854Y0186100D01*
X0248800Y0186100D01*
X0248800Y0190500D01*
X0248800Y0190500D01*
X0248800Y0190500D01*
X0241800Y0190500D01*
X0241927Y0189412D02*
X0183782Y0189412D01*
X0185380Y0187814D02*
X0242713Y0187814D01*
X0245148Y0186215D02*
X0186979Y0186215D01*
X0188577Y0184617D02*
X0245164Y0184617D01*
X0242779Y0183018D02*
X0190176Y0183018D01*
X0191774Y0181420D02*
X0242035Y0181420D01*
X0242000Y0179821D02*
X0193373Y0179821D01*
X0194971Y0178223D02*
X0242597Y0178223D01*
X0244582Y0176624D02*
X0196570Y0176624D01*
X0248800Y0186215D02*
X0248800Y0186215D01*
X0248800Y0187814D02*
X0248800Y0187814D01*
X0248800Y0189412D02*
X0248800Y0189412D01*
X0248800Y0191011D02*
X0248800Y0191011D01*
X0248800Y0192609D02*
X0248800Y0192609D01*
X0248800Y0194208D02*
X0248800Y0194208D01*
X0254245Y0197405D02*
X0366400Y0197405D01*
X0366400Y0199003D02*
X0255326Y0199003D01*
X0255600Y0200602D02*
X0366400Y0200602D01*
X0366400Y0202201D02*
X0255242Y0202201D01*
X0254041Y0203799D02*
X0366400Y0203799D01*
X0366400Y0218186D02*
X0254987Y0218186D01*
X0255600Y0219784D02*
X0366400Y0219784D01*
X0366400Y0221383D02*
X0255580Y0221383D01*
X0254859Y0222981D02*
X0366400Y0222981D01*
X0239400Y0277331D02*
X0224200Y0277331D01*
X0224200Y0278929D02*
X0239400Y0278929D01*
X0239400Y0280528D02*
X0224200Y0280528D01*
X0224200Y0282126D02*
X0239400Y0282126D01*
X0239400Y0283725D02*
X0224200Y0283725D01*
X0224200Y0285323D02*
X0239400Y0285323D01*
X0239400Y0286922D02*
X0224200Y0286922D01*
X0224200Y0288520D02*
X0239400Y0288520D01*
X0239400Y0290119D02*
X0224200Y0290119D01*
X0224200Y0291717D02*
X0239400Y0291717D01*
X0239400Y0293316D02*
X0224200Y0293316D01*
X0224200Y0294914D02*
X0239400Y0294914D01*
X0219400Y0235769D02*
X0211200Y0235769D01*
X0211200Y0234171D02*
X0219400Y0234171D01*
X0219400Y0232572D02*
X0211200Y0232572D01*
X0209996Y0230974D02*
X0219400Y0230974D01*
X0136652Y0389226D02*
X0006670Y0389226D01*
X0011098Y0042349D02*
X0024148Y0042349D01*
X0024399Y0042550D02*
X0024399Y0042550D01*
X0022143Y0040751D02*
X0011118Y0040751D01*
X0011139Y0039152D02*
X0020296Y0039152D01*
X0019206Y0037554D02*
X0011159Y0037554D01*
X0011180Y0035955D02*
X0018116Y0035955D01*
X0017375Y0034357D02*
X0011200Y0034357D01*
X0011221Y0032758D02*
X0016882Y0032758D01*
X0016389Y0031160D02*
X0011241Y0031160D01*
X0011261Y0029561D02*
X0016186Y0029561D01*
X0016186Y0027963D02*
X0011282Y0027963D01*
X0011302Y0026364D02*
X0016186Y0026364D01*
X0016412Y0024766D02*
X0011323Y0024766D01*
X0011343Y0023167D02*
X0016905Y0023167D01*
X0017398Y0021569D02*
X0011363Y0021569D01*
X0011384Y0019970D02*
X0018167Y0019970D01*
X0017663Y0020710D02*
X0017663Y0020710D01*
X0019257Y0018372D02*
X0011404Y0018372D01*
X0011425Y0016773D02*
X0020347Y0016773D01*
X0020484Y0016572D02*
X0020484Y0016572D01*
X0020484Y0016572D01*
X0022236Y0015175D02*
X0011445Y0015175D01*
X0011465Y0013576D02*
X0024241Y0013576D01*
X0024399Y0013450D02*
X0024399Y0013450D01*
X0028150Y0011978D02*
X0011486Y0011978D01*
X0034056Y0011246D02*
X0034056Y0011246D01*
X0357084Y0016772D02*
X0357084Y0016772D01*
M02*
