%
M48
M72
T01C0.03200
T02C0.03600
T03C0.04000
T04C0.11811
%
T01
X101800Y144300
X102300Y163300
X79800Y164800
X80300Y147300
X40300Y147300
X39800Y164800
X142300Y163300
X141800Y144300
X165800Y143300
X167800Y162800
X205800Y143300
X207800Y162800
X243800Y159300
X243800Y169300
X243800Y179300
X243800Y189300
X243800Y199300
X243800Y209300
X243800Y219300
X243800Y229300
X243800Y239300
X243800Y249300
X246800Y337800
X236800Y337800
X256800Y337800
X266800Y337800
X276800Y337800
X286800Y337800
X296800Y337800
X306800Y337800
X316800Y337800
X326800Y337800
X336800Y337800
X346800Y337800
X196800Y15300
X186800Y15300
X176800Y15300
X166800Y15300
X156800Y15300
T02
X191800Y202800
X201800Y202800
X201800Y212800
X201800Y222800
X191800Y222800
X191800Y212800
X191800Y232800
X191800Y242800
X201800Y242800
X201800Y232800
X201800Y252800
X201800Y262800
X191800Y262800
X191800Y252800
X191800Y272800
X191800Y282800
X201800Y282800
X201800Y272800
X201800Y292800
X191800Y292800
X32300Y293300
X32300Y283300
X32300Y273300
X32300Y263300
X32300Y253300
X32300Y243300
X32300Y233300
X32300Y223300
X32300Y213300
X32300Y203300
X22300Y203300
X22300Y213300
X22300Y223300
X22300Y233300
X22300Y243300
X22300Y253300
X22300Y263300
X22300Y273300
X22300Y283300
X22300Y293300
T03
X76800Y114300
X86800Y114300
X96800Y114300
X106800Y114300
X106800Y73800
X96800Y73800
X86800Y73800
X76800Y73800
X238800Y72800
X248800Y72800
X258800Y72800
X268800Y72800
X268800Y114300
X258800Y114300
X248800Y114300
X238800Y114300
X333800Y280800
X343800Y280800
X353800Y280800
X363800Y280800
T04
X27800Y26800
X356275Y27625
X27850Y356825
M30
