G75*
%MOIN*%
%OFA0B0*%
%FSLAX25Y25*%
%IPPOS*%
%LPD*%
%AMOC8*
5,1,8,0,0,1.08239X$1,22.5*
%
%ADD10C,0.00000*%
D10*
X0006800Y0003000D02*
X0001800Y0394701D01*
X0401721Y0392701D01*
X0401721Y0001000D01*
X0006800Y0003000D01*
X0026894Y0028000D02*
X0026896Y0028153D01*
X0026902Y0028307D01*
X0026912Y0028460D01*
X0026926Y0028612D01*
X0026944Y0028765D01*
X0026966Y0028916D01*
X0026991Y0029067D01*
X0027021Y0029218D01*
X0027055Y0029368D01*
X0027092Y0029516D01*
X0027133Y0029664D01*
X0027178Y0029810D01*
X0027227Y0029956D01*
X0027280Y0030100D01*
X0027336Y0030242D01*
X0027396Y0030383D01*
X0027460Y0030523D01*
X0027527Y0030661D01*
X0027598Y0030797D01*
X0027673Y0030931D01*
X0027750Y0031063D01*
X0027832Y0031193D01*
X0027916Y0031321D01*
X0028004Y0031447D01*
X0028095Y0031570D01*
X0028189Y0031691D01*
X0028287Y0031809D01*
X0028387Y0031925D01*
X0028491Y0032038D01*
X0028597Y0032149D01*
X0028706Y0032257D01*
X0028818Y0032362D01*
X0028932Y0032463D01*
X0029050Y0032562D01*
X0029169Y0032658D01*
X0029291Y0032751D01*
X0029416Y0032840D01*
X0029543Y0032927D01*
X0029672Y0033009D01*
X0029803Y0033089D01*
X0029936Y0033165D01*
X0030071Y0033238D01*
X0030208Y0033307D01*
X0030347Y0033372D01*
X0030487Y0033434D01*
X0030629Y0033492D01*
X0030772Y0033547D01*
X0030917Y0033598D01*
X0031063Y0033645D01*
X0031210Y0033688D01*
X0031358Y0033727D01*
X0031507Y0033763D01*
X0031657Y0033794D01*
X0031808Y0033822D01*
X0031959Y0033846D01*
X0032112Y0033866D01*
X0032264Y0033882D01*
X0032417Y0033894D01*
X0032570Y0033902D01*
X0032723Y0033906D01*
X0032877Y0033906D01*
X0033030Y0033902D01*
X0033183Y0033894D01*
X0033336Y0033882D01*
X0033488Y0033866D01*
X0033641Y0033846D01*
X0033792Y0033822D01*
X0033943Y0033794D01*
X0034093Y0033763D01*
X0034242Y0033727D01*
X0034390Y0033688D01*
X0034537Y0033645D01*
X0034683Y0033598D01*
X0034828Y0033547D01*
X0034971Y0033492D01*
X0035113Y0033434D01*
X0035253Y0033372D01*
X0035392Y0033307D01*
X0035529Y0033238D01*
X0035664Y0033165D01*
X0035797Y0033089D01*
X0035928Y0033009D01*
X0036057Y0032927D01*
X0036184Y0032840D01*
X0036309Y0032751D01*
X0036431Y0032658D01*
X0036550Y0032562D01*
X0036668Y0032463D01*
X0036782Y0032362D01*
X0036894Y0032257D01*
X0037003Y0032149D01*
X0037109Y0032038D01*
X0037213Y0031925D01*
X0037313Y0031809D01*
X0037411Y0031691D01*
X0037505Y0031570D01*
X0037596Y0031447D01*
X0037684Y0031321D01*
X0037768Y0031193D01*
X0037850Y0031063D01*
X0037927Y0030931D01*
X0038002Y0030797D01*
X0038073Y0030661D01*
X0038140Y0030523D01*
X0038204Y0030383D01*
X0038264Y0030242D01*
X0038320Y0030100D01*
X0038373Y0029956D01*
X0038422Y0029810D01*
X0038467Y0029664D01*
X0038508Y0029516D01*
X0038545Y0029368D01*
X0038579Y0029218D01*
X0038609Y0029067D01*
X0038634Y0028916D01*
X0038656Y0028765D01*
X0038674Y0028612D01*
X0038688Y0028460D01*
X0038698Y0028307D01*
X0038704Y0028153D01*
X0038706Y0028000D01*
X0038704Y0027847D01*
X0038698Y0027693D01*
X0038688Y0027540D01*
X0038674Y0027388D01*
X0038656Y0027235D01*
X0038634Y0027084D01*
X0038609Y0026933D01*
X0038579Y0026782D01*
X0038545Y0026632D01*
X0038508Y0026484D01*
X0038467Y0026336D01*
X0038422Y0026190D01*
X0038373Y0026044D01*
X0038320Y0025900D01*
X0038264Y0025758D01*
X0038204Y0025617D01*
X0038140Y0025477D01*
X0038073Y0025339D01*
X0038002Y0025203D01*
X0037927Y0025069D01*
X0037850Y0024937D01*
X0037768Y0024807D01*
X0037684Y0024679D01*
X0037596Y0024553D01*
X0037505Y0024430D01*
X0037411Y0024309D01*
X0037313Y0024191D01*
X0037213Y0024075D01*
X0037109Y0023962D01*
X0037003Y0023851D01*
X0036894Y0023743D01*
X0036782Y0023638D01*
X0036668Y0023537D01*
X0036550Y0023438D01*
X0036431Y0023342D01*
X0036309Y0023249D01*
X0036184Y0023160D01*
X0036057Y0023073D01*
X0035928Y0022991D01*
X0035797Y0022911D01*
X0035664Y0022835D01*
X0035529Y0022762D01*
X0035392Y0022693D01*
X0035253Y0022628D01*
X0035113Y0022566D01*
X0034971Y0022508D01*
X0034828Y0022453D01*
X0034683Y0022402D01*
X0034537Y0022355D01*
X0034390Y0022312D01*
X0034242Y0022273D01*
X0034093Y0022237D01*
X0033943Y0022206D01*
X0033792Y0022178D01*
X0033641Y0022154D01*
X0033488Y0022134D01*
X0033336Y0022118D01*
X0033183Y0022106D01*
X0033030Y0022098D01*
X0032877Y0022094D01*
X0032723Y0022094D01*
X0032570Y0022098D01*
X0032417Y0022106D01*
X0032264Y0022118D01*
X0032112Y0022134D01*
X0031959Y0022154D01*
X0031808Y0022178D01*
X0031657Y0022206D01*
X0031507Y0022237D01*
X0031358Y0022273D01*
X0031210Y0022312D01*
X0031063Y0022355D01*
X0030917Y0022402D01*
X0030772Y0022453D01*
X0030629Y0022508D01*
X0030487Y0022566D01*
X0030347Y0022628D01*
X0030208Y0022693D01*
X0030071Y0022762D01*
X0029936Y0022835D01*
X0029803Y0022911D01*
X0029672Y0022991D01*
X0029543Y0023073D01*
X0029416Y0023160D01*
X0029291Y0023249D01*
X0029169Y0023342D01*
X0029050Y0023438D01*
X0028932Y0023537D01*
X0028818Y0023638D01*
X0028706Y0023743D01*
X0028597Y0023851D01*
X0028491Y0023962D01*
X0028387Y0024075D01*
X0028287Y0024191D01*
X0028189Y0024309D01*
X0028095Y0024430D01*
X0028004Y0024553D01*
X0027916Y0024679D01*
X0027832Y0024807D01*
X0027750Y0024937D01*
X0027673Y0025069D01*
X0027598Y0025203D01*
X0027527Y0025339D01*
X0027460Y0025477D01*
X0027396Y0025617D01*
X0027336Y0025758D01*
X0027280Y0025900D01*
X0027227Y0026044D01*
X0027178Y0026190D01*
X0027133Y0026336D01*
X0027092Y0026484D01*
X0027055Y0026632D01*
X0027021Y0026782D01*
X0026991Y0026933D01*
X0026966Y0027084D01*
X0026944Y0027235D01*
X0026926Y0027388D01*
X0026912Y0027540D01*
X0026902Y0027693D01*
X0026896Y0027847D01*
X0026894Y0028000D01*
X0025694Y0362400D02*
X0025696Y0362553D01*
X0025702Y0362707D01*
X0025712Y0362860D01*
X0025726Y0363012D01*
X0025744Y0363165D01*
X0025766Y0363316D01*
X0025791Y0363467D01*
X0025821Y0363618D01*
X0025855Y0363768D01*
X0025892Y0363916D01*
X0025933Y0364064D01*
X0025978Y0364210D01*
X0026027Y0364356D01*
X0026080Y0364500D01*
X0026136Y0364642D01*
X0026196Y0364783D01*
X0026260Y0364923D01*
X0026327Y0365061D01*
X0026398Y0365197D01*
X0026473Y0365331D01*
X0026550Y0365463D01*
X0026632Y0365593D01*
X0026716Y0365721D01*
X0026804Y0365847D01*
X0026895Y0365970D01*
X0026989Y0366091D01*
X0027087Y0366209D01*
X0027187Y0366325D01*
X0027291Y0366438D01*
X0027397Y0366549D01*
X0027506Y0366657D01*
X0027618Y0366762D01*
X0027732Y0366863D01*
X0027850Y0366962D01*
X0027969Y0367058D01*
X0028091Y0367151D01*
X0028216Y0367240D01*
X0028343Y0367327D01*
X0028472Y0367409D01*
X0028603Y0367489D01*
X0028736Y0367565D01*
X0028871Y0367638D01*
X0029008Y0367707D01*
X0029147Y0367772D01*
X0029287Y0367834D01*
X0029429Y0367892D01*
X0029572Y0367947D01*
X0029717Y0367998D01*
X0029863Y0368045D01*
X0030010Y0368088D01*
X0030158Y0368127D01*
X0030307Y0368163D01*
X0030457Y0368194D01*
X0030608Y0368222D01*
X0030759Y0368246D01*
X0030912Y0368266D01*
X0031064Y0368282D01*
X0031217Y0368294D01*
X0031370Y0368302D01*
X0031523Y0368306D01*
X0031677Y0368306D01*
X0031830Y0368302D01*
X0031983Y0368294D01*
X0032136Y0368282D01*
X0032288Y0368266D01*
X0032441Y0368246D01*
X0032592Y0368222D01*
X0032743Y0368194D01*
X0032893Y0368163D01*
X0033042Y0368127D01*
X0033190Y0368088D01*
X0033337Y0368045D01*
X0033483Y0367998D01*
X0033628Y0367947D01*
X0033771Y0367892D01*
X0033913Y0367834D01*
X0034053Y0367772D01*
X0034192Y0367707D01*
X0034329Y0367638D01*
X0034464Y0367565D01*
X0034597Y0367489D01*
X0034728Y0367409D01*
X0034857Y0367327D01*
X0034984Y0367240D01*
X0035109Y0367151D01*
X0035231Y0367058D01*
X0035350Y0366962D01*
X0035468Y0366863D01*
X0035582Y0366762D01*
X0035694Y0366657D01*
X0035803Y0366549D01*
X0035909Y0366438D01*
X0036013Y0366325D01*
X0036113Y0366209D01*
X0036211Y0366091D01*
X0036305Y0365970D01*
X0036396Y0365847D01*
X0036484Y0365721D01*
X0036568Y0365593D01*
X0036650Y0365463D01*
X0036727Y0365331D01*
X0036802Y0365197D01*
X0036873Y0365061D01*
X0036940Y0364923D01*
X0037004Y0364783D01*
X0037064Y0364642D01*
X0037120Y0364500D01*
X0037173Y0364356D01*
X0037222Y0364210D01*
X0037267Y0364064D01*
X0037308Y0363916D01*
X0037345Y0363768D01*
X0037379Y0363618D01*
X0037409Y0363467D01*
X0037434Y0363316D01*
X0037456Y0363165D01*
X0037474Y0363012D01*
X0037488Y0362860D01*
X0037498Y0362707D01*
X0037504Y0362553D01*
X0037506Y0362400D01*
X0037504Y0362247D01*
X0037498Y0362093D01*
X0037488Y0361940D01*
X0037474Y0361788D01*
X0037456Y0361635D01*
X0037434Y0361484D01*
X0037409Y0361333D01*
X0037379Y0361182D01*
X0037345Y0361032D01*
X0037308Y0360884D01*
X0037267Y0360736D01*
X0037222Y0360590D01*
X0037173Y0360444D01*
X0037120Y0360300D01*
X0037064Y0360158D01*
X0037004Y0360017D01*
X0036940Y0359877D01*
X0036873Y0359739D01*
X0036802Y0359603D01*
X0036727Y0359469D01*
X0036650Y0359337D01*
X0036568Y0359207D01*
X0036484Y0359079D01*
X0036396Y0358953D01*
X0036305Y0358830D01*
X0036211Y0358709D01*
X0036113Y0358591D01*
X0036013Y0358475D01*
X0035909Y0358362D01*
X0035803Y0358251D01*
X0035694Y0358143D01*
X0035582Y0358038D01*
X0035468Y0357937D01*
X0035350Y0357838D01*
X0035231Y0357742D01*
X0035109Y0357649D01*
X0034984Y0357560D01*
X0034857Y0357473D01*
X0034728Y0357391D01*
X0034597Y0357311D01*
X0034464Y0357235D01*
X0034329Y0357162D01*
X0034192Y0357093D01*
X0034053Y0357028D01*
X0033913Y0356966D01*
X0033771Y0356908D01*
X0033628Y0356853D01*
X0033483Y0356802D01*
X0033337Y0356755D01*
X0033190Y0356712D01*
X0033042Y0356673D01*
X0032893Y0356637D01*
X0032743Y0356606D01*
X0032592Y0356578D01*
X0032441Y0356554D01*
X0032288Y0356534D01*
X0032136Y0356518D01*
X0031983Y0356506D01*
X0031830Y0356498D01*
X0031677Y0356494D01*
X0031523Y0356494D01*
X0031370Y0356498D01*
X0031217Y0356506D01*
X0031064Y0356518D01*
X0030912Y0356534D01*
X0030759Y0356554D01*
X0030608Y0356578D01*
X0030457Y0356606D01*
X0030307Y0356637D01*
X0030158Y0356673D01*
X0030010Y0356712D01*
X0029863Y0356755D01*
X0029717Y0356802D01*
X0029572Y0356853D01*
X0029429Y0356908D01*
X0029287Y0356966D01*
X0029147Y0357028D01*
X0029008Y0357093D01*
X0028871Y0357162D01*
X0028736Y0357235D01*
X0028603Y0357311D01*
X0028472Y0357391D01*
X0028343Y0357473D01*
X0028216Y0357560D01*
X0028091Y0357649D01*
X0027969Y0357742D01*
X0027850Y0357838D01*
X0027732Y0357937D01*
X0027618Y0358038D01*
X0027506Y0358143D01*
X0027397Y0358251D01*
X0027291Y0358362D01*
X0027187Y0358475D01*
X0027087Y0358591D01*
X0026989Y0358709D01*
X0026895Y0358830D01*
X0026804Y0358953D01*
X0026716Y0359079D01*
X0026632Y0359207D01*
X0026550Y0359337D01*
X0026473Y0359469D01*
X0026398Y0359603D01*
X0026327Y0359739D01*
X0026260Y0359877D01*
X0026196Y0360017D01*
X0026136Y0360158D01*
X0026080Y0360300D01*
X0026027Y0360444D01*
X0025978Y0360590D01*
X0025933Y0360736D01*
X0025892Y0360884D01*
X0025855Y0361032D01*
X0025821Y0361182D01*
X0025791Y0361333D01*
X0025766Y0361484D01*
X0025744Y0361635D01*
X0025726Y0361788D01*
X0025712Y0361940D01*
X0025702Y0362093D01*
X0025696Y0362247D01*
X0025694Y0362400D01*
X0363494Y0028200D02*
X0363496Y0028353D01*
X0363502Y0028507D01*
X0363512Y0028660D01*
X0363526Y0028812D01*
X0363544Y0028965D01*
X0363566Y0029116D01*
X0363591Y0029267D01*
X0363621Y0029418D01*
X0363655Y0029568D01*
X0363692Y0029716D01*
X0363733Y0029864D01*
X0363778Y0030010D01*
X0363827Y0030156D01*
X0363880Y0030300D01*
X0363936Y0030442D01*
X0363996Y0030583D01*
X0364060Y0030723D01*
X0364127Y0030861D01*
X0364198Y0030997D01*
X0364273Y0031131D01*
X0364350Y0031263D01*
X0364432Y0031393D01*
X0364516Y0031521D01*
X0364604Y0031647D01*
X0364695Y0031770D01*
X0364789Y0031891D01*
X0364887Y0032009D01*
X0364987Y0032125D01*
X0365091Y0032238D01*
X0365197Y0032349D01*
X0365306Y0032457D01*
X0365418Y0032562D01*
X0365532Y0032663D01*
X0365650Y0032762D01*
X0365769Y0032858D01*
X0365891Y0032951D01*
X0366016Y0033040D01*
X0366143Y0033127D01*
X0366272Y0033209D01*
X0366403Y0033289D01*
X0366536Y0033365D01*
X0366671Y0033438D01*
X0366808Y0033507D01*
X0366947Y0033572D01*
X0367087Y0033634D01*
X0367229Y0033692D01*
X0367372Y0033747D01*
X0367517Y0033798D01*
X0367663Y0033845D01*
X0367810Y0033888D01*
X0367958Y0033927D01*
X0368107Y0033963D01*
X0368257Y0033994D01*
X0368408Y0034022D01*
X0368559Y0034046D01*
X0368712Y0034066D01*
X0368864Y0034082D01*
X0369017Y0034094D01*
X0369170Y0034102D01*
X0369323Y0034106D01*
X0369477Y0034106D01*
X0369630Y0034102D01*
X0369783Y0034094D01*
X0369936Y0034082D01*
X0370088Y0034066D01*
X0370241Y0034046D01*
X0370392Y0034022D01*
X0370543Y0033994D01*
X0370693Y0033963D01*
X0370842Y0033927D01*
X0370990Y0033888D01*
X0371137Y0033845D01*
X0371283Y0033798D01*
X0371428Y0033747D01*
X0371571Y0033692D01*
X0371713Y0033634D01*
X0371853Y0033572D01*
X0371992Y0033507D01*
X0372129Y0033438D01*
X0372264Y0033365D01*
X0372397Y0033289D01*
X0372528Y0033209D01*
X0372657Y0033127D01*
X0372784Y0033040D01*
X0372909Y0032951D01*
X0373031Y0032858D01*
X0373150Y0032762D01*
X0373268Y0032663D01*
X0373382Y0032562D01*
X0373494Y0032457D01*
X0373603Y0032349D01*
X0373709Y0032238D01*
X0373813Y0032125D01*
X0373913Y0032009D01*
X0374011Y0031891D01*
X0374105Y0031770D01*
X0374196Y0031647D01*
X0374284Y0031521D01*
X0374368Y0031393D01*
X0374450Y0031263D01*
X0374527Y0031131D01*
X0374602Y0030997D01*
X0374673Y0030861D01*
X0374740Y0030723D01*
X0374804Y0030583D01*
X0374864Y0030442D01*
X0374920Y0030300D01*
X0374973Y0030156D01*
X0375022Y0030010D01*
X0375067Y0029864D01*
X0375108Y0029716D01*
X0375145Y0029568D01*
X0375179Y0029418D01*
X0375209Y0029267D01*
X0375234Y0029116D01*
X0375256Y0028965D01*
X0375274Y0028812D01*
X0375288Y0028660D01*
X0375298Y0028507D01*
X0375304Y0028353D01*
X0375306Y0028200D01*
X0375304Y0028047D01*
X0375298Y0027893D01*
X0375288Y0027740D01*
X0375274Y0027588D01*
X0375256Y0027435D01*
X0375234Y0027284D01*
X0375209Y0027133D01*
X0375179Y0026982D01*
X0375145Y0026832D01*
X0375108Y0026684D01*
X0375067Y0026536D01*
X0375022Y0026390D01*
X0374973Y0026244D01*
X0374920Y0026100D01*
X0374864Y0025958D01*
X0374804Y0025817D01*
X0374740Y0025677D01*
X0374673Y0025539D01*
X0374602Y0025403D01*
X0374527Y0025269D01*
X0374450Y0025137D01*
X0374368Y0025007D01*
X0374284Y0024879D01*
X0374196Y0024753D01*
X0374105Y0024630D01*
X0374011Y0024509D01*
X0373913Y0024391D01*
X0373813Y0024275D01*
X0373709Y0024162D01*
X0373603Y0024051D01*
X0373494Y0023943D01*
X0373382Y0023838D01*
X0373268Y0023737D01*
X0373150Y0023638D01*
X0373031Y0023542D01*
X0372909Y0023449D01*
X0372784Y0023360D01*
X0372657Y0023273D01*
X0372528Y0023191D01*
X0372397Y0023111D01*
X0372264Y0023035D01*
X0372129Y0022962D01*
X0371992Y0022893D01*
X0371853Y0022828D01*
X0371713Y0022766D01*
X0371571Y0022708D01*
X0371428Y0022653D01*
X0371283Y0022602D01*
X0371137Y0022555D01*
X0370990Y0022512D01*
X0370842Y0022473D01*
X0370693Y0022437D01*
X0370543Y0022406D01*
X0370392Y0022378D01*
X0370241Y0022354D01*
X0370088Y0022334D01*
X0369936Y0022318D01*
X0369783Y0022306D01*
X0369630Y0022298D01*
X0369477Y0022294D01*
X0369323Y0022294D01*
X0369170Y0022298D01*
X0369017Y0022306D01*
X0368864Y0022318D01*
X0368712Y0022334D01*
X0368559Y0022354D01*
X0368408Y0022378D01*
X0368257Y0022406D01*
X0368107Y0022437D01*
X0367958Y0022473D01*
X0367810Y0022512D01*
X0367663Y0022555D01*
X0367517Y0022602D01*
X0367372Y0022653D01*
X0367229Y0022708D01*
X0367087Y0022766D01*
X0366947Y0022828D01*
X0366808Y0022893D01*
X0366671Y0022962D01*
X0366536Y0023035D01*
X0366403Y0023111D01*
X0366272Y0023191D01*
X0366143Y0023273D01*
X0366016Y0023360D01*
X0365891Y0023449D01*
X0365769Y0023542D01*
X0365650Y0023638D01*
X0365532Y0023737D01*
X0365418Y0023838D01*
X0365306Y0023943D01*
X0365197Y0024051D01*
X0365091Y0024162D01*
X0364987Y0024275D01*
X0364887Y0024391D01*
X0364789Y0024509D01*
X0364695Y0024630D01*
X0364604Y0024753D01*
X0364516Y0024879D01*
X0364432Y0025007D01*
X0364350Y0025137D01*
X0364273Y0025269D01*
X0364198Y0025403D01*
X0364127Y0025539D01*
X0364060Y0025677D01*
X0363996Y0025817D01*
X0363936Y0025958D01*
X0363880Y0026100D01*
X0363827Y0026244D01*
X0363778Y0026390D01*
X0363733Y0026536D01*
X0363692Y0026684D01*
X0363655Y0026832D01*
X0363621Y0026982D01*
X0363591Y0027133D01*
X0363566Y0027284D01*
X0363544Y0027435D01*
X0363526Y0027588D01*
X0363512Y0027740D01*
X0363502Y0027893D01*
X0363496Y0028047D01*
X0363494Y0028200D01*
M02*
