G75*
%MOIN*%
%OFA0B0*%
%FSLAX25Y25*%
%IPPOS*%
%LPD*%
%AMOC8*
5,1,8,0,0,1.08239X$1,22.5*
%
%ADD10C,0.00000*%
%ADD11OC8,0.05200*%
%ADD12C,0.06000*%
%ADD13C,0.05200*%
%ADD14OC8,0.05600*%
%ADD15C,0.01600*%
D10*
X0001800Y0001800D02*
X0386800Y0001800D01*
X0386800Y0391800D01*
X0001800Y0391800D01*
X0001800Y0001800D01*
X0021894Y0026800D02*
X0021896Y0026953D01*
X0021902Y0027107D01*
X0021912Y0027260D01*
X0021926Y0027412D01*
X0021944Y0027565D01*
X0021966Y0027716D01*
X0021991Y0027867D01*
X0022021Y0028018D01*
X0022055Y0028168D01*
X0022092Y0028316D01*
X0022133Y0028464D01*
X0022178Y0028610D01*
X0022227Y0028756D01*
X0022280Y0028900D01*
X0022336Y0029042D01*
X0022396Y0029183D01*
X0022460Y0029323D01*
X0022527Y0029461D01*
X0022598Y0029597D01*
X0022673Y0029731D01*
X0022750Y0029863D01*
X0022832Y0029993D01*
X0022916Y0030121D01*
X0023004Y0030247D01*
X0023095Y0030370D01*
X0023189Y0030491D01*
X0023287Y0030609D01*
X0023387Y0030725D01*
X0023491Y0030838D01*
X0023597Y0030949D01*
X0023706Y0031057D01*
X0023818Y0031162D01*
X0023932Y0031263D01*
X0024050Y0031362D01*
X0024169Y0031458D01*
X0024291Y0031551D01*
X0024416Y0031640D01*
X0024543Y0031727D01*
X0024672Y0031809D01*
X0024803Y0031889D01*
X0024936Y0031965D01*
X0025071Y0032038D01*
X0025208Y0032107D01*
X0025347Y0032172D01*
X0025487Y0032234D01*
X0025629Y0032292D01*
X0025772Y0032347D01*
X0025917Y0032398D01*
X0026063Y0032445D01*
X0026210Y0032488D01*
X0026358Y0032527D01*
X0026507Y0032563D01*
X0026657Y0032594D01*
X0026808Y0032622D01*
X0026959Y0032646D01*
X0027112Y0032666D01*
X0027264Y0032682D01*
X0027417Y0032694D01*
X0027570Y0032702D01*
X0027723Y0032706D01*
X0027877Y0032706D01*
X0028030Y0032702D01*
X0028183Y0032694D01*
X0028336Y0032682D01*
X0028488Y0032666D01*
X0028641Y0032646D01*
X0028792Y0032622D01*
X0028943Y0032594D01*
X0029093Y0032563D01*
X0029242Y0032527D01*
X0029390Y0032488D01*
X0029537Y0032445D01*
X0029683Y0032398D01*
X0029828Y0032347D01*
X0029971Y0032292D01*
X0030113Y0032234D01*
X0030253Y0032172D01*
X0030392Y0032107D01*
X0030529Y0032038D01*
X0030664Y0031965D01*
X0030797Y0031889D01*
X0030928Y0031809D01*
X0031057Y0031727D01*
X0031184Y0031640D01*
X0031309Y0031551D01*
X0031431Y0031458D01*
X0031550Y0031362D01*
X0031668Y0031263D01*
X0031782Y0031162D01*
X0031894Y0031057D01*
X0032003Y0030949D01*
X0032109Y0030838D01*
X0032213Y0030725D01*
X0032313Y0030609D01*
X0032411Y0030491D01*
X0032505Y0030370D01*
X0032596Y0030247D01*
X0032684Y0030121D01*
X0032768Y0029993D01*
X0032850Y0029863D01*
X0032927Y0029731D01*
X0033002Y0029597D01*
X0033073Y0029461D01*
X0033140Y0029323D01*
X0033204Y0029183D01*
X0033264Y0029042D01*
X0033320Y0028900D01*
X0033373Y0028756D01*
X0033422Y0028610D01*
X0033467Y0028464D01*
X0033508Y0028316D01*
X0033545Y0028168D01*
X0033579Y0028018D01*
X0033609Y0027867D01*
X0033634Y0027716D01*
X0033656Y0027565D01*
X0033674Y0027412D01*
X0033688Y0027260D01*
X0033698Y0027107D01*
X0033704Y0026953D01*
X0033706Y0026800D01*
X0033704Y0026647D01*
X0033698Y0026493D01*
X0033688Y0026340D01*
X0033674Y0026188D01*
X0033656Y0026035D01*
X0033634Y0025884D01*
X0033609Y0025733D01*
X0033579Y0025582D01*
X0033545Y0025432D01*
X0033508Y0025284D01*
X0033467Y0025136D01*
X0033422Y0024990D01*
X0033373Y0024844D01*
X0033320Y0024700D01*
X0033264Y0024558D01*
X0033204Y0024417D01*
X0033140Y0024277D01*
X0033073Y0024139D01*
X0033002Y0024003D01*
X0032927Y0023869D01*
X0032850Y0023737D01*
X0032768Y0023607D01*
X0032684Y0023479D01*
X0032596Y0023353D01*
X0032505Y0023230D01*
X0032411Y0023109D01*
X0032313Y0022991D01*
X0032213Y0022875D01*
X0032109Y0022762D01*
X0032003Y0022651D01*
X0031894Y0022543D01*
X0031782Y0022438D01*
X0031668Y0022337D01*
X0031550Y0022238D01*
X0031431Y0022142D01*
X0031309Y0022049D01*
X0031184Y0021960D01*
X0031057Y0021873D01*
X0030928Y0021791D01*
X0030797Y0021711D01*
X0030664Y0021635D01*
X0030529Y0021562D01*
X0030392Y0021493D01*
X0030253Y0021428D01*
X0030113Y0021366D01*
X0029971Y0021308D01*
X0029828Y0021253D01*
X0029683Y0021202D01*
X0029537Y0021155D01*
X0029390Y0021112D01*
X0029242Y0021073D01*
X0029093Y0021037D01*
X0028943Y0021006D01*
X0028792Y0020978D01*
X0028641Y0020954D01*
X0028488Y0020934D01*
X0028336Y0020918D01*
X0028183Y0020906D01*
X0028030Y0020898D01*
X0027877Y0020894D01*
X0027723Y0020894D01*
X0027570Y0020898D01*
X0027417Y0020906D01*
X0027264Y0020918D01*
X0027112Y0020934D01*
X0026959Y0020954D01*
X0026808Y0020978D01*
X0026657Y0021006D01*
X0026507Y0021037D01*
X0026358Y0021073D01*
X0026210Y0021112D01*
X0026063Y0021155D01*
X0025917Y0021202D01*
X0025772Y0021253D01*
X0025629Y0021308D01*
X0025487Y0021366D01*
X0025347Y0021428D01*
X0025208Y0021493D01*
X0025071Y0021562D01*
X0024936Y0021635D01*
X0024803Y0021711D01*
X0024672Y0021791D01*
X0024543Y0021873D01*
X0024416Y0021960D01*
X0024291Y0022049D01*
X0024169Y0022142D01*
X0024050Y0022238D01*
X0023932Y0022337D01*
X0023818Y0022438D01*
X0023706Y0022543D01*
X0023597Y0022651D01*
X0023491Y0022762D01*
X0023387Y0022875D01*
X0023287Y0022991D01*
X0023189Y0023109D01*
X0023095Y0023230D01*
X0023004Y0023353D01*
X0022916Y0023479D01*
X0022832Y0023607D01*
X0022750Y0023737D01*
X0022673Y0023869D01*
X0022598Y0024003D01*
X0022527Y0024139D01*
X0022460Y0024277D01*
X0022396Y0024417D01*
X0022336Y0024558D01*
X0022280Y0024700D01*
X0022227Y0024844D01*
X0022178Y0024990D01*
X0022133Y0025136D01*
X0022092Y0025284D01*
X0022055Y0025432D01*
X0022021Y0025582D01*
X0021991Y0025733D01*
X0021966Y0025884D01*
X0021944Y0026035D01*
X0021926Y0026188D01*
X0021912Y0026340D01*
X0021902Y0026493D01*
X0021896Y0026647D01*
X0021894Y0026800D01*
X0021944Y0356825D02*
X0021946Y0356978D01*
X0021952Y0357132D01*
X0021962Y0357285D01*
X0021976Y0357437D01*
X0021994Y0357590D01*
X0022016Y0357741D01*
X0022041Y0357892D01*
X0022071Y0358043D01*
X0022105Y0358193D01*
X0022142Y0358341D01*
X0022183Y0358489D01*
X0022228Y0358635D01*
X0022277Y0358781D01*
X0022330Y0358925D01*
X0022386Y0359067D01*
X0022446Y0359208D01*
X0022510Y0359348D01*
X0022577Y0359486D01*
X0022648Y0359622D01*
X0022723Y0359756D01*
X0022800Y0359888D01*
X0022882Y0360018D01*
X0022966Y0360146D01*
X0023054Y0360272D01*
X0023145Y0360395D01*
X0023239Y0360516D01*
X0023337Y0360634D01*
X0023437Y0360750D01*
X0023541Y0360863D01*
X0023647Y0360974D01*
X0023756Y0361082D01*
X0023868Y0361187D01*
X0023982Y0361288D01*
X0024100Y0361387D01*
X0024219Y0361483D01*
X0024341Y0361576D01*
X0024466Y0361665D01*
X0024593Y0361752D01*
X0024722Y0361834D01*
X0024853Y0361914D01*
X0024986Y0361990D01*
X0025121Y0362063D01*
X0025258Y0362132D01*
X0025397Y0362197D01*
X0025537Y0362259D01*
X0025679Y0362317D01*
X0025822Y0362372D01*
X0025967Y0362423D01*
X0026113Y0362470D01*
X0026260Y0362513D01*
X0026408Y0362552D01*
X0026557Y0362588D01*
X0026707Y0362619D01*
X0026858Y0362647D01*
X0027009Y0362671D01*
X0027162Y0362691D01*
X0027314Y0362707D01*
X0027467Y0362719D01*
X0027620Y0362727D01*
X0027773Y0362731D01*
X0027927Y0362731D01*
X0028080Y0362727D01*
X0028233Y0362719D01*
X0028386Y0362707D01*
X0028538Y0362691D01*
X0028691Y0362671D01*
X0028842Y0362647D01*
X0028993Y0362619D01*
X0029143Y0362588D01*
X0029292Y0362552D01*
X0029440Y0362513D01*
X0029587Y0362470D01*
X0029733Y0362423D01*
X0029878Y0362372D01*
X0030021Y0362317D01*
X0030163Y0362259D01*
X0030303Y0362197D01*
X0030442Y0362132D01*
X0030579Y0362063D01*
X0030714Y0361990D01*
X0030847Y0361914D01*
X0030978Y0361834D01*
X0031107Y0361752D01*
X0031234Y0361665D01*
X0031359Y0361576D01*
X0031481Y0361483D01*
X0031600Y0361387D01*
X0031718Y0361288D01*
X0031832Y0361187D01*
X0031944Y0361082D01*
X0032053Y0360974D01*
X0032159Y0360863D01*
X0032263Y0360750D01*
X0032363Y0360634D01*
X0032461Y0360516D01*
X0032555Y0360395D01*
X0032646Y0360272D01*
X0032734Y0360146D01*
X0032818Y0360018D01*
X0032900Y0359888D01*
X0032977Y0359756D01*
X0033052Y0359622D01*
X0033123Y0359486D01*
X0033190Y0359348D01*
X0033254Y0359208D01*
X0033314Y0359067D01*
X0033370Y0358925D01*
X0033423Y0358781D01*
X0033472Y0358635D01*
X0033517Y0358489D01*
X0033558Y0358341D01*
X0033595Y0358193D01*
X0033629Y0358043D01*
X0033659Y0357892D01*
X0033684Y0357741D01*
X0033706Y0357590D01*
X0033724Y0357437D01*
X0033738Y0357285D01*
X0033748Y0357132D01*
X0033754Y0356978D01*
X0033756Y0356825D01*
X0033754Y0356672D01*
X0033748Y0356518D01*
X0033738Y0356365D01*
X0033724Y0356213D01*
X0033706Y0356060D01*
X0033684Y0355909D01*
X0033659Y0355758D01*
X0033629Y0355607D01*
X0033595Y0355457D01*
X0033558Y0355309D01*
X0033517Y0355161D01*
X0033472Y0355015D01*
X0033423Y0354869D01*
X0033370Y0354725D01*
X0033314Y0354583D01*
X0033254Y0354442D01*
X0033190Y0354302D01*
X0033123Y0354164D01*
X0033052Y0354028D01*
X0032977Y0353894D01*
X0032900Y0353762D01*
X0032818Y0353632D01*
X0032734Y0353504D01*
X0032646Y0353378D01*
X0032555Y0353255D01*
X0032461Y0353134D01*
X0032363Y0353016D01*
X0032263Y0352900D01*
X0032159Y0352787D01*
X0032053Y0352676D01*
X0031944Y0352568D01*
X0031832Y0352463D01*
X0031718Y0352362D01*
X0031600Y0352263D01*
X0031481Y0352167D01*
X0031359Y0352074D01*
X0031234Y0351985D01*
X0031107Y0351898D01*
X0030978Y0351816D01*
X0030847Y0351736D01*
X0030714Y0351660D01*
X0030579Y0351587D01*
X0030442Y0351518D01*
X0030303Y0351453D01*
X0030163Y0351391D01*
X0030021Y0351333D01*
X0029878Y0351278D01*
X0029733Y0351227D01*
X0029587Y0351180D01*
X0029440Y0351137D01*
X0029292Y0351098D01*
X0029143Y0351062D01*
X0028993Y0351031D01*
X0028842Y0351003D01*
X0028691Y0350979D01*
X0028538Y0350959D01*
X0028386Y0350943D01*
X0028233Y0350931D01*
X0028080Y0350923D01*
X0027927Y0350919D01*
X0027773Y0350919D01*
X0027620Y0350923D01*
X0027467Y0350931D01*
X0027314Y0350943D01*
X0027162Y0350959D01*
X0027009Y0350979D01*
X0026858Y0351003D01*
X0026707Y0351031D01*
X0026557Y0351062D01*
X0026408Y0351098D01*
X0026260Y0351137D01*
X0026113Y0351180D01*
X0025967Y0351227D01*
X0025822Y0351278D01*
X0025679Y0351333D01*
X0025537Y0351391D01*
X0025397Y0351453D01*
X0025258Y0351518D01*
X0025121Y0351587D01*
X0024986Y0351660D01*
X0024853Y0351736D01*
X0024722Y0351816D01*
X0024593Y0351898D01*
X0024466Y0351985D01*
X0024341Y0352074D01*
X0024219Y0352167D01*
X0024100Y0352263D01*
X0023982Y0352362D01*
X0023868Y0352463D01*
X0023756Y0352568D01*
X0023647Y0352676D01*
X0023541Y0352787D01*
X0023437Y0352900D01*
X0023337Y0353016D01*
X0023239Y0353134D01*
X0023145Y0353255D01*
X0023054Y0353378D01*
X0022966Y0353504D01*
X0022882Y0353632D01*
X0022800Y0353762D01*
X0022723Y0353894D01*
X0022648Y0354028D01*
X0022577Y0354164D01*
X0022510Y0354302D01*
X0022446Y0354442D01*
X0022386Y0354583D01*
X0022330Y0354725D01*
X0022277Y0354869D01*
X0022228Y0355015D01*
X0022183Y0355161D01*
X0022142Y0355309D01*
X0022105Y0355457D01*
X0022071Y0355607D01*
X0022041Y0355758D01*
X0022016Y0355909D01*
X0021994Y0356060D01*
X0021976Y0356213D01*
X0021962Y0356365D01*
X0021952Y0356518D01*
X0021946Y0356672D01*
X0021944Y0356825D01*
X0350369Y0027625D02*
X0350371Y0027778D01*
X0350377Y0027932D01*
X0350387Y0028085D01*
X0350401Y0028237D01*
X0350419Y0028390D01*
X0350441Y0028541D01*
X0350466Y0028692D01*
X0350496Y0028843D01*
X0350530Y0028993D01*
X0350567Y0029141D01*
X0350608Y0029289D01*
X0350653Y0029435D01*
X0350702Y0029581D01*
X0350755Y0029725D01*
X0350811Y0029867D01*
X0350871Y0030008D01*
X0350935Y0030148D01*
X0351002Y0030286D01*
X0351073Y0030422D01*
X0351148Y0030556D01*
X0351225Y0030688D01*
X0351307Y0030818D01*
X0351391Y0030946D01*
X0351479Y0031072D01*
X0351570Y0031195D01*
X0351664Y0031316D01*
X0351762Y0031434D01*
X0351862Y0031550D01*
X0351966Y0031663D01*
X0352072Y0031774D01*
X0352181Y0031882D01*
X0352293Y0031987D01*
X0352407Y0032088D01*
X0352525Y0032187D01*
X0352644Y0032283D01*
X0352766Y0032376D01*
X0352891Y0032465D01*
X0353018Y0032552D01*
X0353147Y0032634D01*
X0353278Y0032714D01*
X0353411Y0032790D01*
X0353546Y0032863D01*
X0353683Y0032932D01*
X0353822Y0032997D01*
X0353962Y0033059D01*
X0354104Y0033117D01*
X0354247Y0033172D01*
X0354392Y0033223D01*
X0354538Y0033270D01*
X0354685Y0033313D01*
X0354833Y0033352D01*
X0354982Y0033388D01*
X0355132Y0033419D01*
X0355283Y0033447D01*
X0355434Y0033471D01*
X0355587Y0033491D01*
X0355739Y0033507D01*
X0355892Y0033519D01*
X0356045Y0033527D01*
X0356198Y0033531D01*
X0356352Y0033531D01*
X0356505Y0033527D01*
X0356658Y0033519D01*
X0356811Y0033507D01*
X0356963Y0033491D01*
X0357116Y0033471D01*
X0357267Y0033447D01*
X0357418Y0033419D01*
X0357568Y0033388D01*
X0357717Y0033352D01*
X0357865Y0033313D01*
X0358012Y0033270D01*
X0358158Y0033223D01*
X0358303Y0033172D01*
X0358446Y0033117D01*
X0358588Y0033059D01*
X0358728Y0032997D01*
X0358867Y0032932D01*
X0359004Y0032863D01*
X0359139Y0032790D01*
X0359272Y0032714D01*
X0359403Y0032634D01*
X0359532Y0032552D01*
X0359659Y0032465D01*
X0359784Y0032376D01*
X0359906Y0032283D01*
X0360025Y0032187D01*
X0360143Y0032088D01*
X0360257Y0031987D01*
X0360369Y0031882D01*
X0360478Y0031774D01*
X0360584Y0031663D01*
X0360688Y0031550D01*
X0360788Y0031434D01*
X0360886Y0031316D01*
X0360980Y0031195D01*
X0361071Y0031072D01*
X0361159Y0030946D01*
X0361243Y0030818D01*
X0361325Y0030688D01*
X0361402Y0030556D01*
X0361477Y0030422D01*
X0361548Y0030286D01*
X0361615Y0030148D01*
X0361679Y0030008D01*
X0361739Y0029867D01*
X0361795Y0029725D01*
X0361848Y0029581D01*
X0361897Y0029435D01*
X0361942Y0029289D01*
X0361983Y0029141D01*
X0362020Y0028993D01*
X0362054Y0028843D01*
X0362084Y0028692D01*
X0362109Y0028541D01*
X0362131Y0028390D01*
X0362149Y0028237D01*
X0362163Y0028085D01*
X0362173Y0027932D01*
X0362179Y0027778D01*
X0362181Y0027625D01*
X0362179Y0027472D01*
X0362173Y0027318D01*
X0362163Y0027165D01*
X0362149Y0027013D01*
X0362131Y0026860D01*
X0362109Y0026709D01*
X0362084Y0026558D01*
X0362054Y0026407D01*
X0362020Y0026257D01*
X0361983Y0026109D01*
X0361942Y0025961D01*
X0361897Y0025815D01*
X0361848Y0025669D01*
X0361795Y0025525D01*
X0361739Y0025383D01*
X0361679Y0025242D01*
X0361615Y0025102D01*
X0361548Y0024964D01*
X0361477Y0024828D01*
X0361402Y0024694D01*
X0361325Y0024562D01*
X0361243Y0024432D01*
X0361159Y0024304D01*
X0361071Y0024178D01*
X0360980Y0024055D01*
X0360886Y0023934D01*
X0360788Y0023816D01*
X0360688Y0023700D01*
X0360584Y0023587D01*
X0360478Y0023476D01*
X0360369Y0023368D01*
X0360257Y0023263D01*
X0360143Y0023162D01*
X0360025Y0023063D01*
X0359906Y0022967D01*
X0359784Y0022874D01*
X0359659Y0022785D01*
X0359532Y0022698D01*
X0359403Y0022616D01*
X0359272Y0022536D01*
X0359139Y0022460D01*
X0359004Y0022387D01*
X0358867Y0022318D01*
X0358728Y0022253D01*
X0358588Y0022191D01*
X0358446Y0022133D01*
X0358303Y0022078D01*
X0358158Y0022027D01*
X0358012Y0021980D01*
X0357865Y0021937D01*
X0357717Y0021898D01*
X0357568Y0021862D01*
X0357418Y0021831D01*
X0357267Y0021803D01*
X0357116Y0021779D01*
X0356963Y0021759D01*
X0356811Y0021743D01*
X0356658Y0021731D01*
X0356505Y0021723D01*
X0356352Y0021719D01*
X0356198Y0021719D01*
X0356045Y0021723D01*
X0355892Y0021731D01*
X0355739Y0021743D01*
X0355587Y0021759D01*
X0355434Y0021779D01*
X0355283Y0021803D01*
X0355132Y0021831D01*
X0354982Y0021862D01*
X0354833Y0021898D01*
X0354685Y0021937D01*
X0354538Y0021980D01*
X0354392Y0022027D01*
X0354247Y0022078D01*
X0354104Y0022133D01*
X0353962Y0022191D01*
X0353822Y0022253D01*
X0353683Y0022318D01*
X0353546Y0022387D01*
X0353411Y0022460D01*
X0353278Y0022536D01*
X0353147Y0022616D01*
X0353018Y0022698D01*
X0352891Y0022785D01*
X0352766Y0022874D01*
X0352644Y0022967D01*
X0352525Y0023063D01*
X0352407Y0023162D01*
X0352293Y0023263D01*
X0352181Y0023368D01*
X0352072Y0023476D01*
X0351966Y0023587D01*
X0351862Y0023700D01*
X0351762Y0023816D01*
X0351664Y0023934D01*
X0351570Y0024055D01*
X0351479Y0024178D01*
X0351391Y0024304D01*
X0351307Y0024432D01*
X0351225Y0024562D01*
X0351148Y0024694D01*
X0351073Y0024828D01*
X0351002Y0024964D01*
X0350935Y0025102D01*
X0350871Y0025242D01*
X0350811Y0025383D01*
X0350755Y0025525D01*
X0350702Y0025669D01*
X0350653Y0025815D01*
X0350608Y0025961D01*
X0350567Y0026109D01*
X0350530Y0026257D01*
X0350496Y0026407D01*
X0350466Y0026558D01*
X0350441Y0026709D01*
X0350419Y0026860D01*
X0350401Y0027013D01*
X0350387Y0027165D01*
X0350377Y0027318D01*
X0350371Y0027472D01*
X0350369Y0027625D01*
D11*
X0207800Y0162800D03*
X0205800Y0143300D03*
X0167800Y0162800D03*
X0165800Y0143300D03*
X0141800Y0144300D03*
X0142300Y0163300D03*
X0102300Y0163300D03*
X0101800Y0144300D03*
X0080300Y0147300D03*
X0079800Y0164800D03*
X0039800Y0164800D03*
X0040300Y0147300D03*
D12*
X0076800Y0117300D02*
X0076800Y0111300D01*
X0086800Y0111300D02*
X0086800Y0117300D01*
X0096800Y0117300D02*
X0096800Y0111300D01*
X0106800Y0111300D02*
X0106800Y0117300D01*
X0106800Y0076800D02*
X0106800Y0070800D01*
X0096800Y0070800D02*
X0096800Y0076800D01*
X0086800Y0076800D02*
X0086800Y0070800D01*
X0076800Y0070800D02*
X0076800Y0076800D01*
X0238800Y0075800D02*
X0238800Y0069800D01*
X0248800Y0069800D02*
X0248800Y0075800D01*
X0258800Y0075800D02*
X0258800Y0069800D01*
X0268800Y0069800D02*
X0268800Y0075800D01*
X0268800Y0111300D02*
X0268800Y0117300D01*
X0258800Y0117300D02*
X0258800Y0111300D01*
X0248800Y0111300D02*
X0248800Y0117300D01*
X0238800Y0117300D02*
X0238800Y0111300D01*
X0333800Y0277800D02*
X0333800Y0283800D01*
X0343800Y0283800D02*
X0343800Y0277800D01*
X0353800Y0277800D02*
X0353800Y0283800D01*
X0363800Y0283800D02*
X0363800Y0277800D01*
D13*
X0346800Y0335200D02*
X0346800Y0340400D01*
X0336800Y0340400D02*
X0336800Y0335200D01*
X0326800Y0335200D02*
X0326800Y0340400D01*
X0316800Y0340400D02*
X0316800Y0335200D01*
X0306800Y0335200D02*
X0306800Y0340400D01*
X0296800Y0340400D02*
X0296800Y0335200D01*
X0286800Y0335200D02*
X0286800Y0340400D01*
X0276800Y0340400D02*
X0276800Y0335200D01*
X0266800Y0335200D02*
X0266800Y0340400D01*
X0256800Y0340400D02*
X0256800Y0335200D01*
X0246800Y0335200D02*
X0246800Y0340400D01*
X0236800Y0340400D02*
X0236800Y0335200D01*
X0241200Y0249300D02*
X0246400Y0249300D01*
X0246400Y0239300D02*
X0241200Y0239300D01*
X0241200Y0229300D02*
X0246400Y0229300D01*
X0246400Y0219300D02*
X0241200Y0219300D01*
X0241200Y0209300D02*
X0246400Y0209300D01*
X0246400Y0199300D02*
X0241200Y0199300D01*
X0241200Y0189300D02*
X0246400Y0189300D01*
X0246400Y0179300D02*
X0241200Y0179300D01*
X0241200Y0169300D02*
X0246400Y0169300D01*
X0246400Y0159300D02*
X0241200Y0159300D01*
X0196800Y0017900D02*
X0196800Y0012700D01*
X0186800Y0012700D02*
X0186800Y0017900D01*
X0176800Y0017900D02*
X0176800Y0012700D01*
X0166800Y0012700D02*
X0166800Y0017900D01*
X0156800Y0017900D02*
X0156800Y0012700D01*
D14*
X0191800Y0202800D03*
X0201800Y0202800D03*
X0201800Y0212800D03*
X0201800Y0222800D03*
X0191800Y0222800D03*
X0191800Y0212800D03*
X0191800Y0232800D03*
X0191800Y0242800D03*
X0201800Y0242800D03*
X0201800Y0232800D03*
X0201800Y0252800D03*
X0201800Y0262800D03*
X0191800Y0262800D03*
X0191800Y0252800D03*
X0191800Y0272800D03*
X0191800Y0282800D03*
X0201800Y0282800D03*
X0201800Y0272800D03*
X0201800Y0292800D03*
X0191800Y0292800D03*
X0032300Y0293300D03*
X0032300Y0283300D03*
X0032300Y0273300D03*
X0032300Y0263300D03*
X0032300Y0253300D03*
X0032300Y0243300D03*
X0032300Y0233300D03*
X0032300Y0223300D03*
X0032300Y0213300D03*
X0032300Y0203300D03*
X0022300Y0203300D03*
X0022300Y0213300D03*
X0022300Y0223300D03*
X0022300Y0233300D03*
X0022300Y0243300D03*
X0022300Y0253300D03*
X0022300Y0263300D03*
X0022300Y0273300D03*
X0022300Y0283300D03*
X0022300Y0293300D03*
D15*
X0026700Y0293714D02*
X0027900Y0293714D01*
X0027900Y0295123D02*
X0027900Y0291477D01*
X0030477Y0288900D01*
X0034123Y0288900D01*
X0036700Y0291477D01*
X0036700Y0295123D01*
X0034123Y0297700D01*
X0030477Y0297700D01*
X0027900Y0295123D01*
X0028090Y0295313D02*
X0026510Y0295313D01*
X0026700Y0295123D02*
X0024123Y0297700D01*
X0020477Y0297700D01*
X0017900Y0295123D01*
X0017900Y0291477D01*
X0020477Y0288900D01*
X0024123Y0288900D01*
X0026700Y0291477D01*
X0026700Y0295123D01*
X0024911Y0296911D02*
X0029689Y0296911D01*
X0027900Y0292116D02*
X0026700Y0292116D01*
X0025740Y0290517D02*
X0028860Y0290517D01*
X0030459Y0288919D02*
X0024141Y0288919D01*
X0024123Y0287700D02*
X0020477Y0287700D01*
X0017900Y0285123D01*
X0017900Y0281477D01*
X0020477Y0278900D01*
X0024123Y0278900D01*
X0026700Y0281477D01*
X0026700Y0285123D01*
X0024123Y0287700D01*
X0024502Y0287320D02*
X0029815Y0287320D01*
X0030395Y0287900D02*
X0027700Y0285205D01*
X0027700Y0283400D01*
X0032200Y0283400D01*
X0032200Y0287900D01*
X0030395Y0287900D01*
X0032200Y0287320D02*
X0032400Y0287320D01*
X0032400Y0287900D02*
X0032400Y0283400D01*
X0032200Y0283400D01*
X0032200Y0283200D01*
X0027700Y0283200D01*
X0027700Y0281395D01*
X0030395Y0278700D01*
X0032200Y0278700D01*
X0032200Y0283200D01*
X0032400Y0283200D01*
X0032400Y0283400D01*
X0036900Y0283400D01*
X0036900Y0285205D01*
X0034205Y0287900D01*
X0032400Y0287900D01*
X0034141Y0288919D02*
X0110525Y0288919D01*
X0112123Y0290517D02*
X0035740Y0290517D01*
X0036700Y0292116D02*
X0113722Y0292116D01*
X0115320Y0293714D02*
X0036700Y0293714D01*
X0036510Y0295313D02*
X0116919Y0295313D01*
X0118517Y0296911D02*
X0034911Y0296911D01*
X0034785Y0287320D02*
X0108926Y0287320D01*
X0107328Y0285722D02*
X0036384Y0285722D01*
X0036900Y0284123D02*
X0105729Y0284123D01*
X0104130Y0282525D02*
X0036900Y0282525D01*
X0036900Y0283200D02*
X0032400Y0283200D01*
X0032400Y0278700D01*
X0034205Y0278700D01*
X0036900Y0281395D01*
X0036900Y0283200D01*
X0036431Y0280926D02*
X0102532Y0280926D01*
X0100933Y0279328D02*
X0034833Y0279328D01*
X0034123Y0277700D02*
X0030477Y0277700D01*
X0027900Y0275123D01*
X0027900Y0271477D01*
X0030477Y0268900D01*
X0034123Y0268900D01*
X0034623Y0269400D01*
X0097277Y0269400D01*
X0098159Y0269765D01*
X0098835Y0270441D01*
X0197794Y0369400D01*
X0305806Y0369400D01*
X0333001Y0342204D01*
X0332600Y0341235D01*
X0332600Y0334365D01*
X0333239Y0332821D01*
X0334421Y0331639D01*
X0335965Y0331000D01*
X0337635Y0331000D01*
X0339179Y0331639D01*
X0340361Y0332821D01*
X0341000Y0334365D01*
X0341000Y0341235D01*
X0340361Y0342779D01*
X0339179Y0343961D01*
X0337635Y0344600D01*
X0337394Y0344600D01*
X0308835Y0373159D01*
X0308159Y0373835D01*
X0307277Y0374200D01*
X0196323Y0374200D01*
X0195441Y0373835D01*
X0095806Y0274200D01*
X0036700Y0274200D01*
X0036700Y0275123D01*
X0034123Y0277700D01*
X0035692Y0276131D02*
X0097736Y0276131D01*
X0099335Y0277729D02*
X0014265Y0277729D01*
X0014200Y0277794D02*
X0014200Y0300806D01*
X0017794Y0304400D01*
X0122277Y0304400D01*
X0123159Y0304765D01*
X0123835Y0305441D01*
X0192794Y0374400D01*
X0310806Y0374400D01*
X0340441Y0344765D01*
X0341323Y0344400D01*
X0345482Y0344400D01*
X0344421Y0343961D01*
X0343239Y0342779D01*
X0342600Y0341235D01*
X0342600Y0334365D01*
X0343239Y0332821D01*
X0344421Y0331639D01*
X0345965Y0331000D01*
X0347635Y0331000D01*
X0349179Y0331639D01*
X0350361Y0332821D01*
X0351000Y0334365D01*
X0351000Y0341235D01*
X0350361Y0342779D01*
X0349179Y0343961D01*
X0348118Y0344400D01*
X0360806Y0344400D01*
X0369400Y0335806D01*
X0369400Y0267794D01*
X0365806Y0264200D01*
X0352794Y0264200D01*
X0346200Y0270794D01*
X0346200Y0273815D01*
X0346406Y0273900D01*
X0347700Y0275194D01*
X0348400Y0276885D01*
X0348400Y0284715D01*
X0347700Y0286406D01*
X0346406Y0287700D01*
X0344715Y0288400D01*
X0342885Y0288400D01*
X0341194Y0287700D01*
X0339900Y0286406D01*
X0339200Y0284715D01*
X0339200Y0276885D01*
X0339900Y0275194D01*
X0341194Y0273900D01*
X0341400Y0273815D01*
X0341400Y0269323D01*
X0341765Y0268441D01*
X0349765Y0260441D01*
X0350441Y0259765D01*
X0351323Y0259400D01*
X0367277Y0259400D01*
X0368159Y0259765D01*
X0373159Y0264765D01*
X0373835Y0265441D01*
X0374200Y0266323D01*
X0374200Y0337277D01*
X0373835Y0338159D01*
X0363835Y0348159D01*
X0363159Y0348835D01*
X0362277Y0349200D01*
X0342794Y0349200D01*
X0313835Y0378159D01*
X0313159Y0378835D01*
X0312277Y0379200D01*
X0191323Y0379200D01*
X0190441Y0378835D01*
X0120806Y0309200D01*
X0016323Y0309200D01*
X0015441Y0308835D01*
X0010441Y0303835D01*
X0009765Y0303159D01*
X0009400Y0302277D01*
X0009400Y0276323D01*
X0009765Y0275441D01*
X0014765Y0270441D01*
X0015441Y0269765D01*
X0016323Y0269400D01*
X0019977Y0269400D01*
X0020477Y0268900D01*
X0024123Y0268900D01*
X0026700Y0271477D01*
X0026700Y0275123D01*
X0024123Y0277700D01*
X0020477Y0277700D01*
X0017900Y0275123D01*
X0017900Y0274200D01*
X0017794Y0274200D01*
X0014200Y0277794D01*
X0014200Y0279328D02*
X0020050Y0279328D01*
X0018451Y0280926D02*
X0014200Y0280926D01*
X0014200Y0282525D02*
X0017900Y0282525D01*
X0017900Y0284123D02*
X0014200Y0284123D01*
X0014200Y0285722D02*
X0018499Y0285722D01*
X0020098Y0287320D02*
X0014200Y0287320D01*
X0014200Y0288919D02*
X0020459Y0288919D01*
X0018860Y0290517D02*
X0014200Y0290517D01*
X0014200Y0292116D02*
X0017900Y0292116D01*
X0017900Y0293714D02*
X0014200Y0293714D01*
X0014200Y0295313D02*
X0018090Y0295313D01*
X0019689Y0296911D02*
X0014200Y0296911D01*
X0014200Y0298510D02*
X0120116Y0298510D01*
X0121714Y0300108D02*
X0014200Y0300108D01*
X0015101Y0301707D02*
X0123313Y0301707D01*
X0124911Y0303305D02*
X0016699Y0303305D01*
X0016800Y0306800D02*
X0011800Y0301800D01*
X0011800Y0276800D01*
X0016800Y0271800D01*
X0020800Y0271800D01*
X0022300Y0273300D01*
X0026700Y0272934D02*
X0027900Y0272934D01*
X0027900Y0274532D02*
X0026700Y0274532D01*
X0025692Y0276131D02*
X0028908Y0276131D01*
X0029767Y0279328D02*
X0024550Y0279328D01*
X0026149Y0280926D02*
X0028169Y0280926D01*
X0027700Y0282525D02*
X0026700Y0282525D01*
X0026700Y0284123D02*
X0027700Y0284123D01*
X0028216Y0285722D02*
X0026101Y0285722D01*
X0032200Y0285722D02*
X0032400Y0285722D01*
X0032400Y0284123D02*
X0032200Y0284123D01*
X0032200Y0282525D02*
X0032400Y0282525D01*
X0032400Y0280926D02*
X0032200Y0280926D01*
X0032200Y0279328D02*
X0032400Y0279328D01*
X0032300Y0273300D02*
X0033800Y0271800D01*
X0096800Y0271800D01*
X0196800Y0371800D01*
X0306800Y0371800D01*
X0336800Y0341800D01*
X0336800Y0337800D01*
X0341000Y0338472D02*
X0342600Y0338472D01*
X0342600Y0336874D02*
X0341000Y0336874D01*
X0341000Y0335275D02*
X0342600Y0335275D01*
X0342885Y0333677D02*
X0340715Y0333677D01*
X0339618Y0332078D02*
X0343982Y0332078D01*
X0349618Y0332078D02*
X0369400Y0332078D01*
X0369400Y0330480D02*
X0279200Y0330480D01*
X0279200Y0331660D02*
X0280361Y0332821D01*
X0281000Y0334365D01*
X0281000Y0341235D01*
X0280361Y0342779D01*
X0279179Y0343961D01*
X0278118Y0344400D01*
X0280806Y0344400D01*
X0283001Y0342204D01*
X0282600Y0341235D01*
X0282600Y0334365D01*
X0283239Y0332821D01*
X0284421Y0331639D01*
X0285965Y0331000D01*
X0287635Y0331000D01*
X0289179Y0331639D01*
X0290361Y0332821D01*
X0291000Y0334365D01*
X0291000Y0341235D01*
X0290361Y0342779D01*
X0289179Y0343961D01*
X0287635Y0344600D01*
X0287394Y0344600D01*
X0283835Y0348159D01*
X0283159Y0348835D01*
X0282277Y0349200D01*
X0222075Y0349200D01*
X0222072Y0349201D01*
X0221597Y0349200D01*
X0221123Y0349200D01*
X0221120Y0349199D01*
X0221117Y0349199D01*
X0220678Y0349016D01*
X0220241Y0348835D01*
X0220239Y0348833D01*
X0220236Y0348832D01*
X0219900Y0348494D01*
X0219565Y0348159D01*
X0219564Y0348157D01*
X0175101Y0303495D01*
X0174765Y0303159D01*
X0174764Y0303157D01*
X0174762Y0303155D01*
X0174582Y0302716D01*
X0174400Y0302277D01*
X0174400Y0302275D01*
X0174399Y0302272D01*
X0174400Y0301797D01*
X0174400Y0247323D01*
X0174765Y0246441D01*
X0187400Y0233806D01*
X0187400Y0230977D01*
X0189977Y0228400D01*
X0193623Y0228400D01*
X0196200Y0230977D01*
X0196200Y0234623D01*
X0193623Y0237200D01*
X0190794Y0237200D01*
X0179200Y0248794D01*
X0179200Y0300809D01*
X0222597Y0344400D01*
X0235482Y0344400D01*
X0234421Y0343961D01*
X0233239Y0342779D01*
X0232600Y0341235D01*
X0232600Y0334365D01*
X0233239Y0332821D01*
X0234421Y0331639D01*
X0235965Y0331000D01*
X0237635Y0331000D01*
X0239179Y0331639D01*
X0240361Y0332821D01*
X0241000Y0334365D01*
X0241000Y0341235D01*
X0240361Y0342779D01*
X0239179Y0343961D01*
X0238118Y0344400D01*
X0245482Y0344400D01*
X0244421Y0343961D01*
X0243239Y0342779D01*
X0242600Y0341235D01*
X0242600Y0334365D01*
X0243239Y0332821D01*
X0244421Y0331639D01*
X0245965Y0331000D01*
X0247635Y0331000D01*
X0249179Y0331639D01*
X0250361Y0332821D01*
X0251000Y0334365D01*
X0251000Y0341235D01*
X0250361Y0342779D01*
X0249179Y0343961D01*
X0248118Y0344400D01*
X0254959Y0344400D01*
X0254494Y0344163D01*
X0253934Y0343756D01*
X0253444Y0343266D01*
X0253037Y0342706D01*
X0252722Y0342089D01*
X0252508Y0341430D01*
X0252400Y0340746D01*
X0252400Y0337800D01*
X0256800Y0337800D01*
X0261200Y0337800D01*
X0261200Y0340746D01*
X0261092Y0341430D01*
X0260878Y0342089D01*
X0260563Y0342706D01*
X0260156Y0343266D01*
X0259666Y0343756D01*
X0259106Y0344163D01*
X0258641Y0344400D01*
X0265482Y0344400D01*
X0264421Y0343961D01*
X0263239Y0342779D01*
X0262600Y0341235D01*
X0262600Y0334365D01*
X0263239Y0332821D01*
X0264400Y0331660D01*
X0264400Y0317794D01*
X0230806Y0284200D01*
X0206200Y0284200D01*
X0206200Y0284623D01*
X0203623Y0287200D01*
X0199977Y0287200D01*
X0197400Y0284623D01*
X0197400Y0280977D01*
X0199977Y0278400D01*
X0203623Y0278400D01*
X0204623Y0279400D01*
X0232277Y0279400D01*
X0233159Y0279765D01*
X0233835Y0280441D01*
X0268835Y0315441D01*
X0269200Y0316323D01*
X0269200Y0331660D01*
X0270361Y0332821D01*
X0271000Y0334365D01*
X0271000Y0341235D01*
X0270361Y0342779D01*
X0269179Y0343961D01*
X0268118Y0344400D01*
X0275482Y0344400D01*
X0274421Y0343961D01*
X0273239Y0342779D01*
X0272600Y0341235D01*
X0272600Y0334365D01*
X0273239Y0332821D01*
X0274400Y0331660D01*
X0274400Y0317794D01*
X0230806Y0274200D01*
X0206200Y0274200D01*
X0206200Y0274623D01*
X0203623Y0277200D01*
X0199977Y0277200D01*
X0197400Y0274623D01*
X0197400Y0270977D01*
X0199977Y0268400D01*
X0203623Y0268400D01*
X0204623Y0269400D01*
X0232277Y0269400D01*
X0233159Y0269765D01*
X0233835Y0270441D01*
X0278835Y0315441D01*
X0279200Y0316323D01*
X0279200Y0331660D01*
X0279618Y0332078D02*
X0283982Y0332078D01*
X0282885Y0333677D02*
X0280715Y0333677D01*
X0281000Y0335275D02*
X0282600Y0335275D01*
X0282600Y0336874D02*
X0281000Y0336874D01*
X0281000Y0338472D02*
X0282600Y0338472D01*
X0282600Y0340071D02*
X0281000Y0340071D01*
X0280820Y0341670D02*
X0282780Y0341670D01*
X0281938Y0343268D02*
X0279872Y0343268D01*
X0281800Y0346800D02*
X0221600Y0346800D01*
X0176800Y0301800D01*
X0176800Y0247800D01*
X0191800Y0232800D01*
X0194996Y0229774D02*
X0198604Y0229774D01*
X0197400Y0230977D02*
X0199977Y0228400D01*
X0203623Y0228400D01*
X0205623Y0230400D01*
X0229306Y0230400D01*
X0237833Y0221873D01*
X0237639Y0221679D01*
X0237000Y0220135D01*
X0237000Y0218465D01*
X0237639Y0216921D01*
X0238821Y0215739D01*
X0240365Y0215100D01*
X0247235Y0215100D01*
X0248779Y0215739D01*
X0249961Y0216921D01*
X0250600Y0218465D01*
X0250600Y0220135D01*
X0249961Y0221679D01*
X0248779Y0222861D01*
X0247235Y0223500D01*
X0242994Y0223500D01*
X0241394Y0225100D01*
X0247235Y0225100D01*
X0248779Y0225739D01*
X0249961Y0226921D01*
X0250600Y0228465D01*
X0250600Y0230135D01*
X0249961Y0231679D01*
X0248779Y0232861D01*
X0247235Y0233500D01*
X0242994Y0233500D01*
X0241594Y0234900D01*
X0243800Y0234900D01*
X0246746Y0234900D01*
X0247430Y0235008D01*
X0248089Y0235222D01*
X0248706Y0235537D01*
X0249266Y0235944D01*
X0249756Y0236434D01*
X0250163Y0236994D01*
X0250478Y0237611D01*
X0250692Y0238270D01*
X0250800Y0238954D01*
X0250800Y0239300D01*
X0250800Y0239646D01*
X0250692Y0240330D01*
X0250478Y0240989D01*
X0250163Y0241606D01*
X0249756Y0242166D01*
X0249266Y0242656D01*
X0248706Y0243063D01*
X0248089Y0243378D01*
X0247430Y0243592D01*
X0246746Y0243700D01*
X0243800Y0243700D01*
X0243800Y0239300D01*
X0243800Y0239300D01*
X0250800Y0239300D01*
X0243800Y0239300D01*
X0243800Y0239300D01*
X0243800Y0243700D01*
X0240854Y0243700D01*
X0240170Y0243592D01*
X0239511Y0243378D01*
X0238894Y0243063D01*
X0238334Y0242656D01*
X0237844Y0242166D01*
X0237437Y0241606D01*
X0237122Y0240989D01*
X0236908Y0240330D01*
X0236807Y0239688D01*
X0231659Y0244835D01*
X0230777Y0245200D01*
X0205623Y0245200D01*
X0203623Y0247200D01*
X0199977Y0247200D01*
X0197400Y0244623D01*
X0197400Y0240977D01*
X0199977Y0238400D01*
X0203623Y0238400D01*
X0205623Y0240400D01*
X0229306Y0240400D01*
X0237833Y0231873D01*
X0237639Y0231679D01*
X0237000Y0230135D01*
X0237000Y0229494D01*
X0231659Y0234835D01*
X0230777Y0235200D01*
X0205623Y0235200D01*
X0203623Y0237200D01*
X0199977Y0237200D01*
X0197400Y0234623D01*
X0197400Y0230977D01*
X0197400Y0231372D02*
X0196200Y0231372D01*
X0196200Y0232971D02*
X0197400Y0232971D01*
X0197400Y0234569D02*
X0196200Y0234569D01*
X0194655Y0236168D02*
X0198945Y0236168D01*
X0199013Y0239365D02*
X0194587Y0239365D01*
X0193623Y0238400D02*
X0196200Y0240977D01*
X0196200Y0244623D01*
X0193623Y0247200D01*
X0189977Y0247200D01*
X0187400Y0244623D01*
X0187400Y0240977D01*
X0189977Y0238400D01*
X0193623Y0238400D01*
X0190228Y0237766D02*
X0231940Y0237766D01*
X0233538Y0236168D02*
X0204655Y0236168D01*
X0204587Y0239365D02*
X0230341Y0239365D01*
X0230300Y0242800D02*
X0243800Y0229300D01*
X0241516Y0224978D02*
X0382000Y0224978D01*
X0382000Y0223380D02*
X0247526Y0223380D01*
X0249859Y0221781D02*
X0382000Y0221781D01*
X0382000Y0220183D02*
X0250580Y0220183D01*
X0250600Y0218584D02*
X0382000Y0218584D01*
X0382000Y0216986D02*
X0249987Y0216986D01*
X0247929Y0215387D02*
X0382000Y0215387D01*
X0382000Y0213789D02*
X0206200Y0213789D01*
X0206200Y0214623D02*
X0203623Y0217200D01*
X0199977Y0217200D01*
X0197400Y0214623D01*
X0197400Y0210977D01*
X0199977Y0208400D01*
X0203623Y0208400D01*
X0206200Y0210977D01*
X0206200Y0214623D01*
X0205435Y0215387D02*
X0239671Y0215387D01*
X0240365Y0213500D02*
X0238821Y0212861D01*
X0237639Y0211679D01*
X0237000Y0210135D01*
X0237000Y0208465D01*
X0237639Y0206921D01*
X0238821Y0205739D01*
X0240365Y0205100D01*
X0247235Y0205100D01*
X0248779Y0205739D01*
X0249961Y0206921D01*
X0250600Y0208465D01*
X0250600Y0210135D01*
X0249961Y0211679D01*
X0248779Y0212861D01*
X0247235Y0213500D01*
X0240365Y0213500D01*
X0238150Y0212190D02*
X0206200Y0212190D01*
X0205814Y0210592D02*
X0237189Y0210592D01*
X0237000Y0208993D02*
X0204216Y0208993D01*
X0203623Y0207200D02*
X0199977Y0207200D01*
X0197400Y0204623D01*
X0197400Y0201794D01*
X0184806Y0189200D01*
X0036323Y0189200D01*
X0035441Y0188835D01*
X0034765Y0188159D01*
X0019765Y0173159D01*
X0019400Y0172277D01*
X0019400Y0071323D01*
X0019765Y0070441D01*
X0020441Y0069765D01*
X0060441Y0029765D01*
X0061323Y0029400D01*
X0170806Y0029400D01*
X0178439Y0021767D01*
X0177635Y0022100D01*
X0175965Y0022100D01*
X0175208Y0021786D01*
X0168835Y0028159D01*
X0168159Y0028835D01*
X0167277Y0029200D01*
X0057794Y0029200D01*
X0019200Y0067794D01*
X0019200Y0175806D01*
X0032794Y0189400D01*
X0181277Y0189400D01*
X0182159Y0189765D01*
X0190794Y0198400D01*
X0193623Y0198400D01*
X0196200Y0200977D01*
X0196200Y0204623D01*
X0193623Y0207200D01*
X0189977Y0207200D01*
X0187400Y0204623D01*
X0187400Y0201794D01*
X0179806Y0194200D01*
X0031323Y0194200D01*
X0030441Y0193835D01*
X0029765Y0193159D01*
X0014765Y0178159D01*
X0014400Y0177277D01*
X0014400Y0066323D01*
X0014765Y0065441D01*
X0015441Y0064765D01*
X0055441Y0024765D01*
X0056323Y0024400D01*
X0165806Y0024400D01*
X0168439Y0021767D01*
X0167635Y0022100D01*
X0165965Y0022100D01*
X0164421Y0021461D01*
X0163239Y0020279D01*
X0162600Y0018735D01*
X0162600Y0011865D01*
X0163239Y0010321D01*
X0164421Y0009139D01*
X0165965Y0008500D01*
X0167635Y0008500D01*
X0169179Y0009139D01*
X0170361Y0010321D01*
X0171000Y0011865D01*
X0171000Y0018735D01*
X0170667Y0019539D01*
X0172600Y0017606D01*
X0172600Y0011865D01*
X0173239Y0010321D01*
X0174421Y0009139D01*
X0175965Y0008500D01*
X0177635Y0008500D01*
X0179179Y0009139D01*
X0180361Y0010321D01*
X0181000Y0011865D01*
X0181000Y0018735D01*
X0180667Y0019539D01*
X0182600Y0017606D01*
X0182600Y0011865D01*
X0183239Y0010321D01*
X0184421Y0009139D01*
X0185965Y0008500D01*
X0187635Y0008500D01*
X0189179Y0009139D01*
X0190361Y0010321D01*
X0191000Y0011865D01*
X0191000Y0018735D01*
X0190361Y0020279D01*
X0189179Y0021461D01*
X0187635Y0022100D01*
X0185965Y0022100D01*
X0185208Y0021786D01*
X0173835Y0033159D01*
X0173159Y0033835D01*
X0172277Y0034200D01*
X0062794Y0034200D01*
X0024200Y0072794D01*
X0024200Y0170806D01*
X0037794Y0184400D01*
X0186277Y0184400D01*
X0187159Y0184765D01*
X0200794Y0198400D01*
X0203623Y0198400D01*
X0206200Y0200977D01*
X0206200Y0204623D01*
X0203623Y0207200D01*
X0205026Y0205796D02*
X0238764Y0205796D01*
X0237443Y0207395D02*
X0034428Y0207395D01*
X0034123Y0207700D02*
X0030477Y0207700D01*
X0027900Y0205123D01*
X0027900Y0201477D01*
X0030477Y0198900D01*
X0034123Y0198900D01*
X0036700Y0201477D01*
X0036700Y0205123D01*
X0034123Y0207700D01*
X0034123Y0208900D02*
X0030477Y0208900D01*
X0027900Y0211477D01*
X0027900Y0215123D01*
X0030477Y0217700D01*
X0034123Y0217700D01*
X0036700Y0215123D01*
X0036700Y0214200D01*
X0055806Y0214200D01*
X0205441Y0363835D01*
X0206323Y0364200D01*
X0297277Y0364200D01*
X0298159Y0363835D01*
X0298835Y0363159D01*
X0317394Y0344600D01*
X0317635Y0344600D01*
X0319179Y0343961D01*
X0320361Y0342779D01*
X0321000Y0341235D01*
X0321000Y0334365D01*
X0320361Y0332821D01*
X0319179Y0331639D01*
X0317635Y0331000D01*
X0315965Y0331000D01*
X0314421Y0331639D01*
X0313239Y0332821D01*
X0312600Y0334365D01*
X0312600Y0341235D01*
X0313001Y0342204D01*
X0295806Y0359400D01*
X0207794Y0359400D01*
X0058159Y0209765D01*
X0057277Y0209400D01*
X0034623Y0209400D01*
X0034123Y0208900D01*
X0034216Y0208993D02*
X0189384Y0208993D01*
X0189977Y0208400D02*
X0187400Y0210977D01*
X0187400Y0213806D01*
X0154765Y0246441D01*
X0154400Y0247323D01*
X0154400Y0302277D01*
X0154765Y0303159D01*
X0155441Y0303835D01*
X0210441Y0358835D01*
X0211323Y0359200D01*
X0292277Y0359200D01*
X0293159Y0358835D01*
X0293835Y0358159D01*
X0307394Y0344600D01*
X0307635Y0344600D01*
X0309179Y0343961D01*
X0310361Y0342779D01*
X0311000Y0341235D01*
X0311000Y0334365D01*
X0310361Y0332821D01*
X0309179Y0331639D01*
X0307635Y0331000D01*
X0305965Y0331000D01*
X0304421Y0331639D01*
X0303239Y0332821D01*
X0302600Y0334365D01*
X0302600Y0341235D01*
X0303001Y0342204D01*
X0290806Y0354400D01*
X0212794Y0354400D01*
X0159200Y0300806D01*
X0159200Y0248794D01*
X0190794Y0217200D01*
X0193623Y0217200D01*
X0196200Y0214623D01*
X0196200Y0210977D01*
X0193623Y0208400D01*
X0189977Y0208400D01*
X0188574Y0205796D02*
X0036026Y0205796D01*
X0036700Y0204198D02*
X0187400Y0204198D01*
X0187400Y0202599D02*
X0036700Y0202599D01*
X0036223Y0201001D02*
X0186606Y0201001D01*
X0185008Y0199402D02*
X0034625Y0199402D01*
X0029975Y0199402D02*
X0024625Y0199402D01*
X0024123Y0198900D02*
X0026700Y0201477D01*
X0026700Y0205123D01*
X0024123Y0207700D01*
X0020477Y0207700D01*
X0017900Y0205123D01*
X0017900Y0201477D01*
X0020477Y0198900D01*
X0024123Y0198900D01*
X0026223Y0201001D02*
X0028377Y0201001D01*
X0027900Y0202599D02*
X0026700Y0202599D01*
X0026700Y0204198D02*
X0027900Y0204198D01*
X0028574Y0205796D02*
X0026026Y0205796D01*
X0024428Y0207395D02*
X0030172Y0207395D01*
X0030384Y0208993D02*
X0024216Y0208993D01*
X0024123Y0208900D02*
X0026700Y0211477D01*
X0026700Y0215123D01*
X0024123Y0217700D01*
X0020477Y0217700D01*
X0017900Y0215123D01*
X0017900Y0211477D01*
X0020477Y0208900D01*
X0024123Y0208900D01*
X0025814Y0210592D02*
X0028786Y0210592D01*
X0027900Y0212190D02*
X0026700Y0212190D01*
X0026700Y0213789D02*
X0027900Y0213789D01*
X0028165Y0215387D02*
X0026435Y0215387D01*
X0024837Y0216986D02*
X0029763Y0216986D01*
X0030477Y0218900D02*
X0034123Y0218900D01*
X0036700Y0221477D01*
X0036700Y0225123D01*
X0034123Y0227700D01*
X0030477Y0227700D01*
X0027900Y0225123D01*
X0027900Y0221477D01*
X0030477Y0218900D01*
X0029195Y0220183D02*
X0025405Y0220183D01*
X0024123Y0218900D02*
X0026700Y0221477D01*
X0026700Y0225123D01*
X0024123Y0227700D01*
X0020477Y0227700D01*
X0017900Y0225123D01*
X0017900Y0221477D01*
X0020477Y0218900D01*
X0024123Y0218900D01*
X0026700Y0221781D02*
X0027900Y0221781D01*
X0027900Y0223380D02*
X0026700Y0223380D01*
X0026700Y0224978D02*
X0027900Y0224978D01*
X0029354Y0226577D02*
X0025246Y0226577D01*
X0024123Y0228900D02*
X0020477Y0228900D01*
X0017900Y0231477D01*
X0017900Y0235123D01*
X0020477Y0237700D01*
X0024123Y0237700D01*
X0026700Y0235123D01*
X0026700Y0231477D01*
X0024123Y0228900D01*
X0024996Y0229774D02*
X0029604Y0229774D01*
X0030477Y0228900D02*
X0034123Y0228900D01*
X0036700Y0231477D01*
X0036700Y0235123D01*
X0034123Y0237700D01*
X0030477Y0237700D01*
X0027900Y0235123D01*
X0027900Y0231477D01*
X0030477Y0228900D01*
X0028005Y0231372D02*
X0026595Y0231372D01*
X0026700Y0232971D02*
X0027900Y0232971D01*
X0027900Y0234569D02*
X0026700Y0234569D01*
X0025655Y0236168D02*
X0028945Y0236168D01*
X0030477Y0238900D02*
X0034123Y0238900D01*
X0036700Y0241477D01*
X0036700Y0245123D01*
X0034123Y0247700D01*
X0030477Y0247700D01*
X0027900Y0245123D01*
X0027900Y0241477D01*
X0030477Y0238900D01*
X0030013Y0239365D02*
X0024587Y0239365D01*
X0024123Y0238900D02*
X0026700Y0241477D01*
X0026700Y0245123D01*
X0024123Y0247700D01*
X0020477Y0247700D01*
X0017900Y0245123D01*
X0017900Y0241477D01*
X0020477Y0238900D01*
X0024123Y0238900D01*
X0026186Y0240963D02*
X0028414Y0240963D01*
X0027900Y0242562D02*
X0026700Y0242562D01*
X0026700Y0244160D02*
X0027900Y0244160D01*
X0028536Y0245759D02*
X0026064Y0245759D01*
X0024465Y0247357D02*
X0030135Y0247357D01*
X0030477Y0248900D02*
X0034123Y0248900D01*
X0036700Y0251477D01*
X0036700Y0255123D01*
X0034123Y0257700D01*
X0030477Y0257700D01*
X0027900Y0255123D01*
X0027900Y0251477D01*
X0030477Y0248900D01*
X0030422Y0248956D02*
X0024178Y0248956D01*
X0024123Y0248900D02*
X0026700Y0251477D01*
X0026700Y0255123D01*
X0024123Y0257700D01*
X0020477Y0257700D01*
X0017900Y0255123D01*
X0017900Y0251477D01*
X0020477Y0248900D01*
X0024123Y0248900D01*
X0025777Y0250554D02*
X0028823Y0250554D01*
X0027900Y0252153D02*
X0026700Y0252153D01*
X0026700Y0253751D02*
X0027900Y0253751D01*
X0028127Y0255350D02*
X0026473Y0255350D01*
X0024874Y0256948D02*
X0029726Y0256948D01*
X0030477Y0258900D02*
X0034123Y0258900D01*
X0034623Y0259400D01*
X0097277Y0259400D01*
X0098159Y0259765D01*
X0098835Y0260441D01*
X0202794Y0364400D01*
X0300806Y0364400D01*
X0323001Y0342204D01*
X0322600Y0341235D01*
X0322600Y0334365D01*
X0323239Y0332821D01*
X0324421Y0331639D01*
X0325965Y0331000D01*
X0327635Y0331000D01*
X0329179Y0331639D01*
X0330361Y0332821D01*
X0331000Y0334365D01*
X0331000Y0341235D01*
X0330361Y0342779D01*
X0329179Y0343961D01*
X0327635Y0344600D01*
X0327394Y0344600D01*
X0303835Y0368159D01*
X0303159Y0368835D01*
X0302277Y0369200D01*
X0201323Y0369200D01*
X0200441Y0368835D01*
X0095806Y0264200D01*
X0036700Y0264200D01*
X0036700Y0265123D01*
X0034123Y0267700D01*
X0030477Y0267700D01*
X0027900Y0265123D01*
X0027900Y0261477D01*
X0030477Y0258900D01*
X0029232Y0260145D02*
X0025368Y0260145D01*
X0024123Y0258900D02*
X0026700Y0261477D01*
X0026700Y0265123D01*
X0024123Y0267700D01*
X0020477Y0267700D01*
X0017900Y0265123D01*
X0017900Y0264200D01*
X0017794Y0264200D01*
X0009200Y0272794D01*
X0009200Y0305806D01*
X0017794Y0314400D01*
X0122277Y0314400D01*
X0123159Y0314765D01*
X0123835Y0315441D01*
X0187794Y0379400D01*
X0315806Y0379400D01*
X0345441Y0349765D01*
X0346323Y0349400D01*
X0365806Y0349400D01*
X0379400Y0335806D01*
X0379400Y0267794D01*
X0365806Y0254200D01*
X0352794Y0254200D01*
X0336200Y0270794D01*
X0336200Y0273815D01*
X0336406Y0273900D01*
X0337700Y0275194D01*
X0338400Y0276885D01*
X0338400Y0284715D01*
X0337700Y0286406D01*
X0336406Y0287700D01*
X0334715Y0288400D01*
X0332885Y0288400D01*
X0331194Y0287700D01*
X0329900Y0286406D01*
X0329200Y0284715D01*
X0329200Y0276885D01*
X0329900Y0275194D01*
X0331194Y0273900D01*
X0331400Y0273815D01*
X0331400Y0269323D01*
X0331765Y0268441D01*
X0349765Y0250441D01*
X0349765Y0250441D01*
X0350441Y0249765D01*
X0351323Y0249400D01*
X0367277Y0249400D01*
X0368159Y0249765D01*
X0382000Y0263606D01*
X0382000Y0006600D01*
X0006600Y0006600D01*
X0006600Y0268606D01*
X0014765Y0260441D01*
X0015441Y0259765D01*
X0016323Y0259400D01*
X0019977Y0259400D01*
X0020477Y0258900D01*
X0024123Y0258900D01*
X0026700Y0261744D02*
X0027900Y0261744D01*
X0027900Y0263342D02*
X0026700Y0263342D01*
X0026700Y0264941D02*
X0027900Y0264941D01*
X0029317Y0266539D02*
X0025283Y0266539D01*
X0024959Y0269737D02*
X0029641Y0269737D01*
X0028042Y0271335D02*
X0026558Y0271335D01*
X0019317Y0266539D02*
X0015455Y0266539D01*
X0017053Y0264941D02*
X0017900Y0264941D01*
X0016800Y0261800D02*
X0020800Y0261800D01*
X0022300Y0263300D01*
X0016800Y0261800D02*
X0006800Y0271800D01*
X0006800Y0306800D01*
X0016800Y0316800D01*
X0121800Y0316800D01*
X0186800Y0381800D01*
X0316800Y0381800D01*
X0346800Y0351800D01*
X0366800Y0351800D01*
X0381800Y0336800D01*
X0381800Y0266800D01*
X0366800Y0251800D01*
X0351800Y0251800D01*
X0333800Y0269800D01*
X0333800Y0280800D01*
X0329200Y0280926D02*
X0244320Y0280926D01*
X0242722Y0279328D02*
X0329200Y0279328D01*
X0329200Y0277729D02*
X0241123Y0277729D01*
X0239525Y0276131D02*
X0329513Y0276131D01*
X0330563Y0274532D02*
X0237926Y0274532D01*
X0236328Y0272934D02*
X0331400Y0272934D01*
X0331400Y0271335D02*
X0234729Y0271335D01*
X0233090Y0269737D02*
X0331400Y0269737D01*
X0332068Y0268138D02*
X0179200Y0268138D01*
X0179200Y0269737D02*
X0188641Y0269737D01*
X0187400Y0270977D02*
X0189977Y0268400D01*
X0193623Y0268400D01*
X0196200Y0270977D01*
X0196200Y0274623D01*
X0193623Y0277200D01*
X0189977Y0277200D01*
X0187400Y0274623D01*
X0187400Y0270977D01*
X0187400Y0271335D02*
X0179200Y0271335D01*
X0179200Y0272934D02*
X0187400Y0272934D01*
X0187400Y0274532D02*
X0179200Y0274532D01*
X0179200Y0276131D02*
X0188908Y0276131D01*
X0189977Y0278400D02*
X0193623Y0278400D01*
X0196200Y0280977D01*
X0196200Y0284623D01*
X0193623Y0287200D01*
X0189977Y0287200D01*
X0187400Y0284623D01*
X0187400Y0280977D01*
X0189977Y0278400D01*
X0189050Y0279328D02*
X0179200Y0279328D01*
X0179200Y0280926D02*
X0187451Y0280926D01*
X0187400Y0282525D02*
X0179200Y0282525D01*
X0179200Y0284123D02*
X0187400Y0284123D01*
X0188499Y0285722D02*
X0179200Y0285722D01*
X0179200Y0287320D02*
X0233926Y0287320D01*
X0232328Y0285722D02*
X0205101Y0285722D01*
X0203705Y0288200D02*
X0201900Y0288200D01*
X0201900Y0292700D01*
X0201900Y0292900D01*
X0201700Y0292900D01*
X0201700Y0297400D01*
X0199895Y0297400D01*
X0197200Y0294705D01*
X0197200Y0292900D01*
X0201700Y0292900D01*
X0201700Y0292700D01*
X0197200Y0292700D01*
X0197200Y0290895D01*
X0199895Y0288200D01*
X0201700Y0288200D01*
X0201700Y0292700D01*
X0201900Y0292700D01*
X0206400Y0292700D01*
X0206400Y0290895D01*
X0203705Y0288200D01*
X0204424Y0288919D02*
X0235525Y0288919D01*
X0237123Y0290517D02*
X0206023Y0290517D01*
X0206400Y0292116D02*
X0238722Y0292116D01*
X0240320Y0293714D02*
X0206400Y0293714D01*
X0206400Y0292900D02*
X0206400Y0294705D01*
X0203705Y0297400D01*
X0201900Y0297400D01*
X0201900Y0292900D01*
X0206400Y0292900D01*
X0205793Y0295313D02*
X0241919Y0295313D01*
X0243517Y0296911D02*
X0204194Y0296911D01*
X0201900Y0296911D02*
X0201700Y0296911D01*
X0201700Y0295313D02*
X0201900Y0295313D01*
X0201900Y0293714D02*
X0201700Y0293714D01*
X0201700Y0292116D02*
X0201900Y0292116D01*
X0201900Y0290517D02*
X0201700Y0290517D01*
X0201700Y0288919D02*
X0201900Y0288919D01*
X0199176Y0288919D02*
X0194141Y0288919D01*
X0193623Y0288400D02*
X0196200Y0290977D01*
X0196200Y0294623D01*
X0193623Y0297200D01*
X0189977Y0297200D01*
X0187400Y0294623D01*
X0187400Y0290977D01*
X0189977Y0288400D01*
X0193623Y0288400D01*
X0195740Y0290517D02*
X0197577Y0290517D01*
X0197200Y0292116D02*
X0196200Y0292116D01*
X0196200Y0293714D02*
X0197200Y0293714D01*
X0197807Y0295313D02*
X0195510Y0295313D01*
X0193911Y0296911D02*
X0199406Y0296911D01*
X0189689Y0296911D02*
X0179200Y0296911D01*
X0179200Y0295313D02*
X0188090Y0295313D01*
X0187400Y0293714D02*
X0179200Y0293714D01*
X0179200Y0292116D02*
X0187400Y0292116D01*
X0187860Y0290517D02*
X0179200Y0290517D01*
X0179200Y0288919D02*
X0189459Y0288919D01*
X0195101Y0285722D02*
X0198499Y0285722D01*
X0197400Y0284123D02*
X0196200Y0284123D01*
X0196200Y0282525D02*
X0197400Y0282525D01*
X0197451Y0280926D02*
X0196149Y0280926D01*
X0194550Y0279328D02*
X0199050Y0279328D01*
X0198908Y0276131D02*
X0194692Y0276131D01*
X0196200Y0274532D02*
X0197400Y0274532D01*
X0197400Y0272934D02*
X0196200Y0272934D01*
X0196200Y0271335D02*
X0197400Y0271335D01*
X0198641Y0269737D02*
X0194959Y0269737D01*
X0193623Y0267200D02*
X0189977Y0267200D01*
X0187400Y0264623D01*
X0187400Y0260977D01*
X0189977Y0258400D01*
X0193623Y0258400D01*
X0196200Y0260977D01*
X0196200Y0264623D01*
X0193623Y0267200D01*
X0194283Y0266539D02*
X0199317Y0266539D01*
X0199977Y0267200D02*
X0197400Y0264623D01*
X0197400Y0260977D01*
X0199977Y0258400D01*
X0203623Y0258400D01*
X0206200Y0260977D01*
X0206200Y0264623D01*
X0203623Y0267200D01*
X0199977Y0267200D01*
X0197718Y0264941D02*
X0195882Y0264941D01*
X0196200Y0263342D02*
X0197400Y0263342D01*
X0197400Y0261744D02*
X0196200Y0261744D01*
X0195368Y0260145D02*
X0198232Y0260145D01*
X0199831Y0258547D02*
X0193769Y0258547D01*
X0193623Y0257200D02*
X0189977Y0257200D01*
X0187400Y0254623D01*
X0187400Y0250977D01*
X0189977Y0248400D01*
X0193623Y0248400D01*
X0196200Y0250977D01*
X0196200Y0254623D01*
X0193623Y0257200D01*
X0193874Y0256948D02*
X0199726Y0256948D01*
X0199977Y0257200D02*
X0197400Y0254623D01*
X0197400Y0250977D01*
X0199977Y0248400D01*
X0203623Y0248400D01*
X0206200Y0250977D01*
X0206200Y0254623D01*
X0203623Y0257200D01*
X0199977Y0257200D01*
X0198127Y0255350D02*
X0195473Y0255350D01*
X0196200Y0253751D02*
X0197400Y0253751D01*
X0197400Y0252153D02*
X0196200Y0252153D01*
X0195777Y0250554D02*
X0197823Y0250554D01*
X0199422Y0248956D02*
X0194178Y0248956D01*
X0195064Y0245759D02*
X0198536Y0245759D01*
X0197400Y0244160D02*
X0196200Y0244160D01*
X0196200Y0242562D02*
X0197400Y0242562D01*
X0197414Y0240963D02*
X0196186Y0240963D01*
X0201800Y0242800D02*
X0230300Y0242800D01*
X0232334Y0244160D02*
X0382000Y0244160D01*
X0382000Y0242562D02*
X0249361Y0242562D01*
X0250486Y0240963D02*
X0382000Y0240963D01*
X0382000Y0239365D02*
X0250800Y0239365D01*
X0250528Y0237766D02*
X0382000Y0237766D01*
X0382000Y0236168D02*
X0249490Y0236168D01*
X0248513Y0232971D02*
X0382000Y0232971D01*
X0382000Y0234569D02*
X0241925Y0234569D01*
X0243800Y0234900D02*
X0243800Y0239300D01*
X0243800Y0234900D01*
X0243800Y0236168D02*
X0243800Y0236168D01*
X0243800Y0237766D02*
X0243800Y0237766D01*
X0243800Y0239300D02*
X0243800Y0239300D01*
X0243800Y0239365D02*
X0243800Y0239365D01*
X0243800Y0240963D02*
X0243800Y0240963D01*
X0243800Y0242562D02*
X0243800Y0242562D01*
X0240365Y0245100D02*
X0238821Y0245739D01*
X0237639Y0246921D01*
X0237000Y0248465D01*
X0237000Y0250135D01*
X0237639Y0251679D01*
X0238821Y0252861D01*
X0240365Y0253500D01*
X0247235Y0253500D01*
X0248779Y0252861D01*
X0249961Y0251679D01*
X0250600Y0250135D01*
X0250600Y0248465D01*
X0249961Y0246921D01*
X0248779Y0245739D01*
X0247235Y0245100D01*
X0240365Y0245100D01*
X0238801Y0245759D02*
X0205064Y0245759D01*
X0204178Y0248956D02*
X0237000Y0248956D01*
X0237174Y0250554D02*
X0205777Y0250554D01*
X0206200Y0252153D02*
X0238113Y0252153D01*
X0237459Y0247357D02*
X0180637Y0247357D01*
X0179200Y0248956D02*
X0189422Y0248956D01*
X0187823Y0250554D02*
X0179200Y0250554D01*
X0179200Y0252153D02*
X0187400Y0252153D01*
X0187400Y0253751D02*
X0179200Y0253751D01*
X0179200Y0255350D02*
X0188127Y0255350D01*
X0189726Y0256948D02*
X0179200Y0256948D01*
X0179200Y0258547D02*
X0189831Y0258547D01*
X0188232Y0260145D02*
X0179200Y0260145D01*
X0179200Y0261744D02*
X0187400Y0261744D01*
X0187400Y0263342D02*
X0179200Y0263342D01*
X0179200Y0264941D02*
X0187718Y0264941D01*
X0189317Y0266539D02*
X0179200Y0266539D01*
X0174400Y0266539D02*
X0169200Y0266539D01*
X0169200Y0264941D02*
X0174400Y0264941D01*
X0174400Y0263342D02*
X0169200Y0263342D01*
X0169200Y0261744D02*
X0174400Y0261744D01*
X0174400Y0260145D02*
X0169200Y0260145D01*
X0169200Y0258547D02*
X0174400Y0258547D01*
X0174400Y0256948D02*
X0169200Y0256948D01*
X0169200Y0255350D02*
X0174400Y0255350D01*
X0174400Y0253751D02*
X0169200Y0253751D01*
X0169200Y0252153D02*
X0174400Y0252153D01*
X0174400Y0250554D02*
X0169200Y0250554D01*
X0169200Y0248956D02*
X0174400Y0248956D01*
X0174400Y0247357D02*
X0170637Y0247357D01*
X0169200Y0248794D02*
X0169200Y0300806D01*
X0217794Y0349400D01*
X0285806Y0349400D01*
X0293001Y0342204D01*
X0292600Y0341235D01*
X0292600Y0334365D01*
X0293239Y0332821D01*
X0294421Y0331639D01*
X0295965Y0331000D01*
X0297635Y0331000D01*
X0299179Y0331639D01*
X0300361Y0332821D01*
X0301000Y0334365D01*
X0301000Y0341235D01*
X0300361Y0342779D01*
X0299179Y0343961D01*
X0297635Y0344600D01*
X0297394Y0344600D01*
X0288835Y0353159D01*
X0288159Y0353835D01*
X0287277Y0354200D01*
X0216323Y0354200D01*
X0215441Y0353835D01*
X0165441Y0303835D01*
X0164765Y0303159D01*
X0164400Y0302277D01*
X0164400Y0247323D01*
X0164765Y0246441D01*
X0187400Y0223806D01*
X0187400Y0220977D01*
X0189977Y0218400D01*
X0193623Y0218400D01*
X0196200Y0220977D01*
X0196200Y0224623D01*
X0193623Y0227200D01*
X0190794Y0227200D01*
X0169200Y0248794D01*
X0166800Y0247800D02*
X0191800Y0222800D01*
X0196200Y0223380D02*
X0197400Y0223380D01*
X0197400Y0224623D02*
X0197400Y0220977D01*
X0199977Y0218400D01*
X0203623Y0218400D01*
X0206200Y0220977D01*
X0206200Y0224623D01*
X0203623Y0227200D01*
X0199977Y0227200D01*
X0197400Y0224623D01*
X0197756Y0224978D02*
X0195844Y0224978D01*
X0194246Y0226577D02*
X0199354Y0226577D01*
X0204246Y0226577D02*
X0233129Y0226577D01*
X0231531Y0228175D02*
X0189819Y0228175D01*
X0188604Y0229774D02*
X0188220Y0229774D01*
X0187400Y0231372D02*
X0186622Y0231372D01*
X0187400Y0232971D02*
X0185023Y0232971D01*
X0183425Y0234569D02*
X0186637Y0234569D01*
X0185038Y0236168D02*
X0181826Y0236168D01*
X0180228Y0237766D02*
X0183440Y0237766D01*
X0181841Y0239365D02*
X0178629Y0239365D01*
X0177031Y0240963D02*
X0180243Y0240963D01*
X0178644Y0242562D02*
X0175432Y0242562D01*
X0173834Y0244160D02*
X0177046Y0244160D01*
X0175447Y0245759D02*
X0172235Y0245759D01*
X0168644Y0242562D02*
X0165432Y0242562D01*
X0163834Y0244160D02*
X0167046Y0244160D01*
X0165447Y0245759D02*
X0162235Y0245759D01*
X0160637Y0247357D02*
X0164400Y0247357D01*
X0164400Y0248956D02*
X0159200Y0248956D01*
X0159200Y0250554D02*
X0164400Y0250554D01*
X0164400Y0252153D02*
X0159200Y0252153D01*
X0159200Y0253751D02*
X0164400Y0253751D01*
X0164400Y0255350D02*
X0159200Y0255350D01*
X0159200Y0256948D02*
X0164400Y0256948D01*
X0164400Y0258547D02*
X0159200Y0258547D01*
X0159200Y0260145D02*
X0164400Y0260145D01*
X0164400Y0261744D02*
X0159200Y0261744D01*
X0159200Y0263342D02*
X0164400Y0263342D01*
X0164400Y0264941D02*
X0159200Y0264941D01*
X0159200Y0266539D02*
X0164400Y0266539D01*
X0164400Y0268138D02*
X0159200Y0268138D01*
X0159200Y0269737D02*
X0164400Y0269737D01*
X0164400Y0271335D02*
X0159200Y0271335D01*
X0159200Y0272934D02*
X0164400Y0272934D01*
X0164400Y0274532D02*
X0159200Y0274532D01*
X0159200Y0276131D02*
X0164400Y0276131D01*
X0164400Y0277729D02*
X0159200Y0277729D01*
X0159200Y0279328D02*
X0164400Y0279328D01*
X0164400Y0280926D02*
X0159200Y0280926D01*
X0159200Y0282525D02*
X0164400Y0282525D01*
X0164400Y0284123D02*
X0159200Y0284123D01*
X0159200Y0285722D02*
X0164400Y0285722D01*
X0164400Y0287320D02*
X0159200Y0287320D01*
X0159200Y0288919D02*
X0164400Y0288919D01*
X0164400Y0290517D02*
X0159200Y0290517D01*
X0159200Y0292116D02*
X0164400Y0292116D01*
X0164400Y0293714D02*
X0159200Y0293714D01*
X0159200Y0295313D02*
X0164400Y0295313D01*
X0164400Y0296911D02*
X0159200Y0296911D01*
X0159200Y0298510D02*
X0164400Y0298510D01*
X0164400Y0300108D02*
X0159200Y0300108D01*
X0160101Y0301707D02*
X0164400Y0301707D01*
X0164911Y0303305D02*
X0161699Y0303305D01*
X0163298Y0304904D02*
X0166510Y0304904D01*
X0168108Y0306502D02*
X0164896Y0306502D01*
X0166495Y0308101D02*
X0169707Y0308101D01*
X0171305Y0309699D02*
X0168093Y0309699D01*
X0169692Y0311298D02*
X0172904Y0311298D01*
X0174502Y0312896D02*
X0171290Y0312896D01*
X0172889Y0314495D02*
X0176101Y0314495D01*
X0177699Y0316093D02*
X0174487Y0316093D01*
X0176086Y0317692D02*
X0179298Y0317692D01*
X0180896Y0319290D02*
X0177684Y0319290D01*
X0179283Y0320889D02*
X0182495Y0320889D01*
X0184093Y0322487D02*
X0180881Y0322487D01*
X0182480Y0324086D02*
X0185692Y0324086D01*
X0187290Y0325684D02*
X0184079Y0325684D01*
X0185677Y0327283D02*
X0188889Y0327283D01*
X0190487Y0328881D02*
X0187276Y0328881D01*
X0188874Y0330480D02*
X0192086Y0330480D01*
X0193684Y0332078D02*
X0190473Y0332078D01*
X0192071Y0333677D02*
X0195283Y0333677D01*
X0196881Y0335275D02*
X0193670Y0335275D01*
X0195268Y0336874D02*
X0198480Y0336874D01*
X0200078Y0338472D02*
X0196867Y0338472D01*
X0198465Y0340071D02*
X0201677Y0340071D01*
X0203275Y0341670D02*
X0200064Y0341670D01*
X0201662Y0343268D02*
X0204874Y0343268D01*
X0206472Y0344867D02*
X0203261Y0344867D01*
X0204859Y0346465D02*
X0208071Y0346465D01*
X0209669Y0348064D02*
X0206458Y0348064D01*
X0208056Y0349662D02*
X0211268Y0349662D01*
X0212866Y0351261D02*
X0209655Y0351261D01*
X0211253Y0352859D02*
X0214465Y0352859D01*
X0216800Y0351800D02*
X0166800Y0301800D01*
X0166800Y0247800D01*
X0167031Y0240963D02*
X0170243Y0240963D01*
X0171841Y0239365D02*
X0168629Y0239365D01*
X0170228Y0237766D02*
X0173440Y0237766D01*
X0175038Y0236168D02*
X0171826Y0236168D01*
X0173425Y0234569D02*
X0176637Y0234569D01*
X0178235Y0232971D02*
X0175023Y0232971D01*
X0176622Y0231372D02*
X0179834Y0231372D01*
X0181432Y0229774D02*
X0178220Y0229774D01*
X0179819Y0228175D02*
X0183031Y0228175D01*
X0184629Y0226577D02*
X0181417Y0226577D01*
X0183016Y0224978D02*
X0186228Y0224978D01*
X0187400Y0223380D02*
X0184614Y0223380D01*
X0186213Y0221781D02*
X0187400Y0221781D01*
X0187811Y0220183D02*
X0188195Y0220183D01*
X0189410Y0218584D02*
X0189793Y0218584D01*
X0193807Y0218584D02*
X0199793Y0218584D01*
X0199763Y0216986D02*
X0193837Y0216986D01*
X0195435Y0215387D02*
X0198165Y0215387D01*
X0197400Y0213789D02*
X0196200Y0213789D01*
X0196200Y0212190D02*
X0197400Y0212190D01*
X0197786Y0210592D02*
X0195814Y0210592D01*
X0194216Y0208993D02*
X0199384Y0208993D01*
X0198574Y0205796D02*
X0195026Y0205796D01*
X0196200Y0204198D02*
X0197400Y0204198D01*
X0197400Y0202599D02*
X0196200Y0202599D01*
X0196200Y0201001D02*
X0196606Y0201001D01*
X0195008Y0199402D02*
X0194625Y0199402D01*
X0193409Y0197803D02*
X0190198Y0197803D01*
X0188599Y0196205D02*
X0191811Y0196205D01*
X0190212Y0194606D02*
X0187001Y0194606D01*
X0185402Y0193008D02*
X0188614Y0193008D01*
X0187015Y0191409D02*
X0183804Y0191409D01*
X0182205Y0189811D02*
X0185417Y0189811D01*
X0185800Y0186800D02*
X0201800Y0202800D01*
X0204625Y0199402D02*
X0237000Y0199402D01*
X0237000Y0200135D02*
X0237000Y0198465D01*
X0237639Y0196921D01*
X0238821Y0195739D01*
X0240365Y0195100D01*
X0247235Y0195100D01*
X0248779Y0195739D01*
X0249961Y0196921D01*
X0250600Y0198465D01*
X0250600Y0200135D01*
X0249961Y0201679D01*
X0248779Y0202861D01*
X0247235Y0203500D01*
X0240365Y0203500D01*
X0238821Y0202861D01*
X0237639Y0201679D01*
X0237000Y0200135D01*
X0237358Y0201001D02*
X0206200Y0201001D01*
X0206200Y0202599D02*
X0238559Y0202599D01*
X0237274Y0197803D02*
X0200198Y0197803D01*
X0198599Y0196205D02*
X0238355Y0196205D01*
X0239511Y0193378D02*
X0238894Y0193063D01*
X0238334Y0192656D01*
X0237844Y0192166D01*
X0237437Y0191606D01*
X0237122Y0190989D01*
X0236908Y0190330D01*
X0236800Y0189646D01*
X0236800Y0189300D01*
X0243800Y0189300D01*
X0243800Y0189300D01*
X0243800Y0193700D01*
X0246746Y0193700D01*
X0247430Y0193592D01*
X0248089Y0193378D01*
X0248706Y0193063D01*
X0249266Y0192656D01*
X0249756Y0192166D01*
X0250163Y0191606D01*
X0250478Y0190989D01*
X0250692Y0190330D01*
X0250800Y0189646D01*
X0250800Y0189300D01*
X0243800Y0189300D01*
X0243800Y0189300D01*
X0243800Y0193700D01*
X0240854Y0193700D01*
X0240170Y0193592D01*
X0239511Y0193378D01*
X0238818Y0193008D02*
X0195402Y0193008D01*
X0193804Y0191409D02*
X0237337Y0191409D01*
X0236826Y0189811D02*
X0192205Y0189811D01*
X0190607Y0188212D02*
X0236927Y0188212D01*
X0236908Y0188270D02*
X0237122Y0187611D01*
X0237437Y0186994D01*
X0237844Y0186434D01*
X0238334Y0185944D01*
X0238894Y0185537D01*
X0239511Y0185222D01*
X0240170Y0185008D01*
X0240854Y0184900D01*
X0243800Y0184900D01*
X0246746Y0184900D01*
X0247430Y0185008D01*
X0248089Y0185222D01*
X0248706Y0185537D01*
X0249266Y0185944D01*
X0249756Y0186434D01*
X0250163Y0186994D01*
X0250478Y0187611D01*
X0250692Y0188270D01*
X0250800Y0188954D01*
X0250800Y0189300D01*
X0243800Y0189300D01*
X0243800Y0184900D01*
X0243800Y0189300D01*
X0243800Y0189300D01*
X0243800Y0189300D01*
X0236800Y0189300D01*
X0236800Y0188954D01*
X0236908Y0188270D01*
X0237713Y0186614D02*
X0189008Y0186614D01*
X0187410Y0185015D02*
X0240148Y0185015D01*
X0240365Y0183500D02*
X0238821Y0182861D01*
X0237639Y0181679D01*
X0237000Y0180135D01*
X0237000Y0178465D01*
X0237639Y0176921D01*
X0238821Y0175739D01*
X0240365Y0175100D01*
X0247235Y0175100D01*
X0248779Y0175739D01*
X0249961Y0176921D01*
X0250600Y0178465D01*
X0250600Y0180135D01*
X0249961Y0181679D01*
X0248779Y0182861D01*
X0247235Y0183500D01*
X0240365Y0183500D01*
X0240164Y0183417D02*
X0036811Y0183417D01*
X0035212Y0181818D02*
X0237779Y0181818D01*
X0237035Y0180220D02*
X0033614Y0180220D01*
X0032015Y0178621D02*
X0237000Y0178621D01*
X0237597Y0177023D02*
X0030417Y0177023D01*
X0028818Y0175424D02*
X0239582Y0175424D01*
X0240365Y0173500D02*
X0238821Y0172861D01*
X0237639Y0171679D01*
X0237000Y0170135D01*
X0237000Y0168465D01*
X0237639Y0166921D01*
X0238821Y0165739D01*
X0240365Y0165100D01*
X0247235Y0165100D01*
X0248779Y0165739D01*
X0249961Y0166921D01*
X0250600Y0168465D01*
X0250600Y0170135D01*
X0249961Y0171679D01*
X0248779Y0172861D01*
X0247235Y0173500D01*
X0240365Y0173500D01*
X0238188Y0172227D02*
X0025621Y0172227D01*
X0024200Y0170629D02*
X0237204Y0170629D01*
X0237000Y0169030D02*
X0041792Y0169030D01*
X0041623Y0169200D02*
X0039800Y0169200D01*
X0039800Y0164800D01*
X0044200Y0164800D01*
X0044200Y0166623D01*
X0041623Y0169200D01*
X0039800Y0169200D02*
X0037977Y0169200D01*
X0035400Y0166623D01*
X0035400Y0164800D01*
X0039800Y0164800D01*
X0039800Y0164800D01*
X0039800Y0164800D01*
X0044200Y0164800D01*
X0044200Y0162977D01*
X0041623Y0160400D01*
X0039800Y0160400D01*
X0039800Y0164800D01*
X0039800Y0164800D01*
X0039800Y0164800D01*
X0039800Y0169200D01*
X0039800Y0169030D02*
X0039800Y0169030D01*
X0039800Y0167432D02*
X0039800Y0167432D01*
X0039800Y0165833D02*
X0039800Y0165833D01*
X0039800Y0164800D02*
X0035400Y0164800D01*
X0035400Y0162977D01*
X0037977Y0160400D01*
X0039800Y0160400D01*
X0039800Y0164800D01*
X0039800Y0164235D02*
X0039800Y0164235D01*
X0039800Y0162636D02*
X0039800Y0162636D01*
X0039800Y0161038D02*
X0039800Y0161038D01*
X0042260Y0161038D02*
X0067644Y0161038D01*
X0069242Y0162636D02*
X0043859Y0162636D01*
X0044200Y0164235D02*
X0070841Y0164235D01*
X0072439Y0165833D02*
X0044200Y0165833D01*
X0043391Y0167432D02*
X0076492Y0167432D01*
X0076260Y0167200D02*
X0074323Y0167200D01*
X0073441Y0166835D01*
X0065806Y0159200D01*
X0036323Y0159200D01*
X0035441Y0158835D01*
X0025441Y0148835D01*
X0024765Y0148159D01*
X0024400Y0147277D01*
X0024400Y0141323D01*
X0024765Y0140441D01*
X0029765Y0135441D01*
X0030441Y0134765D01*
X0031323Y0134400D01*
X0094777Y0134400D01*
X0095659Y0134765D01*
X0100994Y0140100D01*
X0103540Y0140100D01*
X0106000Y0142560D01*
X0106000Y0146040D01*
X0103540Y0148500D01*
X0100060Y0148500D01*
X0097600Y0146040D01*
X0097600Y0143494D01*
X0093306Y0139200D01*
X0032794Y0139200D01*
X0029200Y0142794D01*
X0029200Y0145806D01*
X0037794Y0154400D01*
X0067277Y0154400D01*
X0068159Y0154765D01*
X0068835Y0155441D01*
X0075794Y0162400D01*
X0076260Y0162400D01*
X0078060Y0160600D01*
X0081540Y0160600D01*
X0084000Y0163060D01*
X0084000Y0166540D01*
X0081540Y0169000D01*
X0078060Y0169000D01*
X0076260Y0167200D01*
X0074800Y0164800D02*
X0066800Y0156800D01*
X0036800Y0156800D01*
X0026800Y0146800D01*
X0026800Y0141800D01*
X0031800Y0136800D01*
X0094300Y0136800D01*
X0101800Y0144300D01*
X0105295Y0141856D02*
X0108461Y0141856D01*
X0109400Y0142794D02*
X0109400Y0145806D01*
X0105806Y0149400D01*
X0097794Y0149400D01*
X0093659Y0145265D01*
X0092777Y0144900D01*
X0083840Y0144900D01*
X0082040Y0143100D01*
X0078560Y0143100D01*
X0076100Y0145560D01*
X0076100Y0149040D01*
X0078560Y0151500D01*
X0082040Y0151500D01*
X0083840Y0149700D01*
X0091306Y0149700D01*
X0094765Y0153159D01*
X0095441Y0153835D01*
X0096323Y0154200D01*
X0107277Y0154200D01*
X0108159Y0153835D01*
X0113159Y0148835D01*
X0113835Y0148159D01*
X0114200Y0147277D01*
X0114200Y0141323D01*
X0113835Y0140441D01*
X0094876Y0121482D01*
X0095885Y0121900D01*
X0097715Y0121900D01*
X0099406Y0121200D01*
X0100700Y0119906D01*
X0101400Y0118215D01*
X0101400Y0110385D01*
X0100700Y0108694D01*
X0099406Y0107400D01*
X0097715Y0106700D01*
X0095885Y0106700D01*
X0094194Y0107400D01*
X0092900Y0108694D01*
X0092200Y0110385D01*
X0092200Y0118215D01*
X0092618Y0119224D01*
X0091400Y0118006D01*
X0091400Y0110385D01*
X0090700Y0108694D01*
X0089406Y0107400D01*
X0087715Y0106700D01*
X0085885Y0106700D01*
X0084194Y0107400D01*
X0082900Y0108694D01*
X0082200Y0110385D01*
X0082200Y0118215D01*
X0082900Y0119906D01*
X0084194Y0121200D01*
X0085885Y0121900D01*
X0087715Y0121900D01*
X0088274Y0121668D01*
X0109400Y0142794D01*
X0109400Y0143454D02*
X0106000Y0143454D01*
X0106000Y0145053D02*
X0109400Y0145053D01*
X0108555Y0146651D02*
X0105389Y0146651D01*
X0106956Y0148250D02*
X0103790Y0148250D01*
X0099810Y0148250D02*
X0096644Y0148250D01*
X0098211Y0146651D02*
X0095045Y0146651D01*
X0093146Y0145053D02*
X0097600Y0145053D01*
X0097560Y0143454D02*
X0082394Y0143454D01*
X0078206Y0143454D02*
X0042394Y0143454D01*
X0042040Y0143100D02*
X0043840Y0144900D01*
X0067777Y0144900D01*
X0068659Y0145265D01*
X0069335Y0145941D01*
X0077794Y0154400D01*
X0136277Y0154400D01*
X0137159Y0154765D01*
X0141494Y0159100D01*
X0144040Y0159100D01*
X0146500Y0161560D01*
X0146500Y0165040D01*
X0144040Y0167500D01*
X0140560Y0167500D01*
X0138100Y0165040D01*
X0138100Y0162494D01*
X0134806Y0159200D01*
X0104423Y0159200D01*
X0106700Y0161477D01*
X0106700Y0163300D01*
X0106700Y0165123D01*
X0104123Y0167700D01*
X0102300Y0167700D01*
X0102300Y0163300D01*
X0102300Y0163300D01*
X0106700Y0163300D01*
X0102300Y0163300D01*
X0102300Y0163300D01*
X0102300Y0163300D01*
X0097900Y0163300D01*
X0097900Y0165123D01*
X0100477Y0167700D01*
X0102300Y0167700D01*
X0102300Y0163300D01*
X0097900Y0163300D01*
X0097900Y0161477D01*
X0100177Y0159200D01*
X0076323Y0159200D01*
X0075441Y0158835D01*
X0074765Y0158159D01*
X0066306Y0149700D01*
X0043840Y0149700D01*
X0042040Y0151500D01*
X0038560Y0151500D01*
X0036100Y0149040D01*
X0036100Y0145560D01*
X0038560Y0143100D01*
X0042040Y0143100D01*
X0038206Y0143454D02*
X0029200Y0143454D01*
X0029200Y0145053D02*
X0036608Y0145053D01*
X0036100Y0146651D02*
X0030045Y0146651D01*
X0031644Y0148250D02*
X0036100Y0148250D01*
X0036908Y0149848D02*
X0033242Y0149848D01*
X0034841Y0151447D02*
X0038507Y0151447D01*
X0036439Y0153045D02*
X0069651Y0153045D01*
X0068053Y0151447D02*
X0042093Y0151447D01*
X0043692Y0149848D02*
X0066454Y0149848D01*
X0067300Y0147300D02*
X0076800Y0156800D01*
X0135800Y0156800D01*
X0142300Y0163300D01*
X0145706Y0165833D02*
X0164611Y0165833D01*
X0163400Y0164623D02*
X0165977Y0167200D01*
X0167800Y0167200D01*
X0169623Y0167200D01*
X0172200Y0164623D01*
X0172200Y0162800D01*
X0167800Y0162800D01*
X0167800Y0162800D01*
X0167800Y0162800D01*
X0167800Y0167200D01*
X0167800Y0162800D01*
X0172200Y0162800D01*
X0172200Y0160977D01*
X0169623Y0158400D01*
X0167800Y0158400D01*
X0167800Y0162800D01*
X0167800Y0162800D01*
X0167800Y0162800D01*
X0163400Y0162800D01*
X0163400Y0164623D01*
X0163400Y0164235D02*
X0146500Y0164235D01*
X0146500Y0162636D02*
X0163400Y0162636D01*
X0163400Y0162800D02*
X0163400Y0160977D01*
X0165977Y0158400D01*
X0167800Y0158400D01*
X0167800Y0162800D01*
X0163400Y0162800D01*
X0163400Y0161038D02*
X0145977Y0161038D01*
X0144379Y0159439D02*
X0164938Y0159439D01*
X0167800Y0159439D02*
X0167800Y0159439D01*
X0167800Y0161038D02*
X0167800Y0161038D01*
X0167800Y0162636D02*
X0167800Y0162636D01*
X0167800Y0164235D02*
X0167800Y0164235D01*
X0167800Y0165833D02*
X0167800Y0165833D01*
X0170989Y0165833D02*
X0204894Y0165833D01*
X0206060Y0167000D02*
X0203600Y0164540D01*
X0203600Y0161994D01*
X0187306Y0145700D01*
X0169340Y0145700D01*
X0167540Y0147500D01*
X0164060Y0147500D01*
X0161600Y0145040D01*
X0161600Y0141560D01*
X0164060Y0139100D01*
X0167540Y0139100D01*
X0169340Y0140900D01*
X0188777Y0140900D01*
X0189659Y0141265D01*
X0206994Y0158600D01*
X0209540Y0158600D01*
X0212000Y0161060D01*
X0212000Y0164540D01*
X0209540Y0167000D01*
X0206060Y0167000D01*
X0203600Y0164235D02*
X0172200Y0164235D01*
X0172200Y0162636D02*
X0203600Y0162636D01*
X0202644Y0161038D02*
X0172200Y0161038D01*
X0170662Y0159439D02*
X0201045Y0159439D01*
X0199447Y0157841D02*
X0140235Y0157841D01*
X0138636Y0156242D02*
X0197848Y0156242D01*
X0196250Y0154644D02*
X0136866Y0154644D01*
X0135045Y0159439D02*
X0104662Y0159439D01*
X0106260Y0161038D02*
X0136644Y0161038D01*
X0138100Y0162636D02*
X0106700Y0162636D01*
X0106700Y0164235D02*
X0138100Y0164235D01*
X0138894Y0165833D02*
X0105989Y0165833D01*
X0104391Y0167432D02*
X0140492Y0167432D01*
X0144108Y0167432D02*
X0237428Y0167432D01*
X0238727Y0165833D02*
X0210706Y0165833D01*
X0212000Y0164235D02*
X0382000Y0164235D01*
X0382000Y0165833D02*
X0248873Y0165833D01*
X0250172Y0167432D02*
X0382000Y0167432D01*
X0382000Y0169030D02*
X0250600Y0169030D01*
X0250396Y0170629D02*
X0382000Y0170629D01*
X0382000Y0172227D02*
X0249412Y0172227D01*
X0248018Y0175424D02*
X0382000Y0175424D01*
X0382000Y0173826D02*
X0027220Y0173826D01*
X0023629Y0177023D02*
X0020417Y0177023D01*
X0019200Y0175424D02*
X0022030Y0175424D01*
X0020432Y0173826D02*
X0019200Y0173826D01*
X0019200Y0172227D02*
X0019400Y0172227D01*
X0019400Y0170629D02*
X0019200Y0170629D01*
X0019200Y0169030D02*
X0019400Y0169030D01*
X0019400Y0167432D02*
X0019200Y0167432D01*
X0019200Y0165833D02*
X0019400Y0165833D01*
X0019400Y0164235D02*
X0019200Y0164235D01*
X0019200Y0162636D02*
X0019400Y0162636D01*
X0019400Y0161038D02*
X0019200Y0161038D01*
X0019200Y0159439D02*
X0019400Y0159439D01*
X0019400Y0157841D02*
X0019200Y0157841D01*
X0019200Y0156242D02*
X0019400Y0156242D01*
X0019400Y0154644D02*
X0019200Y0154644D01*
X0019200Y0153045D02*
X0019400Y0153045D01*
X0019400Y0151447D02*
X0019200Y0151447D01*
X0019200Y0149848D02*
X0019400Y0149848D01*
X0019400Y0148250D02*
X0019200Y0148250D01*
X0019200Y0146651D02*
X0019400Y0146651D01*
X0019400Y0145053D02*
X0019200Y0145053D01*
X0019200Y0143454D02*
X0019400Y0143454D01*
X0019400Y0141856D02*
X0019200Y0141856D01*
X0019200Y0140257D02*
X0019400Y0140257D01*
X0019400Y0138659D02*
X0019200Y0138659D01*
X0019200Y0137060D02*
X0019400Y0137060D01*
X0019400Y0135462D02*
X0019200Y0135462D01*
X0019200Y0133863D02*
X0019400Y0133863D01*
X0019400Y0132265D02*
X0019200Y0132265D01*
X0019200Y0130666D02*
X0019400Y0130666D01*
X0019400Y0129068D02*
X0019200Y0129068D01*
X0019200Y0127469D02*
X0019400Y0127469D01*
X0019400Y0125870D02*
X0019200Y0125870D01*
X0019200Y0124272D02*
X0019400Y0124272D01*
X0019400Y0122673D02*
X0019200Y0122673D01*
X0019200Y0121075D02*
X0019400Y0121075D01*
X0019400Y0119476D02*
X0019200Y0119476D01*
X0019200Y0117878D02*
X0019400Y0117878D01*
X0019400Y0116279D02*
X0019200Y0116279D01*
X0019200Y0114681D02*
X0019400Y0114681D01*
X0019400Y0113082D02*
X0019200Y0113082D01*
X0019200Y0111484D02*
X0019400Y0111484D01*
X0019400Y0109885D02*
X0019200Y0109885D01*
X0019200Y0108287D02*
X0019400Y0108287D01*
X0019400Y0106688D02*
X0019200Y0106688D01*
X0019200Y0105090D02*
X0019400Y0105090D01*
X0019400Y0103491D02*
X0019200Y0103491D01*
X0019200Y0101893D02*
X0019400Y0101893D01*
X0019400Y0100294D02*
X0019200Y0100294D01*
X0019200Y0098696D02*
X0019400Y0098696D01*
X0019400Y0097097D02*
X0019200Y0097097D01*
X0019200Y0095499D02*
X0019400Y0095499D01*
X0019400Y0093900D02*
X0019200Y0093900D01*
X0019200Y0092302D02*
X0019400Y0092302D01*
X0019400Y0090703D02*
X0019200Y0090703D01*
X0019200Y0089105D02*
X0019400Y0089105D01*
X0019400Y0087506D02*
X0019200Y0087506D01*
X0019200Y0085908D02*
X0019400Y0085908D01*
X0019400Y0084309D02*
X0019200Y0084309D01*
X0019200Y0082711D02*
X0019400Y0082711D01*
X0019400Y0081112D02*
X0019200Y0081112D01*
X0019200Y0079514D02*
X0019400Y0079514D01*
X0019400Y0077915D02*
X0019200Y0077915D01*
X0019200Y0076317D02*
X0019400Y0076317D01*
X0019400Y0074718D02*
X0019200Y0074718D01*
X0019200Y0073120D02*
X0019400Y0073120D01*
X0019400Y0071521D02*
X0019200Y0071521D01*
X0019200Y0069923D02*
X0020283Y0069923D01*
X0019200Y0068324D02*
X0021882Y0068324D01*
X0023480Y0066726D02*
X0020269Y0066726D01*
X0021867Y0065127D02*
X0025079Y0065127D01*
X0026677Y0063529D02*
X0023466Y0063529D01*
X0025064Y0061930D02*
X0028276Y0061930D01*
X0029874Y0060332D02*
X0026663Y0060332D01*
X0028261Y0058733D02*
X0031473Y0058733D01*
X0033071Y0057134D02*
X0029860Y0057134D01*
X0031458Y0055536D02*
X0034670Y0055536D01*
X0036268Y0053937D02*
X0033057Y0053937D01*
X0034655Y0052339D02*
X0037867Y0052339D01*
X0039465Y0050740D02*
X0036254Y0050740D01*
X0037852Y0049142D02*
X0041064Y0049142D01*
X0042662Y0047543D02*
X0039451Y0047543D01*
X0041049Y0045945D02*
X0044261Y0045945D01*
X0045859Y0044346D02*
X0042648Y0044346D01*
X0044246Y0042748D02*
X0047458Y0042748D01*
X0049056Y0041149D02*
X0045845Y0041149D01*
X0047443Y0039551D02*
X0050655Y0039551D01*
X0052254Y0037952D02*
X0049042Y0037952D01*
X0050640Y0036354D02*
X0053852Y0036354D01*
X0055451Y0034755D02*
X0052239Y0034755D01*
X0053837Y0033157D02*
X0057049Y0033157D01*
X0058648Y0031558D02*
X0055436Y0031558D01*
X0057034Y0029960D02*
X0060246Y0029960D01*
X0061800Y0031800D02*
X0021800Y0071800D01*
X0021800Y0171800D01*
X0036800Y0186800D01*
X0185800Y0186800D01*
X0180800Y0191800D02*
X0191800Y0202800D01*
X0187786Y0210592D02*
X0058986Y0210592D01*
X0060584Y0212190D02*
X0187400Y0212190D01*
X0187400Y0213789D02*
X0062183Y0213789D01*
X0063781Y0215387D02*
X0185819Y0215387D01*
X0184220Y0216986D02*
X0065380Y0216986D01*
X0066978Y0218584D02*
X0182622Y0218584D01*
X0181023Y0220183D02*
X0068577Y0220183D01*
X0070175Y0221781D02*
X0179425Y0221781D01*
X0177826Y0223380D02*
X0071774Y0223380D01*
X0073372Y0224978D02*
X0176228Y0224978D01*
X0174629Y0226577D02*
X0074971Y0226577D01*
X0076569Y0228175D02*
X0173031Y0228175D01*
X0171432Y0229774D02*
X0078168Y0229774D01*
X0079766Y0231372D02*
X0169834Y0231372D01*
X0168235Y0232971D02*
X0081365Y0232971D01*
X0082963Y0234569D02*
X0166637Y0234569D01*
X0165038Y0236168D02*
X0084562Y0236168D01*
X0086160Y0237766D02*
X0163440Y0237766D01*
X0161841Y0239365D02*
X0087759Y0239365D01*
X0089357Y0240963D02*
X0160243Y0240963D01*
X0158644Y0242562D02*
X0090956Y0242562D01*
X0092554Y0244160D02*
X0157046Y0244160D01*
X0155447Y0245759D02*
X0094153Y0245759D01*
X0095751Y0247357D02*
X0154400Y0247357D01*
X0154400Y0248956D02*
X0097350Y0248956D01*
X0098948Y0250554D02*
X0154400Y0250554D01*
X0154400Y0252153D02*
X0100547Y0252153D01*
X0102145Y0253751D02*
X0154400Y0253751D01*
X0154400Y0255350D02*
X0103744Y0255350D01*
X0105343Y0256948D02*
X0154400Y0256948D01*
X0154400Y0258547D02*
X0106941Y0258547D01*
X0108540Y0260145D02*
X0154400Y0260145D01*
X0154400Y0261744D02*
X0110138Y0261744D01*
X0111737Y0263342D02*
X0154400Y0263342D01*
X0154400Y0264941D02*
X0113335Y0264941D01*
X0114934Y0266539D02*
X0154400Y0266539D01*
X0154400Y0268138D02*
X0116532Y0268138D01*
X0118131Y0269737D02*
X0154400Y0269737D01*
X0154400Y0271335D02*
X0119729Y0271335D01*
X0121328Y0272934D02*
X0154400Y0272934D01*
X0154400Y0274532D02*
X0122926Y0274532D01*
X0124525Y0276131D02*
X0154400Y0276131D01*
X0154400Y0277729D02*
X0126123Y0277729D01*
X0127722Y0279328D02*
X0154400Y0279328D01*
X0154400Y0280926D02*
X0129320Y0280926D01*
X0130919Y0282525D02*
X0154400Y0282525D01*
X0154400Y0284123D02*
X0132517Y0284123D01*
X0134116Y0285722D02*
X0154400Y0285722D01*
X0154400Y0287320D02*
X0135714Y0287320D01*
X0137313Y0288919D02*
X0154400Y0288919D01*
X0154400Y0290517D02*
X0138911Y0290517D01*
X0140510Y0292116D02*
X0154400Y0292116D01*
X0154400Y0293714D02*
X0142108Y0293714D01*
X0143707Y0295313D02*
X0154400Y0295313D01*
X0154400Y0296911D02*
X0145305Y0296911D01*
X0146904Y0298510D02*
X0154400Y0298510D01*
X0154400Y0300108D02*
X0148502Y0300108D01*
X0150101Y0301707D02*
X0154400Y0301707D01*
X0154911Y0303305D02*
X0151699Y0303305D01*
X0153298Y0304904D02*
X0156510Y0304904D01*
X0158108Y0306502D02*
X0154896Y0306502D01*
X0156495Y0308101D02*
X0159707Y0308101D01*
X0161305Y0309699D02*
X0158093Y0309699D01*
X0159692Y0311298D02*
X0162904Y0311298D01*
X0164502Y0312896D02*
X0161290Y0312896D01*
X0162889Y0314495D02*
X0166101Y0314495D01*
X0167699Y0316093D02*
X0164487Y0316093D01*
X0166086Y0317692D02*
X0169298Y0317692D01*
X0170896Y0319290D02*
X0167684Y0319290D01*
X0169283Y0320889D02*
X0172495Y0320889D01*
X0174093Y0322487D02*
X0170881Y0322487D01*
X0172480Y0324086D02*
X0175692Y0324086D01*
X0177290Y0325684D02*
X0174079Y0325684D01*
X0175677Y0327283D02*
X0178889Y0327283D01*
X0180487Y0328881D02*
X0177276Y0328881D01*
X0178874Y0330480D02*
X0182086Y0330480D01*
X0183684Y0332078D02*
X0180473Y0332078D01*
X0182071Y0333677D02*
X0185283Y0333677D01*
X0186881Y0335275D02*
X0183670Y0335275D01*
X0185268Y0336874D02*
X0188480Y0336874D01*
X0190078Y0338472D02*
X0186867Y0338472D01*
X0188465Y0340071D02*
X0191677Y0340071D01*
X0193275Y0341670D02*
X0190064Y0341670D01*
X0191662Y0343268D02*
X0194874Y0343268D01*
X0196472Y0344867D02*
X0193261Y0344867D01*
X0194859Y0346465D02*
X0198071Y0346465D01*
X0199669Y0348064D02*
X0196458Y0348064D01*
X0198056Y0349662D02*
X0201268Y0349662D01*
X0202866Y0351261D02*
X0199655Y0351261D01*
X0201253Y0352859D02*
X0204465Y0352859D01*
X0206063Y0354458D02*
X0202852Y0354458D01*
X0204450Y0356056D02*
X0207662Y0356056D01*
X0209261Y0357655D02*
X0206049Y0357655D01*
X0207647Y0359253D02*
X0295953Y0359253D01*
X0297551Y0357655D02*
X0294339Y0357655D01*
X0295938Y0356056D02*
X0299150Y0356056D01*
X0300748Y0354458D02*
X0297536Y0354458D01*
X0299135Y0352859D02*
X0302347Y0352859D01*
X0303945Y0351261D02*
X0300734Y0351261D01*
X0302332Y0349662D02*
X0305544Y0349662D01*
X0307142Y0348064D02*
X0303931Y0348064D01*
X0305529Y0346465D02*
X0308741Y0346465D01*
X0310339Y0344867D02*
X0307128Y0344867D01*
X0306800Y0341800D02*
X0291800Y0356800D01*
X0211800Y0356800D01*
X0156800Y0301800D01*
X0156800Y0247800D01*
X0191800Y0212800D01*
X0195405Y0220183D02*
X0198195Y0220183D01*
X0197400Y0221781D02*
X0196200Y0221781D01*
X0203807Y0218584D02*
X0237000Y0218584D01*
X0237020Y0220183D02*
X0205405Y0220183D01*
X0206200Y0221781D02*
X0237741Y0221781D01*
X0236326Y0223380D02*
X0206200Y0223380D01*
X0205844Y0224978D02*
X0234728Y0224978D01*
X0236720Y0229774D02*
X0237000Y0229774D01*
X0237512Y0231372D02*
X0235122Y0231372D01*
X0233523Y0232971D02*
X0236735Y0232971D01*
X0235137Y0234569D02*
X0231925Y0234569D01*
X0230300Y0232800D02*
X0243800Y0219300D01*
X0237613Y0216986D02*
X0203837Y0216986D01*
X0204996Y0229774D02*
X0229932Y0229774D01*
X0230300Y0232800D02*
X0201800Y0232800D01*
X0189013Y0239365D02*
X0188629Y0239365D01*
X0187414Y0240963D02*
X0187031Y0240963D01*
X0187400Y0242562D02*
X0185432Y0242562D01*
X0183834Y0244160D02*
X0187400Y0244160D01*
X0188536Y0245759D02*
X0182235Y0245759D01*
X0174400Y0268138D02*
X0169200Y0268138D01*
X0169200Y0269737D02*
X0174400Y0269737D01*
X0174400Y0271335D02*
X0169200Y0271335D01*
X0169200Y0272934D02*
X0174400Y0272934D01*
X0174400Y0274532D02*
X0169200Y0274532D01*
X0169200Y0276131D02*
X0174400Y0276131D01*
X0174400Y0277729D02*
X0169200Y0277729D01*
X0169200Y0279328D02*
X0174400Y0279328D01*
X0174400Y0280926D02*
X0169200Y0280926D01*
X0169200Y0282525D02*
X0174400Y0282525D01*
X0174400Y0284123D02*
X0169200Y0284123D01*
X0169200Y0285722D02*
X0174400Y0285722D01*
X0174400Y0287320D02*
X0169200Y0287320D01*
X0169200Y0288919D02*
X0174400Y0288919D01*
X0174400Y0290517D02*
X0169200Y0290517D01*
X0169200Y0292116D02*
X0174400Y0292116D01*
X0174400Y0293714D02*
X0169200Y0293714D01*
X0169200Y0295313D02*
X0174400Y0295313D01*
X0174400Y0296911D02*
X0169200Y0296911D01*
X0169200Y0298510D02*
X0174400Y0298510D01*
X0174400Y0300108D02*
X0169200Y0300108D01*
X0170101Y0301707D02*
X0174400Y0301707D01*
X0174911Y0303305D02*
X0171699Y0303305D01*
X0173298Y0304904D02*
X0176503Y0304904D01*
X0178095Y0306502D02*
X0174896Y0306502D01*
X0176495Y0308101D02*
X0179686Y0308101D01*
X0181278Y0309699D02*
X0178093Y0309699D01*
X0179692Y0311298D02*
X0182869Y0311298D01*
X0181290Y0312896D02*
X0184460Y0312896D01*
X0182889Y0314495D02*
X0186052Y0314495D01*
X0184487Y0316093D02*
X0187643Y0316093D01*
X0186086Y0317692D02*
X0189235Y0317692D01*
X0187684Y0319290D02*
X0190826Y0319290D01*
X0189283Y0320889D02*
X0192417Y0320889D01*
X0190881Y0322487D02*
X0194009Y0322487D01*
X0192480Y0324086D02*
X0195600Y0324086D01*
X0194079Y0325684D02*
X0197192Y0325684D01*
X0195677Y0327283D02*
X0198783Y0327283D01*
X0197276Y0328881D02*
X0200374Y0328881D01*
X0198874Y0330480D02*
X0201966Y0330480D01*
X0200473Y0332078D02*
X0203557Y0332078D01*
X0202071Y0333677D02*
X0205149Y0333677D01*
X0203670Y0335275D02*
X0206740Y0335275D01*
X0205268Y0336874D02*
X0208332Y0336874D01*
X0206867Y0338472D02*
X0209923Y0338472D01*
X0208465Y0340071D02*
X0211514Y0340071D01*
X0210064Y0341670D02*
X0213106Y0341670D01*
X0211662Y0343268D02*
X0214697Y0343268D01*
X0213261Y0344867D02*
X0216289Y0344867D01*
X0214859Y0346465D02*
X0217880Y0346465D01*
X0216458Y0348064D02*
X0219471Y0348064D01*
X0216800Y0351800D02*
X0286800Y0351800D01*
X0296800Y0341800D01*
X0296800Y0337800D01*
X0301000Y0338472D02*
X0302600Y0338472D01*
X0302600Y0336874D02*
X0301000Y0336874D01*
X0301000Y0335275D02*
X0302600Y0335275D01*
X0302885Y0333677D02*
X0300715Y0333677D01*
X0299618Y0332078D02*
X0303982Y0332078D01*
X0309618Y0332078D02*
X0313982Y0332078D01*
X0312885Y0333677D02*
X0310715Y0333677D01*
X0311000Y0335275D02*
X0312600Y0335275D01*
X0312600Y0336874D02*
X0311000Y0336874D01*
X0311000Y0338472D02*
X0312600Y0338472D01*
X0312600Y0340071D02*
X0311000Y0340071D01*
X0310820Y0341670D02*
X0312780Y0341670D01*
X0311938Y0343268D02*
X0309872Y0343268D01*
X0306800Y0341800D02*
X0306800Y0337800D01*
X0302600Y0340071D02*
X0301000Y0340071D01*
X0300820Y0341670D02*
X0302780Y0341670D01*
X0301938Y0343268D02*
X0299872Y0343268D01*
X0300339Y0344867D02*
X0297128Y0344867D01*
X0295529Y0346465D02*
X0298741Y0346465D01*
X0297142Y0348064D02*
X0293931Y0348064D01*
X0292332Y0349662D02*
X0295544Y0349662D01*
X0293945Y0351261D02*
X0290734Y0351261D01*
X0289135Y0352859D02*
X0292347Y0352859D01*
X0288741Y0346465D02*
X0285529Y0346465D01*
X0283931Y0348064D02*
X0287142Y0348064D01*
X0287128Y0344867D02*
X0290339Y0344867D01*
X0289872Y0343268D02*
X0291938Y0343268D01*
X0292780Y0341670D02*
X0290820Y0341670D01*
X0291000Y0340071D02*
X0292600Y0340071D01*
X0292600Y0338472D02*
X0291000Y0338472D01*
X0291000Y0336874D02*
X0292600Y0336874D01*
X0292600Y0335275D02*
X0291000Y0335275D01*
X0290715Y0333677D02*
X0292885Y0333677D01*
X0293982Y0332078D02*
X0289618Y0332078D01*
X0286800Y0336800D02*
X0286800Y0337800D01*
X0286800Y0341800D01*
X0281800Y0346800D01*
X0273728Y0343268D02*
X0269872Y0343268D01*
X0270820Y0341670D02*
X0272780Y0341670D01*
X0272600Y0340071D02*
X0271000Y0340071D01*
X0271000Y0338472D02*
X0272600Y0338472D01*
X0272600Y0336874D02*
X0271000Y0336874D01*
X0271000Y0335275D02*
X0272600Y0335275D01*
X0272885Y0333677D02*
X0270715Y0333677D01*
X0269618Y0332078D02*
X0273982Y0332078D01*
X0274400Y0330480D02*
X0269200Y0330480D01*
X0269200Y0328881D02*
X0274400Y0328881D01*
X0274400Y0327283D02*
X0269200Y0327283D01*
X0269200Y0325684D02*
X0274400Y0325684D01*
X0274400Y0324086D02*
X0269200Y0324086D01*
X0269200Y0322487D02*
X0274400Y0322487D01*
X0274400Y0320889D02*
X0269200Y0320889D01*
X0269200Y0319290D02*
X0274400Y0319290D01*
X0274298Y0317692D02*
X0269200Y0317692D01*
X0269105Y0316093D02*
X0272699Y0316093D01*
X0271101Y0314495D02*
X0267889Y0314495D01*
X0266290Y0312896D02*
X0269502Y0312896D01*
X0267904Y0311298D02*
X0264692Y0311298D01*
X0263093Y0309699D02*
X0266305Y0309699D01*
X0264707Y0308101D02*
X0261495Y0308101D01*
X0259896Y0306502D02*
X0263108Y0306502D01*
X0261510Y0304904D02*
X0258298Y0304904D01*
X0256699Y0303305D02*
X0259911Y0303305D01*
X0258313Y0301707D02*
X0255101Y0301707D01*
X0253502Y0300108D02*
X0256714Y0300108D01*
X0255116Y0298510D02*
X0251904Y0298510D01*
X0250305Y0296911D02*
X0253517Y0296911D01*
X0251919Y0295313D02*
X0248707Y0295313D01*
X0247108Y0293714D02*
X0250320Y0293714D01*
X0248722Y0292116D02*
X0245510Y0292116D01*
X0243911Y0290517D02*
X0247123Y0290517D01*
X0245525Y0288919D02*
X0242313Y0288919D01*
X0240714Y0287320D02*
X0243926Y0287320D01*
X0242328Y0285722D02*
X0239116Y0285722D01*
X0237517Y0284123D02*
X0240729Y0284123D01*
X0239130Y0282525D02*
X0235919Y0282525D01*
X0234320Y0280926D02*
X0237532Y0280926D01*
X0235933Y0279328D02*
X0204550Y0279328D01*
X0202800Y0281800D02*
X0201800Y0282800D01*
X0202800Y0281800D02*
X0231800Y0281800D01*
X0266800Y0316800D01*
X0266800Y0337800D01*
X0262600Y0338472D02*
X0261200Y0338472D01*
X0261200Y0337800D02*
X0256800Y0337800D01*
X0256800Y0337800D01*
X0256800Y0330800D01*
X0257146Y0330800D01*
X0257830Y0330908D01*
X0258489Y0331122D01*
X0259106Y0331437D01*
X0259666Y0331844D01*
X0260156Y0332334D01*
X0260563Y0332894D01*
X0260878Y0333511D01*
X0261092Y0334170D01*
X0261200Y0334854D01*
X0261200Y0337800D01*
X0261200Y0336874D02*
X0262600Y0336874D01*
X0262600Y0335275D02*
X0261200Y0335275D01*
X0260932Y0333677D02*
X0262885Y0333677D01*
X0263982Y0332078D02*
X0259901Y0332078D01*
X0256800Y0332078D02*
X0256800Y0332078D01*
X0256800Y0330800D02*
X0256800Y0337800D01*
X0256800Y0337800D01*
X0256800Y0337800D01*
X0252400Y0337800D01*
X0252400Y0334854D01*
X0252508Y0334170D01*
X0252722Y0333511D01*
X0253037Y0332894D01*
X0253444Y0332334D01*
X0253934Y0331844D01*
X0254494Y0331437D01*
X0255111Y0331122D01*
X0255770Y0330908D01*
X0256454Y0330800D01*
X0256800Y0330800D01*
X0256800Y0333677D02*
X0256800Y0333677D01*
X0256800Y0335275D02*
X0256800Y0335275D01*
X0256800Y0336874D02*
X0256800Y0336874D01*
X0252668Y0333677D02*
X0250715Y0333677D01*
X0251000Y0335275D02*
X0252400Y0335275D01*
X0252400Y0336874D02*
X0251000Y0336874D01*
X0251000Y0338472D02*
X0252400Y0338472D01*
X0252400Y0340071D02*
X0251000Y0340071D01*
X0250820Y0341670D02*
X0252586Y0341670D01*
X0253445Y0343268D02*
X0249872Y0343268D01*
X0243728Y0343268D02*
X0239872Y0343268D01*
X0240820Y0341670D02*
X0242780Y0341670D01*
X0242600Y0340071D02*
X0241000Y0340071D01*
X0241000Y0338472D02*
X0242600Y0338472D01*
X0242600Y0336874D02*
X0241000Y0336874D01*
X0241000Y0335275D02*
X0242600Y0335275D01*
X0242885Y0333677D02*
X0240715Y0333677D01*
X0239618Y0332078D02*
X0243982Y0332078D01*
X0249618Y0332078D02*
X0253699Y0332078D01*
X0261200Y0340071D02*
X0262600Y0340071D01*
X0262780Y0341670D02*
X0261014Y0341670D01*
X0260155Y0343268D02*
X0263728Y0343268D01*
X0264400Y0330480D02*
X0208739Y0330480D01*
X0210330Y0332078D02*
X0233982Y0332078D01*
X0232885Y0333677D02*
X0211922Y0333677D01*
X0213513Y0335275D02*
X0232600Y0335275D01*
X0232600Y0336874D02*
X0215105Y0336874D01*
X0216696Y0338472D02*
X0232600Y0338472D01*
X0232600Y0340071D02*
X0218287Y0340071D01*
X0219879Y0341670D02*
X0232780Y0341670D01*
X0233728Y0343268D02*
X0221470Y0343268D01*
X0207148Y0328881D02*
X0264400Y0328881D01*
X0264400Y0327283D02*
X0205556Y0327283D01*
X0203965Y0325684D02*
X0264400Y0325684D01*
X0264400Y0324086D02*
X0202373Y0324086D01*
X0200782Y0322487D02*
X0264400Y0322487D01*
X0264400Y0320889D02*
X0199191Y0320889D01*
X0197599Y0319290D02*
X0264400Y0319290D01*
X0264298Y0317692D02*
X0196008Y0317692D01*
X0194416Y0316093D02*
X0262699Y0316093D01*
X0261101Y0314495D02*
X0192825Y0314495D01*
X0191234Y0312896D02*
X0259502Y0312896D01*
X0257904Y0311298D02*
X0189642Y0311298D01*
X0188051Y0309699D02*
X0256305Y0309699D01*
X0254707Y0308101D02*
X0186459Y0308101D01*
X0184868Y0306502D02*
X0253108Y0306502D01*
X0251510Y0304904D02*
X0183277Y0304904D01*
X0181685Y0303305D02*
X0249911Y0303305D01*
X0248313Y0301707D02*
X0180094Y0301707D01*
X0179200Y0300108D02*
X0246714Y0300108D01*
X0245116Y0298510D02*
X0179200Y0298510D01*
X0179200Y0277729D02*
X0234335Y0277729D01*
X0232736Y0276131D02*
X0204692Y0276131D01*
X0206200Y0274532D02*
X0231138Y0274532D01*
X0231800Y0271800D02*
X0202800Y0271800D01*
X0201800Y0272800D01*
X0204283Y0266539D02*
X0333666Y0266539D01*
X0335265Y0264941D02*
X0205882Y0264941D01*
X0206200Y0263342D02*
X0336863Y0263342D01*
X0338462Y0261744D02*
X0206200Y0261744D01*
X0205368Y0260145D02*
X0340060Y0260145D01*
X0341659Y0258547D02*
X0203769Y0258547D01*
X0203874Y0256948D02*
X0343257Y0256948D01*
X0344856Y0255350D02*
X0205473Y0255350D01*
X0206200Y0253751D02*
X0346454Y0253751D01*
X0348053Y0252153D02*
X0249487Y0252153D01*
X0250426Y0250554D02*
X0349652Y0250554D01*
X0351644Y0255350D02*
X0366956Y0255350D01*
X0368554Y0256948D02*
X0350046Y0256948D01*
X0348447Y0258547D02*
X0370153Y0258547D01*
X0371751Y0260145D02*
X0368540Y0260145D01*
X0370138Y0261744D02*
X0373350Y0261744D01*
X0374948Y0263342D02*
X0371737Y0263342D01*
X0373335Y0264941D02*
X0376547Y0264941D01*
X0378145Y0266539D02*
X0374200Y0266539D01*
X0374200Y0268138D02*
X0379400Y0268138D01*
X0379400Y0269737D02*
X0374200Y0269737D01*
X0374200Y0271335D02*
X0379400Y0271335D01*
X0379400Y0272934D02*
X0374200Y0272934D01*
X0374200Y0274532D02*
X0379400Y0274532D01*
X0379400Y0276131D02*
X0374200Y0276131D01*
X0374200Y0277729D02*
X0379400Y0277729D01*
X0379400Y0279328D02*
X0374200Y0279328D01*
X0374200Y0280926D02*
X0379400Y0280926D01*
X0379400Y0282525D02*
X0374200Y0282525D01*
X0374200Y0284123D02*
X0379400Y0284123D01*
X0379400Y0285722D02*
X0374200Y0285722D01*
X0374200Y0287320D02*
X0379400Y0287320D01*
X0379400Y0288919D02*
X0374200Y0288919D01*
X0374200Y0290517D02*
X0379400Y0290517D01*
X0379400Y0292116D02*
X0374200Y0292116D01*
X0374200Y0293714D02*
X0379400Y0293714D01*
X0379400Y0295313D02*
X0374200Y0295313D01*
X0374200Y0296911D02*
X0379400Y0296911D01*
X0379400Y0298510D02*
X0374200Y0298510D01*
X0374200Y0300108D02*
X0379400Y0300108D01*
X0379400Y0301707D02*
X0374200Y0301707D01*
X0374200Y0303305D02*
X0379400Y0303305D01*
X0379400Y0304904D02*
X0374200Y0304904D01*
X0374200Y0306502D02*
X0379400Y0306502D01*
X0379400Y0308101D02*
X0374200Y0308101D01*
X0374200Y0309699D02*
X0379400Y0309699D01*
X0379400Y0311298D02*
X0374200Y0311298D01*
X0374200Y0312896D02*
X0379400Y0312896D01*
X0379400Y0314495D02*
X0374200Y0314495D01*
X0374200Y0316093D02*
X0379400Y0316093D01*
X0379400Y0317692D02*
X0374200Y0317692D01*
X0374200Y0319290D02*
X0379400Y0319290D01*
X0379400Y0320889D02*
X0374200Y0320889D01*
X0374200Y0322487D02*
X0379400Y0322487D01*
X0379400Y0324086D02*
X0374200Y0324086D01*
X0374200Y0325684D02*
X0379400Y0325684D01*
X0379400Y0327283D02*
X0374200Y0327283D01*
X0374200Y0328881D02*
X0379400Y0328881D01*
X0379400Y0330480D02*
X0374200Y0330480D01*
X0374200Y0332078D02*
X0379400Y0332078D01*
X0379400Y0333677D02*
X0374200Y0333677D01*
X0374200Y0335275D02*
X0379400Y0335275D01*
X0378332Y0336874D02*
X0374200Y0336874D01*
X0373522Y0338472D02*
X0376733Y0338472D01*
X0375135Y0340071D02*
X0371923Y0340071D01*
X0370325Y0341670D02*
X0373536Y0341670D01*
X0371938Y0343268D02*
X0368726Y0343268D01*
X0367128Y0344867D02*
X0370339Y0344867D01*
X0368741Y0346465D02*
X0365529Y0346465D01*
X0363931Y0348064D02*
X0367142Y0348064D01*
X0370734Y0351261D02*
X0382000Y0351261D01*
X0382000Y0352859D02*
X0369135Y0352859D01*
X0368835Y0353159D02*
X0368159Y0353835D01*
X0367277Y0354200D01*
X0347794Y0354200D01*
X0318835Y0383159D01*
X0318159Y0383835D01*
X0317277Y0384200D01*
X0186323Y0384200D01*
X0185441Y0383835D01*
X0120806Y0319200D01*
X0016323Y0319200D01*
X0015441Y0318835D01*
X0006600Y0309994D01*
X0006600Y0387000D01*
X0382000Y0387000D01*
X0382000Y0339994D01*
X0368835Y0353159D01*
X0372332Y0349662D02*
X0382000Y0349662D01*
X0382000Y0348064D02*
X0373931Y0348064D01*
X0375529Y0346465D02*
X0382000Y0346465D01*
X0382000Y0344867D02*
X0377128Y0344867D01*
X0378726Y0343268D02*
X0382000Y0343268D01*
X0382000Y0341670D02*
X0380325Y0341670D01*
X0381923Y0340071D02*
X0382000Y0340071D01*
X0371800Y0336800D02*
X0361800Y0346800D01*
X0341800Y0346800D01*
X0311800Y0376800D01*
X0191800Y0376800D01*
X0121800Y0306800D01*
X0016800Y0306800D01*
X0014707Y0308101D02*
X0011495Y0308101D01*
X0013093Y0309699D02*
X0121305Y0309699D01*
X0122904Y0311298D02*
X0014692Y0311298D01*
X0016290Y0312896D02*
X0124502Y0312896D01*
X0126101Y0314495D02*
X0122506Y0314495D01*
X0124487Y0316093D02*
X0127699Y0316093D01*
X0129298Y0317692D02*
X0126086Y0317692D01*
X0127684Y0319290D02*
X0130896Y0319290D01*
X0132495Y0320889D02*
X0129283Y0320889D01*
X0130881Y0322487D02*
X0134093Y0322487D01*
X0135692Y0324086D02*
X0132480Y0324086D01*
X0134079Y0325684D02*
X0137290Y0325684D01*
X0138889Y0327283D02*
X0135677Y0327283D01*
X0137276Y0328881D02*
X0140487Y0328881D01*
X0142086Y0330480D02*
X0138874Y0330480D01*
X0140473Y0332078D02*
X0143684Y0332078D01*
X0145283Y0333677D02*
X0142071Y0333677D01*
X0143670Y0335275D02*
X0146881Y0335275D01*
X0148480Y0336874D02*
X0145268Y0336874D01*
X0146867Y0338472D02*
X0150078Y0338472D01*
X0151677Y0340071D02*
X0148465Y0340071D01*
X0150064Y0341670D02*
X0153275Y0341670D01*
X0154874Y0343268D02*
X0151662Y0343268D01*
X0153261Y0344867D02*
X0156472Y0344867D01*
X0158071Y0346465D02*
X0154859Y0346465D01*
X0156458Y0348064D02*
X0159669Y0348064D01*
X0161268Y0349662D02*
X0158056Y0349662D01*
X0159655Y0351261D02*
X0162866Y0351261D01*
X0164465Y0352859D02*
X0161253Y0352859D01*
X0162852Y0354458D02*
X0166063Y0354458D01*
X0167662Y0356056D02*
X0164450Y0356056D01*
X0166049Y0357655D02*
X0169261Y0357655D01*
X0170859Y0359253D02*
X0167647Y0359253D01*
X0169246Y0360852D02*
X0172458Y0360852D01*
X0174056Y0362450D02*
X0170844Y0362450D01*
X0172443Y0364049D02*
X0175655Y0364049D01*
X0177253Y0365647D02*
X0174041Y0365647D01*
X0175640Y0367246D02*
X0178852Y0367246D01*
X0180450Y0368844D02*
X0177238Y0368844D01*
X0178837Y0370443D02*
X0182049Y0370443D01*
X0183647Y0372041D02*
X0180435Y0372041D01*
X0182034Y0373640D02*
X0185246Y0373640D01*
X0186844Y0375238D02*
X0183632Y0375238D01*
X0185231Y0376837D02*
X0188443Y0376837D01*
X0190041Y0378435D02*
X0186829Y0378435D01*
X0183238Y0381632D02*
X0006600Y0381632D01*
X0006600Y0380034D02*
X0181640Y0380034D01*
X0180041Y0378435D02*
X0006600Y0378435D01*
X0006600Y0376837D02*
X0178443Y0376837D01*
X0176844Y0375238D02*
X0006600Y0375238D01*
X0006600Y0373640D02*
X0175246Y0373640D01*
X0173647Y0372041D02*
X0034813Y0372041D01*
X0034005Y0372508D02*
X0034005Y0372508D01*
X0029109Y0373625D01*
X0024101Y0373250D01*
X0019426Y0371415D01*
X0015500Y0368284D01*
X0012671Y0364135D01*
X0012671Y0364135D01*
X0011191Y0359336D01*
X0011191Y0354314D01*
X0012671Y0349515D01*
X0015500Y0345366D01*
X0015500Y0345366D01*
X0015500Y0345366D01*
X0019426Y0342235D01*
X0019426Y0342235D01*
X0024101Y0340400D01*
X0029109Y0340025D01*
X0034005Y0341142D01*
X0038354Y0343653D01*
X0038354Y0343653D01*
X0038354Y0343653D01*
X0041770Y0347335D01*
X0043949Y0351859D01*
X0043949Y0351859D01*
X0044697Y0356825D01*
X0043949Y0361791D01*
X0041770Y0366315D01*
X0041770Y0366315D01*
X0038354Y0369997D01*
X0034005Y0372508D01*
X0037582Y0370443D02*
X0172049Y0370443D01*
X0170450Y0368844D02*
X0039423Y0368844D01*
X0038354Y0369997D02*
X0038354Y0369997D01*
X0040907Y0367246D02*
X0168852Y0367246D01*
X0167253Y0365647D02*
X0042092Y0365647D01*
X0042861Y0364049D02*
X0165655Y0364049D01*
X0164056Y0362450D02*
X0043631Y0362450D01*
X0043949Y0361791D02*
X0043949Y0361791D01*
X0044090Y0360852D02*
X0162458Y0360852D01*
X0160859Y0359253D02*
X0044331Y0359253D01*
X0044572Y0357655D02*
X0159261Y0357655D01*
X0157662Y0356056D02*
X0044581Y0356056D01*
X0044340Y0354458D02*
X0156063Y0354458D01*
X0154465Y0352859D02*
X0044099Y0352859D01*
X0043660Y0351261D02*
X0152866Y0351261D01*
X0151268Y0349662D02*
X0042891Y0349662D01*
X0042121Y0348064D02*
X0149669Y0348064D01*
X0148071Y0346465D02*
X0040963Y0346465D01*
X0041770Y0347335D02*
X0041770Y0347335D01*
X0039480Y0344867D02*
X0146472Y0344867D01*
X0144874Y0343268D02*
X0037687Y0343268D01*
X0034918Y0341670D02*
X0143275Y0341670D01*
X0141677Y0340071D02*
X0029311Y0340071D01*
X0029109Y0340025D02*
X0029109Y0340025D01*
X0028493Y0340071D02*
X0006600Y0340071D01*
X0006600Y0341670D02*
X0020867Y0341670D01*
X0018131Y0343268D02*
X0006600Y0343268D01*
X0006600Y0344867D02*
X0016126Y0344867D01*
X0014751Y0346465D02*
X0006600Y0346465D01*
X0006600Y0348064D02*
X0013661Y0348064D01*
X0012671Y0349515D02*
X0012671Y0349515D01*
X0012626Y0349662D02*
X0006600Y0349662D01*
X0006600Y0351261D02*
X0012133Y0351261D01*
X0011640Y0352859D02*
X0006600Y0352859D01*
X0006600Y0354458D02*
X0011191Y0354458D01*
X0011191Y0356056D02*
X0006600Y0356056D01*
X0006600Y0357655D02*
X0011191Y0357655D01*
X0011191Y0359253D02*
X0006600Y0359253D01*
X0006600Y0360852D02*
X0011658Y0360852D01*
X0012152Y0362450D02*
X0006600Y0362450D01*
X0006600Y0364049D02*
X0012645Y0364049D01*
X0013702Y0365647D02*
X0006600Y0365647D01*
X0006600Y0367246D02*
X0014792Y0367246D01*
X0015500Y0368284D02*
X0015500Y0368284D01*
X0015500Y0368284D01*
X0016203Y0368844D02*
X0006600Y0368844D01*
X0006600Y0370443D02*
X0018207Y0370443D01*
X0019426Y0371415D02*
X0019426Y0371415D01*
X0021022Y0372041D02*
X0006600Y0372041D01*
X0006600Y0383231D02*
X0184837Y0383231D01*
X0192034Y0373640D02*
X0195246Y0373640D01*
X0193647Y0372041D02*
X0190435Y0372041D01*
X0188837Y0370443D02*
X0192049Y0370443D01*
X0190450Y0368844D02*
X0187238Y0368844D01*
X0185640Y0367246D02*
X0188852Y0367246D01*
X0187253Y0365647D02*
X0184041Y0365647D01*
X0182443Y0364049D02*
X0185655Y0364049D01*
X0184056Y0362450D02*
X0180844Y0362450D01*
X0179246Y0360852D02*
X0182458Y0360852D01*
X0180859Y0359253D02*
X0177647Y0359253D01*
X0176049Y0357655D02*
X0179261Y0357655D01*
X0177662Y0356056D02*
X0174450Y0356056D01*
X0172852Y0354458D02*
X0176063Y0354458D01*
X0174465Y0352859D02*
X0171253Y0352859D01*
X0169655Y0351261D02*
X0172866Y0351261D01*
X0171268Y0349662D02*
X0168056Y0349662D01*
X0166458Y0348064D02*
X0169669Y0348064D01*
X0168071Y0346465D02*
X0164859Y0346465D01*
X0163261Y0344867D02*
X0166472Y0344867D01*
X0164874Y0343268D02*
X0161662Y0343268D01*
X0160064Y0341670D02*
X0163275Y0341670D01*
X0161677Y0340071D02*
X0158465Y0340071D01*
X0156867Y0338472D02*
X0160078Y0338472D01*
X0158480Y0336874D02*
X0155268Y0336874D01*
X0153670Y0335275D02*
X0156881Y0335275D01*
X0155283Y0333677D02*
X0152071Y0333677D01*
X0150473Y0332078D02*
X0153684Y0332078D01*
X0152086Y0330480D02*
X0148874Y0330480D01*
X0147276Y0328881D02*
X0150487Y0328881D01*
X0148889Y0327283D02*
X0145677Y0327283D01*
X0144079Y0325684D02*
X0147290Y0325684D01*
X0145692Y0324086D02*
X0142480Y0324086D01*
X0140881Y0322487D02*
X0144093Y0322487D01*
X0142495Y0320889D02*
X0139283Y0320889D01*
X0137684Y0319290D02*
X0140896Y0319290D01*
X0139298Y0317692D02*
X0136086Y0317692D01*
X0134487Y0316093D02*
X0137699Y0316093D01*
X0136101Y0314495D02*
X0132889Y0314495D01*
X0131290Y0312896D02*
X0134502Y0312896D01*
X0132904Y0311298D02*
X0129692Y0311298D01*
X0128093Y0309699D02*
X0131305Y0309699D01*
X0129707Y0308101D02*
X0126495Y0308101D01*
X0124896Y0306502D02*
X0128108Y0306502D01*
X0126510Y0304904D02*
X0123298Y0304904D01*
X0128502Y0300108D02*
X0131714Y0300108D01*
X0130116Y0298510D02*
X0126904Y0298510D01*
X0125305Y0296911D02*
X0128517Y0296911D01*
X0126919Y0295313D02*
X0123707Y0295313D01*
X0122108Y0293714D02*
X0125320Y0293714D01*
X0123722Y0292116D02*
X0120510Y0292116D01*
X0118911Y0290517D02*
X0122123Y0290517D01*
X0120525Y0288919D02*
X0117313Y0288919D01*
X0115714Y0287320D02*
X0118926Y0287320D01*
X0117328Y0285722D02*
X0114116Y0285722D01*
X0112517Y0284123D02*
X0115729Y0284123D01*
X0114130Y0282525D02*
X0110919Y0282525D01*
X0109320Y0280926D02*
X0112532Y0280926D01*
X0110933Y0279328D02*
X0107722Y0279328D01*
X0106123Y0277729D02*
X0109335Y0277729D01*
X0107736Y0276131D02*
X0104525Y0276131D01*
X0102926Y0274532D02*
X0106138Y0274532D01*
X0104539Y0272934D02*
X0101328Y0272934D01*
X0099729Y0271335D02*
X0102941Y0271335D01*
X0101342Y0269737D02*
X0098090Y0269737D01*
X0099744Y0268138D02*
X0013856Y0268138D01*
X0012258Y0269737D02*
X0015510Y0269737D01*
X0013871Y0271335D02*
X0010659Y0271335D01*
X0009200Y0272934D02*
X0012272Y0272934D01*
X0010674Y0274532D02*
X0009200Y0274532D01*
X0009200Y0276131D02*
X0009480Y0276131D01*
X0009400Y0277729D02*
X0009200Y0277729D01*
X0009200Y0279328D02*
X0009400Y0279328D01*
X0009400Y0280926D02*
X0009200Y0280926D01*
X0009200Y0282525D02*
X0009400Y0282525D01*
X0009400Y0284123D02*
X0009200Y0284123D01*
X0009200Y0285722D02*
X0009400Y0285722D01*
X0009400Y0287320D02*
X0009200Y0287320D01*
X0009200Y0288919D02*
X0009400Y0288919D01*
X0009400Y0290517D02*
X0009200Y0290517D01*
X0009200Y0292116D02*
X0009400Y0292116D01*
X0009400Y0293714D02*
X0009200Y0293714D01*
X0009200Y0295313D02*
X0009400Y0295313D01*
X0009400Y0296911D02*
X0009200Y0296911D01*
X0009200Y0298510D02*
X0009400Y0298510D01*
X0009400Y0300108D02*
X0009200Y0300108D01*
X0009200Y0301707D02*
X0009400Y0301707D01*
X0009200Y0303305D02*
X0009911Y0303305D01*
X0009200Y0304904D02*
X0011510Y0304904D01*
X0013108Y0306502D02*
X0009896Y0306502D01*
X0007904Y0311298D02*
X0006600Y0311298D01*
X0006600Y0312896D02*
X0009502Y0312896D01*
X0011101Y0314495D02*
X0006600Y0314495D01*
X0006600Y0316093D02*
X0012699Y0316093D01*
X0014298Y0317692D02*
X0006600Y0317692D01*
X0006600Y0319290D02*
X0120896Y0319290D01*
X0122495Y0320889D02*
X0006600Y0320889D01*
X0006600Y0322487D02*
X0124093Y0322487D01*
X0125692Y0324086D02*
X0006600Y0324086D01*
X0006600Y0325684D02*
X0127290Y0325684D01*
X0128889Y0327283D02*
X0006600Y0327283D01*
X0006600Y0328881D02*
X0130487Y0328881D01*
X0132086Y0330480D02*
X0006600Y0330480D01*
X0006600Y0332078D02*
X0133684Y0332078D01*
X0135283Y0333677D02*
X0006600Y0333677D01*
X0006600Y0335275D02*
X0136881Y0335275D01*
X0138480Y0336874D02*
X0006600Y0336874D01*
X0006600Y0338472D02*
X0140078Y0338472D01*
X0154079Y0325684D02*
X0157290Y0325684D01*
X0155692Y0324086D02*
X0152480Y0324086D01*
X0150881Y0322487D02*
X0154093Y0322487D01*
X0152495Y0320889D02*
X0149283Y0320889D01*
X0147684Y0319290D02*
X0150896Y0319290D01*
X0149298Y0317692D02*
X0146086Y0317692D01*
X0144487Y0316093D02*
X0147699Y0316093D01*
X0146101Y0314495D02*
X0142889Y0314495D01*
X0141290Y0312896D02*
X0144502Y0312896D01*
X0142904Y0311298D02*
X0139692Y0311298D01*
X0138093Y0309699D02*
X0141305Y0309699D01*
X0139707Y0308101D02*
X0136495Y0308101D01*
X0134896Y0306502D02*
X0138108Y0306502D01*
X0136510Y0304904D02*
X0133298Y0304904D01*
X0131699Y0303305D02*
X0134911Y0303305D01*
X0133313Y0301707D02*
X0130101Y0301707D01*
X0135305Y0296911D02*
X0138517Y0296911D01*
X0136919Y0295313D02*
X0133707Y0295313D01*
X0132108Y0293714D02*
X0135320Y0293714D01*
X0133722Y0292116D02*
X0130510Y0292116D01*
X0128911Y0290517D02*
X0132123Y0290517D01*
X0130525Y0288919D02*
X0127313Y0288919D01*
X0125714Y0287320D02*
X0128926Y0287320D01*
X0127328Y0285722D02*
X0124116Y0285722D01*
X0122517Y0284123D02*
X0125729Y0284123D01*
X0124130Y0282525D02*
X0120919Y0282525D01*
X0119320Y0280926D02*
X0122532Y0280926D01*
X0120933Y0279328D02*
X0117722Y0279328D01*
X0116123Y0277729D02*
X0119335Y0277729D01*
X0117736Y0276131D02*
X0114525Y0276131D01*
X0112926Y0274532D02*
X0116138Y0274532D01*
X0114539Y0272934D02*
X0111328Y0272934D01*
X0109729Y0271335D02*
X0112941Y0271335D01*
X0111342Y0269737D02*
X0108131Y0269737D01*
X0106532Y0268138D02*
X0109744Y0268138D01*
X0108145Y0266539D02*
X0104934Y0266539D01*
X0103335Y0264941D02*
X0106547Y0264941D01*
X0104948Y0263342D02*
X0101737Y0263342D01*
X0100138Y0261744D02*
X0103350Y0261744D01*
X0101751Y0260145D02*
X0098540Y0260145D01*
X0100153Y0258547D02*
X0006600Y0258547D01*
X0006600Y0260145D02*
X0015060Y0260145D01*
X0013462Y0261744D02*
X0006600Y0261744D01*
X0006600Y0263342D02*
X0011863Y0263342D01*
X0010265Y0264941D02*
X0006600Y0264941D01*
X0006600Y0266539D02*
X0008666Y0266539D01*
X0007068Y0268138D02*
X0006600Y0268138D01*
X0006600Y0256948D02*
X0019726Y0256948D01*
X0018127Y0255350D02*
X0006600Y0255350D01*
X0006600Y0253751D02*
X0017900Y0253751D01*
X0017900Y0252153D02*
X0006600Y0252153D01*
X0006600Y0250554D02*
X0018823Y0250554D01*
X0020422Y0248956D02*
X0006600Y0248956D01*
X0006600Y0247357D02*
X0020135Y0247357D01*
X0018536Y0245759D02*
X0006600Y0245759D01*
X0006600Y0244160D02*
X0017900Y0244160D01*
X0017900Y0242562D02*
X0006600Y0242562D01*
X0006600Y0240963D02*
X0018414Y0240963D01*
X0020013Y0239365D02*
X0006600Y0239365D01*
X0006600Y0237766D02*
X0079372Y0237766D01*
X0077774Y0236168D02*
X0035655Y0236168D01*
X0036700Y0234569D02*
X0076175Y0234569D01*
X0074577Y0232971D02*
X0036700Y0232971D01*
X0036595Y0231372D02*
X0072978Y0231372D01*
X0071380Y0229774D02*
X0034996Y0229774D01*
X0035246Y0226577D02*
X0068183Y0226577D01*
X0069781Y0228175D02*
X0006600Y0228175D01*
X0006600Y0226577D02*
X0019354Y0226577D01*
X0017900Y0224978D02*
X0006600Y0224978D01*
X0006600Y0223380D02*
X0017900Y0223380D01*
X0017900Y0221781D02*
X0006600Y0221781D01*
X0006600Y0220183D02*
X0019195Y0220183D01*
X0019763Y0216986D02*
X0006600Y0216986D01*
X0006600Y0218584D02*
X0060190Y0218584D01*
X0058592Y0216986D02*
X0034837Y0216986D01*
X0036435Y0215387D02*
X0056993Y0215387D01*
X0056800Y0211800D02*
X0033800Y0211800D01*
X0032300Y0213300D01*
X0035405Y0220183D02*
X0061789Y0220183D01*
X0063387Y0221781D02*
X0036700Y0221781D01*
X0036700Y0223380D02*
X0064986Y0223380D01*
X0066584Y0224978D02*
X0036700Y0224978D01*
X0034587Y0239365D02*
X0080971Y0239365D01*
X0082569Y0240963D02*
X0036186Y0240963D01*
X0036700Y0242562D02*
X0084168Y0242562D01*
X0085766Y0244160D02*
X0036700Y0244160D01*
X0036064Y0245759D02*
X0087365Y0245759D01*
X0088963Y0247357D02*
X0034465Y0247357D01*
X0034178Y0248956D02*
X0090562Y0248956D01*
X0092160Y0250554D02*
X0035777Y0250554D01*
X0036700Y0252153D02*
X0093759Y0252153D01*
X0095357Y0253751D02*
X0036700Y0253751D01*
X0036473Y0255350D02*
X0096956Y0255350D01*
X0098554Y0256948D02*
X0034874Y0256948D01*
X0033800Y0261800D02*
X0032300Y0263300D01*
X0033800Y0261800D02*
X0096800Y0261800D01*
X0201800Y0366800D01*
X0301800Y0366800D01*
X0326800Y0341800D01*
X0326800Y0337800D01*
X0331000Y0338472D02*
X0332600Y0338472D01*
X0332600Y0336874D02*
X0331000Y0336874D01*
X0331000Y0335275D02*
X0332600Y0335275D01*
X0332885Y0333677D02*
X0330715Y0333677D01*
X0329618Y0332078D02*
X0333982Y0332078D01*
X0332600Y0340071D02*
X0331000Y0340071D01*
X0330820Y0341670D02*
X0332780Y0341670D01*
X0331938Y0343268D02*
X0329872Y0343268D01*
X0330339Y0344867D02*
X0327128Y0344867D01*
X0325529Y0346465D02*
X0328741Y0346465D01*
X0327142Y0348064D02*
X0323931Y0348064D01*
X0322332Y0349662D02*
X0325544Y0349662D01*
X0323945Y0351261D02*
X0320734Y0351261D01*
X0319135Y0352859D02*
X0322347Y0352859D01*
X0320748Y0354458D02*
X0317536Y0354458D01*
X0315938Y0356056D02*
X0319150Y0356056D01*
X0317551Y0357655D02*
X0314339Y0357655D01*
X0312741Y0359253D02*
X0315953Y0359253D01*
X0314354Y0360852D02*
X0311142Y0360852D01*
X0309544Y0362450D02*
X0312756Y0362450D01*
X0311157Y0364049D02*
X0307945Y0364049D01*
X0306347Y0365647D02*
X0309559Y0365647D01*
X0307960Y0367246D02*
X0304748Y0367246D01*
X0303136Y0368844D02*
X0306362Y0368844D01*
X0309953Y0372041D02*
X0313165Y0372041D01*
X0314763Y0370443D02*
X0311551Y0370443D01*
X0313150Y0368844D02*
X0316362Y0368844D01*
X0317960Y0367246D02*
X0314748Y0367246D01*
X0316347Y0365647D02*
X0319559Y0365647D01*
X0321157Y0364049D02*
X0317945Y0364049D01*
X0319544Y0362450D02*
X0322756Y0362450D01*
X0324354Y0360852D02*
X0321142Y0360852D01*
X0322741Y0359253D02*
X0325953Y0359253D01*
X0327551Y0357655D02*
X0324339Y0357655D01*
X0325938Y0356056D02*
X0329150Y0356056D01*
X0330748Y0354458D02*
X0327536Y0354458D01*
X0329135Y0352859D02*
X0332347Y0352859D01*
X0333945Y0351261D02*
X0330734Y0351261D01*
X0332332Y0349662D02*
X0335544Y0349662D01*
X0337142Y0348064D02*
X0333931Y0348064D01*
X0335529Y0346465D02*
X0338741Y0346465D01*
X0340339Y0344867D02*
X0337128Y0344867D01*
X0339872Y0343268D02*
X0343728Y0343268D01*
X0342780Y0341670D02*
X0340820Y0341670D01*
X0341000Y0340071D02*
X0342600Y0340071D01*
X0349872Y0343268D02*
X0361938Y0343268D01*
X0363536Y0341670D02*
X0350820Y0341670D01*
X0351000Y0340071D02*
X0365135Y0340071D01*
X0366733Y0338472D02*
X0351000Y0338472D01*
X0351000Y0336874D02*
X0368332Y0336874D01*
X0369400Y0335275D02*
X0351000Y0335275D01*
X0350715Y0333677D02*
X0369400Y0333677D01*
X0371800Y0336800D02*
X0371800Y0266800D01*
X0366800Y0261800D01*
X0351800Y0261800D01*
X0343800Y0269800D01*
X0343800Y0280800D01*
X0348400Y0280926D02*
X0353600Y0280926D01*
X0353600Y0281000D02*
X0353600Y0280600D01*
X0354000Y0280600D01*
X0354000Y0281000D01*
X0358600Y0281000D01*
X0358600Y0284178D01*
X0358482Y0284924D01*
X0358248Y0285643D01*
X0357905Y0286316D01*
X0357461Y0286927D01*
X0356927Y0287461D01*
X0356316Y0287905D01*
X0355643Y0288248D01*
X0354924Y0288482D01*
X0354178Y0288600D01*
X0354000Y0288600D01*
X0354000Y0281000D01*
X0353600Y0281000D01*
X0353600Y0288600D01*
X0353422Y0288600D01*
X0352676Y0288482D01*
X0351957Y0288248D01*
X0351284Y0287905D01*
X0350673Y0287461D01*
X0350139Y0286927D01*
X0349695Y0286316D01*
X0349352Y0285643D01*
X0349118Y0284924D01*
X0349000Y0284178D01*
X0349000Y0281000D01*
X0353600Y0281000D01*
X0353600Y0280600D02*
X0349000Y0280600D01*
X0349000Y0277422D01*
X0349118Y0276676D01*
X0349352Y0275957D01*
X0349695Y0275284D01*
X0350139Y0274673D01*
X0350673Y0274139D01*
X0351284Y0273695D01*
X0351957Y0273352D01*
X0352676Y0273118D01*
X0353422Y0273000D01*
X0353600Y0273000D01*
X0353600Y0280600D01*
X0354000Y0280600D02*
X0354000Y0273000D01*
X0354178Y0273000D01*
X0354924Y0273118D01*
X0355643Y0273352D01*
X0356316Y0273695D01*
X0356927Y0274139D01*
X0357461Y0274673D01*
X0357905Y0275284D01*
X0358248Y0275957D01*
X0358482Y0276676D01*
X0358600Y0277422D01*
X0358600Y0280600D01*
X0354000Y0280600D01*
X0354000Y0280926D02*
X0359200Y0280926D01*
X0359200Y0279328D02*
X0358600Y0279328D01*
X0358600Y0277729D02*
X0359200Y0277729D01*
X0359200Y0276885D02*
X0359900Y0275194D01*
X0361194Y0273900D01*
X0362885Y0273200D01*
X0364715Y0273200D01*
X0366406Y0273900D01*
X0367700Y0275194D01*
X0368400Y0276885D01*
X0368400Y0284715D01*
X0367700Y0286406D01*
X0366406Y0287700D01*
X0364715Y0288400D01*
X0362885Y0288400D01*
X0361194Y0287700D01*
X0359900Y0286406D01*
X0359200Y0284715D01*
X0359200Y0276885D01*
X0359512Y0276131D02*
X0358305Y0276131D01*
X0357320Y0274532D02*
X0360563Y0274532D01*
X0354000Y0274532D02*
X0353600Y0274532D01*
X0353600Y0276131D02*
X0354000Y0276131D01*
X0354000Y0277729D02*
X0353600Y0277729D01*
X0353600Y0279328D02*
X0354000Y0279328D01*
X0354000Y0282525D02*
X0353600Y0282525D01*
X0353600Y0284123D02*
X0354000Y0284123D01*
X0354000Y0285722D02*
X0353600Y0285722D01*
X0353600Y0287320D02*
X0354000Y0287320D01*
X0357068Y0287320D02*
X0360815Y0287320D01*
X0359617Y0285722D02*
X0358208Y0285722D01*
X0358600Y0284123D02*
X0359200Y0284123D01*
X0359200Y0282525D02*
X0358600Y0282525D01*
X0350532Y0287320D02*
X0346785Y0287320D01*
X0347983Y0285722D02*
X0349392Y0285722D01*
X0349000Y0284123D02*
X0348400Y0284123D01*
X0348400Y0282525D02*
X0349000Y0282525D01*
X0349000Y0279328D02*
X0348400Y0279328D01*
X0348400Y0277729D02*
X0349000Y0277729D01*
X0349295Y0276131D02*
X0348087Y0276131D01*
X0347037Y0274532D02*
X0350280Y0274532D01*
X0346200Y0272934D02*
X0369400Y0272934D01*
X0369400Y0274532D02*
X0367037Y0274532D01*
X0368087Y0276131D02*
X0369400Y0276131D01*
X0369400Y0277729D02*
X0368400Y0277729D01*
X0368400Y0279328D02*
X0369400Y0279328D01*
X0369400Y0280926D02*
X0368400Y0280926D01*
X0368400Y0282525D02*
X0369400Y0282525D01*
X0369400Y0284123D02*
X0368400Y0284123D01*
X0367983Y0285722D02*
X0369400Y0285722D01*
X0369400Y0287320D02*
X0366785Y0287320D01*
X0369400Y0288919D02*
X0252313Y0288919D01*
X0253911Y0290517D02*
X0369400Y0290517D01*
X0369400Y0292116D02*
X0255510Y0292116D01*
X0257108Y0293714D02*
X0369400Y0293714D01*
X0369400Y0295313D02*
X0258707Y0295313D01*
X0260305Y0296911D02*
X0369400Y0296911D01*
X0369400Y0298510D02*
X0261904Y0298510D01*
X0263502Y0300108D02*
X0369400Y0300108D01*
X0369400Y0301707D02*
X0265101Y0301707D01*
X0266699Y0303305D02*
X0369400Y0303305D01*
X0369400Y0304904D02*
X0268298Y0304904D01*
X0269896Y0306502D02*
X0369400Y0306502D01*
X0369400Y0308101D02*
X0271495Y0308101D01*
X0273093Y0309699D02*
X0369400Y0309699D01*
X0369400Y0311298D02*
X0274692Y0311298D01*
X0276290Y0312896D02*
X0369400Y0312896D01*
X0369400Y0314495D02*
X0277889Y0314495D01*
X0279105Y0316093D02*
X0369400Y0316093D01*
X0369400Y0317692D02*
X0279200Y0317692D01*
X0279200Y0319290D02*
X0369400Y0319290D01*
X0369400Y0320889D02*
X0279200Y0320889D01*
X0279200Y0322487D02*
X0369400Y0322487D01*
X0369400Y0324086D02*
X0279200Y0324086D01*
X0279200Y0325684D02*
X0369400Y0325684D01*
X0369400Y0327283D02*
X0279200Y0327283D01*
X0279200Y0328881D02*
X0369400Y0328881D01*
X0382000Y0354458D02*
X0347536Y0354458D01*
X0345938Y0356056D02*
X0382000Y0356056D01*
X0382000Y0357655D02*
X0344339Y0357655D01*
X0342741Y0359253D02*
X0382000Y0359253D01*
X0382000Y0360852D02*
X0341142Y0360852D01*
X0339544Y0362450D02*
X0382000Y0362450D01*
X0382000Y0364049D02*
X0337945Y0364049D01*
X0336347Y0365647D02*
X0382000Y0365647D01*
X0382000Y0367246D02*
X0334748Y0367246D01*
X0333150Y0368844D02*
X0382000Y0368844D01*
X0382000Y0370443D02*
X0331551Y0370443D01*
X0329953Y0372041D02*
X0382000Y0372041D01*
X0382000Y0373640D02*
X0328354Y0373640D01*
X0326756Y0375238D02*
X0382000Y0375238D01*
X0382000Y0376837D02*
X0325157Y0376837D01*
X0323559Y0378435D02*
X0382000Y0378435D01*
X0382000Y0380034D02*
X0321960Y0380034D01*
X0320362Y0381632D02*
X0382000Y0381632D01*
X0382000Y0383231D02*
X0318763Y0383231D01*
X0316771Y0378435D02*
X0313559Y0378435D01*
X0315157Y0376837D02*
X0318369Y0376837D01*
X0319968Y0375238D02*
X0316756Y0375238D01*
X0318354Y0373640D02*
X0321566Y0373640D01*
X0323165Y0372041D02*
X0319953Y0372041D01*
X0321551Y0370443D02*
X0324763Y0370443D01*
X0326362Y0368844D02*
X0323150Y0368844D01*
X0324748Y0367246D02*
X0327960Y0367246D01*
X0329559Y0365647D02*
X0326347Y0365647D01*
X0327945Y0364049D02*
X0331157Y0364049D01*
X0332756Y0362450D02*
X0329544Y0362450D01*
X0331142Y0360852D02*
X0334354Y0360852D01*
X0335953Y0359253D02*
X0332741Y0359253D01*
X0334339Y0357655D02*
X0337551Y0357655D01*
X0339150Y0356056D02*
X0335938Y0356056D01*
X0337536Y0354458D02*
X0340748Y0354458D01*
X0342347Y0352859D02*
X0339135Y0352859D01*
X0340734Y0351261D02*
X0343945Y0351261D01*
X0342332Y0349662D02*
X0345690Y0349662D01*
X0322780Y0341670D02*
X0320820Y0341670D01*
X0321000Y0340071D02*
X0322600Y0340071D01*
X0322600Y0338472D02*
X0321000Y0338472D01*
X0321000Y0336874D02*
X0322600Y0336874D01*
X0322600Y0335275D02*
X0321000Y0335275D01*
X0320715Y0333677D02*
X0322885Y0333677D01*
X0323982Y0332078D02*
X0319618Y0332078D01*
X0316800Y0337800D02*
X0316800Y0341800D01*
X0296800Y0361800D01*
X0206800Y0361800D01*
X0056800Y0211800D01*
X0031800Y0191800D02*
X0180800Y0191800D01*
X0180212Y0194606D02*
X0006600Y0194606D01*
X0006600Y0193008D02*
X0029614Y0193008D01*
X0028015Y0191409D02*
X0006600Y0191409D01*
X0006600Y0189811D02*
X0026417Y0189811D01*
X0024818Y0188212D02*
X0006600Y0188212D01*
X0006600Y0186614D02*
X0023220Y0186614D01*
X0021621Y0185015D02*
X0006600Y0185015D01*
X0006600Y0183417D02*
X0020023Y0183417D01*
X0018424Y0181818D02*
X0006600Y0181818D01*
X0006600Y0180220D02*
X0016826Y0180220D01*
X0015227Y0178621D02*
X0006600Y0178621D01*
X0006600Y0177023D02*
X0014400Y0177023D01*
X0014400Y0175424D02*
X0006600Y0175424D01*
X0006600Y0173826D02*
X0014400Y0173826D01*
X0014400Y0172227D02*
X0006600Y0172227D01*
X0006600Y0170629D02*
X0014400Y0170629D01*
X0014400Y0169030D02*
X0006600Y0169030D01*
X0006600Y0167432D02*
X0014400Y0167432D01*
X0014400Y0165833D02*
X0006600Y0165833D01*
X0006600Y0164235D02*
X0014400Y0164235D01*
X0014400Y0162636D02*
X0006600Y0162636D01*
X0006600Y0161038D02*
X0014400Y0161038D01*
X0014400Y0159439D02*
X0006600Y0159439D01*
X0006600Y0157841D02*
X0014400Y0157841D01*
X0014400Y0156242D02*
X0006600Y0156242D01*
X0006600Y0154644D02*
X0014400Y0154644D01*
X0014400Y0153045D02*
X0006600Y0153045D01*
X0006600Y0151447D02*
X0014400Y0151447D01*
X0014400Y0149848D02*
X0006600Y0149848D01*
X0006600Y0148250D02*
X0014400Y0148250D01*
X0014400Y0146651D02*
X0006600Y0146651D01*
X0006600Y0145053D02*
X0014400Y0145053D01*
X0014400Y0143454D02*
X0006600Y0143454D01*
X0006600Y0141856D02*
X0014400Y0141856D01*
X0014400Y0140257D02*
X0006600Y0140257D01*
X0006600Y0138659D02*
X0014400Y0138659D01*
X0014400Y0137060D02*
X0006600Y0137060D01*
X0006600Y0135462D02*
X0014400Y0135462D01*
X0014400Y0133863D02*
X0006600Y0133863D01*
X0006600Y0132265D02*
X0014400Y0132265D01*
X0014400Y0130666D02*
X0006600Y0130666D01*
X0006600Y0129068D02*
X0014400Y0129068D01*
X0014400Y0127469D02*
X0006600Y0127469D01*
X0006600Y0125870D02*
X0014400Y0125870D01*
X0014400Y0124272D02*
X0006600Y0124272D01*
X0006600Y0122673D02*
X0014400Y0122673D01*
X0014400Y0121075D02*
X0006600Y0121075D01*
X0006600Y0119476D02*
X0014400Y0119476D01*
X0014400Y0117878D02*
X0006600Y0117878D01*
X0006600Y0116279D02*
X0014400Y0116279D01*
X0014400Y0114681D02*
X0006600Y0114681D01*
X0006600Y0113082D02*
X0014400Y0113082D01*
X0014400Y0111484D02*
X0006600Y0111484D01*
X0006600Y0109885D02*
X0014400Y0109885D01*
X0014400Y0108287D02*
X0006600Y0108287D01*
X0006600Y0106688D02*
X0014400Y0106688D01*
X0014400Y0105090D02*
X0006600Y0105090D01*
X0006600Y0103491D02*
X0014400Y0103491D01*
X0014400Y0101893D02*
X0006600Y0101893D01*
X0006600Y0100294D02*
X0014400Y0100294D01*
X0014400Y0098696D02*
X0006600Y0098696D01*
X0006600Y0097097D02*
X0014400Y0097097D01*
X0014400Y0095499D02*
X0006600Y0095499D01*
X0006600Y0093900D02*
X0014400Y0093900D01*
X0014400Y0092302D02*
X0006600Y0092302D01*
X0006600Y0090703D02*
X0014400Y0090703D01*
X0014400Y0089105D02*
X0006600Y0089105D01*
X0006600Y0087506D02*
X0014400Y0087506D01*
X0014400Y0085908D02*
X0006600Y0085908D01*
X0006600Y0084309D02*
X0014400Y0084309D01*
X0014400Y0082711D02*
X0006600Y0082711D01*
X0006600Y0081112D02*
X0014400Y0081112D01*
X0014400Y0079514D02*
X0006600Y0079514D01*
X0006600Y0077915D02*
X0014400Y0077915D01*
X0014400Y0076317D02*
X0006600Y0076317D01*
X0006600Y0074718D02*
X0014400Y0074718D01*
X0014400Y0073120D02*
X0006600Y0073120D01*
X0006600Y0071521D02*
X0014400Y0071521D01*
X0014400Y0069923D02*
X0006600Y0069923D01*
X0006600Y0068324D02*
X0014400Y0068324D01*
X0014400Y0066726D02*
X0006600Y0066726D01*
X0006600Y0065127D02*
X0015079Y0065127D01*
X0016677Y0063529D02*
X0006600Y0063529D01*
X0006600Y0061930D02*
X0018276Y0061930D01*
X0019874Y0060332D02*
X0006600Y0060332D01*
X0006600Y0058733D02*
X0021473Y0058733D01*
X0023071Y0057134D02*
X0006600Y0057134D01*
X0006600Y0055536D02*
X0024670Y0055536D01*
X0026268Y0053937D02*
X0006600Y0053937D01*
X0006600Y0052339D02*
X0027867Y0052339D01*
X0029465Y0050740D02*
X0006600Y0050740D01*
X0006600Y0049142D02*
X0031064Y0049142D01*
X0032662Y0047543D02*
X0006600Y0047543D01*
X0006600Y0045945D02*
X0034261Y0045945D01*
X0035859Y0044346D02*
X0006600Y0044346D01*
X0006600Y0042748D02*
X0022836Y0042748D01*
X0024051Y0043225D02*
X0019376Y0041390D01*
X0015450Y0038259D01*
X0012621Y0034110D01*
X0012621Y0034110D01*
X0011141Y0029311D01*
X0011141Y0024289D01*
X0012621Y0019490D01*
X0015450Y0015341D01*
X0015450Y0015341D01*
X0015450Y0015341D01*
X0019376Y0012210D01*
X0019376Y0012210D01*
X0024051Y0010375D01*
X0029059Y0010000D01*
X0033955Y0011117D01*
X0038304Y0013628D01*
X0041720Y0017310D01*
X0043899Y0021834D01*
X0043899Y0021834D01*
X0044647Y0026800D01*
X0043899Y0031766D01*
X0041720Y0036290D01*
X0041720Y0036290D01*
X0038304Y0039972D01*
X0033955Y0042483D01*
X0029059Y0043600D01*
X0024051Y0043225D01*
X0024051Y0043225D01*
X0029059Y0043600D02*
X0029059Y0043600D01*
X0032793Y0042748D02*
X0037458Y0042748D01*
X0036264Y0041149D02*
X0039056Y0041149D01*
X0038304Y0039972D02*
X0038304Y0039972D01*
X0038695Y0039551D02*
X0040655Y0039551D01*
X0040178Y0037952D02*
X0042254Y0037952D01*
X0041661Y0036354D02*
X0043852Y0036354D01*
X0042459Y0034755D02*
X0045451Y0034755D01*
X0047049Y0033157D02*
X0043229Y0033157D01*
X0043899Y0031766D02*
X0043899Y0031766D01*
X0043930Y0031558D02*
X0048648Y0031558D01*
X0050246Y0029960D02*
X0044171Y0029960D01*
X0044412Y0028361D02*
X0051845Y0028361D01*
X0053443Y0026763D02*
X0044642Y0026763D01*
X0044401Y0025164D02*
X0055042Y0025164D01*
X0056800Y0026800D02*
X0016800Y0066800D01*
X0016800Y0176800D01*
X0031800Y0191800D01*
X0031607Y0188212D02*
X0034818Y0188212D01*
X0033220Y0186614D02*
X0030008Y0186614D01*
X0028410Y0185015D02*
X0031621Y0185015D01*
X0030023Y0183417D02*
X0026811Y0183417D01*
X0025212Y0181818D02*
X0028424Y0181818D01*
X0026826Y0180220D02*
X0023614Y0180220D01*
X0022015Y0178621D02*
X0025227Y0178621D01*
X0024200Y0169030D02*
X0037808Y0169030D01*
X0036209Y0167432D02*
X0024200Y0167432D01*
X0024200Y0165833D02*
X0035400Y0165833D01*
X0035400Y0164235D02*
X0024200Y0164235D01*
X0024200Y0162636D02*
X0035741Y0162636D01*
X0037340Y0161038D02*
X0024200Y0161038D01*
X0024200Y0159439D02*
X0066045Y0159439D01*
X0069636Y0156242D02*
X0072848Y0156242D01*
X0071250Y0154644D02*
X0067866Y0154644D01*
X0071235Y0157841D02*
X0074447Y0157841D01*
X0074765Y0158159D02*
X0074765Y0158159D01*
X0072833Y0159439D02*
X0099938Y0159439D01*
X0098340Y0161038D02*
X0081977Y0161038D01*
X0083576Y0162636D02*
X0097900Y0162636D01*
X0097900Y0164235D02*
X0084000Y0164235D01*
X0084000Y0165833D02*
X0098611Y0165833D01*
X0100209Y0167432D02*
X0083108Y0167432D01*
X0079800Y0164800D02*
X0074800Y0164800D01*
X0074432Y0161038D02*
X0077623Y0161038D01*
X0076439Y0153045D02*
X0094651Y0153045D01*
X0093053Y0151447D02*
X0082093Y0151447D01*
X0083692Y0149848D02*
X0091454Y0149848D01*
X0092300Y0147300D02*
X0096800Y0151800D01*
X0106800Y0151800D01*
X0111800Y0146800D01*
X0111800Y0141800D01*
X0086800Y0116800D01*
X0086800Y0114300D01*
X0091400Y0114681D02*
X0092200Y0114681D01*
X0092200Y0116279D02*
X0091400Y0116279D01*
X0091400Y0117878D02*
X0092200Y0117878D01*
X0092200Y0113082D02*
X0091400Y0113082D01*
X0091400Y0111484D02*
X0092200Y0111484D01*
X0092407Y0109885D02*
X0091193Y0109885D01*
X0090292Y0108287D02*
X0093308Y0108287D01*
X0100292Y0108287D02*
X0103308Y0108287D01*
X0102900Y0108694D02*
X0104194Y0107400D01*
X0104400Y0107315D01*
X0104400Y0102794D01*
X0100806Y0099200D01*
X0086323Y0099200D01*
X0085441Y0098835D01*
X0084765Y0098159D01*
X0074765Y0088159D01*
X0074400Y0087277D01*
X0074400Y0080785D01*
X0074194Y0080700D01*
X0072900Y0079406D01*
X0072200Y0077715D01*
X0072200Y0069885D01*
X0072900Y0068194D01*
X0074194Y0066900D01*
X0074400Y0066815D01*
X0074400Y0051323D01*
X0074765Y0050441D01*
X0075441Y0049765D01*
X0080441Y0044765D01*
X0081323Y0044400D01*
X0192277Y0044400D01*
X0193159Y0044765D01*
X0193835Y0045441D01*
X0237794Y0089400D01*
X0262277Y0089400D01*
X0263159Y0089765D01*
X0263835Y0090441D01*
X0270835Y0097441D01*
X0271200Y0098323D01*
X0271200Y0107315D01*
X0271406Y0107400D01*
X0272700Y0108694D01*
X0273400Y0110385D01*
X0273400Y0118215D01*
X0272700Y0119906D01*
X0271406Y0121200D01*
X0269715Y0121900D01*
X0267885Y0121900D01*
X0266194Y0121200D01*
X0264900Y0119906D01*
X0264200Y0118215D01*
X0264200Y0110385D01*
X0264900Y0108694D01*
X0266194Y0107400D01*
X0266400Y0107315D01*
X0266400Y0099794D01*
X0260806Y0094200D01*
X0236323Y0094200D01*
X0235441Y0093835D01*
X0190806Y0049200D01*
X0082794Y0049200D01*
X0079200Y0052794D01*
X0079200Y0066815D01*
X0079406Y0066900D01*
X0080700Y0068194D01*
X0081400Y0069885D01*
X0081400Y0077715D01*
X0080700Y0079406D01*
X0079406Y0080700D01*
X0079200Y0080785D01*
X0079200Y0085806D01*
X0087794Y0094400D01*
X0102277Y0094400D01*
X0103159Y0094765D01*
X0108159Y0099765D01*
X0108835Y0100441D01*
X0109200Y0101323D01*
X0109200Y0107315D01*
X0109406Y0107400D01*
X0110700Y0108694D01*
X0111400Y0110385D01*
X0111400Y0118215D01*
X0110700Y0119906D01*
X0109406Y0121200D01*
X0107715Y0121900D01*
X0105885Y0121900D01*
X0104194Y0121200D01*
X0102900Y0119906D01*
X0102200Y0118215D01*
X0102200Y0110385D01*
X0102900Y0108694D01*
X0102407Y0109885D02*
X0101193Y0109885D01*
X0101400Y0111484D02*
X0102200Y0111484D01*
X0102200Y0113082D02*
X0101400Y0113082D01*
X0101400Y0114681D02*
X0102200Y0114681D01*
X0102200Y0116279D02*
X0101400Y0116279D01*
X0101400Y0117878D02*
X0102200Y0117878D01*
X0102723Y0119476D02*
X0100877Y0119476D01*
X0099530Y0121075D02*
X0104070Y0121075D01*
X0099265Y0125870D02*
X0139400Y0125870D01*
X0139400Y0124272D02*
X0097666Y0124272D01*
X0096068Y0122673D02*
X0139400Y0122673D01*
X0139400Y0121075D02*
X0109530Y0121075D01*
X0110877Y0119476D02*
X0139400Y0119476D01*
X0139400Y0117878D02*
X0111400Y0117878D01*
X0111400Y0116279D02*
X0139400Y0116279D01*
X0139400Y0114681D02*
X0111400Y0114681D01*
X0111400Y0113082D02*
X0139400Y0113082D01*
X0139400Y0111484D02*
X0111400Y0111484D01*
X0111193Y0109885D02*
X0139400Y0109885D01*
X0139400Y0108287D02*
X0110292Y0108287D01*
X0109200Y0106688D02*
X0139400Y0106688D01*
X0139400Y0105090D02*
X0109200Y0105090D01*
X0109200Y0103491D02*
X0139400Y0103491D01*
X0139400Y0102794D02*
X0130806Y0094200D01*
X0101323Y0094200D01*
X0100441Y0093835D01*
X0099765Y0093159D01*
X0094765Y0088159D01*
X0094400Y0087277D01*
X0094400Y0080785D01*
X0094194Y0080700D01*
X0092900Y0079406D01*
X0092200Y0077715D01*
X0092200Y0069885D01*
X0092900Y0068194D01*
X0094194Y0066900D01*
X0095885Y0066200D01*
X0097715Y0066200D01*
X0099406Y0066900D01*
X0100700Y0068194D01*
X0101400Y0069885D01*
X0101400Y0077715D01*
X0100700Y0079406D01*
X0099406Y0080700D01*
X0099200Y0080785D01*
X0099200Y0085806D01*
X0102794Y0089400D01*
X0132277Y0089400D01*
X0133159Y0089765D01*
X0143159Y0099765D01*
X0143835Y0100441D01*
X0144200Y0101323D01*
X0144200Y0140760D01*
X0146000Y0142560D01*
X0146000Y0146040D01*
X0143540Y0148500D01*
X0140060Y0148500D01*
X0137600Y0146040D01*
X0137600Y0142560D01*
X0139400Y0140760D01*
X0139400Y0102794D01*
X0138499Y0101893D02*
X0109200Y0101893D01*
X0108688Y0100294D02*
X0136900Y0100294D01*
X0135302Y0098696D02*
X0107090Y0098696D01*
X0105491Y0097097D02*
X0133703Y0097097D01*
X0132105Y0095499D02*
X0103893Y0095499D01*
X0101800Y0096800D02*
X0106800Y0101800D01*
X0106800Y0114300D01*
X0104400Y0106688D02*
X0078140Y0106688D01*
X0077924Y0106618D02*
X0078643Y0106852D01*
X0079316Y0107195D01*
X0079927Y0107639D01*
X0080461Y0108173D01*
X0080905Y0108784D01*
X0081248Y0109457D01*
X0081482Y0110176D01*
X0081600Y0110922D01*
X0081600Y0114100D01*
X0077000Y0114100D01*
X0077000Y0114500D01*
X0081600Y0114500D01*
X0081600Y0117678D01*
X0081482Y0118424D01*
X0081248Y0119143D01*
X0080905Y0119816D01*
X0080461Y0120427D01*
X0079927Y0120961D01*
X0079316Y0121405D01*
X0078643Y0121748D01*
X0077924Y0121982D01*
X0077178Y0122100D01*
X0077000Y0122100D01*
X0077000Y0114500D01*
X0076600Y0114500D01*
X0076600Y0122100D01*
X0076422Y0122100D01*
X0075676Y0121982D01*
X0074957Y0121748D01*
X0074284Y0121405D01*
X0073673Y0120961D01*
X0073139Y0120427D01*
X0072695Y0119816D01*
X0072352Y0119143D01*
X0072118Y0118424D01*
X0072000Y0117678D01*
X0072000Y0114500D01*
X0076600Y0114500D01*
X0076600Y0114100D01*
X0077000Y0114100D01*
X0077000Y0106500D01*
X0077178Y0106500D01*
X0077924Y0106618D01*
X0077000Y0106688D02*
X0076600Y0106688D01*
X0076600Y0106500D02*
X0076600Y0114100D01*
X0072000Y0114100D01*
X0072000Y0110922D01*
X0072118Y0110176D01*
X0072352Y0109457D01*
X0072695Y0108784D01*
X0073139Y0108173D01*
X0073673Y0107639D01*
X0074284Y0107195D01*
X0074957Y0106852D01*
X0075676Y0106618D01*
X0076422Y0106500D01*
X0076600Y0106500D01*
X0075460Y0106688D02*
X0024200Y0106688D01*
X0024200Y0105090D02*
X0104400Y0105090D01*
X0104400Y0103491D02*
X0024200Y0103491D01*
X0024200Y0101893D02*
X0103499Y0101893D01*
X0101900Y0100294D02*
X0024200Y0100294D01*
X0024200Y0098696D02*
X0085302Y0098696D01*
X0083703Y0097097D02*
X0024200Y0097097D01*
X0024200Y0095499D02*
X0082105Y0095499D01*
X0080506Y0093900D02*
X0024200Y0093900D01*
X0024200Y0092302D02*
X0078908Y0092302D01*
X0077309Y0090703D02*
X0024200Y0090703D01*
X0024200Y0089105D02*
X0075711Y0089105D01*
X0074495Y0087506D02*
X0024200Y0087506D01*
X0024200Y0085908D02*
X0074400Y0085908D01*
X0074400Y0084309D02*
X0024200Y0084309D01*
X0024200Y0082711D02*
X0074400Y0082711D01*
X0074400Y0081112D02*
X0024200Y0081112D01*
X0024200Y0079514D02*
X0073008Y0079514D01*
X0072283Y0077915D02*
X0024200Y0077915D01*
X0024200Y0076317D02*
X0072200Y0076317D01*
X0072200Y0074718D02*
X0024200Y0074718D01*
X0024200Y0073120D02*
X0072200Y0073120D01*
X0072200Y0071521D02*
X0025473Y0071521D01*
X0027072Y0069923D02*
X0072200Y0069923D01*
X0072847Y0068324D02*
X0028670Y0068324D01*
X0030269Y0066726D02*
X0074400Y0066726D01*
X0074400Y0065127D02*
X0031867Y0065127D01*
X0033466Y0063529D02*
X0074400Y0063529D01*
X0074400Y0061930D02*
X0035064Y0061930D01*
X0036663Y0060332D02*
X0074400Y0060332D01*
X0074400Y0058733D02*
X0038261Y0058733D01*
X0039860Y0057134D02*
X0074400Y0057134D01*
X0074400Y0055536D02*
X0041458Y0055536D01*
X0043057Y0053937D02*
X0074400Y0053937D01*
X0074400Y0052339D02*
X0044655Y0052339D01*
X0046254Y0050740D02*
X0074641Y0050740D01*
X0076064Y0049142D02*
X0047852Y0049142D01*
X0049451Y0047543D02*
X0077662Y0047543D01*
X0079261Y0045945D02*
X0051049Y0045945D01*
X0052648Y0044346D02*
X0356484Y0044346D01*
X0357534Y0044425D02*
X0352526Y0044050D01*
X0347851Y0042215D01*
X0343925Y0039084D01*
X0341096Y0034935D01*
X0341096Y0034935D01*
X0339616Y0030136D01*
X0339616Y0025114D01*
X0341096Y0020315D01*
X0341096Y0020315D01*
X0343925Y0016166D01*
X0347851Y0013035D01*
X0347851Y0013035D01*
X0352526Y0011200D01*
X0357534Y0010825D01*
X0362430Y0011942D01*
X0366779Y0014453D01*
X0370195Y0018135D01*
X0372374Y0022659D01*
X0372374Y0022659D01*
X0373122Y0027625D01*
X0372374Y0032591D01*
X0370195Y0037115D01*
X0370195Y0037115D01*
X0366779Y0040797D01*
X0362430Y0043308D01*
X0357534Y0044425D01*
X0357534Y0044425D01*
X0357879Y0044346D02*
X0382000Y0044346D01*
X0382000Y0042748D02*
X0363399Y0042748D01*
X0362430Y0043308D02*
X0362430Y0043308D01*
X0366168Y0041149D02*
X0382000Y0041149D01*
X0382000Y0039551D02*
X0367935Y0039551D01*
X0366779Y0040797D02*
X0366779Y0040797D01*
X0369418Y0037952D02*
X0382000Y0037952D01*
X0382000Y0036354D02*
X0370562Y0036354D01*
X0371331Y0034755D02*
X0382000Y0034755D01*
X0382000Y0033157D02*
X0372101Y0033157D01*
X0372374Y0032591D02*
X0372374Y0032591D01*
X0372529Y0031558D02*
X0382000Y0031558D01*
X0382000Y0029960D02*
X0372770Y0029960D01*
X0373011Y0028361D02*
X0382000Y0028361D01*
X0382000Y0026763D02*
X0372992Y0026763D01*
X0372751Y0025164D02*
X0382000Y0025164D01*
X0382000Y0023566D02*
X0372510Y0023566D01*
X0372041Y0021967D02*
X0382000Y0021967D01*
X0382000Y0020369D02*
X0371271Y0020369D01*
X0370501Y0018770D02*
X0382000Y0018770D01*
X0382000Y0017172D02*
X0369301Y0017172D01*
X0370195Y0018135D02*
X0370195Y0018135D01*
X0367818Y0015573D02*
X0382000Y0015573D01*
X0382000Y0013975D02*
X0365950Y0013975D01*
X0366779Y0014453D02*
X0366779Y0014453D01*
X0363181Y0012376D02*
X0382000Y0012376D01*
X0382000Y0010778D02*
X0200759Y0010778D01*
X0200878Y0011011D02*
X0201092Y0011670D01*
X0201200Y0012354D01*
X0201200Y0015300D01*
X0201200Y0018246D01*
X0201092Y0018930D01*
X0200878Y0019589D01*
X0200563Y0020206D01*
X0200156Y0020766D01*
X0199666Y0021256D01*
X0199106Y0021663D01*
X0198489Y0021978D01*
X0197830Y0022192D01*
X0197146Y0022300D01*
X0196800Y0022300D01*
X0196800Y0015300D01*
X0201200Y0015300D01*
X0196800Y0015300D01*
X0196800Y0015300D01*
X0196800Y0015300D01*
X0196800Y0008300D01*
X0197146Y0008300D01*
X0197830Y0008408D01*
X0198489Y0008622D01*
X0199106Y0008937D01*
X0199666Y0009344D01*
X0200156Y0009834D01*
X0200563Y0010394D01*
X0200878Y0011011D01*
X0201200Y0012376D02*
X0349530Y0012376D01*
X0352526Y0011200D02*
X0352526Y0011200D01*
X0346673Y0013975D02*
X0201200Y0013975D01*
X0201200Y0015573D02*
X0344668Y0015573D01*
X0343925Y0016166D02*
X0343925Y0016166D01*
X0343239Y0017172D02*
X0201200Y0017172D01*
X0201117Y0018770D02*
X0342150Y0018770D01*
X0341080Y0020369D02*
X0200445Y0020369D01*
X0198509Y0021967D02*
X0340587Y0021967D01*
X0340093Y0023566D02*
X0183428Y0023566D01*
X0181830Y0025164D02*
X0339616Y0025164D01*
X0339616Y0026763D02*
X0180231Y0026763D01*
X0178633Y0028361D02*
X0339616Y0028361D01*
X0339616Y0029960D02*
X0177034Y0029960D01*
X0175436Y0031558D02*
X0340055Y0031558D01*
X0340548Y0033157D02*
X0173837Y0033157D01*
X0171800Y0031800D02*
X0061800Y0031800D01*
X0062239Y0034755D02*
X0341041Y0034755D01*
X0342064Y0036354D02*
X0060640Y0036354D01*
X0059042Y0037952D02*
X0343154Y0037952D01*
X0343925Y0039084D02*
X0343925Y0039084D01*
X0344511Y0039551D02*
X0057443Y0039551D01*
X0055845Y0041149D02*
X0346515Y0041149D01*
X0347851Y0042215D02*
X0347851Y0042215D01*
X0349209Y0042748D02*
X0054246Y0042748D01*
X0056800Y0026800D02*
X0166800Y0026800D01*
X0176800Y0016800D01*
X0176800Y0015300D01*
X0181000Y0015573D02*
X0182600Y0015573D01*
X0182600Y0013975D02*
X0181000Y0013975D01*
X0181000Y0012376D02*
X0182600Y0012376D01*
X0183050Y0010778D02*
X0180550Y0010778D01*
X0179219Y0009179D02*
X0184381Y0009179D01*
X0189219Y0009179D02*
X0194160Y0009179D01*
X0193934Y0009344D02*
X0194494Y0008937D01*
X0195111Y0008622D01*
X0195770Y0008408D01*
X0196454Y0008300D01*
X0196800Y0008300D01*
X0196800Y0015300D01*
X0196800Y0015300D01*
X0196800Y0015300D01*
X0192400Y0015300D01*
X0192400Y0018246D01*
X0192508Y0018930D01*
X0192722Y0019589D01*
X0193037Y0020206D01*
X0193444Y0020766D01*
X0193934Y0021256D01*
X0194494Y0021663D01*
X0195111Y0021978D01*
X0195770Y0022192D01*
X0196454Y0022300D01*
X0196800Y0022300D01*
X0196800Y0015300D01*
X0192400Y0015300D01*
X0192400Y0012354D01*
X0192508Y0011670D01*
X0192722Y0011011D01*
X0193037Y0010394D01*
X0193444Y0009834D01*
X0193934Y0009344D01*
X0192841Y0010778D02*
X0190550Y0010778D01*
X0191000Y0012376D02*
X0192400Y0012376D01*
X0192400Y0013975D02*
X0191000Y0013975D01*
X0191000Y0015573D02*
X0192400Y0015573D01*
X0192400Y0017172D02*
X0191000Y0017172D01*
X0190986Y0018770D02*
X0192483Y0018770D01*
X0193155Y0020369D02*
X0190271Y0020369D01*
X0187956Y0021967D02*
X0195091Y0021967D01*
X0196800Y0021967D02*
X0196800Y0021967D01*
X0196800Y0020369D02*
X0196800Y0020369D01*
X0196800Y0018770D02*
X0196800Y0018770D01*
X0196800Y0017172D02*
X0196800Y0017172D01*
X0196800Y0015573D02*
X0196800Y0015573D01*
X0196800Y0013975D02*
X0196800Y0013975D01*
X0196800Y0012376D02*
X0196800Y0012376D01*
X0196800Y0010778D02*
X0196800Y0010778D01*
X0196800Y0009179D02*
X0196800Y0009179D01*
X0199440Y0009179D02*
X0382000Y0009179D01*
X0382000Y0007581D02*
X0006600Y0007581D01*
X0006600Y0009179D02*
X0154381Y0009179D01*
X0154421Y0009139D02*
X0155965Y0008500D01*
X0157635Y0008500D01*
X0159179Y0009139D01*
X0160361Y0010321D01*
X0161000Y0011865D01*
X0161000Y0018735D01*
X0160361Y0020279D01*
X0159179Y0021461D01*
X0157635Y0022100D01*
X0155965Y0022100D01*
X0154421Y0021461D01*
X0153239Y0020279D01*
X0152600Y0018735D01*
X0152600Y0011865D01*
X0153239Y0010321D01*
X0154421Y0009139D01*
X0153050Y0010778D02*
X0032467Y0010778D01*
X0033955Y0011117D02*
X0033955Y0011117D01*
X0036135Y0012376D02*
X0152600Y0012376D01*
X0152600Y0013975D02*
X0038625Y0013975D01*
X0038304Y0013628D02*
X0038304Y0013628D01*
X0040109Y0015573D02*
X0152600Y0015573D01*
X0152600Y0017172D02*
X0041592Y0017172D01*
X0041720Y0017310D02*
X0041720Y0017310D01*
X0042423Y0018770D02*
X0152614Y0018770D01*
X0153329Y0020369D02*
X0043193Y0020369D01*
X0043919Y0021967D02*
X0155644Y0021967D01*
X0157956Y0021967D02*
X0165644Y0021967D01*
X0166640Y0023566D02*
X0044160Y0023566D01*
X0029059Y0010000D02*
X0029059Y0010000D01*
X0024051Y0010375D02*
X0024051Y0010375D01*
X0023026Y0010778D02*
X0006600Y0010778D01*
X0006600Y0012376D02*
X0019168Y0012376D01*
X0017163Y0013975D02*
X0006600Y0013975D01*
X0006600Y0015573D02*
X0015292Y0015573D01*
X0014202Y0017172D02*
X0006600Y0017172D01*
X0006600Y0018770D02*
X0013112Y0018770D01*
X0012621Y0019490D02*
X0012621Y0019490D01*
X0012350Y0020369D02*
X0006600Y0020369D01*
X0006600Y0021967D02*
X0011857Y0021967D01*
X0011364Y0023566D02*
X0006600Y0023566D01*
X0006600Y0025164D02*
X0011141Y0025164D01*
X0011141Y0026763D02*
X0006600Y0026763D01*
X0006600Y0028361D02*
X0011141Y0028361D01*
X0011341Y0029960D02*
X0006600Y0029960D01*
X0006600Y0031558D02*
X0011834Y0031558D01*
X0012327Y0033157D02*
X0006600Y0033157D01*
X0006600Y0034755D02*
X0013061Y0034755D01*
X0014151Y0036354D02*
X0006600Y0036354D01*
X0006600Y0037952D02*
X0015241Y0037952D01*
X0015450Y0038259D02*
X0015450Y0038259D01*
X0015450Y0038259D01*
X0017070Y0039551D02*
X0006600Y0039551D01*
X0006600Y0041149D02*
X0019074Y0041149D01*
X0019376Y0041390D02*
X0019376Y0041390D01*
X0033955Y0042483D02*
X0033955Y0042483D01*
X0076800Y0051800D02*
X0076800Y0073800D01*
X0076800Y0086800D01*
X0086800Y0096800D01*
X0101800Y0096800D01*
X0100599Y0093900D02*
X0087294Y0093900D01*
X0085696Y0092302D02*
X0098908Y0092302D01*
X0097309Y0090703D02*
X0084097Y0090703D01*
X0082499Y0089105D02*
X0095711Y0089105D01*
X0094495Y0087506D02*
X0080900Y0087506D01*
X0079302Y0085908D02*
X0094400Y0085908D01*
X0094400Y0084309D02*
X0079200Y0084309D01*
X0079200Y0082711D02*
X0094400Y0082711D01*
X0094400Y0081112D02*
X0088410Y0081112D01*
X0087715Y0081400D02*
X0085885Y0081400D01*
X0084194Y0080700D01*
X0082900Y0079406D01*
X0082200Y0077715D01*
X0082200Y0069885D01*
X0082900Y0068194D01*
X0084194Y0066900D01*
X0084400Y0066815D01*
X0084400Y0061323D01*
X0084765Y0060441D01*
X0085441Y0059765D01*
X0090441Y0054765D01*
X0091323Y0054400D01*
X0192277Y0054400D01*
X0193159Y0054765D01*
X0193835Y0055441D01*
X0232794Y0094400D01*
X0252277Y0094400D01*
X0253159Y0094765D01*
X0260835Y0102441D01*
X0261200Y0103323D01*
X0261200Y0107315D01*
X0261406Y0107400D01*
X0262700Y0108694D01*
X0263400Y0110385D01*
X0263400Y0118215D01*
X0262700Y0119906D01*
X0261406Y0121200D01*
X0259715Y0121900D01*
X0257885Y0121900D01*
X0256194Y0121200D01*
X0254900Y0119906D01*
X0254200Y0118215D01*
X0254200Y0110385D01*
X0254900Y0108694D01*
X0256194Y0107400D01*
X0256400Y0107315D01*
X0256400Y0104794D01*
X0250806Y0099200D01*
X0231323Y0099200D01*
X0230441Y0098835D01*
X0190806Y0059200D01*
X0092794Y0059200D01*
X0089200Y0062794D01*
X0089200Y0066815D01*
X0089406Y0066900D01*
X0090700Y0068194D01*
X0091400Y0069885D01*
X0091400Y0077715D01*
X0090700Y0079406D01*
X0089406Y0080700D01*
X0087715Y0081400D01*
X0085190Y0081112D02*
X0079200Y0081112D01*
X0080592Y0079514D02*
X0083008Y0079514D01*
X0082283Y0077915D02*
X0081317Y0077915D01*
X0081400Y0076317D02*
X0082200Y0076317D01*
X0082200Y0074718D02*
X0081400Y0074718D01*
X0081400Y0073120D02*
X0082200Y0073120D01*
X0082200Y0071521D02*
X0081400Y0071521D01*
X0081400Y0069923D02*
X0082200Y0069923D01*
X0082847Y0068324D02*
X0080753Y0068324D01*
X0079200Y0066726D02*
X0084400Y0066726D01*
X0084400Y0065127D02*
X0079200Y0065127D01*
X0079200Y0063529D02*
X0084400Y0063529D01*
X0084400Y0061930D02*
X0079200Y0061930D01*
X0079200Y0060332D02*
X0084874Y0060332D01*
X0086473Y0058733D02*
X0079200Y0058733D01*
X0079200Y0057134D02*
X0088071Y0057134D01*
X0089670Y0055536D02*
X0079200Y0055536D01*
X0079200Y0053937D02*
X0195543Y0053937D01*
X0193945Y0052339D02*
X0079655Y0052339D01*
X0081254Y0050740D02*
X0192346Y0050740D01*
X0191800Y0046800D02*
X0081800Y0046800D01*
X0076800Y0051800D01*
X0086800Y0061800D02*
X0086800Y0073800D01*
X0091400Y0073120D02*
X0092200Y0073120D01*
X0092200Y0074718D02*
X0091400Y0074718D01*
X0091400Y0076317D02*
X0092200Y0076317D01*
X0092283Y0077915D02*
X0091317Y0077915D01*
X0090592Y0079514D02*
X0093008Y0079514D01*
X0099200Y0081112D02*
X0104690Y0081112D01*
X0104957Y0081248D02*
X0104284Y0080905D01*
X0103673Y0080461D01*
X0103139Y0079927D01*
X0102695Y0079316D01*
X0102352Y0078643D01*
X0102118Y0077924D01*
X0102000Y0077178D01*
X0102000Y0074000D01*
X0106600Y0074000D01*
X0106600Y0081600D01*
X0106422Y0081600D01*
X0105676Y0081482D01*
X0104957Y0081248D01*
X0106600Y0081112D02*
X0107000Y0081112D01*
X0107000Y0081600D02*
X0107000Y0074000D01*
X0106600Y0074000D01*
X0106600Y0073600D01*
X0102000Y0073600D01*
X0102000Y0070422D01*
X0102118Y0069676D01*
X0102352Y0068957D01*
X0102695Y0068284D01*
X0103139Y0067673D01*
X0103673Y0067139D01*
X0104284Y0066695D01*
X0104957Y0066352D01*
X0105676Y0066118D01*
X0106422Y0066000D01*
X0106600Y0066000D01*
X0106600Y0073600D01*
X0107000Y0073600D01*
X0107000Y0074000D01*
X0111600Y0074000D01*
X0111600Y0077178D01*
X0111482Y0077924D01*
X0111248Y0078643D01*
X0110905Y0079316D01*
X0110461Y0079927D01*
X0109927Y0080461D01*
X0109316Y0080905D01*
X0108643Y0081248D01*
X0107924Y0081482D01*
X0107178Y0081600D01*
X0107000Y0081600D01*
X0108910Y0081112D02*
X0212718Y0081112D01*
X0211120Y0079514D02*
X0110762Y0079514D01*
X0111483Y0077915D02*
X0209521Y0077915D01*
X0207923Y0076317D02*
X0111600Y0076317D01*
X0111600Y0074718D02*
X0206324Y0074718D01*
X0204726Y0073120D02*
X0111600Y0073120D01*
X0111600Y0073600D02*
X0107000Y0073600D01*
X0107000Y0066000D01*
X0107178Y0066000D01*
X0107924Y0066118D01*
X0108643Y0066352D01*
X0109316Y0066695D01*
X0109927Y0067139D01*
X0110461Y0067673D01*
X0110905Y0068284D01*
X0111248Y0068957D01*
X0111482Y0069676D01*
X0111600Y0070422D01*
X0111600Y0073600D01*
X0111600Y0071521D02*
X0203127Y0071521D01*
X0201528Y0069923D02*
X0111521Y0069923D01*
X0110926Y0068324D02*
X0199930Y0068324D01*
X0198331Y0066726D02*
X0109358Y0066726D01*
X0107000Y0066726D02*
X0106600Y0066726D01*
X0106600Y0068324D02*
X0107000Y0068324D01*
X0107000Y0069923D02*
X0106600Y0069923D01*
X0106600Y0071521D02*
X0107000Y0071521D01*
X0107000Y0073120D02*
X0106600Y0073120D01*
X0106600Y0074718D02*
X0107000Y0074718D01*
X0107000Y0076317D02*
X0106600Y0076317D01*
X0106600Y0077915D02*
X0107000Y0077915D01*
X0107000Y0079514D02*
X0106600Y0079514D01*
X0102838Y0079514D02*
X0100592Y0079514D01*
X0101317Y0077915D02*
X0102117Y0077915D01*
X0102000Y0076317D02*
X0101400Y0076317D01*
X0101400Y0074718D02*
X0102000Y0074718D01*
X0102000Y0073120D02*
X0101400Y0073120D01*
X0101400Y0071521D02*
X0102000Y0071521D01*
X0102079Y0069923D02*
X0101400Y0069923D01*
X0100753Y0068324D02*
X0102674Y0068324D01*
X0104242Y0066726D02*
X0098984Y0066726D01*
X0094616Y0066726D02*
X0089200Y0066726D01*
X0089200Y0065127D02*
X0196733Y0065127D01*
X0195134Y0063529D02*
X0089200Y0063529D01*
X0090064Y0061930D02*
X0193536Y0061930D01*
X0191937Y0060332D02*
X0091663Y0060332D01*
X0091800Y0056800D02*
X0086800Y0061800D01*
X0091800Y0056800D02*
X0191800Y0056800D01*
X0231800Y0096800D01*
X0251800Y0096800D01*
X0258800Y0103800D01*
X0258800Y0114300D01*
X0263400Y0114681D02*
X0264200Y0114681D01*
X0264200Y0116279D02*
X0263400Y0116279D01*
X0263400Y0117878D02*
X0264200Y0117878D01*
X0264723Y0119476D02*
X0262877Y0119476D01*
X0261530Y0121075D02*
X0266070Y0121075D01*
X0271530Y0121075D02*
X0382000Y0121075D01*
X0382000Y0122673D02*
X0144200Y0122673D01*
X0144200Y0121075D02*
X0235830Y0121075D01*
X0235673Y0120961D02*
X0235139Y0120427D01*
X0234695Y0119816D01*
X0234352Y0119143D01*
X0234118Y0118424D01*
X0234000Y0117678D01*
X0234000Y0114500D01*
X0238600Y0114500D01*
X0238600Y0122100D01*
X0238422Y0122100D01*
X0237676Y0121982D01*
X0236957Y0121748D01*
X0236284Y0121405D01*
X0235673Y0120961D01*
X0234522Y0119476D02*
X0144200Y0119476D01*
X0144200Y0117878D02*
X0234032Y0117878D01*
X0234000Y0116279D02*
X0144200Y0116279D01*
X0144200Y0114681D02*
X0234000Y0114681D01*
X0234000Y0114100D02*
X0234000Y0110922D01*
X0234118Y0110176D01*
X0234352Y0109457D01*
X0234695Y0108784D01*
X0235139Y0108173D01*
X0235673Y0107639D01*
X0236284Y0107195D01*
X0236957Y0106852D01*
X0237676Y0106618D01*
X0238422Y0106500D01*
X0238600Y0106500D01*
X0238600Y0114100D01*
X0239000Y0114100D01*
X0239000Y0114500D01*
X0243600Y0114500D01*
X0243600Y0117678D01*
X0243482Y0118424D01*
X0243248Y0119143D01*
X0242905Y0119816D01*
X0242461Y0120427D01*
X0241927Y0120961D01*
X0241316Y0121405D01*
X0240643Y0121748D01*
X0239924Y0121982D01*
X0239178Y0122100D01*
X0239000Y0122100D01*
X0239000Y0114500D01*
X0238600Y0114500D01*
X0238600Y0114100D01*
X0234000Y0114100D01*
X0234000Y0113082D02*
X0144200Y0113082D01*
X0144200Y0111484D02*
X0234000Y0111484D01*
X0234213Y0109885D02*
X0144200Y0109885D01*
X0144200Y0108287D02*
X0235056Y0108287D01*
X0237460Y0106688D02*
X0144200Y0106688D01*
X0144200Y0105090D02*
X0256400Y0105090D01*
X0256400Y0106688D02*
X0240140Y0106688D01*
X0239924Y0106618D02*
X0240643Y0106852D01*
X0241316Y0107195D01*
X0241927Y0107639D01*
X0242461Y0108173D01*
X0242905Y0108784D01*
X0243248Y0109457D01*
X0243482Y0110176D01*
X0243600Y0110922D01*
X0243600Y0114100D01*
X0239000Y0114100D01*
X0239000Y0106500D01*
X0239178Y0106500D01*
X0239924Y0106618D01*
X0239000Y0106688D02*
X0238600Y0106688D01*
X0238600Y0108287D02*
X0239000Y0108287D01*
X0239000Y0109885D02*
X0238600Y0109885D01*
X0238600Y0111484D02*
X0239000Y0111484D01*
X0239000Y0113082D02*
X0238600Y0113082D01*
X0238600Y0114681D02*
X0239000Y0114681D01*
X0239000Y0116279D02*
X0238600Y0116279D01*
X0238600Y0117878D02*
X0239000Y0117878D01*
X0239000Y0119476D02*
X0238600Y0119476D01*
X0238600Y0121075D02*
X0239000Y0121075D01*
X0241770Y0121075D02*
X0246070Y0121075D01*
X0246194Y0121200D02*
X0244900Y0119906D01*
X0244200Y0118215D01*
X0244200Y0110385D01*
X0244900Y0108694D01*
X0246194Y0107400D01*
X0247885Y0106700D01*
X0249715Y0106700D01*
X0251406Y0107400D01*
X0252700Y0108694D01*
X0253400Y0110385D01*
X0253400Y0118215D01*
X0252700Y0119906D01*
X0251406Y0121200D01*
X0249715Y0121900D01*
X0247885Y0121900D01*
X0246194Y0121200D01*
X0244723Y0119476D02*
X0243078Y0119476D01*
X0243568Y0117878D02*
X0244200Y0117878D01*
X0244200Y0116279D02*
X0243600Y0116279D01*
X0243600Y0114681D02*
X0244200Y0114681D01*
X0244200Y0113082D02*
X0243600Y0113082D01*
X0243600Y0111484D02*
X0244200Y0111484D01*
X0244407Y0109885D02*
X0243387Y0109885D01*
X0242544Y0108287D02*
X0245308Y0108287D01*
X0252292Y0108287D02*
X0255308Y0108287D01*
X0254407Y0109885D02*
X0253193Y0109885D01*
X0253400Y0111484D02*
X0254200Y0111484D01*
X0254200Y0113082D02*
X0253400Y0113082D01*
X0253400Y0114681D02*
X0254200Y0114681D01*
X0254200Y0116279D02*
X0253400Y0116279D01*
X0253400Y0117878D02*
X0254200Y0117878D01*
X0254723Y0119476D02*
X0252877Y0119476D01*
X0251530Y0121075D02*
X0256070Y0121075D01*
X0263400Y0113082D02*
X0264200Y0113082D01*
X0264200Y0111484D02*
X0263400Y0111484D01*
X0263193Y0109885D02*
X0264407Y0109885D01*
X0265308Y0108287D02*
X0262292Y0108287D01*
X0261200Y0106688D02*
X0266400Y0106688D01*
X0266400Y0105090D02*
X0261200Y0105090D01*
X0261200Y0103491D02*
X0266400Y0103491D01*
X0266400Y0101893D02*
X0260287Y0101893D01*
X0258688Y0100294D02*
X0266400Y0100294D01*
X0265302Y0098696D02*
X0257090Y0098696D01*
X0255491Y0097097D02*
X0263703Y0097097D01*
X0262105Y0095499D02*
X0253893Y0095499D01*
X0251900Y0100294D02*
X0143688Y0100294D01*
X0144200Y0101893D02*
X0253499Y0101893D01*
X0255097Y0103491D02*
X0144200Y0103491D01*
X0141800Y0101800D02*
X0141800Y0144300D01*
X0145295Y0141856D02*
X0161600Y0141856D01*
X0161600Y0143454D02*
X0146000Y0143454D01*
X0146000Y0145053D02*
X0161613Y0145053D01*
X0163211Y0146651D02*
X0145389Y0146651D01*
X0143790Y0148250D02*
X0189856Y0148250D01*
X0191454Y0149848D02*
X0112146Y0149848D01*
X0113744Y0148250D02*
X0139810Y0148250D01*
X0138211Y0146651D02*
X0114200Y0146651D01*
X0114200Y0145053D02*
X0137600Y0145053D01*
X0137600Y0143454D02*
X0114200Y0143454D01*
X0114200Y0141856D02*
X0138305Y0141856D01*
X0139400Y0140257D02*
X0113651Y0140257D01*
X0112053Y0138659D02*
X0139400Y0138659D01*
X0139400Y0137060D02*
X0110454Y0137060D01*
X0108856Y0135462D02*
X0139400Y0135462D01*
X0139400Y0133863D02*
X0107257Y0133863D01*
X0105659Y0132265D02*
X0139400Y0132265D01*
X0139400Y0130666D02*
X0104060Y0130666D01*
X0102462Y0129068D02*
X0139400Y0129068D01*
X0139400Y0127469D02*
X0100863Y0127469D01*
X0097272Y0130666D02*
X0024200Y0130666D01*
X0024200Y0129068D02*
X0095673Y0129068D01*
X0094075Y0127469D02*
X0024200Y0127469D01*
X0024200Y0125870D02*
X0092476Y0125870D01*
X0090878Y0124272D02*
X0024200Y0124272D01*
X0024200Y0122673D02*
X0089279Y0122673D01*
X0084070Y0121075D02*
X0079770Y0121075D01*
X0081078Y0119476D02*
X0082723Y0119476D01*
X0082200Y0117878D02*
X0081568Y0117878D01*
X0081600Y0116279D02*
X0082200Y0116279D01*
X0082200Y0114681D02*
X0081600Y0114681D01*
X0081600Y0113082D02*
X0082200Y0113082D01*
X0082200Y0111484D02*
X0081600Y0111484D01*
X0081387Y0109885D02*
X0082407Y0109885D01*
X0083308Y0108287D02*
X0080544Y0108287D01*
X0077000Y0108287D02*
X0076600Y0108287D01*
X0076600Y0109885D02*
X0077000Y0109885D01*
X0077000Y0111484D02*
X0076600Y0111484D01*
X0076600Y0113082D02*
X0077000Y0113082D01*
X0077000Y0114681D02*
X0076600Y0114681D01*
X0076600Y0116279D02*
X0077000Y0116279D01*
X0077000Y0117878D02*
X0076600Y0117878D01*
X0076600Y0119476D02*
X0077000Y0119476D01*
X0077000Y0121075D02*
X0076600Y0121075D01*
X0073830Y0121075D02*
X0024200Y0121075D01*
X0024200Y0119476D02*
X0072522Y0119476D01*
X0072032Y0117878D02*
X0024200Y0117878D01*
X0024200Y0116279D02*
X0072000Y0116279D01*
X0072000Y0114681D02*
X0024200Y0114681D01*
X0024200Y0113082D02*
X0072000Y0113082D01*
X0072000Y0111484D02*
X0024200Y0111484D01*
X0024200Y0109885D02*
X0072213Y0109885D01*
X0073056Y0108287D02*
X0024200Y0108287D01*
X0024200Y0132265D02*
X0098870Y0132265D01*
X0100469Y0133863D02*
X0024200Y0133863D01*
X0024200Y0135462D02*
X0029744Y0135462D01*
X0028146Y0137060D02*
X0024200Y0137060D01*
X0024200Y0138659D02*
X0026547Y0138659D01*
X0024949Y0140257D02*
X0024200Y0140257D01*
X0024200Y0141856D02*
X0024400Y0141856D01*
X0024400Y0143454D02*
X0024200Y0143454D01*
X0024200Y0145053D02*
X0024400Y0145053D01*
X0024400Y0146651D02*
X0024200Y0146651D01*
X0024200Y0148250D02*
X0024856Y0148250D01*
X0024200Y0149848D02*
X0026454Y0149848D01*
X0028053Y0151447D02*
X0024200Y0151447D01*
X0024200Y0153045D02*
X0029651Y0153045D01*
X0031250Y0154644D02*
X0024200Y0154644D01*
X0024200Y0156242D02*
X0032848Y0156242D01*
X0034447Y0157841D02*
X0024200Y0157841D01*
X0030138Y0141856D02*
X0095961Y0141856D01*
X0094363Y0140257D02*
X0031737Y0140257D01*
X0040300Y0147300D02*
X0067300Y0147300D01*
X0068146Y0145053D02*
X0076608Y0145053D01*
X0076100Y0146651D02*
X0070045Y0146651D01*
X0069335Y0145941D02*
X0069335Y0145941D01*
X0071644Y0148250D02*
X0076100Y0148250D01*
X0076908Y0149848D02*
X0073242Y0149848D01*
X0074841Y0151447D02*
X0078507Y0151447D01*
X0080300Y0147300D02*
X0092300Y0147300D01*
X0099553Y0138659D02*
X0105264Y0138659D01*
X0103697Y0140257D02*
X0106863Y0140257D01*
X0103666Y0137060D02*
X0097954Y0137060D01*
X0096356Y0135462D02*
X0102067Y0135462D01*
X0110547Y0151447D02*
X0193053Y0151447D01*
X0194651Y0153045D02*
X0108949Y0153045D01*
X0102300Y0164235D02*
X0102300Y0164235D01*
X0102300Y0165833D02*
X0102300Y0165833D01*
X0102300Y0167432D02*
X0102300Y0167432D01*
X0144200Y0140257D02*
X0162903Y0140257D01*
X0165800Y0143300D02*
X0188300Y0143300D01*
X0207800Y0162800D01*
X0212000Y0162636D02*
X0238597Y0162636D01*
X0238821Y0162861D02*
X0237639Y0161679D01*
X0237000Y0160135D01*
X0237000Y0158465D01*
X0237639Y0156921D01*
X0238821Y0155739D01*
X0240365Y0155100D01*
X0247235Y0155100D01*
X0248779Y0155739D01*
X0249961Y0156921D01*
X0250600Y0158465D01*
X0250600Y0160135D01*
X0249961Y0161679D01*
X0248779Y0162861D01*
X0247235Y0163500D01*
X0240365Y0163500D01*
X0238821Y0162861D01*
X0237374Y0161038D02*
X0211977Y0161038D01*
X0210379Y0159439D02*
X0237000Y0159439D01*
X0237258Y0157841D02*
X0206235Y0157841D01*
X0204636Y0156242D02*
X0238318Y0156242D01*
X0249282Y0156242D02*
X0382000Y0156242D01*
X0382000Y0154644D02*
X0203038Y0154644D01*
X0201439Y0153045D02*
X0382000Y0153045D01*
X0382000Y0151447D02*
X0199841Y0151447D01*
X0198242Y0149848D02*
X0382000Y0149848D01*
X0382000Y0148250D02*
X0196644Y0148250D01*
X0195045Y0146651D02*
X0203211Y0146651D01*
X0204060Y0147500D02*
X0201600Y0145040D01*
X0201600Y0141560D01*
X0204060Y0139100D01*
X0207540Y0139100D01*
X0210000Y0141560D01*
X0210000Y0145040D01*
X0207540Y0147500D01*
X0204060Y0147500D01*
X0201613Y0145053D02*
X0193447Y0145053D01*
X0191848Y0143454D02*
X0201600Y0143454D01*
X0201600Y0141856D02*
X0190250Y0141856D01*
X0188257Y0146651D02*
X0168389Y0146651D01*
X0168697Y0140257D02*
X0202903Y0140257D01*
X0208697Y0140257D02*
X0382000Y0140257D01*
X0382000Y0138659D02*
X0144200Y0138659D01*
X0144200Y0137060D02*
X0382000Y0137060D01*
X0382000Y0135462D02*
X0144200Y0135462D01*
X0144200Y0133863D02*
X0382000Y0133863D01*
X0382000Y0132265D02*
X0144200Y0132265D01*
X0144200Y0130666D02*
X0382000Y0130666D01*
X0382000Y0129068D02*
X0144200Y0129068D01*
X0144200Y0127469D02*
X0382000Y0127469D01*
X0382000Y0125870D02*
X0144200Y0125870D01*
X0144200Y0124272D02*
X0382000Y0124272D01*
X0382000Y0119476D02*
X0272877Y0119476D01*
X0273400Y0117878D02*
X0382000Y0117878D01*
X0382000Y0116279D02*
X0273400Y0116279D01*
X0273400Y0114681D02*
X0382000Y0114681D01*
X0382000Y0113082D02*
X0273400Y0113082D01*
X0273400Y0111484D02*
X0382000Y0111484D01*
X0382000Y0109885D02*
X0273193Y0109885D01*
X0272292Y0108287D02*
X0382000Y0108287D01*
X0382000Y0106688D02*
X0271200Y0106688D01*
X0271200Y0105090D02*
X0382000Y0105090D01*
X0382000Y0103491D02*
X0271200Y0103491D01*
X0271200Y0101893D02*
X0382000Y0101893D01*
X0382000Y0100294D02*
X0271200Y0100294D01*
X0271200Y0098696D02*
X0382000Y0098696D01*
X0382000Y0097097D02*
X0270491Y0097097D01*
X0268893Y0095499D02*
X0382000Y0095499D01*
X0382000Y0093900D02*
X0267294Y0093900D01*
X0265696Y0092302D02*
X0382000Y0092302D01*
X0382000Y0090703D02*
X0264097Y0090703D01*
X0261800Y0091800D02*
X0236800Y0091800D01*
X0191800Y0046800D01*
X0194339Y0045945D02*
X0382000Y0045945D01*
X0382000Y0047543D02*
X0195938Y0047543D01*
X0197536Y0049142D02*
X0382000Y0049142D01*
X0382000Y0050740D02*
X0199135Y0050740D01*
X0200733Y0052339D02*
X0382000Y0052339D01*
X0382000Y0053937D02*
X0202332Y0053937D01*
X0203930Y0055536D02*
X0382000Y0055536D01*
X0382000Y0057134D02*
X0205529Y0057134D01*
X0207127Y0058733D02*
X0382000Y0058733D01*
X0382000Y0060332D02*
X0208726Y0060332D01*
X0210324Y0061930D02*
X0382000Y0061930D01*
X0382000Y0063529D02*
X0211923Y0063529D01*
X0213521Y0065127D02*
X0382000Y0065127D01*
X0382000Y0066726D02*
X0272231Y0066726D01*
X0272700Y0067194D02*
X0273400Y0068885D01*
X0273400Y0076715D01*
X0272700Y0078406D01*
X0271406Y0079700D01*
X0269715Y0080400D01*
X0267885Y0080400D01*
X0266194Y0079700D01*
X0264900Y0078406D01*
X0264200Y0076715D01*
X0264200Y0068885D01*
X0264900Y0067194D01*
X0266194Y0065900D01*
X0267885Y0065200D01*
X0269715Y0065200D01*
X0271406Y0065900D01*
X0272700Y0067194D01*
X0273168Y0068324D02*
X0382000Y0068324D01*
X0382000Y0069923D02*
X0273400Y0069923D01*
X0273400Y0071521D02*
X0382000Y0071521D01*
X0382000Y0073120D02*
X0273400Y0073120D01*
X0273400Y0074718D02*
X0382000Y0074718D01*
X0382000Y0076317D02*
X0273400Y0076317D01*
X0272903Y0077915D02*
X0382000Y0077915D01*
X0382000Y0079514D02*
X0271592Y0079514D01*
X0266008Y0079514D02*
X0261592Y0079514D01*
X0261406Y0079700D02*
X0259715Y0080400D01*
X0257885Y0080400D01*
X0256194Y0079700D01*
X0254900Y0078406D01*
X0254200Y0076715D01*
X0254200Y0068885D01*
X0254900Y0067194D01*
X0256194Y0065900D01*
X0257885Y0065200D01*
X0259715Y0065200D01*
X0261406Y0065900D01*
X0262700Y0067194D01*
X0263400Y0068885D01*
X0263400Y0076715D01*
X0262700Y0078406D01*
X0261406Y0079700D01*
X0262903Y0077915D02*
X0264697Y0077915D01*
X0264200Y0076317D02*
X0263400Y0076317D01*
X0263400Y0074718D02*
X0264200Y0074718D01*
X0264200Y0073120D02*
X0263400Y0073120D01*
X0263400Y0071521D02*
X0264200Y0071521D01*
X0264200Y0069923D02*
X0263400Y0069923D01*
X0263168Y0068324D02*
X0264432Y0068324D01*
X0265369Y0066726D02*
X0262231Y0066726D01*
X0255369Y0066726D02*
X0252231Y0066726D01*
X0252700Y0067194D02*
X0251406Y0065900D01*
X0249715Y0065200D01*
X0247885Y0065200D01*
X0246194Y0065900D01*
X0244900Y0067194D01*
X0244200Y0068885D01*
X0244200Y0076715D01*
X0244900Y0078406D01*
X0246194Y0079700D01*
X0247885Y0080400D01*
X0249715Y0080400D01*
X0251406Y0079700D01*
X0252700Y0078406D01*
X0253400Y0076715D01*
X0253400Y0068885D01*
X0252700Y0067194D01*
X0253168Y0068324D02*
X0254432Y0068324D01*
X0254200Y0069923D02*
X0253400Y0069923D01*
X0253400Y0071521D02*
X0254200Y0071521D01*
X0254200Y0073120D02*
X0253400Y0073120D01*
X0253400Y0074718D02*
X0254200Y0074718D01*
X0254200Y0076317D02*
X0253400Y0076317D01*
X0252903Y0077915D02*
X0254697Y0077915D01*
X0256008Y0079514D02*
X0251592Y0079514D01*
X0246008Y0079514D02*
X0241592Y0079514D01*
X0241406Y0079700D02*
X0239715Y0080400D01*
X0237885Y0080400D01*
X0236194Y0079700D01*
X0234900Y0078406D01*
X0234200Y0076715D01*
X0234200Y0068885D01*
X0234900Y0067194D01*
X0236194Y0065900D01*
X0237885Y0065200D01*
X0239715Y0065200D01*
X0241406Y0065900D01*
X0242700Y0067194D01*
X0243400Y0068885D01*
X0243400Y0076715D01*
X0242700Y0078406D01*
X0241406Y0079700D01*
X0242903Y0077915D02*
X0244697Y0077915D01*
X0244200Y0076317D02*
X0243400Y0076317D01*
X0243400Y0074718D02*
X0244200Y0074718D01*
X0244200Y0073120D02*
X0243400Y0073120D01*
X0243400Y0071521D02*
X0244200Y0071521D01*
X0244200Y0069923D02*
X0243400Y0069923D01*
X0243168Y0068324D02*
X0244432Y0068324D01*
X0245369Y0066726D02*
X0242231Y0066726D01*
X0235369Y0066726D02*
X0215120Y0066726D01*
X0216718Y0068324D02*
X0234432Y0068324D01*
X0234200Y0069923D02*
X0218317Y0069923D01*
X0219915Y0071521D02*
X0234200Y0071521D01*
X0234200Y0073120D02*
X0221514Y0073120D01*
X0223112Y0074718D02*
X0234200Y0074718D01*
X0234200Y0076317D02*
X0224711Y0076317D01*
X0226309Y0077915D02*
X0234697Y0077915D01*
X0236008Y0079514D02*
X0227908Y0079514D01*
X0229506Y0081112D02*
X0382000Y0081112D01*
X0382000Y0082711D02*
X0231105Y0082711D01*
X0232703Y0084309D02*
X0382000Y0084309D01*
X0382000Y0085908D02*
X0234302Y0085908D01*
X0235900Y0087506D02*
X0382000Y0087506D01*
X0382000Y0089105D02*
X0237499Y0089105D01*
X0233908Y0092302D02*
X0230696Y0092302D01*
X0232294Y0093900D02*
X0235599Y0093900D01*
X0232309Y0090703D02*
X0229097Y0090703D01*
X0227499Y0089105D02*
X0230711Y0089105D01*
X0229112Y0087506D02*
X0225900Y0087506D01*
X0224302Y0085908D02*
X0227514Y0085908D01*
X0225915Y0084309D02*
X0222703Y0084309D01*
X0221105Y0082711D02*
X0224317Y0082711D01*
X0222718Y0081112D02*
X0219506Y0081112D01*
X0217908Y0079514D02*
X0221120Y0079514D01*
X0219521Y0077915D02*
X0216309Y0077915D01*
X0214711Y0076317D02*
X0217923Y0076317D01*
X0216324Y0074718D02*
X0213112Y0074718D01*
X0211514Y0073120D02*
X0214726Y0073120D01*
X0213127Y0071521D02*
X0209915Y0071521D01*
X0208317Y0069923D02*
X0211528Y0069923D01*
X0209930Y0068324D02*
X0206718Y0068324D01*
X0205120Y0066726D02*
X0208331Y0066726D01*
X0206733Y0065127D02*
X0203521Y0065127D01*
X0201923Y0063529D02*
X0205134Y0063529D01*
X0203536Y0061930D02*
X0200324Y0061930D01*
X0198726Y0060332D02*
X0201937Y0060332D01*
X0200339Y0058733D02*
X0197127Y0058733D01*
X0195529Y0057134D02*
X0198740Y0057134D01*
X0197142Y0055536D02*
X0193930Y0055536D01*
X0193835Y0055441D02*
X0193835Y0055441D01*
X0171800Y0031800D02*
X0186800Y0016800D01*
X0186800Y0015300D01*
X0182600Y0017172D02*
X0181000Y0017172D01*
X0180986Y0018770D02*
X0181436Y0018770D01*
X0178239Y0021967D02*
X0177956Y0021967D01*
X0176640Y0023566D02*
X0173428Y0023566D01*
X0171830Y0025164D02*
X0175042Y0025164D01*
X0173443Y0026763D02*
X0170231Y0026763D01*
X0168633Y0028361D02*
X0171845Y0028361D01*
X0175027Y0021967D02*
X0175644Y0021967D01*
X0171436Y0018770D02*
X0170986Y0018770D01*
X0171000Y0017172D02*
X0172600Y0017172D01*
X0172600Y0015573D02*
X0171000Y0015573D01*
X0171000Y0013975D02*
X0172600Y0013975D01*
X0172600Y0012376D02*
X0171000Y0012376D01*
X0170550Y0010778D02*
X0173050Y0010778D01*
X0174381Y0009179D02*
X0169219Y0009179D01*
X0164381Y0009179D02*
X0159219Y0009179D01*
X0160550Y0010778D02*
X0163050Y0010778D01*
X0162600Y0012376D02*
X0161000Y0012376D01*
X0161000Y0013975D02*
X0162600Y0013975D01*
X0162600Y0015573D02*
X0161000Y0015573D01*
X0161000Y0017172D02*
X0162600Y0017172D01*
X0162614Y0018770D02*
X0160986Y0018770D01*
X0160271Y0020369D02*
X0163329Y0020369D01*
X0167956Y0021967D02*
X0168239Y0021967D01*
X0185027Y0021967D02*
X0185644Y0021967D01*
X0214317Y0082711D02*
X0099200Y0082711D01*
X0099200Y0084309D02*
X0215915Y0084309D01*
X0217514Y0085908D02*
X0099302Y0085908D01*
X0100900Y0087506D02*
X0219112Y0087506D01*
X0220711Y0089105D02*
X0102499Y0089105D01*
X0101800Y0091800D02*
X0131800Y0091800D01*
X0141800Y0101800D01*
X0142090Y0098696D02*
X0230302Y0098696D01*
X0228703Y0097097D02*
X0140491Y0097097D01*
X0138893Y0095499D02*
X0227105Y0095499D01*
X0225506Y0093900D02*
X0137294Y0093900D01*
X0135696Y0092302D02*
X0223908Y0092302D01*
X0222309Y0090703D02*
X0134097Y0090703D01*
X0101800Y0091800D02*
X0096800Y0086800D01*
X0096800Y0073800D01*
X0092200Y0071521D02*
X0091400Y0071521D01*
X0091400Y0069923D02*
X0092200Y0069923D01*
X0092847Y0068324D02*
X0090753Y0068324D01*
X0208389Y0146651D02*
X0382000Y0146651D01*
X0382000Y0145053D02*
X0209987Y0145053D01*
X0210000Y0143454D02*
X0382000Y0143454D01*
X0382000Y0141856D02*
X0210000Y0141856D01*
X0250342Y0157841D02*
X0382000Y0157841D01*
X0382000Y0159439D02*
X0250600Y0159439D01*
X0250226Y0161038D02*
X0382000Y0161038D01*
X0382000Y0162636D02*
X0249003Y0162636D01*
X0250003Y0177023D02*
X0382000Y0177023D01*
X0382000Y0178621D02*
X0250600Y0178621D01*
X0250565Y0180220D02*
X0382000Y0180220D01*
X0382000Y0181818D02*
X0249821Y0181818D01*
X0247436Y0183417D02*
X0382000Y0183417D01*
X0382000Y0185015D02*
X0247452Y0185015D01*
X0249887Y0186614D02*
X0382000Y0186614D01*
X0382000Y0188212D02*
X0250673Y0188212D01*
X0250774Y0189811D02*
X0382000Y0189811D01*
X0382000Y0191409D02*
X0250263Y0191409D01*
X0248782Y0193008D02*
X0382000Y0193008D01*
X0382000Y0194606D02*
X0197001Y0194606D01*
X0206200Y0204198D02*
X0382000Y0204198D01*
X0382000Y0205796D02*
X0248836Y0205796D01*
X0250157Y0207395D02*
X0382000Y0207395D01*
X0382000Y0208993D02*
X0250600Y0208993D01*
X0250411Y0210592D02*
X0382000Y0210592D01*
X0382000Y0212190D02*
X0249450Y0212190D01*
X0249041Y0202599D02*
X0382000Y0202599D01*
X0382000Y0201001D02*
X0250242Y0201001D01*
X0250600Y0199402D02*
X0382000Y0199402D01*
X0382000Y0197803D02*
X0250326Y0197803D01*
X0249245Y0196205D02*
X0382000Y0196205D01*
X0382000Y0226577D02*
X0249616Y0226577D01*
X0250480Y0228175D02*
X0382000Y0228175D01*
X0382000Y0229774D02*
X0250600Y0229774D01*
X0250088Y0231372D02*
X0382000Y0231372D01*
X0382000Y0245759D02*
X0248799Y0245759D01*
X0250141Y0247357D02*
X0382000Y0247357D01*
X0382000Y0248956D02*
X0250600Y0248956D01*
X0238239Y0242562D02*
X0233932Y0242562D01*
X0235531Y0240963D02*
X0237114Y0240963D01*
X0231800Y0271800D02*
X0276800Y0316800D01*
X0276800Y0337800D01*
X0301142Y0360852D02*
X0304354Y0360852D01*
X0302756Y0362450D02*
X0299544Y0362450D01*
X0301157Y0364049D02*
X0297643Y0364049D01*
X0302741Y0359253D02*
X0305953Y0359253D01*
X0307551Y0357655D02*
X0304339Y0357655D01*
X0305938Y0356056D02*
X0309150Y0356056D01*
X0310748Y0354458D02*
X0307536Y0354458D01*
X0309135Y0352859D02*
X0312347Y0352859D01*
X0313945Y0351261D02*
X0310734Y0351261D01*
X0312332Y0349662D02*
X0315544Y0349662D01*
X0317142Y0348064D02*
X0313931Y0348064D01*
X0315529Y0346465D02*
X0318741Y0346465D01*
X0320339Y0344867D02*
X0317128Y0344867D01*
X0319872Y0343268D02*
X0321938Y0343268D01*
X0311566Y0373640D02*
X0308354Y0373640D01*
X0382000Y0384829D02*
X0006600Y0384829D01*
X0006600Y0386428D02*
X0382000Y0386428D01*
X0340815Y0287320D02*
X0336785Y0287320D01*
X0337983Y0285722D02*
X0339617Y0285722D01*
X0339200Y0284123D02*
X0338400Y0284123D01*
X0338400Y0282525D02*
X0339200Y0282525D01*
X0339200Y0280926D02*
X0338400Y0280926D01*
X0338400Y0279328D02*
X0339200Y0279328D01*
X0339200Y0277729D02*
X0338400Y0277729D01*
X0338087Y0276131D02*
X0339513Y0276131D01*
X0340563Y0274532D02*
X0337037Y0274532D01*
X0336200Y0272934D02*
X0341400Y0272934D01*
X0341400Y0271335D02*
X0336200Y0271335D01*
X0337258Y0269737D02*
X0341400Y0269737D01*
X0342068Y0268138D02*
X0338856Y0268138D01*
X0340455Y0266539D02*
X0343666Y0266539D01*
X0345265Y0264941D02*
X0342053Y0264941D01*
X0343652Y0263342D02*
X0346863Y0263342D01*
X0348462Y0261744D02*
X0345250Y0261744D01*
X0346849Y0260145D02*
X0350060Y0260145D01*
X0352053Y0264941D02*
X0366547Y0264941D01*
X0368145Y0266539D02*
X0350455Y0266539D01*
X0348856Y0268138D02*
X0369400Y0268138D01*
X0369400Y0269737D02*
X0347258Y0269737D01*
X0346200Y0271335D02*
X0369400Y0271335D01*
X0380138Y0261744D02*
X0382000Y0261744D01*
X0382000Y0263342D02*
X0381737Y0263342D01*
X0382000Y0260145D02*
X0378540Y0260145D01*
X0376941Y0258547D02*
X0382000Y0258547D01*
X0382000Y0256948D02*
X0375343Y0256948D01*
X0373744Y0255350D02*
X0382000Y0255350D01*
X0382000Y0253751D02*
X0372145Y0253751D01*
X0370547Y0252153D02*
X0382000Y0252153D01*
X0382000Y0250554D02*
X0368948Y0250554D01*
X0330815Y0287320D02*
X0250714Y0287320D01*
X0249116Y0285722D02*
X0329617Y0285722D01*
X0329200Y0284123D02*
X0247517Y0284123D01*
X0245919Y0282525D02*
X0329200Y0282525D01*
X0243800Y0193008D02*
X0243800Y0193008D01*
X0243800Y0191409D02*
X0243800Y0191409D01*
X0243800Y0189811D02*
X0243800Y0189811D01*
X0243800Y0188212D02*
X0243800Y0188212D01*
X0243800Y0186614D02*
X0243800Y0186614D01*
X0243800Y0185015D02*
X0243800Y0185015D01*
X0183409Y0197803D02*
X0006600Y0197803D01*
X0006600Y0196205D02*
X0181811Y0196205D01*
X0098145Y0266539D02*
X0035283Y0266539D01*
X0036700Y0264941D02*
X0096547Y0264941D01*
X0096138Y0274532D02*
X0036700Y0274532D01*
X0018908Y0276131D02*
X0015864Y0276131D01*
X0017462Y0274532D02*
X0017900Y0274532D01*
X0018945Y0236168D02*
X0006600Y0236168D01*
X0006600Y0234569D02*
X0017900Y0234569D01*
X0017900Y0232971D02*
X0006600Y0232971D01*
X0006600Y0231372D02*
X0018005Y0231372D01*
X0019604Y0229774D02*
X0006600Y0229774D01*
X0006600Y0215387D02*
X0018165Y0215387D01*
X0017900Y0213789D02*
X0006600Y0213789D01*
X0006600Y0212190D02*
X0017900Y0212190D01*
X0018786Y0210592D02*
X0006600Y0210592D01*
X0006600Y0208993D02*
X0020384Y0208993D01*
X0020172Y0207395D02*
X0006600Y0207395D01*
X0006600Y0205796D02*
X0018574Y0205796D01*
X0017900Y0204198D02*
X0006600Y0204198D01*
X0006600Y0202599D02*
X0017900Y0202599D01*
X0018377Y0201001D02*
X0006600Y0201001D01*
X0006600Y0199402D02*
X0019975Y0199402D01*
X0136904Y0298510D02*
X0140116Y0298510D01*
X0141714Y0300108D02*
X0138502Y0300108D01*
X0140101Y0301707D02*
X0143313Y0301707D01*
X0144911Y0303305D02*
X0141699Y0303305D01*
X0143298Y0304904D02*
X0146510Y0304904D01*
X0148108Y0306502D02*
X0144896Y0306502D01*
X0146495Y0308101D02*
X0149707Y0308101D01*
X0151305Y0309699D02*
X0148093Y0309699D01*
X0149692Y0311298D02*
X0152904Y0311298D01*
X0154502Y0312896D02*
X0151290Y0312896D01*
X0152889Y0314495D02*
X0156101Y0314495D01*
X0157699Y0316093D02*
X0154487Y0316093D01*
X0156086Y0317692D02*
X0159298Y0317692D01*
X0160896Y0319290D02*
X0157684Y0319290D01*
X0159283Y0320889D02*
X0162495Y0320889D01*
X0164093Y0322487D02*
X0160881Y0322487D01*
X0162480Y0324086D02*
X0165692Y0324086D01*
X0167290Y0325684D02*
X0164079Y0325684D01*
X0165677Y0327283D02*
X0168889Y0327283D01*
X0170487Y0328881D02*
X0167276Y0328881D01*
X0168874Y0330480D02*
X0172086Y0330480D01*
X0173684Y0332078D02*
X0170473Y0332078D01*
X0172071Y0333677D02*
X0175283Y0333677D01*
X0176881Y0335275D02*
X0173670Y0335275D01*
X0175268Y0336874D02*
X0178480Y0336874D01*
X0180078Y0338472D02*
X0176867Y0338472D01*
X0178465Y0340071D02*
X0181677Y0340071D01*
X0183275Y0341670D02*
X0180064Y0341670D01*
X0181662Y0343268D02*
X0184874Y0343268D01*
X0186472Y0344867D02*
X0183261Y0344867D01*
X0184859Y0346465D02*
X0188071Y0346465D01*
X0189669Y0348064D02*
X0186458Y0348064D01*
X0188056Y0349662D02*
X0191268Y0349662D01*
X0192866Y0351261D02*
X0189655Y0351261D01*
X0191253Y0352859D02*
X0194465Y0352859D01*
X0196063Y0354458D02*
X0192852Y0354458D01*
X0194450Y0356056D02*
X0197662Y0356056D01*
X0199261Y0357655D02*
X0196049Y0357655D01*
X0197647Y0359253D02*
X0200859Y0359253D01*
X0202458Y0360852D02*
X0199246Y0360852D01*
X0200844Y0362450D02*
X0204056Y0362450D01*
X0202443Y0364049D02*
X0205957Y0364049D01*
X0200464Y0368844D02*
X0197238Y0368844D01*
X0195640Y0367246D02*
X0198852Y0367246D01*
X0197253Y0365647D02*
X0194041Y0365647D01*
X0192443Y0364049D02*
X0195655Y0364049D01*
X0194056Y0362450D02*
X0190844Y0362450D01*
X0189246Y0360852D02*
X0192458Y0360852D01*
X0190859Y0359253D02*
X0187647Y0359253D01*
X0186049Y0357655D02*
X0189261Y0357655D01*
X0187662Y0356056D02*
X0184450Y0356056D01*
X0182852Y0354458D02*
X0186063Y0354458D01*
X0184465Y0352859D02*
X0181253Y0352859D01*
X0179655Y0351261D02*
X0182866Y0351261D01*
X0181268Y0349662D02*
X0178056Y0349662D01*
X0176458Y0348064D02*
X0179669Y0348064D01*
X0178071Y0346465D02*
X0174859Y0346465D01*
X0173261Y0344867D02*
X0176472Y0344867D01*
X0174874Y0343268D02*
X0171662Y0343268D01*
X0170064Y0341670D02*
X0173275Y0341670D01*
X0171677Y0340071D02*
X0168465Y0340071D01*
X0166867Y0338472D02*
X0170078Y0338472D01*
X0168480Y0336874D02*
X0165268Y0336874D01*
X0163670Y0335275D02*
X0166881Y0335275D01*
X0165283Y0333677D02*
X0162071Y0333677D01*
X0160473Y0332078D02*
X0163684Y0332078D01*
X0162086Y0330480D02*
X0158874Y0330480D01*
X0157276Y0328881D02*
X0160487Y0328881D01*
X0158889Y0327283D02*
X0155677Y0327283D01*
X0034005Y0341142D02*
X0034005Y0341142D01*
X0024101Y0340400D02*
X0024101Y0340400D01*
X0024101Y0373250D02*
X0024101Y0373250D01*
X0029109Y0373625D02*
X0029109Y0373625D01*
X0268800Y0114300D02*
X0268800Y0098800D01*
X0261800Y0091800D01*
X0352526Y0044050D02*
X0352526Y0044050D01*
X0362430Y0011942D02*
X0362430Y0011942D01*
X0357534Y0010825D02*
X0357534Y0010825D01*
M02*
