G75*
%MOIN*%
%OFA0B0*%
%FSLAX25Y25*%
%IPPOS*%
%LPD*%
%AMOC8*
5,1,8,0,0,1.08239X$1,22.5*
%
%ADD10C,0.00000*%
%ADD11OC8,0.05200*%
%ADD12C,0.06000*%
%ADD13C,0.05200*%
%ADD14OC8,0.05600*%
%ADD15C,0.01600*%
D10*
X0001800Y0001800D02*
X0386800Y0001800D01*
X0386800Y0391800D01*
X0001800Y0391800D01*
X0001800Y0001800D01*
X0021894Y0026800D02*
X0021896Y0026953D01*
X0021902Y0027107D01*
X0021912Y0027260D01*
X0021926Y0027412D01*
X0021944Y0027565D01*
X0021966Y0027716D01*
X0021991Y0027867D01*
X0022021Y0028018D01*
X0022055Y0028168D01*
X0022092Y0028316D01*
X0022133Y0028464D01*
X0022178Y0028610D01*
X0022227Y0028756D01*
X0022280Y0028900D01*
X0022336Y0029042D01*
X0022396Y0029183D01*
X0022460Y0029323D01*
X0022527Y0029461D01*
X0022598Y0029597D01*
X0022673Y0029731D01*
X0022750Y0029863D01*
X0022832Y0029993D01*
X0022916Y0030121D01*
X0023004Y0030247D01*
X0023095Y0030370D01*
X0023189Y0030491D01*
X0023287Y0030609D01*
X0023387Y0030725D01*
X0023491Y0030838D01*
X0023597Y0030949D01*
X0023706Y0031057D01*
X0023818Y0031162D01*
X0023932Y0031263D01*
X0024050Y0031362D01*
X0024169Y0031458D01*
X0024291Y0031551D01*
X0024416Y0031640D01*
X0024543Y0031727D01*
X0024672Y0031809D01*
X0024803Y0031889D01*
X0024936Y0031965D01*
X0025071Y0032038D01*
X0025208Y0032107D01*
X0025347Y0032172D01*
X0025487Y0032234D01*
X0025629Y0032292D01*
X0025772Y0032347D01*
X0025917Y0032398D01*
X0026063Y0032445D01*
X0026210Y0032488D01*
X0026358Y0032527D01*
X0026507Y0032563D01*
X0026657Y0032594D01*
X0026808Y0032622D01*
X0026959Y0032646D01*
X0027112Y0032666D01*
X0027264Y0032682D01*
X0027417Y0032694D01*
X0027570Y0032702D01*
X0027723Y0032706D01*
X0027877Y0032706D01*
X0028030Y0032702D01*
X0028183Y0032694D01*
X0028336Y0032682D01*
X0028488Y0032666D01*
X0028641Y0032646D01*
X0028792Y0032622D01*
X0028943Y0032594D01*
X0029093Y0032563D01*
X0029242Y0032527D01*
X0029390Y0032488D01*
X0029537Y0032445D01*
X0029683Y0032398D01*
X0029828Y0032347D01*
X0029971Y0032292D01*
X0030113Y0032234D01*
X0030253Y0032172D01*
X0030392Y0032107D01*
X0030529Y0032038D01*
X0030664Y0031965D01*
X0030797Y0031889D01*
X0030928Y0031809D01*
X0031057Y0031727D01*
X0031184Y0031640D01*
X0031309Y0031551D01*
X0031431Y0031458D01*
X0031550Y0031362D01*
X0031668Y0031263D01*
X0031782Y0031162D01*
X0031894Y0031057D01*
X0032003Y0030949D01*
X0032109Y0030838D01*
X0032213Y0030725D01*
X0032313Y0030609D01*
X0032411Y0030491D01*
X0032505Y0030370D01*
X0032596Y0030247D01*
X0032684Y0030121D01*
X0032768Y0029993D01*
X0032850Y0029863D01*
X0032927Y0029731D01*
X0033002Y0029597D01*
X0033073Y0029461D01*
X0033140Y0029323D01*
X0033204Y0029183D01*
X0033264Y0029042D01*
X0033320Y0028900D01*
X0033373Y0028756D01*
X0033422Y0028610D01*
X0033467Y0028464D01*
X0033508Y0028316D01*
X0033545Y0028168D01*
X0033579Y0028018D01*
X0033609Y0027867D01*
X0033634Y0027716D01*
X0033656Y0027565D01*
X0033674Y0027412D01*
X0033688Y0027260D01*
X0033698Y0027107D01*
X0033704Y0026953D01*
X0033706Y0026800D01*
X0033704Y0026647D01*
X0033698Y0026493D01*
X0033688Y0026340D01*
X0033674Y0026188D01*
X0033656Y0026035D01*
X0033634Y0025884D01*
X0033609Y0025733D01*
X0033579Y0025582D01*
X0033545Y0025432D01*
X0033508Y0025284D01*
X0033467Y0025136D01*
X0033422Y0024990D01*
X0033373Y0024844D01*
X0033320Y0024700D01*
X0033264Y0024558D01*
X0033204Y0024417D01*
X0033140Y0024277D01*
X0033073Y0024139D01*
X0033002Y0024003D01*
X0032927Y0023869D01*
X0032850Y0023737D01*
X0032768Y0023607D01*
X0032684Y0023479D01*
X0032596Y0023353D01*
X0032505Y0023230D01*
X0032411Y0023109D01*
X0032313Y0022991D01*
X0032213Y0022875D01*
X0032109Y0022762D01*
X0032003Y0022651D01*
X0031894Y0022543D01*
X0031782Y0022438D01*
X0031668Y0022337D01*
X0031550Y0022238D01*
X0031431Y0022142D01*
X0031309Y0022049D01*
X0031184Y0021960D01*
X0031057Y0021873D01*
X0030928Y0021791D01*
X0030797Y0021711D01*
X0030664Y0021635D01*
X0030529Y0021562D01*
X0030392Y0021493D01*
X0030253Y0021428D01*
X0030113Y0021366D01*
X0029971Y0021308D01*
X0029828Y0021253D01*
X0029683Y0021202D01*
X0029537Y0021155D01*
X0029390Y0021112D01*
X0029242Y0021073D01*
X0029093Y0021037D01*
X0028943Y0021006D01*
X0028792Y0020978D01*
X0028641Y0020954D01*
X0028488Y0020934D01*
X0028336Y0020918D01*
X0028183Y0020906D01*
X0028030Y0020898D01*
X0027877Y0020894D01*
X0027723Y0020894D01*
X0027570Y0020898D01*
X0027417Y0020906D01*
X0027264Y0020918D01*
X0027112Y0020934D01*
X0026959Y0020954D01*
X0026808Y0020978D01*
X0026657Y0021006D01*
X0026507Y0021037D01*
X0026358Y0021073D01*
X0026210Y0021112D01*
X0026063Y0021155D01*
X0025917Y0021202D01*
X0025772Y0021253D01*
X0025629Y0021308D01*
X0025487Y0021366D01*
X0025347Y0021428D01*
X0025208Y0021493D01*
X0025071Y0021562D01*
X0024936Y0021635D01*
X0024803Y0021711D01*
X0024672Y0021791D01*
X0024543Y0021873D01*
X0024416Y0021960D01*
X0024291Y0022049D01*
X0024169Y0022142D01*
X0024050Y0022238D01*
X0023932Y0022337D01*
X0023818Y0022438D01*
X0023706Y0022543D01*
X0023597Y0022651D01*
X0023491Y0022762D01*
X0023387Y0022875D01*
X0023287Y0022991D01*
X0023189Y0023109D01*
X0023095Y0023230D01*
X0023004Y0023353D01*
X0022916Y0023479D01*
X0022832Y0023607D01*
X0022750Y0023737D01*
X0022673Y0023869D01*
X0022598Y0024003D01*
X0022527Y0024139D01*
X0022460Y0024277D01*
X0022396Y0024417D01*
X0022336Y0024558D01*
X0022280Y0024700D01*
X0022227Y0024844D01*
X0022178Y0024990D01*
X0022133Y0025136D01*
X0022092Y0025284D01*
X0022055Y0025432D01*
X0022021Y0025582D01*
X0021991Y0025733D01*
X0021966Y0025884D01*
X0021944Y0026035D01*
X0021926Y0026188D01*
X0021912Y0026340D01*
X0021902Y0026493D01*
X0021896Y0026647D01*
X0021894Y0026800D01*
X0021944Y0356825D02*
X0021946Y0356978D01*
X0021952Y0357132D01*
X0021962Y0357285D01*
X0021976Y0357437D01*
X0021994Y0357590D01*
X0022016Y0357741D01*
X0022041Y0357892D01*
X0022071Y0358043D01*
X0022105Y0358193D01*
X0022142Y0358341D01*
X0022183Y0358489D01*
X0022228Y0358635D01*
X0022277Y0358781D01*
X0022330Y0358925D01*
X0022386Y0359067D01*
X0022446Y0359208D01*
X0022510Y0359348D01*
X0022577Y0359486D01*
X0022648Y0359622D01*
X0022723Y0359756D01*
X0022800Y0359888D01*
X0022882Y0360018D01*
X0022966Y0360146D01*
X0023054Y0360272D01*
X0023145Y0360395D01*
X0023239Y0360516D01*
X0023337Y0360634D01*
X0023437Y0360750D01*
X0023541Y0360863D01*
X0023647Y0360974D01*
X0023756Y0361082D01*
X0023868Y0361187D01*
X0023982Y0361288D01*
X0024100Y0361387D01*
X0024219Y0361483D01*
X0024341Y0361576D01*
X0024466Y0361665D01*
X0024593Y0361752D01*
X0024722Y0361834D01*
X0024853Y0361914D01*
X0024986Y0361990D01*
X0025121Y0362063D01*
X0025258Y0362132D01*
X0025397Y0362197D01*
X0025537Y0362259D01*
X0025679Y0362317D01*
X0025822Y0362372D01*
X0025967Y0362423D01*
X0026113Y0362470D01*
X0026260Y0362513D01*
X0026408Y0362552D01*
X0026557Y0362588D01*
X0026707Y0362619D01*
X0026858Y0362647D01*
X0027009Y0362671D01*
X0027162Y0362691D01*
X0027314Y0362707D01*
X0027467Y0362719D01*
X0027620Y0362727D01*
X0027773Y0362731D01*
X0027927Y0362731D01*
X0028080Y0362727D01*
X0028233Y0362719D01*
X0028386Y0362707D01*
X0028538Y0362691D01*
X0028691Y0362671D01*
X0028842Y0362647D01*
X0028993Y0362619D01*
X0029143Y0362588D01*
X0029292Y0362552D01*
X0029440Y0362513D01*
X0029587Y0362470D01*
X0029733Y0362423D01*
X0029878Y0362372D01*
X0030021Y0362317D01*
X0030163Y0362259D01*
X0030303Y0362197D01*
X0030442Y0362132D01*
X0030579Y0362063D01*
X0030714Y0361990D01*
X0030847Y0361914D01*
X0030978Y0361834D01*
X0031107Y0361752D01*
X0031234Y0361665D01*
X0031359Y0361576D01*
X0031481Y0361483D01*
X0031600Y0361387D01*
X0031718Y0361288D01*
X0031832Y0361187D01*
X0031944Y0361082D01*
X0032053Y0360974D01*
X0032159Y0360863D01*
X0032263Y0360750D01*
X0032363Y0360634D01*
X0032461Y0360516D01*
X0032555Y0360395D01*
X0032646Y0360272D01*
X0032734Y0360146D01*
X0032818Y0360018D01*
X0032900Y0359888D01*
X0032977Y0359756D01*
X0033052Y0359622D01*
X0033123Y0359486D01*
X0033190Y0359348D01*
X0033254Y0359208D01*
X0033314Y0359067D01*
X0033370Y0358925D01*
X0033423Y0358781D01*
X0033472Y0358635D01*
X0033517Y0358489D01*
X0033558Y0358341D01*
X0033595Y0358193D01*
X0033629Y0358043D01*
X0033659Y0357892D01*
X0033684Y0357741D01*
X0033706Y0357590D01*
X0033724Y0357437D01*
X0033738Y0357285D01*
X0033748Y0357132D01*
X0033754Y0356978D01*
X0033756Y0356825D01*
X0033754Y0356672D01*
X0033748Y0356518D01*
X0033738Y0356365D01*
X0033724Y0356213D01*
X0033706Y0356060D01*
X0033684Y0355909D01*
X0033659Y0355758D01*
X0033629Y0355607D01*
X0033595Y0355457D01*
X0033558Y0355309D01*
X0033517Y0355161D01*
X0033472Y0355015D01*
X0033423Y0354869D01*
X0033370Y0354725D01*
X0033314Y0354583D01*
X0033254Y0354442D01*
X0033190Y0354302D01*
X0033123Y0354164D01*
X0033052Y0354028D01*
X0032977Y0353894D01*
X0032900Y0353762D01*
X0032818Y0353632D01*
X0032734Y0353504D01*
X0032646Y0353378D01*
X0032555Y0353255D01*
X0032461Y0353134D01*
X0032363Y0353016D01*
X0032263Y0352900D01*
X0032159Y0352787D01*
X0032053Y0352676D01*
X0031944Y0352568D01*
X0031832Y0352463D01*
X0031718Y0352362D01*
X0031600Y0352263D01*
X0031481Y0352167D01*
X0031359Y0352074D01*
X0031234Y0351985D01*
X0031107Y0351898D01*
X0030978Y0351816D01*
X0030847Y0351736D01*
X0030714Y0351660D01*
X0030579Y0351587D01*
X0030442Y0351518D01*
X0030303Y0351453D01*
X0030163Y0351391D01*
X0030021Y0351333D01*
X0029878Y0351278D01*
X0029733Y0351227D01*
X0029587Y0351180D01*
X0029440Y0351137D01*
X0029292Y0351098D01*
X0029143Y0351062D01*
X0028993Y0351031D01*
X0028842Y0351003D01*
X0028691Y0350979D01*
X0028538Y0350959D01*
X0028386Y0350943D01*
X0028233Y0350931D01*
X0028080Y0350923D01*
X0027927Y0350919D01*
X0027773Y0350919D01*
X0027620Y0350923D01*
X0027467Y0350931D01*
X0027314Y0350943D01*
X0027162Y0350959D01*
X0027009Y0350979D01*
X0026858Y0351003D01*
X0026707Y0351031D01*
X0026557Y0351062D01*
X0026408Y0351098D01*
X0026260Y0351137D01*
X0026113Y0351180D01*
X0025967Y0351227D01*
X0025822Y0351278D01*
X0025679Y0351333D01*
X0025537Y0351391D01*
X0025397Y0351453D01*
X0025258Y0351518D01*
X0025121Y0351587D01*
X0024986Y0351660D01*
X0024853Y0351736D01*
X0024722Y0351816D01*
X0024593Y0351898D01*
X0024466Y0351985D01*
X0024341Y0352074D01*
X0024219Y0352167D01*
X0024100Y0352263D01*
X0023982Y0352362D01*
X0023868Y0352463D01*
X0023756Y0352568D01*
X0023647Y0352676D01*
X0023541Y0352787D01*
X0023437Y0352900D01*
X0023337Y0353016D01*
X0023239Y0353134D01*
X0023145Y0353255D01*
X0023054Y0353378D01*
X0022966Y0353504D01*
X0022882Y0353632D01*
X0022800Y0353762D01*
X0022723Y0353894D01*
X0022648Y0354028D01*
X0022577Y0354164D01*
X0022510Y0354302D01*
X0022446Y0354442D01*
X0022386Y0354583D01*
X0022330Y0354725D01*
X0022277Y0354869D01*
X0022228Y0355015D01*
X0022183Y0355161D01*
X0022142Y0355309D01*
X0022105Y0355457D01*
X0022071Y0355607D01*
X0022041Y0355758D01*
X0022016Y0355909D01*
X0021994Y0356060D01*
X0021976Y0356213D01*
X0021962Y0356365D01*
X0021952Y0356518D01*
X0021946Y0356672D01*
X0021944Y0356825D01*
X0350369Y0027625D02*
X0350371Y0027778D01*
X0350377Y0027932D01*
X0350387Y0028085D01*
X0350401Y0028237D01*
X0350419Y0028390D01*
X0350441Y0028541D01*
X0350466Y0028692D01*
X0350496Y0028843D01*
X0350530Y0028993D01*
X0350567Y0029141D01*
X0350608Y0029289D01*
X0350653Y0029435D01*
X0350702Y0029581D01*
X0350755Y0029725D01*
X0350811Y0029867D01*
X0350871Y0030008D01*
X0350935Y0030148D01*
X0351002Y0030286D01*
X0351073Y0030422D01*
X0351148Y0030556D01*
X0351225Y0030688D01*
X0351307Y0030818D01*
X0351391Y0030946D01*
X0351479Y0031072D01*
X0351570Y0031195D01*
X0351664Y0031316D01*
X0351762Y0031434D01*
X0351862Y0031550D01*
X0351966Y0031663D01*
X0352072Y0031774D01*
X0352181Y0031882D01*
X0352293Y0031987D01*
X0352407Y0032088D01*
X0352525Y0032187D01*
X0352644Y0032283D01*
X0352766Y0032376D01*
X0352891Y0032465D01*
X0353018Y0032552D01*
X0353147Y0032634D01*
X0353278Y0032714D01*
X0353411Y0032790D01*
X0353546Y0032863D01*
X0353683Y0032932D01*
X0353822Y0032997D01*
X0353962Y0033059D01*
X0354104Y0033117D01*
X0354247Y0033172D01*
X0354392Y0033223D01*
X0354538Y0033270D01*
X0354685Y0033313D01*
X0354833Y0033352D01*
X0354982Y0033388D01*
X0355132Y0033419D01*
X0355283Y0033447D01*
X0355434Y0033471D01*
X0355587Y0033491D01*
X0355739Y0033507D01*
X0355892Y0033519D01*
X0356045Y0033527D01*
X0356198Y0033531D01*
X0356352Y0033531D01*
X0356505Y0033527D01*
X0356658Y0033519D01*
X0356811Y0033507D01*
X0356963Y0033491D01*
X0357116Y0033471D01*
X0357267Y0033447D01*
X0357418Y0033419D01*
X0357568Y0033388D01*
X0357717Y0033352D01*
X0357865Y0033313D01*
X0358012Y0033270D01*
X0358158Y0033223D01*
X0358303Y0033172D01*
X0358446Y0033117D01*
X0358588Y0033059D01*
X0358728Y0032997D01*
X0358867Y0032932D01*
X0359004Y0032863D01*
X0359139Y0032790D01*
X0359272Y0032714D01*
X0359403Y0032634D01*
X0359532Y0032552D01*
X0359659Y0032465D01*
X0359784Y0032376D01*
X0359906Y0032283D01*
X0360025Y0032187D01*
X0360143Y0032088D01*
X0360257Y0031987D01*
X0360369Y0031882D01*
X0360478Y0031774D01*
X0360584Y0031663D01*
X0360688Y0031550D01*
X0360788Y0031434D01*
X0360886Y0031316D01*
X0360980Y0031195D01*
X0361071Y0031072D01*
X0361159Y0030946D01*
X0361243Y0030818D01*
X0361325Y0030688D01*
X0361402Y0030556D01*
X0361477Y0030422D01*
X0361548Y0030286D01*
X0361615Y0030148D01*
X0361679Y0030008D01*
X0361739Y0029867D01*
X0361795Y0029725D01*
X0361848Y0029581D01*
X0361897Y0029435D01*
X0361942Y0029289D01*
X0361983Y0029141D01*
X0362020Y0028993D01*
X0362054Y0028843D01*
X0362084Y0028692D01*
X0362109Y0028541D01*
X0362131Y0028390D01*
X0362149Y0028237D01*
X0362163Y0028085D01*
X0362173Y0027932D01*
X0362179Y0027778D01*
X0362181Y0027625D01*
X0362179Y0027472D01*
X0362173Y0027318D01*
X0362163Y0027165D01*
X0362149Y0027013D01*
X0362131Y0026860D01*
X0362109Y0026709D01*
X0362084Y0026558D01*
X0362054Y0026407D01*
X0362020Y0026257D01*
X0361983Y0026109D01*
X0361942Y0025961D01*
X0361897Y0025815D01*
X0361848Y0025669D01*
X0361795Y0025525D01*
X0361739Y0025383D01*
X0361679Y0025242D01*
X0361615Y0025102D01*
X0361548Y0024964D01*
X0361477Y0024828D01*
X0361402Y0024694D01*
X0361325Y0024562D01*
X0361243Y0024432D01*
X0361159Y0024304D01*
X0361071Y0024178D01*
X0360980Y0024055D01*
X0360886Y0023934D01*
X0360788Y0023816D01*
X0360688Y0023700D01*
X0360584Y0023587D01*
X0360478Y0023476D01*
X0360369Y0023368D01*
X0360257Y0023263D01*
X0360143Y0023162D01*
X0360025Y0023063D01*
X0359906Y0022967D01*
X0359784Y0022874D01*
X0359659Y0022785D01*
X0359532Y0022698D01*
X0359403Y0022616D01*
X0359272Y0022536D01*
X0359139Y0022460D01*
X0359004Y0022387D01*
X0358867Y0022318D01*
X0358728Y0022253D01*
X0358588Y0022191D01*
X0358446Y0022133D01*
X0358303Y0022078D01*
X0358158Y0022027D01*
X0358012Y0021980D01*
X0357865Y0021937D01*
X0357717Y0021898D01*
X0357568Y0021862D01*
X0357418Y0021831D01*
X0357267Y0021803D01*
X0357116Y0021779D01*
X0356963Y0021759D01*
X0356811Y0021743D01*
X0356658Y0021731D01*
X0356505Y0021723D01*
X0356352Y0021719D01*
X0356198Y0021719D01*
X0356045Y0021723D01*
X0355892Y0021731D01*
X0355739Y0021743D01*
X0355587Y0021759D01*
X0355434Y0021779D01*
X0355283Y0021803D01*
X0355132Y0021831D01*
X0354982Y0021862D01*
X0354833Y0021898D01*
X0354685Y0021937D01*
X0354538Y0021980D01*
X0354392Y0022027D01*
X0354247Y0022078D01*
X0354104Y0022133D01*
X0353962Y0022191D01*
X0353822Y0022253D01*
X0353683Y0022318D01*
X0353546Y0022387D01*
X0353411Y0022460D01*
X0353278Y0022536D01*
X0353147Y0022616D01*
X0353018Y0022698D01*
X0352891Y0022785D01*
X0352766Y0022874D01*
X0352644Y0022967D01*
X0352525Y0023063D01*
X0352407Y0023162D01*
X0352293Y0023263D01*
X0352181Y0023368D01*
X0352072Y0023476D01*
X0351966Y0023587D01*
X0351862Y0023700D01*
X0351762Y0023816D01*
X0351664Y0023934D01*
X0351570Y0024055D01*
X0351479Y0024178D01*
X0351391Y0024304D01*
X0351307Y0024432D01*
X0351225Y0024562D01*
X0351148Y0024694D01*
X0351073Y0024828D01*
X0351002Y0024964D01*
X0350935Y0025102D01*
X0350871Y0025242D01*
X0350811Y0025383D01*
X0350755Y0025525D01*
X0350702Y0025669D01*
X0350653Y0025815D01*
X0350608Y0025961D01*
X0350567Y0026109D01*
X0350530Y0026257D01*
X0350496Y0026407D01*
X0350466Y0026558D01*
X0350441Y0026709D01*
X0350419Y0026860D01*
X0350401Y0027013D01*
X0350387Y0027165D01*
X0350377Y0027318D01*
X0350371Y0027472D01*
X0350369Y0027625D01*
D11*
X0207800Y0162800D03*
X0205800Y0143300D03*
X0167800Y0162800D03*
X0165800Y0143300D03*
X0141800Y0144300D03*
X0142300Y0163300D03*
X0102300Y0163300D03*
X0101800Y0144300D03*
X0080300Y0147300D03*
X0079800Y0164800D03*
X0039800Y0164800D03*
X0040300Y0147300D03*
D12*
X0076800Y0117300D02*
X0076800Y0111300D01*
X0086800Y0111300D02*
X0086800Y0117300D01*
X0096800Y0117300D02*
X0096800Y0111300D01*
X0106800Y0111300D02*
X0106800Y0117300D01*
X0106800Y0076800D02*
X0106800Y0070800D01*
X0096800Y0070800D02*
X0096800Y0076800D01*
X0086800Y0076800D02*
X0086800Y0070800D01*
X0076800Y0070800D02*
X0076800Y0076800D01*
X0238800Y0075800D02*
X0238800Y0069800D01*
X0248800Y0069800D02*
X0248800Y0075800D01*
X0258800Y0075800D02*
X0258800Y0069800D01*
X0268800Y0069800D02*
X0268800Y0075800D01*
X0268800Y0111300D02*
X0268800Y0117300D01*
X0258800Y0117300D02*
X0258800Y0111300D01*
X0248800Y0111300D02*
X0248800Y0117300D01*
X0238800Y0117300D02*
X0238800Y0111300D01*
X0333800Y0277800D02*
X0333800Y0283800D01*
X0343800Y0283800D02*
X0343800Y0277800D01*
X0353800Y0277800D02*
X0353800Y0283800D01*
X0363800Y0283800D02*
X0363800Y0277800D01*
D13*
X0346800Y0335200D02*
X0346800Y0340400D01*
X0336800Y0340400D02*
X0336800Y0335200D01*
X0326800Y0335200D02*
X0326800Y0340400D01*
X0316800Y0340400D02*
X0316800Y0335200D01*
X0306800Y0335200D02*
X0306800Y0340400D01*
X0296800Y0340400D02*
X0296800Y0335200D01*
X0286800Y0335200D02*
X0286800Y0340400D01*
X0276800Y0340400D02*
X0276800Y0335200D01*
X0266800Y0335200D02*
X0266800Y0340400D01*
X0256800Y0340400D02*
X0256800Y0335200D01*
X0246800Y0335200D02*
X0246800Y0340400D01*
X0236800Y0340400D02*
X0236800Y0335200D01*
X0241200Y0249300D02*
X0246400Y0249300D01*
X0246400Y0239300D02*
X0241200Y0239300D01*
X0241200Y0229300D02*
X0246400Y0229300D01*
X0246400Y0219300D02*
X0241200Y0219300D01*
X0241200Y0209300D02*
X0246400Y0209300D01*
X0246400Y0199300D02*
X0241200Y0199300D01*
X0241200Y0189300D02*
X0246400Y0189300D01*
X0246400Y0179300D02*
X0241200Y0179300D01*
X0241200Y0169300D02*
X0246400Y0169300D01*
X0246400Y0159300D02*
X0241200Y0159300D01*
X0196800Y0017900D02*
X0196800Y0012700D01*
X0186800Y0012700D02*
X0186800Y0017900D01*
X0176800Y0017900D02*
X0176800Y0012700D01*
X0166800Y0012700D02*
X0166800Y0017900D01*
X0156800Y0017900D02*
X0156800Y0012700D01*
D14*
X0191800Y0202800D03*
X0201800Y0202800D03*
X0201800Y0212800D03*
X0201800Y0222800D03*
X0191800Y0222800D03*
X0191800Y0212800D03*
X0191800Y0232800D03*
X0191800Y0242800D03*
X0201800Y0242800D03*
X0201800Y0232800D03*
X0201800Y0252800D03*
X0201800Y0262800D03*
X0191800Y0262800D03*
X0191800Y0252800D03*
X0191800Y0272800D03*
X0191800Y0282800D03*
X0201800Y0282800D03*
X0201800Y0272800D03*
X0201800Y0292800D03*
X0191800Y0292800D03*
X0032300Y0293300D03*
X0032300Y0283300D03*
X0032300Y0273300D03*
X0032300Y0263300D03*
X0032300Y0253300D03*
X0032300Y0243300D03*
X0032300Y0233300D03*
X0032300Y0223300D03*
X0032300Y0213300D03*
X0032300Y0203300D03*
X0022300Y0203300D03*
X0022300Y0213300D03*
X0022300Y0223300D03*
X0022300Y0233300D03*
X0022300Y0243300D03*
X0022300Y0253300D03*
X0022300Y0263300D03*
X0022300Y0273300D03*
X0022300Y0283300D03*
X0022300Y0293300D03*
D15*
X0066800Y0337800D01*
X0236800Y0337800D01*
X0236800Y0256300D01*
X0243800Y0249300D01*
X0242994Y0253500D02*
X0239200Y0257294D01*
X0239200Y0331660D01*
X0240361Y0332821D01*
X0241000Y0334365D01*
X0241000Y0341235D01*
X0240361Y0342779D01*
X0239179Y0343961D01*
X0237635Y0344600D01*
X0235965Y0344600D01*
X0234421Y0343961D01*
X0233239Y0342779D01*
X0232600Y0341235D01*
X0232600Y0340200D01*
X0066323Y0340200D01*
X0065441Y0339835D01*
X0023306Y0297700D01*
X0020477Y0297700D01*
X0017900Y0295123D01*
X0017900Y0291477D01*
X0020477Y0288900D01*
X0024123Y0288900D01*
X0026700Y0291477D01*
X0026700Y0294306D01*
X0067794Y0335400D01*
X0232600Y0335400D01*
X0232600Y0334365D01*
X0233239Y0332821D01*
X0234400Y0331660D01*
X0234400Y0255823D01*
X0234765Y0254941D01*
X0237833Y0251873D01*
X0237639Y0251679D01*
X0237000Y0250135D01*
X0237000Y0248465D01*
X0237639Y0246921D01*
X0238821Y0245739D01*
X0240365Y0245100D01*
X0247235Y0245100D01*
X0248779Y0245739D01*
X0249961Y0246921D01*
X0250600Y0248465D01*
X0250600Y0250135D01*
X0249961Y0251679D01*
X0248779Y0252861D01*
X0247235Y0253500D01*
X0242994Y0253500D01*
X0242743Y0253751D02*
X0361400Y0253751D01*
X0361400Y0252153D02*
X0249487Y0252153D01*
X0250426Y0250554D02*
X0361400Y0250554D01*
X0361400Y0248956D02*
X0250600Y0248956D01*
X0250141Y0247357D02*
X0361400Y0247357D01*
X0361400Y0245759D02*
X0248799Y0245759D01*
X0248089Y0243378D02*
X0247430Y0243592D01*
X0246746Y0243700D01*
X0243800Y0243700D01*
X0243800Y0239300D01*
X0243800Y0239300D01*
X0250800Y0239300D01*
X0250800Y0239646D01*
X0250692Y0240330D01*
X0250478Y0240989D01*
X0250163Y0241606D01*
X0249756Y0242166D01*
X0249266Y0242656D01*
X0248706Y0243063D01*
X0248089Y0243378D01*
X0249361Y0242562D02*
X0361400Y0242562D01*
X0361400Y0244160D02*
X0219200Y0244160D01*
X0219200Y0242562D02*
X0238239Y0242562D01*
X0238334Y0242656D02*
X0237844Y0242166D01*
X0237437Y0241606D01*
X0237122Y0240989D01*
X0236908Y0240330D01*
X0236800Y0239646D01*
X0236800Y0239300D01*
X0243800Y0239300D01*
X0243800Y0239300D01*
X0243800Y0243700D01*
X0240854Y0243700D01*
X0240170Y0243592D01*
X0239511Y0243378D01*
X0238894Y0243063D01*
X0238334Y0242656D01*
X0237114Y0240963D02*
X0219200Y0240963D01*
X0219200Y0239365D02*
X0236800Y0239365D01*
X0236800Y0239300D02*
X0236800Y0238954D01*
X0236908Y0238270D01*
X0237122Y0237611D01*
X0237437Y0236994D01*
X0237844Y0236434D01*
X0238334Y0235944D01*
X0238894Y0235537D01*
X0239511Y0235222D01*
X0240170Y0235008D01*
X0240854Y0234900D01*
X0243800Y0234900D01*
X0246746Y0234900D01*
X0247430Y0235008D01*
X0248089Y0235222D01*
X0248706Y0235537D01*
X0249266Y0235944D01*
X0249756Y0236434D01*
X0250163Y0236994D01*
X0250478Y0237611D01*
X0250692Y0238270D01*
X0250800Y0238954D01*
X0250800Y0239300D01*
X0243800Y0239300D01*
X0243800Y0234900D01*
X0243800Y0239300D01*
X0243800Y0239300D01*
X0243800Y0239300D01*
X0236800Y0239300D01*
X0237072Y0237766D02*
X0219200Y0237766D01*
X0219200Y0236168D02*
X0238110Y0236168D01*
X0239087Y0232971D02*
X0219200Y0232971D01*
X0219200Y0234569D02*
X0361400Y0234569D01*
X0361400Y0232971D02*
X0248513Y0232971D01*
X0248779Y0232861D02*
X0247235Y0233500D01*
X0240365Y0233500D01*
X0238821Y0232861D01*
X0237639Y0231679D01*
X0237000Y0230135D01*
X0237000Y0228465D01*
X0237639Y0226921D01*
X0238821Y0225739D01*
X0240365Y0225100D01*
X0247235Y0225100D01*
X0248779Y0225739D01*
X0249961Y0226921D01*
X0250600Y0228465D01*
X0250600Y0230135D01*
X0249961Y0231679D01*
X0248779Y0232861D01*
X0250088Y0231372D02*
X0361400Y0231372D01*
X0361400Y0229774D02*
X0250600Y0229774D01*
X0250480Y0228175D02*
X0361400Y0228175D01*
X0361400Y0226577D02*
X0249616Y0226577D01*
X0248779Y0222861D02*
X0247235Y0223500D01*
X0240365Y0223500D01*
X0238821Y0222861D01*
X0237639Y0221679D01*
X0237000Y0220135D01*
X0237000Y0218465D01*
X0237639Y0216921D01*
X0238821Y0215739D01*
X0240365Y0215100D01*
X0247235Y0215100D01*
X0248779Y0215739D01*
X0249961Y0216921D01*
X0250600Y0218465D01*
X0250600Y0220135D01*
X0249961Y0221679D01*
X0248779Y0222861D01*
X0247526Y0223380D02*
X0361400Y0223380D01*
X0361400Y0224978D02*
X0219200Y0224978D01*
X0219200Y0223380D02*
X0240074Y0223380D01*
X0237741Y0221781D02*
X0219200Y0221781D01*
X0219200Y0220183D02*
X0237020Y0220183D01*
X0237000Y0218584D02*
X0219200Y0218584D01*
X0219200Y0216986D02*
X0237613Y0216986D01*
X0239671Y0215387D02*
X0218781Y0215387D01*
X0218835Y0215441D02*
X0219200Y0216323D01*
X0219200Y0297277D01*
X0218835Y0298159D01*
X0208835Y0308159D01*
X0208159Y0308835D01*
X0207277Y0309200D01*
X0146323Y0309200D01*
X0145441Y0308835D01*
X0115441Y0278835D01*
X0114765Y0278159D01*
X0114400Y0277277D01*
X0114400Y0160294D01*
X0102606Y0148500D01*
X0100060Y0148500D01*
X0097600Y0146040D01*
X0097600Y0142560D01*
X0100060Y0140100D01*
X0103540Y0140100D01*
X0106000Y0142560D01*
X0106000Y0145106D01*
X0118835Y0157941D01*
X0119200Y0158823D01*
X0119200Y0275806D01*
X0147794Y0304400D01*
X0205806Y0304400D01*
X0214400Y0295806D01*
X0214400Y0217794D01*
X0211806Y0215200D01*
X0205623Y0215200D01*
X0203623Y0217200D01*
X0199977Y0217200D01*
X0197400Y0214623D01*
X0197400Y0210977D01*
X0199977Y0208400D01*
X0203623Y0208400D01*
X0205623Y0210400D01*
X0213277Y0210400D01*
X0214159Y0210765D01*
X0218159Y0214765D01*
X0218835Y0215441D01*
X0217183Y0213789D02*
X0361400Y0213789D01*
X0361400Y0215387D02*
X0247929Y0215387D01*
X0247235Y0213500D02*
X0240365Y0213500D01*
X0238821Y0212861D01*
X0237639Y0211679D01*
X0237000Y0210135D01*
X0237000Y0208465D01*
X0237639Y0206921D01*
X0238821Y0205739D01*
X0240365Y0205100D01*
X0247235Y0205100D01*
X0248779Y0205739D01*
X0249961Y0206921D01*
X0250600Y0208465D01*
X0250600Y0210135D01*
X0249961Y0211679D01*
X0248779Y0212861D01*
X0247235Y0213500D01*
X0249450Y0212190D02*
X0361400Y0212190D01*
X0361400Y0210592D02*
X0250411Y0210592D01*
X0250600Y0208993D02*
X0361400Y0208993D01*
X0361400Y0207395D02*
X0250157Y0207395D01*
X0248836Y0205796D02*
X0361400Y0205796D01*
X0361400Y0204198D02*
X0206200Y0204198D01*
X0206200Y0204623D02*
X0203623Y0207200D01*
X0199977Y0207200D01*
X0197400Y0204623D01*
X0197400Y0200977D01*
X0199977Y0198400D01*
X0203623Y0198400D01*
X0206200Y0200977D01*
X0206200Y0204623D01*
X0205026Y0205796D02*
X0238764Y0205796D01*
X0237443Y0207395D02*
X0159200Y0207395D01*
X0159200Y0208993D02*
X0189384Y0208993D01*
X0189977Y0208400D02*
X0187400Y0210977D01*
X0187400Y0214623D01*
X0189977Y0217200D01*
X0193623Y0217200D01*
X0196200Y0214623D01*
X0196200Y0210977D01*
X0193623Y0208400D01*
X0189977Y0208400D01*
X0189977Y0207200D02*
X0187400Y0204623D01*
X0187400Y0200977D01*
X0189977Y0198400D01*
X0193623Y0198400D01*
X0196200Y0200977D01*
X0196200Y0204623D01*
X0193623Y0207200D01*
X0189977Y0207200D01*
X0188574Y0205796D02*
X0159200Y0205796D01*
X0159200Y0204198D02*
X0187400Y0204198D01*
X0187400Y0202599D02*
X0159200Y0202599D01*
X0159200Y0201001D02*
X0187400Y0201001D01*
X0188975Y0199402D02*
X0159200Y0199402D01*
X0159200Y0197803D02*
X0237274Y0197803D01*
X0237000Y0198465D02*
X0237639Y0196921D01*
X0238821Y0195739D01*
X0240365Y0195100D01*
X0247235Y0195100D01*
X0248779Y0195739D01*
X0249961Y0196921D01*
X0250600Y0198465D01*
X0250600Y0200135D01*
X0249961Y0201679D01*
X0248779Y0202861D01*
X0247235Y0203500D01*
X0240365Y0203500D01*
X0238821Y0202861D01*
X0237639Y0201679D01*
X0237000Y0200135D01*
X0237000Y0198465D01*
X0237000Y0199402D02*
X0204625Y0199402D01*
X0206200Y0201001D02*
X0237358Y0201001D01*
X0238559Y0202599D02*
X0206200Y0202599D01*
X0204216Y0208993D02*
X0237000Y0208993D01*
X0237189Y0210592D02*
X0213740Y0210592D01*
X0212800Y0212800D02*
X0216800Y0216800D01*
X0216800Y0296800D01*
X0206800Y0306800D01*
X0146800Y0306800D01*
X0116800Y0276800D01*
X0116800Y0159300D01*
X0101800Y0144300D01*
X0105295Y0141856D02*
X0138305Y0141856D01*
X0137600Y0142560D02*
X0140060Y0140100D01*
X0143540Y0140100D01*
X0146000Y0142560D01*
X0146000Y0146040D01*
X0143540Y0148500D01*
X0140060Y0148500D01*
X0137600Y0146040D01*
X0137600Y0142560D01*
X0137600Y0143454D02*
X0106000Y0143454D01*
X0106000Y0145053D02*
X0137600Y0145053D01*
X0138211Y0146651D02*
X0107545Y0146651D01*
X0109144Y0148250D02*
X0139810Y0148250D01*
X0143790Y0148250D02*
X0157456Y0148250D01*
X0155858Y0149848D02*
X0110742Y0149848D01*
X0112341Y0151447D02*
X0154259Y0151447D01*
X0152661Y0153045D02*
X0113939Y0153045D01*
X0115538Y0154644D02*
X0151062Y0154644D01*
X0149765Y0155941D02*
X0161600Y0144106D01*
X0161600Y0141560D01*
X0164060Y0139100D01*
X0167540Y0139100D01*
X0170000Y0141560D01*
X0170000Y0145040D01*
X0167540Y0147500D01*
X0164994Y0147500D01*
X0154200Y0158294D01*
X0154200Y0167277D01*
X0153835Y0168159D01*
X0153159Y0168835D01*
X0139200Y0182794D01*
X0139200Y0275806D01*
X0143794Y0280400D01*
X0187977Y0280400D01*
X0189977Y0278400D01*
X0193623Y0278400D01*
X0196200Y0280977D01*
X0196200Y0284623D01*
X0193623Y0287200D01*
X0189977Y0287200D01*
X0187977Y0285200D01*
X0142323Y0285200D01*
X0141441Y0284835D01*
X0135441Y0278835D01*
X0134765Y0278159D01*
X0134400Y0277277D01*
X0134400Y0181323D01*
X0134765Y0180441D01*
X0149400Y0165806D01*
X0149400Y0156823D01*
X0149765Y0155941D01*
X0149640Y0156242D02*
X0117136Y0156242D01*
X0118735Y0157841D02*
X0149400Y0157841D01*
X0149400Y0159439D02*
X0144379Y0159439D01*
X0144040Y0159100D02*
X0146500Y0161560D01*
X0146500Y0165040D01*
X0144040Y0167500D01*
X0141494Y0167500D01*
X0129200Y0179794D01*
X0129200Y0275806D01*
X0143794Y0290400D01*
X0187977Y0290400D01*
X0189977Y0288400D01*
X0193623Y0288400D01*
X0196200Y0290977D01*
X0196200Y0294623D01*
X0193623Y0297200D01*
X0189977Y0297200D01*
X0187977Y0295200D01*
X0142323Y0295200D01*
X0141441Y0294835D01*
X0125441Y0278835D01*
X0124765Y0278159D01*
X0124400Y0277277D01*
X0124400Y0178323D01*
X0124765Y0177441D01*
X0138100Y0164106D01*
X0138100Y0161560D01*
X0140560Y0159100D01*
X0144040Y0159100D01*
X0145977Y0161038D02*
X0149400Y0161038D01*
X0149400Y0162636D02*
X0146500Y0162636D01*
X0146500Y0164235D02*
X0149400Y0164235D01*
X0149373Y0165833D02*
X0145706Y0165833D01*
X0144108Y0167432D02*
X0147774Y0167432D01*
X0146176Y0169030D02*
X0139964Y0169030D01*
X0138365Y0170629D02*
X0144577Y0170629D01*
X0142979Y0172227D02*
X0136767Y0172227D01*
X0135168Y0173826D02*
X0141380Y0173826D01*
X0139782Y0175424D02*
X0133570Y0175424D01*
X0131971Y0177023D02*
X0138183Y0177023D01*
X0136585Y0178621D02*
X0130373Y0178621D01*
X0129200Y0180220D02*
X0134986Y0180220D01*
X0134400Y0181818D02*
X0129200Y0181818D01*
X0129200Y0183417D02*
X0134400Y0183417D01*
X0134400Y0185015D02*
X0129200Y0185015D01*
X0129200Y0186614D02*
X0134400Y0186614D01*
X0134400Y0188212D02*
X0129200Y0188212D01*
X0129200Y0189811D02*
X0134400Y0189811D01*
X0134400Y0191409D02*
X0129200Y0191409D01*
X0129200Y0193008D02*
X0134400Y0193008D01*
X0134400Y0194606D02*
X0129200Y0194606D01*
X0129200Y0196205D02*
X0134400Y0196205D01*
X0134400Y0197803D02*
X0129200Y0197803D01*
X0129200Y0199402D02*
X0134400Y0199402D01*
X0134400Y0201001D02*
X0129200Y0201001D01*
X0129200Y0202599D02*
X0134400Y0202599D01*
X0134400Y0204198D02*
X0129200Y0204198D01*
X0129200Y0205796D02*
X0134400Y0205796D01*
X0134400Y0207395D02*
X0129200Y0207395D01*
X0129200Y0208993D02*
X0134400Y0208993D01*
X0134400Y0210592D02*
X0129200Y0210592D01*
X0129200Y0212190D02*
X0134400Y0212190D01*
X0134400Y0213789D02*
X0129200Y0213789D01*
X0129200Y0215387D02*
X0134400Y0215387D01*
X0134400Y0216986D02*
X0129200Y0216986D01*
X0129200Y0218584D02*
X0134400Y0218584D01*
X0134400Y0220183D02*
X0129200Y0220183D01*
X0129200Y0221781D02*
X0134400Y0221781D01*
X0134400Y0223380D02*
X0129200Y0223380D01*
X0129200Y0224978D02*
X0134400Y0224978D01*
X0134400Y0226577D02*
X0129200Y0226577D01*
X0129200Y0228175D02*
X0134400Y0228175D01*
X0134400Y0229774D02*
X0129200Y0229774D01*
X0129200Y0231372D02*
X0134400Y0231372D01*
X0134400Y0232971D02*
X0129200Y0232971D01*
X0129200Y0234569D02*
X0134400Y0234569D01*
X0134400Y0236168D02*
X0129200Y0236168D01*
X0129200Y0237766D02*
X0134400Y0237766D01*
X0134400Y0239365D02*
X0129200Y0239365D01*
X0129200Y0240963D02*
X0134400Y0240963D01*
X0134400Y0242562D02*
X0129200Y0242562D01*
X0129200Y0244160D02*
X0134400Y0244160D01*
X0134400Y0245759D02*
X0129200Y0245759D01*
X0129200Y0247357D02*
X0134400Y0247357D01*
X0134400Y0248956D02*
X0129200Y0248956D01*
X0129200Y0250554D02*
X0134400Y0250554D01*
X0134400Y0252153D02*
X0129200Y0252153D01*
X0129200Y0253751D02*
X0134400Y0253751D01*
X0134400Y0255350D02*
X0129200Y0255350D01*
X0129200Y0256948D02*
X0134400Y0256948D01*
X0134400Y0258547D02*
X0129200Y0258547D01*
X0129200Y0260145D02*
X0134400Y0260145D01*
X0134400Y0261744D02*
X0129200Y0261744D01*
X0129200Y0263342D02*
X0134400Y0263342D01*
X0134400Y0264941D02*
X0129200Y0264941D01*
X0129200Y0266539D02*
X0134400Y0266539D01*
X0134400Y0268138D02*
X0129200Y0268138D01*
X0129200Y0269737D02*
X0134400Y0269737D01*
X0134400Y0271335D02*
X0129200Y0271335D01*
X0129200Y0272934D02*
X0134400Y0272934D01*
X0134400Y0274532D02*
X0129200Y0274532D01*
X0129525Y0276131D02*
X0134400Y0276131D01*
X0134587Y0277729D02*
X0131123Y0277729D01*
X0132722Y0279328D02*
X0135933Y0279328D01*
X0137532Y0280926D02*
X0134320Y0280926D01*
X0135919Y0282525D02*
X0139130Y0282525D01*
X0140729Y0284123D02*
X0137517Y0284123D01*
X0139116Y0285722D02*
X0188499Y0285722D01*
X0189459Y0288919D02*
X0142313Y0288919D01*
X0140714Y0287320D02*
X0214400Y0287320D01*
X0214400Y0285722D02*
X0205101Y0285722D01*
X0206200Y0284623D02*
X0203623Y0287200D01*
X0199977Y0287200D01*
X0197400Y0284623D01*
X0197400Y0280977D01*
X0199977Y0278400D01*
X0203623Y0278400D01*
X0206200Y0280977D01*
X0206200Y0284623D01*
X0206200Y0284123D02*
X0214400Y0284123D01*
X0214400Y0282525D02*
X0206200Y0282525D01*
X0206149Y0280926D02*
X0214400Y0280926D01*
X0214400Y0279328D02*
X0204550Y0279328D01*
X0203623Y0277200D02*
X0199977Y0277200D01*
X0197400Y0274623D01*
X0197400Y0270977D01*
X0199977Y0268400D01*
X0203623Y0268400D01*
X0206200Y0270977D01*
X0206200Y0274623D01*
X0203623Y0277200D01*
X0204692Y0276131D02*
X0214400Y0276131D01*
X0214400Y0277729D02*
X0141123Y0277729D01*
X0139525Y0276131D02*
X0188908Y0276131D01*
X0187977Y0275200D02*
X0189977Y0277200D01*
X0193623Y0277200D01*
X0196200Y0274623D01*
X0196200Y0270977D01*
X0193623Y0268400D01*
X0189977Y0268400D01*
X0187977Y0270400D01*
X0148794Y0270400D01*
X0144200Y0265806D01*
X0144200Y0192794D01*
X0162794Y0174200D01*
X0172277Y0174200D01*
X0173159Y0173835D01*
X0183159Y0163835D01*
X0183835Y0163159D01*
X0184200Y0162277D01*
X0184200Y0141323D01*
X0183835Y0140441D01*
X0173835Y0130441D01*
X0173159Y0129765D01*
X0172277Y0129400D01*
X0112794Y0129400D01*
X0104876Y0121482D01*
X0105885Y0121900D01*
X0107715Y0121900D01*
X0109406Y0121200D01*
X0110700Y0119906D01*
X0111400Y0118215D01*
X0111400Y0110385D01*
X0110700Y0108694D01*
X0109406Y0107400D01*
X0107715Y0106700D01*
X0105885Y0106700D01*
X0104194Y0107400D01*
X0102900Y0108694D01*
X0102200Y0110385D01*
X0102200Y0118215D01*
X0102618Y0119224D01*
X0101400Y0118006D01*
X0101400Y0110385D01*
X0100700Y0108694D01*
X0099406Y0107400D01*
X0099200Y0107315D01*
X0099200Y0096323D01*
X0098835Y0095441D01*
X0098159Y0094765D01*
X0098159Y0094765D01*
X0089200Y0085806D01*
X0089200Y0080785D01*
X0089406Y0080700D01*
X0090700Y0079406D01*
X0091400Y0077715D01*
X0091400Y0069885D01*
X0090700Y0068194D01*
X0089406Y0066900D01*
X0087715Y0066200D01*
X0085885Y0066200D01*
X0084194Y0066900D01*
X0082900Y0068194D01*
X0082200Y0069885D01*
X0082200Y0077715D01*
X0082900Y0079406D01*
X0084194Y0080700D01*
X0084400Y0080785D01*
X0084400Y0087277D01*
X0084765Y0088159D01*
X0085441Y0088835D01*
X0085441Y0088835D01*
X0094400Y0097794D01*
X0094400Y0107315D01*
X0094194Y0107400D01*
X0092900Y0108694D01*
X0092200Y0110385D01*
X0092200Y0118215D01*
X0092900Y0119906D01*
X0094194Y0121200D01*
X0095885Y0121900D01*
X0097715Y0121900D01*
X0098274Y0121668D01*
X0110441Y0133835D01*
X0111323Y0134200D01*
X0170806Y0134200D01*
X0179400Y0142794D01*
X0179400Y0160806D01*
X0170806Y0169400D01*
X0161323Y0169400D01*
X0160441Y0169765D01*
X0159765Y0170441D01*
X0139765Y0190441D01*
X0139400Y0191323D01*
X0139400Y0267277D01*
X0139765Y0268159D01*
X0140441Y0268835D01*
X0146441Y0274835D01*
X0147323Y0275200D01*
X0187977Y0275200D01*
X0189050Y0279328D02*
X0142722Y0279328D01*
X0142800Y0282800D02*
X0136800Y0276800D01*
X0136800Y0181800D01*
X0151800Y0166800D01*
X0151800Y0157300D01*
X0165800Y0143300D01*
X0168697Y0140257D02*
X0176863Y0140257D01*
X0175264Y0138659D02*
X0006600Y0138659D01*
X0006600Y0140257D02*
X0099903Y0140257D01*
X0098305Y0141856D02*
X0006600Y0141856D01*
X0006600Y0143454D02*
X0038206Y0143454D01*
X0038560Y0143100D02*
X0042040Y0143100D01*
X0044500Y0145560D01*
X0044500Y0149040D01*
X0042040Y0151500D01*
X0038560Y0151500D01*
X0036100Y0149040D01*
X0036100Y0145560D01*
X0038560Y0143100D01*
X0036608Y0145053D02*
X0006600Y0145053D01*
X0006600Y0146651D02*
X0036100Y0146651D01*
X0036100Y0148250D02*
X0006600Y0148250D01*
X0006600Y0149848D02*
X0036908Y0149848D01*
X0038507Y0151447D02*
X0006600Y0151447D01*
X0006600Y0153045D02*
X0107151Y0153045D01*
X0105553Y0151447D02*
X0082093Y0151447D01*
X0082040Y0151500D02*
X0078560Y0151500D01*
X0076100Y0149040D01*
X0076100Y0145560D01*
X0078560Y0143100D01*
X0082040Y0143100D01*
X0084500Y0145560D01*
X0084500Y0149040D01*
X0082040Y0151500D01*
X0083692Y0149848D02*
X0103954Y0149848D01*
X0099810Y0148250D02*
X0084500Y0148250D01*
X0084500Y0146651D02*
X0098211Y0146651D01*
X0097600Y0145053D02*
X0083992Y0145053D01*
X0082394Y0143454D02*
X0097600Y0143454D01*
X0103697Y0140257D02*
X0139903Y0140257D01*
X0143697Y0140257D02*
X0162903Y0140257D01*
X0161600Y0141856D02*
X0145295Y0141856D01*
X0146000Y0143454D02*
X0161600Y0143454D01*
X0160653Y0145053D02*
X0146000Y0145053D01*
X0145389Y0146651D02*
X0159055Y0146651D01*
X0162646Y0149848D02*
X0179400Y0149848D01*
X0179400Y0148250D02*
X0164244Y0148250D01*
X0168389Y0146651D02*
X0179400Y0146651D01*
X0179400Y0145053D02*
X0169987Y0145053D01*
X0170000Y0143454D02*
X0179400Y0143454D01*
X0178461Y0141856D02*
X0170000Y0141856D01*
X0173666Y0137060D02*
X0006600Y0137060D01*
X0006600Y0135462D02*
X0172067Y0135462D01*
X0171800Y0131800D02*
X0111800Y0131800D01*
X0096800Y0116800D01*
X0096800Y0114300D01*
X0096800Y0096800D01*
X0086800Y0086800D01*
X0086800Y0073800D01*
X0091400Y0073120D02*
X0092200Y0073120D01*
X0092200Y0074718D02*
X0091400Y0074718D01*
X0091400Y0076317D02*
X0092200Y0076317D01*
X0092200Y0077715D02*
X0092200Y0069885D01*
X0092900Y0068194D01*
X0094194Y0066900D01*
X0095885Y0066200D01*
X0097715Y0066200D01*
X0099406Y0066900D01*
X0100700Y0068194D01*
X0101400Y0069885D01*
X0101400Y0077715D01*
X0100700Y0079406D01*
X0099406Y0080700D01*
X0097715Y0081400D01*
X0095885Y0081400D01*
X0094194Y0080700D01*
X0092900Y0079406D01*
X0092200Y0077715D01*
X0092283Y0077915D02*
X0091317Y0077915D01*
X0090592Y0079514D02*
X0093008Y0079514D01*
X0095190Y0081112D02*
X0089200Y0081112D01*
X0089200Y0082711D02*
X0159400Y0082711D01*
X0159400Y0084309D02*
X0089200Y0084309D01*
X0089302Y0085908D02*
X0159400Y0085908D01*
X0159400Y0087506D02*
X0090900Y0087506D01*
X0092499Y0089105D02*
X0159400Y0089105D01*
X0159400Y0090703D02*
X0094097Y0090703D01*
X0095696Y0092302D02*
X0159400Y0092302D01*
X0159400Y0093900D02*
X0097294Y0093900D01*
X0098859Y0095499D02*
X0159400Y0095499D01*
X0159400Y0097097D02*
X0099200Y0097097D01*
X0099200Y0098696D02*
X0159400Y0098696D01*
X0159400Y0100294D02*
X0099200Y0100294D01*
X0099200Y0101893D02*
X0159400Y0101893D01*
X0159400Y0103491D02*
X0099200Y0103491D01*
X0099200Y0105090D02*
X0159400Y0105090D01*
X0159400Y0106688D02*
X0099200Y0106688D01*
X0100292Y0108287D02*
X0103308Y0108287D01*
X0102407Y0109885D02*
X0101193Y0109885D01*
X0101400Y0111484D02*
X0102200Y0111484D01*
X0102200Y0113082D02*
X0101400Y0113082D01*
X0101400Y0114681D02*
X0102200Y0114681D01*
X0102200Y0116279D02*
X0101400Y0116279D01*
X0101400Y0117878D02*
X0102200Y0117878D01*
X0099279Y0122673D02*
X0006600Y0122673D01*
X0006600Y0121075D02*
X0073830Y0121075D01*
X0073673Y0120961D02*
X0073139Y0120427D01*
X0072695Y0119816D01*
X0072352Y0119143D01*
X0072118Y0118424D01*
X0072000Y0117678D01*
X0072000Y0114500D01*
X0076600Y0114500D01*
X0076600Y0122100D01*
X0076422Y0122100D01*
X0075676Y0121982D01*
X0074957Y0121748D01*
X0074284Y0121405D01*
X0073673Y0120961D01*
X0072522Y0119476D02*
X0006600Y0119476D01*
X0006600Y0117878D02*
X0072032Y0117878D01*
X0072000Y0116279D02*
X0006600Y0116279D01*
X0006600Y0114681D02*
X0072000Y0114681D01*
X0072000Y0114100D02*
X0072000Y0110922D01*
X0072118Y0110176D01*
X0072352Y0109457D01*
X0072695Y0108784D01*
X0073139Y0108173D01*
X0073673Y0107639D01*
X0074284Y0107195D01*
X0074957Y0106852D01*
X0075676Y0106618D01*
X0076422Y0106500D01*
X0076600Y0106500D01*
X0076600Y0114100D01*
X0077000Y0114100D01*
X0077000Y0114500D01*
X0081600Y0114500D01*
X0081600Y0117678D01*
X0081482Y0118424D01*
X0081248Y0119143D01*
X0080905Y0119816D01*
X0080461Y0120427D01*
X0079927Y0120961D01*
X0079316Y0121405D01*
X0078643Y0121748D01*
X0077924Y0121982D01*
X0077178Y0122100D01*
X0077000Y0122100D01*
X0077000Y0114500D01*
X0076600Y0114500D01*
X0076600Y0114100D01*
X0072000Y0114100D01*
X0072000Y0113082D02*
X0006600Y0113082D01*
X0006600Y0111484D02*
X0072000Y0111484D01*
X0072213Y0109885D02*
X0006600Y0109885D01*
X0006600Y0108287D02*
X0073056Y0108287D01*
X0075460Y0106688D02*
X0006600Y0106688D01*
X0006600Y0105090D02*
X0094400Y0105090D01*
X0094400Y0106688D02*
X0078140Y0106688D01*
X0077924Y0106618D02*
X0078643Y0106852D01*
X0079316Y0107195D01*
X0079927Y0107639D01*
X0080461Y0108173D01*
X0080905Y0108784D01*
X0081248Y0109457D01*
X0081482Y0110176D01*
X0081600Y0110922D01*
X0081600Y0114100D01*
X0077000Y0114100D01*
X0077000Y0106500D01*
X0077178Y0106500D01*
X0077924Y0106618D01*
X0077000Y0106688D02*
X0076600Y0106688D01*
X0076600Y0108287D02*
X0077000Y0108287D01*
X0077000Y0109885D02*
X0076600Y0109885D01*
X0076600Y0111484D02*
X0077000Y0111484D01*
X0077000Y0113082D02*
X0076600Y0113082D01*
X0076600Y0114681D02*
X0077000Y0114681D01*
X0077000Y0116279D02*
X0076600Y0116279D01*
X0076600Y0117878D02*
X0077000Y0117878D01*
X0077000Y0119476D02*
X0076600Y0119476D01*
X0076600Y0121075D02*
X0077000Y0121075D01*
X0079770Y0121075D02*
X0084070Y0121075D01*
X0084194Y0121200D02*
X0082900Y0119906D01*
X0082200Y0118215D01*
X0082200Y0110385D01*
X0082900Y0108694D01*
X0084194Y0107400D01*
X0085885Y0106700D01*
X0087715Y0106700D01*
X0089406Y0107400D01*
X0090700Y0108694D01*
X0091400Y0110385D01*
X0091400Y0118215D01*
X0090700Y0119906D01*
X0089406Y0121200D01*
X0087715Y0121900D01*
X0085885Y0121900D01*
X0084194Y0121200D01*
X0082723Y0119476D02*
X0081078Y0119476D01*
X0081568Y0117878D02*
X0082200Y0117878D01*
X0082200Y0116279D02*
X0081600Y0116279D01*
X0081600Y0114681D02*
X0082200Y0114681D01*
X0082200Y0113082D02*
X0081600Y0113082D01*
X0081600Y0111484D02*
X0082200Y0111484D01*
X0082407Y0109885D02*
X0081387Y0109885D01*
X0080544Y0108287D02*
X0083308Y0108287D01*
X0090292Y0108287D02*
X0093308Y0108287D01*
X0092407Y0109885D02*
X0091193Y0109885D01*
X0091400Y0111484D02*
X0092200Y0111484D01*
X0092200Y0113082D02*
X0091400Y0113082D01*
X0091400Y0114681D02*
X0092200Y0114681D01*
X0092200Y0116279D02*
X0091400Y0116279D01*
X0091400Y0117878D02*
X0092200Y0117878D01*
X0092723Y0119476D02*
X0090877Y0119476D01*
X0089530Y0121075D02*
X0094070Y0121075D01*
X0100878Y0124272D02*
X0006600Y0124272D01*
X0006600Y0125870D02*
X0102476Y0125870D01*
X0104075Y0127469D02*
X0006600Y0127469D01*
X0006600Y0129068D02*
X0105673Y0129068D01*
X0107272Y0130666D02*
X0006600Y0130666D01*
X0006600Y0132265D02*
X0108870Y0132265D01*
X0110509Y0133863D02*
X0006600Y0133863D01*
X0006600Y0154644D02*
X0108750Y0154644D01*
X0110348Y0156242D02*
X0006600Y0156242D01*
X0006600Y0157841D02*
X0111947Y0157841D01*
X0113545Y0159439D02*
X0104662Y0159439D01*
X0104123Y0158900D02*
X0106700Y0161477D01*
X0106700Y0163300D01*
X0106700Y0165123D01*
X0104123Y0167700D01*
X0102300Y0167700D01*
X0102300Y0163300D01*
X0106700Y0163300D01*
X0102300Y0163300D01*
X0102300Y0163300D01*
X0102300Y0163300D01*
X0102300Y0158900D01*
X0104123Y0158900D01*
X0102300Y0158900D02*
X0102300Y0163300D01*
X0102300Y0163300D01*
X0102300Y0163300D01*
X0097900Y0163300D01*
X0097900Y0165123D01*
X0100477Y0167700D01*
X0102300Y0167700D01*
X0102300Y0163300D01*
X0097900Y0163300D01*
X0097900Y0161477D01*
X0100477Y0158900D01*
X0102300Y0158900D01*
X0102300Y0159439D02*
X0102300Y0159439D01*
X0102300Y0161038D02*
X0102300Y0161038D01*
X0102300Y0162636D02*
X0102300Y0162636D01*
X0102300Y0164235D02*
X0102300Y0164235D01*
X0102300Y0165833D02*
X0102300Y0165833D01*
X0102300Y0167432D02*
X0102300Y0167432D01*
X0104391Y0167432D02*
X0114400Y0167432D01*
X0114400Y0169030D02*
X0041792Y0169030D01*
X0041623Y0169200D02*
X0039800Y0169200D01*
X0039800Y0164800D01*
X0044200Y0164800D01*
X0044200Y0166623D01*
X0041623Y0169200D01*
X0039800Y0169200D02*
X0037977Y0169200D01*
X0035400Y0166623D01*
X0035400Y0164800D01*
X0039800Y0164800D01*
X0039800Y0164800D01*
X0039800Y0164800D01*
X0044200Y0164800D01*
X0044200Y0162977D01*
X0041623Y0160400D01*
X0039800Y0160400D01*
X0039800Y0164800D01*
X0039800Y0164800D01*
X0039800Y0164800D01*
X0039800Y0169200D01*
X0039800Y0169030D02*
X0039800Y0169030D01*
X0039800Y0167432D02*
X0039800Y0167432D01*
X0039800Y0165833D02*
X0039800Y0165833D01*
X0039800Y0164800D02*
X0035400Y0164800D01*
X0035400Y0162977D01*
X0037977Y0160400D01*
X0039800Y0160400D01*
X0039800Y0164800D01*
X0039800Y0164235D02*
X0039800Y0164235D01*
X0039800Y0162636D02*
X0039800Y0162636D01*
X0039800Y0161038D02*
X0039800Y0161038D01*
X0042260Y0161038D02*
X0077623Y0161038D01*
X0078060Y0160600D02*
X0075600Y0163060D01*
X0075600Y0166540D01*
X0078060Y0169000D01*
X0081540Y0169000D01*
X0084000Y0166540D01*
X0084000Y0163060D01*
X0081540Y0160600D01*
X0078060Y0160600D01*
X0076024Y0162636D02*
X0043859Y0162636D01*
X0044200Y0164235D02*
X0075600Y0164235D01*
X0075600Y0165833D02*
X0044200Y0165833D01*
X0043391Y0167432D02*
X0076492Y0167432D01*
X0083108Y0167432D02*
X0100209Y0167432D01*
X0098611Y0165833D02*
X0084000Y0165833D01*
X0084000Y0164235D02*
X0097900Y0164235D01*
X0097900Y0162636D02*
X0083576Y0162636D01*
X0081977Y0161038D02*
X0098340Y0161038D01*
X0099938Y0159439D02*
X0006600Y0159439D01*
X0006600Y0161038D02*
X0037340Y0161038D01*
X0035741Y0162636D02*
X0006600Y0162636D01*
X0006600Y0164235D02*
X0035400Y0164235D01*
X0035400Y0165833D02*
X0006600Y0165833D01*
X0006600Y0167432D02*
X0036209Y0167432D01*
X0037808Y0169030D02*
X0006600Y0169030D01*
X0006600Y0170629D02*
X0114400Y0170629D01*
X0114400Y0172227D02*
X0006600Y0172227D01*
X0006600Y0173826D02*
X0114400Y0173826D01*
X0114400Y0175424D02*
X0006600Y0175424D01*
X0006600Y0177023D02*
X0114400Y0177023D01*
X0114400Y0178621D02*
X0006600Y0178621D01*
X0006600Y0180220D02*
X0114400Y0180220D01*
X0114400Y0181818D02*
X0006600Y0181818D01*
X0006600Y0183417D02*
X0114400Y0183417D01*
X0114400Y0185015D02*
X0006600Y0185015D01*
X0006600Y0186614D02*
X0114400Y0186614D01*
X0114400Y0188212D02*
X0006600Y0188212D01*
X0006600Y0189811D02*
X0114400Y0189811D01*
X0114400Y0191409D02*
X0006600Y0191409D01*
X0006600Y0193008D02*
X0114400Y0193008D01*
X0114400Y0194606D02*
X0006600Y0194606D01*
X0006600Y0196205D02*
X0114400Y0196205D01*
X0114400Y0197803D02*
X0006600Y0197803D01*
X0006600Y0199402D02*
X0019975Y0199402D01*
X0020477Y0198900D02*
X0024123Y0198900D01*
X0026700Y0201477D01*
X0026700Y0205123D01*
X0024123Y0207700D01*
X0020477Y0207700D01*
X0017900Y0205123D01*
X0017900Y0201477D01*
X0020477Y0198900D01*
X0018377Y0201001D02*
X0006600Y0201001D01*
X0006600Y0202599D02*
X0017900Y0202599D01*
X0017900Y0204198D02*
X0006600Y0204198D01*
X0006600Y0205796D02*
X0018574Y0205796D01*
X0020172Y0207395D02*
X0006600Y0207395D01*
X0006600Y0208993D02*
X0020384Y0208993D01*
X0020477Y0208900D02*
X0024123Y0208900D01*
X0026700Y0211477D01*
X0026700Y0215123D01*
X0024123Y0217700D01*
X0020477Y0217700D01*
X0017900Y0215123D01*
X0017900Y0211477D01*
X0020477Y0208900D01*
X0018786Y0210592D02*
X0006600Y0210592D01*
X0006600Y0212190D02*
X0017900Y0212190D01*
X0017900Y0213789D02*
X0006600Y0213789D01*
X0006600Y0215387D02*
X0018165Y0215387D01*
X0019763Y0216986D02*
X0006600Y0216986D01*
X0006600Y0218584D02*
X0114400Y0218584D01*
X0114400Y0216986D02*
X0034837Y0216986D01*
X0034123Y0217700D02*
X0030477Y0217700D01*
X0027900Y0215123D01*
X0027900Y0211477D01*
X0030477Y0208900D01*
X0034123Y0208900D01*
X0036700Y0211477D01*
X0036700Y0215123D01*
X0034123Y0217700D01*
X0034123Y0218900D02*
X0036700Y0221477D01*
X0036700Y0225123D01*
X0034123Y0227700D01*
X0030477Y0227700D01*
X0027900Y0225123D01*
X0027900Y0221477D01*
X0030477Y0218900D01*
X0034123Y0218900D01*
X0035405Y0220183D02*
X0114400Y0220183D01*
X0114400Y0221781D02*
X0036700Y0221781D01*
X0036700Y0223380D02*
X0114400Y0223380D01*
X0114400Y0224978D02*
X0036700Y0224978D01*
X0035246Y0226577D02*
X0114400Y0226577D01*
X0114400Y0228175D02*
X0006600Y0228175D01*
X0006600Y0226577D02*
X0019354Y0226577D01*
X0020477Y0227700D02*
X0017900Y0225123D01*
X0017900Y0221477D01*
X0020477Y0218900D01*
X0024123Y0218900D01*
X0026700Y0221477D01*
X0026700Y0225123D01*
X0024123Y0227700D01*
X0020477Y0227700D01*
X0020477Y0228900D02*
X0017900Y0231477D01*
X0017900Y0235123D01*
X0020477Y0237700D01*
X0024123Y0237700D01*
X0026700Y0235123D01*
X0026700Y0231477D01*
X0024123Y0228900D01*
X0020477Y0228900D01*
X0019604Y0229774D02*
X0006600Y0229774D01*
X0006600Y0231372D02*
X0018005Y0231372D01*
X0017900Y0232971D02*
X0006600Y0232971D01*
X0006600Y0234569D02*
X0017900Y0234569D01*
X0018945Y0236168D02*
X0006600Y0236168D01*
X0006600Y0237766D02*
X0114400Y0237766D01*
X0114400Y0236168D02*
X0035655Y0236168D01*
X0036700Y0235123D02*
X0034123Y0237700D01*
X0030477Y0237700D01*
X0027900Y0235123D01*
X0027900Y0231477D01*
X0030477Y0228900D01*
X0034123Y0228900D01*
X0036700Y0231477D01*
X0036700Y0235123D01*
X0036700Y0234569D02*
X0114400Y0234569D01*
X0114400Y0232971D02*
X0036700Y0232971D01*
X0036595Y0231372D02*
X0114400Y0231372D01*
X0114400Y0229774D02*
X0034996Y0229774D01*
X0029604Y0229774D02*
X0024996Y0229774D01*
X0026595Y0231372D02*
X0028005Y0231372D01*
X0027900Y0232971D02*
X0026700Y0232971D01*
X0026700Y0234569D02*
X0027900Y0234569D01*
X0028945Y0236168D02*
X0025655Y0236168D01*
X0024123Y0238900D02*
X0026700Y0241477D01*
X0026700Y0245123D01*
X0024123Y0247700D01*
X0020477Y0247700D01*
X0017900Y0245123D01*
X0017900Y0241477D01*
X0020477Y0238900D01*
X0024123Y0238900D01*
X0024587Y0239365D02*
X0030013Y0239365D01*
X0030477Y0238900D02*
X0034123Y0238900D01*
X0036700Y0241477D01*
X0036700Y0245123D01*
X0034123Y0247700D01*
X0030477Y0247700D01*
X0027900Y0245123D01*
X0027900Y0241477D01*
X0030477Y0238900D01*
X0028414Y0240963D02*
X0026186Y0240963D01*
X0026700Y0242562D02*
X0027900Y0242562D01*
X0027900Y0244160D02*
X0026700Y0244160D01*
X0026064Y0245759D02*
X0028536Y0245759D01*
X0030135Y0247357D02*
X0024465Y0247357D01*
X0024123Y0248900D02*
X0020477Y0248900D01*
X0017900Y0251477D01*
X0017900Y0255123D01*
X0020477Y0257700D01*
X0024123Y0257700D01*
X0026700Y0255123D01*
X0026700Y0251477D01*
X0024123Y0248900D01*
X0024178Y0248956D02*
X0030422Y0248956D01*
X0030477Y0248900D02*
X0034123Y0248900D01*
X0036700Y0251477D01*
X0036700Y0255123D01*
X0034123Y0257700D01*
X0030477Y0257700D01*
X0027900Y0255123D01*
X0027900Y0251477D01*
X0030477Y0248900D01*
X0028823Y0250554D02*
X0025777Y0250554D01*
X0026700Y0252153D02*
X0027900Y0252153D01*
X0027900Y0253751D02*
X0026700Y0253751D01*
X0026473Y0255350D02*
X0028127Y0255350D01*
X0029726Y0256948D02*
X0024874Y0256948D01*
X0024123Y0258900D02*
X0026700Y0261477D01*
X0026700Y0265123D01*
X0024123Y0267700D01*
X0020477Y0267700D01*
X0017900Y0265123D01*
X0017900Y0261477D01*
X0020477Y0258900D01*
X0024123Y0258900D01*
X0025368Y0260145D02*
X0029232Y0260145D01*
X0030477Y0258900D02*
X0027900Y0261477D01*
X0027900Y0265123D01*
X0030477Y0267700D01*
X0034123Y0267700D01*
X0036700Y0265123D01*
X0036700Y0261477D01*
X0034123Y0258900D01*
X0030477Y0258900D01*
X0027900Y0261744D02*
X0026700Y0261744D01*
X0026700Y0263342D02*
X0027900Y0263342D01*
X0027900Y0264941D02*
X0026700Y0264941D01*
X0025283Y0266539D02*
X0029317Y0266539D01*
X0030477Y0268900D02*
X0034123Y0268900D01*
X0036700Y0271477D01*
X0036700Y0275123D01*
X0034123Y0277700D01*
X0030477Y0277700D01*
X0027900Y0275123D01*
X0027900Y0271477D01*
X0030477Y0268900D01*
X0029641Y0269737D02*
X0024959Y0269737D01*
X0024123Y0268900D02*
X0026700Y0271477D01*
X0026700Y0275123D01*
X0024123Y0277700D01*
X0020477Y0277700D01*
X0017900Y0275123D01*
X0017900Y0271477D01*
X0020477Y0268900D01*
X0024123Y0268900D01*
X0026558Y0271335D02*
X0028042Y0271335D01*
X0027900Y0272934D02*
X0026700Y0272934D01*
X0026700Y0274532D02*
X0027900Y0274532D01*
X0028908Y0276131D02*
X0025692Y0276131D01*
X0024123Y0278900D02*
X0026700Y0281477D01*
X0026700Y0285123D01*
X0024123Y0287700D01*
X0020477Y0287700D01*
X0017900Y0285123D01*
X0017900Y0281477D01*
X0020477Y0278900D01*
X0024123Y0278900D01*
X0024550Y0279328D02*
X0029767Y0279328D01*
X0030395Y0278700D02*
X0027700Y0281395D01*
X0027700Y0283200D01*
X0032200Y0283200D01*
X0032200Y0283400D01*
X0032200Y0287900D01*
X0030395Y0287900D01*
X0027700Y0285205D01*
X0027700Y0283400D01*
X0032200Y0283400D01*
X0032400Y0283400D01*
X0032400Y0287900D01*
X0034205Y0287900D01*
X0036900Y0285205D01*
X0036900Y0283400D01*
X0032400Y0283400D01*
X0032400Y0283200D01*
X0036900Y0283200D01*
X0036900Y0281395D01*
X0034205Y0278700D01*
X0032400Y0278700D01*
X0032400Y0283200D01*
X0032200Y0283200D01*
X0032200Y0278700D01*
X0030395Y0278700D01*
X0032200Y0279328D02*
X0032400Y0279328D01*
X0032400Y0280926D02*
X0032200Y0280926D01*
X0032200Y0282525D02*
X0032400Y0282525D01*
X0032400Y0284123D02*
X0032200Y0284123D01*
X0032200Y0285722D02*
X0032400Y0285722D01*
X0032400Y0287320D02*
X0032200Y0287320D01*
X0030477Y0288900D02*
X0034123Y0288900D01*
X0036700Y0291477D01*
X0036700Y0295123D01*
X0034123Y0297700D01*
X0030477Y0297700D01*
X0027900Y0295123D01*
X0027900Y0291477D01*
X0030477Y0288900D01*
X0030459Y0288919D02*
X0024141Y0288919D01*
X0024502Y0287320D02*
X0029815Y0287320D01*
X0028216Y0285722D02*
X0026101Y0285722D01*
X0026700Y0284123D02*
X0027700Y0284123D01*
X0027700Y0282525D02*
X0026700Y0282525D01*
X0026149Y0280926D02*
X0028169Y0280926D01*
X0034833Y0279328D02*
X0115933Y0279328D01*
X0114587Y0277729D02*
X0006600Y0277729D01*
X0006600Y0276131D02*
X0018908Y0276131D01*
X0017900Y0274532D02*
X0006600Y0274532D01*
X0006600Y0272934D02*
X0017900Y0272934D01*
X0018042Y0271335D02*
X0006600Y0271335D01*
X0006600Y0269737D02*
X0019641Y0269737D01*
X0019317Y0266539D02*
X0006600Y0266539D01*
X0006600Y0264941D02*
X0017900Y0264941D01*
X0017900Y0263342D02*
X0006600Y0263342D01*
X0006600Y0261744D02*
X0017900Y0261744D01*
X0019232Y0260145D02*
X0006600Y0260145D01*
X0006600Y0258547D02*
X0114400Y0258547D01*
X0114400Y0260145D02*
X0035368Y0260145D01*
X0036700Y0261744D02*
X0114400Y0261744D01*
X0114400Y0263342D02*
X0036700Y0263342D01*
X0036700Y0264941D02*
X0114400Y0264941D01*
X0114400Y0266539D02*
X0035283Y0266539D01*
X0034959Y0269737D02*
X0114400Y0269737D01*
X0114400Y0271335D02*
X0036558Y0271335D01*
X0036700Y0272934D02*
X0114400Y0272934D01*
X0114400Y0274532D02*
X0036700Y0274532D01*
X0035692Y0276131D02*
X0114400Y0276131D01*
X0119200Y0274532D02*
X0124400Y0274532D01*
X0124400Y0272934D02*
X0119200Y0272934D01*
X0119200Y0271335D02*
X0124400Y0271335D01*
X0124400Y0269737D02*
X0119200Y0269737D01*
X0119200Y0268138D02*
X0124400Y0268138D01*
X0124400Y0266539D02*
X0119200Y0266539D01*
X0119200Y0264941D02*
X0124400Y0264941D01*
X0124400Y0263342D02*
X0119200Y0263342D01*
X0119200Y0261744D02*
X0124400Y0261744D01*
X0124400Y0260145D02*
X0119200Y0260145D01*
X0119200Y0258547D02*
X0124400Y0258547D01*
X0124400Y0256948D02*
X0119200Y0256948D01*
X0119200Y0255350D02*
X0124400Y0255350D01*
X0124400Y0253751D02*
X0119200Y0253751D01*
X0119200Y0252153D02*
X0124400Y0252153D01*
X0124400Y0250554D02*
X0119200Y0250554D01*
X0119200Y0248956D02*
X0124400Y0248956D01*
X0124400Y0247357D02*
X0119200Y0247357D01*
X0119200Y0245759D02*
X0124400Y0245759D01*
X0124400Y0244160D02*
X0119200Y0244160D01*
X0119200Y0242562D02*
X0124400Y0242562D01*
X0124400Y0240963D02*
X0119200Y0240963D01*
X0119200Y0239365D02*
X0124400Y0239365D01*
X0124400Y0237766D02*
X0119200Y0237766D01*
X0119200Y0236168D02*
X0124400Y0236168D01*
X0124400Y0234569D02*
X0119200Y0234569D01*
X0119200Y0232971D02*
X0124400Y0232971D01*
X0124400Y0231372D02*
X0119200Y0231372D01*
X0119200Y0229774D02*
X0124400Y0229774D01*
X0124400Y0228175D02*
X0119200Y0228175D01*
X0119200Y0226577D02*
X0124400Y0226577D01*
X0124400Y0224978D02*
X0119200Y0224978D01*
X0119200Y0223380D02*
X0124400Y0223380D01*
X0124400Y0221781D02*
X0119200Y0221781D01*
X0119200Y0220183D02*
X0124400Y0220183D01*
X0124400Y0218584D02*
X0119200Y0218584D01*
X0119200Y0216986D02*
X0124400Y0216986D01*
X0124400Y0215387D02*
X0119200Y0215387D01*
X0119200Y0213789D02*
X0124400Y0213789D01*
X0124400Y0212190D02*
X0119200Y0212190D01*
X0119200Y0210592D02*
X0124400Y0210592D01*
X0124400Y0208993D02*
X0119200Y0208993D01*
X0119200Y0207395D02*
X0124400Y0207395D01*
X0124400Y0205796D02*
X0119200Y0205796D01*
X0119200Y0204198D02*
X0124400Y0204198D01*
X0124400Y0202599D02*
X0119200Y0202599D01*
X0119200Y0201001D02*
X0124400Y0201001D01*
X0124400Y0199402D02*
X0119200Y0199402D01*
X0119200Y0197803D02*
X0124400Y0197803D01*
X0124400Y0196205D02*
X0119200Y0196205D01*
X0119200Y0194606D02*
X0124400Y0194606D01*
X0124400Y0193008D02*
X0119200Y0193008D01*
X0119200Y0191409D02*
X0124400Y0191409D01*
X0124400Y0189811D02*
X0119200Y0189811D01*
X0119200Y0188212D02*
X0124400Y0188212D01*
X0124400Y0186614D02*
X0119200Y0186614D01*
X0119200Y0185015D02*
X0124400Y0185015D01*
X0124400Y0183417D02*
X0119200Y0183417D01*
X0119200Y0181818D02*
X0124400Y0181818D01*
X0124400Y0180220D02*
X0119200Y0180220D01*
X0119200Y0178621D02*
X0124400Y0178621D01*
X0125183Y0177023D02*
X0119200Y0177023D01*
X0119200Y0175424D02*
X0126782Y0175424D01*
X0128380Y0173826D02*
X0119200Y0173826D01*
X0119200Y0172227D02*
X0129979Y0172227D01*
X0131577Y0170629D02*
X0119200Y0170629D01*
X0119200Y0169030D02*
X0133176Y0169030D01*
X0134774Y0167432D02*
X0119200Y0167432D01*
X0119200Y0165833D02*
X0136373Y0165833D01*
X0137971Y0164235D02*
X0119200Y0164235D01*
X0119200Y0162636D02*
X0138100Y0162636D01*
X0138623Y0161038D02*
X0119200Y0161038D01*
X0119200Y0159439D02*
X0140221Y0159439D01*
X0142300Y0163300D02*
X0126800Y0178800D01*
X0126800Y0276800D01*
X0142800Y0292800D01*
X0191800Y0292800D01*
X0196200Y0292116D02*
X0197200Y0292116D01*
X0197200Y0292700D02*
X0197200Y0290895D01*
X0199895Y0288200D01*
X0201700Y0288200D01*
X0201700Y0292700D01*
X0197200Y0292700D01*
X0197200Y0292900D02*
X0201700Y0292900D01*
X0201700Y0297400D01*
X0199895Y0297400D01*
X0197200Y0294705D01*
X0197200Y0292900D01*
X0197200Y0293714D02*
X0196200Y0293714D01*
X0195510Y0295313D02*
X0197807Y0295313D01*
X0199406Y0296911D02*
X0193911Y0296911D01*
X0189689Y0296911D02*
X0140305Y0296911D01*
X0138707Y0295313D02*
X0188090Y0295313D01*
X0194141Y0288919D02*
X0199176Y0288919D01*
X0197577Y0290517D02*
X0195740Y0290517D01*
X0195101Y0285722D02*
X0198499Y0285722D01*
X0197400Y0284123D02*
X0196200Y0284123D01*
X0196200Y0282525D02*
X0197400Y0282525D01*
X0197451Y0280926D02*
X0196149Y0280926D01*
X0194550Y0279328D02*
X0199050Y0279328D01*
X0198908Y0276131D02*
X0194692Y0276131D01*
X0196200Y0274532D02*
X0197400Y0274532D01*
X0197400Y0272934D02*
X0196200Y0272934D01*
X0196200Y0271335D02*
X0197400Y0271335D01*
X0198641Y0269737D02*
X0194959Y0269737D01*
X0193623Y0267200D02*
X0189977Y0267200D01*
X0187400Y0264623D01*
X0187400Y0260977D01*
X0189977Y0258400D01*
X0193623Y0258400D01*
X0196200Y0260977D01*
X0196200Y0264623D01*
X0193623Y0267200D01*
X0194283Y0266539D02*
X0199317Y0266539D01*
X0199977Y0267200D02*
X0197400Y0264623D01*
X0197400Y0260977D01*
X0199977Y0258400D01*
X0203623Y0258400D01*
X0206200Y0260977D01*
X0206200Y0264623D01*
X0203623Y0267200D01*
X0199977Y0267200D01*
X0197718Y0264941D02*
X0195882Y0264941D01*
X0196200Y0263342D02*
X0197400Y0263342D01*
X0197400Y0261744D02*
X0196200Y0261744D01*
X0195368Y0260145D02*
X0198232Y0260145D01*
X0199831Y0258547D02*
X0193769Y0258547D01*
X0193623Y0257200D02*
X0189977Y0257200D01*
X0187977Y0255200D01*
X0157323Y0255200D01*
X0156441Y0254835D01*
X0150441Y0248835D01*
X0149765Y0248159D01*
X0149400Y0247277D01*
X0149400Y0191323D01*
X0149765Y0190441D01*
X0164765Y0175441D01*
X0165441Y0174765D01*
X0166323Y0174400D01*
X0175806Y0174400D01*
X0184400Y0165806D01*
X0184400Y0137794D01*
X0160441Y0113835D01*
X0159765Y0113159D01*
X0159400Y0112277D01*
X0159400Y0032794D01*
X0155441Y0028835D01*
X0154765Y0028159D01*
X0154400Y0027277D01*
X0154400Y0021440D01*
X0153239Y0020279D01*
X0152600Y0018735D01*
X0152600Y0011865D01*
X0153239Y0010321D01*
X0154421Y0009139D01*
X0155965Y0008500D01*
X0157635Y0008500D01*
X0159179Y0009139D01*
X0160361Y0010321D01*
X0161000Y0011865D01*
X0161000Y0018735D01*
X0160361Y0020279D01*
X0159200Y0021440D01*
X0159200Y0025806D01*
X0163835Y0030441D01*
X0164200Y0031323D01*
X0164200Y0110806D01*
X0188835Y0135441D01*
X0189200Y0136323D01*
X0189200Y0167277D01*
X0188835Y0168159D01*
X0188159Y0168835D01*
X0178159Y0178835D01*
X0177277Y0179200D01*
X0167794Y0179200D01*
X0154200Y0192794D01*
X0154200Y0245806D01*
X0158794Y0250400D01*
X0187977Y0250400D01*
X0189977Y0248400D01*
X0193623Y0248400D01*
X0196200Y0250977D01*
X0196200Y0254623D01*
X0193623Y0257200D01*
X0193874Y0256948D02*
X0199726Y0256948D01*
X0199977Y0257200D02*
X0197400Y0254623D01*
X0197400Y0250977D01*
X0199977Y0248400D01*
X0203623Y0248400D01*
X0206200Y0250977D01*
X0206200Y0254623D01*
X0203623Y0257200D01*
X0199977Y0257200D01*
X0198127Y0255350D02*
X0195473Y0255350D01*
X0196200Y0253751D02*
X0197400Y0253751D01*
X0197400Y0252153D02*
X0196200Y0252153D01*
X0195777Y0250554D02*
X0197823Y0250554D01*
X0199422Y0248956D02*
X0194178Y0248956D01*
X0193623Y0247200D02*
X0189977Y0247200D01*
X0187977Y0245200D01*
X0162323Y0245200D01*
X0161441Y0244835D01*
X0155441Y0238835D01*
X0154765Y0238159D01*
X0154400Y0237277D01*
X0154400Y0196323D01*
X0154765Y0195441D01*
X0164765Y0185441D01*
X0165441Y0184765D01*
X0166323Y0184400D01*
X0175806Y0184400D01*
X0189400Y0170806D01*
X0189400Y0132794D01*
X0170441Y0113835D01*
X0170441Y0113835D01*
X0169765Y0113159D01*
X0169400Y0112277D01*
X0169400Y0032794D01*
X0165441Y0028835D01*
X0164765Y0028159D01*
X0164400Y0027277D01*
X0164400Y0021440D01*
X0163239Y0020279D01*
X0162600Y0018735D01*
X0162600Y0011865D01*
X0163239Y0010321D01*
X0164421Y0009139D01*
X0165965Y0008500D01*
X0167635Y0008500D01*
X0169179Y0009139D01*
X0170361Y0010321D01*
X0171000Y0011865D01*
X0171000Y0018735D01*
X0170361Y0020279D01*
X0169200Y0021440D01*
X0169200Y0025806D01*
X0173835Y0030441D01*
X0174200Y0031323D01*
X0174200Y0110806D01*
X0193835Y0130441D01*
X0194200Y0131323D01*
X0194200Y0172277D01*
X0193835Y0173159D01*
X0178159Y0188835D01*
X0177277Y0189200D01*
X0167794Y0189200D01*
X0159200Y0197794D01*
X0159200Y0235806D01*
X0163794Y0240400D01*
X0187977Y0240400D01*
X0189977Y0238400D01*
X0193623Y0238400D01*
X0196200Y0240977D01*
X0196200Y0244623D01*
X0193623Y0247200D01*
X0195064Y0245759D02*
X0198536Y0245759D01*
X0197400Y0244623D02*
X0199977Y0247200D01*
X0203623Y0247200D01*
X0206200Y0244623D01*
X0206200Y0240977D01*
X0203623Y0238400D01*
X0199977Y0238400D01*
X0197400Y0240977D01*
X0197400Y0244623D01*
X0197400Y0244160D02*
X0196200Y0244160D01*
X0196200Y0242562D02*
X0197400Y0242562D01*
X0197414Y0240963D02*
X0196186Y0240963D01*
X0194587Y0239365D02*
X0199013Y0239365D01*
X0199977Y0237200D02*
X0197400Y0234623D01*
X0197400Y0230977D01*
X0199977Y0228400D01*
X0203623Y0228400D01*
X0206200Y0230977D01*
X0206200Y0234623D01*
X0203623Y0237200D01*
X0199977Y0237200D01*
X0198945Y0236168D02*
X0194655Y0236168D01*
X0193623Y0237200D02*
X0196200Y0234623D01*
X0196200Y0230977D01*
X0193623Y0228400D01*
X0189977Y0228400D01*
X0187400Y0230977D01*
X0187400Y0234623D01*
X0189977Y0237200D01*
X0193623Y0237200D01*
X0196200Y0234569D02*
X0197400Y0234569D01*
X0197400Y0232971D02*
X0196200Y0232971D01*
X0196200Y0231372D02*
X0197400Y0231372D01*
X0198604Y0229774D02*
X0194996Y0229774D01*
X0193623Y0227200D02*
X0189977Y0227200D01*
X0187400Y0224623D01*
X0187400Y0220977D01*
X0189977Y0218400D01*
X0193623Y0218400D01*
X0196200Y0220977D01*
X0196200Y0224623D01*
X0193623Y0227200D01*
X0194246Y0226577D02*
X0199354Y0226577D01*
X0199977Y0227200D02*
X0197400Y0224623D01*
X0197400Y0220977D01*
X0199977Y0218400D01*
X0203623Y0218400D01*
X0206200Y0220977D01*
X0206200Y0224623D01*
X0203623Y0227200D01*
X0199977Y0227200D01*
X0197756Y0224978D02*
X0195844Y0224978D01*
X0196200Y0223380D02*
X0197400Y0223380D01*
X0197400Y0221781D02*
X0196200Y0221781D01*
X0195405Y0220183D02*
X0198195Y0220183D01*
X0199793Y0218584D02*
X0193807Y0218584D01*
X0193837Y0216986D02*
X0199763Y0216986D01*
X0198165Y0215387D02*
X0195435Y0215387D01*
X0196200Y0213789D02*
X0197400Y0213789D01*
X0197400Y0212190D02*
X0196200Y0212190D01*
X0195814Y0210592D02*
X0197786Y0210592D01*
X0199384Y0208993D02*
X0194216Y0208993D01*
X0195026Y0205796D02*
X0198574Y0205796D01*
X0197400Y0204198D02*
X0196200Y0204198D01*
X0196200Y0202599D02*
X0197400Y0202599D01*
X0197400Y0201001D02*
X0196200Y0201001D01*
X0194625Y0199402D02*
X0198975Y0199402D01*
X0187786Y0210592D02*
X0159200Y0210592D01*
X0159200Y0212190D02*
X0187400Y0212190D01*
X0187400Y0213789D02*
X0159200Y0213789D01*
X0159200Y0215387D02*
X0188165Y0215387D01*
X0189763Y0216986D02*
X0159200Y0216986D01*
X0159200Y0218584D02*
X0189793Y0218584D01*
X0188195Y0220183D02*
X0159200Y0220183D01*
X0159200Y0221781D02*
X0187400Y0221781D01*
X0187400Y0223380D02*
X0159200Y0223380D01*
X0159200Y0224978D02*
X0187756Y0224978D01*
X0189354Y0226577D02*
X0159200Y0226577D01*
X0159200Y0228175D02*
X0214400Y0228175D01*
X0214400Y0226577D02*
X0204246Y0226577D01*
X0205844Y0224978D02*
X0214400Y0224978D01*
X0214400Y0223380D02*
X0206200Y0223380D01*
X0206200Y0221781D02*
X0214400Y0221781D01*
X0214400Y0220183D02*
X0205405Y0220183D01*
X0203807Y0218584D02*
X0214400Y0218584D01*
X0213592Y0216986D02*
X0203837Y0216986D01*
X0205435Y0215387D02*
X0211993Y0215387D01*
X0212800Y0212800D02*
X0201800Y0212800D01*
X0215584Y0212190D02*
X0238150Y0212190D01*
X0249987Y0216986D02*
X0361400Y0216986D01*
X0361400Y0218584D02*
X0250600Y0218584D01*
X0250580Y0220183D02*
X0361400Y0220183D01*
X0361400Y0221781D02*
X0249859Y0221781D01*
X0237984Y0226577D02*
X0219200Y0226577D01*
X0219200Y0228175D02*
X0237120Y0228175D01*
X0237000Y0229774D02*
X0219200Y0229774D01*
X0219200Y0231372D02*
X0237512Y0231372D01*
X0243800Y0236168D02*
X0243800Y0236168D01*
X0243800Y0237766D02*
X0243800Y0237766D01*
X0243800Y0239365D02*
X0243800Y0239365D01*
X0243800Y0240963D02*
X0243800Y0240963D01*
X0243800Y0242562D02*
X0243800Y0242562D01*
X0238801Y0245759D02*
X0219200Y0245759D01*
X0219200Y0247357D02*
X0237459Y0247357D01*
X0237000Y0248956D02*
X0219200Y0248956D01*
X0219200Y0250554D02*
X0237174Y0250554D01*
X0237553Y0252153D02*
X0219200Y0252153D01*
X0219200Y0253751D02*
X0235954Y0253751D01*
X0234596Y0255350D02*
X0219200Y0255350D01*
X0219200Y0256948D02*
X0234400Y0256948D01*
X0234400Y0258547D02*
X0219200Y0258547D01*
X0219200Y0260145D02*
X0234400Y0260145D01*
X0234400Y0261744D02*
X0219200Y0261744D01*
X0219200Y0263342D02*
X0234400Y0263342D01*
X0234400Y0264941D02*
X0219200Y0264941D01*
X0219200Y0266539D02*
X0234400Y0266539D01*
X0234400Y0268138D02*
X0219200Y0268138D01*
X0219200Y0269737D02*
X0234400Y0269737D01*
X0234400Y0271335D02*
X0219200Y0271335D01*
X0219200Y0272934D02*
X0234400Y0272934D01*
X0234400Y0274532D02*
X0219200Y0274532D01*
X0219200Y0276131D02*
X0234400Y0276131D01*
X0234400Y0277729D02*
X0219200Y0277729D01*
X0219200Y0279328D02*
X0234400Y0279328D01*
X0234400Y0280926D02*
X0219200Y0280926D01*
X0219200Y0282525D02*
X0234400Y0282525D01*
X0234400Y0284123D02*
X0219200Y0284123D01*
X0219200Y0285722D02*
X0234400Y0285722D01*
X0234400Y0287320D02*
X0219200Y0287320D01*
X0219200Y0288919D02*
X0234400Y0288919D01*
X0234400Y0290517D02*
X0219200Y0290517D01*
X0219200Y0292116D02*
X0234400Y0292116D01*
X0234400Y0293714D02*
X0219200Y0293714D01*
X0219200Y0295313D02*
X0234400Y0295313D01*
X0234400Y0296911D02*
X0219200Y0296911D01*
X0218484Y0298510D02*
X0234400Y0298510D01*
X0234400Y0300108D02*
X0216886Y0300108D01*
X0215287Y0301707D02*
X0234400Y0301707D01*
X0234400Y0303305D02*
X0213689Y0303305D01*
X0212090Y0304904D02*
X0234400Y0304904D01*
X0234400Y0306502D02*
X0210492Y0306502D01*
X0208893Y0308101D02*
X0234400Y0308101D01*
X0234400Y0309699D02*
X0042093Y0309699D01*
X0040495Y0308101D02*
X0144707Y0308101D01*
X0143108Y0306502D02*
X0038896Y0306502D01*
X0037298Y0304904D02*
X0141510Y0304904D01*
X0139911Y0303305D02*
X0035699Y0303305D01*
X0034101Y0301707D02*
X0138313Y0301707D01*
X0136714Y0300108D02*
X0032502Y0300108D01*
X0030904Y0298510D02*
X0135116Y0298510D01*
X0133517Y0296911D02*
X0034911Y0296911D01*
X0036510Y0295313D02*
X0131919Y0295313D01*
X0130320Y0293714D02*
X0036700Y0293714D01*
X0036700Y0292116D02*
X0128722Y0292116D01*
X0127123Y0290517D02*
X0035740Y0290517D01*
X0034141Y0288919D02*
X0125525Y0288919D01*
X0123926Y0287320D02*
X0034785Y0287320D01*
X0036384Y0285722D02*
X0122328Y0285722D01*
X0120729Y0284123D02*
X0036900Y0284123D01*
X0036900Y0282525D02*
X0119130Y0282525D01*
X0117532Y0280926D02*
X0036431Y0280926D01*
X0028860Y0290517D02*
X0025740Y0290517D01*
X0026700Y0292116D02*
X0027900Y0292116D01*
X0027900Y0293714D02*
X0026700Y0293714D01*
X0027707Y0295313D02*
X0028090Y0295313D01*
X0029305Y0296911D02*
X0029689Y0296911D01*
X0025714Y0300108D02*
X0006600Y0300108D01*
X0006600Y0298510D02*
X0024116Y0298510D01*
X0027313Y0301707D02*
X0006600Y0301707D01*
X0006600Y0303305D02*
X0028911Y0303305D01*
X0030510Y0304904D02*
X0006600Y0304904D01*
X0006600Y0306502D02*
X0032108Y0306502D01*
X0033707Y0308101D02*
X0006600Y0308101D01*
X0006600Y0309699D02*
X0035305Y0309699D01*
X0036904Y0311298D02*
X0006600Y0311298D01*
X0006600Y0312896D02*
X0038502Y0312896D01*
X0040101Y0314495D02*
X0006600Y0314495D01*
X0006600Y0316093D02*
X0041699Y0316093D01*
X0043298Y0317692D02*
X0006600Y0317692D01*
X0006600Y0319290D02*
X0044896Y0319290D01*
X0046495Y0320889D02*
X0006600Y0320889D01*
X0006600Y0322487D02*
X0048093Y0322487D01*
X0049692Y0324086D02*
X0006600Y0324086D01*
X0006600Y0325684D02*
X0051290Y0325684D01*
X0052889Y0327283D02*
X0006600Y0327283D01*
X0006600Y0328881D02*
X0054487Y0328881D01*
X0056086Y0330480D02*
X0006600Y0330480D01*
X0006600Y0332078D02*
X0057684Y0332078D01*
X0059283Y0333677D02*
X0006600Y0333677D01*
X0006600Y0335275D02*
X0060881Y0335275D01*
X0062480Y0336874D02*
X0006600Y0336874D01*
X0006600Y0338472D02*
X0064078Y0338472D01*
X0066011Y0340071D02*
X0006600Y0340071D01*
X0006600Y0341670D02*
X0020995Y0341670D01*
X0019450Y0342276D02*
X0024112Y0340446D01*
X0029105Y0340072D01*
X0029105Y0340072D01*
X0033988Y0341186D01*
X0038325Y0343690D01*
X0041731Y0347361D01*
X0043904Y0351873D01*
X0044650Y0356825D01*
X0043904Y0361777D01*
X0041731Y0366289D01*
X0038325Y0369960D01*
X0038325Y0369960D01*
X0033988Y0372464D01*
X0033988Y0372464D01*
X0029105Y0373578D01*
X0024112Y0373204D01*
X0024112Y0373204D01*
X0019450Y0371374D01*
X0015535Y0368252D01*
X0015535Y0368252D01*
X0015535Y0368252D01*
X0012714Y0364114D01*
X0011238Y0359329D01*
X0011238Y0354321D01*
X0012714Y0349536D01*
X0012714Y0349536D01*
X0015535Y0345398D01*
X0019450Y0342276D01*
X0019450Y0342276D01*
X0018206Y0343268D02*
X0006600Y0343268D01*
X0006600Y0344867D02*
X0016201Y0344867D01*
X0015535Y0345398D02*
X0015535Y0345398D01*
X0015535Y0345398D01*
X0014807Y0346465D02*
X0006600Y0346465D01*
X0006600Y0348064D02*
X0013717Y0348064D01*
X0012675Y0349662D02*
X0006600Y0349662D01*
X0006600Y0351261D02*
X0012182Y0351261D01*
X0011689Y0352859D02*
X0006600Y0352859D01*
X0006600Y0354458D02*
X0011238Y0354458D01*
X0011238Y0356056D02*
X0006600Y0356056D01*
X0006600Y0357655D02*
X0011238Y0357655D01*
X0011238Y0359253D02*
X0006600Y0359253D01*
X0006600Y0360852D02*
X0011707Y0360852D01*
X0012200Y0362450D02*
X0006600Y0362450D01*
X0006600Y0364049D02*
X0012694Y0364049D01*
X0012714Y0364114D02*
X0012714Y0364114D01*
X0013759Y0365647D02*
X0006600Y0365647D01*
X0006600Y0367246D02*
X0014849Y0367246D01*
X0016277Y0368844D02*
X0006600Y0368844D01*
X0006600Y0370443D02*
X0018282Y0370443D01*
X0019450Y0371374D02*
X0019450Y0371374D01*
X0021150Y0372041D02*
X0006600Y0372041D01*
X0006600Y0373640D02*
X0382000Y0373640D01*
X0382000Y0375238D02*
X0006600Y0375238D01*
X0006600Y0376837D02*
X0382000Y0376837D01*
X0382000Y0378435D02*
X0006600Y0378435D01*
X0006600Y0380034D02*
X0382000Y0380034D01*
X0382000Y0381632D02*
X0006600Y0381632D01*
X0006600Y0383231D02*
X0382000Y0383231D01*
X0382000Y0384829D02*
X0006600Y0384829D01*
X0006600Y0386428D02*
X0382000Y0386428D01*
X0382000Y0387000D02*
X0382000Y0006600D01*
X0006600Y0006600D01*
X0006600Y0387000D01*
X0382000Y0387000D01*
X0382000Y0372041D02*
X0034719Y0372041D01*
X0037488Y0370443D02*
X0382000Y0370443D01*
X0382000Y0368844D02*
X0039360Y0368844D01*
X0040843Y0367246D02*
X0382000Y0367246D01*
X0382000Y0365647D02*
X0042040Y0365647D01*
X0041731Y0366289D02*
X0041731Y0366289D01*
X0042810Y0364049D02*
X0382000Y0364049D01*
X0382000Y0362450D02*
X0043579Y0362450D01*
X0043904Y0361777D02*
X0043904Y0361777D01*
X0044043Y0360852D02*
X0382000Y0360852D01*
X0382000Y0359253D02*
X0044284Y0359253D01*
X0044525Y0357655D02*
X0382000Y0357655D01*
X0382000Y0356056D02*
X0044534Y0356056D01*
X0044293Y0354458D02*
X0382000Y0354458D01*
X0382000Y0352859D02*
X0044052Y0352859D01*
X0043904Y0351873D02*
X0043904Y0351873D01*
X0043609Y0351261D02*
X0382000Y0351261D01*
X0382000Y0349662D02*
X0042839Y0349662D01*
X0042069Y0348064D02*
X0382000Y0348064D01*
X0382000Y0346465D02*
X0040899Y0346465D01*
X0041731Y0347361D02*
X0041731Y0347361D01*
X0039416Y0344867D02*
X0382000Y0344867D01*
X0382000Y0343268D02*
X0349872Y0343268D01*
X0350361Y0342779D02*
X0349179Y0343961D01*
X0347635Y0344600D01*
X0345965Y0344600D01*
X0344421Y0343961D01*
X0343239Y0342779D01*
X0342600Y0341235D01*
X0342600Y0334365D01*
X0343239Y0332821D01*
X0344421Y0331639D01*
X0345965Y0331000D01*
X0347635Y0331000D01*
X0349179Y0331639D01*
X0350361Y0332821D01*
X0351000Y0334365D01*
X0351000Y0341235D01*
X0350361Y0342779D01*
X0350820Y0341670D02*
X0382000Y0341670D01*
X0382000Y0340071D02*
X0351000Y0340071D01*
X0351000Y0338472D02*
X0382000Y0338472D01*
X0382000Y0336874D02*
X0351000Y0336874D01*
X0351000Y0335275D02*
X0382000Y0335275D01*
X0382000Y0333677D02*
X0350715Y0333677D01*
X0349618Y0332078D02*
X0382000Y0332078D01*
X0382000Y0330480D02*
X0258851Y0330480D01*
X0258835Y0330441D02*
X0259200Y0331323D01*
X0259200Y0331505D01*
X0259666Y0331844D01*
X0260156Y0332334D01*
X0260563Y0332894D01*
X0260878Y0333511D01*
X0261092Y0334170D01*
X0261200Y0334854D01*
X0261200Y0337800D01*
X0261200Y0340746D01*
X0261092Y0341430D01*
X0260878Y0342089D01*
X0260563Y0342706D01*
X0260156Y0343266D01*
X0259666Y0343756D01*
X0259106Y0344163D01*
X0258489Y0344478D01*
X0257830Y0344692D01*
X0257146Y0344800D01*
X0256800Y0344800D01*
X0256800Y0339200D01*
X0256800Y0339200D01*
X0256800Y0344800D01*
X0256454Y0344800D01*
X0255770Y0344692D01*
X0255111Y0344478D01*
X0254494Y0344163D01*
X0253934Y0343756D01*
X0253444Y0343266D01*
X0253037Y0342706D01*
X0252722Y0342089D01*
X0252508Y0341430D01*
X0252400Y0340746D01*
X0252400Y0337800D01*
X0254617Y0337800D01*
X0254616Y0337800D01*
X0252400Y0337800D01*
X0252400Y0334854D01*
X0252508Y0334170D01*
X0252722Y0333511D01*
X0253037Y0332894D01*
X0253444Y0332334D01*
X0253934Y0331844D01*
X0254400Y0331505D01*
X0254400Y0331323D01*
X0254765Y0330441D01*
X0255441Y0329765D01*
X0256323Y0329400D01*
X0257277Y0329400D01*
X0258159Y0329765D01*
X0258835Y0330441D01*
X0259901Y0332078D02*
X0263982Y0332078D01*
X0264421Y0331639D02*
X0263239Y0332821D01*
X0262600Y0334365D01*
X0262600Y0341235D01*
X0263239Y0342779D01*
X0264421Y0343961D01*
X0265965Y0344600D01*
X0267635Y0344600D01*
X0269179Y0343961D01*
X0270361Y0342779D01*
X0271000Y0341235D01*
X0271000Y0334365D01*
X0270361Y0332821D01*
X0269179Y0331639D01*
X0267635Y0331000D01*
X0265965Y0331000D01*
X0264421Y0331639D01*
X0262885Y0333677D02*
X0260932Y0333677D01*
X0261200Y0335275D02*
X0262600Y0335275D01*
X0262600Y0336874D02*
X0261200Y0336874D01*
X0261200Y0337800D02*
X0258984Y0337800D01*
X0258983Y0337800D01*
X0261200Y0337800D01*
X0261200Y0338472D02*
X0262600Y0338472D01*
X0262600Y0340071D02*
X0261200Y0340071D01*
X0261014Y0341670D02*
X0262780Y0341670D01*
X0263728Y0343268D02*
X0260155Y0343268D01*
X0256800Y0343268D02*
X0256800Y0343268D01*
X0256800Y0341670D02*
X0256800Y0341670D01*
X0256800Y0340071D02*
X0256800Y0340071D01*
X0256800Y0336800D02*
X0256800Y0331800D01*
X0254749Y0330480D02*
X0249200Y0330480D01*
X0249200Y0331660D02*
X0250361Y0332821D01*
X0251000Y0334365D01*
X0251000Y0341235D01*
X0250361Y0342779D01*
X0249179Y0343961D01*
X0247635Y0344600D01*
X0245965Y0344600D01*
X0244421Y0343961D01*
X0243239Y0342779D01*
X0242600Y0341235D01*
X0242600Y0334365D01*
X0243239Y0332821D01*
X0244400Y0331660D01*
X0244400Y0316323D01*
X0244765Y0315441D01*
X0264765Y0295441D01*
X0265441Y0294765D01*
X0266323Y0294400D01*
X0345806Y0294400D01*
X0351958Y0288248D01*
X0351957Y0288248D01*
X0351284Y0287905D01*
X0350673Y0287461D01*
X0350139Y0286927D01*
X0349695Y0286316D01*
X0349352Y0285643D01*
X0349118Y0284924D01*
X0349000Y0284178D01*
X0349000Y0281000D01*
X0353600Y0281000D01*
X0353600Y0280600D01*
X0354000Y0280600D01*
X0354000Y0281000D01*
X0358600Y0281000D01*
X0358600Y0281606D01*
X0359200Y0281006D01*
X0359200Y0276885D01*
X0359900Y0275194D01*
X0361194Y0273900D01*
X0361400Y0273815D01*
X0361400Y0159610D01*
X0330611Y0119200D01*
X0272992Y0119200D01*
X0272700Y0119906D01*
X0271406Y0121200D01*
X0269715Y0121900D01*
X0267885Y0121900D01*
X0266194Y0121200D01*
X0264900Y0119906D01*
X0264200Y0118215D01*
X0264200Y0110385D01*
X0264900Y0108694D01*
X0266194Y0107400D01*
X0267885Y0106700D01*
X0269715Y0106700D01*
X0271406Y0107400D01*
X0272700Y0108694D01*
X0273400Y0110385D01*
X0273400Y0114400D01*
X0331488Y0114400D01*
X0331648Y0114358D01*
X0331961Y0114400D01*
X0332277Y0114400D01*
X0332430Y0114463D01*
X0332594Y0114486D01*
X0332868Y0114644D01*
X0333159Y0114765D01*
X0333277Y0114882D01*
X0333420Y0114966D01*
X0333611Y0115217D01*
X0333835Y0115441D01*
X0333898Y0115593D01*
X0365611Y0157217D01*
X0365835Y0157441D01*
X0365898Y0157594D01*
X0365998Y0157725D01*
X0366079Y0158031D01*
X0366200Y0158323D01*
X0366200Y0158488D01*
X0366242Y0158648D01*
X0366200Y0158961D01*
X0366200Y0273815D01*
X0366406Y0273900D01*
X0367700Y0275194D01*
X0368400Y0276885D01*
X0368400Y0284715D01*
X0367700Y0286406D01*
X0366406Y0287700D01*
X0364715Y0288400D01*
X0362885Y0288400D01*
X0361194Y0287700D01*
X0360244Y0286750D01*
X0348159Y0298835D01*
X0347277Y0299200D01*
X0267794Y0299200D01*
X0249200Y0317794D01*
X0249200Y0331660D01*
X0249618Y0332078D02*
X0253699Y0332078D01*
X0252668Y0333677D02*
X0250715Y0333677D01*
X0251000Y0335275D02*
X0252400Y0335275D01*
X0252400Y0336874D02*
X0251000Y0336874D01*
X0251000Y0338472D02*
X0252400Y0338472D01*
X0252400Y0340071D02*
X0251000Y0340071D01*
X0250820Y0341670D02*
X0252586Y0341670D01*
X0253445Y0343268D02*
X0249872Y0343268D01*
X0243728Y0343268D02*
X0239872Y0343268D01*
X0240820Y0341670D02*
X0242780Y0341670D01*
X0242600Y0340071D02*
X0241000Y0340071D01*
X0241000Y0338472D02*
X0242600Y0338472D01*
X0242600Y0336874D02*
X0241000Y0336874D01*
X0241000Y0335275D02*
X0242600Y0335275D01*
X0242885Y0333677D02*
X0240715Y0333677D01*
X0239618Y0332078D02*
X0243982Y0332078D01*
X0244400Y0330480D02*
X0239200Y0330480D01*
X0239200Y0328881D02*
X0244400Y0328881D01*
X0244400Y0327283D02*
X0239200Y0327283D01*
X0239200Y0325684D02*
X0244400Y0325684D01*
X0244400Y0324086D02*
X0239200Y0324086D01*
X0239200Y0322487D02*
X0244400Y0322487D01*
X0244400Y0320889D02*
X0239200Y0320889D01*
X0239200Y0319290D02*
X0244400Y0319290D01*
X0244400Y0317692D02*
X0239200Y0317692D01*
X0239200Y0316093D02*
X0244495Y0316093D01*
X0245711Y0314495D02*
X0239200Y0314495D01*
X0239200Y0312896D02*
X0247310Y0312896D01*
X0248908Y0311298D02*
X0239200Y0311298D01*
X0239200Y0309699D02*
X0250507Y0309699D01*
X0252105Y0308101D02*
X0239200Y0308101D01*
X0239200Y0306502D02*
X0253704Y0306502D01*
X0255302Y0304904D02*
X0239200Y0304904D01*
X0239200Y0303305D02*
X0256901Y0303305D01*
X0258499Y0301707D02*
X0239200Y0301707D01*
X0239200Y0300108D02*
X0260098Y0300108D01*
X0261696Y0298510D02*
X0239200Y0298510D01*
X0239200Y0296911D02*
X0263295Y0296911D01*
X0264893Y0295313D02*
X0239200Y0295313D01*
X0239200Y0293714D02*
X0346492Y0293714D01*
X0348090Y0292116D02*
X0239200Y0292116D01*
X0239200Y0290517D02*
X0349689Y0290517D01*
X0351287Y0288919D02*
X0239200Y0288919D01*
X0239200Y0287320D02*
X0330815Y0287320D01*
X0331194Y0287700D02*
X0329900Y0286406D01*
X0329200Y0284715D01*
X0329200Y0276885D01*
X0329900Y0275194D01*
X0331194Y0273900D01*
X0332885Y0273200D01*
X0334715Y0273200D01*
X0336406Y0273900D01*
X0337700Y0275194D01*
X0338400Y0276885D01*
X0338400Y0284715D01*
X0337700Y0286406D01*
X0336406Y0287700D01*
X0334715Y0288400D01*
X0332885Y0288400D01*
X0331194Y0287700D01*
X0329617Y0285722D02*
X0239200Y0285722D01*
X0239200Y0284123D02*
X0329200Y0284123D01*
X0329200Y0282525D02*
X0239200Y0282525D01*
X0239200Y0280926D02*
X0329200Y0280926D01*
X0329200Y0279328D02*
X0239200Y0279328D01*
X0239200Y0277729D02*
X0329200Y0277729D01*
X0329513Y0276131D02*
X0239200Y0276131D01*
X0239200Y0274532D02*
X0330563Y0274532D01*
X0337037Y0274532D02*
X0340563Y0274532D01*
X0341194Y0273900D02*
X0342885Y0273200D01*
X0344715Y0273200D01*
X0346406Y0273900D01*
X0347700Y0275194D01*
X0348400Y0276885D01*
X0348400Y0284715D01*
X0347700Y0286406D01*
X0346406Y0287700D01*
X0344715Y0288400D01*
X0342885Y0288400D01*
X0341194Y0287700D01*
X0339900Y0286406D01*
X0339200Y0284715D01*
X0339200Y0276885D01*
X0339900Y0275194D01*
X0341194Y0273900D01*
X0339513Y0276131D02*
X0338087Y0276131D01*
X0338400Y0277729D02*
X0339200Y0277729D01*
X0339200Y0279328D02*
X0338400Y0279328D01*
X0338400Y0280926D02*
X0339200Y0280926D01*
X0339200Y0282525D02*
X0338400Y0282525D01*
X0338400Y0284123D02*
X0339200Y0284123D01*
X0339617Y0285722D02*
X0337983Y0285722D01*
X0336785Y0287320D02*
X0340815Y0287320D01*
X0346785Y0287320D02*
X0350532Y0287320D01*
X0349392Y0285722D02*
X0347983Y0285722D01*
X0348400Y0284123D02*
X0349000Y0284123D01*
X0349000Y0282525D02*
X0348400Y0282525D01*
X0348400Y0280926D02*
X0353600Y0280926D01*
X0353600Y0280600D02*
X0349000Y0280600D01*
X0349000Y0277422D01*
X0349118Y0276676D01*
X0349352Y0275957D01*
X0349695Y0275284D01*
X0350139Y0274673D01*
X0350673Y0274139D01*
X0351284Y0273695D01*
X0351957Y0273352D01*
X0352676Y0273118D01*
X0353422Y0273000D01*
X0353600Y0273000D01*
X0353600Y0280600D01*
X0354000Y0280600D02*
X0354000Y0273000D01*
X0354178Y0273000D01*
X0354924Y0273118D01*
X0355643Y0273352D01*
X0356316Y0273695D01*
X0356927Y0274139D01*
X0357461Y0274673D01*
X0357905Y0275284D01*
X0358248Y0275957D01*
X0358482Y0276676D01*
X0358600Y0277422D01*
X0358600Y0280600D01*
X0354000Y0280600D01*
X0354000Y0280926D02*
X0359200Y0280926D01*
X0359200Y0279328D02*
X0358600Y0279328D01*
X0358600Y0277729D02*
X0359200Y0277729D01*
X0359512Y0276131D02*
X0358305Y0276131D01*
X0357320Y0274532D02*
X0360563Y0274532D01*
X0361400Y0272934D02*
X0239200Y0272934D01*
X0239200Y0271335D02*
X0361400Y0271335D01*
X0361400Y0269737D02*
X0239200Y0269737D01*
X0239200Y0268138D02*
X0361400Y0268138D01*
X0361400Y0266539D02*
X0239200Y0266539D01*
X0239200Y0264941D02*
X0361400Y0264941D01*
X0361400Y0263342D02*
X0239200Y0263342D01*
X0239200Y0261744D02*
X0361400Y0261744D01*
X0361400Y0260145D02*
X0239200Y0260145D01*
X0239200Y0258547D02*
X0361400Y0258547D01*
X0361400Y0256948D02*
X0239546Y0256948D01*
X0241144Y0255350D02*
X0361400Y0255350D01*
X0366200Y0255350D02*
X0382000Y0255350D01*
X0382000Y0256948D02*
X0366200Y0256948D01*
X0366200Y0258547D02*
X0382000Y0258547D01*
X0382000Y0260145D02*
X0366200Y0260145D01*
X0366200Y0261744D02*
X0382000Y0261744D01*
X0382000Y0263342D02*
X0366200Y0263342D01*
X0366200Y0264941D02*
X0382000Y0264941D01*
X0382000Y0266539D02*
X0366200Y0266539D01*
X0366200Y0268138D02*
X0382000Y0268138D01*
X0382000Y0269737D02*
X0366200Y0269737D01*
X0366200Y0271335D02*
X0382000Y0271335D01*
X0382000Y0272934D02*
X0366200Y0272934D01*
X0367037Y0274532D02*
X0382000Y0274532D01*
X0382000Y0276131D02*
X0368087Y0276131D01*
X0368400Y0277729D02*
X0382000Y0277729D01*
X0382000Y0279328D02*
X0368400Y0279328D01*
X0368400Y0280926D02*
X0382000Y0280926D01*
X0382000Y0282525D02*
X0368400Y0282525D01*
X0368400Y0284123D02*
X0382000Y0284123D01*
X0382000Y0285722D02*
X0367983Y0285722D01*
X0366785Y0287320D02*
X0382000Y0287320D01*
X0382000Y0288919D02*
X0358075Y0288919D01*
X0356477Y0290517D02*
X0382000Y0290517D01*
X0382000Y0292116D02*
X0354878Y0292116D01*
X0353280Y0293714D02*
X0382000Y0293714D01*
X0382000Y0295313D02*
X0351681Y0295313D01*
X0350083Y0296911D02*
X0382000Y0296911D01*
X0382000Y0298510D02*
X0348484Y0298510D01*
X0346800Y0296800D02*
X0361800Y0281800D01*
X0363800Y0280800D02*
X0363800Y0158800D01*
X0331800Y0116800D01*
X0271300Y0116800D01*
X0268800Y0114300D01*
X0273400Y0113082D02*
X0382000Y0113082D01*
X0382000Y0111484D02*
X0273400Y0111484D01*
X0273193Y0109885D02*
X0382000Y0109885D01*
X0382000Y0108287D02*
X0272292Y0108287D01*
X0265308Y0108287D02*
X0262292Y0108287D01*
X0262700Y0108694D02*
X0263400Y0110385D01*
X0263400Y0118215D01*
X0262700Y0119906D01*
X0261406Y0121200D01*
X0259715Y0121900D01*
X0257885Y0121900D01*
X0256194Y0121200D01*
X0254900Y0119906D01*
X0254200Y0118215D01*
X0254200Y0110385D01*
X0254900Y0108694D01*
X0256194Y0107400D01*
X0257885Y0106700D01*
X0259715Y0106700D01*
X0261406Y0107400D01*
X0262700Y0108694D01*
X0263193Y0109885D02*
X0264407Y0109885D01*
X0264200Y0111484D02*
X0263400Y0111484D01*
X0263400Y0113082D02*
X0264200Y0113082D01*
X0264200Y0114681D02*
X0263400Y0114681D01*
X0263400Y0116279D02*
X0264200Y0116279D01*
X0264200Y0117878D02*
X0263400Y0117878D01*
X0262877Y0119476D02*
X0264723Y0119476D01*
X0266070Y0121075D02*
X0261530Y0121075D01*
X0256070Y0121075D02*
X0251530Y0121075D01*
X0251406Y0121200D02*
X0251200Y0121285D01*
X0251200Y0130277D01*
X0250835Y0131159D01*
X0238835Y0143159D01*
X0238159Y0143835D01*
X0237277Y0144200D01*
X0210000Y0144200D01*
X0210000Y0145040D01*
X0207540Y0147500D01*
X0204060Y0147500D01*
X0201600Y0145040D01*
X0201600Y0141560D01*
X0204060Y0139100D01*
X0207540Y0139100D01*
X0207840Y0139400D01*
X0235806Y0139400D01*
X0246400Y0128806D01*
X0246400Y0121285D01*
X0246194Y0121200D01*
X0244900Y0119906D01*
X0244200Y0118215D01*
X0244200Y0110385D01*
X0244900Y0108694D01*
X0246194Y0107400D01*
X0247885Y0106700D01*
X0249715Y0106700D01*
X0251406Y0107400D01*
X0252700Y0108694D01*
X0253400Y0110385D01*
X0253400Y0118215D01*
X0252700Y0119906D01*
X0251406Y0121200D01*
X0251200Y0122673D02*
X0333258Y0122673D01*
X0332040Y0121075D02*
X0271530Y0121075D01*
X0272877Y0119476D02*
X0330822Y0119476D01*
X0334421Y0116279D02*
X0382000Y0116279D01*
X0382000Y0114681D02*
X0332956Y0114681D01*
X0335638Y0117878D02*
X0382000Y0117878D01*
X0382000Y0119476D02*
X0336856Y0119476D01*
X0338074Y0121075D02*
X0382000Y0121075D01*
X0382000Y0122673D02*
X0339292Y0122673D01*
X0340510Y0124272D02*
X0382000Y0124272D01*
X0382000Y0125870D02*
X0341728Y0125870D01*
X0342946Y0127469D02*
X0382000Y0127469D01*
X0382000Y0129068D02*
X0344164Y0129068D01*
X0345382Y0130666D02*
X0382000Y0130666D01*
X0382000Y0132265D02*
X0346600Y0132265D01*
X0347818Y0133863D02*
X0382000Y0133863D01*
X0382000Y0135462D02*
X0349036Y0135462D01*
X0350253Y0137060D02*
X0382000Y0137060D01*
X0382000Y0138659D02*
X0351471Y0138659D01*
X0352689Y0140257D02*
X0382000Y0140257D01*
X0382000Y0141856D02*
X0353907Y0141856D01*
X0355125Y0143454D02*
X0382000Y0143454D01*
X0382000Y0145053D02*
X0356343Y0145053D01*
X0357561Y0146651D02*
X0382000Y0146651D01*
X0382000Y0148250D02*
X0358779Y0148250D01*
X0359997Y0149848D02*
X0382000Y0149848D01*
X0382000Y0151447D02*
X0361215Y0151447D01*
X0362433Y0153045D02*
X0382000Y0153045D01*
X0382000Y0154644D02*
X0363650Y0154644D01*
X0364868Y0156242D02*
X0382000Y0156242D01*
X0382000Y0157841D02*
X0366029Y0157841D01*
X0366200Y0159439D02*
X0382000Y0159439D01*
X0382000Y0161038D02*
X0366200Y0161038D01*
X0366200Y0162636D02*
X0382000Y0162636D01*
X0382000Y0164235D02*
X0366200Y0164235D01*
X0366200Y0165833D02*
X0382000Y0165833D01*
X0382000Y0167432D02*
X0366200Y0167432D01*
X0366200Y0169030D02*
X0382000Y0169030D01*
X0382000Y0170629D02*
X0366200Y0170629D01*
X0366200Y0172227D02*
X0382000Y0172227D01*
X0382000Y0173826D02*
X0366200Y0173826D01*
X0366200Y0175424D02*
X0382000Y0175424D01*
X0382000Y0177023D02*
X0366200Y0177023D01*
X0366200Y0178621D02*
X0382000Y0178621D01*
X0382000Y0180220D02*
X0366200Y0180220D01*
X0366200Y0181818D02*
X0382000Y0181818D01*
X0382000Y0183417D02*
X0366200Y0183417D01*
X0366200Y0185015D02*
X0382000Y0185015D01*
X0382000Y0186614D02*
X0366200Y0186614D01*
X0366200Y0188212D02*
X0382000Y0188212D01*
X0382000Y0189811D02*
X0366200Y0189811D01*
X0366200Y0191409D02*
X0382000Y0191409D01*
X0382000Y0193008D02*
X0366200Y0193008D01*
X0366200Y0194606D02*
X0382000Y0194606D01*
X0382000Y0196205D02*
X0366200Y0196205D01*
X0366200Y0197803D02*
X0382000Y0197803D01*
X0382000Y0199402D02*
X0366200Y0199402D01*
X0366200Y0201001D02*
X0382000Y0201001D01*
X0382000Y0202599D02*
X0366200Y0202599D01*
X0366200Y0204198D02*
X0382000Y0204198D01*
X0382000Y0205796D02*
X0366200Y0205796D01*
X0366200Y0207395D02*
X0382000Y0207395D01*
X0382000Y0208993D02*
X0366200Y0208993D01*
X0366200Y0210592D02*
X0382000Y0210592D01*
X0382000Y0212190D02*
X0366200Y0212190D01*
X0366200Y0213789D02*
X0382000Y0213789D01*
X0382000Y0215387D02*
X0366200Y0215387D01*
X0366200Y0216986D02*
X0382000Y0216986D01*
X0382000Y0218584D02*
X0366200Y0218584D01*
X0366200Y0220183D02*
X0382000Y0220183D01*
X0382000Y0221781D02*
X0366200Y0221781D01*
X0366200Y0223380D02*
X0382000Y0223380D01*
X0382000Y0224978D02*
X0366200Y0224978D01*
X0366200Y0226577D02*
X0382000Y0226577D01*
X0382000Y0228175D02*
X0366200Y0228175D01*
X0366200Y0229774D02*
X0382000Y0229774D01*
X0382000Y0231372D02*
X0366200Y0231372D01*
X0366200Y0232971D02*
X0382000Y0232971D01*
X0382000Y0234569D02*
X0366200Y0234569D01*
X0366200Y0236168D02*
X0382000Y0236168D01*
X0382000Y0237766D02*
X0366200Y0237766D01*
X0366200Y0239365D02*
X0382000Y0239365D01*
X0382000Y0240963D02*
X0366200Y0240963D01*
X0366200Y0242562D02*
X0382000Y0242562D01*
X0382000Y0244160D02*
X0366200Y0244160D01*
X0366200Y0245759D02*
X0382000Y0245759D01*
X0382000Y0247357D02*
X0366200Y0247357D01*
X0366200Y0248956D02*
X0382000Y0248956D01*
X0382000Y0250554D02*
X0366200Y0250554D01*
X0366200Y0252153D02*
X0382000Y0252153D01*
X0382000Y0253751D02*
X0366200Y0253751D01*
X0361400Y0240963D02*
X0250486Y0240963D01*
X0250800Y0239365D02*
X0361400Y0239365D01*
X0361400Y0237766D02*
X0250528Y0237766D01*
X0249490Y0236168D02*
X0361400Y0236168D01*
X0361400Y0202599D02*
X0249041Y0202599D01*
X0250242Y0201001D02*
X0361400Y0201001D01*
X0361400Y0199402D02*
X0250600Y0199402D01*
X0250326Y0197803D02*
X0361400Y0197803D01*
X0361400Y0196205D02*
X0249245Y0196205D01*
X0248089Y0193378D02*
X0248706Y0193063D01*
X0249266Y0192656D01*
X0249756Y0192166D01*
X0250163Y0191606D01*
X0250478Y0190989D01*
X0250692Y0190330D01*
X0250800Y0189646D01*
X0250800Y0189300D01*
X0243800Y0189300D01*
X0243800Y0189300D01*
X0243800Y0193700D01*
X0246746Y0193700D01*
X0247430Y0193592D01*
X0248089Y0193378D01*
X0248782Y0193008D02*
X0361400Y0193008D01*
X0361400Y0194606D02*
X0162388Y0194606D01*
X0163986Y0193008D02*
X0238818Y0193008D01*
X0238894Y0193063D02*
X0238334Y0192656D01*
X0237844Y0192166D01*
X0237437Y0191606D01*
X0237122Y0190989D01*
X0236908Y0190330D01*
X0236800Y0189646D01*
X0236800Y0189300D01*
X0243800Y0189300D01*
X0243800Y0189300D01*
X0243800Y0193700D01*
X0240854Y0193700D01*
X0240170Y0193592D01*
X0239511Y0193378D01*
X0238894Y0193063D01*
X0237337Y0191409D02*
X0165585Y0191409D01*
X0167183Y0189811D02*
X0236826Y0189811D01*
X0236800Y0189300D02*
X0236800Y0188954D01*
X0236908Y0188270D01*
X0237122Y0187611D01*
X0237437Y0186994D01*
X0237844Y0186434D01*
X0238334Y0185944D01*
X0238894Y0185537D01*
X0239511Y0185222D01*
X0240170Y0185008D01*
X0240854Y0184900D01*
X0243800Y0184900D01*
X0246746Y0184900D01*
X0247430Y0185008D01*
X0248089Y0185222D01*
X0248706Y0185537D01*
X0249266Y0185944D01*
X0249756Y0186434D01*
X0250163Y0186994D01*
X0250478Y0187611D01*
X0250692Y0188270D01*
X0250800Y0188954D01*
X0250800Y0189300D01*
X0243800Y0189300D01*
X0243800Y0184900D01*
X0243800Y0189300D01*
X0243800Y0189300D01*
X0243800Y0189300D01*
X0236800Y0189300D01*
X0236927Y0188212D02*
X0178782Y0188212D01*
X0180380Y0186614D02*
X0237713Y0186614D01*
X0240148Y0185015D02*
X0181979Y0185015D01*
X0183577Y0183417D02*
X0240164Y0183417D01*
X0240365Y0183500D02*
X0238821Y0182861D01*
X0237639Y0181679D01*
X0237000Y0180135D01*
X0237000Y0178465D01*
X0237639Y0176921D01*
X0238821Y0175739D01*
X0240365Y0175100D01*
X0247235Y0175100D01*
X0248779Y0175739D01*
X0249961Y0176921D01*
X0250600Y0178465D01*
X0250600Y0180135D01*
X0249961Y0181679D01*
X0248779Y0182861D01*
X0247235Y0183500D01*
X0240365Y0183500D01*
X0237779Y0181818D02*
X0185176Y0181818D01*
X0186774Y0180220D02*
X0237035Y0180220D01*
X0237000Y0178621D02*
X0188373Y0178621D01*
X0189971Y0177023D02*
X0237597Y0177023D01*
X0239582Y0175424D02*
X0191570Y0175424D01*
X0193168Y0173826D02*
X0361400Y0173826D01*
X0361400Y0175424D02*
X0248018Y0175424D01*
X0247235Y0173500D02*
X0240365Y0173500D01*
X0238821Y0172861D01*
X0237639Y0171679D01*
X0237000Y0170135D01*
X0237000Y0168465D01*
X0237639Y0166921D01*
X0238821Y0165739D01*
X0240365Y0165100D01*
X0247235Y0165100D01*
X0248779Y0165739D01*
X0249961Y0166921D01*
X0250600Y0168465D01*
X0250600Y0170135D01*
X0249961Y0171679D01*
X0248779Y0172861D01*
X0247235Y0173500D01*
X0249412Y0172227D02*
X0361400Y0172227D01*
X0361400Y0170629D02*
X0250396Y0170629D01*
X0250600Y0169030D02*
X0361400Y0169030D01*
X0361400Y0167432D02*
X0250172Y0167432D01*
X0248873Y0165833D02*
X0361400Y0165833D01*
X0361400Y0164235D02*
X0212000Y0164235D01*
X0212000Y0164540D02*
X0209540Y0167000D01*
X0206060Y0167000D01*
X0203600Y0164540D01*
X0203600Y0161060D01*
X0206060Y0158600D01*
X0209540Y0158600D01*
X0212000Y0161060D01*
X0212000Y0164540D01*
X0210706Y0165833D02*
X0238727Y0165833D01*
X0237428Y0167432D02*
X0194200Y0167432D01*
X0194200Y0169030D02*
X0237000Y0169030D01*
X0237204Y0170629D02*
X0194200Y0170629D01*
X0194200Y0172227D02*
X0238188Y0172227D01*
X0240365Y0163500D02*
X0238821Y0162861D01*
X0237639Y0161679D01*
X0237000Y0160135D01*
X0237000Y0158465D01*
X0237639Y0156921D01*
X0238821Y0155739D01*
X0240365Y0155100D01*
X0247235Y0155100D01*
X0248779Y0155739D01*
X0249961Y0156921D01*
X0250600Y0158465D01*
X0250600Y0160135D01*
X0249961Y0161679D01*
X0248779Y0162861D01*
X0247235Y0163500D01*
X0240365Y0163500D01*
X0238597Y0162636D02*
X0212000Y0162636D01*
X0211977Y0161038D02*
X0237374Y0161038D01*
X0237000Y0159439D02*
X0210379Y0159439D01*
X0205221Y0159439D02*
X0194200Y0159439D01*
X0194200Y0157841D02*
X0237258Y0157841D01*
X0238318Y0156242D02*
X0194200Y0156242D01*
X0194200Y0154644D02*
X0357616Y0154644D01*
X0358834Y0156242D02*
X0249282Y0156242D01*
X0250342Y0157841D02*
X0360052Y0157841D01*
X0361270Y0159439D02*
X0250600Y0159439D01*
X0250226Y0161038D02*
X0361400Y0161038D01*
X0361400Y0162636D02*
X0249003Y0162636D01*
X0250003Y0177023D02*
X0361400Y0177023D01*
X0361400Y0178621D02*
X0250600Y0178621D01*
X0250565Y0180220D02*
X0361400Y0180220D01*
X0361400Y0181818D02*
X0249821Y0181818D01*
X0247436Y0183417D02*
X0361400Y0183417D01*
X0361400Y0185015D02*
X0247452Y0185015D01*
X0249887Y0186614D02*
X0361400Y0186614D01*
X0361400Y0188212D02*
X0250673Y0188212D01*
X0250774Y0189811D02*
X0361400Y0189811D01*
X0361400Y0191409D02*
X0250263Y0191409D01*
X0243800Y0191409D02*
X0243800Y0191409D01*
X0243800Y0189811D02*
X0243800Y0189811D01*
X0243800Y0188212D02*
X0243800Y0188212D01*
X0243800Y0186614D02*
X0243800Y0186614D01*
X0243800Y0185015D02*
X0243800Y0185015D01*
X0243800Y0193008D02*
X0243800Y0193008D01*
X0238355Y0196205D02*
X0160789Y0196205D01*
X0156800Y0196800D02*
X0166800Y0186800D01*
X0176800Y0186800D01*
X0191800Y0171800D01*
X0191800Y0131800D01*
X0171800Y0111800D01*
X0171800Y0031800D01*
X0166800Y0026800D01*
X0166800Y0015300D01*
X0162600Y0015573D02*
X0161000Y0015573D01*
X0161000Y0013975D02*
X0162600Y0013975D01*
X0162600Y0012376D02*
X0161000Y0012376D01*
X0160550Y0010778D02*
X0163050Y0010778D01*
X0164381Y0009179D02*
X0159219Y0009179D01*
X0154381Y0009179D02*
X0006600Y0009179D01*
X0006600Y0007581D02*
X0382000Y0007581D01*
X0382000Y0009179D02*
X0199440Y0009179D01*
X0199666Y0009344D02*
X0200156Y0009834D01*
X0200563Y0010394D01*
X0200878Y0011011D01*
X0201092Y0011670D01*
X0201200Y0012354D01*
X0201200Y0015300D01*
X0201200Y0018246D01*
X0201092Y0018930D01*
X0200878Y0019589D01*
X0200563Y0020206D01*
X0200156Y0020766D01*
X0199666Y0021256D01*
X0199106Y0021663D01*
X0198489Y0021978D01*
X0197830Y0022192D01*
X0197146Y0022300D01*
X0196800Y0022300D01*
X0196800Y0015300D01*
X0201200Y0015300D01*
X0196800Y0015300D01*
X0196800Y0015300D01*
X0196800Y0015300D01*
X0196800Y0008300D01*
X0197146Y0008300D01*
X0197830Y0008408D01*
X0198489Y0008622D01*
X0199106Y0008937D01*
X0199666Y0009344D01*
X0200759Y0010778D02*
X0382000Y0010778D01*
X0382000Y0012376D02*
X0363088Y0012376D01*
X0362413Y0011986D02*
X0366750Y0014490D01*
X0370156Y0018161D01*
X0372329Y0022673D01*
X0373075Y0027625D01*
X0372329Y0032577D01*
X0370156Y0037089D01*
X0366750Y0040760D01*
X0366750Y0040760D01*
X0362413Y0043264D01*
X0362413Y0043264D01*
X0357530Y0044378D01*
X0352537Y0044004D01*
X0352537Y0044004D01*
X0347875Y0042174D01*
X0343960Y0039052D01*
X0343960Y0039052D01*
X0341139Y0034914D01*
X0339663Y0030129D01*
X0339663Y0025121D01*
X0341139Y0020336D01*
X0343960Y0016198D01*
X0347875Y0013076D01*
X0352537Y0011246D01*
X0357530Y0010872D01*
X0357530Y0010872D01*
X0362413Y0011986D01*
X0362413Y0011986D01*
X0365857Y0013975D02*
X0382000Y0013975D01*
X0382000Y0015573D02*
X0367754Y0015573D01*
X0366750Y0014490D02*
X0366750Y0014490D01*
X0369238Y0017172D02*
X0382000Y0017172D01*
X0382000Y0018770D02*
X0370449Y0018770D01*
X0370156Y0018161D02*
X0370156Y0018161D01*
X0371219Y0020369D02*
X0382000Y0020369D01*
X0382000Y0021967D02*
X0371989Y0021967D01*
X0372329Y0022673D02*
X0372329Y0022673D01*
X0372463Y0023566D02*
X0382000Y0023566D01*
X0382000Y0025164D02*
X0372704Y0025164D01*
X0372945Y0026763D02*
X0382000Y0026763D01*
X0382000Y0028361D02*
X0372964Y0028361D01*
X0372723Y0029960D02*
X0382000Y0029960D01*
X0382000Y0031558D02*
X0372482Y0031558D01*
X0372329Y0032577D02*
X0372329Y0032577D01*
X0372049Y0033157D02*
X0382000Y0033157D01*
X0382000Y0034755D02*
X0371280Y0034755D01*
X0370510Y0036354D02*
X0382000Y0036354D01*
X0382000Y0037952D02*
X0369355Y0037952D01*
X0370156Y0037089D02*
X0370156Y0037089D01*
X0367871Y0039551D02*
X0382000Y0039551D01*
X0382000Y0041149D02*
X0366075Y0041149D01*
X0363306Y0042748D02*
X0382000Y0042748D01*
X0382000Y0044346D02*
X0357669Y0044346D01*
X0357530Y0044378D02*
X0357530Y0044378D01*
X0357109Y0044346D02*
X0174200Y0044346D01*
X0174200Y0042748D02*
X0349337Y0042748D01*
X0347875Y0042174D02*
X0347875Y0042174D01*
X0346590Y0041149D02*
X0174200Y0041149D01*
X0174200Y0039551D02*
X0344585Y0039551D01*
X0343210Y0037952D02*
X0174200Y0037952D01*
X0174200Y0036354D02*
X0342120Y0036354D01*
X0341139Y0034914D02*
X0341139Y0034914D01*
X0341090Y0034755D02*
X0174200Y0034755D01*
X0174200Y0033157D02*
X0340597Y0033157D01*
X0340104Y0031558D02*
X0174200Y0031558D01*
X0173354Y0029960D02*
X0339663Y0029960D01*
X0339663Y0028361D02*
X0171755Y0028361D01*
X0170157Y0026763D02*
X0339663Y0026763D01*
X0339663Y0025164D02*
X0169200Y0025164D01*
X0169200Y0023566D02*
X0340142Y0023566D01*
X0340635Y0021967D02*
X0198509Y0021967D01*
X0196800Y0021967D02*
X0196800Y0021967D01*
X0196800Y0022300D02*
X0196454Y0022300D01*
X0195770Y0022192D01*
X0195111Y0021978D01*
X0194494Y0021663D01*
X0193934Y0021256D01*
X0193444Y0020766D01*
X0193037Y0020206D01*
X0192722Y0019589D01*
X0192508Y0018930D01*
X0192400Y0018246D01*
X0192400Y0015300D01*
X0196800Y0015300D01*
X0196800Y0015300D01*
X0196800Y0015300D01*
X0196800Y0022300D01*
X0195091Y0021967D02*
X0187956Y0021967D01*
X0187635Y0022100D02*
X0185965Y0022100D01*
X0184421Y0021461D01*
X0183239Y0020279D01*
X0182600Y0018735D01*
X0182600Y0011865D01*
X0183239Y0010321D01*
X0184421Y0009139D01*
X0185965Y0008500D01*
X0187635Y0008500D01*
X0189179Y0009139D01*
X0190361Y0010321D01*
X0191000Y0011865D01*
X0191000Y0018735D01*
X0190361Y0020279D01*
X0189179Y0021461D01*
X0187635Y0022100D01*
X0185644Y0021967D02*
X0177956Y0021967D01*
X0177635Y0022100D02*
X0175965Y0022100D01*
X0174421Y0021461D01*
X0173239Y0020279D01*
X0172600Y0018735D01*
X0172600Y0011865D01*
X0173239Y0010321D01*
X0174421Y0009139D01*
X0175965Y0008500D01*
X0177635Y0008500D01*
X0179179Y0009139D01*
X0180361Y0010321D01*
X0181000Y0011865D01*
X0181000Y0018735D01*
X0180361Y0020279D01*
X0179179Y0021461D01*
X0177635Y0022100D01*
X0175644Y0021967D02*
X0169200Y0021967D01*
X0170271Y0020369D02*
X0173329Y0020369D01*
X0172614Y0018770D02*
X0170986Y0018770D01*
X0171000Y0017172D02*
X0172600Y0017172D01*
X0172600Y0015573D02*
X0171000Y0015573D01*
X0171000Y0013975D02*
X0172600Y0013975D01*
X0172600Y0012376D02*
X0171000Y0012376D01*
X0170550Y0010778D02*
X0173050Y0010778D01*
X0174381Y0009179D02*
X0169219Y0009179D01*
X0162600Y0017172D02*
X0161000Y0017172D01*
X0160986Y0018770D02*
X0162614Y0018770D01*
X0163329Y0020369D02*
X0160271Y0020369D01*
X0159200Y0021967D02*
X0164400Y0021967D01*
X0164400Y0023566D02*
X0159200Y0023566D01*
X0159200Y0025164D02*
X0164400Y0025164D01*
X0164400Y0026763D02*
X0160157Y0026763D01*
X0161755Y0028361D02*
X0164967Y0028361D01*
X0166566Y0029960D02*
X0163354Y0029960D01*
X0164200Y0031558D02*
X0168164Y0031558D01*
X0169400Y0033157D02*
X0164200Y0033157D01*
X0164200Y0034755D02*
X0169400Y0034755D01*
X0169400Y0036354D02*
X0164200Y0036354D01*
X0164200Y0037952D02*
X0169400Y0037952D01*
X0169400Y0039551D02*
X0164200Y0039551D01*
X0164200Y0041149D02*
X0169400Y0041149D01*
X0169400Y0042748D02*
X0164200Y0042748D01*
X0164200Y0044346D02*
X0169400Y0044346D01*
X0169400Y0045945D02*
X0164200Y0045945D01*
X0164200Y0047543D02*
X0169400Y0047543D01*
X0169400Y0049142D02*
X0164200Y0049142D01*
X0164200Y0050740D02*
X0169400Y0050740D01*
X0169400Y0052339D02*
X0164200Y0052339D01*
X0164200Y0053937D02*
X0169400Y0053937D01*
X0169400Y0055536D02*
X0164200Y0055536D01*
X0164200Y0057134D02*
X0169400Y0057134D01*
X0169400Y0058733D02*
X0164200Y0058733D01*
X0164200Y0060332D02*
X0169400Y0060332D01*
X0169400Y0061930D02*
X0164200Y0061930D01*
X0164200Y0063529D02*
X0169400Y0063529D01*
X0169400Y0065127D02*
X0164200Y0065127D01*
X0164200Y0066726D02*
X0169400Y0066726D01*
X0169400Y0068324D02*
X0164200Y0068324D01*
X0164200Y0069923D02*
X0169400Y0069923D01*
X0169400Y0071521D02*
X0164200Y0071521D01*
X0164200Y0073120D02*
X0169400Y0073120D01*
X0169400Y0074718D02*
X0164200Y0074718D01*
X0164200Y0076317D02*
X0169400Y0076317D01*
X0169400Y0077915D02*
X0164200Y0077915D01*
X0164200Y0079514D02*
X0169400Y0079514D01*
X0169400Y0081112D02*
X0164200Y0081112D01*
X0164200Y0082711D02*
X0169400Y0082711D01*
X0169400Y0084309D02*
X0164200Y0084309D01*
X0164200Y0085908D02*
X0169400Y0085908D01*
X0169400Y0087506D02*
X0164200Y0087506D01*
X0164200Y0089105D02*
X0169400Y0089105D01*
X0169400Y0090703D02*
X0164200Y0090703D01*
X0164200Y0092302D02*
X0169400Y0092302D01*
X0169400Y0093900D02*
X0164200Y0093900D01*
X0164200Y0095499D02*
X0169400Y0095499D01*
X0169400Y0097097D02*
X0164200Y0097097D01*
X0164200Y0098696D02*
X0169400Y0098696D01*
X0169400Y0100294D02*
X0164200Y0100294D01*
X0164200Y0101893D02*
X0169400Y0101893D01*
X0169400Y0103491D02*
X0164200Y0103491D01*
X0164200Y0105090D02*
X0169400Y0105090D01*
X0169400Y0106688D02*
X0164200Y0106688D01*
X0164200Y0108287D02*
X0169400Y0108287D01*
X0169400Y0109885D02*
X0164200Y0109885D01*
X0164878Y0111484D02*
X0169400Y0111484D01*
X0169733Y0113082D02*
X0166477Y0113082D01*
X0168075Y0114681D02*
X0171287Y0114681D01*
X0172885Y0116279D02*
X0169674Y0116279D01*
X0171272Y0117878D02*
X0174484Y0117878D01*
X0176082Y0119476D02*
X0172871Y0119476D01*
X0174469Y0121075D02*
X0177681Y0121075D01*
X0179279Y0122673D02*
X0176068Y0122673D01*
X0177666Y0124272D02*
X0180878Y0124272D01*
X0182476Y0125870D02*
X0179265Y0125870D01*
X0180863Y0127469D02*
X0184075Y0127469D01*
X0185673Y0129068D02*
X0182462Y0129068D01*
X0184060Y0130666D02*
X0187272Y0130666D01*
X0188870Y0132265D02*
X0185659Y0132265D01*
X0187257Y0133863D02*
X0189400Y0133863D01*
X0189400Y0135462D02*
X0188843Y0135462D01*
X0189200Y0137060D02*
X0189400Y0137060D01*
X0189400Y0138659D02*
X0189200Y0138659D01*
X0189200Y0140257D02*
X0189400Y0140257D01*
X0189400Y0141856D02*
X0189200Y0141856D01*
X0189200Y0143454D02*
X0189400Y0143454D01*
X0189400Y0145053D02*
X0189200Y0145053D01*
X0189200Y0146651D02*
X0189400Y0146651D01*
X0189400Y0148250D02*
X0189200Y0148250D01*
X0189200Y0149848D02*
X0189400Y0149848D01*
X0189400Y0151447D02*
X0189200Y0151447D01*
X0189200Y0153045D02*
X0189400Y0153045D01*
X0189400Y0154644D02*
X0189200Y0154644D01*
X0189200Y0156242D02*
X0189400Y0156242D01*
X0189400Y0157841D02*
X0189200Y0157841D01*
X0189200Y0159439D02*
X0189400Y0159439D01*
X0189400Y0161038D02*
X0189200Y0161038D01*
X0189200Y0162636D02*
X0189400Y0162636D01*
X0189400Y0164235D02*
X0189200Y0164235D01*
X0189200Y0165833D02*
X0189400Y0165833D01*
X0189400Y0167432D02*
X0189136Y0167432D01*
X0189400Y0169030D02*
X0187964Y0169030D01*
X0189400Y0170629D02*
X0186365Y0170629D01*
X0184767Y0172227D02*
X0187979Y0172227D01*
X0186380Y0173826D02*
X0183168Y0173826D01*
X0181570Y0175424D02*
X0184782Y0175424D01*
X0183183Y0177023D02*
X0179971Y0177023D01*
X0178373Y0178621D02*
X0181585Y0178621D01*
X0179986Y0180220D02*
X0166774Y0180220D01*
X0165176Y0181818D02*
X0178387Y0181818D01*
X0176789Y0183417D02*
X0163577Y0183417D01*
X0161979Y0185015D02*
X0165190Y0185015D01*
X0163592Y0186614D02*
X0160380Y0186614D01*
X0158782Y0188212D02*
X0161993Y0188212D01*
X0160395Y0189811D02*
X0157183Y0189811D01*
X0155585Y0191409D02*
X0158796Y0191409D01*
X0157198Y0193008D02*
X0154200Y0193008D01*
X0154200Y0194606D02*
X0155599Y0194606D01*
X0154449Y0196205D02*
X0154200Y0196205D01*
X0154200Y0197803D02*
X0154400Y0197803D01*
X0154400Y0199402D02*
X0154200Y0199402D01*
X0154200Y0201001D02*
X0154400Y0201001D01*
X0154400Y0202599D02*
X0154200Y0202599D01*
X0154200Y0204198D02*
X0154400Y0204198D01*
X0154400Y0205796D02*
X0154200Y0205796D01*
X0154200Y0207395D02*
X0154400Y0207395D01*
X0154400Y0208993D02*
X0154200Y0208993D01*
X0154200Y0210592D02*
X0154400Y0210592D01*
X0154400Y0212190D02*
X0154200Y0212190D01*
X0154200Y0213789D02*
X0154400Y0213789D01*
X0154400Y0215387D02*
X0154200Y0215387D01*
X0154200Y0216986D02*
X0154400Y0216986D01*
X0154400Y0218584D02*
X0154200Y0218584D01*
X0154200Y0220183D02*
X0154400Y0220183D01*
X0154400Y0221781D02*
X0154200Y0221781D01*
X0154200Y0223380D02*
X0154400Y0223380D01*
X0154400Y0224978D02*
X0154200Y0224978D01*
X0154200Y0226577D02*
X0154400Y0226577D01*
X0154400Y0228175D02*
X0154200Y0228175D01*
X0154200Y0229774D02*
X0154400Y0229774D01*
X0154400Y0231372D02*
X0154200Y0231372D01*
X0154200Y0232971D02*
X0154400Y0232971D01*
X0154400Y0234569D02*
X0154200Y0234569D01*
X0154200Y0236168D02*
X0154400Y0236168D01*
X0154200Y0237766D02*
X0154603Y0237766D01*
X0154200Y0239365D02*
X0155971Y0239365D01*
X0157569Y0240963D02*
X0154200Y0240963D01*
X0154200Y0242562D02*
X0159168Y0242562D01*
X0160766Y0244160D02*
X0154200Y0244160D01*
X0154200Y0245759D02*
X0188536Y0245759D01*
X0189422Y0248956D02*
X0157350Y0248956D01*
X0155751Y0247357D02*
X0214400Y0247357D01*
X0214400Y0245759D02*
X0205064Y0245759D01*
X0206200Y0244160D02*
X0214400Y0244160D01*
X0214400Y0242562D02*
X0206200Y0242562D01*
X0206186Y0240963D02*
X0214400Y0240963D01*
X0214400Y0239365D02*
X0204587Y0239365D01*
X0204655Y0236168D02*
X0214400Y0236168D01*
X0214400Y0237766D02*
X0161160Y0237766D01*
X0159562Y0236168D02*
X0188945Y0236168D01*
X0187400Y0234569D02*
X0159200Y0234569D01*
X0159200Y0232971D02*
X0187400Y0232971D01*
X0187400Y0231372D02*
X0159200Y0231372D01*
X0159200Y0229774D02*
X0188604Y0229774D01*
X0189013Y0239365D02*
X0162759Y0239365D01*
X0162800Y0242800D02*
X0156800Y0236800D01*
X0156800Y0196800D01*
X0151800Y0191800D02*
X0166800Y0176800D01*
X0176800Y0176800D01*
X0186800Y0166800D01*
X0186800Y0136800D01*
X0161800Y0111800D01*
X0161800Y0031800D01*
X0156800Y0026800D01*
X0156800Y0015300D01*
X0152600Y0015573D02*
X0040045Y0015573D01*
X0038562Y0013975D02*
X0152600Y0013975D01*
X0152600Y0012376D02*
X0036042Y0012376D01*
X0033938Y0011161D02*
X0038275Y0013665D01*
X0041681Y0017336D01*
X0043854Y0021848D01*
X0044600Y0026800D01*
X0043854Y0031752D01*
X0041681Y0036264D01*
X0038275Y0039935D01*
X0038275Y0039935D01*
X0033938Y0042439D01*
X0033938Y0042439D01*
X0029055Y0043553D01*
X0024062Y0043179D01*
X0024062Y0043179D01*
X0019400Y0041349D01*
X0015485Y0038227D01*
X0015485Y0038227D01*
X0015485Y0038227D01*
X0012664Y0034089D01*
X0011188Y0029304D01*
X0011188Y0024296D01*
X0012664Y0019511D01*
X0012664Y0019511D01*
X0015485Y0015373D01*
X0019400Y0012251D01*
X0024062Y0010421D01*
X0029055Y0010047D01*
X0029055Y0010047D01*
X0033938Y0011161D01*
X0033938Y0011161D01*
X0032257Y0010778D02*
X0153050Y0010778D01*
X0152600Y0017172D02*
X0041528Y0017172D01*
X0041681Y0017336D02*
X0041681Y0017336D01*
X0042371Y0018770D02*
X0152614Y0018770D01*
X0153329Y0020369D02*
X0043141Y0020369D01*
X0043854Y0021848D02*
X0043854Y0021848D01*
X0043872Y0021967D02*
X0154400Y0021967D01*
X0154400Y0023566D02*
X0044112Y0023566D01*
X0044353Y0025164D02*
X0154400Y0025164D01*
X0154400Y0026763D02*
X0044594Y0026763D01*
X0044365Y0028361D02*
X0154967Y0028361D01*
X0156566Y0029960D02*
X0044124Y0029960D01*
X0043883Y0031558D02*
X0158164Y0031558D01*
X0159400Y0033157D02*
X0043177Y0033157D01*
X0043854Y0031752D02*
X0043854Y0031752D01*
X0042407Y0034755D02*
X0159400Y0034755D01*
X0159400Y0036354D02*
X0041597Y0036354D01*
X0041681Y0036264D02*
X0041681Y0036264D01*
X0040114Y0037952D02*
X0159400Y0037952D01*
X0159400Y0039551D02*
X0038631Y0039551D01*
X0036171Y0041149D02*
X0159400Y0041149D01*
X0159400Y0042748D02*
X0032583Y0042748D01*
X0029055Y0043553D02*
X0029055Y0043553D01*
X0022964Y0042748D02*
X0006600Y0042748D01*
X0006600Y0044346D02*
X0159400Y0044346D01*
X0159400Y0045945D02*
X0006600Y0045945D01*
X0006600Y0047543D02*
X0159400Y0047543D01*
X0159400Y0049142D02*
X0006600Y0049142D01*
X0006600Y0050740D02*
X0159400Y0050740D01*
X0159400Y0052339D02*
X0006600Y0052339D01*
X0006600Y0053937D02*
X0159400Y0053937D01*
X0159400Y0055536D02*
X0006600Y0055536D01*
X0006600Y0057134D02*
X0159400Y0057134D01*
X0159400Y0058733D02*
X0006600Y0058733D01*
X0006600Y0060332D02*
X0159400Y0060332D01*
X0159400Y0061930D02*
X0006600Y0061930D01*
X0006600Y0063529D02*
X0159400Y0063529D01*
X0159400Y0065127D02*
X0006600Y0065127D01*
X0006600Y0066726D02*
X0074616Y0066726D01*
X0074194Y0066900D02*
X0075885Y0066200D01*
X0077715Y0066200D01*
X0079406Y0066900D01*
X0080700Y0068194D01*
X0081400Y0069885D01*
X0081400Y0077715D01*
X0080700Y0079406D01*
X0079406Y0080700D01*
X0077715Y0081400D01*
X0075885Y0081400D01*
X0074194Y0080700D01*
X0072900Y0079406D01*
X0072200Y0077715D01*
X0072200Y0069885D01*
X0072900Y0068194D01*
X0074194Y0066900D01*
X0072847Y0068324D02*
X0006600Y0068324D01*
X0006600Y0069923D02*
X0072200Y0069923D01*
X0072200Y0071521D02*
X0006600Y0071521D01*
X0006600Y0073120D02*
X0072200Y0073120D01*
X0072200Y0074718D02*
X0006600Y0074718D01*
X0006600Y0076317D02*
X0072200Y0076317D01*
X0072283Y0077915D02*
X0006600Y0077915D01*
X0006600Y0079514D02*
X0073008Y0079514D01*
X0075190Y0081112D02*
X0006600Y0081112D01*
X0006600Y0082711D02*
X0084400Y0082711D01*
X0084400Y0084309D02*
X0006600Y0084309D01*
X0006600Y0085908D02*
X0084400Y0085908D01*
X0084495Y0087506D02*
X0006600Y0087506D01*
X0006600Y0089105D02*
X0085711Y0089105D01*
X0087309Y0090703D02*
X0006600Y0090703D01*
X0006600Y0092302D02*
X0088908Y0092302D01*
X0090506Y0093900D02*
X0006600Y0093900D01*
X0006600Y0095499D02*
X0092105Y0095499D01*
X0093703Y0097097D02*
X0006600Y0097097D01*
X0006600Y0098696D02*
X0094400Y0098696D01*
X0094400Y0100294D02*
X0006600Y0100294D01*
X0006600Y0101893D02*
X0094400Y0101893D01*
X0094400Y0103491D02*
X0006600Y0103491D01*
X0042394Y0143454D02*
X0078206Y0143454D01*
X0076608Y0145053D02*
X0043992Y0145053D01*
X0044500Y0146651D02*
X0076100Y0146651D01*
X0076100Y0148250D02*
X0044500Y0148250D01*
X0043692Y0149848D02*
X0076908Y0149848D01*
X0078507Y0151447D02*
X0042093Y0151447D01*
X0034123Y0198900D02*
X0030477Y0198900D01*
X0027900Y0201477D01*
X0027900Y0205123D01*
X0030477Y0207700D01*
X0034123Y0207700D01*
X0036700Y0205123D01*
X0036700Y0201477D01*
X0034123Y0198900D01*
X0034625Y0199402D02*
X0114400Y0199402D01*
X0114400Y0201001D02*
X0036223Y0201001D01*
X0036700Y0202599D02*
X0114400Y0202599D01*
X0114400Y0204198D02*
X0036700Y0204198D01*
X0036026Y0205796D02*
X0114400Y0205796D01*
X0114400Y0207395D02*
X0034428Y0207395D01*
X0034216Y0208993D02*
X0114400Y0208993D01*
X0114400Y0210592D02*
X0035814Y0210592D01*
X0036700Y0212190D02*
X0114400Y0212190D01*
X0114400Y0213789D02*
X0036700Y0213789D01*
X0036435Y0215387D02*
X0114400Y0215387D01*
X0114400Y0239365D02*
X0034587Y0239365D01*
X0036186Y0240963D02*
X0114400Y0240963D01*
X0114400Y0242562D02*
X0036700Y0242562D01*
X0036700Y0244160D02*
X0114400Y0244160D01*
X0114400Y0245759D02*
X0036064Y0245759D01*
X0034465Y0247357D02*
X0114400Y0247357D01*
X0114400Y0248956D02*
X0034178Y0248956D01*
X0035777Y0250554D02*
X0114400Y0250554D01*
X0114400Y0252153D02*
X0036700Y0252153D01*
X0036700Y0253751D02*
X0114400Y0253751D01*
X0114400Y0255350D02*
X0036473Y0255350D01*
X0034874Y0256948D02*
X0114400Y0256948D01*
X0114400Y0268138D02*
X0006600Y0268138D01*
X0006600Y0279328D02*
X0020050Y0279328D01*
X0018451Y0280926D02*
X0006600Y0280926D01*
X0006600Y0282525D02*
X0017900Y0282525D01*
X0017900Y0284123D02*
X0006600Y0284123D01*
X0006600Y0285722D02*
X0018499Y0285722D01*
X0020098Y0287320D02*
X0006600Y0287320D01*
X0006600Y0288919D02*
X0020459Y0288919D01*
X0018860Y0290517D02*
X0006600Y0290517D01*
X0006600Y0292116D02*
X0017900Y0292116D01*
X0017900Y0293714D02*
X0006600Y0293714D01*
X0006600Y0295313D02*
X0018090Y0295313D01*
X0019689Y0296911D02*
X0006600Y0296911D01*
X0043692Y0311298D02*
X0234400Y0311298D01*
X0234400Y0312896D02*
X0045290Y0312896D01*
X0046889Y0314495D02*
X0234400Y0314495D01*
X0234400Y0316093D02*
X0048487Y0316093D01*
X0050086Y0317692D02*
X0234400Y0317692D01*
X0234400Y0319290D02*
X0051684Y0319290D01*
X0053283Y0320889D02*
X0234400Y0320889D01*
X0234400Y0322487D02*
X0054881Y0322487D01*
X0056480Y0324086D02*
X0234400Y0324086D01*
X0234400Y0325684D02*
X0058078Y0325684D01*
X0059677Y0327283D02*
X0234400Y0327283D01*
X0234400Y0328881D02*
X0061276Y0328881D01*
X0062874Y0330480D02*
X0234400Y0330480D01*
X0233982Y0332078D02*
X0064473Y0332078D01*
X0066071Y0333677D02*
X0232885Y0333677D01*
X0232600Y0335275D02*
X0067670Y0335275D01*
X0038325Y0343690D02*
X0038325Y0343690D01*
X0038325Y0343690D01*
X0037593Y0343268D02*
X0233728Y0343268D01*
X0232780Y0341670D02*
X0034825Y0341670D01*
X0033988Y0341186D02*
X0033988Y0341186D01*
X0024112Y0340446D02*
X0024112Y0340446D01*
X0029105Y0373578D02*
X0029105Y0373578D01*
X0122722Y0279328D02*
X0125933Y0279328D01*
X0124587Y0277729D02*
X0121123Y0277729D01*
X0119525Y0276131D02*
X0124400Y0276131D01*
X0124320Y0280926D02*
X0127532Y0280926D01*
X0129130Y0282525D02*
X0125919Y0282525D01*
X0127517Y0284123D02*
X0130729Y0284123D01*
X0132328Y0285722D02*
X0129116Y0285722D01*
X0130714Y0287320D02*
X0133926Y0287320D01*
X0135525Y0288919D02*
X0132313Y0288919D01*
X0133911Y0290517D02*
X0137123Y0290517D01*
X0138722Y0292116D02*
X0135510Y0292116D01*
X0137108Y0293714D02*
X0140320Y0293714D01*
X0141904Y0298510D02*
X0211696Y0298510D01*
X0210098Y0300108D02*
X0143502Y0300108D01*
X0145101Y0301707D02*
X0208499Y0301707D01*
X0206901Y0303305D02*
X0146699Y0303305D01*
X0142800Y0282800D02*
X0191800Y0282800D01*
X0191800Y0272800D02*
X0147800Y0272800D01*
X0141800Y0266800D01*
X0141800Y0191800D01*
X0161800Y0171800D01*
X0171800Y0171800D01*
X0181800Y0161800D01*
X0181800Y0141800D01*
X0171800Y0131800D01*
X0174060Y0130666D02*
X0177272Y0130666D01*
X0178870Y0132265D02*
X0175659Y0132265D01*
X0177257Y0133863D02*
X0180469Y0133863D01*
X0182067Y0135462D02*
X0178856Y0135462D01*
X0180454Y0137060D02*
X0183666Y0137060D01*
X0184400Y0138659D02*
X0182053Y0138659D01*
X0183651Y0140257D02*
X0184400Y0140257D01*
X0184400Y0141856D02*
X0184200Y0141856D01*
X0184200Y0143454D02*
X0184400Y0143454D01*
X0184400Y0145053D02*
X0184200Y0145053D01*
X0184200Y0146651D02*
X0184400Y0146651D01*
X0184400Y0148250D02*
X0184200Y0148250D01*
X0184200Y0149848D02*
X0184400Y0149848D01*
X0184400Y0151447D02*
X0184200Y0151447D01*
X0184200Y0153045D02*
X0184400Y0153045D01*
X0184400Y0154644D02*
X0184200Y0154644D01*
X0184200Y0156242D02*
X0184400Y0156242D01*
X0184400Y0157841D02*
X0184200Y0157841D01*
X0184200Y0159439D02*
X0184400Y0159439D01*
X0184400Y0161038D02*
X0184200Y0161038D01*
X0184051Y0162636D02*
X0184400Y0162636D01*
X0184400Y0164235D02*
X0182759Y0164235D01*
X0181161Y0165833D02*
X0184373Y0165833D01*
X0182774Y0167432D02*
X0179562Y0167432D01*
X0177964Y0169030D02*
X0181176Y0169030D01*
X0179577Y0170629D02*
X0176365Y0170629D01*
X0174767Y0172227D02*
X0177979Y0172227D01*
X0176380Y0173826D02*
X0173168Y0173826D01*
X0171176Y0169030D02*
X0152964Y0169030D01*
X0154136Y0167432D02*
X0172774Y0167432D01*
X0174373Y0165833D02*
X0170989Y0165833D01*
X0172200Y0164623D02*
X0169623Y0167200D01*
X0167800Y0167200D01*
X0167800Y0162800D01*
X0172200Y0162800D01*
X0172200Y0164623D01*
X0172200Y0164235D02*
X0175971Y0164235D01*
X0177570Y0162636D02*
X0172200Y0162636D01*
X0172200Y0162800D02*
X0167800Y0162800D01*
X0167800Y0162800D01*
X0167800Y0162800D01*
X0167800Y0158400D01*
X0169623Y0158400D01*
X0172200Y0160977D01*
X0172200Y0162800D01*
X0172200Y0161038D02*
X0179168Y0161038D01*
X0179400Y0159439D02*
X0170662Y0159439D01*
X0167800Y0159439D02*
X0167800Y0159439D01*
X0167800Y0158400D02*
X0167800Y0162800D01*
X0167800Y0162800D01*
X0167800Y0162800D01*
X0163400Y0162800D01*
X0163400Y0164623D01*
X0165977Y0167200D01*
X0167800Y0167200D01*
X0167800Y0162800D01*
X0163400Y0162800D01*
X0163400Y0160977D01*
X0165977Y0158400D01*
X0167800Y0158400D01*
X0167800Y0161038D02*
X0167800Y0161038D01*
X0167800Y0162636D02*
X0167800Y0162636D01*
X0167800Y0164235D02*
X0167800Y0164235D01*
X0167800Y0165833D02*
X0167800Y0165833D01*
X0164611Y0165833D02*
X0154200Y0165833D01*
X0154200Y0164235D02*
X0163400Y0164235D01*
X0163400Y0162636D02*
X0154200Y0162636D01*
X0154200Y0161038D02*
X0163400Y0161038D01*
X0164938Y0159439D02*
X0154200Y0159439D01*
X0154653Y0157841D02*
X0179400Y0157841D01*
X0179400Y0156242D02*
X0156252Y0156242D01*
X0157850Y0154644D02*
X0179400Y0154644D01*
X0179400Y0153045D02*
X0159449Y0153045D01*
X0161047Y0151447D02*
X0179400Y0151447D01*
X0194200Y0151447D02*
X0355180Y0151447D01*
X0356398Y0153045D02*
X0194200Y0153045D01*
X0194200Y0149848D02*
X0353962Y0149848D01*
X0352744Y0148250D02*
X0194200Y0148250D01*
X0194200Y0146651D02*
X0203211Y0146651D01*
X0201613Y0145053D02*
X0194200Y0145053D01*
X0194200Y0143454D02*
X0201600Y0143454D01*
X0201600Y0141856D02*
X0194200Y0141856D01*
X0194200Y0140257D02*
X0202903Y0140257D01*
X0205800Y0143300D02*
X0207300Y0141800D01*
X0236800Y0141800D01*
X0248800Y0129800D01*
X0248800Y0114300D01*
X0253400Y0114681D02*
X0254200Y0114681D01*
X0254200Y0116279D02*
X0253400Y0116279D01*
X0253400Y0117878D02*
X0254200Y0117878D01*
X0254723Y0119476D02*
X0252877Y0119476D01*
X0251200Y0124272D02*
X0334476Y0124272D01*
X0335694Y0125870D02*
X0251200Y0125870D01*
X0251200Y0127469D02*
X0336912Y0127469D01*
X0338129Y0129068D02*
X0251200Y0129068D01*
X0251039Y0130666D02*
X0339347Y0130666D01*
X0340565Y0132265D02*
X0249730Y0132265D01*
X0248131Y0133863D02*
X0341783Y0133863D01*
X0343001Y0135462D02*
X0246533Y0135462D01*
X0244934Y0137060D02*
X0344219Y0137060D01*
X0345437Y0138659D02*
X0243336Y0138659D01*
X0241737Y0140257D02*
X0346655Y0140257D01*
X0347873Y0141856D02*
X0240138Y0141856D01*
X0238540Y0143454D02*
X0349091Y0143454D01*
X0350309Y0145053D02*
X0209987Y0145053D01*
X0208389Y0146651D02*
X0351527Y0146651D01*
X0382000Y0106688D02*
X0240140Y0106688D01*
X0239924Y0106618D02*
X0240643Y0106852D01*
X0241316Y0107195D01*
X0241927Y0107639D01*
X0242461Y0108173D01*
X0242905Y0108784D01*
X0243248Y0109457D01*
X0243482Y0110176D01*
X0243600Y0110922D01*
X0243600Y0114100D01*
X0239000Y0114100D01*
X0239000Y0114500D01*
X0243600Y0114500D01*
X0243600Y0117678D01*
X0243482Y0118424D01*
X0243248Y0119143D01*
X0242905Y0119816D01*
X0242461Y0120427D01*
X0241927Y0120961D01*
X0241316Y0121405D01*
X0240643Y0121748D01*
X0239924Y0121982D01*
X0239178Y0122100D01*
X0239000Y0122100D01*
X0239000Y0114500D01*
X0238600Y0114500D01*
X0238600Y0122100D01*
X0238422Y0122100D01*
X0237676Y0121982D01*
X0236957Y0121748D01*
X0236284Y0121405D01*
X0235673Y0120961D01*
X0235139Y0120427D01*
X0234695Y0119816D01*
X0234352Y0119143D01*
X0234118Y0118424D01*
X0234000Y0117678D01*
X0234000Y0114500D01*
X0238600Y0114500D01*
X0238600Y0114100D01*
X0239000Y0114100D01*
X0239000Y0106500D01*
X0239178Y0106500D01*
X0239924Y0106618D01*
X0239000Y0106688D02*
X0238600Y0106688D01*
X0238600Y0106500D02*
X0238600Y0114100D01*
X0234000Y0114100D01*
X0234000Y0110922D01*
X0234118Y0110176D01*
X0234352Y0109457D01*
X0234695Y0108784D01*
X0235139Y0108173D01*
X0235673Y0107639D01*
X0236284Y0107195D01*
X0236957Y0106852D01*
X0237676Y0106618D01*
X0238422Y0106500D01*
X0238600Y0106500D01*
X0237460Y0106688D02*
X0174200Y0106688D01*
X0174200Y0105090D02*
X0382000Y0105090D01*
X0382000Y0103491D02*
X0174200Y0103491D01*
X0174200Y0101893D02*
X0382000Y0101893D01*
X0382000Y0100294D02*
X0174200Y0100294D01*
X0174200Y0098696D02*
X0382000Y0098696D01*
X0382000Y0097097D02*
X0174200Y0097097D01*
X0174200Y0095499D02*
X0382000Y0095499D01*
X0382000Y0093900D02*
X0174200Y0093900D01*
X0174200Y0092302D02*
X0382000Y0092302D01*
X0382000Y0090703D02*
X0174200Y0090703D01*
X0174200Y0089105D02*
X0382000Y0089105D01*
X0382000Y0087506D02*
X0174200Y0087506D01*
X0174200Y0085908D02*
X0382000Y0085908D01*
X0382000Y0084309D02*
X0174200Y0084309D01*
X0174200Y0082711D02*
X0382000Y0082711D01*
X0382000Y0081112D02*
X0174200Y0081112D01*
X0174200Y0079514D02*
X0236008Y0079514D01*
X0236194Y0079700D02*
X0234900Y0078406D01*
X0234200Y0076715D01*
X0234200Y0068885D01*
X0234900Y0067194D01*
X0236194Y0065900D01*
X0237885Y0065200D01*
X0239715Y0065200D01*
X0241406Y0065900D01*
X0242700Y0067194D01*
X0243400Y0068885D01*
X0243400Y0076715D01*
X0242700Y0078406D01*
X0241406Y0079700D01*
X0239715Y0080400D01*
X0237885Y0080400D01*
X0236194Y0079700D01*
X0234697Y0077915D02*
X0174200Y0077915D01*
X0174200Y0076317D02*
X0234200Y0076317D01*
X0234200Y0074718D02*
X0174200Y0074718D01*
X0174200Y0073120D02*
X0234200Y0073120D01*
X0234200Y0071521D02*
X0174200Y0071521D01*
X0174200Y0069923D02*
X0234200Y0069923D01*
X0234432Y0068324D02*
X0174200Y0068324D01*
X0174200Y0066726D02*
X0235369Y0066726D01*
X0242231Y0066726D02*
X0245369Y0066726D01*
X0244900Y0067194D02*
X0246194Y0065900D01*
X0247885Y0065200D01*
X0249715Y0065200D01*
X0251406Y0065900D01*
X0252700Y0067194D01*
X0253400Y0068885D01*
X0253400Y0076715D01*
X0252700Y0078406D01*
X0251406Y0079700D01*
X0249715Y0080400D01*
X0247885Y0080400D01*
X0246194Y0079700D01*
X0244900Y0078406D01*
X0244200Y0076715D01*
X0244200Y0068885D01*
X0244900Y0067194D01*
X0244432Y0068324D02*
X0243168Y0068324D01*
X0243400Y0069923D02*
X0244200Y0069923D01*
X0244200Y0071521D02*
X0243400Y0071521D01*
X0243400Y0073120D02*
X0244200Y0073120D01*
X0244200Y0074718D02*
X0243400Y0074718D01*
X0243400Y0076317D02*
X0244200Y0076317D01*
X0244697Y0077915D02*
X0242903Y0077915D01*
X0241592Y0079514D02*
X0246008Y0079514D01*
X0251592Y0079514D02*
X0256008Y0079514D01*
X0256194Y0079700D02*
X0254900Y0078406D01*
X0254200Y0076715D01*
X0254200Y0068885D01*
X0254900Y0067194D01*
X0256194Y0065900D01*
X0257885Y0065200D01*
X0259715Y0065200D01*
X0261406Y0065900D01*
X0262700Y0067194D01*
X0263400Y0068885D01*
X0263400Y0076715D01*
X0262700Y0078406D01*
X0261406Y0079700D01*
X0259715Y0080400D01*
X0257885Y0080400D01*
X0256194Y0079700D01*
X0254697Y0077915D02*
X0252903Y0077915D01*
X0253400Y0076317D02*
X0254200Y0076317D01*
X0254200Y0074718D02*
X0253400Y0074718D01*
X0253400Y0073120D02*
X0254200Y0073120D01*
X0254200Y0071521D02*
X0253400Y0071521D01*
X0253400Y0069923D02*
X0254200Y0069923D01*
X0254432Y0068324D02*
X0253168Y0068324D01*
X0252231Y0066726D02*
X0255369Y0066726D01*
X0262231Y0066726D02*
X0265369Y0066726D01*
X0264900Y0067194D02*
X0266194Y0065900D01*
X0267885Y0065200D01*
X0269715Y0065200D01*
X0271406Y0065900D01*
X0272700Y0067194D01*
X0273400Y0068885D01*
X0273400Y0076715D01*
X0272700Y0078406D01*
X0271406Y0079700D01*
X0269715Y0080400D01*
X0267885Y0080400D01*
X0266194Y0079700D01*
X0264900Y0078406D01*
X0264200Y0076715D01*
X0264200Y0068885D01*
X0264900Y0067194D01*
X0264432Y0068324D02*
X0263168Y0068324D01*
X0263400Y0069923D02*
X0264200Y0069923D01*
X0264200Y0071521D02*
X0263400Y0071521D01*
X0263400Y0073120D02*
X0264200Y0073120D01*
X0264200Y0074718D02*
X0263400Y0074718D01*
X0263400Y0076317D02*
X0264200Y0076317D01*
X0264697Y0077915D02*
X0262903Y0077915D01*
X0261592Y0079514D02*
X0266008Y0079514D01*
X0271592Y0079514D02*
X0382000Y0079514D01*
X0382000Y0077915D02*
X0272903Y0077915D01*
X0273400Y0076317D02*
X0382000Y0076317D01*
X0382000Y0074718D02*
X0273400Y0074718D01*
X0273400Y0073120D02*
X0382000Y0073120D01*
X0382000Y0071521D02*
X0273400Y0071521D01*
X0273400Y0069923D02*
X0382000Y0069923D01*
X0382000Y0068324D02*
X0273168Y0068324D01*
X0272231Y0066726D02*
X0382000Y0066726D01*
X0382000Y0065127D02*
X0174200Y0065127D01*
X0174200Y0063529D02*
X0382000Y0063529D01*
X0382000Y0061930D02*
X0174200Y0061930D01*
X0174200Y0060332D02*
X0382000Y0060332D01*
X0382000Y0058733D02*
X0174200Y0058733D01*
X0174200Y0057134D02*
X0382000Y0057134D01*
X0382000Y0055536D02*
X0174200Y0055536D01*
X0174200Y0053937D02*
X0382000Y0053937D01*
X0382000Y0052339D02*
X0174200Y0052339D01*
X0174200Y0050740D02*
X0382000Y0050740D01*
X0382000Y0049142D02*
X0174200Y0049142D01*
X0174200Y0047543D02*
X0382000Y0047543D01*
X0382000Y0045945D02*
X0174200Y0045945D01*
X0159400Y0066726D02*
X0109358Y0066726D01*
X0109316Y0066695D02*
X0109927Y0067139D01*
X0110461Y0067673D01*
X0110905Y0068284D01*
X0111248Y0068957D01*
X0111482Y0069676D01*
X0111600Y0070422D01*
X0111600Y0073600D01*
X0107000Y0073600D01*
X0107000Y0074000D01*
X0106600Y0074000D01*
X0106600Y0081600D01*
X0106422Y0081600D01*
X0105676Y0081482D01*
X0104957Y0081248D01*
X0104284Y0080905D01*
X0103673Y0080461D01*
X0103139Y0079927D01*
X0102695Y0079316D01*
X0102352Y0078643D01*
X0102118Y0077924D01*
X0102000Y0077178D01*
X0102000Y0074000D01*
X0106600Y0074000D01*
X0106600Y0073600D01*
X0102000Y0073600D01*
X0102000Y0070422D01*
X0102118Y0069676D01*
X0102352Y0068957D01*
X0102695Y0068284D01*
X0103139Y0067673D01*
X0103673Y0067139D01*
X0104284Y0066695D01*
X0104957Y0066352D01*
X0105676Y0066118D01*
X0106422Y0066000D01*
X0106600Y0066000D01*
X0106600Y0073600D01*
X0107000Y0073600D01*
X0107000Y0066000D01*
X0107178Y0066000D01*
X0107924Y0066118D01*
X0108643Y0066352D01*
X0109316Y0066695D01*
X0110926Y0068324D02*
X0159400Y0068324D01*
X0159400Y0069923D02*
X0111521Y0069923D01*
X0111600Y0071521D02*
X0159400Y0071521D01*
X0159400Y0073120D02*
X0111600Y0073120D01*
X0111600Y0074000D02*
X0111600Y0077178D01*
X0111482Y0077924D01*
X0111248Y0078643D01*
X0110905Y0079316D01*
X0110461Y0079927D01*
X0109927Y0080461D01*
X0109316Y0080905D01*
X0108643Y0081248D01*
X0107924Y0081482D01*
X0107178Y0081600D01*
X0107000Y0081600D01*
X0107000Y0074000D01*
X0111600Y0074000D01*
X0111600Y0074718D02*
X0159400Y0074718D01*
X0159400Y0076317D02*
X0111600Y0076317D01*
X0111483Y0077915D02*
X0159400Y0077915D01*
X0159400Y0079514D02*
X0110762Y0079514D01*
X0108910Y0081112D02*
X0159400Y0081112D01*
X0159400Y0108287D02*
X0110292Y0108287D01*
X0111193Y0109885D02*
X0159400Y0109885D01*
X0159400Y0111484D02*
X0111400Y0111484D01*
X0111400Y0113082D02*
X0159733Y0113082D01*
X0161287Y0114681D02*
X0111400Y0114681D01*
X0111400Y0116279D02*
X0162885Y0116279D01*
X0164484Y0117878D02*
X0111400Y0117878D01*
X0110877Y0119476D02*
X0166082Y0119476D01*
X0167681Y0121075D02*
X0109530Y0121075D01*
X0107666Y0124272D02*
X0170878Y0124272D01*
X0172476Y0125870D02*
X0109265Y0125870D01*
X0110863Y0127469D02*
X0174075Y0127469D01*
X0175673Y0129068D02*
X0112462Y0129068D01*
X0106068Y0122673D02*
X0169279Y0122673D01*
X0178075Y0114681D02*
X0234000Y0114681D01*
X0234000Y0116279D02*
X0179674Y0116279D01*
X0181272Y0117878D02*
X0234032Y0117878D01*
X0234522Y0119476D02*
X0182871Y0119476D01*
X0184469Y0121075D02*
X0235830Y0121075D01*
X0238600Y0121075D02*
X0239000Y0121075D01*
X0239000Y0119476D02*
X0238600Y0119476D01*
X0238600Y0117878D02*
X0239000Y0117878D01*
X0239000Y0116279D02*
X0238600Y0116279D01*
X0238600Y0114681D02*
X0239000Y0114681D01*
X0239000Y0113082D02*
X0238600Y0113082D01*
X0238600Y0111484D02*
X0239000Y0111484D01*
X0239000Y0109885D02*
X0238600Y0109885D01*
X0238600Y0108287D02*
X0239000Y0108287D01*
X0242544Y0108287D02*
X0245308Y0108287D01*
X0244407Y0109885D02*
X0243387Y0109885D01*
X0243600Y0111484D02*
X0244200Y0111484D01*
X0244200Y0113082D02*
X0243600Y0113082D01*
X0243600Y0114681D02*
X0244200Y0114681D01*
X0244200Y0116279D02*
X0243600Y0116279D01*
X0243568Y0117878D02*
X0244200Y0117878D01*
X0244723Y0119476D02*
X0243078Y0119476D01*
X0241770Y0121075D02*
X0246070Y0121075D01*
X0246400Y0122673D02*
X0186068Y0122673D01*
X0187666Y0124272D02*
X0246400Y0124272D01*
X0246400Y0125870D02*
X0189265Y0125870D01*
X0190863Y0127469D02*
X0246400Y0127469D01*
X0246138Y0129068D02*
X0192462Y0129068D01*
X0193928Y0130666D02*
X0244540Y0130666D01*
X0242941Y0132265D02*
X0194200Y0132265D01*
X0194200Y0133863D02*
X0241343Y0133863D01*
X0239744Y0135462D02*
X0194200Y0135462D01*
X0194200Y0137060D02*
X0238146Y0137060D01*
X0236547Y0138659D02*
X0194200Y0138659D01*
X0194200Y0161038D02*
X0203623Y0161038D01*
X0203600Y0162636D02*
X0194200Y0162636D01*
X0194200Y0164235D02*
X0203600Y0164235D01*
X0204894Y0165833D02*
X0194200Y0165833D01*
X0164782Y0175424D02*
X0161570Y0175424D01*
X0159971Y0177023D02*
X0163183Y0177023D01*
X0161585Y0178621D02*
X0158373Y0178621D01*
X0156774Y0180220D02*
X0159986Y0180220D01*
X0158388Y0181818D02*
X0155176Y0181818D01*
X0153577Y0183417D02*
X0156789Y0183417D01*
X0155190Y0185015D02*
X0151979Y0185015D01*
X0150380Y0186614D02*
X0153592Y0186614D01*
X0151993Y0188212D02*
X0148782Y0188212D01*
X0147183Y0189811D02*
X0150395Y0189811D01*
X0149400Y0191409D02*
X0145585Y0191409D01*
X0144200Y0193008D02*
X0149400Y0193008D01*
X0149400Y0194606D02*
X0144200Y0194606D01*
X0144200Y0196205D02*
X0149400Y0196205D01*
X0149400Y0197803D02*
X0144200Y0197803D01*
X0144200Y0199402D02*
X0149400Y0199402D01*
X0149400Y0201001D02*
X0144200Y0201001D01*
X0144200Y0202599D02*
X0149400Y0202599D01*
X0149400Y0204198D02*
X0144200Y0204198D01*
X0144200Y0205796D02*
X0149400Y0205796D01*
X0149400Y0207395D02*
X0144200Y0207395D01*
X0144200Y0208993D02*
X0149400Y0208993D01*
X0149400Y0210592D02*
X0144200Y0210592D01*
X0144200Y0212190D02*
X0149400Y0212190D01*
X0149400Y0213789D02*
X0144200Y0213789D01*
X0144200Y0215387D02*
X0149400Y0215387D01*
X0149400Y0216986D02*
X0144200Y0216986D01*
X0144200Y0218584D02*
X0149400Y0218584D01*
X0149400Y0220183D02*
X0144200Y0220183D01*
X0144200Y0221781D02*
X0149400Y0221781D01*
X0149400Y0223380D02*
X0144200Y0223380D01*
X0144200Y0224978D02*
X0149400Y0224978D01*
X0149400Y0226577D02*
X0144200Y0226577D01*
X0144200Y0228175D02*
X0149400Y0228175D01*
X0149400Y0229774D02*
X0144200Y0229774D01*
X0144200Y0231372D02*
X0149400Y0231372D01*
X0149400Y0232971D02*
X0144200Y0232971D01*
X0144200Y0234569D02*
X0149400Y0234569D01*
X0149400Y0236168D02*
X0144200Y0236168D01*
X0144200Y0237766D02*
X0149400Y0237766D01*
X0149400Y0239365D02*
X0144200Y0239365D01*
X0144200Y0240963D02*
X0149400Y0240963D01*
X0149400Y0242562D02*
X0144200Y0242562D01*
X0144200Y0244160D02*
X0149400Y0244160D01*
X0149400Y0245759D02*
X0144200Y0245759D01*
X0144200Y0247357D02*
X0149433Y0247357D01*
X0150562Y0248956D02*
X0144200Y0248956D01*
X0144200Y0250554D02*
X0152160Y0250554D01*
X0153759Y0252153D02*
X0144200Y0252153D01*
X0144200Y0253751D02*
X0155357Y0253751D01*
X0157800Y0252800D02*
X0151800Y0246800D01*
X0151800Y0191800D01*
X0145190Y0185015D02*
X0139200Y0185015D01*
X0139200Y0183417D02*
X0146789Y0183417D01*
X0148388Y0181818D02*
X0140176Y0181818D01*
X0141774Y0180220D02*
X0149986Y0180220D01*
X0151585Y0178621D02*
X0143373Y0178621D01*
X0144971Y0177023D02*
X0153183Y0177023D01*
X0154782Y0175424D02*
X0146570Y0175424D01*
X0148168Y0173826D02*
X0156380Y0173826D01*
X0157979Y0172227D02*
X0149767Y0172227D01*
X0151365Y0170629D02*
X0159577Y0170629D01*
X0143592Y0186614D02*
X0139200Y0186614D01*
X0139200Y0188212D02*
X0141993Y0188212D01*
X0140395Y0189811D02*
X0139200Y0189811D01*
X0139200Y0191409D02*
X0139400Y0191409D01*
X0139400Y0193008D02*
X0139200Y0193008D01*
X0139200Y0194606D02*
X0139400Y0194606D01*
X0139400Y0196205D02*
X0139200Y0196205D01*
X0139200Y0197803D02*
X0139400Y0197803D01*
X0139400Y0199402D02*
X0139200Y0199402D01*
X0139200Y0201001D02*
X0139400Y0201001D01*
X0139400Y0202599D02*
X0139200Y0202599D01*
X0139200Y0204198D02*
X0139400Y0204198D01*
X0139400Y0205796D02*
X0139200Y0205796D01*
X0139200Y0207395D02*
X0139400Y0207395D01*
X0139400Y0208993D02*
X0139200Y0208993D01*
X0139200Y0210592D02*
X0139400Y0210592D01*
X0139400Y0212190D02*
X0139200Y0212190D01*
X0139200Y0213789D02*
X0139400Y0213789D01*
X0139400Y0215387D02*
X0139200Y0215387D01*
X0139200Y0216986D02*
X0139400Y0216986D01*
X0139400Y0218584D02*
X0139200Y0218584D01*
X0139200Y0220183D02*
X0139400Y0220183D01*
X0139400Y0221781D02*
X0139200Y0221781D01*
X0139200Y0223380D02*
X0139400Y0223380D01*
X0139400Y0224978D02*
X0139200Y0224978D01*
X0139200Y0226577D02*
X0139400Y0226577D01*
X0139400Y0228175D02*
X0139200Y0228175D01*
X0139200Y0229774D02*
X0139400Y0229774D01*
X0139400Y0231372D02*
X0139200Y0231372D01*
X0139200Y0232971D02*
X0139400Y0232971D01*
X0139400Y0234569D02*
X0139200Y0234569D01*
X0139200Y0236168D02*
X0139400Y0236168D01*
X0139400Y0237766D02*
X0139200Y0237766D01*
X0139200Y0239365D02*
X0139400Y0239365D01*
X0139400Y0240963D02*
X0139200Y0240963D01*
X0139200Y0242562D02*
X0139400Y0242562D01*
X0139400Y0244160D02*
X0139200Y0244160D01*
X0139200Y0245759D02*
X0139400Y0245759D01*
X0139400Y0247357D02*
X0139200Y0247357D01*
X0139200Y0248956D02*
X0139400Y0248956D01*
X0139400Y0250554D02*
X0139200Y0250554D01*
X0139200Y0252153D02*
X0139400Y0252153D01*
X0139400Y0253751D02*
X0139200Y0253751D01*
X0139200Y0255350D02*
X0139400Y0255350D01*
X0139400Y0256948D02*
X0139200Y0256948D01*
X0139200Y0258547D02*
X0139400Y0258547D01*
X0139400Y0260145D02*
X0139200Y0260145D01*
X0139200Y0261744D02*
X0139400Y0261744D01*
X0139400Y0263342D02*
X0139200Y0263342D01*
X0139200Y0264941D02*
X0139400Y0264941D01*
X0139400Y0266539D02*
X0139200Y0266539D01*
X0139200Y0268138D02*
X0139756Y0268138D01*
X0139200Y0269737D02*
X0141342Y0269737D01*
X0142941Y0271335D02*
X0139200Y0271335D01*
X0139200Y0272934D02*
X0144539Y0272934D01*
X0146138Y0274532D02*
X0139200Y0274532D01*
X0146532Y0268138D02*
X0214400Y0268138D01*
X0214400Y0269737D02*
X0204959Y0269737D01*
X0206200Y0271335D02*
X0214400Y0271335D01*
X0214400Y0272934D02*
X0206200Y0272934D01*
X0206200Y0274532D02*
X0214400Y0274532D01*
X0214400Y0266539D02*
X0204283Y0266539D01*
X0205882Y0264941D02*
X0214400Y0264941D01*
X0214400Y0263342D02*
X0206200Y0263342D01*
X0206200Y0261744D02*
X0214400Y0261744D01*
X0214400Y0260145D02*
X0205368Y0260145D01*
X0203769Y0258547D02*
X0214400Y0258547D01*
X0214400Y0256948D02*
X0203874Y0256948D01*
X0205473Y0255350D02*
X0214400Y0255350D01*
X0214400Y0253751D02*
X0206200Y0253751D01*
X0206200Y0252153D02*
X0214400Y0252153D01*
X0214400Y0250554D02*
X0205777Y0250554D01*
X0204178Y0248956D02*
X0214400Y0248956D01*
X0214400Y0234569D02*
X0206200Y0234569D01*
X0206200Y0232971D02*
X0214400Y0232971D01*
X0214400Y0231372D02*
X0206200Y0231372D01*
X0204996Y0229774D02*
X0214400Y0229774D01*
X0191800Y0242800D02*
X0162800Y0242800D01*
X0157800Y0252800D02*
X0191800Y0252800D01*
X0188127Y0255350D02*
X0144200Y0255350D01*
X0144200Y0256948D02*
X0189726Y0256948D01*
X0189831Y0258547D02*
X0144200Y0258547D01*
X0144200Y0260145D02*
X0188232Y0260145D01*
X0187400Y0261744D02*
X0144200Y0261744D01*
X0144200Y0263342D02*
X0187400Y0263342D01*
X0187718Y0264941D02*
X0144200Y0264941D01*
X0144934Y0266539D02*
X0189317Y0266539D01*
X0188641Y0269737D02*
X0148131Y0269737D01*
X0201900Y0288200D02*
X0203705Y0288200D01*
X0206400Y0290895D01*
X0206400Y0292700D01*
X0201900Y0292700D01*
X0201900Y0292900D01*
X0201700Y0292900D01*
X0201700Y0292700D01*
X0201900Y0292700D01*
X0201900Y0288200D01*
X0201900Y0288919D02*
X0201700Y0288919D01*
X0201700Y0290517D02*
X0201900Y0290517D01*
X0201900Y0292116D02*
X0201700Y0292116D01*
X0201900Y0292900D02*
X0206400Y0292900D01*
X0206400Y0294705D01*
X0203705Y0297400D01*
X0201900Y0297400D01*
X0201900Y0292900D01*
X0201900Y0293714D02*
X0201700Y0293714D01*
X0201700Y0295313D02*
X0201900Y0295313D01*
X0201900Y0296911D02*
X0201700Y0296911D01*
X0204194Y0296911D02*
X0213295Y0296911D01*
X0214400Y0295313D02*
X0205793Y0295313D01*
X0206400Y0293714D02*
X0214400Y0293714D01*
X0214400Y0292116D02*
X0206400Y0292116D01*
X0206023Y0290517D02*
X0214400Y0290517D01*
X0214400Y0288919D02*
X0204424Y0288919D01*
X0246800Y0316800D02*
X0266800Y0296800D01*
X0346800Y0296800D01*
X0359674Y0287320D02*
X0360815Y0287320D01*
X0354000Y0279328D02*
X0353600Y0279328D01*
X0353600Y0277729D02*
X0354000Y0277729D01*
X0354000Y0276131D02*
X0353600Y0276131D01*
X0353600Y0274532D02*
X0354000Y0274532D01*
X0350280Y0274532D02*
X0347037Y0274532D01*
X0348087Y0276131D02*
X0349295Y0276131D01*
X0349000Y0277729D02*
X0348400Y0277729D01*
X0348400Y0279328D02*
X0349000Y0279328D01*
X0382000Y0300108D02*
X0266886Y0300108D01*
X0265287Y0301707D02*
X0382000Y0301707D01*
X0382000Y0303305D02*
X0263689Y0303305D01*
X0262090Y0304904D02*
X0382000Y0304904D01*
X0382000Y0306502D02*
X0260492Y0306502D01*
X0258893Y0308101D02*
X0382000Y0308101D01*
X0382000Y0309699D02*
X0257295Y0309699D01*
X0255696Y0311298D02*
X0382000Y0311298D01*
X0382000Y0312896D02*
X0254098Y0312896D01*
X0252499Y0314495D02*
X0382000Y0314495D01*
X0382000Y0316093D02*
X0250901Y0316093D01*
X0249302Y0317692D02*
X0382000Y0317692D01*
X0382000Y0319290D02*
X0249200Y0319290D01*
X0249200Y0320889D02*
X0382000Y0320889D01*
X0382000Y0322487D02*
X0249200Y0322487D01*
X0249200Y0324086D02*
X0382000Y0324086D01*
X0382000Y0325684D02*
X0249200Y0325684D01*
X0249200Y0327283D02*
X0382000Y0327283D01*
X0382000Y0328881D02*
X0249200Y0328881D01*
X0246800Y0337800D02*
X0246800Y0316800D01*
X0269618Y0332078D02*
X0273982Y0332078D01*
X0274421Y0331639D02*
X0275965Y0331000D01*
X0277635Y0331000D01*
X0279179Y0331639D01*
X0280361Y0332821D01*
X0281000Y0334365D01*
X0281000Y0341235D01*
X0280361Y0342779D01*
X0279179Y0343961D01*
X0277635Y0344600D01*
X0275965Y0344600D01*
X0274421Y0343961D01*
X0273239Y0342779D01*
X0272600Y0341235D01*
X0272600Y0334365D01*
X0273239Y0332821D01*
X0274421Y0331639D01*
X0272885Y0333677D02*
X0270715Y0333677D01*
X0271000Y0335275D02*
X0272600Y0335275D01*
X0272600Y0336874D02*
X0271000Y0336874D01*
X0271000Y0338472D02*
X0272600Y0338472D01*
X0272600Y0340071D02*
X0271000Y0340071D01*
X0270820Y0341670D02*
X0272780Y0341670D01*
X0273728Y0343268D02*
X0269872Y0343268D01*
X0279872Y0343268D02*
X0283728Y0343268D01*
X0283239Y0342779D02*
X0284421Y0343961D01*
X0285965Y0344600D01*
X0287635Y0344600D01*
X0289179Y0343961D01*
X0290361Y0342779D01*
X0291000Y0341235D01*
X0291000Y0334365D01*
X0290361Y0332821D01*
X0289179Y0331639D01*
X0287635Y0331000D01*
X0285965Y0331000D01*
X0284421Y0331639D01*
X0283239Y0332821D01*
X0282600Y0334365D01*
X0282600Y0341235D01*
X0283239Y0342779D01*
X0282780Y0341670D02*
X0280820Y0341670D01*
X0281000Y0340071D02*
X0282600Y0340071D01*
X0282600Y0338472D02*
X0281000Y0338472D01*
X0281000Y0336874D02*
X0282600Y0336874D01*
X0282600Y0335275D02*
X0281000Y0335275D01*
X0280715Y0333677D02*
X0282885Y0333677D01*
X0283982Y0332078D02*
X0279618Y0332078D01*
X0289618Y0332078D02*
X0293982Y0332078D01*
X0294421Y0331639D02*
X0295965Y0331000D01*
X0297635Y0331000D01*
X0299179Y0331639D01*
X0300361Y0332821D01*
X0301000Y0334365D01*
X0301000Y0341235D01*
X0300361Y0342779D01*
X0299179Y0343961D01*
X0297635Y0344600D01*
X0295965Y0344600D01*
X0294421Y0343961D01*
X0293239Y0342779D01*
X0292600Y0341235D01*
X0292600Y0334365D01*
X0293239Y0332821D01*
X0294421Y0331639D01*
X0292885Y0333677D02*
X0290715Y0333677D01*
X0291000Y0335275D02*
X0292600Y0335275D01*
X0292600Y0336874D02*
X0291000Y0336874D01*
X0291000Y0338472D02*
X0292600Y0338472D01*
X0292600Y0340071D02*
X0291000Y0340071D01*
X0290820Y0341670D02*
X0292780Y0341670D01*
X0293728Y0343268D02*
X0289872Y0343268D01*
X0299872Y0343268D02*
X0303728Y0343268D01*
X0303239Y0342779D02*
X0302600Y0341235D01*
X0302600Y0334365D01*
X0303239Y0332821D01*
X0304421Y0331639D01*
X0305965Y0331000D01*
X0307635Y0331000D01*
X0309179Y0331639D01*
X0310361Y0332821D01*
X0311000Y0334365D01*
X0311000Y0341235D01*
X0310361Y0342779D01*
X0309179Y0343961D01*
X0307635Y0344600D01*
X0305965Y0344600D01*
X0304421Y0343961D01*
X0303239Y0342779D01*
X0302780Y0341670D02*
X0300820Y0341670D01*
X0301000Y0340071D02*
X0302600Y0340071D01*
X0302600Y0338472D02*
X0301000Y0338472D01*
X0301000Y0336874D02*
X0302600Y0336874D01*
X0302600Y0335275D02*
X0301000Y0335275D01*
X0300715Y0333677D02*
X0302885Y0333677D01*
X0303982Y0332078D02*
X0299618Y0332078D01*
X0309618Y0332078D02*
X0313982Y0332078D01*
X0314421Y0331639D02*
X0315965Y0331000D01*
X0317635Y0331000D01*
X0319179Y0331639D01*
X0320361Y0332821D01*
X0321000Y0334365D01*
X0321000Y0341235D01*
X0320361Y0342779D01*
X0319179Y0343961D01*
X0317635Y0344600D01*
X0315965Y0344600D01*
X0314421Y0343961D01*
X0313239Y0342779D01*
X0312600Y0341235D01*
X0312600Y0334365D01*
X0313239Y0332821D01*
X0314421Y0331639D01*
X0312885Y0333677D02*
X0310715Y0333677D01*
X0311000Y0335275D02*
X0312600Y0335275D01*
X0312600Y0336874D02*
X0311000Y0336874D01*
X0311000Y0338472D02*
X0312600Y0338472D01*
X0312600Y0340071D02*
X0311000Y0340071D01*
X0310820Y0341670D02*
X0312780Y0341670D01*
X0313728Y0343268D02*
X0309872Y0343268D01*
X0319872Y0343268D02*
X0323728Y0343268D01*
X0323239Y0342779D02*
X0322600Y0341235D01*
X0322600Y0334365D01*
X0323239Y0332821D01*
X0324421Y0331639D01*
X0325965Y0331000D01*
X0327635Y0331000D01*
X0329179Y0331639D01*
X0330361Y0332821D01*
X0331000Y0334365D01*
X0331000Y0341235D01*
X0330361Y0342779D01*
X0329179Y0343961D01*
X0327635Y0344600D01*
X0325965Y0344600D01*
X0324421Y0343961D01*
X0323239Y0342779D01*
X0322780Y0341670D02*
X0320820Y0341670D01*
X0321000Y0340071D02*
X0322600Y0340071D01*
X0322600Y0338472D02*
X0321000Y0338472D01*
X0321000Y0336874D02*
X0322600Y0336874D01*
X0322600Y0335275D02*
X0321000Y0335275D01*
X0320715Y0333677D02*
X0322885Y0333677D01*
X0323982Y0332078D02*
X0319618Y0332078D01*
X0329618Y0332078D02*
X0333982Y0332078D01*
X0334421Y0331639D02*
X0333239Y0332821D01*
X0332600Y0334365D01*
X0332600Y0341235D01*
X0333239Y0342779D01*
X0334421Y0343961D01*
X0335965Y0344600D01*
X0337635Y0344600D01*
X0339179Y0343961D01*
X0340361Y0342779D01*
X0341000Y0341235D01*
X0341000Y0334365D01*
X0340361Y0332821D01*
X0339179Y0331639D01*
X0337635Y0331000D01*
X0335965Y0331000D01*
X0334421Y0331639D01*
X0332885Y0333677D02*
X0330715Y0333677D01*
X0331000Y0335275D02*
X0332600Y0335275D01*
X0332600Y0336874D02*
X0331000Y0336874D01*
X0331000Y0338472D02*
X0332600Y0338472D01*
X0332600Y0340071D02*
X0331000Y0340071D01*
X0330820Y0341670D02*
X0332780Y0341670D01*
X0333728Y0343268D02*
X0329872Y0343268D01*
X0339872Y0343268D02*
X0343728Y0343268D01*
X0342780Y0341670D02*
X0340820Y0341670D01*
X0341000Y0340071D02*
X0342600Y0340071D01*
X0342600Y0338472D02*
X0341000Y0338472D01*
X0341000Y0336874D02*
X0342600Y0336874D01*
X0342600Y0335275D02*
X0341000Y0335275D01*
X0340715Y0333677D02*
X0342885Y0333677D01*
X0343982Y0332078D02*
X0339618Y0332078D01*
X0254200Y0113082D02*
X0253400Y0113082D01*
X0253400Y0111484D02*
X0254200Y0111484D01*
X0254407Y0109885D02*
X0253193Y0109885D01*
X0252292Y0108287D02*
X0255308Y0108287D01*
X0235056Y0108287D02*
X0174200Y0108287D01*
X0174200Y0109885D02*
X0234213Y0109885D01*
X0234000Y0111484D02*
X0174878Y0111484D01*
X0176476Y0113082D02*
X0234000Y0113082D01*
X0200445Y0020369D02*
X0341129Y0020369D01*
X0341139Y0020336D02*
X0341139Y0020336D01*
X0342206Y0018770D02*
X0201117Y0018770D01*
X0201200Y0017172D02*
X0343296Y0017172D01*
X0343960Y0016198D02*
X0343960Y0016198D01*
X0344743Y0015573D02*
X0201200Y0015573D01*
X0201200Y0013975D02*
X0346748Y0013975D01*
X0347875Y0013076D02*
X0347875Y0013076D01*
X0349658Y0012376D02*
X0201200Y0012376D01*
X0196800Y0012376D02*
X0196800Y0012376D01*
X0196800Y0010778D02*
X0196800Y0010778D01*
X0196800Y0009179D02*
X0196800Y0009179D01*
X0196800Y0008300D02*
X0196800Y0015300D01*
X0192400Y0015300D01*
X0192400Y0012354D01*
X0192508Y0011670D01*
X0192722Y0011011D01*
X0193037Y0010394D01*
X0193444Y0009834D01*
X0193934Y0009344D01*
X0194494Y0008937D01*
X0195111Y0008622D01*
X0195770Y0008408D01*
X0196454Y0008300D01*
X0196800Y0008300D01*
X0194160Y0009179D02*
X0189219Y0009179D01*
X0190550Y0010778D02*
X0192841Y0010778D01*
X0192400Y0012376D02*
X0191000Y0012376D01*
X0191000Y0013975D02*
X0192400Y0013975D01*
X0192400Y0015573D02*
X0191000Y0015573D01*
X0191000Y0017172D02*
X0192400Y0017172D01*
X0192483Y0018770D02*
X0190986Y0018770D01*
X0190271Y0020369D02*
X0193155Y0020369D01*
X0196800Y0020369D02*
X0196800Y0020369D01*
X0196800Y0018770D02*
X0196800Y0018770D01*
X0196800Y0017172D02*
X0196800Y0017172D01*
X0196800Y0015573D02*
X0196800Y0015573D01*
X0196800Y0013975D02*
X0196800Y0013975D01*
X0184381Y0009179D02*
X0179219Y0009179D01*
X0180550Y0010778D02*
X0183050Y0010778D01*
X0182600Y0012376D02*
X0181000Y0012376D01*
X0181000Y0013975D02*
X0182600Y0013975D01*
X0182600Y0015573D02*
X0181000Y0015573D01*
X0181000Y0017172D02*
X0182600Y0017172D01*
X0182614Y0018770D02*
X0180986Y0018770D01*
X0180271Y0020369D02*
X0183329Y0020369D01*
X0107000Y0066726D02*
X0106600Y0066726D01*
X0106600Y0068324D02*
X0107000Y0068324D01*
X0107000Y0069923D02*
X0106600Y0069923D01*
X0106600Y0071521D02*
X0107000Y0071521D01*
X0107000Y0073120D02*
X0106600Y0073120D01*
X0106600Y0074718D02*
X0107000Y0074718D01*
X0107000Y0076317D02*
X0106600Y0076317D01*
X0106600Y0077915D02*
X0107000Y0077915D01*
X0107000Y0079514D02*
X0106600Y0079514D01*
X0106600Y0081112D02*
X0107000Y0081112D01*
X0104690Y0081112D02*
X0098410Y0081112D01*
X0100592Y0079514D02*
X0102838Y0079514D01*
X0102117Y0077915D02*
X0101317Y0077915D01*
X0101400Y0076317D02*
X0102000Y0076317D01*
X0102000Y0074718D02*
X0101400Y0074718D01*
X0101400Y0073120D02*
X0102000Y0073120D01*
X0102000Y0071521D02*
X0101400Y0071521D01*
X0101400Y0069923D02*
X0102079Y0069923D01*
X0102674Y0068324D02*
X0100753Y0068324D01*
X0098984Y0066726D02*
X0104242Y0066726D01*
X0094616Y0066726D02*
X0088984Y0066726D01*
X0090753Y0068324D02*
X0092847Y0068324D01*
X0092200Y0069923D02*
X0091400Y0069923D01*
X0091400Y0071521D02*
X0092200Y0071521D01*
X0084616Y0066726D02*
X0078984Y0066726D01*
X0080753Y0068324D02*
X0082847Y0068324D01*
X0082200Y0069923D02*
X0081400Y0069923D01*
X0081400Y0071521D02*
X0082200Y0071521D01*
X0082200Y0073120D02*
X0081400Y0073120D01*
X0081400Y0074718D02*
X0082200Y0074718D01*
X0082200Y0076317D02*
X0081400Y0076317D01*
X0081317Y0077915D02*
X0082283Y0077915D01*
X0083008Y0079514D02*
X0080592Y0079514D01*
X0078410Y0081112D02*
X0084400Y0081112D01*
X0019400Y0041349D02*
X0019400Y0041349D01*
X0019149Y0041149D02*
X0006600Y0041149D01*
X0006600Y0039551D02*
X0017145Y0039551D01*
X0015298Y0037952D02*
X0006600Y0037952D01*
X0006600Y0036354D02*
X0014208Y0036354D01*
X0013118Y0034755D02*
X0006600Y0034755D01*
X0006600Y0033157D02*
X0012376Y0033157D01*
X0012664Y0034089D02*
X0012664Y0034089D01*
X0011883Y0031558D02*
X0006600Y0031558D01*
X0006600Y0029960D02*
X0011390Y0029960D01*
X0011188Y0028361D02*
X0006600Y0028361D01*
X0006600Y0026763D02*
X0011188Y0026763D01*
X0011188Y0025164D02*
X0006600Y0025164D01*
X0006600Y0023566D02*
X0011413Y0023566D01*
X0011906Y0021967D02*
X0006600Y0021967D01*
X0006600Y0020369D02*
X0012399Y0020369D01*
X0013169Y0018770D02*
X0006600Y0018770D01*
X0006600Y0017172D02*
X0014258Y0017172D01*
X0015348Y0015573D02*
X0006600Y0015573D01*
X0006600Y0013975D02*
X0017238Y0013975D01*
X0015485Y0015373D02*
X0015485Y0015373D01*
X0015485Y0015373D01*
X0019243Y0012376D02*
X0006600Y0012376D01*
X0006600Y0010778D02*
X0023153Y0010778D01*
X0024062Y0010421D02*
X0024062Y0010421D01*
X0019400Y0012251D02*
X0019400Y0012251D01*
X0038275Y0013665D02*
X0038275Y0013665D01*
X0106260Y0161038D02*
X0114400Y0161038D01*
X0114400Y0162636D02*
X0106700Y0162636D01*
X0106700Y0164235D02*
X0114400Y0164235D01*
X0114400Y0165833D02*
X0105989Y0165833D01*
X0029975Y0199402D02*
X0024625Y0199402D01*
X0026223Y0201001D02*
X0028377Y0201001D01*
X0027900Y0202599D02*
X0026700Y0202599D01*
X0026700Y0204198D02*
X0027900Y0204198D01*
X0028574Y0205796D02*
X0026026Y0205796D01*
X0024428Y0207395D02*
X0030172Y0207395D01*
X0030384Y0208993D02*
X0024216Y0208993D01*
X0025814Y0210592D02*
X0028786Y0210592D01*
X0027900Y0212190D02*
X0026700Y0212190D01*
X0026700Y0213789D02*
X0027900Y0213789D01*
X0028165Y0215387D02*
X0026435Y0215387D01*
X0024837Y0216986D02*
X0029763Y0216986D01*
X0029195Y0220183D02*
X0025405Y0220183D01*
X0026700Y0221781D02*
X0027900Y0221781D01*
X0027900Y0223380D02*
X0026700Y0223380D01*
X0026700Y0224978D02*
X0027900Y0224978D01*
X0029354Y0226577D02*
X0025246Y0226577D01*
X0017900Y0224978D02*
X0006600Y0224978D01*
X0006600Y0223380D02*
X0017900Y0223380D01*
X0017900Y0221781D02*
X0006600Y0221781D01*
X0006600Y0220183D02*
X0019195Y0220183D01*
X0020013Y0239365D02*
X0006600Y0239365D01*
X0006600Y0240963D02*
X0018414Y0240963D01*
X0017900Y0242562D02*
X0006600Y0242562D01*
X0006600Y0244160D02*
X0017900Y0244160D01*
X0018536Y0245759D02*
X0006600Y0245759D01*
X0006600Y0247357D02*
X0020135Y0247357D01*
X0020422Y0248956D02*
X0006600Y0248956D01*
X0006600Y0250554D02*
X0018823Y0250554D01*
X0017900Y0252153D02*
X0006600Y0252153D01*
X0006600Y0253751D02*
X0017900Y0253751D01*
X0018127Y0255350D02*
X0006600Y0255350D01*
X0006600Y0256948D02*
X0019726Y0256948D01*
X0352537Y0011246D02*
X0352537Y0011246D01*
M02*
