G75*
%MOIN*%
%OFA0B0*%
%FSLAX25Y25*%
%IPPOS*%
%LPD*%
%AMOC8*
5,1,8,0,0,1.08239X$1,22.5*
%
%ADD10C,0.00000*%
%ADD11OC8,0.05200*%
%ADD12OC8,0.06300*%
%ADD13C,0.05200*%
%ADD14C,0.06600*%
%ADD15C,0.06000*%
%ADD16C,0.05200*%
%ADD17OC8,0.10000*%
%ADD18C,0.01600*%
D10*
X0001800Y0001800D02*
X0391800Y0001800D01*
X0391800Y0381800D01*
X0001800Y0381800D01*
X0001800Y0001800D01*
X0023294Y0027100D02*
X0023296Y0027253D01*
X0023302Y0027407D01*
X0023312Y0027560D01*
X0023326Y0027712D01*
X0023344Y0027865D01*
X0023366Y0028016D01*
X0023391Y0028167D01*
X0023421Y0028318D01*
X0023455Y0028468D01*
X0023492Y0028616D01*
X0023533Y0028764D01*
X0023578Y0028910D01*
X0023627Y0029056D01*
X0023680Y0029200D01*
X0023736Y0029342D01*
X0023796Y0029483D01*
X0023860Y0029623D01*
X0023927Y0029761D01*
X0023998Y0029897D01*
X0024073Y0030031D01*
X0024150Y0030163D01*
X0024232Y0030293D01*
X0024316Y0030421D01*
X0024404Y0030547D01*
X0024495Y0030670D01*
X0024589Y0030791D01*
X0024687Y0030909D01*
X0024787Y0031025D01*
X0024891Y0031138D01*
X0024997Y0031249D01*
X0025106Y0031357D01*
X0025218Y0031462D01*
X0025332Y0031563D01*
X0025450Y0031662D01*
X0025569Y0031758D01*
X0025691Y0031851D01*
X0025816Y0031940D01*
X0025943Y0032027D01*
X0026072Y0032109D01*
X0026203Y0032189D01*
X0026336Y0032265D01*
X0026471Y0032338D01*
X0026608Y0032407D01*
X0026747Y0032472D01*
X0026887Y0032534D01*
X0027029Y0032592D01*
X0027172Y0032647D01*
X0027317Y0032698D01*
X0027463Y0032745D01*
X0027610Y0032788D01*
X0027758Y0032827D01*
X0027907Y0032863D01*
X0028057Y0032894D01*
X0028208Y0032922D01*
X0028359Y0032946D01*
X0028512Y0032966D01*
X0028664Y0032982D01*
X0028817Y0032994D01*
X0028970Y0033002D01*
X0029123Y0033006D01*
X0029277Y0033006D01*
X0029430Y0033002D01*
X0029583Y0032994D01*
X0029736Y0032982D01*
X0029888Y0032966D01*
X0030041Y0032946D01*
X0030192Y0032922D01*
X0030343Y0032894D01*
X0030493Y0032863D01*
X0030642Y0032827D01*
X0030790Y0032788D01*
X0030937Y0032745D01*
X0031083Y0032698D01*
X0031228Y0032647D01*
X0031371Y0032592D01*
X0031513Y0032534D01*
X0031653Y0032472D01*
X0031792Y0032407D01*
X0031929Y0032338D01*
X0032064Y0032265D01*
X0032197Y0032189D01*
X0032328Y0032109D01*
X0032457Y0032027D01*
X0032584Y0031940D01*
X0032709Y0031851D01*
X0032831Y0031758D01*
X0032950Y0031662D01*
X0033068Y0031563D01*
X0033182Y0031462D01*
X0033294Y0031357D01*
X0033403Y0031249D01*
X0033509Y0031138D01*
X0033613Y0031025D01*
X0033713Y0030909D01*
X0033811Y0030791D01*
X0033905Y0030670D01*
X0033996Y0030547D01*
X0034084Y0030421D01*
X0034168Y0030293D01*
X0034250Y0030163D01*
X0034327Y0030031D01*
X0034402Y0029897D01*
X0034473Y0029761D01*
X0034540Y0029623D01*
X0034604Y0029483D01*
X0034664Y0029342D01*
X0034720Y0029200D01*
X0034773Y0029056D01*
X0034822Y0028910D01*
X0034867Y0028764D01*
X0034908Y0028616D01*
X0034945Y0028468D01*
X0034979Y0028318D01*
X0035009Y0028167D01*
X0035034Y0028016D01*
X0035056Y0027865D01*
X0035074Y0027712D01*
X0035088Y0027560D01*
X0035098Y0027407D01*
X0035104Y0027253D01*
X0035106Y0027100D01*
X0035104Y0026947D01*
X0035098Y0026793D01*
X0035088Y0026640D01*
X0035074Y0026488D01*
X0035056Y0026335D01*
X0035034Y0026184D01*
X0035009Y0026033D01*
X0034979Y0025882D01*
X0034945Y0025732D01*
X0034908Y0025584D01*
X0034867Y0025436D01*
X0034822Y0025290D01*
X0034773Y0025144D01*
X0034720Y0025000D01*
X0034664Y0024858D01*
X0034604Y0024717D01*
X0034540Y0024577D01*
X0034473Y0024439D01*
X0034402Y0024303D01*
X0034327Y0024169D01*
X0034250Y0024037D01*
X0034168Y0023907D01*
X0034084Y0023779D01*
X0033996Y0023653D01*
X0033905Y0023530D01*
X0033811Y0023409D01*
X0033713Y0023291D01*
X0033613Y0023175D01*
X0033509Y0023062D01*
X0033403Y0022951D01*
X0033294Y0022843D01*
X0033182Y0022738D01*
X0033068Y0022637D01*
X0032950Y0022538D01*
X0032831Y0022442D01*
X0032709Y0022349D01*
X0032584Y0022260D01*
X0032457Y0022173D01*
X0032328Y0022091D01*
X0032197Y0022011D01*
X0032064Y0021935D01*
X0031929Y0021862D01*
X0031792Y0021793D01*
X0031653Y0021728D01*
X0031513Y0021666D01*
X0031371Y0021608D01*
X0031228Y0021553D01*
X0031083Y0021502D01*
X0030937Y0021455D01*
X0030790Y0021412D01*
X0030642Y0021373D01*
X0030493Y0021337D01*
X0030343Y0021306D01*
X0030192Y0021278D01*
X0030041Y0021254D01*
X0029888Y0021234D01*
X0029736Y0021218D01*
X0029583Y0021206D01*
X0029430Y0021198D01*
X0029277Y0021194D01*
X0029123Y0021194D01*
X0028970Y0021198D01*
X0028817Y0021206D01*
X0028664Y0021218D01*
X0028512Y0021234D01*
X0028359Y0021254D01*
X0028208Y0021278D01*
X0028057Y0021306D01*
X0027907Y0021337D01*
X0027758Y0021373D01*
X0027610Y0021412D01*
X0027463Y0021455D01*
X0027317Y0021502D01*
X0027172Y0021553D01*
X0027029Y0021608D01*
X0026887Y0021666D01*
X0026747Y0021728D01*
X0026608Y0021793D01*
X0026471Y0021862D01*
X0026336Y0021935D01*
X0026203Y0022011D01*
X0026072Y0022091D01*
X0025943Y0022173D01*
X0025816Y0022260D01*
X0025691Y0022349D01*
X0025569Y0022442D01*
X0025450Y0022538D01*
X0025332Y0022637D01*
X0025218Y0022738D01*
X0025106Y0022843D01*
X0024997Y0022951D01*
X0024891Y0023062D01*
X0024787Y0023175D01*
X0024687Y0023291D01*
X0024589Y0023409D01*
X0024495Y0023530D01*
X0024404Y0023653D01*
X0024316Y0023779D01*
X0024232Y0023907D01*
X0024150Y0024037D01*
X0024073Y0024169D01*
X0023998Y0024303D01*
X0023927Y0024439D01*
X0023860Y0024577D01*
X0023796Y0024717D01*
X0023736Y0024858D01*
X0023680Y0025000D01*
X0023627Y0025144D01*
X0023578Y0025290D01*
X0023533Y0025436D01*
X0023492Y0025584D01*
X0023455Y0025732D01*
X0023421Y0025882D01*
X0023391Y0026033D01*
X0023366Y0026184D01*
X0023344Y0026335D01*
X0023326Y0026488D01*
X0023312Y0026640D01*
X0023302Y0026793D01*
X0023296Y0026947D01*
X0023294Y0027100D01*
X0314200Y0029800D02*
X0314202Y0029974D01*
X0314209Y0030148D01*
X0314219Y0030322D01*
X0314234Y0030496D01*
X0314253Y0030669D01*
X0314277Y0030842D01*
X0314305Y0031014D01*
X0314336Y0031185D01*
X0314373Y0031356D01*
X0314413Y0031525D01*
X0314457Y0031694D01*
X0314506Y0031861D01*
X0314558Y0032027D01*
X0314615Y0032192D01*
X0314676Y0032355D01*
X0314740Y0032517D01*
X0314809Y0032677D01*
X0314882Y0032836D01*
X0314958Y0032992D01*
X0315038Y0033147D01*
X0315122Y0033300D01*
X0315210Y0033450D01*
X0315302Y0033598D01*
X0315397Y0033745D01*
X0315495Y0033888D01*
X0315597Y0034029D01*
X0315703Y0034168D01*
X0315812Y0034304D01*
X0315924Y0034438D01*
X0316039Y0034568D01*
X0316158Y0034696D01*
X0316280Y0034820D01*
X0316404Y0034942D01*
X0316532Y0035061D01*
X0316662Y0035176D01*
X0316796Y0035288D01*
X0316932Y0035397D01*
X0317071Y0035503D01*
X0317212Y0035605D01*
X0317355Y0035703D01*
X0317502Y0035798D01*
X0317650Y0035890D01*
X0317800Y0035978D01*
X0317953Y0036062D01*
X0318108Y0036142D01*
X0318264Y0036218D01*
X0318423Y0036291D01*
X0318583Y0036360D01*
X0318745Y0036424D01*
X0318908Y0036485D01*
X0319073Y0036542D01*
X0319239Y0036594D01*
X0319406Y0036643D01*
X0319575Y0036687D01*
X0319744Y0036727D01*
X0319915Y0036764D01*
X0320086Y0036795D01*
X0320258Y0036823D01*
X0320431Y0036847D01*
X0320604Y0036866D01*
X0320778Y0036881D01*
X0320952Y0036891D01*
X0321126Y0036898D01*
X0321300Y0036900D01*
X0321474Y0036898D01*
X0321648Y0036891D01*
X0321822Y0036881D01*
X0321996Y0036866D01*
X0322169Y0036847D01*
X0322342Y0036823D01*
X0322514Y0036795D01*
X0322685Y0036764D01*
X0322856Y0036727D01*
X0323025Y0036687D01*
X0323194Y0036643D01*
X0323361Y0036594D01*
X0323527Y0036542D01*
X0323692Y0036485D01*
X0323855Y0036424D01*
X0324017Y0036360D01*
X0324177Y0036291D01*
X0324336Y0036218D01*
X0324492Y0036142D01*
X0324647Y0036062D01*
X0324800Y0035978D01*
X0324950Y0035890D01*
X0325098Y0035798D01*
X0325245Y0035703D01*
X0325388Y0035605D01*
X0325529Y0035503D01*
X0325668Y0035397D01*
X0325804Y0035288D01*
X0325938Y0035176D01*
X0326068Y0035061D01*
X0326196Y0034942D01*
X0326320Y0034820D01*
X0326442Y0034696D01*
X0326561Y0034568D01*
X0326676Y0034438D01*
X0326788Y0034304D01*
X0326897Y0034168D01*
X0327003Y0034029D01*
X0327105Y0033888D01*
X0327203Y0033745D01*
X0327298Y0033598D01*
X0327390Y0033450D01*
X0327478Y0033300D01*
X0327562Y0033147D01*
X0327642Y0032992D01*
X0327718Y0032836D01*
X0327791Y0032677D01*
X0327860Y0032517D01*
X0327924Y0032355D01*
X0327985Y0032192D01*
X0328042Y0032027D01*
X0328094Y0031861D01*
X0328143Y0031694D01*
X0328187Y0031525D01*
X0328227Y0031356D01*
X0328264Y0031185D01*
X0328295Y0031014D01*
X0328323Y0030842D01*
X0328347Y0030669D01*
X0328366Y0030496D01*
X0328381Y0030322D01*
X0328391Y0030148D01*
X0328398Y0029974D01*
X0328400Y0029800D01*
X0328398Y0029626D01*
X0328391Y0029452D01*
X0328381Y0029278D01*
X0328366Y0029104D01*
X0328347Y0028931D01*
X0328323Y0028758D01*
X0328295Y0028586D01*
X0328264Y0028415D01*
X0328227Y0028244D01*
X0328187Y0028075D01*
X0328143Y0027906D01*
X0328094Y0027739D01*
X0328042Y0027573D01*
X0327985Y0027408D01*
X0327924Y0027245D01*
X0327860Y0027083D01*
X0327791Y0026923D01*
X0327718Y0026764D01*
X0327642Y0026608D01*
X0327562Y0026453D01*
X0327478Y0026300D01*
X0327390Y0026150D01*
X0327298Y0026002D01*
X0327203Y0025855D01*
X0327105Y0025712D01*
X0327003Y0025571D01*
X0326897Y0025432D01*
X0326788Y0025296D01*
X0326676Y0025162D01*
X0326561Y0025032D01*
X0326442Y0024904D01*
X0326320Y0024780D01*
X0326196Y0024658D01*
X0326068Y0024539D01*
X0325938Y0024424D01*
X0325804Y0024312D01*
X0325668Y0024203D01*
X0325529Y0024097D01*
X0325388Y0023995D01*
X0325245Y0023897D01*
X0325098Y0023802D01*
X0324950Y0023710D01*
X0324800Y0023622D01*
X0324647Y0023538D01*
X0324492Y0023458D01*
X0324336Y0023382D01*
X0324177Y0023309D01*
X0324017Y0023240D01*
X0323855Y0023176D01*
X0323692Y0023115D01*
X0323527Y0023058D01*
X0323361Y0023006D01*
X0323194Y0022957D01*
X0323025Y0022913D01*
X0322856Y0022873D01*
X0322685Y0022836D01*
X0322514Y0022805D01*
X0322342Y0022777D01*
X0322169Y0022753D01*
X0321996Y0022734D01*
X0321822Y0022719D01*
X0321648Y0022709D01*
X0321474Y0022702D01*
X0321300Y0022700D01*
X0321126Y0022702D01*
X0320952Y0022709D01*
X0320778Y0022719D01*
X0320604Y0022734D01*
X0320431Y0022753D01*
X0320258Y0022777D01*
X0320086Y0022805D01*
X0319915Y0022836D01*
X0319744Y0022873D01*
X0319575Y0022913D01*
X0319406Y0022957D01*
X0319239Y0023006D01*
X0319073Y0023058D01*
X0318908Y0023115D01*
X0318745Y0023176D01*
X0318583Y0023240D01*
X0318423Y0023309D01*
X0318264Y0023382D01*
X0318108Y0023458D01*
X0317953Y0023538D01*
X0317800Y0023622D01*
X0317650Y0023710D01*
X0317502Y0023802D01*
X0317355Y0023897D01*
X0317212Y0023995D01*
X0317071Y0024097D01*
X0316932Y0024203D01*
X0316796Y0024312D01*
X0316662Y0024424D01*
X0316532Y0024539D01*
X0316404Y0024658D01*
X0316280Y0024780D01*
X0316158Y0024904D01*
X0316039Y0025032D01*
X0315924Y0025162D01*
X0315812Y0025296D01*
X0315703Y0025432D01*
X0315597Y0025571D01*
X0315495Y0025712D01*
X0315397Y0025855D01*
X0315302Y0026002D01*
X0315210Y0026150D01*
X0315122Y0026300D01*
X0315038Y0026453D01*
X0314958Y0026608D01*
X0314882Y0026764D01*
X0314809Y0026923D01*
X0314740Y0027083D01*
X0314676Y0027245D01*
X0314615Y0027408D01*
X0314558Y0027573D01*
X0314506Y0027739D01*
X0314457Y0027906D01*
X0314413Y0028075D01*
X0314373Y0028244D01*
X0314336Y0028415D01*
X0314305Y0028586D01*
X0314277Y0028758D01*
X0314253Y0028931D01*
X0314234Y0029104D01*
X0314219Y0029278D01*
X0314209Y0029452D01*
X0314202Y0029626D01*
X0314200Y0029800D01*
X0359894Y0028900D02*
X0359896Y0029053D01*
X0359902Y0029207D01*
X0359912Y0029360D01*
X0359926Y0029512D01*
X0359944Y0029665D01*
X0359966Y0029816D01*
X0359991Y0029967D01*
X0360021Y0030118D01*
X0360055Y0030268D01*
X0360092Y0030416D01*
X0360133Y0030564D01*
X0360178Y0030710D01*
X0360227Y0030856D01*
X0360280Y0031000D01*
X0360336Y0031142D01*
X0360396Y0031283D01*
X0360460Y0031423D01*
X0360527Y0031561D01*
X0360598Y0031697D01*
X0360673Y0031831D01*
X0360750Y0031963D01*
X0360832Y0032093D01*
X0360916Y0032221D01*
X0361004Y0032347D01*
X0361095Y0032470D01*
X0361189Y0032591D01*
X0361287Y0032709D01*
X0361387Y0032825D01*
X0361491Y0032938D01*
X0361597Y0033049D01*
X0361706Y0033157D01*
X0361818Y0033262D01*
X0361932Y0033363D01*
X0362050Y0033462D01*
X0362169Y0033558D01*
X0362291Y0033651D01*
X0362416Y0033740D01*
X0362543Y0033827D01*
X0362672Y0033909D01*
X0362803Y0033989D01*
X0362936Y0034065D01*
X0363071Y0034138D01*
X0363208Y0034207D01*
X0363347Y0034272D01*
X0363487Y0034334D01*
X0363629Y0034392D01*
X0363772Y0034447D01*
X0363917Y0034498D01*
X0364063Y0034545D01*
X0364210Y0034588D01*
X0364358Y0034627D01*
X0364507Y0034663D01*
X0364657Y0034694D01*
X0364808Y0034722D01*
X0364959Y0034746D01*
X0365112Y0034766D01*
X0365264Y0034782D01*
X0365417Y0034794D01*
X0365570Y0034802D01*
X0365723Y0034806D01*
X0365877Y0034806D01*
X0366030Y0034802D01*
X0366183Y0034794D01*
X0366336Y0034782D01*
X0366488Y0034766D01*
X0366641Y0034746D01*
X0366792Y0034722D01*
X0366943Y0034694D01*
X0367093Y0034663D01*
X0367242Y0034627D01*
X0367390Y0034588D01*
X0367537Y0034545D01*
X0367683Y0034498D01*
X0367828Y0034447D01*
X0367971Y0034392D01*
X0368113Y0034334D01*
X0368253Y0034272D01*
X0368392Y0034207D01*
X0368529Y0034138D01*
X0368664Y0034065D01*
X0368797Y0033989D01*
X0368928Y0033909D01*
X0369057Y0033827D01*
X0369184Y0033740D01*
X0369309Y0033651D01*
X0369431Y0033558D01*
X0369550Y0033462D01*
X0369668Y0033363D01*
X0369782Y0033262D01*
X0369894Y0033157D01*
X0370003Y0033049D01*
X0370109Y0032938D01*
X0370213Y0032825D01*
X0370313Y0032709D01*
X0370411Y0032591D01*
X0370505Y0032470D01*
X0370596Y0032347D01*
X0370684Y0032221D01*
X0370768Y0032093D01*
X0370850Y0031963D01*
X0370927Y0031831D01*
X0371002Y0031697D01*
X0371073Y0031561D01*
X0371140Y0031423D01*
X0371204Y0031283D01*
X0371264Y0031142D01*
X0371320Y0031000D01*
X0371373Y0030856D01*
X0371422Y0030710D01*
X0371467Y0030564D01*
X0371508Y0030416D01*
X0371545Y0030268D01*
X0371579Y0030118D01*
X0371609Y0029967D01*
X0371634Y0029816D01*
X0371656Y0029665D01*
X0371674Y0029512D01*
X0371688Y0029360D01*
X0371698Y0029207D01*
X0371704Y0029053D01*
X0371706Y0028900D01*
X0371704Y0028747D01*
X0371698Y0028593D01*
X0371688Y0028440D01*
X0371674Y0028288D01*
X0371656Y0028135D01*
X0371634Y0027984D01*
X0371609Y0027833D01*
X0371579Y0027682D01*
X0371545Y0027532D01*
X0371508Y0027384D01*
X0371467Y0027236D01*
X0371422Y0027090D01*
X0371373Y0026944D01*
X0371320Y0026800D01*
X0371264Y0026658D01*
X0371204Y0026517D01*
X0371140Y0026377D01*
X0371073Y0026239D01*
X0371002Y0026103D01*
X0370927Y0025969D01*
X0370850Y0025837D01*
X0370768Y0025707D01*
X0370684Y0025579D01*
X0370596Y0025453D01*
X0370505Y0025330D01*
X0370411Y0025209D01*
X0370313Y0025091D01*
X0370213Y0024975D01*
X0370109Y0024862D01*
X0370003Y0024751D01*
X0369894Y0024643D01*
X0369782Y0024538D01*
X0369668Y0024437D01*
X0369550Y0024338D01*
X0369431Y0024242D01*
X0369309Y0024149D01*
X0369184Y0024060D01*
X0369057Y0023973D01*
X0368928Y0023891D01*
X0368797Y0023811D01*
X0368664Y0023735D01*
X0368529Y0023662D01*
X0368392Y0023593D01*
X0368253Y0023528D01*
X0368113Y0023466D01*
X0367971Y0023408D01*
X0367828Y0023353D01*
X0367683Y0023302D01*
X0367537Y0023255D01*
X0367390Y0023212D01*
X0367242Y0023173D01*
X0367093Y0023137D01*
X0366943Y0023106D01*
X0366792Y0023078D01*
X0366641Y0023054D01*
X0366488Y0023034D01*
X0366336Y0023018D01*
X0366183Y0023006D01*
X0366030Y0022998D01*
X0365877Y0022994D01*
X0365723Y0022994D01*
X0365570Y0022998D01*
X0365417Y0023006D01*
X0365264Y0023018D01*
X0365112Y0023034D01*
X0364959Y0023054D01*
X0364808Y0023078D01*
X0364657Y0023106D01*
X0364507Y0023137D01*
X0364358Y0023173D01*
X0364210Y0023212D01*
X0364063Y0023255D01*
X0363917Y0023302D01*
X0363772Y0023353D01*
X0363629Y0023408D01*
X0363487Y0023466D01*
X0363347Y0023528D01*
X0363208Y0023593D01*
X0363071Y0023662D01*
X0362936Y0023735D01*
X0362803Y0023811D01*
X0362672Y0023891D01*
X0362543Y0023973D01*
X0362416Y0024060D01*
X0362291Y0024149D01*
X0362169Y0024242D01*
X0362050Y0024338D01*
X0361932Y0024437D01*
X0361818Y0024538D01*
X0361706Y0024643D01*
X0361597Y0024751D01*
X0361491Y0024862D01*
X0361387Y0024975D01*
X0361287Y0025091D01*
X0361189Y0025209D01*
X0361095Y0025330D01*
X0361004Y0025453D01*
X0360916Y0025579D01*
X0360832Y0025707D01*
X0360750Y0025837D01*
X0360673Y0025969D01*
X0360598Y0026103D01*
X0360527Y0026239D01*
X0360460Y0026377D01*
X0360396Y0026517D01*
X0360336Y0026658D01*
X0360280Y0026800D01*
X0360227Y0026944D01*
X0360178Y0027090D01*
X0360133Y0027236D01*
X0360092Y0027384D01*
X0360055Y0027532D01*
X0360021Y0027682D01*
X0359991Y0027833D01*
X0359966Y0027984D01*
X0359944Y0028135D01*
X0359926Y0028288D01*
X0359912Y0028440D01*
X0359902Y0028593D01*
X0359896Y0028747D01*
X0359894Y0028900D01*
X0314200Y0183800D02*
X0314202Y0183974D01*
X0314209Y0184148D01*
X0314219Y0184322D01*
X0314234Y0184496D01*
X0314253Y0184669D01*
X0314277Y0184842D01*
X0314305Y0185014D01*
X0314336Y0185185D01*
X0314373Y0185356D01*
X0314413Y0185525D01*
X0314457Y0185694D01*
X0314506Y0185861D01*
X0314558Y0186027D01*
X0314615Y0186192D01*
X0314676Y0186355D01*
X0314740Y0186517D01*
X0314809Y0186677D01*
X0314882Y0186836D01*
X0314958Y0186992D01*
X0315038Y0187147D01*
X0315122Y0187300D01*
X0315210Y0187450D01*
X0315302Y0187598D01*
X0315397Y0187745D01*
X0315495Y0187888D01*
X0315597Y0188029D01*
X0315703Y0188168D01*
X0315812Y0188304D01*
X0315924Y0188438D01*
X0316039Y0188568D01*
X0316158Y0188696D01*
X0316280Y0188820D01*
X0316404Y0188942D01*
X0316532Y0189061D01*
X0316662Y0189176D01*
X0316796Y0189288D01*
X0316932Y0189397D01*
X0317071Y0189503D01*
X0317212Y0189605D01*
X0317355Y0189703D01*
X0317502Y0189798D01*
X0317650Y0189890D01*
X0317800Y0189978D01*
X0317953Y0190062D01*
X0318108Y0190142D01*
X0318264Y0190218D01*
X0318423Y0190291D01*
X0318583Y0190360D01*
X0318745Y0190424D01*
X0318908Y0190485D01*
X0319073Y0190542D01*
X0319239Y0190594D01*
X0319406Y0190643D01*
X0319575Y0190687D01*
X0319744Y0190727D01*
X0319915Y0190764D01*
X0320086Y0190795D01*
X0320258Y0190823D01*
X0320431Y0190847D01*
X0320604Y0190866D01*
X0320778Y0190881D01*
X0320952Y0190891D01*
X0321126Y0190898D01*
X0321300Y0190900D01*
X0321474Y0190898D01*
X0321648Y0190891D01*
X0321822Y0190881D01*
X0321996Y0190866D01*
X0322169Y0190847D01*
X0322342Y0190823D01*
X0322514Y0190795D01*
X0322685Y0190764D01*
X0322856Y0190727D01*
X0323025Y0190687D01*
X0323194Y0190643D01*
X0323361Y0190594D01*
X0323527Y0190542D01*
X0323692Y0190485D01*
X0323855Y0190424D01*
X0324017Y0190360D01*
X0324177Y0190291D01*
X0324336Y0190218D01*
X0324492Y0190142D01*
X0324647Y0190062D01*
X0324800Y0189978D01*
X0324950Y0189890D01*
X0325098Y0189798D01*
X0325245Y0189703D01*
X0325388Y0189605D01*
X0325529Y0189503D01*
X0325668Y0189397D01*
X0325804Y0189288D01*
X0325938Y0189176D01*
X0326068Y0189061D01*
X0326196Y0188942D01*
X0326320Y0188820D01*
X0326442Y0188696D01*
X0326561Y0188568D01*
X0326676Y0188438D01*
X0326788Y0188304D01*
X0326897Y0188168D01*
X0327003Y0188029D01*
X0327105Y0187888D01*
X0327203Y0187745D01*
X0327298Y0187598D01*
X0327390Y0187450D01*
X0327478Y0187300D01*
X0327562Y0187147D01*
X0327642Y0186992D01*
X0327718Y0186836D01*
X0327791Y0186677D01*
X0327860Y0186517D01*
X0327924Y0186355D01*
X0327985Y0186192D01*
X0328042Y0186027D01*
X0328094Y0185861D01*
X0328143Y0185694D01*
X0328187Y0185525D01*
X0328227Y0185356D01*
X0328264Y0185185D01*
X0328295Y0185014D01*
X0328323Y0184842D01*
X0328347Y0184669D01*
X0328366Y0184496D01*
X0328381Y0184322D01*
X0328391Y0184148D01*
X0328398Y0183974D01*
X0328400Y0183800D01*
X0328398Y0183626D01*
X0328391Y0183452D01*
X0328381Y0183278D01*
X0328366Y0183104D01*
X0328347Y0182931D01*
X0328323Y0182758D01*
X0328295Y0182586D01*
X0328264Y0182415D01*
X0328227Y0182244D01*
X0328187Y0182075D01*
X0328143Y0181906D01*
X0328094Y0181739D01*
X0328042Y0181573D01*
X0327985Y0181408D01*
X0327924Y0181245D01*
X0327860Y0181083D01*
X0327791Y0180923D01*
X0327718Y0180764D01*
X0327642Y0180608D01*
X0327562Y0180453D01*
X0327478Y0180300D01*
X0327390Y0180150D01*
X0327298Y0180002D01*
X0327203Y0179855D01*
X0327105Y0179712D01*
X0327003Y0179571D01*
X0326897Y0179432D01*
X0326788Y0179296D01*
X0326676Y0179162D01*
X0326561Y0179032D01*
X0326442Y0178904D01*
X0326320Y0178780D01*
X0326196Y0178658D01*
X0326068Y0178539D01*
X0325938Y0178424D01*
X0325804Y0178312D01*
X0325668Y0178203D01*
X0325529Y0178097D01*
X0325388Y0177995D01*
X0325245Y0177897D01*
X0325098Y0177802D01*
X0324950Y0177710D01*
X0324800Y0177622D01*
X0324647Y0177538D01*
X0324492Y0177458D01*
X0324336Y0177382D01*
X0324177Y0177309D01*
X0324017Y0177240D01*
X0323855Y0177176D01*
X0323692Y0177115D01*
X0323527Y0177058D01*
X0323361Y0177006D01*
X0323194Y0176957D01*
X0323025Y0176913D01*
X0322856Y0176873D01*
X0322685Y0176836D01*
X0322514Y0176805D01*
X0322342Y0176777D01*
X0322169Y0176753D01*
X0321996Y0176734D01*
X0321822Y0176719D01*
X0321648Y0176709D01*
X0321474Y0176702D01*
X0321300Y0176700D01*
X0321126Y0176702D01*
X0320952Y0176709D01*
X0320778Y0176719D01*
X0320604Y0176734D01*
X0320431Y0176753D01*
X0320258Y0176777D01*
X0320086Y0176805D01*
X0319915Y0176836D01*
X0319744Y0176873D01*
X0319575Y0176913D01*
X0319406Y0176957D01*
X0319239Y0177006D01*
X0319073Y0177058D01*
X0318908Y0177115D01*
X0318745Y0177176D01*
X0318583Y0177240D01*
X0318423Y0177309D01*
X0318264Y0177382D01*
X0318108Y0177458D01*
X0317953Y0177538D01*
X0317800Y0177622D01*
X0317650Y0177710D01*
X0317502Y0177802D01*
X0317355Y0177897D01*
X0317212Y0177995D01*
X0317071Y0178097D01*
X0316932Y0178203D01*
X0316796Y0178312D01*
X0316662Y0178424D01*
X0316532Y0178539D01*
X0316404Y0178658D01*
X0316280Y0178780D01*
X0316158Y0178904D01*
X0316039Y0179032D01*
X0315924Y0179162D01*
X0315812Y0179296D01*
X0315703Y0179432D01*
X0315597Y0179571D01*
X0315495Y0179712D01*
X0315397Y0179855D01*
X0315302Y0180002D01*
X0315210Y0180150D01*
X0315122Y0180300D01*
X0315038Y0180453D01*
X0314958Y0180608D01*
X0314882Y0180764D01*
X0314809Y0180923D01*
X0314740Y0181083D01*
X0314676Y0181245D01*
X0314615Y0181408D01*
X0314558Y0181573D01*
X0314506Y0181739D01*
X0314457Y0181906D01*
X0314413Y0182075D01*
X0314373Y0182244D01*
X0314336Y0182415D01*
X0314305Y0182586D01*
X0314277Y0182758D01*
X0314253Y0182931D01*
X0314234Y0183104D01*
X0314219Y0183278D01*
X0314209Y0183452D01*
X0314202Y0183626D01*
X0314200Y0183800D01*
X0022094Y0357650D02*
X0022096Y0357803D01*
X0022102Y0357957D01*
X0022112Y0358110D01*
X0022126Y0358262D01*
X0022144Y0358415D01*
X0022166Y0358566D01*
X0022191Y0358717D01*
X0022221Y0358868D01*
X0022255Y0359018D01*
X0022292Y0359166D01*
X0022333Y0359314D01*
X0022378Y0359460D01*
X0022427Y0359606D01*
X0022480Y0359750D01*
X0022536Y0359892D01*
X0022596Y0360033D01*
X0022660Y0360173D01*
X0022727Y0360311D01*
X0022798Y0360447D01*
X0022873Y0360581D01*
X0022950Y0360713D01*
X0023032Y0360843D01*
X0023116Y0360971D01*
X0023204Y0361097D01*
X0023295Y0361220D01*
X0023389Y0361341D01*
X0023487Y0361459D01*
X0023587Y0361575D01*
X0023691Y0361688D01*
X0023797Y0361799D01*
X0023906Y0361907D01*
X0024018Y0362012D01*
X0024132Y0362113D01*
X0024250Y0362212D01*
X0024369Y0362308D01*
X0024491Y0362401D01*
X0024616Y0362490D01*
X0024743Y0362577D01*
X0024872Y0362659D01*
X0025003Y0362739D01*
X0025136Y0362815D01*
X0025271Y0362888D01*
X0025408Y0362957D01*
X0025547Y0363022D01*
X0025687Y0363084D01*
X0025829Y0363142D01*
X0025972Y0363197D01*
X0026117Y0363248D01*
X0026263Y0363295D01*
X0026410Y0363338D01*
X0026558Y0363377D01*
X0026707Y0363413D01*
X0026857Y0363444D01*
X0027008Y0363472D01*
X0027159Y0363496D01*
X0027312Y0363516D01*
X0027464Y0363532D01*
X0027617Y0363544D01*
X0027770Y0363552D01*
X0027923Y0363556D01*
X0028077Y0363556D01*
X0028230Y0363552D01*
X0028383Y0363544D01*
X0028536Y0363532D01*
X0028688Y0363516D01*
X0028841Y0363496D01*
X0028992Y0363472D01*
X0029143Y0363444D01*
X0029293Y0363413D01*
X0029442Y0363377D01*
X0029590Y0363338D01*
X0029737Y0363295D01*
X0029883Y0363248D01*
X0030028Y0363197D01*
X0030171Y0363142D01*
X0030313Y0363084D01*
X0030453Y0363022D01*
X0030592Y0362957D01*
X0030729Y0362888D01*
X0030864Y0362815D01*
X0030997Y0362739D01*
X0031128Y0362659D01*
X0031257Y0362577D01*
X0031384Y0362490D01*
X0031509Y0362401D01*
X0031631Y0362308D01*
X0031750Y0362212D01*
X0031868Y0362113D01*
X0031982Y0362012D01*
X0032094Y0361907D01*
X0032203Y0361799D01*
X0032309Y0361688D01*
X0032413Y0361575D01*
X0032513Y0361459D01*
X0032611Y0361341D01*
X0032705Y0361220D01*
X0032796Y0361097D01*
X0032884Y0360971D01*
X0032968Y0360843D01*
X0033050Y0360713D01*
X0033127Y0360581D01*
X0033202Y0360447D01*
X0033273Y0360311D01*
X0033340Y0360173D01*
X0033404Y0360033D01*
X0033464Y0359892D01*
X0033520Y0359750D01*
X0033573Y0359606D01*
X0033622Y0359460D01*
X0033667Y0359314D01*
X0033708Y0359166D01*
X0033745Y0359018D01*
X0033779Y0358868D01*
X0033809Y0358717D01*
X0033834Y0358566D01*
X0033856Y0358415D01*
X0033874Y0358262D01*
X0033888Y0358110D01*
X0033898Y0357957D01*
X0033904Y0357803D01*
X0033906Y0357650D01*
X0033904Y0357497D01*
X0033898Y0357343D01*
X0033888Y0357190D01*
X0033874Y0357038D01*
X0033856Y0356885D01*
X0033834Y0356734D01*
X0033809Y0356583D01*
X0033779Y0356432D01*
X0033745Y0356282D01*
X0033708Y0356134D01*
X0033667Y0355986D01*
X0033622Y0355840D01*
X0033573Y0355694D01*
X0033520Y0355550D01*
X0033464Y0355408D01*
X0033404Y0355267D01*
X0033340Y0355127D01*
X0033273Y0354989D01*
X0033202Y0354853D01*
X0033127Y0354719D01*
X0033050Y0354587D01*
X0032968Y0354457D01*
X0032884Y0354329D01*
X0032796Y0354203D01*
X0032705Y0354080D01*
X0032611Y0353959D01*
X0032513Y0353841D01*
X0032413Y0353725D01*
X0032309Y0353612D01*
X0032203Y0353501D01*
X0032094Y0353393D01*
X0031982Y0353288D01*
X0031868Y0353187D01*
X0031750Y0353088D01*
X0031631Y0352992D01*
X0031509Y0352899D01*
X0031384Y0352810D01*
X0031257Y0352723D01*
X0031128Y0352641D01*
X0030997Y0352561D01*
X0030864Y0352485D01*
X0030729Y0352412D01*
X0030592Y0352343D01*
X0030453Y0352278D01*
X0030313Y0352216D01*
X0030171Y0352158D01*
X0030028Y0352103D01*
X0029883Y0352052D01*
X0029737Y0352005D01*
X0029590Y0351962D01*
X0029442Y0351923D01*
X0029293Y0351887D01*
X0029143Y0351856D01*
X0028992Y0351828D01*
X0028841Y0351804D01*
X0028688Y0351784D01*
X0028536Y0351768D01*
X0028383Y0351756D01*
X0028230Y0351748D01*
X0028077Y0351744D01*
X0027923Y0351744D01*
X0027770Y0351748D01*
X0027617Y0351756D01*
X0027464Y0351768D01*
X0027312Y0351784D01*
X0027159Y0351804D01*
X0027008Y0351828D01*
X0026857Y0351856D01*
X0026707Y0351887D01*
X0026558Y0351923D01*
X0026410Y0351962D01*
X0026263Y0352005D01*
X0026117Y0352052D01*
X0025972Y0352103D01*
X0025829Y0352158D01*
X0025687Y0352216D01*
X0025547Y0352278D01*
X0025408Y0352343D01*
X0025271Y0352412D01*
X0025136Y0352485D01*
X0025003Y0352561D01*
X0024872Y0352641D01*
X0024743Y0352723D01*
X0024616Y0352810D01*
X0024491Y0352899D01*
X0024369Y0352992D01*
X0024250Y0353088D01*
X0024132Y0353187D01*
X0024018Y0353288D01*
X0023906Y0353393D01*
X0023797Y0353501D01*
X0023691Y0353612D01*
X0023587Y0353725D01*
X0023487Y0353841D01*
X0023389Y0353959D01*
X0023295Y0354080D01*
X0023204Y0354203D01*
X0023116Y0354329D01*
X0023032Y0354457D01*
X0022950Y0354587D01*
X0022873Y0354719D01*
X0022798Y0354853D01*
X0022727Y0354989D01*
X0022660Y0355127D01*
X0022596Y0355267D01*
X0022536Y0355408D01*
X0022480Y0355550D01*
X0022427Y0355694D01*
X0022378Y0355840D01*
X0022333Y0355986D01*
X0022292Y0356134D01*
X0022255Y0356282D01*
X0022221Y0356432D01*
X0022191Y0356583D01*
X0022166Y0356734D01*
X0022144Y0356885D01*
X0022126Y0357038D01*
X0022112Y0357190D01*
X0022102Y0357343D01*
X0022096Y0357497D01*
X0022094Y0357650D01*
D11*
X0056800Y0341800D03*
X0056800Y0311800D03*
X0086800Y0291800D03*
X0106800Y0311800D03*
X0131800Y0291800D03*
X0156800Y0311800D03*
X0156800Y0341800D03*
X0196800Y0341800D03*
X0196800Y0311800D03*
X0186800Y0291800D03*
X0186800Y0261800D03*
X0221800Y0261800D03*
X0221800Y0291800D03*
X0216800Y0221800D03*
X0241800Y0216800D03*
X0241800Y0206800D03*
X0251800Y0206800D03*
X0216800Y0191800D03*
X0221800Y0166800D03*
X0221800Y0146800D03*
X0191800Y0146800D03*
X0181800Y0156800D03*
X0191800Y0166800D03*
X0181800Y0176800D03*
X0151800Y0176800D03*
X0151800Y0156800D03*
X0152300Y0136300D03*
X0182300Y0136300D03*
X0086800Y0131800D03*
X0071800Y0131800D03*
X0071800Y0101800D03*
X0086800Y0101800D03*
X0076800Y0161800D03*
X0061800Y0161800D03*
X0061800Y0191800D03*
X0076800Y0191800D03*
X0086800Y0261800D03*
X0131800Y0261800D03*
X0106800Y0341800D03*
X0341800Y0231800D03*
X0356800Y0231800D03*
X0356800Y0201800D03*
X0341800Y0201800D03*
X0371800Y0186800D03*
X0381800Y0186800D03*
D12*
X0250550Y0035550D03*
X0240550Y0035550D03*
X0181800Y0036800D03*
X0171800Y0036800D03*
X0111800Y0081800D03*
X0101800Y0081800D03*
X0101800Y0096800D03*
X0111800Y0096800D03*
X0111800Y0111800D03*
X0101800Y0111800D03*
X0030300Y0184300D03*
X0020300Y0184300D03*
X0020300Y0199300D03*
X0030300Y0199300D03*
X0030300Y0214300D03*
X0020300Y0214300D03*
D13*
X0069200Y0291800D02*
X0074400Y0291800D01*
X0074400Y0301800D02*
X0069200Y0301800D01*
X0069200Y0311800D02*
X0074400Y0311800D01*
X0069400Y0341800D02*
X0064200Y0341800D01*
X0064200Y0351800D02*
X0069400Y0351800D01*
X0114200Y0351800D02*
X0119400Y0351800D01*
X0119400Y0341800D02*
X0114200Y0341800D01*
X0114200Y0311800D02*
X0119400Y0311800D01*
X0119400Y0301800D02*
X0114200Y0301800D01*
X0114200Y0291800D02*
X0119400Y0291800D01*
X0169200Y0291800D02*
X0174400Y0291800D01*
X0174400Y0301800D02*
X0169200Y0301800D01*
X0169200Y0311800D02*
X0174400Y0311800D01*
X0204200Y0311800D02*
X0209400Y0311800D01*
X0209400Y0301800D02*
X0204200Y0301800D01*
X0204200Y0291800D02*
X0209400Y0291800D01*
X0241600Y0329200D02*
X0241600Y0334400D01*
X0251600Y0334400D02*
X0251600Y0329200D01*
X0261600Y0329200D02*
X0261600Y0334400D01*
X0271600Y0334400D02*
X0271600Y0329200D01*
X0281600Y0329200D02*
X0281600Y0334400D01*
X0291600Y0334400D02*
X0291600Y0329200D01*
X0301600Y0329200D02*
X0301600Y0334400D01*
X0311600Y0334400D02*
X0311600Y0329200D01*
X0321600Y0329200D02*
X0321600Y0334400D01*
X0331600Y0334400D02*
X0331600Y0329200D01*
X0341600Y0329200D02*
X0341600Y0334400D01*
X0351600Y0334400D02*
X0351600Y0329200D01*
X0209400Y0341800D02*
X0204200Y0341800D01*
X0204200Y0351800D02*
X0209400Y0351800D01*
X0169400Y0351800D02*
X0164200Y0351800D01*
X0164200Y0341800D02*
X0169400Y0341800D01*
X0181800Y0214400D02*
X0181800Y0209200D01*
X0191800Y0209200D02*
X0191800Y0214400D01*
X0201800Y0214400D02*
X0201800Y0209200D01*
X0234800Y0108400D02*
X0234800Y0103200D01*
X0244800Y0103200D02*
X0244800Y0108400D01*
X0254800Y0108400D02*
X0254800Y0103200D01*
D14*
X0261800Y0081800D03*
X0221800Y0081800D03*
X0096800Y0206800D03*
X0096800Y0226800D03*
X0056800Y0226800D03*
X0056800Y0206800D03*
X0046800Y0081800D03*
X0046800Y0061800D03*
X0086800Y0061800D03*
X0086800Y0081800D03*
D15*
X0106800Y0128800D02*
X0106800Y0134800D01*
X0116800Y0134800D02*
X0116800Y0128800D01*
X0126800Y0128800D02*
X0126800Y0134800D01*
X0036800Y0163800D02*
X0036800Y0169800D01*
X0026800Y0169800D02*
X0026800Y0163800D01*
X0016800Y0163800D02*
X0016800Y0169800D01*
X0373800Y0206800D02*
X0379800Y0206800D01*
X0379800Y0216800D02*
X0373800Y0216800D01*
X0373800Y0226800D02*
X0379800Y0226800D01*
D16*
X0278400Y0193800D03*
X0278400Y0183800D03*
X0278400Y0173800D03*
X0278400Y0163800D03*
X0248400Y0163800D03*
X0248400Y0173800D03*
X0248400Y0183800D03*
X0248400Y0193800D03*
D17*
X0276300Y0149400D03*
X0266300Y0134200D03*
D18*
X0261485Y0129681D02*
X0257313Y0129681D01*
X0255715Y0131279D02*
X0259887Y0131279D01*
X0259700Y0131466D02*
X0259700Y0136934D01*
X0263566Y0140800D01*
X0269034Y0140800D01*
X0272900Y0136934D01*
X0272900Y0131466D01*
X0269034Y0127600D01*
X0263566Y0127600D01*
X0259700Y0131466D01*
X0259700Y0132878D02*
X0254116Y0132878D01*
X0253159Y0133835D02*
X0252277Y0134200D01*
X0247594Y0134200D01*
X0253159Y0139765D01*
X0253835Y0140441D01*
X0253976Y0140782D01*
X0268559Y0155365D01*
X0269235Y0156041D01*
X0269600Y0156923D01*
X0269600Y0181606D01*
X0277594Y0189600D01*
X0279235Y0189600D01*
X0280779Y0190239D01*
X0281961Y0191421D01*
X0282600Y0192965D01*
X0282600Y0194635D01*
X0281961Y0196179D01*
X0280779Y0197361D01*
X0279235Y0198000D01*
X0277565Y0198000D01*
X0276021Y0197361D01*
X0274839Y0196179D01*
X0274200Y0194635D01*
X0274200Y0192994D01*
X0265165Y0183959D01*
X0264800Y0183077D01*
X0264800Y0158394D01*
X0249765Y0143359D01*
X0249624Y0143018D01*
X0240806Y0134200D01*
X0207794Y0134200D01*
X0196000Y0145994D01*
X0196000Y0148540D01*
X0193540Y0151000D01*
X0190060Y0151000D01*
X0187600Y0148540D01*
X0187600Y0145060D01*
X0190060Y0142600D01*
X0192606Y0142600D01*
X0205441Y0129765D01*
X0206323Y0129400D01*
X0250806Y0129400D01*
X0259400Y0120806D01*
X0259400Y0106323D01*
X0259765Y0105441D01*
X0269400Y0095806D01*
X0269400Y0040794D01*
X0267806Y0039200D01*
X0253617Y0039200D01*
X0252518Y0040300D01*
X0248582Y0040300D01*
X0245800Y0037518D01*
X0245800Y0033582D01*
X0248582Y0030800D01*
X0252518Y0030800D01*
X0255300Y0033582D01*
X0255300Y0034400D01*
X0269277Y0034400D01*
X0270159Y0034765D01*
X0270835Y0035441D01*
X0273835Y0038441D01*
X0274200Y0039323D01*
X0274200Y0097277D01*
X0273835Y0098159D01*
X0273159Y0098835D01*
X0264200Y0107794D01*
X0264200Y0122277D01*
X0263835Y0123159D01*
X0263159Y0123835D01*
X0253159Y0133835D01*
X0251800Y0131800D02*
X0261800Y0121800D01*
X0261800Y0106800D01*
X0271800Y0096800D01*
X0271800Y0039800D01*
X0268800Y0036800D01*
X0251800Y0036800D01*
X0250550Y0035550D01*
X0247211Y0032172D02*
X0244172Y0032172D01*
X0245500Y0033500D02*
X0245500Y0035550D01*
X0245500Y0037600D01*
X0242600Y0040500D01*
X0240550Y0040500D01*
X0240550Y0035550D01*
X0245500Y0035550D01*
X0240550Y0035550D01*
X0240550Y0035550D01*
X0240550Y0035550D01*
X0240550Y0030600D01*
X0242600Y0030600D01*
X0245500Y0033500D01*
X0245500Y0033770D02*
X0245800Y0033770D01*
X0245800Y0035369D02*
X0245500Y0035369D01*
X0245500Y0036967D02*
X0245800Y0036967D01*
X0246848Y0038566D02*
X0244535Y0038566D01*
X0242936Y0040164D02*
X0248447Y0040164D01*
X0252653Y0040164D02*
X0268770Y0040164D01*
X0269400Y0041763D02*
X0180231Y0041763D01*
X0180444Y0041550D02*
X0129200Y0092794D01*
X0129200Y0124815D01*
X0129406Y0124900D01*
X0130700Y0126194D01*
X0131400Y0127885D01*
X0131400Y0135715D01*
X0130700Y0137406D01*
X0129406Y0138700D01*
X0127771Y0139377D01*
X0127794Y0139400D01*
X0130806Y0139400D01*
X0190441Y0079765D01*
X0191323Y0079400D01*
X0217490Y0079400D01*
X0217646Y0079024D01*
X0219024Y0077646D01*
X0220825Y0076900D01*
X0222775Y0076900D01*
X0224576Y0077646D01*
X0225954Y0079024D01*
X0226700Y0080825D01*
X0226700Y0082775D01*
X0225954Y0084576D01*
X0224576Y0085954D01*
X0222775Y0086700D01*
X0220825Y0086700D01*
X0219024Y0085954D01*
X0217646Y0084576D01*
X0217490Y0084200D01*
X0192794Y0084200D01*
X0133835Y0143159D01*
X0133159Y0143835D01*
X0132277Y0144200D01*
X0126323Y0144200D01*
X0125441Y0143835D01*
X0119856Y0138250D01*
X0119406Y0138700D01*
X0117715Y0139400D01*
X0115885Y0139400D01*
X0114194Y0138700D01*
X0112900Y0137406D01*
X0112200Y0135715D01*
X0112200Y0127885D01*
X0112900Y0126194D01*
X0114194Y0124900D01*
X0115885Y0124200D01*
X0117715Y0124200D01*
X0119406Y0124900D01*
X0120700Y0126194D01*
X0121400Y0127885D01*
X0121400Y0133006D01*
X0122200Y0133806D01*
X0122200Y0127885D01*
X0122900Y0126194D01*
X0124194Y0124900D01*
X0124400Y0124815D01*
X0124400Y0091323D01*
X0124765Y0090441D01*
X0173456Y0041750D01*
X0171800Y0041750D01*
X0171800Y0036800D01*
X0176750Y0036800D01*
X0176750Y0038456D01*
X0177050Y0038156D01*
X0177050Y0034832D01*
X0179832Y0032050D01*
X0183768Y0032050D01*
X0186550Y0034832D01*
X0186550Y0038768D01*
X0183768Y0041550D01*
X0180444Y0041550D01*
X0178633Y0043361D02*
X0269400Y0043361D01*
X0269400Y0044960D02*
X0177034Y0044960D01*
X0175436Y0046558D02*
X0269400Y0046558D01*
X0269400Y0048157D02*
X0173837Y0048157D01*
X0172239Y0049755D02*
X0269400Y0049755D01*
X0269400Y0051354D02*
X0170640Y0051354D01*
X0169042Y0052952D02*
X0269400Y0052952D01*
X0269400Y0054551D02*
X0167443Y0054551D01*
X0165845Y0056149D02*
X0269400Y0056149D01*
X0269400Y0057748D02*
X0164246Y0057748D01*
X0162648Y0059346D02*
X0269400Y0059346D01*
X0269400Y0060945D02*
X0161049Y0060945D01*
X0159451Y0062543D02*
X0269400Y0062543D01*
X0269400Y0064142D02*
X0157852Y0064142D01*
X0156254Y0065740D02*
X0269400Y0065740D01*
X0269400Y0067339D02*
X0154655Y0067339D01*
X0153057Y0068937D02*
X0269400Y0068937D01*
X0269400Y0070536D02*
X0151458Y0070536D01*
X0149860Y0072134D02*
X0269400Y0072134D01*
X0269400Y0073733D02*
X0148261Y0073733D01*
X0146663Y0075332D02*
X0269400Y0075332D01*
X0269400Y0076930D02*
X0262847Y0076930D01*
X0262775Y0076900D02*
X0264576Y0077646D01*
X0265954Y0079024D01*
X0266700Y0080825D01*
X0266700Y0082775D01*
X0265954Y0084576D01*
X0264576Y0085954D01*
X0262775Y0086700D01*
X0260825Y0086700D01*
X0259024Y0085954D01*
X0257646Y0084576D01*
X0256900Y0082775D01*
X0256900Y0080825D01*
X0257646Y0079024D01*
X0259024Y0077646D01*
X0260825Y0076900D01*
X0262775Y0076900D01*
X0260753Y0076930D02*
X0222847Y0076930D01*
X0220753Y0076930D02*
X0145064Y0076930D01*
X0143466Y0078529D02*
X0218142Y0078529D01*
X0221800Y0081800D02*
X0191800Y0081800D01*
X0131800Y0141800D01*
X0126800Y0141800D01*
X0116800Y0131800D01*
X0121400Y0131279D02*
X0122200Y0131279D01*
X0122200Y0129681D02*
X0121400Y0129681D01*
X0121400Y0128082D02*
X0122200Y0128082D01*
X0122780Y0126484D02*
X0120820Y0126484D01*
X0119370Y0124885D02*
X0124230Y0124885D01*
X0124400Y0123287D02*
X0006600Y0123287D01*
X0006600Y0124885D02*
X0104230Y0124885D01*
X0104194Y0124900D02*
X0105885Y0124200D01*
X0107715Y0124200D01*
X0109406Y0124900D01*
X0110700Y0126194D01*
X0111400Y0127885D01*
X0111400Y0135715D01*
X0110700Y0137406D01*
X0109406Y0138700D01*
X0107715Y0139400D01*
X0105885Y0139400D01*
X0104194Y0138700D01*
X0102900Y0137406D01*
X0102200Y0135715D01*
X0102200Y0127885D01*
X0102900Y0126194D01*
X0104194Y0124900D01*
X0102780Y0126484D02*
X0006600Y0126484D01*
X0006600Y0128082D02*
X0069578Y0128082D01*
X0070060Y0127600D02*
X0073540Y0127600D01*
X0076000Y0130060D01*
X0076000Y0133540D01*
X0073540Y0136000D01*
X0070060Y0136000D01*
X0067600Y0133540D01*
X0067600Y0130060D01*
X0070060Y0127600D01*
X0067979Y0129681D02*
X0006600Y0129681D01*
X0006600Y0131279D02*
X0067600Y0131279D01*
X0067600Y0132878D02*
X0006600Y0132878D01*
X0006600Y0134476D02*
X0068537Y0134476D01*
X0075063Y0134476D02*
X0083537Y0134476D01*
X0082600Y0133540D02*
X0085060Y0136000D01*
X0088540Y0136000D01*
X0091000Y0133540D01*
X0091000Y0130060D01*
X0088540Y0127600D01*
X0085060Y0127600D01*
X0082600Y0130060D01*
X0082600Y0133540D01*
X0082600Y0132878D02*
X0076000Y0132878D01*
X0076000Y0131279D02*
X0082600Y0131279D01*
X0082979Y0129681D02*
X0075621Y0129681D01*
X0074022Y0128082D02*
X0084578Y0128082D01*
X0089022Y0128082D02*
X0102200Y0128082D01*
X0102200Y0129681D02*
X0090621Y0129681D01*
X0091000Y0131279D02*
X0102200Y0131279D01*
X0102200Y0132878D02*
X0091000Y0132878D01*
X0090063Y0134476D02*
X0102200Y0134476D01*
X0102349Y0136075D02*
X0006600Y0136075D01*
X0006600Y0137673D02*
X0103168Y0137673D01*
X0105576Y0139272D02*
X0006600Y0139272D01*
X0006600Y0140870D02*
X0122476Y0140870D01*
X0120878Y0139272D02*
X0118024Y0139272D01*
X0115576Y0139272D02*
X0108024Y0139272D01*
X0110432Y0137673D02*
X0113168Y0137673D01*
X0112349Y0136075D02*
X0111251Y0136075D01*
X0111400Y0134476D02*
X0112200Y0134476D01*
X0112200Y0132878D02*
X0111400Y0132878D01*
X0111400Y0131279D02*
X0112200Y0131279D01*
X0112200Y0129681D02*
X0111400Y0129681D01*
X0111400Y0128082D02*
X0112200Y0128082D01*
X0112780Y0126484D02*
X0110820Y0126484D01*
X0109370Y0124885D02*
X0114230Y0124885D01*
X0113850Y0116750D02*
X0111800Y0116750D01*
X0111800Y0111800D01*
X0116750Y0111800D01*
X0116750Y0113850D01*
X0113850Y0116750D01*
X0111800Y0116750D02*
X0109750Y0116750D01*
X0106850Y0113850D01*
X0106850Y0111800D01*
X0111800Y0111800D01*
X0111800Y0111800D01*
X0111800Y0111800D01*
X0116750Y0111800D01*
X0116750Y0109750D01*
X0113850Y0106850D01*
X0111800Y0106850D01*
X0111800Y0111800D01*
X0111800Y0111800D01*
X0111800Y0111800D01*
X0111800Y0116750D01*
X0111800Y0115294D02*
X0111800Y0115294D01*
X0111800Y0113696D02*
X0111800Y0113696D01*
X0111800Y0112097D02*
X0111800Y0112097D01*
X0111800Y0111800D02*
X0106850Y0111800D01*
X0106850Y0109750D01*
X0109750Y0106850D01*
X0111800Y0106850D01*
X0111800Y0111800D01*
X0111800Y0110499D02*
X0111800Y0110499D01*
X0111800Y0108900D02*
X0111800Y0108900D01*
X0111800Y0107302D02*
X0111800Y0107302D01*
X0114302Y0107302D02*
X0124400Y0107302D01*
X0124400Y0108900D02*
X0115901Y0108900D01*
X0116750Y0110499D02*
X0124400Y0110499D01*
X0124400Y0112097D02*
X0116750Y0112097D01*
X0116750Y0113696D02*
X0124400Y0113696D01*
X0124400Y0115294D02*
X0115306Y0115294D01*
X0108294Y0115294D02*
X0105023Y0115294D01*
X0103768Y0116550D02*
X0099832Y0116550D01*
X0097050Y0113768D01*
X0097050Y0109832D01*
X0099832Y0107050D01*
X0103768Y0107050D01*
X0106550Y0109832D01*
X0106550Y0113768D01*
X0103768Y0116550D01*
X0106550Y0113696D02*
X0106850Y0113696D01*
X0106850Y0112097D02*
X0106550Y0112097D01*
X0106550Y0110499D02*
X0106850Y0110499D01*
X0107699Y0108900D02*
X0105618Y0108900D01*
X0104019Y0107302D02*
X0109298Y0107302D01*
X0109832Y0101550D02*
X0107050Y0098768D01*
X0107050Y0094832D01*
X0109832Y0092050D01*
X0113768Y0092050D01*
X0116550Y0094832D01*
X0116550Y0098768D01*
X0113768Y0101550D01*
X0109832Y0101550D01*
X0109190Y0100908D02*
X0104410Y0100908D01*
X0103768Y0101550D02*
X0099832Y0101550D01*
X0097050Y0098768D01*
X0097050Y0094832D01*
X0099832Y0092050D01*
X0103768Y0092050D01*
X0106550Y0094832D01*
X0106550Y0098768D01*
X0103768Y0101550D01*
X0106008Y0099309D02*
X0107592Y0099309D01*
X0107050Y0097711D02*
X0106550Y0097711D01*
X0106550Y0096112D02*
X0107050Y0096112D01*
X0107369Y0094514D02*
X0106231Y0094514D01*
X0104633Y0092915D02*
X0108967Y0092915D01*
X0114633Y0092915D02*
X0124400Y0092915D01*
X0124402Y0091317D02*
X0006600Y0091317D01*
X0006600Y0092915D02*
X0098967Y0092915D01*
X0097369Y0094514D02*
X0006600Y0094514D01*
X0006600Y0096112D02*
X0097050Y0096112D01*
X0097050Y0097711D02*
X0088650Y0097711D01*
X0088540Y0097600D02*
X0091000Y0100060D01*
X0091000Y0103540D01*
X0088540Y0106000D01*
X0085060Y0106000D01*
X0082600Y0103540D01*
X0082600Y0100060D01*
X0085060Y0097600D01*
X0088540Y0097600D01*
X0090249Y0099309D02*
X0097592Y0099309D01*
X0099190Y0100908D02*
X0091000Y0100908D01*
X0091000Y0102506D02*
X0124400Y0102506D01*
X0124400Y0100908D02*
X0114410Y0100908D01*
X0116008Y0099309D02*
X0124400Y0099309D01*
X0124400Y0097711D02*
X0116550Y0097711D01*
X0116550Y0096112D02*
X0124400Y0096112D01*
X0124400Y0094514D02*
X0116231Y0094514D01*
X0113768Y0086550D02*
X0109832Y0086550D01*
X0107050Y0083768D01*
X0107050Y0079832D01*
X0109832Y0077050D01*
X0113768Y0077050D01*
X0116550Y0079832D01*
X0116550Y0083768D01*
X0113768Y0086550D01*
X0113796Y0086521D02*
X0128685Y0086521D01*
X0130283Y0084923D02*
X0115395Y0084923D01*
X0116550Y0083324D02*
X0131882Y0083324D01*
X0133480Y0081726D02*
X0116550Y0081726D01*
X0116550Y0080127D02*
X0135079Y0080127D01*
X0136677Y0078529D02*
X0115246Y0078529D01*
X0108354Y0078529D02*
X0105529Y0078529D01*
X0106750Y0079750D02*
X0103850Y0076850D01*
X0101800Y0076850D01*
X0101800Y0081800D01*
X0106750Y0081800D01*
X0106750Y0083850D01*
X0103850Y0086750D01*
X0101800Y0086750D01*
X0101800Y0081800D01*
X0101800Y0081800D01*
X0101800Y0081800D01*
X0106750Y0081800D01*
X0106750Y0079750D01*
X0106750Y0080127D02*
X0107050Y0080127D01*
X0107050Y0081726D02*
X0106750Y0081726D01*
X0106750Y0083324D02*
X0107050Y0083324D01*
X0108205Y0084923D02*
X0105678Y0084923D01*
X0104079Y0086521D02*
X0109804Y0086521D01*
X0101800Y0086521D02*
X0101800Y0086521D01*
X0101800Y0086750D02*
X0099750Y0086750D01*
X0096850Y0083850D01*
X0096850Y0081800D01*
X0101800Y0081800D01*
X0101800Y0081800D01*
X0101800Y0081800D01*
X0101800Y0086750D01*
X0101800Y0084923D02*
X0101800Y0084923D01*
X0101800Y0083324D02*
X0101800Y0083324D01*
X0101800Y0081800D02*
X0096850Y0081800D01*
X0096850Y0079750D01*
X0099750Y0076850D01*
X0101800Y0076850D01*
X0101800Y0081800D01*
X0101800Y0081726D02*
X0101800Y0081726D01*
X0101800Y0080127D02*
X0101800Y0080127D01*
X0101800Y0078529D02*
X0101800Y0078529D01*
X0101800Y0076930D02*
X0101800Y0076930D01*
X0103930Y0076930D02*
X0138276Y0076930D01*
X0139874Y0075332D02*
X0006600Y0075332D01*
X0006600Y0076930D02*
X0045753Y0076930D01*
X0045825Y0076900D02*
X0047775Y0076900D01*
X0049576Y0077646D01*
X0050954Y0079024D01*
X0051700Y0080825D01*
X0051700Y0082775D01*
X0050954Y0084576D01*
X0049576Y0085954D01*
X0047775Y0086700D01*
X0045825Y0086700D01*
X0044024Y0085954D01*
X0042646Y0084576D01*
X0041900Y0082775D01*
X0041900Y0080825D01*
X0042646Y0079024D01*
X0044024Y0077646D01*
X0045825Y0076900D01*
X0047847Y0076930D02*
X0085753Y0076930D01*
X0085825Y0076900D02*
X0087775Y0076900D01*
X0089576Y0077646D01*
X0090954Y0079024D01*
X0091700Y0080825D01*
X0091700Y0082775D01*
X0090954Y0084576D01*
X0089576Y0085954D01*
X0087775Y0086700D01*
X0085825Y0086700D01*
X0084024Y0085954D01*
X0082646Y0084576D01*
X0081900Y0082775D01*
X0081900Y0080825D01*
X0082646Y0079024D01*
X0084024Y0077646D01*
X0085825Y0076900D01*
X0087847Y0076930D02*
X0099670Y0076930D01*
X0098071Y0078529D02*
X0090458Y0078529D01*
X0091411Y0080127D02*
X0096850Y0080127D01*
X0096850Y0081726D02*
X0091700Y0081726D01*
X0091472Y0083324D02*
X0096850Y0083324D01*
X0097922Y0084923D02*
X0090607Y0084923D01*
X0088207Y0086521D02*
X0099521Y0086521D01*
X0085393Y0086521D02*
X0048207Y0086521D01*
X0045393Y0086521D02*
X0006600Y0086521D01*
X0006600Y0084923D02*
X0042993Y0084923D01*
X0042128Y0083324D02*
X0006600Y0083324D01*
X0006600Y0081726D02*
X0041900Y0081726D01*
X0042189Y0080127D02*
X0006600Y0080127D01*
X0006600Y0078529D02*
X0043142Y0078529D01*
X0050458Y0078529D02*
X0083142Y0078529D01*
X0082189Y0080127D02*
X0051411Y0080127D01*
X0051700Y0081726D02*
X0081900Y0081726D01*
X0082128Y0083324D02*
X0051472Y0083324D01*
X0050607Y0084923D02*
X0082993Y0084923D01*
X0084950Y0097711D02*
X0073933Y0097711D01*
X0073623Y0097400D02*
X0076200Y0099977D01*
X0076200Y0101800D01*
X0076200Y0103623D01*
X0073623Y0106200D01*
X0071800Y0106200D01*
X0071800Y0101800D01*
X0071800Y0101800D01*
X0076200Y0101800D01*
X0071800Y0101800D01*
X0071800Y0101800D01*
X0071800Y0101800D01*
X0067400Y0101800D01*
X0067400Y0103623D01*
X0069977Y0106200D01*
X0071800Y0106200D01*
X0071800Y0101800D01*
X0071800Y0097400D01*
X0073623Y0097400D01*
X0071800Y0097400D02*
X0071800Y0101800D01*
X0071800Y0101800D01*
X0067400Y0101800D01*
X0067400Y0099977D01*
X0069977Y0097400D01*
X0071800Y0097400D01*
X0071800Y0097711D02*
X0071800Y0097711D01*
X0071800Y0099309D02*
X0071800Y0099309D01*
X0071800Y0100908D02*
X0071800Y0100908D01*
X0071800Y0102506D02*
X0071800Y0102506D01*
X0071800Y0104105D02*
X0071800Y0104105D01*
X0071800Y0105703D02*
X0071800Y0105703D01*
X0074119Y0105703D02*
X0084764Y0105703D01*
X0083165Y0104105D02*
X0075718Y0104105D01*
X0076200Y0102506D02*
X0082600Y0102506D01*
X0082600Y0100908D02*
X0076200Y0100908D01*
X0075532Y0099309D02*
X0083351Y0099309D01*
X0088836Y0105703D02*
X0124400Y0105703D01*
X0124400Y0104105D02*
X0090435Y0104105D01*
X0097982Y0108900D02*
X0006600Y0108900D01*
X0006600Y0107302D02*
X0099581Y0107302D01*
X0097050Y0110499D02*
X0006600Y0110499D01*
X0006600Y0112097D02*
X0097050Y0112097D01*
X0097050Y0113696D02*
X0006600Y0113696D01*
X0006600Y0115294D02*
X0098577Y0115294D01*
X0121400Y0132878D02*
X0122200Y0132878D01*
X0126800Y0131800D02*
X0126800Y0091800D01*
X0181800Y0036800D01*
X0185153Y0040164D02*
X0238164Y0040164D01*
X0238500Y0040500D02*
X0235600Y0037600D01*
X0235600Y0035550D01*
X0240550Y0035550D01*
X0240550Y0035550D01*
X0240550Y0035550D01*
X0240550Y0040500D01*
X0238500Y0040500D01*
X0240550Y0040164D02*
X0240550Y0040164D01*
X0240550Y0038566D02*
X0240550Y0038566D01*
X0240550Y0036967D02*
X0240550Y0036967D01*
X0240550Y0035550D02*
X0235600Y0035550D01*
X0235600Y0033500D01*
X0238500Y0030600D01*
X0240550Y0030600D01*
X0240550Y0035550D01*
X0240550Y0035369D02*
X0240550Y0035369D01*
X0240550Y0033770D02*
X0240550Y0033770D01*
X0240550Y0032172D02*
X0240550Y0032172D01*
X0236928Y0032172D02*
X0183889Y0032172D01*
X0185488Y0033770D02*
X0235600Y0033770D01*
X0235600Y0035369D02*
X0186550Y0035369D01*
X0186550Y0036967D02*
X0235600Y0036967D01*
X0236565Y0038566D02*
X0186550Y0038566D01*
X0179711Y0032172D02*
X0174172Y0032172D01*
X0173850Y0031850D02*
X0176750Y0034750D01*
X0176750Y0036800D01*
X0171800Y0036800D01*
X0171800Y0036800D01*
X0171800Y0036800D01*
X0171800Y0031850D01*
X0173850Y0031850D01*
X0171800Y0031850D02*
X0171800Y0036800D01*
X0171800Y0036800D01*
X0171800Y0036800D01*
X0166850Y0036800D01*
X0166850Y0038850D01*
X0169750Y0041750D01*
X0171800Y0041750D01*
X0171800Y0036800D01*
X0166850Y0036800D01*
X0166850Y0034750D01*
X0169750Y0031850D01*
X0171800Y0031850D01*
X0171800Y0032172D02*
X0171800Y0032172D01*
X0171800Y0033770D02*
X0171800Y0033770D01*
X0171800Y0035369D02*
X0171800Y0035369D01*
X0171800Y0036967D02*
X0171800Y0036967D01*
X0171800Y0038566D02*
X0171800Y0038566D01*
X0171800Y0040164D02*
X0171800Y0040164D01*
X0173443Y0041763D02*
X0037028Y0041763D01*
X0035338Y0042739D02*
X0035338Y0042739D01*
X0039675Y0040235D01*
X0039675Y0040235D01*
X0043081Y0036564D01*
X0043081Y0036564D01*
X0045254Y0032052D01*
X0045254Y0032052D01*
X0046000Y0027100D01*
X0045254Y0022148D01*
X0043081Y0017636D01*
X0043081Y0017636D01*
X0039675Y0013965D01*
X0039675Y0013965D01*
X0035338Y0011461D01*
X0035338Y0011461D01*
X0030455Y0010347D01*
X0030455Y0010347D01*
X0025462Y0010721D01*
X0025462Y0010721D01*
X0020800Y0012551D01*
X0020800Y0012551D01*
X0016885Y0015673D01*
X0016885Y0015673D01*
X0016885Y0015673D01*
X0014064Y0019811D01*
X0014064Y0019811D01*
X0012588Y0024596D01*
X0012588Y0029604D01*
X0012588Y0029604D01*
X0014064Y0034389D01*
X0016885Y0038527D01*
X0016885Y0038527D01*
X0020800Y0041649D01*
X0025462Y0043479D01*
X0025462Y0043479D01*
X0030455Y0043853D01*
X0030455Y0043853D01*
X0035338Y0042739D01*
X0032610Y0043361D02*
X0171845Y0043361D01*
X0170246Y0044960D02*
X0006600Y0044960D01*
X0006600Y0046558D02*
X0168648Y0046558D01*
X0167049Y0048157D02*
X0006600Y0048157D01*
X0006600Y0049755D02*
X0165451Y0049755D01*
X0163852Y0051354D02*
X0006600Y0051354D01*
X0006600Y0052952D02*
X0162254Y0052952D01*
X0160655Y0054551D02*
X0006600Y0054551D01*
X0006600Y0056149D02*
X0159056Y0056149D01*
X0157458Y0057748D02*
X0089678Y0057748D01*
X0089576Y0057646D02*
X0090954Y0059024D01*
X0091700Y0060825D01*
X0091700Y0062775D01*
X0090954Y0064576D01*
X0089576Y0065954D01*
X0087775Y0066700D01*
X0085825Y0066700D01*
X0084024Y0065954D01*
X0082646Y0064576D01*
X0081900Y0062775D01*
X0081900Y0060825D01*
X0082646Y0059024D01*
X0084024Y0057646D01*
X0085825Y0056900D01*
X0087775Y0056900D01*
X0089576Y0057646D01*
X0091087Y0059346D02*
X0155859Y0059346D01*
X0154261Y0060945D02*
X0091700Y0060945D01*
X0091700Y0062543D02*
X0152662Y0062543D01*
X0151064Y0064142D02*
X0091134Y0064142D01*
X0089789Y0065740D02*
X0149465Y0065740D01*
X0147867Y0067339D02*
X0006600Y0067339D01*
X0006600Y0068937D02*
X0146268Y0068937D01*
X0144670Y0070536D02*
X0006600Y0070536D01*
X0006600Y0072134D02*
X0143071Y0072134D01*
X0141473Y0073733D02*
X0006600Y0073733D01*
X0006600Y0065740D02*
X0043811Y0065740D01*
X0044024Y0065954D02*
X0042646Y0064576D01*
X0041900Y0062775D01*
X0041900Y0060825D01*
X0042646Y0059024D01*
X0044024Y0057646D01*
X0045825Y0056900D01*
X0047775Y0056900D01*
X0049576Y0057646D01*
X0050954Y0059024D01*
X0051700Y0060825D01*
X0051700Y0062775D01*
X0050954Y0064576D01*
X0049576Y0065954D01*
X0047775Y0066700D01*
X0045825Y0066700D01*
X0044024Y0065954D01*
X0042466Y0064142D02*
X0006600Y0064142D01*
X0006600Y0062543D02*
X0041900Y0062543D01*
X0041900Y0060945D02*
X0006600Y0060945D01*
X0006600Y0059346D02*
X0042513Y0059346D01*
X0043922Y0057748D02*
X0006600Y0057748D01*
X0006600Y0043361D02*
X0025162Y0043361D01*
X0021089Y0041763D02*
X0006600Y0041763D01*
X0006600Y0040164D02*
X0018938Y0040164D01*
X0016933Y0038566D02*
X0006600Y0038566D01*
X0006600Y0036967D02*
X0015821Y0036967D01*
X0014732Y0035369D02*
X0006600Y0035369D01*
X0006600Y0033770D02*
X0013873Y0033770D01*
X0013380Y0032172D02*
X0006600Y0032172D01*
X0006600Y0030573D02*
X0012887Y0030573D01*
X0012588Y0028975D02*
X0006600Y0028975D01*
X0006600Y0027376D02*
X0012588Y0027376D01*
X0012588Y0025778D02*
X0006600Y0025778D01*
X0006600Y0024179D02*
X0012716Y0024179D01*
X0013209Y0022581D02*
X0006600Y0022581D01*
X0006600Y0020982D02*
X0013702Y0020982D01*
X0014355Y0019384D02*
X0006600Y0019384D01*
X0006600Y0017785D02*
X0015445Y0017785D01*
X0016535Y0016187D02*
X0006600Y0016187D01*
X0006600Y0014588D02*
X0018245Y0014588D01*
X0020250Y0012990D02*
X0006600Y0012990D01*
X0006600Y0011391D02*
X0023755Y0011391D01*
X0035030Y0011391D02*
X0387000Y0011391D01*
X0387000Y0009793D02*
X0006600Y0009793D01*
X0006600Y0008194D02*
X0387000Y0008194D01*
X0387000Y0006600D02*
X0006600Y0006600D01*
X0006600Y0377000D01*
X0387000Y0377000D01*
X0387000Y0006600D01*
X0387000Y0012990D02*
X0370747Y0012990D01*
X0371938Y0013261D02*
X0376275Y0015765D01*
X0379681Y0019436D01*
X0381854Y0023948D01*
X0382600Y0028900D01*
X0381854Y0033852D01*
X0379681Y0038364D01*
X0376275Y0042035D01*
X0376275Y0042035D01*
X0371938Y0044539D01*
X0371938Y0044539D01*
X0367055Y0045653D01*
X0362062Y0045279D01*
X0362062Y0045279D01*
X0357400Y0043449D01*
X0353485Y0040327D01*
X0353485Y0040327D01*
X0350664Y0036189D01*
X0349188Y0031404D01*
X0349188Y0026396D01*
X0350664Y0021611D01*
X0350664Y0021611D01*
X0353485Y0017473D01*
X0357400Y0014351D01*
X0362062Y0012521D01*
X0367055Y0012147D01*
X0371938Y0013261D01*
X0371938Y0013261D01*
X0374236Y0014588D02*
X0387000Y0014588D01*
X0387000Y0016187D02*
X0376666Y0016187D01*
X0378149Y0017785D02*
X0387000Y0017785D01*
X0387000Y0019384D02*
X0379632Y0019384D01*
X0379681Y0019436D02*
X0379681Y0019436D01*
X0380425Y0020982D02*
X0387000Y0020982D01*
X0387000Y0022581D02*
X0381195Y0022581D01*
X0381854Y0023948D02*
X0381854Y0023948D01*
X0381888Y0024179D02*
X0387000Y0024179D01*
X0387000Y0025778D02*
X0382129Y0025778D01*
X0382370Y0027376D02*
X0387000Y0027376D01*
X0387000Y0028975D02*
X0382589Y0028975D01*
X0382348Y0030573D02*
X0387000Y0030573D01*
X0387000Y0032172D02*
X0382107Y0032172D01*
X0381866Y0033770D02*
X0387000Y0033770D01*
X0387000Y0035369D02*
X0381123Y0035369D01*
X0381854Y0033852D02*
X0381854Y0033852D01*
X0380353Y0036967D02*
X0387000Y0036967D01*
X0387000Y0038566D02*
X0379493Y0038566D01*
X0379681Y0038364D02*
X0379681Y0038364D01*
X0378010Y0040164D02*
X0387000Y0040164D01*
X0387000Y0041763D02*
X0376527Y0041763D01*
X0373977Y0043361D02*
X0387000Y0043361D01*
X0387000Y0044960D02*
X0370093Y0044960D01*
X0367055Y0045653D02*
X0367055Y0045653D01*
X0361249Y0044960D02*
X0274200Y0044960D01*
X0274200Y0046558D02*
X0387000Y0046558D01*
X0387000Y0048157D02*
X0274200Y0048157D01*
X0274200Y0049755D02*
X0387000Y0049755D01*
X0387000Y0051354D02*
X0274200Y0051354D01*
X0274200Y0052952D02*
X0387000Y0052952D01*
X0387000Y0054551D02*
X0274200Y0054551D01*
X0274200Y0056149D02*
X0387000Y0056149D01*
X0387000Y0057748D02*
X0274200Y0057748D01*
X0274200Y0059346D02*
X0387000Y0059346D01*
X0387000Y0060945D02*
X0274200Y0060945D01*
X0274200Y0062543D02*
X0387000Y0062543D01*
X0387000Y0064142D02*
X0274200Y0064142D01*
X0274200Y0065740D02*
X0387000Y0065740D01*
X0387000Y0067339D02*
X0274200Y0067339D01*
X0274200Y0068937D02*
X0387000Y0068937D01*
X0387000Y0070536D02*
X0274200Y0070536D01*
X0274200Y0072134D02*
X0387000Y0072134D01*
X0387000Y0073733D02*
X0274200Y0073733D01*
X0274200Y0075332D02*
X0387000Y0075332D01*
X0387000Y0076930D02*
X0274200Y0076930D01*
X0274200Y0078529D02*
X0387000Y0078529D01*
X0387000Y0080127D02*
X0274200Y0080127D01*
X0274200Y0081726D02*
X0387000Y0081726D01*
X0387000Y0083324D02*
X0274200Y0083324D01*
X0274200Y0084923D02*
X0387000Y0084923D01*
X0387000Y0086521D02*
X0274200Y0086521D01*
X0274200Y0088120D02*
X0387000Y0088120D01*
X0387000Y0089718D02*
X0274200Y0089718D01*
X0274200Y0091317D02*
X0387000Y0091317D01*
X0387000Y0092915D02*
X0274200Y0092915D01*
X0274200Y0094514D02*
X0387000Y0094514D01*
X0387000Y0096112D02*
X0274200Y0096112D01*
X0274021Y0097711D02*
X0387000Y0097711D01*
X0387000Y0099309D02*
X0272685Y0099309D01*
X0271086Y0100908D02*
X0387000Y0100908D01*
X0387000Y0102506D02*
X0269488Y0102506D01*
X0267889Y0104105D02*
X0387000Y0104105D01*
X0387000Y0105703D02*
X0266291Y0105703D01*
X0264692Y0107302D02*
X0387000Y0107302D01*
X0387000Y0108900D02*
X0264200Y0108900D01*
X0264200Y0110499D02*
X0387000Y0110499D01*
X0387000Y0112097D02*
X0264200Y0112097D01*
X0264200Y0113696D02*
X0387000Y0113696D01*
X0387000Y0115294D02*
X0264200Y0115294D01*
X0264200Y0116893D02*
X0387000Y0116893D01*
X0387000Y0118491D02*
X0264200Y0118491D01*
X0264200Y0120090D02*
X0387000Y0120090D01*
X0387000Y0121688D02*
X0264200Y0121688D01*
X0263707Y0123287D02*
X0387000Y0123287D01*
X0387000Y0124885D02*
X0262109Y0124885D01*
X0260510Y0126484D02*
X0387000Y0126484D01*
X0387000Y0128082D02*
X0269516Y0128082D01*
X0271115Y0129681D02*
X0387000Y0129681D01*
X0387000Y0131279D02*
X0272713Y0131279D01*
X0272900Y0132878D02*
X0387000Y0132878D01*
X0387000Y0134476D02*
X0272900Y0134476D01*
X0272900Y0136075D02*
X0387000Y0136075D01*
X0387000Y0137673D02*
X0272160Y0137673D01*
X0270562Y0139272D02*
X0387000Y0139272D01*
X0387000Y0140870D02*
X0254065Y0140870D01*
X0253159Y0139765D02*
X0253159Y0139765D01*
X0252666Y0139272D02*
X0262038Y0139272D01*
X0260440Y0137673D02*
X0251068Y0137673D01*
X0249469Y0136075D02*
X0259700Y0136075D01*
X0259700Y0134476D02*
X0247871Y0134476D01*
X0251800Y0131800D02*
X0241800Y0131800D01*
X0206800Y0131800D01*
X0191800Y0146800D01*
X0188593Y0144068D02*
X0132597Y0144068D01*
X0134525Y0142469D02*
X0192737Y0142469D01*
X0194335Y0140870D02*
X0136124Y0140870D01*
X0137722Y0139272D02*
X0149332Y0139272D01*
X0150560Y0140500D02*
X0148100Y0138040D01*
X0148100Y0134560D01*
X0150560Y0132100D01*
X0154040Y0132100D01*
X0156500Y0134560D01*
X0156500Y0138040D01*
X0154040Y0140500D01*
X0150560Y0140500D01*
X0148100Y0137673D02*
X0139321Y0137673D01*
X0140919Y0136075D02*
X0148100Y0136075D01*
X0148184Y0134476D02*
X0142518Y0134476D01*
X0144116Y0132878D02*
X0149782Y0132878D01*
X0147313Y0129681D02*
X0205644Y0129681D01*
X0203926Y0131279D02*
X0145715Y0131279D01*
X0148912Y0128082D02*
X0252123Y0128082D01*
X0253722Y0126484D02*
X0150510Y0126484D01*
X0152109Y0124885D02*
X0255321Y0124885D01*
X0256919Y0123287D02*
X0153707Y0123287D01*
X0155306Y0121688D02*
X0258518Y0121688D01*
X0259400Y0120090D02*
X0156904Y0120090D01*
X0158503Y0118491D02*
X0259400Y0118491D01*
X0259400Y0116893D02*
X0160101Y0116893D01*
X0161700Y0115294D02*
X0259400Y0115294D01*
X0259400Y0113696D02*
X0163298Y0113696D01*
X0164897Y0112097D02*
X0232403Y0112097D01*
X0232494Y0112163D02*
X0231934Y0111756D01*
X0231444Y0111266D01*
X0231037Y0110706D01*
X0230722Y0110089D01*
X0230508Y0109430D01*
X0230400Y0108746D01*
X0230400Y0105800D01*
X0234800Y0105800D01*
X0239200Y0105800D01*
X0239200Y0108746D01*
X0239092Y0109430D01*
X0238878Y0110089D01*
X0238563Y0110706D01*
X0238156Y0111266D01*
X0237666Y0111756D01*
X0237106Y0112163D01*
X0236489Y0112478D01*
X0235830Y0112692D01*
X0235146Y0112800D01*
X0234800Y0112800D01*
X0234800Y0105800D01*
X0234800Y0105800D01*
X0234800Y0105800D01*
X0239200Y0105800D01*
X0239200Y0102854D01*
X0239092Y0102170D01*
X0238878Y0101511D01*
X0238563Y0100894D01*
X0238156Y0100334D01*
X0237666Y0099844D01*
X0237106Y0099437D01*
X0236489Y0099122D01*
X0235830Y0098908D01*
X0235146Y0098800D01*
X0234800Y0098800D01*
X0234800Y0105800D01*
X0234800Y0105800D01*
X0234800Y0105800D01*
X0234800Y0112800D01*
X0234454Y0112800D01*
X0233770Y0112692D01*
X0233111Y0112478D01*
X0232494Y0112163D01*
X0230931Y0110499D02*
X0166495Y0110499D01*
X0168094Y0108900D02*
X0230424Y0108900D01*
X0230400Y0107302D02*
X0169692Y0107302D01*
X0171291Y0105703D02*
X0230400Y0105703D01*
X0230400Y0105800D02*
X0230400Y0102854D01*
X0230508Y0102170D01*
X0230722Y0101511D01*
X0231037Y0100894D01*
X0231444Y0100334D01*
X0231934Y0099844D01*
X0232494Y0099437D01*
X0233111Y0099122D01*
X0233770Y0098908D01*
X0234454Y0098800D01*
X0234800Y0098800D01*
X0234800Y0105800D01*
X0230400Y0105800D01*
X0230400Y0104105D02*
X0172889Y0104105D01*
X0174488Y0102506D02*
X0230455Y0102506D01*
X0231030Y0100908D02*
X0176086Y0100908D01*
X0177685Y0099309D02*
X0232744Y0099309D01*
X0234800Y0099309D02*
X0234800Y0099309D01*
X0234800Y0100908D02*
X0234800Y0100908D01*
X0234800Y0102506D02*
X0234800Y0102506D01*
X0234800Y0104105D02*
X0234800Y0104105D01*
X0234800Y0105703D02*
X0234800Y0105703D01*
X0234800Y0107302D02*
X0234800Y0107302D01*
X0234800Y0108900D02*
X0234800Y0108900D01*
X0234800Y0110499D02*
X0234800Y0110499D01*
X0234800Y0112097D02*
X0234800Y0112097D01*
X0237197Y0112097D02*
X0242751Y0112097D01*
X0242421Y0111961D02*
X0241239Y0110779D01*
X0240600Y0109235D01*
X0240600Y0102365D01*
X0241239Y0100821D01*
X0242421Y0099639D01*
X0243965Y0099000D01*
X0245635Y0099000D01*
X0247179Y0099639D01*
X0248361Y0100821D01*
X0249000Y0102365D01*
X0249000Y0109235D01*
X0248361Y0110779D01*
X0247179Y0111961D01*
X0245635Y0112600D01*
X0243965Y0112600D01*
X0242421Y0111961D01*
X0241123Y0110499D02*
X0238669Y0110499D01*
X0239176Y0108900D02*
X0240600Y0108900D01*
X0240600Y0107302D02*
X0239200Y0107302D01*
X0239200Y0105703D02*
X0240600Y0105703D01*
X0240600Y0104105D02*
X0239200Y0104105D01*
X0239145Y0102506D02*
X0240600Y0102506D01*
X0241203Y0100908D02*
X0238570Y0100908D01*
X0236856Y0099309D02*
X0243218Y0099309D01*
X0246382Y0099309D02*
X0253218Y0099309D01*
X0253965Y0099000D02*
X0255635Y0099000D01*
X0257179Y0099639D01*
X0258361Y0100821D01*
X0259000Y0102365D01*
X0259000Y0104598D01*
X0259300Y0105323D01*
X0259300Y0106277D01*
X0259000Y0107002D01*
X0259000Y0109235D01*
X0258361Y0110779D01*
X0257179Y0111961D01*
X0255635Y0112600D01*
X0253965Y0112600D01*
X0252421Y0111961D01*
X0251239Y0110779D01*
X0250600Y0109235D01*
X0250600Y0102365D01*
X0251239Y0100821D01*
X0252421Y0099639D01*
X0253965Y0099000D01*
X0256382Y0099309D02*
X0265897Y0099309D01*
X0267495Y0097711D02*
X0179283Y0097711D01*
X0180882Y0096112D02*
X0269094Y0096112D01*
X0269400Y0094514D02*
X0182480Y0094514D01*
X0184079Y0092915D02*
X0269400Y0092915D01*
X0269400Y0091317D02*
X0185677Y0091317D01*
X0187276Y0089718D02*
X0269400Y0089718D01*
X0269400Y0088120D02*
X0188874Y0088120D01*
X0190473Y0086521D02*
X0220393Y0086521D01*
X0223207Y0086521D02*
X0260393Y0086521D01*
X0263207Y0086521D02*
X0269400Y0086521D01*
X0269400Y0084923D02*
X0265607Y0084923D01*
X0266472Y0083324D02*
X0269400Y0083324D01*
X0269400Y0081726D02*
X0266700Y0081726D01*
X0266411Y0080127D02*
X0269400Y0080127D01*
X0269400Y0078529D02*
X0265458Y0078529D01*
X0258142Y0078529D02*
X0225458Y0078529D01*
X0226411Y0080127D02*
X0257189Y0080127D01*
X0256900Y0081726D02*
X0226700Y0081726D01*
X0226472Y0083324D02*
X0257128Y0083324D01*
X0257993Y0084923D02*
X0225607Y0084923D01*
X0217993Y0084923D02*
X0192072Y0084923D01*
X0188480Y0081726D02*
X0140269Y0081726D01*
X0141867Y0080127D02*
X0190079Y0080127D01*
X0186882Y0083324D02*
X0138670Y0083324D01*
X0137072Y0084923D02*
X0185283Y0084923D01*
X0183685Y0086521D02*
X0135473Y0086521D01*
X0133874Y0088120D02*
X0182086Y0088120D01*
X0180488Y0089718D02*
X0132276Y0089718D01*
X0130677Y0091317D02*
X0178889Y0091317D01*
X0177291Y0092915D02*
X0129200Y0092915D01*
X0129200Y0094514D02*
X0175692Y0094514D01*
X0174094Y0096112D02*
X0129200Y0096112D01*
X0129200Y0097711D02*
X0172495Y0097711D01*
X0170897Y0099309D02*
X0129200Y0099309D01*
X0129200Y0100908D02*
X0169298Y0100908D01*
X0167700Y0102506D02*
X0129200Y0102506D01*
X0129200Y0104105D02*
X0166101Y0104105D01*
X0164503Y0105703D02*
X0129200Y0105703D01*
X0129200Y0107302D02*
X0162904Y0107302D01*
X0161306Y0108900D02*
X0129200Y0108900D01*
X0129200Y0110499D02*
X0159707Y0110499D01*
X0158109Y0112097D02*
X0129200Y0112097D01*
X0129200Y0113696D02*
X0156510Y0113696D01*
X0154912Y0115294D02*
X0129200Y0115294D01*
X0129200Y0116893D02*
X0153313Y0116893D01*
X0151715Y0118491D02*
X0129200Y0118491D01*
X0129200Y0120090D02*
X0150116Y0120090D01*
X0148518Y0121688D02*
X0129200Y0121688D01*
X0129200Y0123287D02*
X0146919Y0123287D01*
X0145321Y0124885D02*
X0129370Y0124885D01*
X0130820Y0126484D02*
X0143722Y0126484D01*
X0142123Y0128082D02*
X0131400Y0128082D01*
X0131400Y0129681D02*
X0140525Y0129681D01*
X0138926Y0131279D02*
X0131400Y0131279D01*
X0131400Y0132878D02*
X0137328Y0132878D01*
X0135729Y0134476D02*
X0131400Y0134476D01*
X0131251Y0136075D02*
X0134131Y0136075D01*
X0132532Y0137673D02*
X0130432Y0137673D01*
X0130934Y0139272D02*
X0128024Y0139272D01*
X0124075Y0142469D02*
X0006600Y0142469D01*
X0006600Y0144068D02*
X0126003Y0144068D01*
X0147600Y0155060D02*
X0150060Y0152600D01*
X0153540Y0152600D01*
X0156000Y0155060D01*
X0156000Y0158540D01*
X0153540Y0161000D01*
X0150060Y0161000D01*
X0147600Y0158540D01*
X0147600Y0155060D01*
X0147600Y0155257D02*
X0006600Y0155257D01*
X0006600Y0153659D02*
X0149002Y0153659D01*
X0147600Y0156856D02*
X0006600Y0156856D01*
X0006600Y0158454D02*
X0058923Y0158454D01*
X0059977Y0157400D02*
X0057400Y0159977D01*
X0057400Y0161800D01*
X0061800Y0161800D01*
X0061800Y0161800D01*
X0061800Y0166200D01*
X0063623Y0166200D01*
X0066200Y0163623D01*
X0066200Y0161800D01*
X0061800Y0161800D01*
X0061800Y0161800D01*
X0061800Y0161800D01*
X0061800Y0166200D01*
X0059977Y0166200D01*
X0057400Y0163623D01*
X0057400Y0161800D01*
X0061800Y0161800D01*
X0066200Y0161800D01*
X0066200Y0159977D01*
X0063623Y0157400D01*
X0061800Y0157400D01*
X0061800Y0161800D01*
X0061800Y0161800D01*
X0061800Y0157400D01*
X0059977Y0157400D01*
X0061800Y0158454D02*
X0061800Y0158454D01*
X0061800Y0160053D02*
X0061800Y0160053D01*
X0061800Y0161651D02*
X0061800Y0161651D01*
X0061800Y0163250D02*
X0061800Y0163250D01*
X0061800Y0164848D02*
X0061800Y0164848D01*
X0064974Y0164848D02*
X0073908Y0164848D01*
X0075060Y0166000D02*
X0072600Y0163540D01*
X0072600Y0160060D01*
X0075060Y0157600D01*
X0078540Y0157600D01*
X0081000Y0160060D01*
X0081000Y0163540D01*
X0078540Y0166000D01*
X0075060Y0166000D01*
X0072600Y0163250D02*
X0066200Y0163250D01*
X0066200Y0161651D02*
X0072600Y0161651D01*
X0072608Y0160053D02*
X0066200Y0160053D01*
X0064677Y0158454D02*
X0074206Y0158454D01*
X0079394Y0158454D02*
X0147600Y0158454D01*
X0149113Y0160053D02*
X0080992Y0160053D01*
X0081000Y0161651D02*
X0169400Y0161651D01*
X0169400Y0161323D02*
X0169765Y0160441D01*
X0170441Y0159765D01*
X0175441Y0154765D01*
X0176323Y0154400D01*
X0178260Y0154400D01*
X0180060Y0152600D01*
X0183540Y0152600D01*
X0186000Y0155060D01*
X0186000Y0158540D01*
X0183540Y0161000D01*
X0180060Y0161000D01*
X0178260Y0159200D01*
X0177794Y0159200D01*
X0174200Y0162794D01*
X0174200Y0180806D01*
X0182794Y0189400D01*
X0202277Y0189400D01*
X0203159Y0189765D01*
X0212794Y0199400D01*
X0237277Y0199400D01*
X0238159Y0199765D01*
X0240994Y0202600D01*
X0243540Y0202600D01*
X0246000Y0205060D01*
X0246000Y0208540D01*
X0243540Y0211000D01*
X0240060Y0211000D01*
X0237600Y0208540D01*
X0237600Y0205994D01*
X0235806Y0204200D01*
X0211323Y0204200D01*
X0210441Y0203835D01*
X0209765Y0203159D01*
X0200806Y0194200D01*
X0181323Y0194200D01*
X0180441Y0193835D01*
X0179765Y0193159D01*
X0169765Y0183159D01*
X0169400Y0182277D01*
X0169400Y0161323D01*
X0170153Y0160053D02*
X0154487Y0160053D01*
X0156000Y0158454D02*
X0171752Y0158454D01*
X0173350Y0156856D02*
X0156000Y0156856D01*
X0156000Y0155257D02*
X0174949Y0155257D01*
X0176800Y0156800D02*
X0171800Y0161800D01*
X0171800Y0181800D01*
X0181800Y0191800D01*
X0201800Y0191800D01*
X0211800Y0201800D01*
X0236800Y0201800D01*
X0241800Y0206800D01*
X0244933Y0209606D02*
X0248667Y0209606D01*
X0247600Y0208540D02*
X0247600Y0205994D01*
X0219765Y0178159D01*
X0219400Y0177277D01*
X0219400Y0170340D01*
X0217600Y0168540D01*
X0217600Y0165060D01*
X0220060Y0162600D01*
X0223540Y0162600D01*
X0226000Y0165060D01*
X0226000Y0168540D01*
X0224200Y0170340D01*
X0224200Y0175806D01*
X0250994Y0202600D01*
X0253540Y0202600D01*
X0256000Y0205060D01*
X0256000Y0208540D01*
X0253540Y0211000D01*
X0250060Y0211000D01*
X0247600Y0208540D01*
X0247600Y0208008D02*
X0246000Y0208008D01*
X0246000Y0206409D02*
X0247600Y0206409D01*
X0246417Y0204811D02*
X0245751Y0204811D01*
X0244818Y0203212D02*
X0244152Y0203212D01*
X0243220Y0201614D02*
X0240008Y0201614D01*
X0238409Y0200015D02*
X0241621Y0200015D01*
X0240023Y0198417D02*
X0211811Y0198417D01*
X0210212Y0196818D02*
X0238424Y0196818D01*
X0236826Y0195220D02*
X0219320Y0195220D01*
X0218540Y0196000D02*
X0215060Y0196000D01*
X0213260Y0194200D01*
X0211323Y0194200D01*
X0210441Y0193835D01*
X0209765Y0193159D01*
X0200806Y0184200D01*
X0186323Y0184200D01*
X0185441Y0183835D01*
X0182606Y0181000D01*
X0180060Y0181000D01*
X0177600Y0178540D01*
X0177600Y0175060D01*
X0180060Y0172600D01*
X0183540Y0172600D01*
X0186000Y0175060D01*
X0186000Y0177606D01*
X0187794Y0179400D01*
X0202277Y0179400D01*
X0203159Y0179765D01*
X0203835Y0180441D01*
X0212794Y0189400D01*
X0213260Y0189400D01*
X0214400Y0188260D01*
X0214400Y0187794D01*
X0210441Y0183835D01*
X0209765Y0183159D01*
X0209400Y0182277D01*
X0209400Y0161323D01*
X0209765Y0160441D01*
X0214765Y0155441D01*
X0214765Y0155441D01*
X0215441Y0154765D01*
X0216323Y0154400D01*
X0217277Y0154400D01*
X0218159Y0154765D01*
X0218194Y0154800D01*
X0232477Y0154800D01*
X0233359Y0155165D01*
X0234035Y0155841D01*
X0247794Y0169600D01*
X0249235Y0169600D01*
X0250779Y0170239D01*
X0251961Y0171421D01*
X0252600Y0172965D01*
X0252600Y0174635D01*
X0251961Y0176179D01*
X0250779Y0177361D01*
X0249235Y0178000D01*
X0247565Y0178000D01*
X0246021Y0177361D01*
X0244839Y0176179D01*
X0244200Y0174635D01*
X0244200Y0172965D01*
X0244250Y0172844D01*
X0231006Y0159600D01*
X0217394Y0159600D01*
X0214200Y0162794D01*
X0214200Y0180806D01*
X0218835Y0185441D01*
X0219200Y0186323D01*
X0219200Y0188260D01*
X0221000Y0190060D01*
X0221000Y0193540D01*
X0218540Y0196000D01*
X0220918Y0193621D02*
X0235227Y0193621D01*
X0233629Y0192023D02*
X0221000Y0192023D01*
X0221000Y0190424D02*
X0232030Y0190424D01*
X0230432Y0188826D02*
X0219766Y0188826D01*
X0219200Y0187227D02*
X0228833Y0187227D01*
X0227235Y0185629D02*
X0218913Y0185629D01*
X0217424Y0184030D02*
X0225636Y0184030D01*
X0224038Y0182432D02*
X0215826Y0182432D01*
X0214227Y0180833D02*
X0222439Y0180833D01*
X0220841Y0179235D02*
X0214200Y0179235D01*
X0214200Y0177636D02*
X0219549Y0177636D01*
X0219400Y0176038D02*
X0214200Y0176038D01*
X0214200Y0174439D02*
X0219400Y0174439D01*
X0219400Y0172841D02*
X0214200Y0172841D01*
X0214200Y0171242D02*
X0219400Y0171242D01*
X0218704Y0169644D02*
X0214200Y0169644D01*
X0214200Y0168045D02*
X0217600Y0168045D01*
X0217600Y0166447D02*
X0214200Y0166447D01*
X0214200Y0164848D02*
X0217812Y0164848D01*
X0219411Y0163250D02*
X0214200Y0163250D01*
X0215343Y0161651D02*
X0233057Y0161651D01*
X0231459Y0160053D02*
X0216941Y0160053D01*
X0217200Y0157200D02*
X0216800Y0156800D01*
X0211800Y0161800D01*
X0211800Y0181800D01*
X0216800Y0186800D01*
X0216800Y0191800D01*
X0211800Y0191800D01*
X0201800Y0181800D01*
X0186800Y0181800D01*
X0181800Y0176800D01*
X0178295Y0179235D02*
X0174200Y0179235D01*
X0174227Y0180833D02*
X0179894Y0180833D01*
X0177600Y0177636D02*
X0174200Y0177636D01*
X0174200Y0176038D02*
X0177600Y0176038D01*
X0178221Y0174439D02*
X0174200Y0174439D01*
X0174200Y0172841D02*
X0179820Y0172841D01*
X0183780Y0172841D02*
X0209400Y0172841D01*
X0209400Y0174439D02*
X0185379Y0174439D01*
X0186000Y0176038D02*
X0209400Y0176038D01*
X0209400Y0177636D02*
X0186030Y0177636D01*
X0187629Y0179235D02*
X0209400Y0179235D01*
X0209400Y0180833D02*
X0204227Y0180833D01*
X0203835Y0180441D02*
X0203835Y0180441D01*
X0205826Y0182432D02*
X0209464Y0182432D01*
X0210636Y0184030D02*
X0207424Y0184030D01*
X0209023Y0185629D02*
X0212235Y0185629D01*
X0213833Y0187227D02*
X0210621Y0187227D01*
X0212220Y0188826D02*
X0213834Y0188826D01*
X0209765Y0193159D02*
X0209765Y0193159D01*
X0210227Y0193621D02*
X0207015Y0193621D01*
X0205417Y0192023D02*
X0208629Y0192023D01*
X0207030Y0190424D02*
X0203818Y0190424D01*
X0205432Y0188826D02*
X0182220Y0188826D01*
X0180621Y0187227D02*
X0203833Y0187227D01*
X0202235Y0185629D02*
X0179023Y0185629D01*
X0177424Y0184030D02*
X0185913Y0184030D01*
X0184038Y0182432D02*
X0175826Y0182432D01*
X0172235Y0185629D02*
X0035250Y0185629D01*
X0035250Y0186350D02*
X0032350Y0189250D01*
X0030300Y0189250D01*
X0030300Y0184300D01*
X0035250Y0184300D01*
X0035250Y0186350D01*
X0034373Y0187227D02*
X0173833Y0187227D01*
X0175432Y0188826D02*
X0079766Y0188826D01*
X0078540Y0187600D02*
X0081000Y0190060D01*
X0081000Y0193540D01*
X0078540Y0196000D01*
X0075060Y0196000D01*
X0072600Y0193540D01*
X0072600Y0190060D01*
X0075060Y0187600D01*
X0078540Y0187600D01*
X0081000Y0190424D02*
X0177030Y0190424D01*
X0178629Y0192023D02*
X0081000Y0192023D01*
X0080918Y0193621D02*
X0180227Y0193621D01*
X0180965Y0205000D02*
X0182635Y0205000D01*
X0184179Y0205639D01*
X0185361Y0206821D01*
X0186000Y0208365D01*
X0186000Y0215235D01*
X0185361Y0216779D01*
X0184179Y0217961D01*
X0182635Y0218600D01*
X0180965Y0218600D01*
X0179421Y0217961D01*
X0178239Y0216779D01*
X0177600Y0215235D01*
X0177600Y0208365D01*
X0178239Y0206821D01*
X0179421Y0205639D01*
X0180965Y0205000D01*
X0178651Y0206409D02*
X0101700Y0206409D01*
X0101700Y0205825D02*
X0100954Y0204024D01*
X0099576Y0202646D01*
X0097775Y0201900D01*
X0095825Y0201900D01*
X0094024Y0202646D01*
X0092646Y0204024D01*
X0091900Y0205825D01*
X0091900Y0207775D01*
X0092646Y0209576D01*
X0094024Y0210954D01*
X0095825Y0211700D01*
X0097775Y0211700D01*
X0099576Y0210954D01*
X0100954Y0209576D01*
X0101700Y0207775D01*
X0101700Y0205825D01*
X0101280Y0204811D02*
X0236417Y0204811D01*
X0237600Y0206409D02*
X0204949Y0206409D01*
X0205361Y0206821D02*
X0206000Y0208365D01*
X0206000Y0215235D01*
X0205361Y0216779D01*
X0204179Y0217961D01*
X0202635Y0218600D01*
X0200965Y0218600D01*
X0199421Y0217961D01*
X0198239Y0216779D01*
X0197600Y0215235D01*
X0197600Y0208365D01*
X0198239Y0206821D01*
X0199421Y0205639D01*
X0200965Y0205000D01*
X0202635Y0205000D01*
X0204179Y0205639D01*
X0205361Y0206821D01*
X0205852Y0208008D02*
X0237600Y0208008D01*
X0238667Y0209606D02*
X0206000Y0209606D01*
X0206000Y0211205D02*
X0289400Y0211205D01*
X0289400Y0212803D02*
X0244026Y0212803D01*
X0243623Y0212400D02*
X0246200Y0214977D01*
X0246200Y0216800D01*
X0246200Y0218623D01*
X0243623Y0221200D01*
X0241800Y0221200D01*
X0241800Y0216800D01*
X0241800Y0216800D01*
X0246200Y0216800D01*
X0241800Y0216800D01*
X0241800Y0216800D01*
X0241800Y0216800D01*
X0237400Y0216800D01*
X0237400Y0218623D01*
X0239977Y0221200D01*
X0241800Y0221200D01*
X0241800Y0216800D01*
X0241800Y0212400D01*
X0243623Y0212400D01*
X0241800Y0212400D02*
X0241800Y0216800D01*
X0241800Y0216800D01*
X0237400Y0216800D01*
X0237400Y0214977D01*
X0239977Y0212400D01*
X0241800Y0212400D01*
X0241800Y0212803D02*
X0241800Y0212803D01*
X0241800Y0214402D02*
X0241800Y0214402D01*
X0241800Y0216001D02*
X0241800Y0216001D01*
X0241800Y0217599D02*
X0241800Y0217599D01*
X0241800Y0219198D02*
X0241800Y0219198D01*
X0241800Y0220796D02*
X0241800Y0220796D01*
X0244026Y0220796D02*
X0289400Y0220796D01*
X0289400Y0219198D02*
X0245625Y0219198D01*
X0246200Y0217599D02*
X0289400Y0217599D01*
X0289400Y0216001D02*
X0246200Y0216001D01*
X0245625Y0214402D02*
X0289400Y0214402D01*
X0289400Y0209606D02*
X0254933Y0209606D01*
X0256000Y0208008D02*
X0289400Y0208008D01*
X0289400Y0206409D02*
X0256000Y0206409D01*
X0255751Y0204811D02*
X0289400Y0204811D01*
X0289400Y0203212D02*
X0254152Y0203212D01*
X0251800Y0206800D02*
X0221800Y0176800D01*
X0221800Y0166800D01*
X0224896Y0169644D02*
X0241050Y0169644D01*
X0242648Y0171242D02*
X0224200Y0171242D01*
X0224200Y0172841D02*
X0244247Y0172841D01*
X0244200Y0174439D02*
X0224200Y0174439D01*
X0224432Y0176038D02*
X0244781Y0176038D01*
X0246686Y0177636D02*
X0226030Y0177636D01*
X0227629Y0179235D02*
X0264800Y0179235D01*
X0264800Y0180833D02*
X0251373Y0180833D01*
X0251961Y0181421D02*
X0250779Y0180239D01*
X0249235Y0179600D01*
X0247565Y0179600D01*
X0246021Y0180239D01*
X0244839Y0181421D01*
X0244200Y0182965D01*
X0244200Y0184635D01*
X0244839Y0186179D01*
X0246021Y0187361D01*
X0247565Y0188000D01*
X0249235Y0188000D01*
X0250779Y0187361D01*
X0251961Y0186179D01*
X0252600Y0184635D01*
X0252600Y0182965D01*
X0251961Y0181421D01*
X0252379Y0182432D02*
X0264800Y0182432D01*
X0265236Y0184030D02*
X0252600Y0184030D01*
X0252189Y0185629D02*
X0266835Y0185629D01*
X0268433Y0187227D02*
X0250912Y0187227D01*
X0249235Y0189600D02*
X0247565Y0189600D01*
X0246021Y0190239D01*
X0244839Y0191421D01*
X0244200Y0192965D01*
X0244200Y0194635D01*
X0244839Y0196179D01*
X0246021Y0197361D01*
X0247565Y0198000D01*
X0249235Y0198000D01*
X0250779Y0197361D01*
X0251961Y0196179D01*
X0252600Y0194635D01*
X0252600Y0192965D01*
X0251961Y0191421D01*
X0250779Y0190239D01*
X0249235Y0189600D01*
X0250964Y0190424D02*
X0271630Y0190424D01*
X0270032Y0188826D02*
X0237220Y0188826D01*
X0238818Y0190424D02*
X0245836Y0190424D01*
X0244590Y0192023D02*
X0240417Y0192023D01*
X0242015Y0193621D02*
X0244200Y0193621D01*
X0244442Y0195220D02*
X0243614Y0195220D01*
X0245212Y0196818D02*
X0245479Y0196818D01*
X0246811Y0198417D02*
X0289400Y0198417D01*
X0289400Y0200015D02*
X0248410Y0200015D01*
X0250008Y0201614D02*
X0289400Y0201614D01*
X0289400Y0196818D02*
X0281321Y0196818D01*
X0282358Y0195220D02*
X0289400Y0195220D01*
X0289400Y0193621D02*
X0282600Y0193621D01*
X0282210Y0192023D02*
X0289400Y0192023D01*
X0289400Y0190424D02*
X0280964Y0190424D01*
X0279235Y0188000D02*
X0280779Y0187361D01*
X0281961Y0186179D01*
X0282600Y0184635D01*
X0282600Y0182965D01*
X0281961Y0181421D01*
X0280779Y0180239D01*
X0279235Y0179600D01*
X0277565Y0179600D01*
X0276021Y0180239D01*
X0274839Y0181421D01*
X0274200Y0182965D01*
X0274200Y0184635D01*
X0274839Y0186179D01*
X0276021Y0187361D01*
X0277565Y0188000D01*
X0279235Y0188000D01*
X0280912Y0187227D02*
X0289400Y0187227D01*
X0289400Y0185629D02*
X0282189Y0185629D01*
X0282600Y0184030D02*
X0289400Y0184030D01*
X0289400Y0182432D02*
X0282379Y0182432D01*
X0281373Y0180833D02*
X0289400Y0180833D01*
X0289400Y0179235D02*
X0269600Y0179235D01*
X0269600Y0180833D02*
X0275427Y0180833D01*
X0274421Y0182432D02*
X0270426Y0182432D01*
X0272024Y0184030D02*
X0274200Y0184030D01*
X0274611Y0185629D02*
X0273623Y0185629D01*
X0275221Y0187227D02*
X0275888Y0187227D01*
X0276820Y0188826D02*
X0289400Y0188826D01*
X0294200Y0188826D02*
X0310461Y0188826D01*
X0310211Y0188393D02*
X0309400Y0185367D01*
X0309400Y0182233D01*
X0310211Y0179207D01*
X0311778Y0176493D01*
X0313993Y0174278D01*
X0316707Y0172711D01*
X0319733Y0171900D01*
X0322867Y0171900D01*
X0325893Y0172711D01*
X0328607Y0174278D01*
X0330822Y0176493D01*
X0332389Y0179207D01*
X0333200Y0182233D01*
X0333200Y0185367D01*
X0332389Y0188393D01*
X0331808Y0189400D01*
X0347277Y0189400D01*
X0348159Y0189765D01*
X0355994Y0197600D01*
X0357606Y0197600D01*
X0367600Y0187606D01*
X0367600Y0185060D01*
X0370060Y0182600D01*
X0373540Y0182600D01*
X0376000Y0185060D01*
X0376000Y0188540D01*
X0373540Y0191000D01*
X0370994Y0191000D01*
X0361000Y0200994D01*
X0361000Y0203540D01*
X0358540Y0206000D01*
X0355060Y0206000D01*
X0352600Y0203540D01*
X0352600Y0200994D01*
X0345806Y0194200D01*
X0332794Y0194200D01*
X0324200Y0202794D01*
X0324200Y0325860D01*
X0325161Y0326821D01*
X0325800Y0328365D01*
X0325800Y0335235D01*
X0325161Y0336779D01*
X0323979Y0337961D01*
X0322435Y0338600D01*
X0320765Y0338600D01*
X0319221Y0337961D01*
X0318039Y0336779D01*
X0317400Y0335235D01*
X0317400Y0328365D01*
X0318039Y0326821D01*
X0319221Y0325639D01*
X0319400Y0325565D01*
X0319400Y0201323D01*
X0319765Y0200441D01*
X0320441Y0199765D01*
X0325106Y0195100D01*
X0322867Y0195700D01*
X0319733Y0195700D01*
X0316707Y0194889D01*
X0313993Y0193322D01*
X0311778Y0191107D01*
X0310211Y0188393D01*
X0309899Y0187227D02*
X0294200Y0187227D01*
X0294200Y0185629D02*
X0309470Y0185629D01*
X0309400Y0184030D02*
X0294200Y0184030D01*
X0294200Y0182432D02*
X0309400Y0182432D01*
X0309775Y0180833D02*
X0294200Y0180833D01*
X0294200Y0179235D02*
X0310203Y0179235D01*
X0311118Y0177636D02*
X0294200Y0177636D01*
X0294200Y0176038D02*
X0312233Y0176038D01*
X0313832Y0174439D02*
X0294200Y0174439D01*
X0294200Y0172841D02*
X0316482Y0172841D01*
X0326118Y0172841D02*
X0387000Y0172841D01*
X0387000Y0174439D02*
X0328768Y0174439D01*
X0330367Y0176038D02*
X0387000Y0176038D01*
X0387000Y0177636D02*
X0331482Y0177636D01*
X0332397Y0179235D02*
X0387000Y0179235D01*
X0387000Y0180833D02*
X0332825Y0180833D01*
X0333200Y0182432D02*
X0379946Y0182432D01*
X0379977Y0182400D02*
X0381800Y0182400D01*
X0383623Y0182400D01*
X0386200Y0184977D01*
X0386200Y0186800D01*
X0386200Y0188623D01*
X0383623Y0191200D01*
X0381800Y0191200D01*
X0381800Y0186800D01*
X0386200Y0186800D01*
X0381800Y0186800D01*
X0381800Y0186800D01*
X0381800Y0186800D01*
X0381800Y0182400D01*
X0381800Y0186800D01*
X0381800Y0186800D01*
X0381800Y0186800D01*
X0377400Y0186800D01*
X0377400Y0188623D01*
X0379977Y0191200D01*
X0381800Y0191200D01*
X0381800Y0186800D01*
X0377400Y0186800D01*
X0377400Y0184977D01*
X0379977Y0182400D01*
X0381800Y0182432D02*
X0381800Y0182432D01*
X0381800Y0184030D02*
X0381800Y0184030D01*
X0381800Y0185629D02*
X0381800Y0185629D01*
X0381800Y0187227D02*
X0381800Y0187227D01*
X0381800Y0188826D02*
X0381800Y0188826D01*
X0381800Y0190424D02*
X0381800Y0190424D01*
X0384398Y0190424D02*
X0387000Y0190424D01*
X0387000Y0188826D02*
X0385997Y0188826D01*
X0386200Y0187227D02*
X0387000Y0187227D01*
X0387000Y0185629D02*
X0386200Y0185629D01*
X0387000Y0184030D02*
X0385253Y0184030D01*
X0383654Y0182432D02*
X0387000Y0182432D01*
X0378347Y0184030D02*
X0374970Y0184030D01*
X0376000Y0185629D02*
X0377400Y0185629D01*
X0377400Y0187227D02*
X0376000Y0187227D01*
X0375714Y0188826D02*
X0377603Y0188826D01*
X0379202Y0190424D02*
X0374115Y0190424D01*
X0371800Y0186800D02*
X0356800Y0201800D01*
X0346800Y0191800D01*
X0331800Y0191800D01*
X0321800Y0201800D01*
X0321800Y0327000D01*
X0321600Y0331800D01*
X0325800Y0331093D02*
X0327400Y0331093D01*
X0327400Y0329495D02*
X0325800Y0329495D01*
X0325606Y0327896D02*
X0327594Y0327896D01*
X0327400Y0328365D02*
X0328039Y0326821D01*
X0329221Y0325639D01*
X0330765Y0325000D01*
X0332435Y0325000D01*
X0333979Y0325639D01*
X0335161Y0326821D01*
X0335800Y0328365D01*
X0335800Y0335235D01*
X0335161Y0336779D01*
X0333979Y0337961D01*
X0332435Y0338600D01*
X0330765Y0338600D01*
X0329221Y0337961D01*
X0328039Y0336779D01*
X0327400Y0335235D01*
X0327400Y0328365D01*
X0328563Y0326298D02*
X0324637Y0326298D01*
X0324200Y0324699D02*
X0379400Y0324699D01*
X0379400Y0323101D02*
X0324200Y0323101D01*
X0324200Y0321502D02*
X0379400Y0321502D01*
X0379400Y0319904D02*
X0324200Y0319904D01*
X0324200Y0318305D02*
X0379400Y0318305D01*
X0379400Y0316707D02*
X0324200Y0316707D01*
X0324200Y0315108D02*
X0379400Y0315108D01*
X0379400Y0313510D02*
X0324200Y0313510D01*
X0324200Y0311911D02*
X0379400Y0311911D01*
X0379400Y0310313D02*
X0324200Y0310313D01*
X0324200Y0308714D02*
X0379400Y0308714D01*
X0379400Y0307116D02*
X0324200Y0307116D01*
X0324200Y0305517D02*
X0379400Y0305517D01*
X0379400Y0303919D02*
X0324200Y0303919D01*
X0324200Y0302320D02*
X0379400Y0302320D01*
X0379400Y0300722D02*
X0324200Y0300722D01*
X0324200Y0299123D02*
X0379400Y0299123D01*
X0379400Y0297525D02*
X0324200Y0297525D01*
X0324200Y0295926D02*
X0379400Y0295926D01*
X0379400Y0294328D02*
X0324200Y0294328D01*
X0324200Y0292729D02*
X0379400Y0292729D01*
X0379400Y0291131D02*
X0324200Y0291131D01*
X0324200Y0289532D02*
X0379400Y0289532D01*
X0379400Y0287934D02*
X0324200Y0287934D01*
X0324200Y0286335D02*
X0379400Y0286335D01*
X0379400Y0284737D02*
X0324200Y0284737D01*
X0324200Y0283138D02*
X0379400Y0283138D01*
X0379400Y0282794D02*
X0330441Y0233835D01*
X0329765Y0233159D01*
X0329400Y0232277D01*
X0329400Y0211323D01*
X0329765Y0210441D01*
X0337600Y0202606D01*
X0337600Y0200060D01*
X0340060Y0197600D01*
X0343540Y0197600D01*
X0346000Y0200060D01*
X0346000Y0203540D01*
X0343540Y0206000D01*
X0340994Y0206000D01*
X0334200Y0212794D01*
X0334200Y0230806D01*
X0383835Y0280441D01*
X0384200Y0281323D01*
X0384200Y0342277D01*
X0383835Y0343159D01*
X0383159Y0343835D01*
X0373835Y0353159D01*
X0373159Y0353835D01*
X0372277Y0354200D01*
X0261323Y0354200D01*
X0260441Y0353835D01*
X0259765Y0353159D01*
X0244920Y0338314D01*
X0244260Y0337680D01*
X0243979Y0337961D01*
X0242435Y0338600D01*
X0240765Y0338600D01*
X0239221Y0337961D01*
X0238039Y0336779D01*
X0237400Y0335235D01*
X0237400Y0328365D01*
X0238039Y0326821D01*
X0239221Y0325639D01*
X0240765Y0325000D01*
X0242435Y0325000D01*
X0243979Y0325639D01*
X0245161Y0326821D01*
X0245800Y0328365D01*
X0245800Y0332505D01*
X0247400Y0334041D01*
X0247400Y0328365D01*
X0248039Y0326821D01*
X0249221Y0325639D01*
X0249400Y0325565D01*
X0249400Y0311323D01*
X0249765Y0310441D01*
X0250441Y0309765D01*
X0259400Y0300806D01*
X0259400Y0281323D01*
X0259765Y0280441D01*
X0260441Y0279765D01*
X0269400Y0270806D01*
X0269400Y0251323D01*
X0269765Y0250441D01*
X0270441Y0249765D01*
X0289400Y0230806D01*
X0289400Y0163994D01*
X0280220Y0154814D01*
X0279034Y0156000D01*
X0273566Y0156000D01*
X0269700Y0152134D01*
X0269700Y0146666D01*
X0273566Y0142800D01*
X0279034Y0142800D01*
X0282900Y0146666D01*
X0282900Y0150706D01*
X0293159Y0160965D01*
X0293835Y0161641D01*
X0294200Y0162523D01*
X0294200Y0232277D01*
X0293835Y0233159D01*
X0293159Y0233835D01*
X0274200Y0252794D01*
X0274200Y0272277D01*
X0273835Y0273159D01*
X0264200Y0282794D01*
X0264200Y0302277D01*
X0263835Y0303159D01*
X0254200Y0312794D01*
X0254200Y0325860D01*
X0255161Y0326821D01*
X0255800Y0328365D01*
X0255800Y0335235D01*
X0255161Y0336779D01*
X0253979Y0337961D01*
X0252435Y0338600D01*
X0251994Y0338600D01*
X0262794Y0349400D01*
X0370806Y0349400D01*
X0379400Y0340806D01*
X0379400Y0282794D01*
X0378145Y0281539D02*
X0324200Y0281539D01*
X0324200Y0279941D02*
X0376547Y0279941D01*
X0374948Y0278342D02*
X0324200Y0278342D01*
X0324200Y0276744D02*
X0373350Y0276744D01*
X0371751Y0275145D02*
X0324200Y0275145D01*
X0324200Y0273547D02*
X0370153Y0273547D01*
X0368554Y0271948D02*
X0324200Y0271948D01*
X0324200Y0270350D02*
X0366956Y0270350D01*
X0365357Y0268751D02*
X0324200Y0268751D01*
X0324200Y0267153D02*
X0363759Y0267153D01*
X0362160Y0265554D02*
X0324200Y0265554D01*
X0324200Y0263956D02*
X0360562Y0263956D01*
X0358963Y0262357D02*
X0324200Y0262357D01*
X0324200Y0260759D02*
X0357365Y0260759D01*
X0355766Y0259160D02*
X0324200Y0259160D01*
X0324200Y0257562D02*
X0354168Y0257562D01*
X0352569Y0255963D02*
X0324200Y0255963D01*
X0324200Y0254365D02*
X0350971Y0254365D01*
X0349372Y0252766D02*
X0324200Y0252766D01*
X0324200Y0251168D02*
X0347774Y0251168D01*
X0346175Y0249569D02*
X0324200Y0249569D01*
X0324200Y0247971D02*
X0344577Y0247971D01*
X0342978Y0246372D02*
X0324200Y0246372D01*
X0324200Y0244774D02*
X0341380Y0244774D01*
X0339781Y0243175D02*
X0324200Y0243175D01*
X0324200Y0241577D02*
X0338183Y0241577D01*
X0336584Y0239978D02*
X0324200Y0239978D01*
X0324200Y0238380D02*
X0334986Y0238380D01*
X0333387Y0236781D02*
X0324200Y0236781D01*
X0324200Y0235183D02*
X0331789Y0235183D01*
X0330190Y0233584D02*
X0324200Y0233584D01*
X0324200Y0231986D02*
X0329400Y0231986D01*
X0329400Y0230387D02*
X0324200Y0230387D01*
X0324200Y0228789D02*
X0329400Y0228789D01*
X0329400Y0227190D02*
X0324200Y0227190D01*
X0324200Y0225592D02*
X0329400Y0225592D01*
X0329400Y0223993D02*
X0324200Y0223993D01*
X0324200Y0222395D02*
X0329400Y0222395D01*
X0329400Y0220796D02*
X0324200Y0220796D01*
X0324200Y0219198D02*
X0329400Y0219198D01*
X0329400Y0217599D02*
X0324200Y0217599D01*
X0324200Y0216001D02*
X0329400Y0216001D01*
X0329400Y0214402D02*
X0324200Y0214402D01*
X0324200Y0212803D02*
X0329400Y0212803D01*
X0329449Y0211205D02*
X0324200Y0211205D01*
X0324200Y0209606D02*
X0330599Y0209606D01*
X0332198Y0208008D02*
X0324200Y0208008D01*
X0324200Y0206409D02*
X0333796Y0206409D01*
X0335395Y0204811D02*
X0324200Y0204811D01*
X0324200Y0203212D02*
X0336993Y0203212D01*
X0337600Y0201614D02*
X0325380Y0201614D01*
X0326979Y0200015D02*
X0337645Y0200015D01*
X0339243Y0198417D02*
X0328577Y0198417D01*
X0330176Y0196818D02*
X0348424Y0196818D01*
X0346826Y0195220D02*
X0331774Y0195220D01*
X0332139Y0188826D02*
X0366380Y0188826D01*
X0367600Y0187227D02*
X0332701Y0187227D01*
X0333130Y0185629D02*
X0367600Y0185629D01*
X0368630Y0184030D02*
X0333200Y0184030D01*
X0324986Y0195220D02*
X0324658Y0195220D01*
X0323388Y0196818D02*
X0294200Y0196818D01*
X0294200Y0195220D02*
X0317941Y0195220D01*
X0314511Y0193621D02*
X0294200Y0193621D01*
X0294200Y0192023D02*
X0312694Y0192023D01*
X0311384Y0190424D02*
X0294200Y0190424D01*
X0294200Y0198417D02*
X0321789Y0198417D01*
X0320190Y0200015D02*
X0294200Y0200015D01*
X0294200Y0201614D02*
X0319400Y0201614D01*
X0319400Y0203212D02*
X0294200Y0203212D01*
X0294200Y0204811D02*
X0319400Y0204811D01*
X0319400Y0206409D02*
X0294200Y0206409D01*
X0294200Y0208008D02*
X0319400Y0208008D01*
X0319400Y0209606D02*
X0294200Y0209606D01*
X0294200Y0211205D02*
X0319400Y0211205D01*
X0319400Y0212803D02*
X0294200Y0212803D01*
X0294200Y0214402D02*
X0319400Y0214402D01*
X0319400Y0216001D02*
X0294200Y0216001D01*
X0294200Y0217599D02*
X0319400Y0217599D01*
X0319400Y0219198D02*
X0294200Y0219198D01*
X0294200Y0220796D02*
X0319400Y0220796D01*
X0319400Y0222395D02*
X0294200Y0222395D01*
X0294200Y0223993D02*
X0319400Y0223993D01*
X0319400Y0225592D02*
X0294200Y0225592D01*
X0294200Y0227190D02*
X0319400Y0227190D01*
X0319400Y0228789D02*
X0294200Y0228789D01*
X0294200Y0230387D02*
X0319400Y0230387D01*
X0319400Y0231986D02*
X0294200Y0231986D01*
X0293410Y0233584D02*
X0319400Y0233584D01*
X0319400Y0235183D02*
X0291811Y0235183D01*
X0293159Y0233835D02*
X0293159Y0233835D01*
X0291800Y0231800D02*
X0291800Y0163000D01*
X0278200Y0149400D01*
X0276300Y0149400D01*
X0282900Y0148863D02*
X0387000Y0148863D01*
X0387000Y0147265D02*
X0282900Y0147265D01*
X0281900Y0145666D02*
X0387000Y0145666D01*
X0387000Y0144068D02*
X0280301Y0144068D01*
X0282900Y0150462D02*
X0387000Y0150462D01*
X0387000Y0152060D02*
X0284254Y0152060D01*
X0285853Y0153659D02*
X0387000Y0153659D01*
X0387000Y0155257D02*
X0287451Y0155257D01*
X0289050Y0156856D02*
X0387000Y0156856D01*
X0387000Y0158454D02*
X0290648Y0158454D01*
X0292247Y0160053D02*
X0387000Y0160053D01*
X0387000Y0161651D02*
X0293839Y0161651D01*
X0294200Y0163250D02*
X0387000Y0163250D01*
X0387000Y0164848D02*
X0294200Y0164848D01*
X0294200Y0166447D02*
X0387000Y0166447D01*
X0387000Y0168045D02*
X0294200Y0168045D01*
X0294200Y0169644D02*
X0387000Y0169644D01*
X0387000Y0171242D02*
X0294200Y0171242D01*
X0289400Y0171242D02*
X0281782Y0171242D01*
X0281961Y0171421D02*
X0282600Y0172965D01*
X0282600Y0174635D01*
X0281961Y0176179D01*
X0280779Y0177361D01*
X0279235Y0178000D01*
X0277565Y0178000D01*
X0276021Y0177361D01*
X0274839Y0176179D01*
X0274200Y0174635D01*
X0274200Y0172965D01*
X0274839Y0171421D01*
X0276021Y0170239D01*
X0277565Y0169600D01*
X0279235Y0169600D01*
X0280779Y0170239D01*
X0281961Y0171421D01*
X0282549Y0172841D02*
X0289400Y0172841D01*
X0289400Y0174439D02*
X0282600Y0174439D01*
X0282019Y0176038D02*
X0289400Y0176038D01*
X0289400Y0177636D02*
X0280114Y0177636D01*
X0276686Y0177636D02*
X0269600Y0177636D01*
X0269600Y0176038D02*
X0274781Y0176038D01*
X0274200Y0174439D02*
X0269600Y0174439D01*
X0269600Y0172841D02*
X0274251Y0172841D01*
X0275018Y0171242D02*
X0269600Y0171242D01*
X0269600Y0169644D02*
X0277459Y0169644D01*
X0277565Y0168000D02*
X0276021Y0167361D01*
X0274839Y0166179D01*
X0274200Y0164635D01*
X0274200Y0162965D01*
X0274839Y0161421D01*
X0276021Y0160239D01*
X0277565Y0159600D01*
X0279235Y0159600D01*
X0280779Y0160239D01*
X0281961Y0161421D01*
X0282600Y0162965D01*
X0282600Y0164635D01*
X0281961Y0166179D01*
X0280779Y0167361D01*
X0279235Y0168000D01*
X0277565Y0168000D01*
X0279341Y0169644D02*
X0289400Y0169644D01*
X0289400Y0168045D02*
X0269600Y0168045D01*
X0269600Y0166447D02*
X0275107Y0166447D01*
X0274288Y0164848D02*
X0269600Y0164848D01*
X0269600Y0163250D02*
X0274200Y0163250D01*
X0274744Y0161651D02*
X0269600Y0161651D01*
X0269600Y0160053D02*
X0276472Y0160053D01*
X0280328Y0160053D02*
X0285459Y0160053D01*
X0287057Y0161651D02*
X0282056Y0161651D01*
X0282600Y0163250D02*
X0288656Y0163250D01*
X0289400Y0164848D02*
X0282512Y0164848D01*
X0281693Y0166447D02*
X0289400Y0166447D01*
X0283860Y0158454D02*
X0269600Y0158454D01*
X0269572Y0156856D02*
X0282262Y0156856D01*
X0280663Y0155257D02*
X0279777Y0155257D01*
X0272823Y0155257D02*
X0268451Y0155257D01*
X0266853Y0153659D02*
X0271225Y0153659D01*
X0269700Y0152060D02*
X0265254Y0152060D01*
X0263656Y0150462D02*
X0269700Y0150462D01*
X0269700Y0148863D02*
X0262057Y0148863D01*
X0260459Y0147265D02*
X0269700Y0147265D01*
X0270700Y0145666D02*
X0258860Y0145666D01*
X0257262Y0144068D02*
X0272299Y0144068D01*
X0261663Y0155257D02*
X0233451Y0155257D01*
X0235050Y0156856D02*
X0263261Y0156856D01*
X0264800Y0158454D02*
X0236648Y0158454D01*
X0238247Y0160053D02*
X0246072Y0160053D01*
X0246094Y0160037D02*
X0246711Y0159722D01*
X0247370Y0159508D01*
X0248054Y0159400D01*
X0248400Y0159400D01*
X0248746Y0159400D01*
X0249430Y0159508D01*
X0250089Y0159722D01*
X0250706Y0160037D01*
X0251266Y0160444D01*
X0251756Y0160934D01*
X0252163Y0161494D01*
X0252478Y0162111D01*
X0252692Y0162770D01*
X0252800Y0163454D01*
X0252800Y0163800D01*
X0252800Y0164146D01*
X0252692Y0164830D01*
X0252478Y0165489D01*
X0252163Y0166106D01*
X0251756Y0166666D01*
X0251266Y0167156D01*
X0250706Y0167563D01*
X0250089Y0167878D01*
X0249430Y0168092D01*
X0248746Y0168200D01*
X0248400Y0168200D01*
X0248400Y0163800D01*
X0252800Y0163800D01*
X0248400Y0163800D01*
X0248400Y0163800D01*
X0248400Y0163800D01*
X0248400Y0159400D01*
X0248400Y0163800D01*
X0248400Y0163800D01*
X0248400Y0163800D01*
X0244000Y0163800D01*
X0244000Y0164146D01*
X0244108Y0164830D01*
X0244322Y0165489D01*
X0244637Y0166106D01*
X0245044Y0166666D01*
X0245534Y0167156D01*
X0246094Y0167563D01*
X0246711Y0167878D01*
X0247370Y0168092D01*
X0248054Y0168200D01*
X0248400Y0168200D01*
X0248400Y0163800D01*
X0244000Y0163800D01*
X0244000Y0163454D01*
X0244108Y0162770D01*
X0244322Y0162111D01*
X0244637Y0161494D01*
X0245044Y0160934D01*
X0245534Y0160444D01*
X0246094Y0160037D01*
X0244557Y0161651D02*
X0239845Y0161651D01*
X0241444Y0163250D02*
X0244032Y0163250D01*
X0244114Y0164848D02*
X0243042Y0164848D01*
X0244641Y0166447D02*
X0244884Y0166447D01*
X0246239Y0168045D02*
X0247227Y0168045D01*
X0248400Y0168045D02*
X0248400Y0168045D01*
X0249573Y0168045D02*
X0264800Y0168045D01*
X0264800Y0166447D02*
X0251916Y0166447D01*
X0252686Y0164848D02*
X0264800Y0164848D01*
X0264800Y0163250D02*
X0252768Y0163250D01*
X0252243Y0161651D02*
X0264800Y0161651D01*
X0264800Y0160053D02*
X0250728Y0160053D01*
X0248400Y0160053D02*
X0248400Y0160053D01*
X0248400Y0161651D02*
X0248400Y0161651D01*
X0248400Y0163250D02*
X0248400Y0163250D01*
X0248400Y0164848D02*
X0248400Y0164848D01*
X0248400Y0166447D02*
X0248400Y0166447D01*
X0249341Y0169644D02*
X0264800Y0169644D01*
X0264800Y0171242D02*
X0251782Y0171242D01*
X0252549Y0172841D02*
X0264800Y0172841D01*
X0264800Y0174439D02*
X0252600Y0174439D01*
X0252019Y0176038D02*
X0264800Y0176038D01*
X0264800Y0177636D02*
X0250114Y0177636D01*
X0248400Y0173800D02*
X0248400Y0173600D01*
X0232000Y0157200D01*
X0217200Y0157200D01*
X0214949Y0155257D02*
X0186000Y0155257D01*
X0186000Y0156856D02*
X0213350Y0156856D01*
X0211752Y0158454D02*
X0186000Y0158454D01*
X0184487Y0160053D02*
X0210153Y0160053D01*
X0209400Y0161651D02*
X0175343Y0161651D01*
X0174200Y0163250D02*
X0189411Y0163250D01*
X0190060Y0162600D02*
X0193540Y0162600D01*
X0196000Y0165060D01*
X0196000Y0168540D01*
X0193540Y0171000D01*
X0190060Y0171000D01*
X0187600Y0168540D01*
X0187600Y0165060D01*
X0190060Y0162600D01*
X0187812Y0164848D02*
X0174200Y0164848D01*
X0174200Y0166447D02*
X0187600Y0166447D01*
X0187600Y0168045D02*
X0174200Y0168045D01*
X0174200Y0169644D02*
X0188704Y0169644D01*
X0194896Y0169644D02*
X0209400Y0169644D01*
X0209400Y0171242D02*
X0174200Y0171242D01*
X0169400Y0171242D02*
X0041182Y0171242D01*
X0041400Y0170715D02*
X0040700Y0172406D01*
X0039406Y0173700D01*
X0037715Y0174400D01*
X0035885Y0174400D01*
X0034194Y0173700D01*
X0032900Y0172406D01*
X0032200Y0170715D01*
X0032200Y0162885D01*
X0032900Y0161194D01*
X0034194Y0159900D01*
X0035885Y0159200D01*
X0037715Y0159200D01*
X0039406Y0159900D01*
X0040700Y0161194D01*
X0041400Y0162885D01*
X0041400Y0170715D01*
X0041400Y0169644D02*
X0169400Y0169644D01*
X0169400Y0168045D02*
X0041400Y0168045D01*
X0041400Y0166447D02*
X0169400Y0166447D01*
X0169400Y0164848D02*
X0079692Y0164848D01*
X0081000Y0163250D02*
X0169400Y0163250D01*
X0176941Y0160053D02*
X0179113Y0160053D01*
X0176800Y0156800D02*
X0181800Y0156800D01*
X0184598Y0153659D02*
X0260064Y0153659D01*
X0258466Y0152060D02*
X0006600Y0152060D01*
X0006600Y0150462D02*
X0189522Y0150462D01*
X0187923Y0148863D02*
X0006600Y0148863D01*
X0006600Y0147265D02*
X0187600Y0147265D01*
X0187600Y0145666D02*
X0006600Y0145666D01*
X0006600Y0160053D02*
X0014042Y0160053D01*
X0014194Y0159900D02*
X0015885Y0159200D01*
X0017715Y0159200D01*
X0019406Y0159900D01*
X0020700Y0161194D01*
X0021400Y0162885D01*
X0021400Y0170715D01*
X0020700Y0172406D01*
X0019406Y0173700D01*
X0017715Y0174400D01*
X0015885Y0174400D01*
X0014194Y0173700D01*
X0012900Y0172406D01*
X0012200Y0170715D01*
X0012200Y0162885D01*
X0012900Y0161194D01*
X0014194Y0159900D01*
X0012711Y0161651D02*
X0006600Y0161651D01*
X0006600Y0163250D02*
X0012200Y0163250D01*
X0012200Y0164848D02*
X0006600Y0164848D01*
X0006600Y0166447D02*
X0012200Y0166447D01*
X0012200Y0168045D02*
X0006600Y0168045D01*
X0006600Y0169644D02*
X0012200Y0169644D01*
X0012418Y0171242D02*
X0006600Y0171242D01*
X0006600Y0172841D02*
X0013335Y0172841D01*
X0018332Y0179550D02*
X0022268Y0179550D01*
X0025050Y0182332D01*
X0025050Y0186268D01*
X0022268Y0189050D01*
X0018332Y0189050D01*
X0015550Y0186268D01*
X0015550Y0182332D01*
X0018332Y0179550D01*
X0017049Y0180833D02*
X0006600Y0180833D01*
X0006600Y0179235D02*
X0148295Y0179235D01*
X0147600Y0178540D02*
X0147600Y0175060D01*
X0150060Y0172600D01*
X0153540Y0172600D01*
X0156000Y0175060D01*
X0156000Y0178540D01*
X0153540Y0181000D01*
X0150060Y0181000D01*
X0147600Y0178540D01*
X0147600Y0177636D02*
X0006600Y0177636D01*
X0006600Y0176038D02*
X0147600Y0176038D01*
X0148221Y0174439D02*
X0006600Y0174439D01*
X0006600Y0182432D02*
X0015550Y0182432D01*
X0015550Y0184030D02*
X0006600Y0184030D01*
X0006600Y0185629D02*
X0015550Y0185629D01*
X0016510Y0187227D02*
X0006600Y0187227D01*
X0006600Y0188826D02*
X0018108Y0188826D01*
X0022492Y0188826D02*
X0027825Y0188826D01*
X0028250Y0189250D02*
X0025350Y0186350D01*
X0025350Y0184300D01*
X0030300Y0184300D01*
X0030300Y0184300D01*
X0030300Y0184300D01*
X0035250Y0184300D01*
X0035250Y0182250D01*
X0032350Y0179350D01*
X0030300Y0179350D01*
X0030300Y0184300D01*
X0030300Y0184300D01*
X0030300Y0184300D01*
X0030300Y0189250D01*
X0028250Y0189250D01*
X0030300Y0188826D02*
X0030300Y0188826D01*
X0030300Y0187227D02*
X0030300Y0187227D01*
X0030300Y0185629D02*
X0030300Y0185629D01*
X0030300Y0184300D02*
X0025350Y0184300D01*
X0025350Y0182250D01*
X0028250Y0179350D01*
X0030300Y0179350D01*
X0030300Y0184300D01*
X0030300Y0184030D02*
X0030300Y0184030D01*
X0030300Y0182432D02*
X0030300Y0182432D01*
X0030300Y0180833D02*
X0030300Y0180833D01*
X0033834Y0180833D02*
X0149894Y0180833D01*
X0153706Y0180833D02*
X0169400Y0180833D01*
X0169400Y0179235D02*
X0155305Y0179235D01*
X0156000Y0177636D02*
X0169400Y0177636D01*
X0169400Y0176038D02*
X0156000Y0176038D01*
X0155379Y0174439D02*
X0169400Y0174439D01*
X0169400Y0172841D02*
X0153780Y0172841D01*
X0149820Y0172841D02*
X0040265Y0172841D01*
X0033335Y0172841D02*
X0030265Y0172841D01*
X0030700Y0172406D02*
X0029406Y0173700D01*
X0027715Y0174400D01*
X0025885Y0174400D01*
X0024194Y0173700D01*
X0022900Y0172406D01*
X0022200Y0170715D01*
X0022200Y0162885D01*
X0022900Y0161194D01*
X0024194Y0159900D01*
X0025885Y0159200D01*
X0027715Y0159200D01*
X0029406Y0159900D01*
X0030700Y0161194D01*
X0031400Y0162885D01*
X0031400Y0170715D01*
X0030700Y0172406D01*
X0031182Y0171242D02*
X0032418Y0171242D01*
X0032200Y0169644D02*
X0031400Y0169644D01*
X0031400Y0168045D02*
X0032200Y0168045D01*
X0032200Y0166447D02*
X0031400Y0166447D01*
X0031400Y0164848D02*
X0032200Y0164848D01*
X0032200Y0163250D02*
X0031400Y0163250D01*
X0030889Y0161651D02*
X0032711Y0161651D01*
X0034042Y0160053D02*
X0029558Y0160053D01*
X0024042Y0160053D02*
X0019558Y0160053D01*
X0020889Y0161651D02*
X0022711Y0161651D01*
X0022200Y0163250D02*
X0021400Y0163250D01*
X0021400Y0164848D02*
X0022200Y0164848D01*
X0022200Y0166447D02*
X0021400Y0166447D01*
X0021400Y0168045D02*
X0022200Y0168045D01*
X0022200Y0169644D02*
X0021400Y0169644D01*
X0021182Y0171242D02*
X0022418Y0171242D01*
X0023335Y0172841D02*
X0020265Y0172841D01*
X0023551Y0180833D02*
X0026766Y0180833D01*
X0025350Y0182432D02*
X0025050Y0182432D01*
X0025050Y0184030D02*
X0025350Y0184030D01*
X0025350Y0185629D02*
X0025050Y0185629D01*
X0024090Y0187227D02*
X0026227Y0187227D01*
X0032775Y0188826D02*
X0058834Y0188826D01*
X0060060Y0187600D02*
X0057600Y0190060D01*
X0057600Y0193540D01*
X0060060Y0196000D01*
X0063540Y0196000D01*
X0066000Y0193540D01*
X0066000Y0190060D01*
X0063540Y0187600D01*
X0060060Y0187600D01*
X0057600Y0190424D02*
X0006600Y0190424D01*
X0006600Y0192023D02*
X0057600Y0192023D01*
X0057682Y0193621D02*
X0006600Y0193621D01*
X0006600Y0195220D02*
X0017380Y0195220D01*
X0018250Y0194350D02*
X0020300Y0194350D01*
X0022350Y0194350D01*
X0025250Y0197250D01*
X0025250Y0199300D01*
X0025250Y0201350D01*
X0022350Y0204250D01*
X0020300Y0204250D01*
X0020300Y0199300D01*
X0025250Y0199300D01*
X0020300Y0199300D01*
X0020300Y0199300D01*
X0020300Y0199300D01*
X0020300Y0194350D01*
X0020300Y0199300D01*
X0020300Y0199300D01*
X0020300Y0199300D01*
X0015350Y0199300D01*
X0015350Y0201350D01*
X0018250Y0204250D01*
X0020300Y0204250D01*
X0020300Y0199300D01*
X0015350Y0199300D01*
X0015350Y0197250D01*
X0018250Y0194350D01*
X0020300Y0195220D02*
X0020300Y0195220D01*
X0020300Y0196818D02*
X0020300Y0196818D01*
X0020300Y0198417D02*
X0020300Y0198417D01*
X0020300Y0200015D02*
X0020300Y0200015D01*
X0020300Y0201614D02*
X0020300Y0201614D01*
X0020300Y0203212D02*
X0020300Y0203212D01*
X0023388Y0203212D02*
X0027495Y0203212D01*
X0028332Y0204050D02*
X0025550Y0201268D01*
X0025550Y0197332D01*
X0028332Y0194550D01*
X0032268Y0194550D01*
X0035050Y0197332D01*
X0035050Y0201268D01*
X0032268Y0204050D01*
X0028332Y0204050D01*
X0025896Y0201614D02*
X0024986Y0201614D01*
X0025250Y0200015D02*
X0025550Y0200015D01*
X0025550Y0198417D02*
X0025250Y0198417D01*
X0024819Y0196818D02*
X0026064Y0196818D01*
X0027663Y0195220D02*
X0023220Y0195220D01*
X0015781Y0196818D02*
X0006600Y0196818D01*
X0006600Y0198417D02*
X0015350Y0198417D01*
X0015350Y0200015D02*
X0006600Y0200015D01*
X0006600Y0201614D02*
X0015614Y0201614D01*
X0017212Y0203212D02*
X0006600Y0203212D01*
X0006600Y0204811D02*
X0052320Y0204811D01*
X0052646Y0204024D02*
X0054024Y0202646D01*
X0055825Y0201900D01*
X0057775Y0201900D01*
X0059576Y0202646D01*
X0060954Y0204024D01*
X0061700Y0205825D01*
X0061700Y0207775D01*
X0060954Y0209576D01*
X0059576Y0210954D01*
X0057775Y0211700D01*
X0055825Y0211700D01*
X0054024Y0210954D01*
X0052646Y0209576D01*
X0051900Y0207775D01*
X0051900Y0205825D01*
X0052646Y0204024D01*
X0053458Y0203212D02*
X0033105Y0203212D01*
X0034704Y0201614D02*
X0208220Y0201614D01*
X0209818Y0203212D02*
X0100142Y0203212D01*
X0101603Y0208008D02*
X0177748Y0208008D01*
X0177600Y0209606D02*
X0100923Y0209606D01*
X0098970Y0211205D02*
X0177600Y0211205D01*
X0177600Y0212803D02*
X0035050Y0212803D01*
X0035050Y0212332D02*
X0032268Y0209550D01*
X0028332Y0209550D01*
X0025550Y0212332D01*
X0025550Y0216268D01*
X0028332Y0219050D01*
X0032268Y0219050D01*
X0035050Y0216268D01*
X0035050Y0212332D01*
X0033922Y0211205D02*
X0054630Y0211205D01*
X0052677Y0209606D02*
X0032324Y0209606D01*
X0028276Y0209606D02*
X0022324Y0209606D01*
X0022268Y0209550D02*
X0025050Y0212332D01*
X0025050Y0216268D01*
X0022268Y0219050D01*
X0018332Y0219050D01*
X0015550Y0216268D01*
X0015550Y0212332D01*
X0018332Y0209550D01*
X0022268Y0209550D01*
X0023922Y0211205D02*
X0026677Y0211205D01*
X0025550Y0212803D02*
X0025050Y0212803D01*
X0025050Y0214402D02*
X0025550Y0214402D01*
X0025550Y0216001D02*
X0025050Y0216001D01*
X0023718Y0217599D02*
X0026882Y0217599D01*
X0033718Y0217599D02*
X0179059Y0217599D01*
X0177917Y0216001D02*
X0035050Y0216001D01*
X0035050Y0214402D02*
X0177600Y0214402D01*
X0184541Y0217599D02*
X0189059Y0217599D01*
X0189421Y0217961D02*
X0188239Y0216779D01*
X0187600Y0215235D01*
X0187600Y0208365D01*
X0188239Y0206821D01*
X0189421Y0205639D01*
X0190965Y0205000D01*
X0192635Y0205000D01*
X0194179Y0205639D01*
X0195361Y0206821D01*
X0196000Y0208365D01*
X0196000Y0215235D01*
X0195361Y0216779D01*
X0194179Y0217961D01*
X0192635Y0218600D01*
X0190965Y0218600D01*
X0189421Y0217961D01*
X0187917Y0216001D02*
X0185683Y0216001D01*
X0186000Y0214402D02*
X0187600Y0214402D01*
X0187600Y0212803D02*
X0186000Y0212803D01*
X0186000Y0211205D02*
X0187600Y0211205D01*
X0187600Y0209606D02*
X0186000Y0209606D01*
X0185852Y0208008D02*
X0187748Y0208008D01*
X0188651Y0206409D02*
X0184949Y0206409D01*
X0194949Y0206409D02*
X0198651Y0206409D01*
X0197748Y0208008D02*
X0195852Y0208008D01*
X0196000Y0209606D02*
X0197600Y0209606D01*
X0197600Y0211205D02*
X0196000Y0211205D01*
X0196000Y0212803D02*
X0197600Y0212803D01*
X0197600Y0214402D02*
X0196000Y0214402D01*
X0195683Y0216001D02*
X0197917Y0216001D01*
X0199059Y0217599D02*
X0194541Y0217599D01*
X0204541Y0217599D02*
X0214778Y0217599D01*
X0214977Y0217400D02*
X0212400Y0219977D01*
X0212400Y0221800D01*
X0216800Y0221800D01*
X0216800Y0221800D01*
X0216800Y0226200D01*
X0218623Y0226200D01*
X0221200Y0223623D01*
X0221200Y0221800D01*
X0216800Y0221800D01*
X0216800Y0221800D01*
X0216800Y0221800D01*
X0216800Y0226200D01*
X0214977Y0226200D01*
X0212400Y0223623D01*
X0212400Y0221800D01*
X0216800Y0221800D01*
X0221200Y0221800D01*
X0221200Y0219977D01*
X0218623Y0217400D01*
X0216800Y0217400D01*
X0216800Y0221800D01*
X0216800Y0221800D01*
X0216800Y0217400D01*
X0214977Y0217400D01*
X0216800Y0217599D02*
X0216800Y0217599D01*
X0216800Y0219198D02*
X0216800Y0219198D01*
X0216800Y0220796D02*
X0216800Y0220796D01*
X0216800Y0222395D02*
X0216800Y0222395D01*
X0216800Y0223993D02*
X0216800Y0223993D01*
X0216800Y0225592D02*
X0216800Y0225592D01*
X0219231Y0225592D02*
X0289400Y0225592D01*
X0289400Y0227190D02*
X0101700Y0227190D01*
X0101700Y0227775D02*
X0100954Y0229576D01*
X0099576Y0230954D01*
X0097775Y0231700D01*
X0095825Y0231700D01*
X0094024Y0230954D01*
X0092646Y0229576D01*
X0091900Y0227775D01*
X0091900Y0225825D01*
X0092646Y0224024D01*
X0094024Y0222646D01*
X0095825Y0221900D01*
X0097775Y0221900D01*
X0099576Y0222646D01*
X0100954Y0224024D01*
X0101700Y0225825D01*
X0101700Y0227775D01*
X0101280Y0228789D02*
X0289400Y0228789D01*
X0289400Y0230387D02*
X0100143Y0230387D01*
X0101603Y0225592D02*
X0214369Y0225592D01*
X0212771Y0223993D02*
X0100923Y0223993D01*
X0098969Y0222395D02*
X0212400Y0222395D01*
X0212400Y0220796D02*
X0006600Y0220796D01*
X0006600Y0219198D02*
X0213180Y0219198D01*
X0218822Y0217599D02*
X0237400Y0217599D01*
X0237400Y0216001D02*
X0205683Y0216001D01*
X0206000Y0214402D02*
X0237975Y0214402D01*
X0239574Y0212803D02*
X0206000Y0212803D01*
X0206621Y0200015D02*
X0035050Y0200015D01*
X0035050Y0198417D02*
X0205023Y0198417D01*
X0203424Y0196818D02*
X0034536Y0196818D01*
X0032937Y0195220D02*
X0059280Y0195220D01*
X0064320Y0195220D02*
X0074280Y0195220D01*
X0072682Y0193621D02*
X0065918Y0193621D01*
X0066000Y0192023D02*
X0072600Y0192023D01*
X0072600Y0190424D02*
X0066000Y0190424D01*
X0064766Y0188826D02*
X0073834Y0188826D01*
X0079320Y0195220D02*
X0201826Y0195220D01*
X0208614Y0195220D02*
X0214280Y0195220D01*
X0229227Y0180833D02*
X0245427Y0180833D01*
X0244421Y0182432D02*
X0230826Y0182432D01*
X0232424Y0184030D02*
X0244200Y0184030D01*
X0244611Y0185629D02*
X0234023Y0185629D01*
X0235621Y0187227D02*
X0245888Y0187227D01*
X0252210Y0192023D02*
X0273229Y0192023D01*
X0274200Y0193621D02*
X0252600Y0193621D01*
X0252358Y0195220D02*
X0274442Y0195220D01*
X0275479Y0196818D02*
X0251321Y0196818D01*
X0267200Y0182600D02*
X0278400Y0193800D01*
X0267200Y0182600D02*
X0267200Y0157400D01*
X0251800Y0142000D01*
X0251800Y0141800D01*
X0241800Y0131800D01*
X0241082Y0134476D02*
X0207518Y0134476D01*
X0205919Y0136075D02*
X0242681Y0136075D01*
X0244279Y0137673D02*
X0204321Y0137673D01*
X0202722Y0139272D02*
X0245878Y0139272D01*
X0247476Y0140870D02*
X0201124Y0140870D01*
X0199525Y0142469D02*
X0249075Y0142469D01*
X0250473Y0144068D02*
X0225007Y0144068D01*
X0226000Y0145060D02*
X0223540Y0142600D01*
X0220060Y0142600D01*
X0217600Y0145060D01*
X0217600Y0148540D01*
X0220060Y0151000D01*
X0223540Y0151000D01*
X0226000Y0148540D01*
X0226000Y0145060D01*
X0226000Y0145666D02*
X0252072Y0145666D01*
X0253670Y0147265D02*
X0226000Y0147265D01*
X0225677Y0148863D02*
X0255269Y0148863D01*
X0256867Y0150462D02*
X0224078Y0150462D01*
X0219522Y0150462D02*
X0194078Y0150462D01*
X0195677Y0148863D02*
X0217923Y0148863D01*
X0217600Y0147265D02*
X0196000Y0147265D01*
X0196328Y0145666D02*
X0217600Y0145666D01*
X0218593Y0144068D02*
X0197927Y0144068D01*
X0195934Y0139272D02*
X0185268Y0139272D01*
X0184040Y0140500D02*
X0186500Y0138040D01*
X0186500Y0134560D01*
X0184040Y0132100D01*
X0180560Y0132100D01*
X0178100Y0134560D01*
X0178100Y0138040D01*
X0180560Y0140500D01*
X0184040Y0140500D01*
X0186500Y0137673D02*
X0197532Y0137673D01*
X0199131Y0136075D02*
X0186500Y0136075D01*
X0186416Y0134476D02*
X0200729Y0134476D01*
X0202328Y0132878D02*
X0184818Y0132878D01*
X0179782Y0132878D02*
X0154818Y0132878D01*
X0156416Y0134476D02*
X0178184Y0134476D01*
X0178100Y0136075D02*
X0156500Y0136075D01*
X0156500Y0137673D02*
X0178100Y0137673D01*
X0179332Y0139272D02*
X0155268Y0139272D01*
X0154598Y0153659D02*
X0179002Y0153659D01*
X0194189Y0163250D02*
X0209400Y0163250D01*
X0209400Y0164848D02*
X0195788Y0164848D01*
X0196000Y0166447D02*
X0209400Y0166447D01*
X0209400Y0168045D02*
X0196000Y0168045D01*
X0170636Y0184030D02*
X0035250Y0184030D01*
X0035250Y0182432D02*
X0169464Y0182432D01*
X0224189Y0163250D02*
X0234656Y0163250D01*
X0236254Y0164848D02*
X0225788Y0164848D01*
X0226000Y0166447D02*
X0237853Y0166447D01*
X0239451Y0168045D02*
X0226000Y0168045D01*
X0255663Y0142469D02*
X0387000Y0142469D01*
X0364782Y0190424D02*
X0348818Y0190424D01*
X0350417Y0192023D02*
X0363183Y0192023D01*
X0361585Y0193621D02*
X0352015Y0193621D01*
X0353614Y0195220D02*
X0359986Y0195220D01*
X0358387Y0196818D02*
X0355212Y0196818D01*
X0351621Y0200015D02*
X0345955Y0200015D01*
X0346000Y0201614D02*
X0352600Y0201614D01*
X0352600Y0203212D02*
X0346000Y0203212D01*
X0344729Y0204811D02*
X0353871Y0204811D01*
X0359729Y0204811D02*
X0369645Y0204811D01*
X0369900Y0204194D02*
X0371194Y0202900D01*
X0372885Y0202200D01*
X0380715Y0202200D01*
X0382406Y0202900D01*
X0383700Y0204194D01*
X0384400Y0205885D01*
X0384400Y0207715D01*
X0383700Y0209406D01*
X0382406Y0210700D01*
X0380715Y0211400D01*
X0372885Y0211400D01*
X0371194Y0210700D01*
X0369900Y0209406D01*
X0369200Y0207715D01*
X0369200Y0205885D01*
X0369900Y0204194D01*
X0370882Y0203212D02*
X0361000Y0203212D01*
X0361000Y0201614D02*
X0387000Y0201614D01*
X0387000Y0203212D02*
X0382718Y0203212D01*
X0383955Y0204811D02*
X0387000Y0204811D01*
X0387000Y0206409D02*
X0384400Y0206409D01*
X0384279Y0208008D02*
X0387000Y0208008D01*
X0387000Y0209606D02*
X0383499Y0209606D01*
X0381186Y0211205D02*
X0387000Y0211205D01*
X0387000Y0212803D02*
X0382172Y0212803D01*
X0382406Y0212900D02*
X0383700Y0214194D01*
X0384400Y0215885D01*
X0384400Y0217715D01*
X0383700Y0219406D01*
X0382406Y0220700D01*
X0380715Y0221400D01*
X0372885Y0221400D01*
X0371194Y0220700D01*
X0369900Y0219406D01*
X0369200Y0217715D01*
X0369200Y0215885D01*
X0369900Y0214194D01*
X0371194Y0212900D01*
X0372885Y0212200D01*
X0380715Y0212200D01*
X0382406Y0212900D01*
X0383786Y0214402D02*
X0387000Y0214402D01*
X0387000Y0216001D02*
X0384400Y0216001D01*
X0384400Y0217599D02*
X0387000Y0217599D01*
X0387000Y0219198D02*
X0383786Y0219198D01*
X0382173Y0220796D02*
X0387000Y0220796D01*
X0387000Y0222395D02*
X0381727Y0222395D01*
X0381643Y0222352D02*
X0382316Y0222695D01*
X0382927Y0223139D01*
X0383461Y0223673D01*
X0383905Y0224284D01*
X0384248Y0224957D01*
X0384482Y0225676D01*
X0384600Y0226422D01*
X0384600Y0226600D01*
X0377000Y0226600D01*
X0377000Y0227000D01*
X0376600Y0227000D01*
X0376600Y0231600D01*
X0373422Y0231600D01*
X0372676Y0231482D01*
X0371957Y0231248D01*
X0371284Y0230905D01*
X0370673Y0230461D01*
X0370139Y0229927D01*
X0369695Y0229316D01*
X0369352Y0228643D01*
X0369118Y0227924D01*
X0369000Y0227178D01*
X0369000Y0227000D01*
X0376600Y0227000D01*
X0376600Y0226600D01*
X0377000Y0226600D01*
X0377000Y0222000D01*
X0380178Y0222000D01*
X0380924Y0222118D01*
X0381643Y0222352D01*
X0383694Y0223993D02*
X0387000Y0223993D01*
X0387000Y0225592D02*
X0384454Y0225592D01*
X0384600Y0227000D02*
X0384600Y0227178D01*
X0384482Y0227924D01*
X0384248Y0228643D01*
X0383905Y0229316D01*
X0383461Y0229927D01*
X0382927Y0230461D01*
X0382316Y0230905D01*
X0381643Y0231248D01*
X0380924Y0231482D01*
X0380178Y0231600D01*
X0377000Y0231600D01*
X0377000Y0227000D01*
X0384600Y0227000D01*
X0384598Y0227190D02*
X0387000Y0227190D01*
X0387000Y0228789D02*
X0384174Y0228789D01*
X0383001Y0230387D02*
X0387000Y0230387D01*
X0387000Y0231986D02*
X0361000Y0231986D01*
X0361000Y0233540D02*
X0358540Y0236000D01*
X0355060Y0236000D01*
X0352600Y0233540D01*
X0352600Y0230060D01*
X0355060Y0227600D01*
X0358540Y0227600D01*
X0361000Y0230060D01*
X0361000Y0233540D01*
X0360956Y0233584D02*
X0387000Y0233584D01*
X0387000Y0235183D02*
X0359357Y0235183D01*
X0361000Y0230387D02*
X0370599Y0230387D01*
X0369426Y0228789D02*
X0359728Y0228789D01*
X0353872Y0228789D02*
X0344728Y0228789D01*
X0343540Y0227600D02*
X0346000Y0230060D01*
X0346000Y0233540D01*
X0343540Y0236000D01*
X0340060Y0236000D01*
X0337600Y0233540D01*
X0337600Y0230060D01*
X0340060Y0227600D01*
X0343540Y0227600D01*
X0346000Y0230387D02*
X0352600Y0230387D01*
X0352600Y0231986D02*
X0346000Y0231986D01*
X0345956Y0233584D02*
X0352644Y0233584D01*
X0354243Y0235183D02*
X0344357Y0235183D01*
X0341774Y0238380D02*
X0387000Y0238380D01*
X0387000Y0239978D02*
X0343372Y0239978D01*
X0344971Y0241577D02*
X0387000Y0241577D01*
X0387000Y0243175D02*
X0346569Y0243175D01*
X0348168Y0244774D02*
X0387000Y0244774D01*
X0387000Y0246372D02*
X0349766Y0246372D01*
X0351365Y0247971D02*
X0387000Y0247971D01*
X0387000Y0249569D02*
X0352963Y0249569D01*
X0354562Y0251168D02*
X0387000Y0251168D01*
X0387000Y0252766D02*
X0356160Y0252766D01*
X0357759Y0254365D02*
X0387000Y0254365D01*
X0387000Y0255963D02*
X0359357Y0255963D01*
X0360956Y0257562D02*
X0387000Y0257562D01*
X0387000Y0259160D02*
X0362554Y0259160D01*
X0364153Y0260759D02*
X0387000Y0260759D01*
X0387000Y0262357D02*
X0365751Y0262357D01*
X0367350Y0263956D02*
X0387000Y0263956D01*
X0387000Y0265554D02*
X0368948Y0265554D01*
X0370547Y0267153D02*
X0387000Y0267153D01*
X0387000Y0268751D02*
X0372145Y0268751D01*
X0373744Y0270350D02*
X0387000Y0270350D01*
X0387000Y0271948D02*
X0375343Y0271948D01*
X0376941Y0273547D02*
X0387000Y0273547D01*
X0387000Y0275145D02*
X0378540Y0275145D01*
X0380138Y0276744D02*
X0387000Y0276744D01*
X0387000Y0278342D02*
X0381737Y0278342D01*
X0383335Y0279941D02*
X0387000Y0279941D01*
X0387000Y0281539D02*
X0384200Y0281539D01*
X0384200Y0283138D02*
X0387000Y0283138D01*
X0387000Y0284737D02*
X0384200Y0284737D01*
X0384200Y0286335D02*
X0387000Y0286335D01*
X0387000Y0287934D02*
X0384200Y0287934D01*
X0384200Y0289532D02*
X0387000Y0289532D01*
X0387000Y0291131D02*
X0384200Y0291131D01*
X0384200Y0292729D02*
X0387000Y0292729D01*
X0387000Y0294328D02*
X0384200Y0294328D01*
X0384200Y0295926D02*
X0387000Y0295926D01*
X0387000Y0297525D02*
X0384200Y0297525D01*
X0384200Y0299123D02*
X0387000Y0299123D01*
X0387000Y0300722D02*
X0384200Y0300722D01*
X0384200Y0302320D02*
X0387000Y0302320D01*
X0387000Y0303919D02*
X0384200Y0303919D01*
X0384200Y0305517D02*
X0387000Y0305517D01*
X0387000Y0307116D02*
X0384200Y0307116D01*
X0384200Y0308714D02*
X0387000Y0308714D01*
X0387000Y0310313D02*
X0384200Y0310313D01*
X0384200Y0311911D02*
X0387000Y0311911D01*
X0387000Y0313510D02*
X0384200Y0313510D01*
X0384200Y0315108D02*
X0387000Y0315108D01*
X0387000Y0316707D02*
X0384200Y0316707D01*
X0384200Y0318305D02*
X0387000Y0318305D01*
X0387000Y0319904D02*
X0384200Y0319904D01*
X0384200Y0321502D02*
X0387000Y0321502D01*
X0387000Y0323101D02*
X0384200Y0323101D01*
X0384200Y0324699D02*
X0387000Y0324699D01*
X0387000Y0326298D02*
X0384200Y0326298D01*
X0384200Y0327896D02*
X0387000Y0327896D01*
X0387000Y0329495D02*
X0384200Y0329495D01*
X0384200Y0331093D02*
X0387000Y0331093D01*
X0387000Y0332692D02*
X0384200Y0332692D01*
X0384200Y0334290D02*
X0387000Y0334290D01*
X0387000Y0335889D02*
X0384200Y0335889D01*
X0384200Y0337487D02*
X0387000Y0337487D01*
X0387000Y0339086D02*
X0384200Y0339086D01*
X0384200Y0340684D02*
X0387000Y0340684D01*
X0387000Y0342283D02*
X0384198Y0342283D01*
X0383113Y0343881D02*
X0387000Y0343881D01*
X0387000Y0345480D02*
X0381514Y0345480D01*
X0379916Y0347078D02*
X0387000Y0347078D01*
X0387000Y0348677D02*
X0378317Y0348677D01*
X0376719Y0350275D02*
X0387000Y0350275D01*
X0387000Y0351874D02*
X0375120Y0351874D01*
X0373522Y0353472D02*
X0387000Y0353472D01*
X0387000Y0355071D02*
X0212069Y0355071D01*
X0211779Y0355361D02*
X0210235Y0356000D01*
X0203365Y0356000D01*
X0201821Y0355361D01*
X0200639Y0354179D01*
X0200000Y0352635D01*
X0200000Y0350965D01*
X0200639Y0349421D01*
X0201821Y0348239D01*
X0203365Y0347600D01*
X0210235Y0347600D01*
X0211779Y0348239D01*
X0212961Y0349421D01*
X0213600Y0350965D01*
X0213600Y0352635D01*
X0212961Y0354179D01*
X0211779Y0355361D01*
X0213253Y0353472D02*
X0260078Y0353472D01*
X0258480Y0351874D02*
X0213600Y0351874D01*
X0213315Y0350275D02*
X0256881Y0350275D01*
X0255283Y0348677D02*
X0212217Y0348677D01*
X0211491Y0345480D02*
X0252086Y0345480D01*
X0253684Y0347078D02*
X0040853Y0347078D01*
X0041881Y0348186D02*
X0044054Y0352698D01*
X0044800Y0357650D01*
X0044054Y0362602D01*
X0041881Y0367114D01*
X0038475Y0370785D01*
X0038475Y0370785D01*
X0034138Y0373289D01*
X0034138Y0373289D01*
X0029255Y0374403D01*
X0024262Y0374029D01*
X0024262Y0374029D01*
X0019600Y0372199D01*
X0015685Y0369077D01*
X0015685Y0369077D01*
X0015685Y0369077D01*
X0012864Y0364939D01*
X0011388Y0360154D01*
X0011388Y0355146D01*
X0012864Y0350361D01*
X0012864Y0350361D01*
X0015685Y0346223D01*
X0019600Y0343101D01*
X0024262Y0341271D01*
X0029255Y0340897D01*
X0029255Y0340897D01*
X0034138Y0342011D01*
X0038475Y0344515D01*
X0041881Y0348186D01*
X0041881Y0348186D01*
X0042117Y0348677D02*
X0061383Y0348677D01*
X0061821Y0348239D02*
X0063365Y0347600D01*
X0070235Y0347600D01*
X0071779Y0348239D01*
X0072961Y0349421D01*
X0073600Y0350965D01*
X0073600Y0352635D01*
X0072961Y0354179D01*
X0071779Y0355361D01*
X0070235Y0356000D01*
X0063365Y0356000D01*
X0061821Y0355361D01*
X0060639Y0354179D01*
X0060000Y0352635D01*
X0060000Y0350965D01*
X0060639Y0349421D01*
X0061821Y0348239D01*
X0060285Y0350275D02*
X0042887Y0350275D01*
X0043657Y0351874D02*
X0060000Y0351874D01*
X0060347Y0353472D02*
X0044170Y0353472D01*
X0044054Y0352698D02*
X0044054Y0352698D01*
X0044411Y0355071D02*
X0061531Y0355071D01*
X0063365Y0346000D02*
X0061821Y0345361D01*
X0060639Y0344179D01*
X0060558Y0343982D01*
X0058540Y0346000D01*
X0055060Y0346000D01*
X0052600Y0343540D01*
X0052600Y0340060D01*
X0055060Y0337600D01*
X0058540Y0337600D01*
X0060558Y0339618D01*
X0060639Y0339421D01*
X0061821Y0338239D01*
X0063365Y0337600D01*
X0070235Y0337600D01*
X0071779Y0338239D01*
X0072961Y0339421D01*
X0073600Y0340965D01*
X0073600Y0342635D01*
X0072961Y0344179D01*
X0071779Y0345361D01*
X0070235Y0346000D01*
X0063365Y0346000D01*
X0062109Y0345480D02*
X0059060Y0345480D01*
X0054540Y0345480D02*
X0039370Y0345480D01*
X0038475Y0344515D02*
X0038475Y0344515D01*
X0038475Y0344515D01*
X0037377Y0343881D02*
X0052942Y0343881D01*
X0052600Y0342283D02*
X0034608Y0342283D01*
X0034138Y0342011D02*
X0034138Y0342011D01*
X0024262Y0341271D02*
X0024262Y0341271D01*
X0021684Y0342283D02*
X0006600Y0342283D01*
X0006600Y0343881D02*
X0018621Y0343881D01*
X0019600Y0343101D02*
X0019600Y0343101D01*
X0016617Y0345480D02*
X0006600Y0345480D01*
X0006600Y0347078D02*
X0015102Y0347078D01*
X0015685Y0346223D02*
X0015685Y0346223D01*
X0015685Y0346223D01*
X0014012Y0348677D02*
X0006600Y0348677D01*
X0006600Y0350275D02*
X0012922Y0350275D01*
X0012397Y0351874D02*
X0006600Y0351874D01*
X0006600Y0353472D02*
X0011904Y0353472D01*
X0011411Y0355071D02*
X0006600Y0355071D01*
X0006600Y0356670D02*
X0011388Y0356670D01*
X0011388Y0358268D02*
X0006600Y0358268D01*
X0006600Y0359867D02*
X0011388Y0359867D01*
X0011792Y0361465D02*
X0006600Y0361465D01*
X0006600Y0363064D02*
X0012285Y0363064D01*
X0012778Y0364662D02*
X0006600Y0364662D01*
X0006600Y0366261D02*
X0013765Y0366261D01*
X0012864Y0364939D02*
X0012864Y0364939D01*
X0014854Y0367859D02*
X0006600Y0367859D01*
X0006600Y0369458D02*
X0016162Y0369458D01*
X0018167Y0371056D02*
X0006600Y0371056D01*
X0006600Y0372655D02*
X0020760Y0372655D01*
X0019600Y0372199D02*
X0019600Y0372199D01*
X0027256Y0374253D02*
X0006600Y0374253D01*
X0006600Y0375852D02*
X0387000Y0375852D01*
X0387000Y0374253D02*
X0029912Y0374253D01*
X0029255Y0374403D02*
X0029255Y0374403D01*
X0035236Y0372655D02*
X0387000Y0372655D01*
X0387000Y0371056D02*
X0038005Y0371056D01*
X0039706Y0369458D02*
X0387000Y0369458D01*
X0387000Y0367859D02*
X0041189Y0367859D01*
X0041881Y0367114D02*
X0041881Y0367114D01*
X0042292Y0366261D02*
X0387000Y0366261D01*
X0387000Y0364662D02*
X0043061Y0364662D01*
X0043831Y0363064D02*
X0387000Y0363064D01*
X0387000Y0361465D02*
X0044225Y0361465D01*
X0044054Y0362602D02*
X0044054Y0362602D01*
X0044466Y0359867D02*
X0387000Y0359867D01*
X0387000Y0358268D02*
X0044707Y0358268D01*
X0044652Y0356670D02*
X0387000Y0356670D01*
X0381800Y0341800D02*
X0381800Y0281800D01*
X0331800Y0231800D01*
X0331800Y0211800D01*
X0341800Y0201800D01*
X0344357Y0198417D02*
X0350023Y0198417D01*
X0340585Y0206409D02*
X0369200Y0206409D01*
X0369321Y0208008D02*
X0338986Y0208008D01*
X0337388Y0209606D02*
X0370101Y0209606D01*
X0372414Y0211205D02*
X0335789Y0211205D01*
X0334200Y0212803D02*
X0371428Y0212803D01*
X0369814Y0214402D02*
X0334200Y0214402D01*
X0334200Y0216001D02*
X0369200Y0216001D01*
X0369200Y0217599D02*
X0334200Y0217599D01*
X0334200Y0219198D02*
X0369814Y0219198D01*
X0371427Y0220796D02*
X0334200Y0220796D01*
X0334200Y0222395D02*
X0371873Y0222395D01*
X0371957Y0222352D02*
X0372676Y0222118D01*
X0373422Y0222000D01*
X0376600Y0222000D01*
X0376600Y0226600D01*
X0369000Y0226600D01*
X0369000Y0226422D01*
X0369118Y0225676D01*
X0369352Y0224957D01*
X0369695Y0224284D01*
X0370139Y0223673D01*
X0370673Y0223139D01*
X0371284Y0222695D01*
X0371957Y0222352D01*
X0369906Y0223993D02*
X0334200Y0223993D01*
X0334200Y0225592D02*
X0369146Y0225592D01*
X0369002Y0227190D02*
X0334200Y0227190D01*
X0334200Y0228789D02*
X0338872Y0228789D01*
X0337600Y0230387D02*
X0334200Y0230387D01*
X0335380Y0231986D02*
X0337600Y0231986D01*
X0337644Y0233584D02*
X0336978Y0233584D01*
X0338577Y0235183D02*
X0339243Y0235183D01*
X0340175Y0236781D02*
X0387000Y0236781D01*
X0377000Y0230387D02*
X0376600Y0230387D01*
X0376600Y0228789D02*
X0377000Y0228789D01*
X0377000Y0227190D02*
X0376600Y0227190D01*
X0376600Y0225592D02*
X0377000Y0225592D01*
X0377000Y0223993D02*
X0376600Y0223993D01*
X0376600Y0222395D02*
X0377000Y0222395D01*
X0387000Y0200015D02*
X0361979Y0200015D01*
X0363577Y0198417D02*
X0387000Y0198417D01*
X0387000Y0196818D02*
X0365176Y0196818D01*
X0366774Y0195220D02*
X0387000Y0195220D01*
X0387000Y0193621D02*
X0368373Y0193621D01*
X0369971Y0192023D02*
X0387000Y0192023D01*
X0319400Y0236781D02*
X0290213Y0236781D01*
X0288614Y0238380D02*
X0319400Y0238380D01*
X0319400Y0239978D02*
X0287016Y0239978D01*
X0285417Y0241577D02*
X0319400Y0241577D01*
X0319400Y0243175D02*
X0283819Y0243175D01*
X0282220Y0244774D02*
X0319400Y0244774D01*
X0319400Y0246372D02*
X0280622Y0246372D01*
X0279023Y0247971D02*
X0319400Y0247971D01*
X0319400Y0249569D02*
X0277425Y0249569D01*
X0275826Y0251168D02*
X0319400Y0251168D01*
X0319400Y0252766D02*
X0274228Y0252766D01*
X0274200Y0254365D02*
X0319400Y0254365D01*
X0319400Y0255963D02*
X0274200Y0255963D01*
X0274200Y0257562D02*
X0319400Y0257562D01*
X0319400Y0259160D02*
X0274200Y0259160D01*
X0274200Y0260759D02*
X0319400Y0260759D01*
X0319400Y0262357D02*
X0274200Y0262357D01*
X0274200Y0263956D02*
X0319400Y0263956D01*
X0319400Y0265554D02*
X0274200Y0265554D01*
X0274200Y0267153D02*
X0319400Y0267153D01*
X0319400Y0268751D02*
X0274200Y0268751D01*
X0274200Y0270350D02*
X0319400Y0270350D01*
X0319400Y0271948D02*
X0274200Y0271948D01*
X0273447Y0273547D02*
X0319400Y0273547D01*
X0319400Y0275145D02*
X0271849Y0275145D01*
X0270250Y0276744D02*
X0319400Y0276744D01*
X0319400Y0278342D02*
X0268652Y0278342D01*
X0267053Y0279941D02*
X0319400Y0279941D01*
X0319400Y0281539D02*
X0265455Y0281539D01*
X0264200Y0283138D02*
X0319400Y0283138D01*
X0319400Y0284737D02*
X0264200Y0284737D01*
X0264200Y0286335D02*
X0319400Y0286335D01*
X0319400Y0287934D02*
X0264200Y0287934D01*
X0264200Y0289532D02*
X0319400Y0289532D01*
X0319400Y0291131D02*
X0264200Y0291131D01*
X0264200Y0292729D02*
X0319400Y0292729D01*
X0319400Y0294328D02*
X0264200Y0294328D01*
X0264200Y0295926D02*
X0319400Y0295926D01*
X0319400Y0297525D02*
X0264200Y0297525D01*
X0264200Y0299123D02*
X0319400Y0299123D01*
X0319400Y0300722D02*
X0264200Y0300722D01*
X0264182Y0302320D02*
X0319400Y0302320D01*
X0319400Y0303919D02*
X0263075Y0303919D01*
X0261477Y0305517D02*
X0319400Y0305517D01*
X0319400Y0307116D02*
X0259878Y0307116D01*
X0258280Y0308714D02*
X0319400Y0308714D01*
X0319400Y0310313D02*
X0256681Y0310313D01*
X0255083Y0311911D02*
X0319400Y0311911D01*
X0319400Y0313510D02*
X0254200Y0313510D01*
X0254200Y0315108D02*
X0319400Y0315108D01*
X0319400Y0316707D02*
X0254200Y0316707D01*
X0254200Y0318305D02*
X0319400Y0318305D01*
X0319400Y0319904D02*
X0254200Y0319904D01*
X0254200Y0321502D02*
X0319400Y0321502D01*
X0319400Y0323101D02*
X0254200Y0323101D01*
X0254200Y0324699D02*
X0319400Y0324699D01*
X0318563Y0326298D02*
X0314637Y0326298D01*
X0315161Y0326821D02*
X0313979Y0325639D01*
X0312435Y0325000D01*
X0310765Y0325000D01*
X0309221Y0325639D01*
X0308039Y0326821D01*
X0307400Y0328365D01*
X0307400Y0335235D01*
X0308039Y0336779D01*
X0309221Y0337961D01*
X0310765Y0338600D01*
X0312435Y0338600D01*
X0313979Y0337961D01*
X0315161Y0336779D01*
X0315800Y0335235D01*
X0315800Y0328365D01*
X0315161Y0326821D01*
X0315606Y0327896D02*
X0317594Y0327896D01*
X0317400Y0329495D02*
X0315800Y0329495D01*
X0315800Y0331093D02*
X0317400Y0331093D01*
X0317400Y0332692D02*
X0315800Y0332692D01*
X0315800Y0334290D02*
X0317400Y0334290D01*
X0317671Y0335889D02*
X0315529Y0335889D01*
X0314452Y0337487D02*
X0318748Y0337487D01*
X0324452Y0337487D02*
X0328748Y0337487D01*
X0327671Y0335889D02*
X0325529Y0335889D01*
X0325800Y0334290D02*
X0327400Y0334290D01*
X0327400Y0332692D02*
X0325800Y0332692D01*
X0334452Y0337487D02*
X0338748Y0337487D01*
X0339221Y0337961D02*
X0338039Y0336779D01*
X0337400Y0335235D01*
X0337400Y0328365D01*
X0338039Y0326821D01*
X0339221Y0325639D01*
X0340765Y0325000D01*
X0342435Y0325000D01*
X0343979Y0325639D01*
X0345161Y0326821D01*
X0345800Y0328365D01*
X0345800Y0335235D01*
X0345161Y0336779D01*
X0343979Y0337961D01*
X0342435Y0338600D01*
X0340765Y0338600D01*
X0339221Y0337961D01*
X0337671Y0335889D02*
X0335529Y0335889D01*
X0335800Y0334290D02*
X0337400Y0334290D01*
X0337400Y0332692D02*
X0335800Y0332692D01*
X0335800Y0331093D02*
X0337400Y0331093D01*
X0337400Y0329495D02*
X0335800Y0329495D01*
X0335606Y0327896D02*
X0337594Y0327896D01*
X0338563Y0326298D02*
X0334637Y0326298D01*
X0344637Y0326298D02*
X0348562Y0326298D01*
X0348039Y0326821D02*
X0349221Y0325639D01*
X0350765Y0325000D01*
X0352435Y0325000D01*
X0353979Y0325639D01*
X0355161Y0326821D01*
X0355800Y0328365D01*
X0355800Y0335235D01*
X0355161Y0336779D01*
X0353979Y0337961D01*
X0352435Y0338600D01*
X0350765Y0338600D01*
X0349221Y0337961D01*
X0348039Y0336779D01*
X0347400Y0335235D01*
X0347400Y0328365D01*
X0348039Y0326821D01*
X0347594Y0327896D02*
X0345606Y0327896D01*
X0345800Y0329495D02*
X0347400Y0329495D01*
X0347400Y0331093D02*
X0345800Y0331093D01*
X0345800Y0332692D02*
X0347400Y0332692D01*
X0347400Y0334290D02*
X0345800Y0334290D01*
X0345529Y0335889D02*
X0347671Y0335889D01*
X0348748Y0337487D02*
X0344452Y0337487D01*
X0354452Y0337487D02*
X0379400Y0337487D01*
X0379400Y0335889D02*
X0355529Y0335889D01*
X0355800Y0334290D02*
X0379400Y0334290D01*
X0379400Y0332692D02*
X0355800Y0332692D01*
X0355800Y0331093D02*
X0379400Y0331093D01*
X0379400Y0329495D02*
X0355800Y0329495D01*
X0355606Y0327896D02*
X0379400Y0327896D01*
X0379400Y0326298D02*
X0354637Y0326298D01*
X0374726Y0345480D02*
X0258874Y0345480D01*
X0260473Y0347078D02*
X0373127Y0347078D01*
X0371529Y0348677D02*
X0262071Y0348677D01*
X0261800Y0351800D02*
X0371800Y0351800D01*
X0381800Y0341800D01*
X0379400Y0340684D02*
X0254078Y0340684D01*
X0252480Y0339086D02*
X0379400Y0339086D01*
X0377923Y0342283D02*
X0255677Y0342283D01*
X0257276Y0343881D02*
X0376324Y0343881D01*
X0308748Y0337487D02*
X0304452Y0337487D01*
X0303979Y0337961D02*
X0305161Y0336779D01*
X0305800Y0335235D01*
X0305800Y0328365D01*
X0305161Y0326821D01*
X0303979Y0325639D01*
X0302435Y0325000D01*
X0300765Y0325000D01*
X0299221Y0325639D01*
X0298039Y0326821D01*
X0297400Y0328365D01*
X0297400Y0335235D01*
X0298039Y0336779D01*
X0299221Y0337961D01*
X0300765Y0338600D01*
X0302435Y0338600D01*
X0303979Y0337961D01*
X0305529Y0335889D02*
X0307671Y0335889D01*
X0307400Y0334290D02*
X0305800Y0334290D01*
X0305800Y0332692D02*
X0307400Y0332692D01*
X0307400Y0331093D02*
X0305800Y0331093D01*
X0305800Y0329495D02*
X0307400Y0329495D01*
X0307594Y0327896D02*
X0305606Y0327896D01*
X0304637Y0326298D02*
X0308563Y0326298D01*
X0298563Y0326298D02*
X0294637Y0326298D01*
X0295161Y0326821D02*
X0295800Y0328365D01*
X0295800Y0335235D01*
X0295161Y0336779D01*
X0293979Y0337961D01*
X0292435Y0338600D01*
X0290765Y0338600D01*
X0289221Y0337961D01*
X0288039Y0336779D01*
X0287400Y0335235D01*
X0287400Y0328365D01*
X0288039Y0326821D01*
X0289221Y0325639D01*
X0290765Y0325000D01*
X0292435Y0325000D01*
X0293979Y0325639D01*
X0295161Y0326821D01*
X0295606Y0327896D02*
X0297594Y0327896D01*
X0297400Y0329495D02*
X0295800Y0329495D01*
X0295800Y0331093D02*
X0297400Y0331093D01*
X0297400Y0332692D02*
X0295800Y0332692D01*
X0295800Y0334290D02*
X0297400Y0334290D01*
X0297671Y0335889D02*
X0295529Y0335889D01*
X0294452Y0337487D02*
X0298748Y0337487D01*
X0288748Y0337487D02*
X0284452Y0337487D01*
X0283979Y0337961D02*
X0285161Y0336779D01*
X0285800Y0335235D01*
X0285800Y0328365D01*
X0285161Y0326821D01*
X0283979Y0325639D01*
X0282435Y0325000D01*
X0280765Y0325000D01*
X0279221Y0325639D01*
X0278039Y0326821D01*
X0277400Y0328365D01*
X0277400Y0335235D01*
X0278039Y0336779D01*
X0279221Y0337961D01*
X0280765Y0338600D01*
X0282435Y0338600D01*
X0283979Y0337961D01*
X0285529Y0335889D02*
X0287671Y0335889D01*
X0287400Y0334290D02*
X0285800Y0334290D01*
X0285800Y0332692D02*
X0287400Y0332692D01*
X0287400Y0331093D02*
X0285800Y0331093D01*
X0285800Y0329495D02*
X0287400Y0329495D01*
X0287594Y0327896D02*
X0285606Y0327896D01*
X0284637Y0326298D02*
X0288563Y0326298D01*
X0278563Y0326298D02*
X0274637Y0326298D01*
X0275161Y0326821D02*
X0275800Y0328365D01*
X0275800Y0335235D01*
X0275161Y0336779D01*
X0273979Y0337961D01*
X0272435Y0338600D01*
X0270765Y0338600D01*
X0269221Y0337961D01*
X0268039Y0336779D01*
X0267400Y0335235D01*
X0267400Y0328365D01*
X0268039Y0326821D01*
X0269221Y0325639D01*
X0270765Y0325000D01*
X0272435Y0325000D01*
X0273979Y0325639D01*
X0275161Y0326821D01*
X0275606Y0327896D02*
X0277594Y0327896D01*
X0277400Y0329495D02*
X0275800Y0329495D01*
X0275800Y0331093D02*
X0277400Y0331093D01*
X0277400Y0332692D02*
X0275800Y0332692D01*
X0275800Y0334290D02*
X0277400Y0334290D01*
X0277671Y0335889D02*
X0275529Y0335889D01*
X0274452Y0337487D02*
X0278748Y0337487D01*
X0268748Y0337487D02*
X0264735Y0337487D01*
X0264956Y0337266D02*
X0264466Y0337756D01*
X0263906Y0338163D01*
X0263289Y0338478D01*
X0262630Y0338692D01*
X0261946Y0338800D01*
X0261600Y0338800D01*
X0261600Y0331800D01*
X0266000Y0331800D01*
X0266000Y0334746D01*
X0265892Y0335430D01*
X0265678Y0336089D01*
X0265363Y0336706D01*
X0264956Y0337266D01*
X0265743Y0335889D02*
X0267671Y0335889D01*
X0267400Y0334290D02*
X0266000Y0334290D01*
X0266000Y0332692D02*
X0267400Y0332692D01*
X0267400Y0331093D02*
X0266000Y0331093D01*
X0266000Y0331800D02*
X0261600Y0331800D01*
X0261600Y0331800D01*
X0261600Y0331800D01*
X0261600Y0324800D01*
X0261946Y0324800D01*
X0262630Y0324908D01*
X0263289Y0325122D01*
X0263906Y0325437D01*
X0264466Y0325844D01*
X0264956Y0326334D01*
X0265363Y0326894D01*
X0265678Y0327511D01*
X0265892Y0328170D01*
X0266000Y0328854D01*
X0266000Y0331800D01*
X0266000Y0329495D02*
X0267400Y0329495D01*
X0267594Y0327896D02*
X0265803Y0327896D01*
X0264920Y0326298D02*
X0268563Y0326298D01*
X0261600Y0326298D02*
X0261600Y0326298D01*
X0261600Y0324800D02*
X0261600Y0331800D01*
X0261600Y0331800D01*
X0261600Y0331800D01*
X0257200Y0331800D01*
X0257200Y0334746D01*
X0257308Y0335430D01*
X0257522Y0336089D01*
X0257837Y0336706D01*
X0258244Y0337266D01*
X0258734Y0337756D01*
X0259294Y0338163D01*
X0259911Y0338478D01*
X0260570Y0338692D01*
X0261254Y0338800D01*
X0261600Y0338800D01*
X0261600Y0331800D01*
X0257200Y0331800D01*
X0257200Y0328854D01*
X0257308Y0328170D01*
X0257522Y0327511D01*
X0257837Y0326894D01*
X0258244Y0326334D01*
X0258734Y0325844D01*
X0259294Y0325437D01*
X0259911Y0325122D01*
X0260570Y0324908D01*
X0261254Y0324800D01*
X0261600Y0324800D01*
X0261600Y0327896D02*
X0261600Y0327896D01*
X0261600Y0329495D02*
X0261600Y0329495D01*
X0261600Y0331093D02*
X0261600Y0331093D01*
X0261600Y0332692D02*
X0261600Y0332692D01*
X0261600Y0334290D02*
X0261600Y0334290D01*
X0261600Y0335889D02*
X0261600Y0335889D01*
X0261600Y0337487D02*
X0261600Y0337487D01*
X0258465Y0337487D02*
X0254452Y0337487D01*
X0255529Y0335889D02*
X0257457Y0335889D01*
X0257200Y0334290D02*
X0255800Y0334290D01*
X0255800Y0332692D02*
X0257200Y0332692D01*
X0257200Y0331093D02*
X0255800Y0331093D01*
X0255800Y0329495D02*
X0257200Y0329495D01*
X0257397Y0327896D02*
X0255606Y0327896D01*
X0254637Y0326298D02*
X0258280Y0326298D01*
X0251800Y0331600D02*
X0251600Y0331800D01*
X0251800Y0331600D02*
X0251800Y0311800D01*
X0261800Y0301800D01*
X0261800Y0281800D01*
X0271800Y0271800D01*
X0271800Y0251800D01*
X0291800Y0231800D01*
X0288220Y0231986D02*
X0006600Y0231986D01*
X0006600Y0233584D02*
X0286622Y0233584D01*
X0285023Y0235183D02*
X0006600Y0235183D01*
X0006600Y0236781D02*
X0283425Y0236781D01*
X0281826Y0238380D02*
X0006600Y0238380D01*
X0006600Y0239978D02*
X0280228Y0239978D01*
X0278629Y0241577D02*
X0006600Y0241577D01*
X0006600Y0243175D02*
X0277031Y0243175D01*
X0275432Y0244774D02*
X0006600Y0244774D01*
X0006600Y0246372D02*
X0273834Y0246372D01*
X0272235Y0247971D02*
X0006600Y0247971D01*
X0006600Y0249569D02*
X0270637Y0249569D01*
X0270441Y0249765D02*
X0270441Y0249765D01*
X0269464Y0251168D02*
X0006600Y0251168D01*
X0006600Y0252766D02*
X0269400Y0252766D01*
X0269400Y0254365D02*
X0006600Y0254365D01*
X0006600Y0255963D02*
X0269400Y0255963D01*
X0269400Y0257562D02*
X0006600Y0257562D01*
X0006600Y0259160D02*
X0083500Y0259160D01*
X0082600Y0260060D02*
X0085060Y0257600D01*
X0088540Y0257600D01*
X0091000Y0260060D01*
X0091000Y0263540D01*
X0088540Y0266000D01*
X0085060Y0266000D01*
X0082600Y0263540D01*
X0082600Y0260060D01*
X0082600Y0260759D02*
X0006600Y0260759D01*
X0006600Y0262357D02*
X0082600Y0262357D01*
X0083016Y0263956D02*
X0006600Y0263956D01*
X0006600Y0265554D02*
X0084615Y0265554D01*
X0088985Y0265554D02*
X0129615Y0265554D01*
X0130060Y0266000D02*
X0127600Y0263540D01*
X0127600Y0260060D01*
X0130060Y0257600D01*
X0133540Y0257600D01*
X0136000Y0260060D01*
X0136000Y0263540D01*
X0133540Y0266000D01*
X0130060Y0266000D01*
X0128016Y0263956D02*
X0090584Y0263956D01*
X0091000Y0262357D02*
X0127600Y0262357D01*
X0127600Y0260759D02*
X0091000Y0260759D01*
X0090100Y0259160D02*
X0128500Y0259160D01*
X0135100Y0259160D02*
X0183500Y0259160D01*
X0182600Y0260060D02*
X0185060Y0257600D01*
X0188540Y0257600D01*
X0191000Y0260060D01*
X0191000Y0263540D01*
X0188540Y0266000D01*
X0185060Y0266000D01*
X0182600Y0263540D01*
X0182600Y0260060D01*
X0182600Y0260759D02*
X0136000Y0260759D01*
X0136000Y0262357D02*
X0182600Y0262357D01*
X0183016Y0263956D02*
X0135584Y0263956D01*
X0133985Y0265554D02*
X0184615Y0265554D01*
X0188985Y0265554D02*
X0219615Y0265554D01*
X0220060Y0266000D02*
X0217600Y0263540D01*
X0217600Y0260060D01*
X0220060Y0257600D01*
X0223540Y0257600D01*
X0226000Y0260060D01*
X0226000Y0263540D01*
X0223540Y0266000D01*
X0220060Y0266000D01*
X0218016Y0263956D02*
X0190584Y0263956D01*
X0191000Y0262357D02*
X0217600Y0262357D01*
X0217600Y0260759D02*
X0191000Y0260759D01*
X0190100Y0259160D02*
X0218500Y0259160D01*
X0225100Y0259160D02*
X0269400Y0259160D01*
X0269400Y0260759D02*
X0226000Y0260759D01*
X0226000Y0262357D02*
X0269400Y0262357D01*
X0269400Y0263956D02*
X0225584Y0263956D01*
X0223985Y0265554D02*
X0269400Y0265554D01*
X0269400Y0267153D02*
X0006600Y0267153D01*
X0006600Y0268751D02*
X0269400Y0268751D01*
X0269400Y0270350D02*
X0006600Y0270350D01*
X0006600Y0271948D02*
X0268257Y0271948D01*
X0266659Y0273547D02*
X0006600Y0273547D01*
X0006600Y0275145D02*
X0265060Y0275145D01*
X0263462Y0276744D02*
X0006600Y0276744D01*
X0006600Y0278342D02*
X0261863Y0278342D01*
X0260265Y0279941D02*
X0006600Y0279941D01*
X0006600Y0281539D02*
X0259400Y0281539D01*
X0259400Y0283138D02*
X0006600Y0283138D01*
X0006600Y0284737D02*
X0259400Y0284737D01*
X0259400Y0286335D02*
X0006600Y0286335D01*
X0006600Y0287934D02*
X0067097Y0287934D01*
X0066894Y0288037D02*
X0067511Y0287722D01*
X0068170Y0287508D01*
X0068854Y0287400D01*
X0071800Y0287400D01*
X0074746Y0287400D01*
X0075430Y0287508D01*
X0076089Y0287722D01*
X0076706Y0288037D01*
X0077266Y0288444D01*
X0077756Y0288934D01*
X0078163Y0289494D01*
X0078478Y0290111D01*
X0078692Y0290770D01*
X0078800Y0291454D01*
X0078800Y0291800D01*
X0078800Y0292146D01*
X0078692Y0292830D01*
X0078478Y0293489D01*
X0078163Y0294106D01*
X0077756Y0294666D01*
X0077266Y0295156D01*
X0076706Y0295563D01*
X0076089Y0295878D01*
X0075430Y0296092D01*
X0074746Y0296200D01*
X0071800Y0296200D01*
X0071800Y0291800D01*
X0071800Y0291800D01*
X0078800Y0291800D01*
X0071800Y0291800D01*
X0071800Y0291800D01*
X0071800Y0296200D01*
X0068854Y0296200D01*
X0068170Y0296092D01*
X0067511Y0295878D01*
X0066894Y0295563D01*
X0066334Y0295156D01*
X0065844Y0294666D01*
X0065437Y0294106D01*
X0065122Y0293489D01*
X0064908Y0292830D01*
X0064800Y0292146D01*
X0064800Y0291800D01*
X0071800Y0291800D01*
X0071800Y0287400D01*
X0071800Y0291800D01*
X0071800Y0291800D01*
X0071800Y0291800D01*
X0064800Y0291800D01*
X0064800Y0291454D01*
X0064908Y0290770D01*
X0065122Y0290111D01*
X0065437Y0289494D01*
X0065844Y0288934D01*
X0066334Y0288444D01*
X0066894Y0288037D01*
X0065417Y0289532D02*
X0006600Y0289532D01*
X0006600Y0291131D02*
X0064851Y0291131D01*
X0064892Y0292729D02*
X0006600Y0292729D01*
X0006600Y0294328D02*
X0065598Y0294328D01*
X0067660Y0295926D02*
X0006600Y0295926D01*
X0006600Y0297525D02*
X0259400Y0297525D01*
X0259400Y0299123D02*
X0212663Y0299123D01*
X0212961Y0299421D02*
X0213600Y0300965D01*
X0213600Y0302635D01*
X0212961Y0304179D01*
X0211779Y0305361D01*
X0210235Y0306000D01*
X0203365Y0306000D01*
X0201821Y0305361D01*
X0200639Y0304179D01*
X0200000Y0302635D01*
X0200000Y0300965D01*
X0200639Y0299421D01*
X0201821Y0298239D01*
X0203365Y0297600D01*
X0210235Y0297600D01*
X0211779Y0298239D01*
X0212961Y0299421D01*
X0213499Y0300722D02*
X0259400Y0300722D01*
X0257886Y0302320D02*
X0213600Y0302320D01*
X0213068Y0303919D02*
X0256287Y0303919D01*
X0254689Y0305517D02*
X0211401Y0305517D01*
X0210235Y0307600D02*
X0211779Y0308239D01*
X0212961Y0309421D01*
X0213600Y0310965D01*
X0213600Y0312635D01*
X0212961Y0314179D01*
X0211779Y0315361D01*
X0210235Y0316000D01*
X0203365Y0316000D01*
X0201821Y0315361D01*
X0200639Y0314179D01*
X0200558Y0313982D01*
X0198540Y0316000D01*
X0195060Y0316000D01*
X0192600Y0313540D01*
X0192600Y0310060D01*
X0195060Y0307600D01*
X0198540Y0307600D01*
X0200558Y0309618D01*
X0200639Y0309421D01*
X0201821Y0308239D01*
X0203365Y0307600D01*
X0210235Y0307600D01*
X0212254Y0308714D02*
X0251492Y0308714D01*
X0253090Y0307116D02*
X0006600Y0307116D01*
X0006600Y0308714D02*
X0053946Y0308714D01*
X0055060Y0307600D02*
X0058540Y0307600D01*
X0061000Y0310060D01*
X0061000Y0313540D01*
X0058540Y0316000D01*
X0055060Y0316000D01*
X0052600Y0313540D01*
X0052600Y0310060D01*
X0055060Y0307600D01*
X0052600Y0310313D02*
X0006600Y0310313D01*
X0006600Y0311911D02*
X0052600Y0311911D01*
X0052600Y0313510D02*
X0006600Y0313510D01*
X0006600Y0315108D02*
X0054169Y0315108D01*
X0059431Y0315108D02*
X0066569Y0315108D01*
X0066821Y0315361D02*
X0065639Y0314179D01*
X0065000Y0312635D01*
X0065000Y0310965D01*
X0065639Y0309421D01*
X0066821Y0308239D01*
X0068365Y0307600D01*
X0075235Y0307600D01*
X0076779Y0308239D01*
X0077961Y0309421D01*
X0078600Y0310965D01*
X0078600Y0312635D01*
X0077961Y0314179D01*
X0076779Y0315361D01*
X0075235Y0316000D01*
X0068365Y0316000D01*
X0066821Y0315361D01*
X0065362Y0313510D02*
X0061000Y0313510D01*
X0061000Y0311911D02*
X0065000Y0311911D01*
X0065270Y0310313D02*
X0061000Y0310313D01*
X0059654Y0308714D02*
X0066346Y0308714D01*
X0067199Y0305517D02*
X0006600Y0305517D01*
X0006600Y0303919D02*
X0065532Y0303919D01*
X0065639Y0304179D02*
X0065000Y0302635D01*
X0065000Y0300965D01*
X0065639Y0299421D01*
X0066821Y0298239D01*
X0068365Y0297600D01*
X0075235Y0297600D01*
X0076779Y0298239D01*
X0077961Y0299421D01*
X0078600Y0300965D01*
X0078600Y0302635D01*
X0077961Y0304179D01*
X0076779Y0305361D01*
X0075235Y0306000D01*
X0068365Y0306000D01*
X0066821Y0305361D01*
X0065639Y0304179D01*
X0065000Y0302320D02*
X0006600Y0302320D01*
X0006600Y0300722D02*
X0065101Y0300722D01*
X0065937Y0299123D02*
X0006600Y0299123D01*
X0006600Y0316707D02*
X0249400Y0316707D01*
X0249400Y0318305D02*
X0006600Y0318305D01*
X0006600Y0319904D02*
X0249400Y0319904D01*
X0249400Y0321502D02*
X0006600Y0321502D01*
X0006600Y0323101D02*
X0249400Y0323101D01*
X0249400Y0324699D02*
X0006600Y0324699D01*
X0006600Y0326298D02*
X0238562Y0326298D01*
X0237594Y0327896D02*
X0006600Y0327896D01*
X0006600Y0329495D02*
X0237400Y0329495D01*
X0237400Y0331093D02*
X0006600Y0331093D01*
X0006600Y0332692D02*
X0237400Y0332692D01*
X0237400Y0334290D02*
X0006600Y0334290D01*
X0006600Y0335889D02*
X0237671Y0335889D01*
X0238748Y0337487D02*
X0006600Y0337487D01*
X0006600Y0339086D02*
X0053574Y0339086D01*
X0052600Y0340684D02*
X0006600Y0340684D01*
X0060026Y0339086D02*
X0060974Y0339086D01*
X0072626Y0339086D02*
X0103574Y0339086D01*
X0102600Y0340060D02*
X0105060Y0337600D01*
X0108540Y0337600D01*
X0110558Y0339618D01*
X0110639Y0339421D01*
X0111821Y0338239D01*
X0113365Y0337600D01*
X0120235Y0337600D01*
X0121779Y0338239D01*
X0122961Y0339421D01*
X0123600Y0340965D01*
X0123600Y0342635D01*
X0122961Y0344179D01*
X0121779Y0345361D01*
X0120235Y0346000D01*
X0113365Y0346000D01*
X0111821Y0345361D01*
X0110639Y0344179D01*
X0110558Y0343982D01*
X0108540Y0346000D01*
X0105060Y0346000D01*
X0102600Y0343540D01*
X0102600Y0340060D01*
X0102600Y0340684D02*
X0073484Y0340684D01*
X0073600Y0342283D02*
X0102600Y0342283D01*
X0102942Y0343881D02*
X0073084Y0343881D01*
X0071491Y0345480D02*
X0104540Y0345480D01*
X0109060Y0345480D02*
X0112109Y0345480D01*
X0113365Y0347600D02*
X0120235Y0347600D01*
X0121779Y0348239D01*
X0122961Y0349421D01*
X0123600Y0350965D01*
X0123600Y0352635D01*
X0122961Y0354179D01*
X0121779Y0355361D01*
X0120235Y0356000D01*
X0113365Y0356000D01*
X0111821Y0355361D01*
X0110639Y0354179D01*
X0110000Y0352635D01*
X0110000Y0350965D01*
X0110639Y0349421D01*
X0111821Y0348239D01*
X0113365Y0347600D01*
X0111383Y0348677D02*
X0072217Y0348677D01*
X0073315Y0350275D02*
X0110285Y0350275D01*
X0110000Y0351874D02*
X0073600Y0351874D01*
X0073253Y0353472D02*
X0110347Y0353472D01*
X0111531Y0355071D02*
X0072069Y0355071D01*
X0110026Y0339086D02*
X0110974Y0339086D01*
X0121491Y0345480D02*
X0154540Y0345480D01*
X0155060Y0346000D02*
X0152600Y0343540D01*
X0152600Y0340060D01*
X0155060Y0337600D01*
X0158540Y0337600D01*
X0160558Y0339618D01*
X0160639Y0339421D01*
X0161821Y0338239D01*
X0163365Y0337600D01*
X0170235Y0337600D01*
X0171779Y0338239D01*
X0172961Y0339421D01*
X0173600Y0340965D01*
X0173600Y0342635D01*
X0172961Y0344179D01*
X0171779Y0345361D01*
X0170235Y0346000D01*
X0163365Y0346000D01*
X0161821Y0345361D01*
X0160639Y0344179D01*
X0160558Y0343982D01*
X0158540Y0346000D01*
X0155060Y0346000D01*
X0152942Y0343881D02*
X0123084Y0343881D01*
X0123600Y0342283D02*
X0152600Y0342283D01*
X0152600Y0340684D02*
X0123484Y0340684D01*
X0122626Y0339086D02*
X0153574Y0339086D01*
X0160026Y0339086D02*
X0160974Y0339086D01*
X0162109Y0345480D02*
X0159060Y0345480D01*
X0161821Y0348239D02*
X0160639Y0349421D01*
X0160000Y0350965D01*
X0160000Y0352635D01*
X0160639Y0354179D01*
X0161821Y0355361D01*
X0163365Y0356000D01*
X0170235Y0356000D01*
X0171779Y0355361D01*
X0172961Y0354179D01*
X0173600Y0352635D01*
X0173600Y0350965D01*
X0172961Y0349421D01*
X0171779Y0348239D01*
X0170235Y0347600D01*
X0163365Y0347600D01*
X0161821Y0348239D01*
X0161383Y0348677D02*
X0122217Y0348677D01*
X0123315Y0350275D02*
X0160285Y0350275D01*
X0160000Y0351874D02*
X0123600Y0351874D01*
X0123253Y0353472D02*
X0160347Y0353472D01*
X0161531Y0355071D02*
X0122069Y0355071D01*
X0120235Y0316000D02*
X0113365Y0316000D01*
X0111821Y0315361D01*
X0110639Y0314179D01*
X0110558Y0313982D01*
X0108540Y0316000D01*
X0105060Y0316000D01*
X0102600Y0313540D01*
X0102600Y0310060D01*
X0105060Y0307600D01*
X0108540Y0307600D01*
X0110558Y0309618D01*
X0110639Y0309421D01*
X0111821Y0308239D01*
X0113365Y0307600D01*
X0120235Y0307600D01*
X0121779Y0308239D01*
X0122961Y0309421D01*
X0123600Y0310965D01*
X0123600Y0312635D01*
X0122961Y0314179D01*
X0121779Y0315361D01*
X0120235Y0316000D01*
X0122031Y0315108D02*
X0154169Y0315108D01*
X0155060Y0316000D02*
X0152600Y0313540D01*
X0152600Y0310060D01*
X0155060Y0307600D01*
X0158540Y0307600D01*
X0161000Y0310060D01*
X0161000Y0313540D01*
X0158540Y0316000D01*
X0155060Y0316000D01*
X0152600Y0313510D02*
X0123238Y0313510D01*
X0123600Y0311911D02*
X0152600Y0311911D01*
X0152600Y0310313D02*
X0123330Y0310313D01*
X0122254Y0308714D02*
X0153946Y0308714D01*
X0159654Y0308714D02*
X0166346Y0308714D01*
X0166821Y0308239D02*
X0168365Y0307600D01*
X0175235Y0307600D01*
X0176779Y0308239D01*
X0177961Y0309421D01*
X0178600Y0310965D01*
X0178600Y0312635D01*
X0177961Y0314179D01*
X0176779Y0315361D01*
X0175235Y0316000D01*
X0168365Y0316000D01*
X0166821Y0315361D01*
X0165639Y0314179D01*
X0165000Y0312635D01*
X0165000Y0310965D01*
X0165639Y0309421D01*
X0166821Y0308239D01*
X0165270Y0310313D02*
X0161000Y0310313D01*
X0161000Y0311911D02*
X0165000Y0311911D01*
X0165362Y0313510D02*
X0161000Y0313510D01*
X0159431Y0315108D02*
X0166569Y0315108D01*
X0177031Y0315108D02*
X0194169Y0315108D01*
X0192600Y0313510D02*
X0178238Y0313510D01*
X0178600Y0311911D02*
X0192600Y0311911D01*
X0192600Y0310313D02*
X0178330Y0310313D01*
X0177254Y0308714D02*
X0193946Y0308714D01*
X0199654Y0308714D02*
X0201346Y0308714D01*
X0202199Y0305517D02*
X0176401Y0305517D01*
X0176779Y0305361D02*
X0175235Y0306000D01*
X0168365Y0306000D01*
X0166821Y0305361D01*
X0165639Y0304179D01*
X0165000Y0302635D01*
X0165000Y0300965D01*
X0165639Y0299421D01*
X0166821Y0298239D01*
X0168365Y0297600D01*
X0175235Y0297600D01*
X0176779Y0298239D01*
X0177961Y0299421D01*
X0178600Y0300965D01*
X0178600Y0302635D01*
X0177961Y0304179D01*
X0176779Y0305361D01*
X0178068Y0303919D02*
X0200532Y0303919D01*
X0200000Y0302320D02*
X0178600Y0302320D01*
X0178499Y0300722D02*
X0200101Y0300722D01*
X0200937Y0299123D02*
X0177663Y0299123D01*
X0176089Y0295878D02*
X0175430Y0296092D01*
X0174746Y0296200D01*
X0171800Y0296200D01*
X0171800Y0291800D01*
X0171800Y0291800D01*
X0178800Y0291800D01*
X0178800Y0292146D01*
X0178692Y0292830D01*
X0178478Y0293489D01*
X0178163Y0294106D01*
X0177756Y0294666D01*
X0177266Y0295156D01*
X0176706Y0295563D01*
X0176089Y0295878D01*
X0175940Y0295926D02*
X0184986Y0295926D01*
X0185060Y0296000D02*
X0182600Y0293540D01*
X0182600Y0290060D01*
X0185060Y0287600D01*
X0188540Y0287600D01*
X0191000Y0290060D01*
X0191000Y0293540D01*
X0188540Y0296000D01*
X0185060Y0296000D01*
X0183388Y0294328D02*
X0178002Y0294328D01*
X0178708Y0292729D02*
X0182600Y0292729D01*
X0182600Y0291131D02*
X0178749Y0291131D01*
X0178800Y0291454D02*
X0178800Y0291800D01*
X0171800Y0291800D01*
X0171800Y0291800D01*
X0171800Y0296200D01*
X0168854Y0296200D01*
X0168170Y0296092D01*
X0167511Y0295878D01*
X0166894Y0295563D01*
X0166334Y0295156D01*
X0165844Y0294666D01*
X0165437Y0294106D01*
X0165122Y0293489D01*
X0164908Y0292830D01*
X0164800Y0292146D01*
X0164800Y0291800D01*
X0171800Y0291800D01*
X0171800Y0287400D01*
X0174746Y0287400D01*
X0175430Y0287508D01*
X0176089Y0287722D01*
X0176706Y0288037D01*
X0177266Y0288444D01*
X0177756Y0288934D01*
X0178163Y0289494D01*
X0178478Y0290111D01*
X0178692Y0290770D01*
X0178800Y0291454D01*
X0178183Y0289532D02*
X0183128Y0289532D01*
X0184727Y0287934D02*
X0176503Y0287934D01*
X0171800Y0287934D02*
X0171800Y0287934D01*
X0171800Y0287400D02*
X0168854Y0287400D01*
X0168170Y0287508D01*
X0167511Y0287722D01*
X0166894Y0288037D01*
X0166334Y0288444D01*
X0165844Y0288934D01*
X0165437Y0289494D01*
X0165122Y0290111D01*
X0164908Y0290770D01*
X0164800Y0291454D01*
X0164800Y0291800D01*
X0171800Y0291800D01*
X0171800Y0291800D01*
X0171800Y0291800D01*
X0171800Y0287400D01*
X0171800Y0289532D02*
X0171800Y0289532D01*
X0171800Y0291131D02*
X0171800Y0291131D01*
X0171800Y0292729D02*
X0171800Y0292729D01*
X0171800Y0294328D02*
X0171800Y0294328D01*
X0171800Y0295926D02*
X0171800Y0295926D01*
X0167660Y0295926D02*
X0133614Y0295926D01*
X0133540Y0296000D02*
X0130060Y0296000D01*
X0127600Y0293540D01*
X0127600Y0290060D01*
X0130060Y0287600D01*
X0133540Y0287600D01*
X0136000Y0290060D01*
X0136000Y0293540D01*
X0133540Y0296000D01*
X0135212Y0294328D02*
X0165598Y0294328D01*
X0164892Y0292729D02*
X0136000Y0292729D01*
X0136000Y0291131D02*
X0164851Y0291131D01*
X0165417Y0289532D02*
X0135472Y0289532D01*
X0133873Y0287934D02*
X0167097Y0287934D01*
X0165937Y0299123D02*
X0122663Y0299123D01*
X0122961Y0299421D02*
X0123600Y0300965D01*
X0123600Y0302635D01*
X0122961Y0304179D01*
X0121779Y0305361D01*
X0120235Y0306000D01*
X0113365Y0306000D01*
X0111821Y0305361D01*
X0110639Y0304179D01*
X0110000Y0302635D01*
X0110000Y0300965D01*
X0110639Y0299421D01*
X0111821Y0298239D01*
X0113365Y0297600D01*
X0120235Y0297600D01*
X0121779Y0298239D01*
X0122961Y0299421D01*
X0123499Y0300722D02*
X0165101Y0300722D01*
X0165000Y0302320D02*
X0123600Y0302320D01*
X0123068Y0303919D02*
X0165532Y0303919D01*
X0167199Y0305517D02*
X0121401Y0305517D01*
X0112199Y0305517D02*
X0076401Y0305517D01*
X0078068Y0303919D02*
X0110532Y0303919D01*
X0110000Y0302320D02*
X0078600Y0302320D01*
X0078499Y0300722D02*
X0110101Y0300722D01*
X0110937Y0299123D02*
X0077663Y0299123D01*
X0075940Y0295926D02*
X0084986Y0295926D01*
X0085060Y0296000D02*
X0082600Y0293540D01*
X0082600Y0290060D01*
X0085060Y0287600D01*
X0088540Y0287600D01*
X0091000Y0290060D01*
X0091000Y0293540D01*
X0088540Y0296000D01*
X0085060Y0296000D01*
X0083388Y0294328D02*
X0078002Y0294328D01*
X0078708Y0292729D02*
X0082600Y0292729D01*
X0082600Y0291131D02*
X0078749Y0291131D01*
X0078183Y0289532D02*
X0083128Y0289532D01*
X0084727Y0287934D02*
X0076503Y0287934D01*
X0071800Y0287934D02*
X0071800Y0287934D01*
X0071800Y0289532D02*
X0071800Y0289532D01*
X0071800Y0291131D02*
X0071800Y0291131D01*
X0071800Y0292729D02*
X0071800Y0292729D01*
X0071800Y0294328D02*
X0071800Y0294328D01*
X0071800Y0295926D02*
X0071800Y0295926D01*
X0077254Y0308714D02*
X0103946Y0308714D01*
X0102600Y0310313D02*
X0078330Y0310313D01*
X0078600Y0311911D02*
X0102600Y0311911D01*
X0102600Y0313510D02*
X0078238Y0313510D01*
X0077031Y0315108D02*
X0104169Y0315108D01*
X0109431Y0315108D02*
X0111569Y0315108D01*
X0111346Y0308714D02*
X0109654Y0308714D01*
X0113170Y0296092D02*
X0112511Y0295878D01*
X0111894Y0295563D01*
X0111334Y0295156D01*
X0110844Y0294666D01*
X0110437Y0294106D01*
X0110122Y0293489D01*
X0109908Y0292830D01*
X0109800Y0292146D01*
X0109800Y0291800D01*
X0116800Y0291800D01*
X0116800Y0291800D01*
X0116800Y0296200D01*
X0119746Y0296200D01*
X0120430Y0296092D01*
X0121089Y0295878D01*
X0121706Y0295563D01*
X0122266Y0295156D01*
X0122756Y0294666D01*
X0123163Y0294106D01*
X0123478Y0293489D01*
X0123692Y0292830D01*
X0123800Y0292146D01*
X0123800Y0291800D01*
X0116800Y0291800D01*
X0116800Y0291800D01*
X0116800Y0296200D01*
X0113854Y0296200D01*
X0113170Y0296092D01*
X0112660Y0295926D02*
X0088614Y0295926D01*
X0090212Y0294328D02*
X0110598Y0294328D01*
X0109892Y0292729D02*
X0091000Y0292729D01*
X0091000Y0291131D02*
X0109851Y0291131D01*
X0109800Y0291454D02*
X0109908Y0290770D01*
X0110122Y0290111D01*
X0110437Y0289494D01*
X0110844Y0288934D01*
X0111334Y0288444D01*
X0111894Y0288037D01*
X0112511Y0287722D01*
X0113170Y0287508D01*
X0113854Y0287400D01*
X0116800Y0287400D01*
X0119746Y0287400D01*
X0120430Y0287508D01*
X0121089Y0287722D01*
X0121706Y0288037D01*
X0122266Y0288444D01*
X0122756Y0288934D01*
X0123163Y0289494D01*
X0123478Y0290111D01*
X0123692Y0290770D01*
X0123800Y0291454D01*
X0123800Y0291800D01*
X0116800Y0291800D01*
X0116800Y0287400D01*
X0116800Y0291800D01*
X0116800Y0291800D01*
X0116800Y0291800D01*
X0109800Y0291800D01*
X0109800Y0291454D01*
X0110417Y0289532D02*
X0090472Y0289532D01*
X0088873Y0287934D02*
X0112097Y0287934D01*
X0116800Y0287934D02*
X0116800Y0287934D01*
X0116800Y0289532D02*
X0116800Y0289532D01*
X0116800Y0291131D02*
X0116800Y0291131D01*
X0116800Y0292729D02*
X0116800Y0292729D01*
X0116800Y0294328D02*
X0116800Y0294328D01*
X0116800Y0295926D02*
X0116800Y0295926D01*
X0120940Y0295926D02*
X0129986Y0295926D01*
X0128388Y0294328D02*
X0123002Y0294328D01*
X0123708Y0292729D02*
X0127600Y0292729D01*
X0127600Y0291131D02*
X0123749Y0291131D01*
X0123183Y0289532D02*
X0128128Y0289532D01*
X0129727Y0287934D02*
X0121503Y0287934D01*
X0172626Y0339086D02*
X0193574Y0339086D01*
X0192600Y0340060D02*
X0195060Y0337600D01*
X0198540Y0337600D01*
X0200558Y0339618D01*
X0200639Y0339421D01*
X0201821Y0338239D01*
X0203365Y0337600D01*
X0210235Y0337600D01*
X0211779Y0338239D01*
X0212961Y0339421D01*
X0213600Y0340965D01*
X0213600Y0342635D01*
X0212961Y0344179D01*
X0211779Y0345361D01*
X0210235Y0346000D01*
X0203365Y0346000D01*
X0201821Y0345361D01*
X0200639Y0344179D01*
X0200558Y0343982D01*
X0198540Y0346000D01*
X0195060Y0346000D01*
X0192600Y0343540D01*
X0192600Y0340060D01*
X0192600Y0340684D02*
X0173484Y0340684D01*
X0173600Y0342283D02*
X0192600Y0342283D01*
X0192942Y0343881D02*
X0173084Y0343881D01*
X0171491Y0345480D02*
X0194540Y0345480D01*
X0199060Y0345480D02*
X0202109Y0345480D01*
X0201383Y0348677D02*
X0172217Y0348677D01*
X0173315Y0350275D02*
X0200285Y0350275D01*
X0200000Y0351874D02*
X0173600Y0351874D01*
X0173253Y0353472D02*
X0200347Y0353472D01*
X0201531Y0355071D02*
X0172069Y0355071D01*
X0200026Y0339086D02*
X0200974Y0339086D01*
X0212626Y0339086D02*
X0245692Y0339086D01*
X0247290Y0340684D02*
X0213484Y0340684D01*
X0213600Y0342283D02*
X0248889Y0342283D01*
X0250487Y0343881D02*
X0213084Y0343881D01*
X0212031Y0315108D02*
X0249400Y0315108D01*
X0249400Y0313510D02*
X0213238Y0313510D01*
X0213600Y0311911D02*
X0249400Y0311911D01*
X0249893Y0310313D02*
X0213330Y0310313D01*
X0201569Y0315108D02*
X0199431Y0315108D01*
X0203170Y0296092D02*
X0202511Y0295878D01*
X0201894Y0295563D01*
X0201334Y0295156D01*
X0200844Y0294666D01*
X0200437Y0294106D01*
X0200122Y0293489D01*
X0199908Y0292830D01*
X0199800Y0292146D01*
X0199800Y0291800D01*
X0206800Y0291800D01*
X0206800Y0291800D01*
X0206800Y0296200D01*
X0209746Y0296200D01*
X0210430Y0296092D01*
X0211089Y0295878D01*
X0211706Y0295563D01*
X0212266Y0295156D01*
X0212756Y0294666D01*
X0213163Y0294106D01*
X0213478Y0293489D01*
X0213692Y0292830D01*
X0213800Y0292146D01*
X0213800Y0291800D01*
X0206800Y0291800D01*
X0206800Y0291800D01*
X0206800Y0296200D01*
X0203854Y0296200D01*
X0203170Y0296092D01*
X0202660Y0295926D02*
X0188614Y0295926D01*
X0190212Y0294328D02*
X0200598Y0294328D01*
X0199892Y0292729D02*
X0191000Y0292729D01*
X0191000Y0291131D02*
X0199851Y0291131D01*
X0199800Y0291454D02*
X0199908Y0290770D01*
X0200122Y0290111D01*
X0200437Y0289494D01*
X0200844Y0288934D01*
X0201334Y0288444D01*
X0201894Y0288037D01*
X0202511Y0287722D01*
X0203170Y0287508D01*
X0203854Y0287400D01*
X0206800Y0287400D01*
X0209746Y0287400D01*
X0210430Y0287508D01*
X0211089Y0287722D01*
X0211706Y0288037D01*
X0212266Y0288444D01*
X0212756Y0288934D01*
X0213163Y0289494D01*
X0213478Y0290111D01*
X0213692Y0290770D01*
X0213800Y0291454D01*
X0213800Y0291800D01*
X0206800Y0291800D01*
X0206800Y0287400D01*
X0206800Y0291800D01*
X0206800Y0291800D01*
X0206800Y0291800D01*
X0199800Y0291800D01*
X0199800Y0291454D01*
X0200417Y0289532D02*
X0190472Y0289532D01*
X0188873Y0287934D02*
X0202097Y0287934D01*
X0206800Y0287934D02*
X0206800Y0287934D01*
X0206800Y0289532D02*
X0206800Y0289532D01*
X0206800Y0291131D02*
X0206800Y0291131D01*
X0206800Y0292729D02*
X0206800Y0292729D01*
X0206800Y0294328D02*
X0206800Y0294328D01*
X0206800Y0295926D02*
X0206800Y0295926D01*
X0210940Y0295926D02*
X0219986Y0295926D01*
X0220060Y0296000D02*
X0217600Y0293540D01*
X0217600Y0290060D01*
X0220060Y0287600D01*
X0223540Y0287600D01*
X0226000Y0290060D01*
X0226000Y0293540D01*
X0223540Y0296000D01*
X0220060Y0296000D01*
X0218388Y0294328D02*
X0213002Y0294328D01*
X0213708Y0292729D02*
X0217600Y0292729D01*
X0217600Y0291131D02*
X0213749Y0291131D01*
X0213183Y0289532D02*
X0218128Y0289532D01*
X0219727Y0287934D02*
X0211503Y0287934D01*
X0223873Y0287934D02*
X0259400Y0287934D01*
X0259400Y0289532D02*
X0225472Y0289532D01*
X0226000Y0291131D02*
X0259400Y0291131D01*
X0259400Y0292729D02*
X0226000Y0292729D01*
X0225212Y0294328D02*
X0259400Y0294328D01*
X0259400Y0295926D02*
X0223614Y0295926D01*
X0244637Y0326298D02*
X0248562Y0326298D01*
X0247594Y0327896D02*
X0245606Y0327896D01*
X0245800Y0329495D02*
X0247400Y0329495D01*
X0247400Y0331093D02*
X0245800Y0331093D01*
X0245995Y0332692D02*
X0247400Y0332692D01*
X0246600Y0336600D02*
X0261800Y0351800D01*
X0246600Y0336600D02*
X0241600Y0331800D01*
X0220829Y0223993D02*
X0289400Y0223993D01*
X0289400Y0222395D02*
X0221200Y0222395D01*
X0221200Y0220796D02*
X0239574Y0220796D01*
X0237975Y0219198D02*
X0220420Y0219198D01*
X0258912Y0128082D02*
X0263084Y0128082D01*
X0259400Y0112097D02*
X0256849Y0112097D01*
X0258477Y0110499D02*
X0259400Y0110499D01*
X0259400Y0108900D02*
X0259000Y0108900D01*
X0259000Y0107302D02*
X0259400Y0107302D01*
X0259300Y0105703D02*
X0259657Y0105703D01*
X0259000Y0104105D02*
X0261101Y0104105D01*
X0262700Y0102506D02*
X0259000Y0102506D01*
X0258397Y0100908D02*
X0264298Y0100908D01*
X0256900Y0105800D02*
X0254800Y0105800D01*
X0250600Y0105703D02*
X0249000Y0105703D01*
X0249000Y0104105D02*
X0250600Y0104105D01*
X0250600Y0102506D02*
X0249000Y0102506D01*
X0248397Y0100908D02*
X0251203Y0100908D01*
X0250600Y0107302D02*
X0249000Y0107302D01*
X0249000Y0108900D02*
X0250600Y0108900D01*
X0251123Y0110499D02*
X0248477Y0110499D01*
X0246849Y0112097D02*
X0252751Y0112097D01*
X0274200Y0043361D02*
X0357290Y0043361D01*
X0357400Y0043449D02*
X0357400Y0043449D01*
X0355285Y0041763D02*
X0274200Y0041763D01*
X0274200Y0040164D02*
X0315451Y0040164D01*
X0316707Y0040889D02*
X0313993Y0039322D01*
X0311778Y0037107D01*
X0310211Y0034393D01*
X0309400Y0031367D01*
X0309400Y0028233D01*
X0310211Y0025207D01*
X0311778Y0022493D01*
X0313993Y0020278D01*
X0316707Y0018711D01*
X0319733Y0017900D01*
X0322867Y0017900D01*
X0325893Y0018711D01*
X0328607Y0020278D01*
X0330822Y0022493D01*
X0332389Y0025207D01*
X0333200Y0028233D01*
X0333200Y0031367D01*
X0332389Y0034393D01*
X0330822Y0037107D01*
X0328607Y0039322D01*
X0325893Y0040889D01*
X0322867Y0041700D01*
X0319733Y0041700D01*
X0316707Y0040889D01*
X0313237Y0038566D02*
X0273886Y0038566D01*
X0272361Y0036967D02*
X0311697Y0036967D01*
X0310774Y0035369D02*
X0270763Y0035369D01*
X0255300Y0033770D02*
X0310044Y0033770D01*
X0309616Y0032172D02*
X0253889Y0032172D01*
X0309400Y0030573D02*
X0045477Y0030573D01*
X0045717Y0028975D02*
X0309400Y0028975D01*
X0309630Y0027376D02*
X0045958Y0027376D01*
X0045801Y0025778D02*
X0310058Y0025778D01*
X0310804Y0024179D02*
X0045560Y0024179D01*
X0045319Y0022581D02*
X0311727Y0022581D01*
X0313289Y0020982D02*
X0044692Y0020982D01*
X0045254Y0022148D02*
X0045254Y0022148D01*
X0043922Y0019384D02*
X0315542Y0019384D01*
X0327058Y0019384D02*
X0352182Y0019384D01*
X0351092Y0020982D02*
X0329311Y0020982D01*
X0330873Y0022581D02*
X0350365Y0022581D01*
X0349871Y0024179D02*
X0331796Y0024179D01*
X0332542Y0025778D02*
X0349378Y0025778D01*
X0349188Y0027376D02*
X0332970Y0027376D01*
X0333200Y0028975D02*
X0349188Y0028975D01*
X0349188Y0030573D02*
X0333200Y0030573D01*
X0332984Y0032172D02*
X0349424Y0032172D01*
X0349918Y0033770D02*
X0332556Y0033770D01*
X0331826Y0035369D02*
X0350411Y0035369D01*
X0350664Y0036189D02*
X0350664Y0036189D01*
X0351194Y0036967D02*
X0330903Y0036967D01*
X0329363Y0038566D02*
X0352284Y0038566D01*
X0353374Y0040164D02*
X0327149Y0040164D01*
X0353272Y0017785D02*
X0043152Y0017785D01*
X0041736Y0016187D02*
X0355098Y0016187D01*
X0353485Y0017473D02*
X0353485Y0017473D01*
X0353485Y0017473D01*
X0357102Y0014588D02*
X0040253Y0014588D01*
X0037985Y0012990D02*
X0360868Y0012990D01*
X0357400Y0014351D02*
X0357400Y0014351D01*
X0178112Y0033770D02*
X0175771Y0033770D01*
X0176750Y0035369D02*
X0177050Y0035369D01*
X0177050Y0036967D02*
X0176750Y0036967D01*
X0169428Y0032172D02*
X0045196Y0032172D01*
X0044426Y0033770D02*
X0167829Y0033770D01*
X0166850Y0035369D02*
X0043656Y0035369D01*
X0042706Y0036967D02*
X0166850Y0036967D01*
X0166850Y0038566D02*
X0041223Y0038566D01*
X0039740Y0040164D02*
X0168164Y0040164D01*
X0127086Y0088120D02*
X0006600Y0088120D01*
X0006600Y0089718D02*
X0125488Y0089718D01*
X0124400Y0116893D02*
X0006600Y0116893D01*
X0006600Y0118491D02*
X0124400Y0118491D01*
X0124400Y0120090D02*
X0006600Y0120090D01*
X0006600Y0121688D02*
X0124400Y0121688D01*
X0069481Y0105703D02*
X0006600Y0105703D01*
X0006600Y0104105D02*
X0067882Y0104105D01*
X0067400Y0102506D02*
X0006600Y0102506D01*
X0006600Y0100908D02*
X0067400Y0100908D01*
X0068068Y0099309D02*
X0006600Y0099309D01*
X0006600Y0097711D02*
X0069667Y0097711D01*
X0083811Y0065740D02*
X0049789Y0065740D01*
X0051134Y0064142D02*
X0082466Y0064142D01*
X0081900Y0062543D02*
X0051700Y0062543D01*
X0051700Y0060945D02*
X0081900Y0060945D01*
X0082513Y0059346D02*
X0051087Y0059346D01*
X0049678Y0057748D02*
X0083922Y0057748D01*
X0057400Y0160053D02*
X0039558Y0160053D01*
X0040889Y0161651D02*
X0057400Y0161651D01*
X0057400Y0163250D02*
X0041400Y0163250D01*
X0041400Y0164848D02*
X0058626Y0164848D01*
X0060142Y0203212D02*
X0093458Y0203212D01*
X0092320Y0204811D02*
X0061280Y0204811D01*
X0061700Y0206409D02*
X0091900Y0206409D01*
X0091997Y0208008D02*
X0061603Y0208008D01*
X0060923Y0209606D02*
X0092677Y0209606D01*
X0094630Y0211205D02*
X0058970Y0211205D01*
X0051997Y0208008D02*
X0006600Y0208008D01*
X0006600Y0209606D02*
X0018276Y0209606D01*
X0016677Y0211205D02*
X0006600Y0211205D01*
X0006600Y0212803D02*
X0015550Y0212803D01*
X0015550Y0214402D02*
X0006600Y0214402D01*
X0006600Y0216001D02*
X0015550Y0216001D01*
X0016882Y0217599D02*
X0006600Y0217599D01*
X0006600Y0222395D02*
X0054631Y0222395D01*
X0054024Y0222646D02*
X0055825Y0221900D01*
X0057775Y0221900D01*
X0059576Y0222646D01*
X0060954Y0224024D01*
X0061700Y0225825D01*
X0061700Y0227775D01*
X0060954Y0229576D01*
X0059576Y0230954D01*
X0057775Y0231700D01*
X0055825Y0231700D01*
X0054024Y0230954D01*
X0052646Y0229576D01*
X0051900Y0227775D01*
X0051900Y0225825D01*
X0052646Y0224024D01*
X0054024Y0222646D01*
X0052677Y0223993D02*
X0006600Y0223993D01*
X0006600Y0225592D02*
X0051997Y0225592D01*
X0051900Y0227190D02*
X0006600Y0227190D01*
X0006600Y0228789D02*
X0052320Y0228789D01*
X0053457Y0230387D02*
X0006600Y0230387D01*
X0006600Y0206409D02*
X0051900Y0206409D01*
X0058969Y0222395D02*
X0094631Y0222395D01*
X0092677Y0223993D02*
X0060923Y0223993D01*
X0061603Y0225592D02*
X0091997Y0225592D01*
X0091900Y0227190D02*
X0061700Y0227190D01*
X0061280Y0228789D02*
X0092320Y0228789D01*
X0093457Y0230387D02*
X0060143Y0230387D01*
M02*
