G75*
%MOIN*%
%OFA0B0*%
%FSLAX25Y25*%
%IPPOS*%
%LPD*%
%AMOC8*
5,1,8,0,0,1.08239X$1,22.5*
%
%ADD10C,0.00000*%
%ADD11OC8,0.05200*%
%ADD12OC8,0.06300*%
%ADD13C,0.05200*%
%ADD14C,0.06600*%
%ADD15C,0.06000*%
%ADD16R,0.10000X0.20000*%
%ADD17C,0.05200*%
%ADD18OC8,0.10000*%
%ADD19C,0.01600*%
%ADD20C,0.08000*%
D10*
X0001800Y0001800D02*
X0391800Y0001800D01*
X0391800Y0381800D01*
X0001800Y0381800D01*
X0001800Y0001800D01*
X0023294Y0027100D02*
X0023296Y0027253D01*
X0023302Y0027407D01*
X0023312Y0027560D01*
X0023326Y0027712D01*
X0023344Y0027865D01*
X0023366Y0028016D01*
X0023391Y0028167D01*
X0023421Y0028318D01*
X0023455Y0028468D01*
X0023492Y0028616D01*
X0023533Y0028764D01*
X0023578Y0028910D01*
X0023627Y0029056D01*
X0023680Y0029200D01*
X0023736Y0029342D01*
X0023796Y0029483D01*
X0023860Y0029623D01*
X0023927Y0029761D01*
X0023998Y0029897D01*
X0024073Y0030031D01*
X0024150Y0030163D01*
X0024232Y0030293D01*
X0024316Y0030421D01*
X0024404Y0030547D01*
X0024495Y0030670D01*
X0024589Y0030791D01*
X0024687Y0030909D01*
X0024787Y0031025D01*
X0024891Y0031138D01*
X0024997Y0031249D01*
X0025106Y0031357D01*
X0025218Y0031462D01*
X0025332Y0031563D01*
X0025450Y0031662D01*
X0025569Y0031758D01*
X0025691Y0031851D01*
X0025816Y0031940D01*
X0025943Y0032027D01*
X0026072Y0032109D01*
X0026203Y0032189D01*
X0026336Y0032265D01*
X0026471Y0032338D01*
X0026608Y0032407D01*
X0026747Y0032472D01*
X0026887Y0032534D01*
X0027029Y0032592D01*
X0027172Y0032647D01*
X0027317Y0032698D01*
X0027463Y0032745D01*
X0027610Y0032788D01*
X0027758Y0032827D01*
X0027907Y0032863D01*
X0028057Y0032894D01*
X0028208Y0032922D01*
X0028359Y0032946D01*
X0028512Y0032966D01*
X0028664Y0032982D01*
X0028817Y0032994D01*
X0028970Y0033002D01*
X0029123Y0033006D01*
X0029277Y0033006D01*
X0029430Y0033002D01*
X0029583Y0032994D01*
X0029736Y0032982D01*
X0029888Y0032966D01*
X0030041Y0032946D01*
X0030192Y0032922D01*
X0030343Y0032894D01*
X0030493Y0032863D01*
X0030642Y0032827D01*
X0030790Y0032788D01*
X0030937Y0032745D01*
X0031083Y0032698D01*
X0031228Y0032647D01*
X0031371Y0032592D01*
X0031513Y0032534D01*
X0031653Y0032472D01*
X0031792Y0032407D01*
X0031929Y0032338D01*
X0032064Y0032265D01*
X0032197Y0032189D01*
X0032328Y0032109D01*
X0032457Y0032027D01*
X0032584Y0031940D01*
X0032709Y0031851D01*
X0032831Y0031758D01*
X0032950Y0031662D01*
X0033068Y0031563D01*
X0033182Y0031462D01*
X0033294Y0031357D01*
X0033403Y0031249D01*
X0033509Y0031138D01*
X0033613Y0031025D01*
X0033713Y0030909D01*
X0033811Y0030791D01*
X0033905Y0030670D01*
X0033996Y0030547D01*
X0034084Y0030421D01*
X0034168Y0030293D01*
X0034250Y0030163D01*
X0034327Y0030031D01*
X0034402Y0029897D01*
X0034473Y0029761D01*
X0034540Y0029623D01*
X0034604Y0029483D01*
X0034664Y0029342D01*
X0034720Y0029200D01*
X0034773Y0029056D01*
X0034822Y0028910D01*
X0034867Y0028764D01*
X0034908Y0028616D01*
X0034945Y0028468D01*
X0034979Y0028318D01*
X0035009Y0028167D01*
X0035034Y0028016D01*
X0035056Y0027865D01*
X0035074Y0027712D01*
X0035088Y0027560D01*
X0035098Y0027407D01*
X0035104Y0027253D01*
X0035106Y0027100D01*
X0035104Y0026947D01*
X0035098Y0026793D01*
X0035088Y0026640D01*
X0035074Y0026488D01*
X0035056Y0026335D01*
X0035034Y0026184D01*
X0035009Y0026033D01*
X0034979Y0025882D01*
X0034945Y0025732D01*
X0034908Y0025584D01*
X0034867Y0025436D01*
X0034822Y0025290D01*
X0034773Y0025144D01*
X0034720Y0025000D01*
X0034664Y0024858D01*
X0034604Y0024717D01*
X0034540Y0024577D01*
X0034473Y0024439D01*
X0034402Y0024303D01*
X0034327Y0024169D01*
X0034250Y0024037D01*
X0034168Y0023907D01*
X0034084Y0023779D01*
X0033996Y0023653D01*
X0033905Y0023530D01*
X0033811Y0023409D01*
X0033713Y0023291D01*
X0033613Y0023175D01*
X0033509Y0023062D01*
X0033403Y0022951D01*
X0033294Y0022843D01*
X0033182Y0022738D01*
X0033068Y0022637D01*
X0032950Y0022538D01*
X0032831Y0022442D01*
X0032709Y0022349D01*
X0032584Y0022260D01*
X0032457Y0022173D01*
X0032328Y0022091D01*
X0032197Y0022011D01*
X0032064Y0021935D01*
X0031929Y0021862D01*
X0031792Y0021793D01*
X0031653Y0021728D01*
X0031513Y0021666D01*
X0031371Y0021608D01*
X0031228Y0021553D01*
X0031083Y0021502D01*
X0030937Y0021455D01*
X0030790Y0021412D01*
X0030642Y0021373D01*
X0030493Y0021337D01*
X0030343Y0021306D01*
X0030192Y0021278D01*
X0030041Y0021254D01*
X0029888Y0021234D01*
X0029736Y0021218D01*
X0029583Y0021206D01*
X0029430Y0021198D01*
X0029277Y0021194D01*
X0029123Y0021194D01*
X0028970Y0021198D01*
X0028817Y0021206D01*
X0028664Y0021218D01*
X0028512Y0021234D01*
X0028359Y0021254D01*
X0028208Y0021278D01*
X0028057Y0021306D01*
X0027907Y0021337D01*
X0027758Y0021373D01*
X0027610Y0021412D01*
X0027463Y0021455D01*
X0027317Y0021502D01*
X0027172Y0021553D01*
X0027029Y0021608D01*
X0026887Y0021666D01*
X0026747Y0021728D01*
X0026608Y0021793D01*
X0026471Y0021862D01*
X0026336Y0021935D01*
X0026203Y0022011D01*
X0026072Y0022091D01*
X0025943Y0022173D01*
X0025816Y0022260D01*
X0025691Y0022349D01*
X0025569Y0022442D01*
X0025450Y0022538D01*
X0025332Y0022637D01*
X0025218Y0022738D01*
X0025106Y0022843D01*
X0024997Y0022951D01*
X0024891Y0023062D01*
X0024787Y0023175D01*
X0024687Y0023291D01*
X0024589Y0023409D01*
X0024495Y0023530D01*
X0024404Y0023653D01*
X0024316Y0023779D01*
X0024232Y0023907D01*
X0024150Y0024037D01*
X0024073Y0024169D01*
X0023998Y0024303D01*
X0023927Y0024439D01*
X0023860Y0024577D01*
X0023796Y0024717D01*
X0023736Y0024858D01*
X0023680Y0025000D01*
X0023627Y0025144D01*
X0023578Y0025290D01*
X0023533Y0025436D01*
X0023492Y0025584D01*
X0023455Y0025732D01*
X0023421Y0025882D01*
X0023391Y0026033D01*
X0023366Y0026184D01*
X0023344Y0026335D01*
X0023326Y0026488D01*
X0023312Y0026640D01*
X0023302Y0026793D01*
X0023296Y0026947D01*
X0023294Y0027100D01*
X0314200Y0029800D02*
X0314202Y0029974D01*
X0314209Y0030148D01*
X0314219Y0030322D01*
X0314234Y0030496D01*
X0314253Y0030669D01*
X0314277Y0030842D01*
X0314305Y0031014D01*
X0314336Y0031185D01*
X0314373Y0031356D01*
X0314413Y0031525D01*
X0314457Y0031694D01*
X0314506Y0031861D01*
X0314558Y0032027D01*
X0314615Y0032192D01*
X0314676Y0032355D01*
X0314740Y0032517D01*
X0314809Y0032677D01*
X0314882Y0032836D01*
X0314958Y0032992D01*
X0315038Y0033147D01*
X0315122Y0033300D01*
X0315210Y0033450D01*
X0315302Y0033598D01*
X0315397Y0033745D01*
X0315495Y0033888D01*
X0315597Y0034029D01*
X0315703Y0034168D01*
X0315812Y0034304D01*
X0315924Y0034438D01*
X0316039Y0034568D01*
X0316158Y0034696D01*
X0316280Y0034820D01*
X0316404Y0034942D01*
X0316532Y0035061D01*
X0316662Y0035176D01*
X0316796Y0035288D01*
X0316932Y0035397D01*
X0317071Y0035503D01*
X0317212Y0035605D01*
X0317355Y0035703D01*
X0317502Y0035798D01*
X0317650Y0035890D01*
X0317800Y0035978D01*
X0317953Y0036062D01*
X0318108Y0036142D01*
X0318264Y0036218D01*
X0318423Y0036291D01*
X0318583Y0036360D01*
X0318745Y0036424D01*
X0318908Y0036485D01*
X0319073Y0036542D01*
X0319239Y0036594D01*
X0319406Y0036643D01*
X0319575Y0036687D01*
X0319744Y0036727D01*
X0319915Y0036764D01*
X0320086Y0036795D01*
X0320258Y0036823D01*
X0320431Y0036847D01*
X0320604Y0036866D01*
X0320778Y0036881D01*
X0320952Y0036891D01*
X0321126Y0036898D01*
X0321300Y0036900D01*
X0321474Y0036898D01*
X0321648Y0036891D01*
X0321822Y0036881D01*
X0321996Y0036866D01*
X0322169Y0036847D01*
X0322342Y0036823D01*
X0322514Y0036795D01*
X0322685Y0036764D01*
X0322856Y0036727D01*
X0323025Y0036687D01*
X0323194Y0036643D01*
X0323361Y0036594D01*
X0323527Y0036542D01*
X0323692Y0036485D01*
X0323855Y0036424D01*
X0324017Y0036360D01*
X0324177Y0036291D01*
X0324336Y0036218D01*
X0324492Y0036142D01*
X0324647Y0036062D01*
X0324800Y0035978D01*
X0324950Y0035890D01*
X0325098Y0035798D01*
X0325245Y0035703D01*
X0325388Y0035605D01*
X0325529Y0035503D01*
X0325668Y0035397D01*
X0325804Y0035288D01*
X0325938Y0035176D01*
X0326068Y0035061D01*
X0326196Y0034942D01*
X0326320Y0034820D01*
X0326442Y0034696D01*
X0326561Y0034568D01*
X0326676Y0034438D01*
X0326788Y0034304D01*
X0326897Y0034168D01*
X0327003Y0034029D01*
X0327105Y0033888D01*
X0327203Y0033745D01*
X0327298Y0033598D01*
X0327390Y0033450D01*
X0327478Y0033300D01*
X0327562Y0033147D01*
X0327642Y0032992D01*
X0327718Y0032836D01*
X0327791Y0032677D01*
X0327860Y0032517D01*
X0327924Y0032355D01*
X0327985Y0032192D01*
X0328042Y0032027D01*
X0328094Y0031861D01*
X0328143Y0031694D01*
X0328187Y0031525D01*
X0328227Y0031356D01*
X0328264Y0031185D01*
X0328295Y0031014D01*
X0328323Y0030842D01*
X0328347Y0030669D01*
X0328366Y0030496D01*
X0328381Y0030322D01*
X0328391Y0030148D01*
X0328398Y0029974D01*
X0328400Y0029800D01*
X0328398Y0029626D01*
X0328391Y0029452D01*
X0328381Y0029278D01*
X0328366Y0029104D01*
X0328347Y0028931D01*
X0328323Y0028758D01*
X0328295Y0028586D01*
X0328264Y0028415D01*
X0328227Y0028244D01*
X0328187Y0028075D01*
X0328143Y0027906D01*
X0328094Y0027739D01*
X0328042Y0027573D01*
X0327985Y0027408D01*
X0327924Y0027245D01*
X0327860Y0027083D01*
X0327791Y0026923D01*
X0327718Y0026764D01*
X0327642Y0026608D01*
X0327562Y0026453D01*
X0327478Y0026300D01*
X0327390Y0026150D01*
X0327298Y0026002D01*
X0327203Y0025855D01*
X0327105Y0025712D01*
X0327003Y0025571D01*
X0326897Y0025432D01*
X0326788Y0025296D01*
X0326676Y0025162D01*
X0326561Y0025032D01*
X0326442Y0024904D01*
X0326320Y0024780D01*
X0326196Y0024658D01*
X0326068Y0024539D01*
X0325938Y0024424D01*
X0325804Y0024312D01*
X0325668Y0024203D01*
X0325529Y0024097D01*
X0325388Y0023995D01*
X0325245Y0023897D01*
X0325098Y0023802D01*
X0324950Y0023710D01*
X0324800Y0023622D01*
X0324647Y0023538D01*
X0324492Y0023458D01*
X0324336Y0023382D01*
X0324177Y0023309D01*
X0324017Y0023240D01*
X0323855Y0023176D01*
X0323692Y0023115D01*
X0323527Y0023058D01*
X0323361Y0023006D01*
X0323194Y0022957D01*
X0323025Y0022913D01*
X0322856Y0022873D01*
X0322685Y0022836D01*
X0322514Y0022805D01*
X0322342Y0022777D01*
X0322169Y0022753D01*
X0321996Y0022734D01*
X0321822Y0022719D01*
X0321648Y0022709D01*
X0321474Y0022702D01*
X0321300Y0022700D01*
X0321126Y0022702D01*
X0320952Y0022709D01*
X0320778Y0022719D01*
X0320604Y0022734D01*
X0320431Y0022753D01*
X0320258Y0022777D01*
X0320086Y0022805D01*
X0319915Y0022836D01*
X0319744Y0022873D01*
X0319575Y0022913D01*
X0319406Y0022957D01*
X0319239Y0023006D01*
X0319073Y0023058D01*
X0318908Y0023115D01*
X0318745Y0023176D01*
X0318583Y0023240D01*
X0318423Y0023309D01*
X0318264Y0023382D01*
X0318108Y0023458D01*
X0317953Y0023538D01*
X0317800Y0023622D01*
X0317650Y0023710D01*
X0317502Y0023802D01*
X0317355Y0023897D01*
X0317212Y0023995D01*
X0317071Y0024097D01*
X0316932Y0024203D01*
X0316796Y0024312D01*
X0316662Y0024424D01*
X0316532Y0024539D01*
X0316404Y0024658D01*
X0316280Y0024780D01*
X0316158Y0024904D01*
X0316039Y0025032D01*
X0315924Y0025162D01*
X0315812Y0025296D01*
X0315703Y0025432D01*
X0315597Y0025571D01*
X0315495Y0025712D01*
X0315397Y0025855D01*
X0315302Y0026002D01*
X0315210Y0026150D01*
X0315122Y0026300D01*
X0315038Y0026453D01*
X0314958Y0026608D01*
X0314882Y0026764D01*
X0314809Y0026923D01*
X0314740Y0027083D01*
X0314676Y0027245D01*
X0314615Y0027408D01*
X0314558Y0027573D01*
X0314506Y0027739D01*
X0314457Y0027906D01*
X0314413Y0028075D01*
X0314373Y0028244D01*
X0314336Y0028415D01*
X0314305Y0028586D01*
X0314277Y0028758D01*
X0314253Y0028931D01*
X0314234Y0029104D01*
X0314219Y0029278D01*
X0314209Y0029452D01*
X0314202Y0029626D01*
X0314200Y0029800D01*
X0359894Y0028900D02*
X0359896Y0029053D01*
X0359902Y0029207D01*
X0359912Y0029360D01*
X0359926Y0029512D01*
X0359944Y0029665D01*
X0359966Y0029816D01*
X0359991Y0029967D01*
X0360021Y0030118D01*
X0360055Y0030268D01*
X0360092Y0030416D01*
X0360133Y0030564D01*
X0360178Y0030710D01*
X0360227Y0030856D01*
X0360280Y0031000D01*
X0360336Y0031142D01*
X0360396Y0031283D01*
X0360460Y0031423D01*
X0360527Y0031561D01*
X0360598Y0031697D01*
X0360673Y0031831D01*
X0360750Y0031963D01*
X0360832Y0032093D01*
X0360916Y0032221D01*
X0361004Y0032347D01*
X0361095Y0032470D01*
X0361189Y0032591D01*
X0361287Y0032709D01*
X0361387Y0032825D01*
X0361491Y0032938D01*
X0361597Y0033049D01*
X0361706Y0033157D01*
X0361818Y0033262D01*
X0361932Y0033363D01*
X0362050Y0033462D01*
X0362169Y0033558D01*
X0362291Y0033651D01*
X0362416Y0033740D01*
X0362543Y0033827D01*
X0362672Y0033909D01*
X0362803Y0033989D01*
X0362936Y0034065D01*
X0363071Y0034138D01*
X0363208Y0034207D01*
X0363347Y0034272D01*
X0363487Y0034334D01*
X0363629Y0034392D01*
X0363772Y0034447D01*
X0363917Y0034498D01*
X0364063Y0034545D01*
X0364210Y0034588D01*
X0364358Y0034627D01*
X0364507Y0034663D01*
X0364657Y0034694D01*
X0364808Y0034722D01*
X0364959Y0034746D01*
X0365112Y0034766D01*
X0365264Y0034782D01*
X0365417Y0034794D01*
X0365570Y0034802D01*
X0365723Y0034806D01*
X0365877Y0034806D01*
X0366030Y0034802D01*
X0366183Y0034794D01*
X0366336Y0034782D01*
X0366488Y0034766D01*
X0366641Y0034746D01*
X0366792Y0034722D01*
X0366943Y0034694D01*
X0367093Y0034663D01*
X0367242Y0034627D01*
X0367390Y0034588D01*
X0367537Y0034545D01*
X0367683Y0034498D01*
X0367828Y0034447D01*
X0367971Y0034392D01*
X0368113Y0034334D01*
X0368253Y0034272D01*
X0368392Y0034207D01*
X0368529Y0034138D01*
X0368664Y0034065D01*
X0368797Y0033989D01*
X0368928Y0033909D01*
X0369057Y0033827D01*
X0369184Y0033740D01*
X0369309Y0033651D01*
X0369431Y0033558D01*
X0369550Y0033462D01*
X0369668Y0033363D01*
X0369782Y0033262D01*
X0369894Y0033157D01*
X0370003Y0033049D01*
X0370109Y0032938D01*
X0370213Y0032825D01*
X0370313Y0032709D01*
X0370411Y0032591D01*
X0370505Y0032470D01*
X0370596Y0032347D01*
X0370684Y0032221D01*
X0370768Y0032093D01*
X0370850Y0031963D01*
X0370927Y0031831D01*
X0371002Y0031697D01*
X0371073Y0031561D01*
X0371140Y0031423D01*
X0371204Y0031283D01*
X0371264Y0031142D01*
X0371320Y0031000D01*
X0371373Y0030856D01*
X0371422Y0030710D01*
X0371467Y0030564D01*
X0371508Y0030416D01*
X0371545Y0030268D01*
X0371579Y0030118D01*
X0371609Y0029967D01*
X0371634Y0029816D01*
X0371656Y0029665D01*
X0371674Y0029512D01*
X0371688Y0029360D01*
X0371698Y0029207D01*
X0371704Y0029053D01*
X0371706Y0028900D01*
X0371704Y0028747D01*
X0371698Y0028593D01*
X0371688Y0028440D01*
X0371674Y0028288D01*
X0371656Y0028135D01*
X0371634Y0027984D01*
X0371609Y0027833D01*
X0371579Y0027682D01*
X0371545Y0027532D01*
X0371508Y0027384D01*
X0371467Y0027236D01*
X0371422Y0027090D01*
X0371373Y0026944D01*
X0371320Y0026800D01*
X0371264Y0026658D01*
X0371204Y0026517D01*
X0371140Y0026377D01*
X0371073Y0026239D01*
X0371002Y0026103D01*
X0370927Y0025969D01*
X0370850Y0025837D01*
X0370768Y0025707D01*
X0370684Y0025579D01*
X0370596Y0025453D01*
X0370505Y0025330D01*
X0370411Y0025209D01*
X0370313Y0025091D01*
X0370213Y0024975D01*
X0370109Y0024862D01*
X0370003Y0024751D01*
X0369894Y0024643D01*
X0369782Y0024538D01*
X0369668Y0024437D01*
X0369550Y0024338D01*
X0369431Y0024242D01*
X0369309Y0024149D01*
X0369184Y0024060D01*
X0369057Y0023973D01*
X0368928Y0023891D01*
X0368797Y0023811D01*
X0368664Y0023735D01*
X0368529Y0023662D01*
X0368392Y0023593D01*
X0368253Y0023528D01*
X0368113Y0023466D01*
X0367971Y0023408D01*
X0367828Y0023353D01*
X0367683Y0023302D01*
X0367537Y0023255D01*
X0367390Y0023212D01*
X0367242Y0023173D01*
X0367093Y0023137D01*
X0366943Y0023106D01*
X0366792Y0023078D01*
X0366641Y0023054D01*
X0366488Y0023034D01*
X0366336Y0023018D01*
X0366183Y0023006D01*
X0366030Y0022998D01*
X0365877Y0022994D01*
X0365723Y0022994D01*
X0365570Y0022998D01*
X0365417Y0023006D01*
X0365264Y0023018D01*
X0365112Y0023034D01*
X0364959Y0023054D01*
X0364808Y0023078D01*
X0364657Y0023106D01*
X0364507Y0023137D01*
X0364358Y0023173D01*
X0364210Y0023212D01*
X0364063Y0023255D01*
X0363917Y0023302D01*
X0363772Y0023353D01*
X0363629Y0023408D01*
X0363487Y0023466D01*
X0363347Y0023528D01*
X0363208Y0023593D01*
X0363071Y0023662D01*
X0362936Y0023735D01*
X0362803Y0023811D01*
X0362672Y0023891D01*
X0362543Y0023973D01*
X0362416Y0024060D01*
X0362291Y0024149D01*
X0362169Y0024242D01*
X0362050Y0024338D01*
X0361932Y0024437D01*
X0361818Y0024538D01*
X0361706Y0024643D01*
X0361597Y0024751D01*
X0361491Y0024862D01*
X0361387Y0024975D01*
X0361287Y0025091D01*
X0361189Y0025209D01*
X0361095Y0025330D01*
X0361004Y0025453D01*
X0360916Y0025579D01*
X0360832Y0025707D01*
X0360750Y0025837D01*
X0360673Y0025969D01*
X0360598Y0026103D01*
X0360527Y0026239D01*
X0360460Y0026377D01*
X0360396Y0026517D01*
X0360336Y0026658D01*
X0360280Y0026800D01*
X0360227Y0026944D01*
X0360178Y0027090D01*
X0360133Y0027236D01*
X0360092Y0027384D01*
X0360055Y0027532D01*
X0360021Y0027682D01*
X0359991Y0027833D01*
X0359966Y0027984D01*
X0359944Y0028135D01*
X0359926Y0028288D01*
X0359912Y0028440D01*
X0359902Y0028593D01*
X0359896Y0028747D01*
X0359894Y0028900D01*
X0314200Y0183800D02*
X0314202Y0183974D01*
X0314209Y0184148D01*
X0314219Y0184322D01*
X0314234Y0184496D01*
X0314253Y0184669D01*
X0314277Y0184842D01*
X0314305Y0185014D01*
X0314336Y0185185D01*
X0314373Y0185356D01*
X0314413Y0185525D01*
X0314457Y0185694D01*
X0314506Y0185861D01*
X0314558Y0186027D01*
X0314615Y0186192D01*
X0314676Y0186355D01*
X0314740Y0186517D01*
X0314809Y0186677D01*
X0314882Y0186836D01*
X0314958Y0186992D01*
X0315038Y0187147D01*
X0315122Y0187300D01*
X0315210Y0187450D01*
X0315302Y0187598D01*
X0315397Y0187745D01*
X0315495Y0187888D01*
X0315597Y0188029D01*
X0315703Y0188168D01*
X0315812Y0188304D01*
X0315924Y0188438D01*
X0316039Y0188568D01*
X0316158Y0188696D01*
X0316280Y0188820D01*
X0316404Y0188942D01*
X0316532Y0189061D01*
X0316662Y0189176D01*
X0316796Y0189288D01*
X0316932Y0189397D01*
X0317071Y0189503D01*
X0317212Y0189605D01*
X0317355Y0189703D01*
X0317502Y0189798D01*
X0317650Y0189890D01*
X0317800Y0189978D01*
X0317953Y0190062D01*
X0318108Y0190142D01*
X0318264Y0190218D01*
X0318423Y0190291D01*
X0318583Y0190360D01*
X0318745Y0190424D01*
X0318908Y0190485D01*
X0319073Y0190542D01*
X0319239Y0190594D01*
X0319406Y0190643D01*
X0319575Y0190687D01*
X0319744Y0190727D01*
X0319915Y0190764D01*
X0320086Y0190795D01*
X0320258Y0190823D01*
X0320431Y0190847D01*
X0320604Y0190866D01*
X0320778Y0190881D01*
X0320952Y0190891D01*
X0321126Y0190898D01*
X0321300Y0190900D01*
X0321474Y0190898D01*
X0321648Y0190891D01*
X0321822Y0190881D01*
X0321996Y0190866D01*
X0322169Y0190847D01*
X0322342Y0190823D01*
X0322514Y0190795D01*
X0322685Y0190764D01*
X0322856Y0190727D01*
X0323025Y0190687D01*
X0323194Y0190643D01*
X0323361Y0190594D01*
X0323527Y0190542D01*
X0323692Y0190485D01*
X0323855Y0190424D01*
X0324017Y0190360D01*
X0324177Y0190291D01*
X0324336Y0190218D01*
X0324492Y0190142D01*
X0324647Y0190062D01*
X0324800Y0189978D01*
X0324950Y0189890D01*
X0325098Y0189798D01*
X0325245Y0189703D01*
X0325388Y0189605D01*
X0325529Y0189503D01*
X0325668Y0189397D01*
X0325804Y0189288D01*
X0325938Y0189176D01*
X0326068Y0189061D01*
X0326196Y0188942D01*
X0326320Y0188820D01*
X0326442Y0188696D01*
X0326561Y0188568D01*
X0326676Y0188438D01*
X0326788Y0188304D01*
X0326897Y0188168D01*
X0327003Y0188029D01*
X0327105Y0187888D01*
X0327203Y0187745D01*
X0327298Y0187598D01*
X0327390Y0187450D01*
X0327478Y0187300D01*
X0327562Y0187147D01*
X0327642Y0186992D01*
X0327718Y0186836D01*
X0327791Y0186677D01*
X0327860Y0186517D01*
X0327924Y0186355D01*
X0327985Y0186192D01*
X0328042Y0186027D01*
X0328094Y0185861D01*
X0328143Y0185694D01*
X0328187Y0185525D01*
X0328227Y0185356D01*
X0328264Y0185185D01*
X0328295Y0185014D01*
X0328323Y0184842D01*
X0328347Y0184669D01*
X0328366Y0184496D01*
X0328381Y0184322D01*
X0328391Y0184148D01*
X0328398Y0183974D01*
X0328400Y0183800D01*
X0328398Y0183626D01*
X0328391Y0183452D01*
X0328381Y0183278D01*
X0328366Y0183104D01*
X0328347Y0182931D01*
X0328323Y0182758D01*
X0328295Y0182586D01*
X0328264Y0182415D01*
X0328227Y0182244D01*
X0328187Y0182075D01*
X0328143Y0181906D01*
X0328094Y0181739D01*
X0328042Y0181573D01*
X0327985Y0181408D01*
X0327924Y0181245D01*
X0327860Y0181083D01*
X0327791Y0180923D01*
X0327718Y0180764D01*
X0327642Y0180608D01*
X0327562Y0180453D01*
X0327478Y0180300D01*
X0327390Y0180150D01*
X0327298Y0180002D01*
X0327203Y0179855D01*
X0327105Y0179712D01*
X0327003Y0179571D01*
X0326897Y0179432D01*
X0326788Y0179296D01*
X0326676Y0179162D01*
X0326561Y0179032D01*
X0326442Y0178904D01*
X0326320Y0178780D01*
X0326196Y0178658D01*
X0326068Y0178539D01*
X0325938Y0178424D01*
X0325804Y0178312D01*
X0325668Y0178203D01*
X0325529Y0178097D01*
X0325388Y0177995D01*
X0325245Y0177897D01*
X0325098Y0177802D01*
X0324950Y0177710D01*
X0324800Y0177622D01*
X0324647Y0177538D01*
X0324492Y0177458D01*
X0324336Y0177382D01*
X0324177Y0177309D01*
X0324017Y0177240D01*
X0323855Y0177176D01*
X0323692Y0177115D01*
X0323527Y0177058D01*
X0323361Y0177006D01*
X0323194Y0176957D01*
X0323025Y0176913D01*
X0322856Y0176873D01*
X0322685Y0176836D01*
X0322514Y0176805D01*
X0322342Y0176777D01*
X0322169Y0176753D01*
X0321996Y0176734D01*
X0321822Y0176719D01*
X0321648Y0176709D01*
X0321474Y0176702D01*
X0321300Y0176700D01*
X0321126Y0176702D01*
X0320952Y0176709D01*
X0320778Y0176719D01*
X0320604Y0176734D01*
X0320431Y0176753D01*
X0320258Y0176777D01*
X0320086Y0176805D01*
X0319915Y0176836D01*
X0319744Y0176873D01*
X0319575Y0176913D01*
X0319406Y0176957D01*
X0319239Y0177006D01*
X0319073Y0177058D01*
X0318908Y0177115D01*
X0318745Y0177176D01*
X0318583Y0177240D01*
X0318423Y0177309D01*
X0318264Y0177382D01*
X0318108Y0177458D01*
X0317953Y0177538D01*
X0317800Y0177622D01*
X0317650Y0177710D01*
X0317502Y0177802D01*
X0317355Y0177897D01*
X0317212Y0177995D01*
X0317071Y0178097D01*
X0316932Y0178203D01*
X0316796Y0178312D01*
X0316662Y0178424D01*
X0316532Y0178539D01*
X0316404Y0178658D01*
X0316280Y0178780D01*
X0316158Y0178904D01*
X0316039Y0179032D01*
X0315924Y0179162D01*
X0315812Y0179296D01*
X0315703Y0179432D01*
X0315597Y0179571D01*
X0315495Y0179712D01*
X0315397Y0179855D01*
X0315302Y0180002D01*
X0315210Y0180150D01*
X0315122Y0180300D01*
X0315038Y0180453D01*
X0314958Y0180608D01*
X0314882Y0180764D01*
X0314809Y0180923D01*
X0314740Y0181083D01*
X0314676Y0181245D01*
X0314615Y0181408D01*
X0314558Y0181573D01*
X0314506Y0181739D01*
X0314457Y0181906D01*
X0314413Y0182075D01*
X0314373Y0182244D01*
X0314336Y0182415D01*
X0314305Y0182586D01*
X0314277Y0182758D01*
X0314253Y0182931D01*
X0314234Y0183104D01*
X0314219Y0183278D01*
X0314209Y0183452D01*
X0314202Y0183626D01*
X0314200Y0183800D01*
X0022094Y0357650D02*
X0022096Y0357803D01*
X0022102Y0357957D01*
X0022112Y0358110D01*
X0022126Y0358262D01*
X0022144Y0358415D01*
X0022166Y0358566D01*
X0022191Y0358717D01*
X0022221Y0358868D01*
X0022255Y0359018D01*
X0022292Y0359166D01*
X0022333Y0359314D01*
X0022378Y0359460D01*
X0022427Y0359606D01*
X0022480Y0359750D01*
X0022536Y0359892D01*
X0022596Y0360033D01*
X0022660Y0360173D01*
X0022727Y0360311D01*
X0022798Y0360447D01*
X0022873Y0360581D01*
X0022950Y0360713D01*
X0023032Y0360843D01*
X0023116Y0360971D01*
X0023204Y0361097D01*
X0023295Y0361220D01*
X0023389Y0361341D01*
X0023487Y0361459D01*
X0023587Y0361575D01*
X0023691Y0361688D01*
X0023797Y0361799D01*
X0023906Y0361907D01*
X0024018Y0362012D01*
X0024132Y0362113D01*
X0024250Y0362212D01*
X0024369Y0362308D01*
X0024491Y0362401D01*
X0024616Y0362490D01*
X0024743Y0362577D01*
X0024872Y0362659D01*
X0025003Y0362739D01*
X0025136Y0362815D01*
X0025271Y0362888D01*
X0025408Y0362957D01*
X0025547Y0363022D01*
X0025687Y0363084D01*
X0025829Y0363142D01*
X0025972Y0363197D01*
X0026117Y0363248D01*
X0026263Y0363295D01*
X0026410Y0363338D01*
X0026558Y0363377D01*
X0026707Y0363413D01*
X0026857Y0363444D01*
X0027008Y0363472D01*
X0027159Y0363496D01*
X0027312Y0363516D01*
X0027464Y0363532D01*
X0027617Y0363544D01*
X0027770Y0363552D01*
X0027923Y0363556D01*
X0028077Y0363556D01*
X0028230Y0363552D01*
X0028383Y0363544D01*
X0028536Y0363532D01*
X0028688Y0363516D01*
X0028841Y0363496D01*
X0028992Y0363472D01*
X0029143Y0363444D01*
X0029293Y0363413D01*
X0029442Y0363377D01*
X0029590Y0363338D01*
X0029737Y0363295D01*
X0029883Y0363248D01*
X0030028Y0363197D01*
X0030171Y0363142D01*
X0030313Y0363084D01*
X0030453Y0363022D01*
X0030592Y0362957D01*
X0030729Y0362888D01*
X0030864Y0362815D01*
X0030997Y0362739D01*
X0031128Y0362659D01*
X0031257Y0362577D01*
X0031384Y0362490D01*
X0031509Y0362401D01*
X0031631Y0362308D01*
X0031750Y0362212D01*
X0031868Y0362113D01*
X0031982Y0362012D01*
X0032094Y0361907D01*
X0032203Y0361799D01*
X0032309Y0361688D01*
X0032413Y0361575D01*
X0032513Y0361459D01*
X0032611Y0361341D01*
X0032705Y0361220D01*
X0032796Y0361097D01*
X0032884Y0360971D01*
X0032968Y0360843D01*
X0033050Y0360713D01*
X0033127Y0360581D01*
X0033202Y0360447D01*
X0033273Y0360311D01*
X0033340Y0360173D01*
X0033404Y0360033D01*
X0033464Y0359892D01*
X0033520Y0359750D01*
X0033573Y0359606D01*
X0033622Y0359460D01*
X0033667Y0359314D01*
X0033708Y0359166D01*
X0033745Y0359018D01*
X0033779Y0358868D01*
X0033809Y0358717D01*
X0033834Y0358566D01*
X0033856Y0358415D01*
X0033874Y0358262D01*
X0033888Y0358110D01*
X0033898Y0357957D01*
X0033904Y0357803D01*
X0033906Y0357650D01*
X0033904Y0357497D01*
X0033898Y0357343D01*
X0033888Y0357190D01*
X0033874Y0357038D01*
X0033856Y0356885D01*
X0033834Y0356734D01*
X0033809Y0356583D01*
X0033779Y0356432D01*
X0033745Y0356282D01*
X0033708Y0356134D01*
X0033667Y0355986D01*
X0033622Y0355840D01*
X0033573Y0355694D01*
X0033520Y0355550D01*
X0033464Y0355408D01*
X0033404Y0355267D01*
X0033340Y0355127D01*
X0033273Y0354989D01*
X0033202Y0354853D01*
X0033127Y0354719D01*
X0033050Y0354587D01*
X0032968Y0354457D01*
X0032884Y0354329D01*
X0032796Y0354203D01*
X0032705Y0354080D01*
X0032611Y0353959D01*
X0032513Y0353841D01*
X0032413Y0353725D01*
X0032309Y0353612D01*
X0032203Y0353501D01*
X0032094Y0353393D01*
X0031982Y0353288D01*
X0031868Y0353187D01*
X0031750Y0353088D01*
X0031631Y0352992D01*
X0031509Y0352899D01*
X0031384Y0352810D01*
X0031257Y0352723D01*
X0031128Y0352641D01*
X0030997Y0352561D01*
X0030864Y0352485D01*
X0030729Y0352412D01*
X0030592Y0352343D01*
X0030453Y0352278D01*
X0030313Y0352216D01*
X0030171Y0352158D01*
X0030028Y0352103D01*
X0029883Y0352052D01*
X0029737Y0352005D01*
X0029590Y0351962D01*
X0029442Y0351923D01*
X0029293Y0351887D01*
X0029143Y0351856D01*
X0028992Y0351828D01*
X0028841Y0351804D01*
X0028688Y0351784D01*
X0028536Y0351768D01*
X0028383Y0351756D01*
X0028230Y0351748D01*
X0028077Y0351744D01*
X0027923Y0351744D01*
X0027770Y0351748D01*
X0027617Y0351756D01*
X0027464Y0351768D01*
X0027312Y0351784D01*
X0027159Y0351804D01*
X0027008Y0351828D01*
X0026857Y0351856D01*
X0026707Y0351887D01*
X0026558Y0351923D01*
X0026410Y0351962D01*
X0026263Y0352005D01*
X0026117Y0352052D01*
X0025972Y0352103D01*
X0025829Y0352158D01*
X0025687Y0352216D01*
X0025547Y0352278D01*
X0025408Y0352343D01*
X0025271Y0352412D01*
X0025136Y0352485D01*
X0025003Y0352561D01*
X0024872Y0352641D01*
X0024743Y0352723D01*
X0024616Y0352810D01*
X0024491Y0352899D01*
X0024369Y0352992D01*
X0024250Y0353088D01*
X0024132Y0353187D01*
X0024018Y0353288D01*
X0023906Y0353393D01*
X0023797Y0353501D01*
X0023691Y0353612D01*
X0023587Y0353725D01*
X0023487Y0353841D01*
X0023389Y0353959D01*
X0023295Y0354080D01*
X0023204Y0354203D01*
X0023116Y0354329D01*
X0023032Y0354457D01*
X0022950Y0354587D01*
X0022873Y0354719D01*
X0022798Y0354853D01*
X0022727Y0354989D01*
X0022660Y0355127D01*
X0022596Y0355267D01*
X0022536Y0355408D01*
X0022480Y0355550D01*
X0022427Y0355694D01*
X0022378Y0355840D01*
X0022333Y0355986D01*
X0022292Y0356134D01*
X0022255Y0356282D01*
X0022221Y0356432D01*
X0022191Y0356583D01*
X0022166Y0356734D01*
X0022144Y0356885D01*
X0022126Y0357038D01*
X0022112Y0357190D01*
X0022102Y0357343D01*
X0022096Y0357497D01*
X0022094Y0357650D01*
D11*
X0056800Y0341800D03*
X0056800Y0311800D03*
X0086800Y0291800D03*
X0106800Y0311800D03*
X0131800Y0291800D03*
X0156800Y0311800D03*
X0156800Y0341800D03*
X0196800Y0341800D03*
X0196800Y0311800D03*
X0186800Y0291800D03*
X0186800Y0261800D03*
X0221800Y0261800D03*
X0221800Y0291800D03*
X0216800Y0221800D03*
X0241800Y0216800D03*
X0241800Y0206800D03*
X0251800Y0206800D03*
X0216800Y0191800D03*
X0221800Y0166800D03*
X0221800Y0146800D03*
X0191800Y0146800D03*
X0181800Y0156800D03*
X0191800Y0166800D03*
X0181800Y0176800D03*
X0151800Y0176800D03*
X0151800Y0156800D03*
X0152300Y0136300D03*
X0182300Y0136300D03*
X0086800Y0131800D03*
X0071800Y0131800D03*
X0071800Y0101800D03*
X0086800Y0101800D03*
X0076800Y0161800D03*
X0061800Y0161800D03*
X0061800Y0191800D03*
X0076800Y0191800D03*
X0086800Y0261800D03*
X0131800Y0261800D03*
X0106800Y0341800D03*
X0341800Y0231800D03*
X0356800Y0231800D03*
X0356800Y0201800D03*
X0341800Y0201800D03*
X0371800Y0186800D03*
X0381800Y0186800D03*
D12*
X0250550Y0035550D03*
X0240550Y0035550D03*
X0181800Y0036800D03*
X0171800Y0036800D03*
X0111800Y0081800D03*
X0101800Y0081800D03*
X0101800Y0096800D03*
X0111800Y0096800D03*
X0111800Y0111800D03*
X0101800Y0111800D03*
X0030300Y0184300D03*
X0020300Y0184300D03*
X0020300Y0199300D03*
X0030300Y0199300D03*
X0030300Y0214300D03*
X0020300Y0214300D03*
D13*
X0069200Y0291800D02*
X0074400Y0291800D01*
X0074400Y0301800D02*
X0069200Y0301800D01*
X0069200Y0311800D02*
X0074400Y0311800D01*
X0069400Y0341800D02*
X0064200Y0341800D01*
X0064200Y0351800D02*
X0069400Y0351800D01*
X0114200Y0351800D02*
X0119400Y0351800D01*
X0119400Y0341800D02*
X0114200Y0341800D01*
X0114200Y0311800D02*
X0119400Y0311800D01*
X0119400Y0301800D02*
X0114200Y0301800D01*
X0114200Y0291800D02*
X0119400Y0291800D01*
X0169200Y0291800D02*
X0174400Y0291800D01*
X0174400Y0301800D02*
X0169200Y0301800D01*
X0169200Y0311800D02*
X0174400Y0311800D01*
X0204200Y0311800D02*
X0209400Y0311800D01*
X0209400Y0301800D02*
X0204200Y0301800D01*
X0204200Y0291800D02*
X0209400Y0291800D01*
X0241600Y0329200D02*
X0241600Y0334400D01*
X0251600Y0334400D02*
X0251600Y0329200D01*
X0261600Y0329200D02*
X0261600Y0334400D01*
X0271600Y0334400D02*
X0271600Y0329200D01*
X0281600Y0329200D02*
X0281600Y0334400D01*
X0291600Y0334400D02*
X0291600Y0329200D01*
X0301600Y0329200D02*
X0301600Y0334400D01*
X0311600Y0334400D02*
X0311600Y0329200D01*
X0321600Y0329200D02*
X0321600Y0334400D01*
X0331600Y0334400D02*
X0331600Y0329200D01*
X0341600Y0329200D02*
X0341600Y0334400D01*
X0351600Y0334400D02*
X0351600Y0329200D01*
X0209400Y0341800D02*
X0204200Y0341800D01*
X0204200Y0351800D02*
X0209400Y0351800D01*
X0169400Y0351800D02*
X0164200Y0351800D01*
X0164200Y0341800D02*
X0169400Y0341800D01*
X0181800Y0214400D02*
X0181800Y0209200D01*
X0191800Y0209200D02*
X0191800Y0214400D01*
X0201800Y0214400D02*
X0201800Y0209200D01*
X0234800Y0108400D02*
X0234800Y0103200D01*
X0244800Y0103200D02*
X0244800Y0108400D01*
X0254800Y0108400D02*
X0254800Y0103200D01*
D14*
X0261800Y0081800D03*
X0221800Y0081800D03*
X0096800Y0206800D03*
X0096800Y0226800D03*
X0056800Y0226800D03*
X0056800Y0206800D03*
X0046800Y0081800D03*
X0046800Y0061800D03*
X0086800Y0061800D03*
X0086800Y0081800D03*
D15*
X0106800Y0128800D02*
X0106800Y0134800D01*
X0116800Y0134800D02*
X0116800Y0128800D01*
X0126800Y0128800D02*
X0126800Y0134800D01*
X0036800Y0163800D02*
X0036800Y0169800D01*
X0026800Y0169800D02*
X0026800Y0163800D01*
X0016800Y0163800D02*
X0016800Y0169800D01*
X0373800Y0206800D02*
X0379800Y0206800D01*
X0379800Y0216800D02*
X0373800Y0216800D01*
X0373800Y0226800D02*
X0379800Y0226800D01*
D16*
X0268800Y0036800D03*
X0221800Y0036800D03*
X0196800Y0036800D03*
X0156800Y0036800D03*
D17*
X0248400Y0163800D03*
X0248400Y0173800D03*
X0248400Y0183800D03*
X0248400Y0193800D03*
X0278400Y0193800D03*
X0278400Y0183800D03*
X0278400Y0173800D03*
X0278400Y0163800D03*
D18*
X0276300Y0149400D03*
X0266300Y0134200D03*
D19*
X0266300Y0117300D01*
X0254800Y0105800D01*
X0256900Y0105800D01*
X0254800Y0105800D02*
X0261800Y0098800D01*
X0261800Y0081800D01*
X0266700Y0081726D02*
X0274150Y0081726D01*
X0274150Y0083324D02*
X0266472Y0083324D01*
X0266700Y0082775D02*
X0265954Y0084576D01*
X0264576Y0085954D01*
X0264200Y0086110D01*
X0264200Y0099277D01*
X0263835Y0100159D01*
X0259116Y0104878D01*
X0259300Y0105323D01*
X0259300Y0106277D01*
X0259116Y0106722D01*
X0268335Y0115941D01*
X0268700Y0116823D01*
X0268700Y0127600D01*
X0269034Y0127600D01*
X0272900Y0131466D01*
X0272900Y0136934D01*
X0269034Y0140800D01*
X0263566Y0140800D01*
X0259700Y0136934D01*
X0259700Y0131466D01*
X0263566Y0127600D01*
X0263900Y0127600D01*
X0263900Y0118294D01*
X0257373Y0111767D01*
X0257179Y0111961D01*
X0255635Y0112600D01*
X0253965Y0112600D01*
X0252421Y0111961D01*
X0251239Y0110779D01*
X0250600Y0109235D01*
X0250600Y0102365D01*
X0251239Y0100821D01*
X0252421Y0099639D01*
X0253965Y0099000D01*
X0255635Y0099000D01*
X0257179Y0099639D01*
X0257373Y0099833D01*
X0259400Y0097806D01*
X0259400Y0086110D01*
X0259024Y0085954D01*
X0257646Y0084576D01*
X0256900Y0082775D01*
X0256900Y0080825D01*
X0257646Y0079024D01*
X0259024Y0077646D01*
X0260825Y0076900D01*
X0262775Y0076900D01*
X0264576Y0077646D01*
X0265954Y0079024D01*
X0266700Y0080825D01*
X0266700Y0082775D01*
X0265607Y0084923D02*
X0274150Y0084923D01*
X0274150Y0086521D02*
X0264200Y0086521D01*
X0264200Y0088120D02*
X0274150Y0088120D01*
X0274150Y0089718D02*
X0264200Y0089718D01*
X0264200Y0091317D02*
X0274150Y0091317D01*
X0274150Y0092915D02*
X0264200Y0092915D01*
X0264200Y0094514D02*
X0274150Y0094514D01*
X0274150Y0096112D02*
X0264200Y0096112D01*
X0264200Y0097711D02*
X0274150Y0097711D01*
X0274150Y0099309D02*
X0264187Y0099309D01*
X0263086Y0100908D02*
X0274150Y0100908D01*
X0274150Y0102506D02*
X0261488Y0102506D01*
X0259889Y0104105D02*
X0274150Y0104105D01*
X0274150Y0105703D02*
X0259300Y0105703D01*
X0259696Y0107302D02*
X0274150Y0107302D01*
X0274150Y0108900D02*
X0261294Y0108900D01*
X0262893Y0110499D02*
X0274142Y0110499D01*
X0274150Y0109143D02*
X0274150Y0079766D01*
X0270503Y0074200D01*
X0232794Y0074200D01*
X0226544Y0080450D01*
X0226700Y0080825D01*
X0226700Y0082775D01*
X0225954Y0084576D01*
X0224576Y0085954D01*
X0222775Y0086700D01*
X0220825Y0086700D01*
X0219024Y0085954D01*
X0217646Y0084576D01*
X0216900Y0082775D01*
X0216900Y0080825D01*
X0217646Y0079024D01*
X0219024Y0077646D01*
X0220825Y0076900D01*
X0222775Y0076900D01*
X0223150Y0077056D01*
X0230441Y0069765D01*
X0231323Y0069400D01*
X0271575Y0069400D01*
X0271822Y0069353D01*
X0272047Y0069400D01*
X0272277Y0069400D01*
X0272510Y0069496D01*
X0272757Y0069548D01*
X0272947Y0069677D01*
X0273159Y0069765D01*
X0273338Y0069944D01*
X0273546Y0070085D01*
X0273672Y0070278D01*
X0273835Y0070441D01*
X0273931Y0070673D01*
X0278422Y0077528D01*
X0278585Y0077691D01*
X0278681Y0077923D01*
X0278819Y0078134D01*
X0278862Y0078360D01*
X0278950Y0078573D01*
X0278950Y0078825D01*
X0278997Y0079072D01*
X0278950Y0079297D01*
X0278950Y0108680D01*
X0278953Y0108688D01*
X0278950Y0109157D01*
X0278950Y0109627D01*
X0278947Y0109635D01*
X0278741Y0142800D01*
X0279034Y0142800D01*
X0282900Y0146666D01*
X0282900Y0152134D01*
X0279034Y0156000D01*
X0273566Y0156000D01*
X0269700Y0152134D01*
X0269700Y0146666D01*
X0273566Y0142800D01*
X0273941Y0142800D01*
X0274150Y0109143D01*
X0276550Y0109150D02*
X0276300Y0149400D01*
X0282900Y0148863D02*
X0387000Y0148863D01*
X0387000Y0147265D02*
X0282900Y0147265D01*
X0281900Y0145666D02*
X0387000Y0145666D01*
X0387000Y0144068D02*
X0280301Y0144068D01*
X0278743Y0142469D02*
X0387000Y0142469D01*
X0387000Y0140870D02*
X0278753Y0140870D01*
X0278763Y0139272D02*
X0387000Y0139272D01*
X0387000Y0137673D02*
X0278773Y0137673D01*
X0278783Y0136075D02*
X0387000Y0136075D01*
X0387000Y0134476D02*
X0278793Y0134476D01*
X0278803Y0132878D02*
X0387000Y0132878D01*
X0387000Y0131279D02*
X0278813Y0131279D01*
X0278823Y0129681D02*
X0387000Y0129681D01*
X0387000Y0128082D02*
X0278832Y0128082D01*
X0278842Y0126484D02*
X0387000Y0126484D01*
X0387000Y0124885D02*
X0278852Y0124885D01*
X0278862Y0123287D02*
X0387000Y0123287D01*
X0387000Y0121688D02*
X0278872Y0121688D01*
X0278882Y0120090D02*
X0387000Y0120090D01*
X0387000Y0118491D02*
X0278892Y0118491D01*
X0278902Y0116893D02*
X0387000Y0116893D01*
X0387000Y0115294D02*
X0278912Y0115294D01*
X0278922Y0113696D02*
X0387000Y0113696D01*
X0387000Y0112097D02*
X0278932Y0112097D01*
X0278942Y0110499D02*
X0387000Y0110499D01*
X0387000Y0108900D02*
X0278952Y0108900D01*
X0278950Y0107302D02*
X0387000Y0107302D01*
X0387000Y0105703D02*
X0278950Y0105703D01*
X0278950Y0104105D02*
X0387000Y0104105D01*
X0387000Y0102506D02*
X0278950Y0102506D01*
X0278950Y0100908D02*
X0387000Y0100908D01*
X0387000Y0099309D02*
X0278950Y0099309D01*
X0278950Y0097711D02*
X0387000Y0097711D01*
X0387000Y0096112D02*
X0278950Y0096112D01*
X0278950Y0094514D02*
X0387000Y0094514D01*
X0387000Y0092915D02*
X0278950Y0092915D01*
X0278950Y0091317D02*
X0387000Y0091317D01*
X0387000Y0089718D02*
X0278950Y0089718D01*
X0278950Y0088120D02*
X0387000Y0088120D01*
X0387000Y0086521D02*
X0278950Y0086521D01*
X0278950Y0084923D02*
X0387000Y0084923D01*
X0387000Y0083324D02*
X0278950Y0083324D01*
X0278950Y0081726D02*
X0387000Y0081726D01*
X0387000Y0080127D02*
X0278950Y0080127D01*
X0278932Y0078529D02*
X0387000Y0078529D01*
X0387000Y0076930D02*
X0278030Y0076930D01*
X0276983Y0075332D02*
X0387000Y0075332D01*
X0387000Y0073733D02*
X0275936Y0073733D01*
X0274888Y0072134D02*
X0387000Y0072134D01*
X0387000Y0070536D02*
X0273874Y0070536D01*
X0271800Y0071800D02*
X0231800Y0071800D01*
X0221800Y0081800D01*
X0226700Y0081726D02*
X0256900Y0081726D01*
X0257128Y0083324D02*
X0226472Y0083324D01*
X0225607Y0084923D02*
X0257993Y0084923D01*
X0259400Y0086521D02*
X0223207Y0086521D01*
X0220393Y0086521D02*
X0119915Y0086521D01*
X0118317Y0084923D02*
X0217993Y0084923D01*
X0217128Y0083324D02*
X0116718Y0083324D01*
X0116550Y0083156D02*
X0143835Y0110441D01*
X0144200Y0111323D01*
X0144200Y0132277D01*
X0143835Y0133159D01*
X0143159Y0133835D01*
X0133159Y0143835D01*
X0132277Y0144200D01*
X0111323Y0144200D01*
X0110441Y0143835D01*
X0109765Y0143159D01*
X0106006Y0139400D01*
X0105885Y0139400D01*
X0104194Y0138700D01*
X0102900Y0137406D01*
X0102200Y0135715D01*
X0102200Y0134200D01*
X0090340Y0134200D01*
X0088540Y0136000D01*
X0085060Y0136000D01*
X0083260Y0134200D01*
X0075340Y0134200D01*
X0073540Y0136000D01*
X0070060Y0136000D01*
X0067600Y0133540D01*
X0067600Y0130060D01*
X0070060Y0127600D01*
X0073540Y0127600D01*
X0075340Y0129400D01*
X0083260Y0129400D01*
X0085060Y0127600D01*
X0088540Y0127600D01*
X0090340Y0129400D01*
X0102200Y0129400D01*
X0102200Y0127885D01*
X0102900Y0126194D01*
X0104194Y0124900D01*
X0105885Y0124200D01*
X0107715Y0124200D01*
X0109406Y0124900D01*
X0110700Y0126194D01*
X0111400Y0127885D01*
X0111400Y0135715D01*
X0110729Y0137335D01*
X0112794Y0139400D01*
X0130806Y0139400D01*
X0139400Y0130806D01*
X0139400Y0112794D01*
X0113156Y0086550D01*
X0109832Y0086550D01*
X0107050Y0083768D01*
X0107050Y0079832D01*
X0109400Y0077482D01*
X0109400Y0062794D01*
X0100806Y0054200D01*
X0077794Y0054200D01*
X0051544Y0080450D01*
X0051700Y0080825D01*
X0051700Y0082775D01*
X0050954Y0084576D01*
X0049576Y0085954D01*
X0047775Y0086700D01*
X0045825Y0086700D01*
X0044024Y0085954D01*
X0042646Y0084576D01*
X0041900Y0082775D01*
X0041900Y0080825D01*
X0042646Y0079024D01*
X0044024Y0077646D01*
X0045825Y0076900D01*
X0047775Y0076900D01*
X0048150Y0077056D01*
X0075441Y0049765D01*
X0076323Y0049400D01*
X0102277Y0049400D01*
X0103159Y0049765D01*
X0103835Y0050441D01*
X0113835Y0060441D01*
X0114200Y0061323D01*
X0114200Y0077482D01*
X0116550Y0079832D01*
X0116550Y0083156D01*
X0116550Y0081726D02*
X0216900Y0081726D01*
X0217189Y0080127D02*
X0116550Y0080127D01*
X0115246Y0078529D02*
X0218142Y0078529D01*
X0220753Y0076930D02*
X0114200Y0076930D01*
X0114200Y0075332D02*
X0224874Y0075332D01*
X0223276Y0076930D02*
X0222847Y0076930D01*
X0226473Y0073733D02*
X0114200Y0073733D01*
X0114200Y0072134D02*
X0228071Y0072134D01*
X0229670Y0070536D02*
X0114200Y0070536D01*
X0114200Y0068937D02*
X0387000Y0068937D01*
X0387000Y0067339D02*
X0253061Y0067339D01*
X0252914Y0067400D02*
X0252329Y0067400D01*
X0251754Y0067510D01*
X0251225Y0067400D01*
X0210686Y0067400D01*
X0208628Y0066547D01*
X0193628Y0051547D01*
X0192053Y0049972D01*
X0191401Y0048400D01*
X0191137Y0048400D01*
X0190200Y0047463D01*
X0190200Y0039200D01*
X0186117Y0039200D01*
X0183768Y0041550D01*
X0179832Y0041550D01*
X0177050Y0038768D01*
X0177050Y0034832D01*
X0179832Y0032050D01*
X0183768Y0032050D01*
X0186117Y0034400D01*
X0190200Y0034400D01*
X0190200Y0029144D01*
X0184638Y0024200D01*
X0132527Y0024200D01*
X0103329Y0043665D01*
X0103159Y0043835D01*
X0102936Y0043927D01*
X0102734Y0044062D01*
X0102499Y0044108D01*
X0102277Y0044200D01*
X0102035Y0044200D01*
X0101797Y0044247D01*
X0101562Y0044200D01*
X0072794Y0044200D01*
X0053835Y0063159D01*
X0053835Y0063159D01*
X0053159Y0063835D01*
X0052277Y0064200D01*
X0051110Y0064200D01*
X0050954Y0064576D01*
X0049576Y0065954D01*
X0049200Y0066110D01*
X0049200Y0067277D01*
X0048835Y0068159D01*
X0024200Y0092794D01*
X0024200Y0156006D01*
X0040441Y0139765D01*
X0041323Y0139400D01*
X0082277Y0139400D01*
X0083159Y0139765D01*
X0083835Y0140441D01*
X0113835Y0170441D01*
X0114200Y0171323D01*
X0114200Y0212277D01*
X0113835Y0213159D01*
X0113159Y0213835D01*
X0101544Y0225450D01*
X0101700Y0225825D01*
X0101700Y0227775D01*
X0100954Y0229576D01*
X0099576Y0230954D01*
X0097775Y0231700D01*
X0095825Y0231700D01*
X0094024Y0230954D01*
X0092646Y0229576D01*
X0091900Y0227775D01*
X0091900Y0225825D01*
X0092646Y0224024D01*
X0094024Y0222646D01*
X0095825Y0221900D01*
X0097775Y0221900D01*
X0098150Y0222056D01*
X0109400Y0210806D01*
X0109400Y0172794D01*
X0080806Y0144200D01*
X0042794Y0144200D01*
X0027771Y0159223D01*
X0029406Y0159900D01*
X0030700Y0161194D01*
X0031400Y0162885D01*
X0031400Y0169806D01*
X0032200Y0169006D01*
X0032200Y0162885D01*
X0032900Y0161194D01*
X0034194Y0159900D01*
X0035885Y0159200D01*
X0037715Y0159200D01*
X0039406Y0159900D01*
X0040700Y0161194D01*
X0041400Y0162885D01*
X0041400Y0164400D01*
X0045806Y0164400D01*
X0059765Y0150441D01*
X0060441Y0149765D01*
X0061323Y0149400D01*
X0082277Y0149400D01*
X0083159Y0149765D01*
X0093159Y0159765D01*
X0093835Y0160441D01*
X0094200Y0161323D01*
X0094200Y0177277D01*
X0093835Y0178159D01*
X0081000Y0190994D01*
X0081000Y0192606D01*
X0092579Y0204185D01*
X0092646Y0204024D01*
X0094024Y0202646D01*
X0095825Y0201900D01*
X0097775Y0201900D01*
X0099576Y0202646D01*
X0100954Y0204024D01*
X0101700Y0205825D01*
X0101700Y0207775D01*
X0100954Y0209576D01*
X0099576Y0210954D01*
X0097775Y0211700D01*
X0095825Y0211700D01*
X0094024Y0210954D01*
X0092646Y0209576D01*
X0092490Y0209200D01*
X0091323Y0209200D01*
X0090441Y0208835D01*
X0077606Y0196000D01*
X0075060Y0196000D01*
X0073260Y0194200D01*
X0065340Y0194200D01*
X0063540Y0196000D01*
X0060060Y0196000D01*
X0057600Y0193540D01*
X0057600Y0190060D01*
X0060060Y0187600D01*
X0063540Y0187600D01*
X0065340Y0189400D01*
X0073260Y0189400D01*
X0075060Y0187600D01*
X0077606Y0187600D01*
X0089400Y0175806D01*
X0089400Y0162794D01*
X0080806Y0154200D01*
X0062794Y0154200D01*
X0048159Y0168835D01*
X0047277Y0169200D01*
X0041400Y0169200D01*
X0041400Y0170715D01*
X0040700Y0172406D01*
X0039406Y0173700D01*
X0037715Y0174400D01*
X0035885Y0174400D01*
X0034265Y0173729D01*
X0028644Y0179350D01*
X0030300Y0179350D01*
X0032350Y0179350D01*
X0035250Y0182250D01*
X0035250Y0184300D01*
X0035250Y0186350D01*
X0032350Y0189250D01*
X0030300Y0189250D01*
X0030300Y0184300D01*
X0030300Y0184300D01*
X0035250Y0184300D01*
X0030300Y0184300D01*
X0030300Y0184300D01*
X0030300Y0184300D01*
X0025350Y0184300D01*
X0025350Y0186350D01*
X0028250Y0189250D01*
X0030300Y0189250D01*
X0030300Y0184300D01*
X0030300Y0179350D01*
X0030300Y0184300D01*
X0030300Y0184300D01*
X0025350Y0184300D01*
X0025350Y0182644D01*
X0025050Y0182944D01*
X0025050Y0186268D01*
X0022268Y0189050D01*
X0018332Y0189050D01*
X0015550Y0186268D01*
X0015550Y0182332D01*
X0018332Y0179550D01*
X0021656Y0179550D01*
X0026806Y0174400D01*
X0025885Y0174400D01*
X0024194Y0173700D01*
X0023744Y0173250D01*
X0014200Y0182794D01*
X0014200Y0210806D01*
X0015294Y0211900D01*
X0015982Y0211900D01*
X0018332Y0209550D01*
X0022268Y0209550D01*
X0025050Y0212332D01*
X0025050Y0216268D01*
X0022700Y0218618D01*
X0022700Y0223056D01*
X0022794Y0223150D01*
X0053520Y0223150D01*
X0054024Y0222646D01*
X0054400Y0222490D01*
X0054400Y0211110D01*
X0054024Y0210954D01*
X0052646Y0209576D01*
X0051900Y0207775D01*
X0051900Y0205825D01*
X0052056Y0205450D01*
X0049765Y0203159D01*
X0049400Y0202277D01*
X0049400Y0181323D01*
X0049765Y0180441D01*
X0050441Y0179765D01*
X0070441Y0159765D01*
X0071323Y0159400D01*
X0073260Y0159400D01*
X0075060Y0157600D01*
X0078540Y0157600D01*
X0081000Y0160060D01*
X0081000Y0163540D01*
X0078540Y0166000D01*
X0075060Y0166000D01*
X0073260Y0164200D01*
X0072794Y0164200D01*
X0054200Y0182794D01*
X0054200Y0200806D01*
X0055450Y0202056D01*
X0055825Y0201900D01*
X0057775Y0201900D01*
X0059576Y0202646D01*
X0060954Y0204024D01*
X0061700Y0205825D01*
X0061700Y0207775D01*
X0060954Y0209576D01*
X0059576Y0210954D01*
X0059200Y0211110D01*
X0059200Y0222490D01*
X0059576Y0222646D01*
X0060954Y0224024D01*
X0061700Y0225825D01*
X0061700Y0227775D01*
X0060954Y0229576D01*
X0059576Y0230954D01*
X0057775Y0231700D01*
X0055825Y0231700D01*
X0055450Y0231544D01*
X0044200Y0242794D01*
X0044200Y0340806D01*
X0052794Y0349400D01*
X0060660Y0349400D01*
X0061821Y0348239D01*
X0063365Y0347600D01*
X0070235Y0347600D01*
X0071779Y0348239D01*
X0072940Y0349400D01*
X0110660Y0349400D01*
X0111821Y0348239D01*
X0113365Y0347600D01*
X0120235Y0347600D01*
X0121779Y0348239D01*
X0122940Y0349400D01*
X0160660Y0349400D01*
X0161821Y0348239D01*
X0163365Y0347600D01*
X0170235Y0347600D01*
X0171779Y0348239D01*
X0172940Y0349400D01*
X0200660Y0349400D01*
X0201821Y0348239D01*
X0203365Y0347600D01*
X0210235Y0347600D01*
X0211779Y0348239D01*
X0212940Y0349400D01*
X0230806Y0349400D01*
X0239380Y0340826D01*
X0239324Y0338003D01*
X0239221Y0337961D01*
X0238039Y0336779D01*
X0237400Y0335235D01*
X0237400Y0328365D01*
X0238039Y0326821D01*
X0239221Y0325639D01*
X0240765Y0325000D01*
X0242435Y0325000D01*
X0243979Y0325639D01*
X0245161Y0326821D01*
X0245800Y0328365D01*
X0245800Y0335235D01*
X0245161Y0336779D01*
X0244121Y0337819D01*
X0244190Y0341300D01*
X0244200Y0341323D01*
X0244200Y0341776D01*
X0244209Y0342229D01*
X0244200Y0342252D01*
X0244200Y0342277D01*
X0244027Y0342696D01*
X0243861Y0343119D01*
X0243844Y0343136D01*
X0243835Y0343159D01*
X0243514Y0343480D01*
X0243200Y0343807D01*
X0243177Y0343817D01*
X0233835Y0353159D01*
X0233835Y0353159D01*
X0233159Y0353835D01*
X0232277Y0354200D01*
X0212940Y0354200D01*
X0211779Y0355361D01*
X0210235Y0356000D01*
X0203365Y0356000D01*
X0201821Y0355361D01*
X0200660Y0354200D01*
X0172940Y0354200D01*
X0171779Y0355361D01*
X0170235Y0356000D01*
X0163365Y0356000D01*
X0161821Y0355361D01*
X0160660Y0354200D01*
X0122940Y0354200D01*
X0121779Y0355361D01*
X0120235Y0356000D01*
X0113365Y0356000D01*
X0111821Y0355361D01*
X0110660Y0354200D01*
X0072940Y0354200D01*
X0071779Y0355361D01*
X0070235Y0356000D01*
X0063365Y0356000D01*
X0061821Y0355361D01*
X0060660Y0354200D01*
X0051323Y0354200D01*
X0050441Y0353835D01*
X0040441Y0343835D01*
X0039765Y0343159D01*
X0039400Y0342277D01*
X0039400Y0241323D01*
X0039765Y0240441D01*
X0052056Y0228150D01*
X0051973Y0227950D01*
X0021323Y0227950D01*
X0020441Y0227585D01*
X0019765Y0226909D01*
X0018265Y0225409D01*
X0017900Y0224527D01*
X0017900Y0218618D01*
X0015982Y0216700D01*
X0013823Y0216700D01*
X0012941Y0216335D01*
X0010441Y0213835D01*
X0009765Y0213159D01*
X0009400Y0212277D01*
X0009400Y0181323D01*
X0009765Y0180441D01*
X0015829Y0174377D01*
X0014194Y0173700D01*
X0012900Y0172406D01*
X0012200Y0170715D01*
X0012200Y0162885D01*
X0012900Y0161194D01*
X0014194Y0159900D01*
X0015885Y0159200D01*
X0017715Y0159200D01*
X0019400Y0159898D01*
X0019400Y0091323D01*
X0019765Y0090441D01*
X0020441Y0089765D01*
X0044185Y0066021D01*
X0044024Y0065954D01*
X0042646Y0064576D01*
X0041900Y0062775D01*
X0041900Y0060825D01*
X0042646Y0059024D01*
X0044024Y0057646D01*
X0045825Y0056900D01*
X0047775Y0056900D01*
X0049576Y0057646D01*
X0050954Y0059024D01*
X0051021Y0059185D01*
X0069765Y0040441D01*
X0069765Y0040441D01*
X0070441Y0039765D01*
X0071323Y0039400D01*
X0101073Y0039400D01*
X0130271Y0019935D01*
X0130441Y0019765D01*
X0130664Y0019673D01*
X0130866Y0019538D01*
X0131101Y0019492D01*
X0131323Y0019400D01*
X0131565Y0019400D01*
X0131803Y0019353D01*
X0132038Y0019400D01*
X0185479Y0019400D01*
X0185886Y0019376D01*
X0185954Y0019400D01*
X0186027Y0019400D01*
X0186403Y0019556D01*
X0186788Y0019689D01*
X0186842Y0019738D01*
X0186909Y0019765D01*
X0187197Y0020053D01*
X0192987Y0025200D01*
X0202463Y0025200D01*
X0203400Y0026137D01*
X0203400Y0045480D01*
X0214120Y0056200D01*
X0248836Y0056200D01*
X0260396Y0039200D01*
X0253617Y0039200D01*
X0252518Y0040300D01*
X0248582Y0040300D01*
X0245800Y0037518D01*
X0245800Y0033582D01*
X0248582Y0030800D01*
X0252518Y0030800D01*
X0255300Y0033582D01*
X0255300Y0034400D01*
X0262200Y0034400D01*
X0262200Y0026137D01*
X0263137Y0025200D01*
X0274463Y0025200D01*
X0275400Y0026137D01*
X0275400Y0047463D01*
X0274463Y0048400D01*
X0267684Y0048400D01*
X0256754Y0064474D01*
X0256547Y0064972D01*
X0256134Y0065386D01*
X0255804Y0065870D01*
X0255354Y0066166D01*
X0254972Y0066547D01*
X0254431Y0066771D01*
X0253942Y0067093D01*
X0253412Y0067194D01*
X0252914Y0067400D01*
X0255893Y0065740D02*
X0387000Y0065740D01*
X0387000Y0064142D02*
X0256980Y0064142D01*
X0258067Y0062543D02*
X0387000Y0062543D01*
X0387000Y0060945D02*
X0259154Y0060945D01*
X0260241Y0059346D02*
X0387000Y0059346D01*
X0387000Y0057748D02*
X0261327Y0057748D01*
X0262414Y0056149D02*
X0387000Y0056149D01*
X0387000Y0054551D02*
X0263501Y0054551D01*
X0264588Y0052952D02*
X0387000Y0052952D01*
X0387000Y0051354D02*
X0265675Y0051354D01*
X0266762Y0049755D02*
X0387000Y0049755D01*
X0387000Y0048157D02*
X0274706Y0048157D01*
X0275400Y0046558D02*
X0387000Y0046558D01*
X0387000Y0044960D02*
X0370093Y0044960D01*
X0371938Y0044539D02*
X0367055Y0045653D01*
X0362062Y0045279D01*
X0362062Y0045279D01*
X0357400Y0043449D01*
X0353485Y0040327D01*
X0353485Y0040327D01*
X0353485Y0040327D01*
X0350664Y0036189D01*
X0349188Y0031404D01*
X0349188Y0026396D01*
X0350664Y0021611D01*
X0350664Y0021611D01*
X0353485Y0017473D01*
X0357400Y0014351D01*
X0362062Y0012521D01*
X0367055Y0012147D01*
X0367055Y0012147D01*
X0371938Y0013261D01*
X0376275Y0015765D01*
X0379681Y0019436D01*
X0381854Y0023948D01*
X0382600Y0028900D01*
X0381854Y0033852D01*
X0379681Y0038364D01*
X0376275Y0042035D01*
X0376275Y0042035D01*
X0371938Y0044539D01*
X0371938Y0044539D01*
X0373977Y0043361D02*
X0387000Y0043361D01*
X0387000Y0041763D02*
X0376527Y0041763D01*
X0378010Y0040164D02*
X0387000Y0040164D01*
X0387000Y0038566D02*
X0379493Y0038566D01*
X0379681Y0038364D02*
X0379681Y0038364D01*
X0380353Y0036967D02*
X0387000Y0036967D01*
X0387000Y0035369D02*
X0381123Y0035369D01*
X0381854Y0033852D02*
X0381854Y0033852D01*
X0381866Y0033770D02*
X0387000Y0033770D01*
X0387000Y0032172D02*
X0382107Y0032172D01*
X0382348Y0030573D02*
X0387000Y0030573D01*
X0387000Y0028975D02*
X0382589Y0028975D01*
X0382370Y0027376D02*
X0387000Y0027376D01*
X0387000Y0025778D02*
X0382129Y0025778D01*
X0381888Y0024179D02*
X0387000Y0024179D01*
X0387000Y0022581D02*
X0381195Y0022581D01*
X0381854Y0023948D02*
X0381854Y0023948D01*
X0380425Y0020982D02*
X0387000Y0020982D01*
X0387000Y0019384D02*
X0379632Y0019384D01*
X0379681Y0019436D02*
X0379681Y0019436D01*
X0378149Y0017785D02*
X0387000Y0017785D01*
X0387000Y0016187D02*
X0376666Y0016187D01*
X0376275Y0015765D02*
X0376275Y0015765D01*
X0376275Y0015765D01*
X0374236Y0014588D02*
X0387000Y0014588D01*
X0387000Y0012990D02*
X0370747Y0012990D01*
X0371938Y0013261D02*
X0371938Y0013261D01*
X0362062Y0012521D02*
X0362062Y0012521D01*
X0360868Y0012990D02*
X0037985Y0012990D01*
X0039675Y0013965D02*
X0035338Y0011461D01*
X0035338Y0011461D01*
X0030455Y0010347D01*
X0030455Y0010347D01*
X0025462Y0010721D01*
X0025462Y0010721D01*
X0020800Y0012551D01*
X0020800Y0012551D01*
X0016885Y0015673D01*
X0016885Y0015673D01*
X0016885Y0015673D01*
X0014064Y0019811D01*
X0014064Y0019811D01*
X0012588Y0024596D01*
X0012588Y0029604D01*
X0014064Y0034389D01*
X0014064Y0034389D01*
X0016885Y0038527D01*
X0016885Y0038527D01*
X0020800Y0041649D01*
X0020800Y0041649D01*
X0025462Y0043479D01*
X0025462Y0043479D01*
X0030455Y0043853D01*
X0030455Y0043853D01*
X0035338Y0042739D01*
X0035338Y0042739D01*
X0039675Y0040235D01*
X0039675Y0040235D01*
X0043081Y0036564D01*
X0043081Y0036564D01*
X0045254Y0032052D01*
X0046000Y0027100D01*
X0046000Y0027100D01*
X0045254Y0022148D01*
X0043081Y0017636D01*
X0039675Y0013965D01*
X0039675Y0013965D01*
X0039675Y0013965D01*
X0040253Y0014588D02*
X0357102Y0014588D01*
X0357400Y0014351D02*
X0357400Y0014351D01*
X0355098Y0016187D02*
X0041736Y0016187D01*
X0043152Y0017785D02*
X0353272Y0017785D01*
X0353485Y0017473D02*
X0353485Y0017473D01*
X0353485Y0017473D01*
X0352182Y0019384D02*
X0327058Y0019384D01*
X0325893Y0018711D02*
X0328607Y0020278D01*
X0330822Y0022493D01*
X0332389Y0025207D01*
X0333200Y0028233D01*
X0333200Y0031367D01*
X0332389Y0034393D01*
X0330822Y0037107D01*
X0328607Y0039322D01*
X0325893Y0040889D01*
X0322867Y0041700D01*
X0319733Y0041700D01*
X0316707Y0040889D01*
X0313993Y0039322D01*
X0311778Y0037107D01*
X0310211Y0034393D01*
X0309400Y0031367D01*
X0309400Y0028233D01*
X0310211Y0025207D01*
X0311778Y0022493D01*
X0313993Y0020278D01*
X0316707Y0018711D01*
X0319733Y0017900D01*
X0322867Y0017900D01*
X0325893Y0018711D01*
X0329311Y0020982D02*
X0351092Y0020982D01*
X0350365Y0022581D02*
X0330873Y0022581D01*
X0331796Y0024179D02*
X0349871Y0024179D01*
X0349378Y0025778D02*
X0332542Y0025778D01*
X0332970Y0027376D02*
X0349188Y0027376D01*
X0349188Y0028975D02*
X0333200Y0028975D01*
X0333200Y0030573D02*
X0349188Y0030573D01*
X0349424Y0032172D02*
X0332984Y0032172D01*
X0332556Y0033770D02*
X0349918Y0033770D01*
X0350411Y0035369D02*
X0331826Y0035369D01*
X0330903Y0036967D02*
X0351194Y0036967D01*
X0350664Y0036189D02*
X0350664Y0036189D01*
X0352284Y0038566D02*
X0329363Y0038566D01*
X0327149Y0040164D02*
X0353374Y0040164D01*
X0355285Y0041763D02*
X0275400Y0041763D01*
X0275400Y0043361D02*
X0357290Y0043361D01*
X0357400Y0043449D02*
X0357400Y0043449D01*
X0361249Y0044960D02*
X0275400Y0044960D01*
X0275400Y0040164D02*
X0315451Y0040164D01*
X0313237Y0038566D02*
X0275400Y0038566D01*
X0275400Y0036967D02*
X0311697Y0036967D01*
X0310774Y0035369D02*
X0275400Y0035369D01*
X0275400Y0033770D02*
X0310044Y0033770D01*
X0309616Y0032172D02*
X0275400Y0032172D01*
X0275400Y0030573D02*
X0309400Y0030573D01*
X0309400Y0028975D02*
X0275400Y0028975D01*
X0275400Y0027376D02*
X0309630Y0027376D01*
X0310058Y0025778D02*
X0275040Y0025778D01*
X0262560Y0025778D02*
X0228288Y0025778D01*
X0228240Y0025695D02*
X0228477Y0026105D01*
X0228600Y0026563D01*
X0228600Y0036000D01*
X0222600Y0036000D01*
X0222600Y0037600D01*
X0228600Y0037600D01*
X0228600Y0047037D01*
X0228477Y0047495D01*
X0228240Y0047905D01*
X0227905Y0048240D01*
X0227495Y0048477D01*
X0227037Y0048600D01*
X0222600Y0048600D01*
X0222600Y0037600D01*
X0221000Y0037600D01*
X0221000Y0048600D01*
X0216563Y0048600D01*
X0216105Y0048477D01*
X0215695Y0048240D01*
X0215360Y0047905D01*
X0215123Y0047495D01*
X0215000Y0047037D01*
X0215000Y0037600D01*
X0221000Y0037600D01*
X0221000Y0036000D01*
X0222600Y0036000D01*
X0222600Y0025000D01*
X0227037Y0025000D01*
X0227495Y0025123D01*
X0227905Y0025360D01*
X0228240Y0025695D01*
X0228600Y0027376D02*
X0262200Y0027376D01*
X0262200Y0028975D02*
X0228600Y0028975D01*
X0228600Y0030573D02*
X0262200Y0030573D01*
X0262200Y0032172D02*
X0253889Y0032172D01*
X0255300Y0033770D02*
X0262200Y0033770D01*
X0259740Y0040164D02*
X0252653Y0040164D01*
X0251800Y0036800D02*
X0250550Y0035550D01*
X0251800Y0036800D02*
X0268800Y0036800D01*
X0258653Y0041763D02*
X0228600Y0041763D01*
X0228600Y0043361D02*
X0257566Y0043361D01*
X0256479Y0044960D02*
X0228600Y0044960D01*
X0228600Y0046558D02*
X0255392Y0046558D01*
X0254305Y0048157D02*
X0227989Y0048157D01*
X0222600Y0048157D02*
X0221000Y0048157D01*
X0221000Y0046558D02*
X0222600Y0046558D01*
X0222600Y0044960D02*
X0221000Y0044960D01*
X0221000Y0043361D02*
X0222600Y0043361D01*
X0222600Y0041763D02*
X0221000Y0041763D01*
X0221000Y0040164D02*
X0222600Y0040164D01*
X0222600Y0038566D02*
X0221000Y0038566D01*
X0221000Y0036967D02*
X0203400Y0036967D01*
X0203400Y0035369D02*
X0215000Y0035369D01*
X0215000Y0036000D02*
X0215000Y0026563D01*
X0215123Y0026105D01*
X0215360Y0025695D01*
X0215695Y0025360D01*
X0216105Y0025123D01*
X0216563Y0025000D01*
X0221000Y0025000D01*
X0221000Y0036000D01*
X0215000Y0036000D01*
X0215000Y0033770D02*
X0203400Y0033770D01*
X0203400Y0032172D02*
X0215000Y0032172D01*
X0215000Y0030573D02*
X0203400Y0030573D01*
X0203400Y0028975D02*
X0215000Y0028975D01*
X0215000Y0027376D02*
X0203400Y0027376D01*
X0203040Y0025778D02*
X0215312Y0025778D01*
X0221000Y0025778D02*
X0222600Y0025778D01*
X0222600Y0027376D02*
X0221000Y0027376D01*
X0221000Y0028975D02*
X0222600Y0028975D01*
X0222600Y0030573D02*
X0221000Y0030573D01*
X0221000Y0032172D02*
X0222600Y0032172D01*
X0222600Y0033770D02*
X0221000Y0033770D01*
X0221000Y0035369D02*
X0222600Y0035369D01*
X0222600Y0036967D02*
X0235600Y0036967D01*
X0235600Y0037600D02*
X0235600Y0035550D01*
X0240550Y0035550D01*
X0245500Y0035550D01*
X0245500Y0037600D01*
X0242600Y0040500D01*
X0240550Y0040500D01*
X0240550Y0035550D01*
X0240550Y0035550D01*
X0240550Y0035550D01*
X0245500Y0035550D01*
X0245500Y0033500D01*
X0242600Y0030600D01*
X0240550Y0030600D01*
X0240550Y0035550D01*
X0240550Y0035550D01*
X0240550Y0035550D01*
X0240550Y0040500D01*
X0238500Y0040500D01*
X0235600Y0037600D01*
X0236565Y0038566D02*
X0228600Y0038566D01*
X0228600Y0040164D02*
X0238164Y0040164D01*
X0240550Y0040164D02*
X0240550Y0040164D01*
X0240550Y0038566D02*
X0240550Y0038566D01*
X0240550Y0036967D02*
X0240550Y0036967D01*
X0240550Y0035550D02*
X0235600Y0035550D01*
X0235600Y0033500D01*
X0238500Y0030600D01*
X0240550Y0030600D01*
X0240550Y0035550D01*
X0240550Y0035369D02*
X0240550Y0035369D01*
X0240550Y0033770D02*
X0240550Y0033770D01*
X0240550Y0032172D02*
X0240550Y0032172D01*
X0244172Y0032172D02*
X0247211Y0032172D01*
X0245800Y0033770D02*
X0245500Y0033770D01*
X0245500Y0035369D02*
X0245800Y0035369D01*
X0245800Y0036967D02*
X0245500Y0036967D01*
X0244535Y0038566D02*
X0246848Y0038566D01*
X0248447Y0040164D02*
X0242936Y0040164D01*
X0235600Y0035369D02*
X0228600Y0035369D01*
X0228600Y0033770D02*
X0235600Y0033770D01*
X0236928Y0032172D02*
X0228600Y0032172D01*
X0215000Y0038566D02*
X0203400Y0038566D01*
X0203400Y0040164D02*
X0215000Y0040164D01*
X0215000Y0041763D02*
X0203400Y0041763D01*
X0203400Y0043361D02*
X0215000Y0043361D01*
X0215000Y0044960D02*
X0203400Y0044960D01*
X0204478Y0046558D02*
X0215000Y0046558D01*
X0215611Y0048157D02*
X0206076Y0048157D01*
X0207675Y0049755D02*
X0253218Y0049755D01*
X0252131Y0051354D02*
X0209273Y0051354D01*
X0210872Y0052952D02*
X0251044Y0052952D01*
X0249957Y0054551D02*
X0212470Y0054551D01*
X0214069Y0056149D02*
X0248870Y0056149D01*
X0231663Y0075332D02*
X0271245Y0075332D01*
X0272292Y0076930D02*
X0262847Y0076930D01*
X0260753Y0076930D02*
X0230064Y0076930D01*
X0228466Y0078529D02*
X0258142Y0078529D01*
X0257189Y0080127D02*
X0226867Y0080127D01*
X0210539Y0067339D02*
X0114200Y0067339D01*
X0114200Y0065740D02*
X0207821Y0065740D01*
X0206222Y0064142D02*
X0114200Y0064142D01*
X0114200Y0062543D02*
X0204624Y0062543D01*
X0203025Y0060945D02*
X0114044Y0060945D01*
X0112741Y0059346D02*
X0201427Y0059346D01*
X0199828Y0057748D02*
X0111142Y0057748D01*
X0109543Y0056149D02*
X0198230Y0056149D01*
X0196631Y0054551D02*
X0107945Y0054551D01*
X0106346Y0052952D02*
X0195033Y0052952D01*
X0193434Y0051354D02*
X0104748Y0051354D01*
X0103135Y0049755D02*
X0191963Y0049755D01*
X0190894Y0048157D02*
X0162989Y0048157D01*
X0162905Y0048240D02*
X0162495Y0048477D01*
X0162037Y0048600D01*
X0157600Y0048600D01*
X0157600Y0037600D01*
X0163600Y0037600D01*
X0163600Y0047037D01*
X0163477Y0047495D01*
X0163240Y0047905D01*
X0162905Y0048240D01*
X0163600Y0046558D02*
X0190200Y0046558D01*
X0190200Y0044960D02*
X0163600Y0044960D01*
X0163600Y0043361D02*
X0190200Y0043361D01*
X0190200Y0041763D02*
X0163600Y0041763D01*
X0163600Y0040164D02*
X0168164Y0040164D01*
X0166850Y0038850D02*
X0166850Y0036800D01*
X0171800Y0036800D01*
X0176750Y0036800D01*
X0176750Y0038850D01*
X0173850Y0041750D01*
X0171800Y0041750D01*
X0171800Y0036800D01*
X0171800Y0036800D01*
X0171800Y0036800D01*
X0176750Y0036800D01*
X0176750Y0034750D01*
X0173850Y0031850D01*
X0171800Y0031850D01*
X0171800Y0036800D01*
X0171800Y0036800D01*
X0171800Y0036800D01*
X0171800Y0041750D01*
X0169750Y0041750D01*
X0166850Y0038850D01*
X0166850Y0038566D02*
X0163600Y0038566D01*
X0163600Y0036000D02*
X0157600Y0036000D01*
X0157600Y0037600D01*
X0156000Y0037600D01*
X0156000Y0048600D01*
X0151563Y0048600D01*
X0151105Y0048477D01*
X0150695Y0048240D01*
X0150360Y0047905D01*
X0150123Y0047495D01*
X0150000Y0047037D01*
X0150000Y0037600D01*
X0156000Y0037600D01*
X0156000Y0036000D01*
X0157600Y0036000D01*
X0157600Y0025000D01*
X0162037Y0025000D01*
X0162495Y0025123D01*
X0162905Y0025360D01*
X0163240Y0025695D01*
X0163477Y0026105D01*
X0163600Y0026563D01*
X0163600Y0036000D01*
X0163600Y0035369D02*
X0166850Y0035369D01*
X0166850Y0034750D02*
X0169750Y0031850D01*
X0171800Y0031850D01*
X0171800Y0036800D01*
X0166850Y0036800D01*
X0166850Y0034750D01*
X0167829Y0033770D02*
X0163600Y0033770D01*
X0163600Y0032172D02*
X0169428Y0032172D01*
X0171800Y0032172D02*
X0171800Y0032172D01*
X0171800Y0033770D02*
X0171800Y0033770D01*
X0171800Y0035369D02*
X0171800Y0035369D01*
X0171800Y0036967D02*
X0171800Y0036967D01*
X0171800Y0038566D02*
X0171800Y0038566D01*
X0171800Y0040164D02*
X0171800Y0040164D01*
X0175436Y0040164D02*
X0178447Y0040164D01*
X0177050Y0038566D02*
X0176750Y0038566D01*
X0176750Y0036967D02*
X0177050Y0036967D01*
X0177050Y0035369D02*
X0176750Y0035369D01*
X0175771Y0033770D02*
X0178112Y0033770D01*
X0179711Y0032172D02*
X0174172Y0032172D01*
X0166850Y0036967D02*
X0157600Y0036967D01*
X0157600Y0035369D02*
X0156000Y0035369D01*
X0156000Y0036000D02*
X0156000Y0025000D01*
X0151563Y0025000D01*
X0151105Y0025123D01*
X0150695Y0025360D01*
X0150360Y0025695D01*
X0150123Y0026105D01*
X0150000Y0026563D01*
X0150000Y0036000D01*
X0156000Y0036000D01*
X0156000Y0036967D02*
X0113376Y0036967D01*
X0115774Y0035369D02*
X0150000Y0035369D01*
X0150000Y0033770D02*
X0118171Y0033770D01*
X0120569Y0032172D02*
X0150000Y0032172D01*
X0150000Y0030573D02*
X0122967Y0030573D01*
X0125365Y0028975D02*
X0150000Y0028975D01*
X0150000Y0027376D02*
X0127762Y0027376D01*
X0130160Y0025778D02*
X0150312Y0025778D01*
X0156000Y0025778D02*
X0157600Y0025778D01*
X0157600Y0027376D02*
X0156000Y0027376D01*
X0156000Y0028975D02*
X0157600Y0028975D01*
X0157600Y0030573D02*
X0156000Y0030573D01*
X0156000Y0032172D02*
X0157600Y0032172D01*
X0157600Y0033770D02*
X0156000Y0033770D01*
X0156000Y0038566D02*
X0157600Y0038566D01*
X0157600Y0040164D02*
X0156000Y0040164D01*
X0156000Y0041763D02*
X0157600Y0041763D01*
X0157600Y0043361D02*
X0156000Y0043361D01*
X0156000Y0044960D02*
X0157600Y0044960D01*
X0157600Y0046558D02*
X0156000Y0046558D01*
X0156000Y0048157D02*
X0157600Y0048157D01*
X0150611Y0048157D02*
X0068837Y0048157D01*
X0067239Y0049755D02*
X0075465Y0049755D01*
X0073852Y0051354D02*
X0065640Y0051354D01*
X0064042Y0052952D02*
X0072254Y0052952D01*
X0070655Y0054551D02*
X0062443Y0054551D01*
X0060845Y0056149D02*
X0069056Y0056149D01*
X0067458Y0057748D02*
X0059246Y0057748D01*
X0057648Y0059346D02*
X0065859Y0059346D01*
X0064261Y0060945D02*
X0056049Y0060945D01*
X0054451Y0062543D02*
X0062662Y0062543D01*
X0061064Y0064142D02*
X0052418Y0064142D01*
X0051800Y0061800D02*
X0071800Y0041800D01*
X0101800Y0041800D01*
X0131800Y0021800D01*
X0185550Y0021800D01*
X0196800Y0031800D01*
X0196800Y0036800D02*
X0181800Y0036800D01*
X0185153Y0040164D02*
X0190200Y0040164D01*
X0190200Y0033770D02*
X0185488Y0033770D01*
X0183889Y0032172D02*
X0190200Y0032172D01*
X0190200Y0030573D02*
X0163600Y0030573D01*
X0163600Y0028975D02*
X0190009Y0028975D01*
X0188211Y0027376D02*
X0163600Y0027376D01*
X0163288Y0025778D02*
X0186412Y0025778D01*
X0190041Y0022581D02*
X0311727Y0022581D01*
X0310804Y0024179D02*
X0191839Y0024179D01*
X0188242Y0020982D02*
X0313289Y0020982D01*
X0315542Y0019384D02*
X0185907Y0019384D01*
X0185758Y0019384D02*
X0131956Y0019384D01*
X0131648Y0019384D02*
X0043922Y0019384D01*
X0044692Y0020982D02*
X0128700Y0020982D01*
X0126302Y0022581D02*
X0045319Y0022581D01*
X0045560Y0024179D02*
X0123905Y0024179D01*
X0121507Y0025778D02*
X0045801Y0025778D01*
X0045958Y0027376D02*
X0119109Y0027376D01*
X0116711Y0028975D02*
X0045717Y0028975D01*
X0045476Y0030573D02*
X0114314Y0030573D01*
X0111916Y0032172D02*
X0045196Y0032172D01*
X0045254Y0032052D02*
X0045254Y0032052D01*
X0044426Y0033770D02*
X0109518Y0033770D01*
X0107120Y0035369D02*
X0043656Y0035369D01*
X0042706Y0036967D02*
X0104722Y0036967D01*
X0102325Y0038566D02*
X0041223Y0038566D01*
X0039740Y0040164D02*
X0070042Y0040164D01*
X0068443Y0041763D02*
X0037028Y0041763D01*
X0032610Y0043361D02*
X0066845Y0043361D01*
X0065246Y0044960D02*
X0006600Y0044960D01*
X0006600Y0046558D02*
X0063648Y0046558D01*
X0062049Y0048157D02*
X0006600Y0048157D01*
X0006600Y0049755D02*
X0060451Y0049755D01*
X0058852Y0051354D02*
X0006600Y0051354D01*
X0006600Y0052952D02*
X0057254Y0052952D01*
X0055655Y0054551D02*
X0006600Y0054551D01*
X0006600Y0056149D02*
X0054057Y0056149D01*
X0052458Y0057748D02*
X0049678Y0057748D01*
X0051800Y0061800D02*
X0046800Y0061800D01*
X0046800Y0066800D01*
X0021800Y0091800D01*
X0021800Y0161800D01*
X0016800Y0166800D01*
X0041800Y0141800D01*
X0081800Y0141800D01*
X0111800Y0171800D01*
X0111800Y0211800D01*
X0096800Y0226800D01*
X0092320Y0228789D02*
X0061280Y0228789D01*
X0061700Y0227190D02*
X0091900Y0227190D01*
X0091997Y0225592D02*
X0061603Y0225592D01*
X0060923Y0223993D02*
X0092677Y0223993D01*
X0094631Y0222395D02*
X0059200Y0222395D01*
X0059200Y0220796D02*
X0099410Y0220796D01*
X0101008Y0219198D02*
X0059200Y0219198D01*
X0059200Y0217599D02*
X0102607Y0217599D01*
X0104205Y0216001D02*
X0059200Y0216001D01*
X0059200Y0214402D02*
X0105804Y0214402D01*
X0107402Y0212803D02*
X0059200Y0212803D01*
X0059200Y0211205D02*
X0094630Y0211205D01*
X0092677Y0209606D02*
X0060923Y0209606D01*
X0061603Y0208008D02*
X0089614Y0208008D01*
X0088015Y0206409D02*
X0061700Y0206409D01*
X0061280Y0204811D02*
X0086417Y0204811D01*
X0084818Y0203212D02*
X0060142Y0203212D01*
X0056800Y0206800D02*
X0051800Y0201800D01*
X0051800Y0181800D01*
X0071800Y0161800D01*
X0076800Y0161800D01*
X0073908Y0164848D02*
X0072146Y0164848D01*
X0070547Y0166447D02*
X0089400Y0166447D01*
X0089400Y0168045D02*
X0068949Y0168045D01*
X0067350Y0169644D02*
X0089400Y0169644D01*
X0089400Y0171242D02*
X0065752Y0171242D01*
X0064153Y0172841D02*
X0089400Y0172841D01*
X0089400Y0174439D02*
X0062555Y0174439D01*
X0060956Y0176038D02*
X0089168Y0176038D01*
X0087570Y0177636D02*
X0059358Y0177636D01*
X0057759Y0179235D02*
X0085971Y0179235D01*
X0084373Y0180833D02*
X0056161Y0180833D01*
X0054562Y0182432D02*
X0082774Y0182432D01*
X0081176Y0184030D02*
X0054200Y0184030D01*
X0054200Y0185629D02*
X0079577Y0185629D01*
X0077979Y0187227D02*
X0054200Y0187227D01*
X0054200Y0188826D02*
X0058834Y0188826D01*
X0057600Y0190424D02*
X0054200Y0190424D01*
X0054200Y0192023D02*
X0057600Y0192023D01*
X0057682Y0193621D02*
X0054200Y0193621D01*
X0054200Y0195220D02*
X0059280Y0195220D01*
X0061800Y0191800D02*
X0076800Y0191800D01*
X0091800Y0176800D01*
X0091800Y0161800D01*
X0081800Y0151800D01*
X0061800Y0151800D01*
X0046800Y0166800D01*
X0036800Y0166800D01*
X0036800Y0167800D01*
X0020300Y0184300D01*
X0017049Y0180833D02*
X0016161Y0180833D01*
X0015550Y0182432D02*
X0014562Y0182432D01*
X0014200Y0184030D02*
X0015550Y0184030D01*
X0015550Y0185629D02*
X0014200Y0185629D01*
X0014200Y0187227D02*
X0016510Y0187227D01*
X0018108Y0188826D02*
X0014200Y0188826D01*
X0014200Y0190424D02*
X0049400Y0190424D01*
X0049400Y0188826D02*
X0032775Y0188826D01*
X0034373Y0187227D02*
X0049400Y0187227D01*
X0049400Y0185629D02*
X0035250Y0185629D01*
X0035250Y0184030D02*
X0049400Y0184030D01*
X0049400Y0182432D02*
X0035250Y0182432D01*
X0033834Y0180833D02*
X0049603Y0180833D01*
X0050971Y0179235D02*
X0028759Y0179235D01*
X0030300Y0180833D02*
X0030300Y0180833D01*
X0030300Y0182432D02*
X0030300Y0182432D01*
X0030300Y0184030D02*
X0030300Y0184030D01*
X0030300Y0185629D02*
X0030300Y0185629D01*
X0030300Y0187227D02*
X0030300Y0187227D01*
X0030300Y0188826D02*
X0030300Y0188826D01*
X0027825Y0188826D02*
X0022492Y0188826D01*
X0024090Y0187227D02*
X0026227Y0187227D01*
X0025350Y0185629D02*
X0025050Y0185629D01*
X0025050Y0184030D02*
X0025350Y0184030D01*
X0021971Y0179235D02*
X0017759Y0179235D01*
X0019358Y0177636D02*
X0023570Y0177636D01*
X0025168Y0176038D02*
X0020956Y0176038D01*
X0022555Y0174439D02*
X0026767Y0174439D01*
X0030358Y0177636D02*
X0052570Y0177636D01*
X0054168Y0176038D02*
X0031956Y0176038D01*
X0033555Y0174439D02*
X0055767Y0174439D01*
X0057365Y0172841D02*
X0040265Y0172841D01*
X0041182Y0171242D02*
X0058964Y0171242D01*
X0060562Y0169644D02*
X0041400Y0169644D01*
X0041400Y0163250D02*
X0046956Y0163250D01*
X0048555Y0161651D02*
X0040889Y0161651D01*
X0039558Y0160053D02*
X0050153Y0160053D01*
X0051752Y0158454D02*
X0028540Y0158454D01*
X0029558Y0160053D02*
X0034042Y0160053D01*
X0032711Y0161651D02*
X0030889Y0161651D01*
X0031400Y0163250D02*
X0032200Y0163250D01*
X0032200Y0164848D02*
X0031400Y0164848D01*
X0031400Y0166447D02*
X0032200Y0166447D01*
X0032200Y0168045D02*
X0031400Y0168045D01*
X0031400Y0169644D02*
X0031562Y0169644D01*
X0026800Y0166800D02*
X0011800Y0181800D01*
X0011800Y0211800D01*
X0014300Y0214300D01*
X0020300Y0214300D01*
X0020300Y0224050D01*
X0021800Y0225550D01*
X0055550Y0225550D01*
X0056800Y0226800D01*
X0041800Y0241800D01*
X0041800Y0341800D01*
X0051800Y0351800D01*
X0066800Y0351800D01*
X0116800Y0351800D01*
X0111800Y0351800D01*
X0111383Y0348677D02*
X0072217Y0348677D01*
X0071491Y0345480D02*
X0104540Y0345480D01*
X0105060Y0346000D02*
X0102600Y0343540D01*
X0102600Y0340060D01*
X0105060Y0337600D01*
X0108540Y0337600D01*
X0110340Y0339400D01*
X0110660Y0339400D01*
X0111821Y0338239D01*
X0113365Y0337600D01*
X0120235Y0337600D01*
X0121779Y0338239D01*
X0122961Y0339421D01*
X0123600Y0340965D01*
X0123600Y0342635D01*
X0122961Y0344179D01*
X0121779Y0345361D01*
X0120235Y0346000D01*
X0113365Y0346000D01*
X0111821Y0345361D01*
X0110660Y0344200D01*
X0110340Y0344200D01*
X0108540Y0346000D01*
X0105060Y0346000D01*
X0102942Y0343881D02*
X0073084Y0343881D01*
X0072961Y0344179D02*
X0071779Y0345361D01*
X0070235Y0346000D01*
X0063365Y0346000D01*
X0061821Y0345361D01*
X0060660Y0344200D01*
X0060340Y0344200D01*
X0058540Y0346000D01*
X0055060Y0346000D01*
X0052600Y0343540D01*
X0052600Y0340060D01*
X0055060Y0337600D01*
X0058540Y0337600D01*
X0060340Y0339400D01*
X0060660Y0339400D01*
X0061821Y0338239D01*
X0063365Y0337600D01*
X0070235Y0337600D01*
X0071779Y0338239D01*
X0072961Y0339421D01*
X0073600Y0340965D01*
X0073600Y0342635D01*
X0072961Y0344179D01*
X0073600Y0342283D02*
X0102600Y0342283D01*
X0102600Y0340684D02*
X0073484Y0340684D01*
X0072626Y0339086D02*
X0103574Y0339086D01*
X0106800Y0341800D02*
X0116800Y0341800D01*
X0112109Y0345480D02*
X0109060Y0345480D01*
X0110026Y0339086D02*
X0110974Y0339086D01*
X0121491Y0345480D02*
X0154540Y0345480D01*
X0155060Y0346000D02*
X0152600Y0343540D01*
X0152600Y0340060D01*
X0155060Y0337600D01*
X0158540Y0337600D01*
X0160340Y0339400D01*
X0160660Y0339400D01*
X0161821Y0338239D01*
X0163365Y0337600D01*
X0170235Y0337600D01*
X0171779Y0338239D01*
X0172961Y0339421D01*
X0173600Y0340965D01*
X0173600Y0342635D01*
X0172961Y0344179D01*
X0171779Y0345361D01*
X0170235Y0346000D01*
X0163365Y0346000D01*
X0161821Y0345361D01*
X0160660Y0344200D01*
X0160340Y0344200D01*
X0158540Y0346000D01*
X0155060Y0346000D01*
X0152942Y0343881D02*
X0123084Y0343881D01*
X0123600Y0342283D02*
X0152600Y0342283D01*
X0152600Y0340684D02*
X0123484Y0340684D01*
X0122626Y0339086D02*
X0153574Y0339086D01*
X0156800Y0341800D02*
X0166800Y0341800D01*
X0162109Y0345480D02*
X0159060Y0345480D01*
X0161383Y0348677D02*
X0122217Y0348677D01*
X0116800Y0351800D02*
X0166800Y0351800D01*
X0206800Y0351800D01*
X0231800Y0351800D01*
X0241800Y0341800D01*
X0241600Y0331800D01*
X0245800Y0331093D02*
X0247400Y0331093D01*
X0247400Y0329495D02*
X0245800Y0329495D01*
X0245606Y0327896D02*
X0247594Y0327896D01*
X0247400Y0328365D02*
X0248039Y0326821D01*
X0249221Y0325639D01*
X0250765Y0325000D01*
X0252435Y0325000D01*
X0253979Y0325639D01*
X0255161Y0326821D01*
X0255800Y0328365D01*
X0255800Y0335235D01*
X0255161Y0336779D01*
X0253979Y0337961D01*
X0252435Y0338600D01*
X0250765Y0338600D01*
X0249221Y0337961D01*
X0248039Y0336779D01*
X0247400Y0335235D01*
X0247400Y0328365D01*
X0248562Y0326298D02*
X0244637Y0326298D01*
X0245800Y0332692D02*
X0247400Y0332692D01*
X0247400Y0334290D02*
X0245800Y0334290D01*
X0245529Y0335889D02*
X0247671Y0335889D01*
X0248748Y0337487D02*
X0244452Y0337487D01*
X0244146Y0339086D02*
X0387000Y0339086D01*
X0387000Y0340684D02*
X0244178Y0340684D01*
X0244198Y0342283D02*
X0387000Y0342283D01*
X0387000Y0343881D02*
X0243113Y0343881D01*
X0241514Y0345480D02*
X0387000Y0345480D01*
X0387000Y0347078D02*
X0239916Y0347078D01*
X0238317Y0348677D02*
X0387000Y0348677D01*
X0387000Y0350275D02*
X0236719Y0350275D01*
X0235120Y0351874D02*
X0387000Y0351874D01*
X0387000Y0353472D02*
X0233522Y0353472D01*
X0231529Y0348677D02*
X0212217Y0348677D01*
X0211491Y0345480D02*
X0234726Y0345480D01*
X0233127Y0347078D02*
X0050473Y0347078D01*
X0048874Y0345480D02*
X0054540Y0345480D01*
X0052942Y0343881D02*
X0047276Y0343881D01*
X0045677Y0342283D02*
X0052600Y0342283D01*
X0052600Y0340684D02*
X0044200Y0340684D01*
X0044200Y0339086D02*
X0053574Y0339086D01*
X0056800Y0341800D02*
X0066800Y0341800D01*
X0062109Y0345480D02*
X0059060Y0345480D01*
X0061383Y0348677D02*
X0052071Y0348677D01*
X0048480Y0351874D02*
X0043657Y0351874D01*
X0044054Y0352698D02*
X0041881Y0348186D01*
X0041881Y0348186D01*
X0038475Y0344515D01*
X0038475Y0344515D01*
X0034138Y0342011D01*
X0034138Y0342011D01*
X0029255Y0340897D01*
X0029255Y0340897D01*
X0024262Y0341271D01*
X0024262Y0341271D01*
X0019600Y0343101D01*
X0019600Y0343101D01*
X0015685Y0346223D01*
X0015685Y0346223D01*
X0015685Y0346223D01*
X0012864Y0350361D01*
X0012864Y0350361D01*
X0011388Y0355146D01*
X0011388Y0360154D01*
X0012864Y0364939D01*
X0012864Y0364939D01*
X0015685Y0369077D01*
X0015685Y0369077D01*
X0019600Y0372199D01*
X0019600Y0372199D01*
X0024262Y0374029D01*
X0029255Y0374403D01*
X0034138Y0373289D01*
X0034138Y0373289D01*
X0038475Y0370785D01*
X0038475Y0370785D01*
X0041881Y0367114D01*
X0041881Y0367114D01*
X0044054Y0362602D01*
X0044054Y0362602D01*
X0044800Y0357650D01*
X0044054Y0352698D01*
X0044054Y0352698D01*
X0044170Y0353472D02*
X0050078Y0353472D01*
X0046881Y0350275D02*
X0042887Y0350275D01*
X0042117Y0348677D02*
X0045283Y0348677D01*
X0043684Y0347078D02*
X0040853Y0347078D01*
X0042086Y0345480D02*
X0039370Y0345480D01*
X0040487Y0343881D02*
X0037377Y0343881D01*
X0039402Y0342283D02*
X0034608Y0342283D01*
X0039400Y0340684D02*
X0006600Y0340684D01*
X0006600Y0339086D02*
X0039400Y0339086D01*
X0039400Y0337487D02*
X0006600Y0337487D01*
X0006600Y0335889D02*
X0039400Y0335889D01*
X0039400Y0334290D02*
X0006600Y0334290D01*
X0006600Y0332692D02*
X0039400Y0332692D01*
X0039400Y0331093D02*
X0006600Y0331093D01*
X0006600Y0329495D02*
X0039400Y0329495D01*
X0039400Y0327896D02*
X0006600Y0327896D01*
X0006600Y0326298D02*
X0039400Y0326298D01*
X0039400Y0324699D02*
X0006600Y0324699D01*
X0006600Y0323101D02*
X0039400Y0323101D01*
X0039400Y0321502D02*
X0006600Y0321502D01*
X0006600Y0319904D02*
X0039400Y0319904D01*
X0039400Y0318305D02*
X0006600Y0318305D01*
X0006600Y0316707D02*
X0039400Y0316707D01*
X0039400Y0315108D02*
X0006600Y0315108D01*
X0006600Y0313510D02*
X0039400Y0313510D01*
X0039400Y0311911D02*
X0006600Y0311911D01*
X0006600Y0310313D02*
X0039400Y0310313D01*
X0039400Y0308714D02*
X0006600Y0308714D01*
X0006600Y0307116D02*
X0039400Y0307116D01*
X0039400Y0305517D02*
X0006600Y0305517D01*
X0006600Y0303919D02*
X0039400Y0303919D01*
X0039400Y0302320D02*
X0006600Y0302320D01*
X0006600Y0300722D02*
X0039400Y0300722D01*
X0039400Y0299123D02*
X0006600Y0299123D01*
X0006600Y0297525D02*
X0039400Y0297525D01*
X0039400Y0295926D02*
X0006600Y0295926D01*
X0006600Y0294328D02*
X0039400Y0294328D01*
X0039400Y0292729D02*
X0006600Y0292729D01*
X0006600Y0291131D02*
X0039400Y0291131D01*
X0039400Y0289532D02*
X0006600Y0289532D01*
X0006600Y0287934D02*
X0039400Y0287934D01*
X0039400Y0286335D02*
X0006600Y0286335D01*
X0006600Y0284737D02*
X0039400Y0284737D01*
X0039400Y0283138D02*
X0006600Y0283138D01*
X0006600Y0281539D02*
X0039400Y0281539D01*
X0039400Y0279941D02*
X0006600Y0279941D01*
X0006600Y0278342D02*
X0039400Y0278342D01*
X0039400Y0276744D02*
X0006600Y0276744D01*
X0006600Y0275145D02*
X0039400Y0275145D01*
X0039400Y0273547D02*
X0006600Y0273547D01*
X0006600Y0271948D02*
X0039400Y0271948D01*
X0039400Y0270350D02*
X0006600Y0270350D01*
X0006600Y0268751D02*
X0039400Y0268751D01*
X0039400Y0267153D02*
X0006600Y0267153D01*
X0006600Y0265554D02*
X0039400Y0265554D01*
X0039400Y0263956D02*
X0006600Y0263956D01*
X0006600Y0262357D02*
X0039400Y0262357D01*
X0039400Y0260759D02*
X0006600Y0260759D01*
X0006600Y0259160D02*
X0039400Y0259160D01*
X0039400Y0257562D02*
X0006600Y0257562D01*
X0006600Y0255963D02*
X0039400Y0255963D01*
X0039400Y0254365D02*
X0006600Y0254365D01*
X0006600Y0252766D02*
X0039400Y0252766D01*
X0039400Y0251168D02*
X0006600Y0251168D01*
X0006600Y0249569D02*
X0039400Y0249569D01*
X0039400Y0247971D02*
X0006600Y0247971D01*
X0006600Y0246372D02*
X0039400Y0246372D01*
X0039400Y0244774D02*
X0006600Y0244774D01*
X0006600Y0243175D02*
X0039400Y0243175D01*
X0039400Y0241577D02*
X0006600Y0241577D01*
X0006600Y0239978D02*
X0040228Y0239978D01*
X0041826Y0238380D02*
X0006600Y0238380D01*
X0006600Y0236781D02*
X0043425Y0236781D01*
X0045023Y0235183D02*
X0006600Y0235183D01*
X0006600Y0233584D02*
X0046622Y0233584D01*
X0048220Y0231986D02*
X0006600Y0231986D01*
X0006600Y0230387D02*
X0049819Y0230387D01*
X0051417Y0228789D02*
X0006600Y0228789D01*
X0006600Y0227190D02*
X0020046Y0227190D01*
X0018447Y0225592D02*
X0006600Y0225592D01*
X0006600Y0223993D02*
X0017900Y0223993D01*
X0017900Y0222395D02*
X0006600Y0222395D01*
X0006600Y0220796D02*
X0017900Y0220796D01*
X0017900Y0219198D02*
X0006600Y0219198D01*
X0006600Y0217599D02*
X0016882Y0217599D01*
X0012606Y0216001D02*
X0006600Y0216001D01*
X0006600Y0214402D02*
X0011008Y0214402D01*
X0009618Y0212803D02*
X0006600Y0212803D01*
X0006600Y0211205D02*
X0009400Y0211205D01*
X0009400Y0209606D02*
X0006600Y0209606D01*
X0006600Y0208008D02*
X0009400Y0208008D01*
X0009400Y0206409D02*
X0006600Y0206409D01*
X0006600Y0204811D02*
X0009400Y0204811D01*
X0009400Y0203212D02*
X0006600Y0203212D01*
X0006600Y0201614D02*
X0009400Y0201614D01*
X0009400Y0200015D02*
X0006600Y0200015D01*
X0006600Y0198417D02*
X0009400Y0198417D01*
X0009400Y0196818D02*
X0006600Y0196818D01*
X0006600Y0195220D02*
X0009400Y0195220D01*
X0009400Y0193621D02*
X0006600Y0193621D01*
X0006600Y0192023D02*
X0009400Y0192023D01*
X0009400Y0190424D02*
X0006600Y0190424D01*
X0006600Y0188826D02*
X0009400Y0188826D01*
X0009400Y0187227D02*
X0006600Y0187227D01*
X0006600Y0185629D02*
X0009400Y0185629D01*
X0009400Y0184030D02*
X0006600Y0184030D01*
X0006600Y0182432D02*
X0009400Y0182432D01*
X0009603Y0180833D02*
X0006600Y0180833D01*
X0006600Y0179235D02*
X0010971Y0179235D01*
X0012570Y0177636D02*
X0006600Y0177636D01*
X0006600Y0176038D02*
X0014168Y0176038D01*
X0015767Y0174439D02*
X0006600Y0174439D01*
X0006600Y0172841D02*
X0013335Y0172841D01*
X0012418Y0171242D02*
X0006600Y0171242D01*
X0006600Y0169644D02*
X0012200Y0169644D01*
X0012200Y0168045D02*
X0006600Y0168045D01*
X0006600Y0166447D02*
X0012200Y0166447D01*
X0012200Y0164848D02*
X0006600Y0164848D01*
X0006600Y0163250D02*
X0012200Y0163250D01*
X0012711Y0161651D02*
X0006600Y0161651D01*
X0006600Y0160053D02*
X0014042Y0160053D01*
X0019400Y0158454D02*
X0006600Y0158454D01*
X0006600Y0156856D02*
X0019400Y0156856D01*
X0019400Y0155257D02*
X0006600Y0155257D01*
X0006600Y0153659D02*
X0019400Y0153659D01*
X0019400Y0152060D02*
X0006600Y0152060D01*
X0006600Y0150462D02*
X0019400Y0150462D01*
X0019400Y0148863D02*
X0006600Y0148863D01*
X0006600Y0147265D02*
X0019400Y0147265D01*
X0019400Y0145666D02*
X0006600Y0145666D01*
X0006600Y0144068D02*
X0019400Y0144068D01*
X0019400Y0142469D02*
X0006600Y0142469D01*
X0006600Y0140870D02*
X0019400Y0140870D01*
X0019400Y0139272D02*
X0006600Y0139272D01*
X0006600Y0137673D02*
X0019400Y0137673D01*
X0019400Y0136075D02*
X0006600Y0136075D01*
X0006600Y0134476D02*
X0019400Y0134476D01*
X0019400Y0132878D02*
X0006600Y0132878D01*
X0006600Y0131279D02*
X0019400Y0131279D01*
X0019400Y0129681D02*
X0006600Y0129681D01*
X0006600Y0128082D02*
X0019400Y0128082D01*
X0019400Y0126484D02*
X0006600Y0126484D01*
X0006600Y0124885D02*
X0019400Y0124885D01*
X0019400Y0123287D02*
X0006600Y0123287D01*
X0006600Y0121688D02*
X0019400Y0121688D01*
X0019400Y0120090D02*
X0006600Y0120090D01*
X0006600Y0118491D02*
X0019400Y0118491D01*
X0019400Y0116893D02*
X0006600Y0116893D01*
X0006600Y0115294D02*
X0019400Y0115294D01*
X0019400Y0113696D02*
X0006600Y0113696D01*
X0006600Y0112097D02*
X0019400Y0112097D01*
X0019400Y0110499D02*
X0006600Y0110499D01*
X0006600Y0108900D02*
X0019400Y0108900D01*
X0019400Y0107302D02*
X0006600Y0107302D01*
X0006600Y0105703D02*
X0019400Y0105703D01*
X0019400Y0104105D02*
X0006600Y0104105D01*
X0006600Y0102506D02*
X0019400Y0102506D01*
X0019400Y0100908D02*
X0006600Y0100908D01*
X0006600Y0099309D02*
X0019400Y0099309D01*
X0019400Y0097711D02*
X0006600Y0097711D01*
X0006600Y0096112D02*
X0019400Y0096112D01*
X0019400Y0094514D02*
X0006600Y0094514D01*
X0006600Y0092915D02*
X0019400Y0092915D01*
X0019402Y0091317D02*
X0006600Y0091317D01*
X0006600Y0089718D02*
X0020488Y0089718D01*
X0022086Y0088120D02*
X0006600Y0088120D01*
X0006600Y0086521D02*
X0023685Y0086521D01*
X0025283Y0084923D02*
X0006600Y0084923D01*
X0006600Y0083324D02*
X0026882Y0083324D01*
X0028480Y0081726D02*
X0006600Y0081726D01*
X0006600Y0080127D02*
X0030079Y0080127D01*
X0031677Y0078529D02*
X0006600Y0078529D01*
X0006600Y0076930D02*
X0033276Y0076930D01*
X0034874Y0075332D02*
X0006600Y0075332D01*
X0006600Y0073733D02*
X0036473Y0073733D01*
X0038071Y0072134D02*
X0006600Y0072134D01*
X0006600Y0070536D02*
X0039670Y0070536D01*
X0041268Y0068937D02*
X0006600Y0068937D01*
X0006600Y0067339D02*
X0042867Y0067339D01*
X0043811Y0065740D02*
X0006600Y0065740D01*
X0006600Y0064142D02*
X0042466Y0064142D01*
X0041900Y0062543D02*
X0006600Y0062543D01*
X0006600Y0060945D02*
X0041900Y0060945D01*
X0042513Y0059346D02*
X0006600Y0059346D01*
X0006600Y0057748D02*
X0043922Y0057748D01*
X0049789Y0065740D02*
X0059465Y0065740D01*
X0057867Y0067339D02*
X0049174Y0067339D01*
X0048057Y0068937D02*
X0056268Y0068937D01*
X0054670Y0070536D02*
X0046458Y0070536D01*
X0044860Y0072134D02*
X0053071Y0072134D01*
X0051473Y0073733D02*
X0043261Y0073733D01*
X0041663Y0075332D02*
X0049874Y0075332D01*
X0048276Y0076930D02*
X0047847Y0076930D01*
X0045753Y0076930D02*
X0040064Y0076930D01*
X0038466Y0078529D02*
X0043142Y0078529D01*
X0042189Y0080127D02*
X0036867Y0080127D01*
X0035269Y0081726D02*
X0041900Y0081726D01*
X0042128Y0083324D02*
X0033670Y0083324D01*
X0032072Y0084923D02*
X0042993Y0084923D01*
X0045393Y0086521D02*
X0030473Y0086521D01*
X0028874Y0088120D02*
X0084400Y0088120D01*
X0084400Y0089718D02*
X0027276Y0089718D01*
X0025677Y0091317D02*
X0084400Y0091317D01*
X0084400Y0092915D02*
X0024200Y0092915D01*
X0024200Y0094514D02*
X0084400Y0094514D01*
X0084400Y0096112D02*
X0024200Y0096112D01*
X0024200Y0097711D02*
X0069667Y0097711D01*
X0069977Y0097400D02*
X0067400Y0099977D01*
X0067400Y0101800D01*
X0071800Y0101800D01*
X0071800Y0101800D01*
X0071800Y0106200D01*
X0073623Y0106200D01*
X0076200Y0103623D01*
X0076200Y0101800D01*
X0071800Y0101800D01*
X0071800Y0101800D01*
X0071800Y0101800D01*
X0071800Y0106200D01*
X0069977Y0106200D01*
X0067400Y0103623D01*
X0067400Y0101800D01*
X0071800Y0101800D01*
X0076200Y0101800D01*
X0076200Y0099977D01*
X0073623Y0097400D01*
X0071800Y0097400D01*
X0071800Y0101800D01*
X0071800Y0101800D01*
X0071800Y0097400D01*
X0069977Y0097400D01*
X0071800Y0097711D02*
X0071800Y0097711D01*
X0071800Y0099309D02*
X0071800Y0099309D01*
X0071800Y0100908D02*
X0071800Y0100908D01*
X0071800Y0102506D02*
X0071800Y0102506D01*
X0071800Y0104105D02*
X0071800Y0104105D01*
X0071800Y0105703D02*
X0071800Y0105703D01*
X0074119Y0105703D02*
X0084764Y0105703D01*
X0085060Y0106000D02*
X0082600Y0103540D01*
X0082600Y0100060D01*
X0084400Y0098260D01*
X0084400Y0086110D01*
X0084024Y0085954D01*
X0082646Y0084576D01*
X0081900Y0082775D01*
X0081900Y0080825D01*
X0082646Y0079024D01*
X0084024Y0077646D01*
X0084400Y0077490D01*
X0084400Y0066110D01*
X0084024Y0065954D01*
X0082646Y0064576D01*
X0081900Y0062775D01*
X0081900Y0060825D01*
X0082646Y0059024D01*
X0084024Y0057646D01*
X0085825Y0056900D01*
X0087775Y0056900D01*
X0089576Y0057646D01*
X0090954Y0059024D01*
X0091700Y0060825D01*
X0091700Y0062775D01*
X0090954Y0064576D01*
X0089576Y0065954D01*
X0089200Y0066110D01*
X0089200Y0077490D01*
X0089576Y0077646D01*
X0090954Y0079024D01*
X0091700Y0080825D01*
X0091700Y0082775D01*
X0090954Y0084576D01*
X0089576Y0085954D01*
X0089200Y0086110D01*
X0089200Y0098260D01*
X0090340Y0099400D01*
X0095806Y0099400D01*
X0097050Y0098156D01*
X0097050Y0094832D01*
X0099832Y0092050D01*
X0103768Y0092050D01*
X0106550Y0094832D01*
X0106550Y0098656D01*
X0107050Y0098156D01*
X0107050Y0094832D01*
X0109832Y0092050D01*
X0113768Y0092050D01*
X0116550Y0094832D01*
X0116550Y0098768D01*
X0113768Y0101550D01*
X0110444Y0101550D01*
X0104356Y0107638D01*
X0106550Y0109832D01*
X0106550Y0113768D01*
X0103768Y0116550D01*
X0099944Y0116550D01*
X0102794Y0119400D01*
X0112277Y0119400D01*
X0113159Y0119765D01*
X0113835Y0120441D01*
X0117594Y0124200D01*
X0117715Y0124200D01*
X0119406Y0124900D01*
X0120700Y0126194D01*
X0121400Y0127885D01*
X0121400Y0135715D01*
X0120700Y0137406D01*
X0119406Y0138700D01*
X0117715Y0139400D01*
X0115885Y0139400D01*
X0114194Y0138700D01*
X0112900Y0137406D01*
X0112200Y0135715D01*
X0112200Y0127885D01*
X0112871Y0126265D01*
X0110806Y0124200D01*
X0101323Y0124200D01*
X0100441Y0123835D01*
X0090441Y0113835D01*
X0089765Y0113159D01*
X0089400Y0112277D01*
X0089400Y0107794D01*
X0087606Y0106000D01*
X0085060Y0106000D01*
X0083165Y0104105D02*
X0075718Y0104105D01*
X0076200Y0102506D02*
X0082600Y0102506D01*
X0082600Y0100908D02*
X0076200Y0100908D01*
X0075532Y0099309D02*
X0083351Y0099309D01*
X0084400Y0097711D02*
X0073933Y0097711D01*
X0068068Y0099309D02*
X0024200Y0099309D01*
X0024200Y0100908D02*
X0067400Y0100908D01*
X0067400Y0102506D02*
X0024200Y0102506D01*
X0024200Y0104105D02*
X0067882Y0104105D01*
X0069481Y0105703D02*
X0024200Y0105703D01*
X0024200Y0107302D02*
X0088908Y0107302D01*
X0089400Y0108900D02*
X0024200Y0108900D01*
X0024200Y0110499D02*
X0089400Y0110499D01*
X0089400Y0112097D02*
X0024200Y0112097D01*
X0024200Y0113696D02*
X0090302Y0113696D01*
X0091900Y0115294D02*
X0024200Y0115294D01*
X0024200Y0116893D02*
X0093499Y0116893D01*
X0095097Y0118491D02*
X0024200Y0118491D01*
X0024200Y0120090D02*
X0096696Y0120090D01*
X0098294Y0121688D02*
X0024200Y0121688D01*
X0024200Y0123287D02*
X0099893Y0123287D01*
X0101800Y0121800D02*
X0091800Y0111800D01*
X0091800Y0106800D01*
X0086800Y0101800D01*
X0096800Y0101800D01*
X0101800Y0096800D01*
X0097050Y0096112D02*
X0089200Y0096112D01*
X0089200Y0094514D02*
X0097369Y0094514D01*
X0098967Y0092915D02*
X0089200Y0092915D01*
X0089200Y0091317D02*
X0117923Y0091317D01*
X0119521Y0092915D02*
X0114633Y0092915D01*
X0116231Y0094514D02*
X0121120Y0094514D01*
X0122718Y0096112D02*
X0116550Y0096112D01*
X0116550Y0097711D02*
X0124317Y0097711D01*
X0125915Y0099309D02*
X0116008Y0099309D01*
X0114410Y0100908D02*
X0127514Y0100908D01*
X0129112Y0102506D02*
X0109488Y0102506D01*
X0107889Y0104105D02*
X0130711Y0104105D01*
X0132309Y0105703D02*
X0106291Y0105703D01*
X0104692Y0107302D02*
X0109298Y0107302D01*
X0109750Y0106850D02*
X0111800Y0106850D01*
X0113850Y0106850D01*
X0116750Y0109750D01*
X0116750Y0111800D01*
X0116750Y0113850D01*
X0113850Y0116750D01*
X0111800Y0116750D01*
X0111800Y0111800D01*
X0116750Y0111800D01*
X0111800Y0111800D01*
X0111800Y0111800D01*
X0111800Y0111800D01*
X0111800Y0106850D01*
X0111800Y0111800D01*
X0111800Y0111800D01*
X0111800Y0111800D01*
X0106850Y0111800D01*
X0106850Y0113850D01*
X0109750Y0116750D01*
X0111800Y0116750D01*
X0111800Y0111800D01*
X0106850Y0111800D01*
X0106850Y0109750D01*
X0109750Y0106850D01*
X0111800Y0107302D02*
X0111800Y0107302D01*
X0111800Y0108900D02*
X0111800Y0108900D01*
X0111800Y0110499D02*
X0111800Y0110499D01*
X0111800Y0112097D02*
X0111800Y0112097D01*
X0111800Y0113696D02*
X0111800Y0113696D01*
X0111800Y0115294D02*
X0111800Y0115294D01*
X0115306Y0115294D02*
X0139400Y0115294D01*
X0139400Y0113696D02*
X0116750Y0113696D01*
X0116750Y0112097D02*
X0138703Y0112097D01*
X0137105Y0110499D02*
X0116750Y0110499D01*
X0115901Y0108900D02*
X0135506Y0108900D01*
X0133908Y0107302D02*
X0114302Y0107302D01*
X0107699Y0108900D02*
X0105618Y0108900D01*
X0106550Y0110499D02*
X0106850Y0110499D01*
X0106850Y0112097D02*
X0106550Y0112097D01*
X0106550Y0113696D02*
X0106850Y0113696D01*
X0108294Y0115294D02*
X0105023Y0115294D01*
X0101885Y0118491D02*
X0139400Y0118491D01*
X0139400Y0116893D02*
X0100287Y0116893D01*
X0101800Y0121800D02*
X0111800Y0121800D01*
X0116800Y0126800D01*
X0116800Y0131800D01*
X0121400Y0131279D02*
X0122200Y0131279D01*
X0122200Y0129681D02*
X0121400Y0129681D01*
X0121400Y0128082D02*
X0122200Y0128082D01*
X0122200Y0127885D02*
X0122900Y0126194D01*
X0124194Y0124900D01*
X0125885Y0124200D01*
X0127715Y0124200D01*
X0129406Y0124900D01*
X0130700Y0126194D01*
X0131400Y0127885D01*
X0131400Y0135715D01*
X0130700Y0137406D01*
X0129406Y0138700D01*
X0127715Y0139400D01*
X0125885Y0139400D01*
X0124194Y0138700D01*
X0122900Y0137406D01*
X0122200Y0135715D01*
X0122200Y0127885D01*
X0122780Y0126484D02*
X0120820Y0126484D01*
X0119370Y0124885D02*
X0124230Y0124885D01*
X0129370Y0124885D02*
X0139400Y0124885D01*
X0139400Y0123287D02*
X0116681Y0123287D01*
X0115082Y0121688D02*
X0139400Y0121688D01*
X0139400Y0120090D02*
X0113484Y0120090D01*
X0111491Y0124885D02*
X0109370Y0124885D01*
X0110820Y0126484D02*
X0112780Y0126484D01*
X0112200Y0128082D02*
X0111400Y0128082D01*
X0111400Y0129681D02*
X0112200Y0129681D01*
X0112200Y0131279D02*
X0111400Y0131279D01*
X0111400Y0132878D02*
X0112200Y0132878D01*
X0112200Y0134476D02*
X0111400Y0134476D01*
X0111251Y0136075D02*
X0112349Y0136075D01*
X0113168Y0137673D02*
X0111068Y0137673D01*
X0112666Y0139272D02*
X0115576Y0139272D01*
X0118024Y0139272D02*
X0125576Y0139272D01*
X0128024Y0139272D02*
X0130934Y0139272D01*
X0130432Y0137673D02*
X0132532Y0137673D01*
X0131251Y0136075D02*
X0134131Y0136075D01*
X0135729Y0134476D02*
X0131400Y0134476D01*
X0131400Y0132878D02*
X0137328Y0132878D01*
X0138926Y0131279D02*
X0131400Y0131279D01*
X0131400Y0129681D02*
X0139400Y0129681D01*
X0139400Y0128082D02*
X0131400Y0128082D01*
X0130820Y0126484D02*
X0139400Y0126484D01*
X0144200Y0126484D02*
X0188722Y0126484D01*
X0187123Y0128082D02*
X0144200Y0128082D01*
X0144200Y0129681D02*
X0185525Y0129681D01*
X0183926Y0131279D02*
X0144200Y0131279D01*
X0143951Y0132878D02*
X0149782Y0132878D01*
X0150560Y0132100D02*
X0154040Y0132100D01*
X0156500Y0134560D01*
X0156500Y0138040D01*
X0154700Y0139840D01*
X0154700Y0141777D01*
X0154335Y0142659D01*
X0134200Y0162794D01*
X0134200Y0190806D01*
X0182794Y0239400D01*
X0262277Y0239400D01*
X0263159Y0239765D01*
X0313159Y0289765D01*
X0313835Y0290441D01*
X0314200Y0291323D01*
X0314200Y0325860D01*
X0315161Y0326821D01*
X0315800Y0328365D01*
X0315800Y0335235D01*
X0315161Y0336779D01*
X0313979Y0337961D01*
X0312435Y0338600D01*
X0310765Y0338600D01*
X0309221Y0337961D01*
X0308039Y0336779D01*
X0307400Y0335235D01*
X0307400Y0328365D01*
X0308039Y0326821D01*
X0309221Y0325639D01*
X0309400Y0325565D01*
X0309400Y0292794D01*
X0260806Y0244200D01*
X0181323Y0244200D01*
X0180441Y0243835D01*
X0179765Y0243159D01*
X0129765Y0193159D01*
X0129400Y0192277D01*
X0129400Y0161323D01*
X0129765Y0160441D01*
X0130441Y0159765D01*
X0149900Y0140306D01*
X0149900Y0139840D01*
X0148100Y0138040D01*
X0148100Y0134560D01*
X0150560Y0132100D01*
X0148184Y0134476D02*
X0142518Y0134476D01*
X0140919Y0136075D02*
X0148100Y0136075D01*
X0148100Y0137673D02*
X0139321Y0137673D01*
X0137722Y0139272D02*
X0149332Y0139272D01*
X0149335Y0140870D02*
X0136124Y0140870D01*
X0134525Y0142469D02*
X0147737Y0142469D01*
X0146138Y0144068D02*
X0132597Y0144068D01*
X0131800Y0141800D02*
X0141800Y0131800D01*
X0141800Y0111800D01*
X0111800Y0081800D01*
X0111800Y0061800D01*
X0101800Y0051800D01*
X0076800Y0051800D01*
X0046800Y0081800D01*
X0050607Y0084923D02*
X0082993Y0084923D01*
X0082128Y0083324D02*
X0051472Y0083324D01*
X0051700Y0081726D02*
X0081900Y0081726D01*
X0082189Y0080127D02*
X0051867Y0080127D01*
X0053466Y0078529D02*
X0083142Y0078529D01*
X0084400Y0076930D02*
X0055064Y0076930D01*
X0056663Y0075332D02*
X0084400Y0075332D01*
X0084400Y0073733D02*
X0058261Y0073733D01*
X0059860Y0072134D02*
X0084400Y0072134D01*
X0084400Y0070536D02*
X0061458Y0070536D01*
X0063057Y0068937D02*
X0084400Y0068937D01*
X0084400Y0067339D02*
X0064655Y0067339D01*
X0066254Y0065740D02*
X0083811Y0065740D01*
X0082466Y0064142D02*
X0067852Y0064142D01*
X0069451Y0062543D02*
X0081900Y0062543D01*
X0081900Y0060945D02*
X0071049Y0060945D01*
X0072648Y0059346D02*
X0082513Y0059346D01*
X0083922Y0057748D02*
X0074246Y0057748D01*
X0075845Y0056149D02*
X0102755Y0056149D01*
X0101157Y0054551D02*
X0077443Y0054551D01*
X0070436Y0046558D02*
X0150000Y0046558D01*
X0150000Y0044960D02*
X0072034Y0044960D01*
X0089678Y0057748D02*
X0104354Y0057748D01*
X0105952Y0059346D02*
X0091087Y0059346D01*
X0091700Y0060945D02*
X0107551Y0060945D01*
X0109149Y0062543D02*
X0091700Y0062543D01*
X0091134Y0064142D02*
X0109400Y0064142D01*
X0109400Y0065740D02*
X0089789Y0065740D01*
X0089200Y0067339D02*
X0109400Y0067339D01*
X0109400Y0068937D02*
X0089200Y0068937D01*
X0089200Y0070536D02*
X0109400Y0070536D01*
X0109400Y0072134D02*
X0089200Y0072134D01*
X0089200Y0073733D02*
X0109400Y0073733D01*
X0109400Y0075332D02*
X0089200Y0075332D01*
X0089200Y0076930D02*
X0099670Y0076930D01*
X0099750Y0076850D02*
X0101800Y0076850D01*
X0103850Y0076850D01*
X0106750Y0079750D01*
X0106750Y0081800D01*
X0106750Y0083850D01*
X0103850Y0086750D01*
X0101800Y0086750D01*
X0101800Y0081800D01*
X0106750Y0081800D01*
X0101800Y0081800D01*
X0101800Y0081800D01*
X0101800Y0081800D01*
X0101800Y0076850D01*
X0101800Y0081800D01*
X0101800Y0081800D01*
X0101800Y0081800D01*
X0096850Y0081800D01*
X0096850Y0083850D01*
X0099750Y0086750D01*
X0101800Y0086750D01*
X0101800Y0081800D01*
X0096850Y0081800D01*
X0096850Y0079750D01*
X0099750Y0076850D01*
X0101800Y0076930D02*
X0101800Y0076930D01*
X0101800Y0078529D02*
X0101800Y0078529D01*
X0101800Y0080127D02*
X0101800Y0080127D01*
X0101800Y0081726D02*
X0101800Y0081726D01*
X0101800Y0083324D02*
X0101800Y0083324D01*
X0101800Y0084923D02*
X0101800Y0084923D01*
X0101800Y0086521D02*
X0101800Y0086521D01*
X0104079Y0086521D02*
X0109804Y0086521D01*
X0108205Y0084923D02*
X0105678Y0084923D01*
X0106750Y0083324D02*
X0107050Y0083324D01*
X0107050Y0081726D02*
X0106750Y0081726D01*
X0106750Y0080127D02*
X0107050Y0080127D01*
X0108354Y0078529D02*
X0105529Y0078529D01*
X0103930Y0076930D02*
X0109400Y0076930D01*
X0114726Y0088120D02*
X0089200Y0088120D01*
X0089200Y0089718D02*
X0116324Y0089718D01*
X0121514Y0088120D02*
X0259400Y0088120D01*
X0259400Y0089718D02*
X0123112Y0089718D01*
X0124711Y0091317D02*
X0259400Y0091317D01*
X0259400Y0092915D02*
X0126309Y0092915D01*
X0127908Y0094514D02*
X0259400Y0094514D01*
X0259400Y0096112D02*
X0129506Y0096112D01*
X0131105Y0097711D02*
X0259400Y0097711D01*
X0257897Y0099309D02*
X0256382Y0099309D01*
X0253218Y0099309D02*
X0246382Y0099309D01*
X0245635Y0099000D02*
X0247179Y0099639D01*
X0248361Y0100821D01*
X0249000Y0102365D01*
X0249000Y0109235D01*
X0248361Y0110779D01*
X0247200Y0111940D01*
X0247200Y0119277D01*
X0246835Y0120159D01*
X0243835Y0123159D01*
X0243159Y0123835D01*
X0242277Y0124200D01*
X0197794Y0124200D01*
X0186500Y0135494D01*
X0186500Y0138040D01*
X0184040Y0140500D01*
X0180560Y0140500D01*
X0178100Y0138040D01*
X0178100Y0134560D01*
X0180560Y0132100D01*
X0183106Y0132100D01*
X0195441Y0119765D01*
X0196323Y0119400D01*
X0240806Y0119400D01*
X0242400Y0117806D01*
X0242400Y0111940D01*
X0241239Y0110779D01*
X0240600Y0109235D01*
X0240600Y0102365D01*
X0241239Y0100821D01*
X0242421Y0099639D01*
X0243965Y0099000D01*
X0245635Y0099000D01*
X0243218Y0099309D02*
X0236856Y0099309D01*
X0237106Y0099437D02*
X0237666Y0099844D01*
X0238156Y0100334D01*
X0238563Y0100894D01*
X0238878Y0101511D01*
X0239092Y0102170D01*
X0239200Y0102854D01*
X0239200Y0105800D01*
X0239200Y0108746D01*
X0239092Y0109430D01*
X0238878Y0110089D01*
X0238563Y0110706D01*
X0238156Y0111266D01*
X0237666Y0111756D01*
X0237106Y0112163D01*
X0236489Y0112478D01*
X0235830Y0112692D01*
X0235146Y0112800D01*
X0234800Y0112800D01*
X0234800Y0105800D01*
X0239200Y0105800D01*
X0234800Y0105800D01*
X0234800Y0105800D01*
X0234800Y0105800D01*
X0234800Y0098800D01*
X0235146Y0098800D01*
X0235830Y0098908D01*
X0236489Y0099122D01*
X0237106Y0099437D01*
X0238570Y0100908D02*
X0241203Y0100908D01*
X0240600Y0102506D02*
X0239145Y0102506D01*
X0239200Y0104105D02*
X0240600Y0104105D01*
X0240600Y0105703D02*
X0239200Y0105703D01*
X0239200Y0107302D02*
X0240600Y0107302D01*
X0240600Y0108900D02*
X0239176Y0108900D01*
X0238669Y0110499D02*
X0241123Y0110499D01*
X0242400Y0112097D02*
X0237197Y0112097D01*
X0234800Y0112097D02*
X0234800Y0112097D01*
X0234800Y0112800D02*
X0234454Y0112800D01*
X0233770Y0112692D01*
X0233111Y0112478D01*
X0232494Y0112163D01*
X0231934Y0111756D01*
X0231444Y0111266D01*
X0231037Y0110706D01*
X0230722Y0110089D01*
X0230508Y0109430D01*
X0230400Y0108746D01*
X0230400Y0105800D01*
X0234800Y0105800D01*
X0234800Y0105800D01*
X0234800Y0105800D01*
X0234800Y0112800D01*
X0234800Y0110499D02*
X0234800Y0110499D01*
X0234800Y0108900D02*
X0234800Y0108900D01*
X0234800Y0107302D02*
X0234800Y0107302D01*
X0234800Y0105800D02*
X0230400Y0105800D01*
X0230400Y0102854D01*
X0230508Y0102170D01*
X0230722Y0101511D01*
X0231037Y0100894D01*
X0231444Y0100334D01*
X0231934Y0099844D01*
X0232494Y0099437D01*
X0233111Y0099122D01*
X0233770Y0098908D01*
X0234454Y0098800D01*
X0234800Y0098800D01*
X0234800Y0105800D01*
X0234800Y0105703D02*
X0234800Y0105703D01*
X0234800Y0104105D02*
X0234800Y0104105D01*
X0234800Y0102506D02*
X0234800Y0102506D01*
X0234800Y0100908D02*
X0234800Y0100908D01*
X0234800Y0099309D02*
X0234800Y0099309D01*
X0232744Y0099309D02*
X0132703Y0099309D01*
X0134302Y0100908D02*
X0231030Y0100908D01*
X0230455Y0102506D02*
X0135900Y0102506D01*
X0137499Y0104105D02*
X0230400Y0104105D01*
X0230400Y0105703D02*
X0139097Y0105703D01*
X0140696Y0107302D02*
X0230400Y0107302D01*
X0230424Y0108900D02*
X0142294Y0108900D01*
X0143859Y0110499D02*
X0230931Y0110499D01*
X0232403Y0112097D02*
X0144200Y0112097D01*
X0144200Y0113696D02*
X0242400Y0113696D01*
X0242400Y0115294D02*
X0144200Y0115294D01*
X0144200Y0116893D02*
X0242400Y0116893D01*
X0241715Y0118491D02*
X0144200Y0118491D01*
X0144200Y0120090D02*
X0195116Y0120090D01*
X0193518Y0121688D02*
X0144200Y0121688D01*
X0144200Y0123287D02*
X0191919Y0123287D01*
X0190321Y0124885D02*
X0144200Y0124885D01*
X0154818Y0132878D02*
X0179782Y0132878D01*
X0178184Y0134476D02*
X0156416Y0134476D01*
X0156500Y0136075D02*
X0178100Y0136075D01*
X0178100Y0137673D02*
X0156500Y0137673D01*
X0155268Y0139272D02*
X0179332Y0139272D01*
X0182300Y0136300D02*
X0196800Y0121800D01*
X0241800Y0121800D01*
X0244800Y0118800D01*
X0244800Y0105800D01*
X0249000Y0105703D02*
X0250600Y0105703D01*
X0250600Y0104105D02*
X0249000Y0104105D01*
X0249000Y0102506D02*
X0250600Y0102506D01*
X0251203Y0100908D02*
X0248397Y0100908D01*
X0249000Y0107302D02*
X0250600Y0107302D01*
X0250600Y0108900D02*
X0249000Y0108900D01*
X0248477Y0110499D02*
X0251123Y0110499D01*
X0252751Y0112097D02*
X0247200Y0112097D01*
X0247200Y0113696D02*
X0259302Y0113696D01*
X0260900Y0115294D02*
X0247200Y0115294D01*
X0247200Y0116893D02*
X0262499Y0116893D01*
X0263900Y0118491D02*
X0247200Y0118491D01*
X0246863Y0120090D02*
X0263900Y0120090D01*
X0263900Y0121688D02*
X0245306Y0121688D01*
X0243707Y0123287D02*
X0263900Y0123287D01*
X0263900Y0124885D02*
X0197109Y0124885D01*
X0195510Y0126484D02*
X0263900Y0126484D01*
X0263084Y0128082D02*
X0193912Y0128082D01*
X0192313Y0129681D02*
X0261485Y0129681D01*
X0259887Y0131279D02*
X0190715Y0131279D01*
X0189116Y0132878D02*
X0259700Y0132878D01*
X0259700Y0134476D02*
X0187518Y0134476D01*
X0186500Y0136075D02*
X0259700Y0136075D01*
X0260440Y0137673D02*
X0186500Y0137673D01*
X0185268Y0139272D02*
X0262038Y0139272D01*
X0270562Y0139272D02*
X0273963Y0139272D01*
X0273953Y0140870D02*
X0154700Y0140870D01*
X0154414Y0142469D02*
X0273943Y0142469D01*
X0272299Y0144068D02*
X0225007Y0144068D01*
X0226000Y0145060D02*
X0223540Y0142600D01*
X0220060Y0142600D01*
X0217600Y0145060D01*
X0217600Y0148540D01*
X0219400Y0150340D01*
X0219400Y0163260D01*
X0217600Y0165060D01*
X0217600Y0168540D01*
X0220060Y0171000D01*
X0223540Y0171000D01*
X0226000Y0168540D01*
X0226000Y0165060D01*
X0224200Y0163260D01*
X0224200Y0150340D01*
X0226000Y0148540D01*
X0226000Y0145060D01*
X0226000Y0145666D02*
X0270700Y0145666D01*
X0269700Y0147265D02*
X0226000Y0147265D01*
X0225677Y0148863D02*
X0269700Y0148863D01*
X0269700Y0150462D02*
X0224200Y0150462D01*
X0224200Y0152060D02*
X0269700Y0152060D01*
X0271225Y0153659D02*
X0224200Y0153659D01*
X0224200Y0155257D02*
X0272823Y0155257D01*
X0276021Y0160239D02*
X0277565Y0159600D01*
X0279235Y0159600D01*
X0280779Y0160239D01*
X0281961Y0161421D01*
X0282600Y0162965D01*
X0282600Y0164635D01*
X0281961Y0166179D01*
X0280779Y0167361D01*
X0279235Y0168000D01*
X0277565Y0168000D01*
X0276021Y0167361D01*
X0274839Y0166179D01*
X0274200Y0164635D01*
X0274200Y0162965D01*
X0274839Y0161421D01*
X0276021Y0160239D01*
X0276472Y0160053D02*
X0250728Y0160053D01*
X0250706Y0160037D02*
X0251266Y0160444D01*
X0251756Y0160934D01*
X0252163Y0161494D01*
X0252478Y0162111D01*
X0252692Y0162770D01*
X0252800Y0163454D01*
X0252800Y0163800D01*
X0252800Y0164146D01*
X0252692Y0164830D01*
X0252478Y0165489D01*
X0252163Y0166106D01*
X0251756Y0166666D01*
X0251266Y0167156D01*
X0250706Y0167563D01*
X0250089Y0167878D01*
X0249430Y0168092D01*
X0248746Y0168200D01*
X0248400Y0168200D01*
X0248400Y0163800D01*
X0252800Y0163800D01*
X0248400Y0163800D01*
X0248400Y0163800D01*
X0248400Y0163800D01*
X0248400Y0159400D01*
X0248746Y0159400D01*
X0249430Y0159508D01*
X0250089Y0159722D01*
X0250706Y0160037D01*
X0252243Y0161651D02*
X0274744Y0161651D01*
X0274200Y0163250D02*
X0252768Y0163250D01*
X0252686Y0164848D02*
X0274288Y0164848D01*
X0275107Y0166447D02*
X0251916Y0166447D01*
X0249573Y0168045D02*
X0387000Y0168045D01*
X0387000Y0166447D02*
X0281693Y0166447D01*
X0282512Y0164848D02*
X0387000Y0164848D01*
X0387000Y0163250D02*
X0282600Y0163250D01*
X0282056Y0161651D02*
X0387000Y0161651D01*
X0387000Y0160053D02*
X0280328Y0160053D01*
X0279777Y0155257D02*
X0387000Y0155257D01*
X0387000Y0153659D02*
X0281375Y0153659D01*
X0282900Y0152060D02*
X0387000Y0152060D01*
X0387000Y0150462D02*
X0282900Y0150462D01*
X0273973Y0137673D02*
X0272160Y0137673D01*
X0272900Y0136075D02*
X0273983Y0136075D01*
X0273993Y0134476D02*
X0272900Y0134476D01*
X0272900Y0132878D02*
X0274003Y0132878D01*
X0274013Y0131279D02*
X0272713Y0131279D01*
X0274022Y0129681D02*
X0271115Y0129681D01*
X0269516Y0128082D02*
X0274032Y0128082D01*
X0274042Y0126484D02*
X0268700Y0126484D01*
X0268700Y0124885D02*
X0274052Y0124885D01*
X0274062Y0123287D02*
X0268700Y0123287D01*
X0268700Y0121688D02*
X0274072Y0121688D01*
X0274082Y0120090D02*
X0268700Y0120090D01*
X0268700Y0118491D02*
X0274092Y0118491D01*
X0274102Y0116893D02*
X0268700Y0116893D01*
X0267688Y0115294D02*
X0274112Y0115294D01*
X0274122Y0113696D02*
X0266090Y0113696D01*
X0264491Y0112097D02*
X0274132Y0112097D01*
X0276550Y0109150D02*
X0276550Y0079050D01*
X0271800Y0071800D01*
X0273339Y0078529D02*
X0265458Y0078529D01*
X0266411Y0080127D02*
X0274150Y0080127D01*
X0257703Y0112097D02*
X0256849Y0112097D01*
X0221800Y0146800D02*
X0221800Y0166800D01*
X0224896Y0169644D02*
X0247459Y0169644D01*
X0247565Y0169600D02*
X0249235Y0169600D01*
X0250779Y0170239D01*
X0251961Y0171421D01*
X0252600Y0172965D01*
X0252600Y0174635D01*
X0251961Y0176179D01*
X0250779Y0177361D01*
X0249235Y0178000D01*
X0247565Y0178000D01*
X0246021Y0177361D01*
X0244839Y0176179D01*
X0244200Y0174635D01*
X0244200Y0172965D01*
X0244839Y0171421D01*
X0246021Y0170239D01*
X0247565Y0169600D01*
X0248054Y0168200D02*
X0247370Y0168092D01*
X0246711Y0167878D01*
X0246094Y0167563D01*
X0245534Y0167156D01*
X0245044Y0166666D01*
X0244637Y0166106D01*
X0244322Y0165489D01*
X0244108Y0164830D01*
X0244000Y0164146D01*
X0244000Y0163800D01*
X0248400Y0163800D01*
X0248400Y0163800D01*
X0248400Y0163800D01*
X0248400Y0168200D01*
X0248054Y0168200D01*
X0248400Y0168045D02*
X0248400Y0168045D01*
X0247227Y0168045D02*
X0226000Y0168045D01*
X0226000Y0166447D02*
X0244884Y0166447D01*
X0244114Y0164848D02*
X0225788Y0164848D01*
X0224200Y0163250D02*
X0244032Y0163250D01*
X0244000Y0163454D02*
X0244108Y0162770D01*
X0244322Y0162111D01*
X0244637Y0161494D01*
X0245044Y0160934D01*
X0245534Y0160444D01*
X0246094Y0160037D01*
X0246711Y0159722D01*
X0247370Y0159508D01*
X0248054Y0159400D01*
X0248400Y0159400D01*
X0248400Y0163800D01*
X0244000Y0163800D01*
X0244000Y0163454D01*
X0244557Y0161651D02*
X0224200Y0161651D01*
X0224200Y0160053D02*
X0246072Y0160053D01*
X0248400Y0160053D02*
X0248400Y0160053D01*
X0248400Y0161651D02*
X0248400Y0161651D01*
X0248400Y0163250D02*
X0248400Y0163250D01*
X0248400Y0164848D02*
X0248400Y0164848D01*
X0248400Y0166447D02*
X0248400Y0166447D01*
X0249341Y0169644D02*
X0277459Y0169644D01*
X0277565Y0169600D02*
X0279235Y0169600D01*
X0280779Y0170239D01*
X0281961Y0171421D01*
X0282600Y0172965D01*
X0282600Y0174635D01*
X0281961Y0176179D01*
X0280779Y0177361D01*
X0279235Y0178000D01*
X0277565Y0178000D01*
X0276021Y0177361D01*
X0274839Y0176179D01*
X0274200Y0174635D01*
X0274200Y0172965D01*
X0274839Y0171421D01*
X0276021Y0170239D01*
X0277565Y0169600D01*
X0279341Y0169644D02*
X0387000Y0169644D01*
X0387000Y0171242D02*
X0281782Y0171242D01*
X0282549Y0172841D02*
X0316482Y0172841D01*
X0316707Y0172711D02*
X0319733Y0171900D01*
X0322867Y0171900D01*
X0325893Y0172711D01*
X0328607Y0174278D01*
X0330822Y0176493D01*
X0332389Y0179207D01*
X0333200Y0182233D01*
X0333200Y0185367D01*
X0332389Y0188393D01*
X0330822Y0191107D01*
X0328607Y0193322D01*
X0325893Y0194889D01*
X0322867Y0195700D01*
X0319733Y0195700D01*
X0316707Y0194889D01*
X0313993Y0193322D01*
X0311778Y0191107D01*
X0310211Y0188393D01*
X0309400Y0185367D01*
X0309400Y0182233D01*
X0310211Y0179207D01*
X0311778Y0176493D01*
X0313993Y0174278D01*
X0316707Y0172711D01*
X0313832Y0174439D02*
X0282600Y0174439D01*
X0282019Y0176038D02*
X0312233Y0176038D01*
X0311118Y0177636D02*
X0280114Y0177636D01*
X0279235Y0179600D02*
X0280779Y0180239D01*
X0281961Y0181421D01*
X0282600Y0182965D01*
X0282600Y0184635D01*
X0281961Y0186179D01*
X0280779Y0187361D01*
X0279235Y0188000D01*
X0277565Y0188000D01*
X0276021Y0187361D01*
X0274839Y0186179D01*
X0274200Y0184635D01*
X0274200Y0182965D01*
X0274839Y0181421D01*
X0276021Y0180239D01*
X0277565Y0179600D01*
X0279235Y0179600D01*
X0281373Y0180833D02*
X0309775Y0180833D01*
X0309400Y0182432D02*
X0282379Y0182432D01*
X0282600Y0184030D02*
X0309400Y0184030D01*
X0309470Y0185629D02*
X0282189Y0185629D01*
X0280912Y0187227D02*
X0309899Y0187227D01*
X0310461Y0188826D02*
X0250800Y0188826D01*
X0250800Y0190260D02*
X0251940Y0191400D01*
X0257477Y0191400D01*
X0258359Y0191765D01*
X0259035Y0192441D01*
X0263835Y0197241D01*
X0264200Y0198123D01*
X0264200Y0210806D01*
X0343159Y0289765D01*
X0343835Y0290441D01*
X0344200Y0291323D01*
X0344200Y0325860D01*
X0345161Y0326821D01*
X0345800Y0328365D01*
X0345800Y0335235D01*
X0345161Y0336779D01*
X0343979Y0337961D01*
X0342435Y0338600D01*
X0340765Y0338600D01*
X0339221Y0337961D01*
X0338039Y0336779D01*
X0337400Y0335235D01*
X0337400Y0328365D01*
X0338039Y0326821D01*
X0339221Y0325639D01*
X0339400Y0325565D01*
X0339400Y0292794D01*
X0259765Y0213159D01*
X0259400Y0212277D01*
X0259400Y0199594D01*
X0256006Y0196200D01*
X0251940Y0196200D01*
X0250779Y0197361D01*
X0249235Y0198000D01*
X0247565Y0198000D01*
X0246021Y0197361D01*
X0244839Y0196179D01*
X0244200Y0194635D01*
X0244200Y0192965D01*
X0244839Y0191421D01*
X0246000Y0190260D01*
X0246000Y0187340D01*
X0244839Y0186179D01*
X0244200Y0184635D01*
X0244200Y0182965D01*
X0244839Y0181421D01*
X0246021Y0180239D01*
X0247565Y0179600D01*
X0249235Y0179600D01*
X0250779Y0180239D01*
X0251961Y0181421D01*
X0252600Y0182965D01*
X0252600Y0184635D01*
X0251961Y0186179D01*
X0250800Y0187340D01*
X0250800Y0190260D01*
X0250964Y0190424D02*
X0275836Y0190424D01*
X0276021Y0190239D02*
X0277565Y0189600D01*
X0279235Y0189600D01*
X0280779Y0190239D01*
X0281961Y0191421D01*
X0282600Y0192965D01*
X0282600Y0194635D01*
X0281961Y0196179D01*
X0280779Y0197361D01*
X0279235Y0198000D01*
X0277565Y0198000D01*
X0276021Y0197361D01*
X0274839Y0196179D01*
X0274200Y0194635D01*
X0274200Y0192965D01*
X0274839Y0191421D01*
X0276021Y0190239D01*
X0274590Y0192023D02*
X0258617Y0192023D01*
X0260215Y0193621D02*
X0274200Y0193621D01*
X0274442Y0195220D02*
X0261814Y0195220D01*
X0263412Y0196818D02*
X0275479Y0196818D01*
X0281321Y0196818D02*
X0387000Y0196818D01*
X0387000Y0195220D02*
X0324659Y0195220D01*
X0328089Y0193621D02*
X0387000Y0193621D01*
X0387000Y0192023D02*
X0329906Y0192023D01*
X0331216Y0190424D02*
X0369485Y0190424D01*
X0370060Y0191000D02*
X0367600Y0188540D01*
X0367600Y0185060D01*
X0370060Y0182600D01*
X0373540Y0182600D01*
X0376000Y0185060D01*
X0376000Y0188540D01*
X0373540Y0191000D01*
X0370060Y0191000D01*
X0367886Y0188826D02*
X0332139Y0188826D01*
X0332701Y0187227D02*
X0367600Y0187227D01*
X0367600Y0185629D02*
X0333130Y0185629D01*
X0333200Y0184030D02*
X0368630Y0184030D01*
X0374970Y0184030D02*
X0378347Y0184030D01*
X0377400Y0184977D02*
X0379977Y0182400D01*
X0381800Y0182400D01*
X0383623Y0182400D01*
X0386200Y0184977D01*
X0386200Y0186800D01*
X0386200Y0188623D01*
X0383623Y0191200D01*
X0381800Y0191200D01*
X0381800Y0186800D01*
X0386200Y0186800D01*
X0381800Y0186800D01*
X0381800Y0186800D01*
X0381800Y0186800D01*
X0381800Y0182400D01*
X0381800Y0186800D01*
X0381800Y0186800D01*
X0381800Y0186800D01*
X0377400Y0186800D01*
X0377400Y0188623D01*
X0379977Y0191200D01*
X0381800Y0191200D01*
X0381800Y0186800D01*
X0377400Y0186800D01*
X0377400Y0184977D01*
X0377400Y0185629D02*
X0376000Y0185629D01*
X0376000Y0187227D02*
X0377400Y0187227D01*
X0377603Y0188826D02*
X0375714Y0188826D01*
X0374115Y0190424D02*
X0379202Y0190424D01*
X0381800Y0190424D02*
X0381800Y0190424D01*
X0381800Y0188826D02*
X0381800Y0188826D01*
X0381800Y0187227D02*
X0381800Y0187227D01*
X0381800Y0185629D02*
X0381800Y0185629D01*
X0381800Y0184030D02*
X0381800Y0184030D01*
X0381800Y0182432D02*
X0381800Y0182432D01*
X0383654Y0182432D02*
X0387000Y0182432D01*
X0387000Y0184030D02*
X0385253Y0184030D01*
X0386200Y0185629D02*
X0387000Y0185629D01*
X0387000Y0187227D02*
X0386200Y0187227D01*
X0385997Y0188826D02*
X0387000Y0188826D01*
X0387000Y0190424D02*
X0384398Y0190424D01*
X0387000Y0198417D02*
X0359357Y0198417D01*
X0358540Y0197600D02*
X0361000Y0200060D01*
X0361000Y0203540D01*
X0358540Y0206000D01*
X0355060Y0206000D01*
X0352600Y0203540D01*
X0352600Y0200060D01*
X0355060Y0197600D01*
X0358540Y0197600D01*
X0360955Y0200015D02*
X0387000Y0200015D01*
X0387000Y0201614D02*
X0361000Y0201614D01*
X0361000Y0203212D02*
X0370882Y0203212D01*
X0371194Y0202900D02*
X0372885Y0202200D01*
X0380715Y0202200D01*
X0382406Y0202900D01*
X0383700Y0204194D01*
X0384400Y0205885D01*
X0384400Y0207715D01*
X0383700Y0209406D01*
X0382406Y0210700D01*
X0380715Y0211400D01*
X0372885Y0211400D01*
X0371194Y0210700D01*
X0369900Y0209406D01*
X0369815Y0209200D01*
X0367794Y0209200D01*
X0346000Y0230994D01*
X0346000Y0233540D01*
X0343540Y0236000D01*
X0340060Y0236000D01*
X0337600Y0233540D01*
X0337600Y0230060D01*
X0340060Y0227600D01*
X0342606Y0227600D01*
X0365441Y0204765D01*
X0366323Y0204400D01*
X0369815Y0204400D01*
X0369900Y0204194D01*
X0371194Y0202900D01*
X0366800Y0206800D02*
X0341800Y0231800D01*
X0338872Y0228789D02*
X0282183Y0228789D01*
X0283781Y0230387D02*
X0337600Y0230387D01*
X0337600Y0231986D02*
X0285380Y0231986D01*
X0286978Y0233584D02*
X0337644Y0233584D01*
X0339243Y0235183D02*
X0288577Y0235183D01*
X0290175Y0236781D02*
X0387000Y0236781D01*
X0387000Y0235183D02*
X0359357Y0235183D01*
X0358540Y0236000D02*
X0355060Y0236000D01*
X0352600Y0233540D01*
X0352600Y0230060D01*
X0354400Y0228260D01*
X0354400Y0223823D01*
X0354765Y0222941D01*
X0362265Y0215441D01*
X0362941Y0214765D01*
X0363823Y0214400D01*
X0369815Y0214400D01*
X0369900Y0214194D01*
X0371194Y0212900D01*
X0372885Y0212200D01*
X0380715Y0212200D01*
X0382406Y0212900D01*
X0383700Y0214194D01*
X0384400Y0215885D01*
X0384400Y0217715D01*
X0383700Y0219406D01*
X0382406Y0220700D01*
X0380715Y0221400D01*
X0372885Y0221400D01*
X0371194Y0220700D01*
X0369900Y0219406D01*
X0369815Y0219200D01*
X0365294Y0219200D01*
X0359200Y0225294D01*
X0359200Y0228260D01*
X0361000Y0230060D01*
X0361000Y0233540D01*
X0358540Y0236000D01*
X0360956Y0233584D02*
X0387000Y0233584D01*
X0387000Y0231986D02*
X0361000Y0231986D01*
X0361000Y0230387D02*
X0370599Y0230387D01*
X0370673Y0230461D02*
X0370139Y0229927D01*
X0369695Y0229316D01*
X0369352Y0228643D01*
X0369118Y0227924D01*
X0369000Y0227178D01*
X0369000Y0227000D01*
X0376600Y0227000D01*
X0376600Y0231600D01*
X0373422Y0231600D01*
X0372676Y0231482D01*
X0371957Y0231248D01*
X0371284Y0230905D01*
X0370673Y0230461D01*
X0369426Y0228789D02*
X0359728Y0228789D01*
X0359200Y0227190D02*
X0369002Y0227190D01*
X0369000Y0226600D02*
X0369000Y0226422D01*
X0369118Y0225676D01*
X0369352Y0224957D01*
X0369695Y0224284D01*
X0370139Y0223673D01*
X0370673Y0223139D01*
X0371284Y0222695D01*
X0371957Y0222352D01*
X0372676Y0222118D01*
X0373422Y0222000D01*
X0376600Y0222000D01*
X0376600Y0226600D01*
X0377000Y0226600D01*
X0377000Y0227000D01*
X0376600Y0227000D01*
X0376600Y0226600D01*
X0369000Y0226600D01*
X0369146Y0225592D02*
X0359200Y0225592D01*
X0360501Y0223993D02*
X0369906Y0223993D01*
X0371873Y0222395D02*
X0362100Y0222395D01*
X0363698Y0220796D02*
X0371427Y0220796D01*
X0376600Y0222395D02*
X0377000Y0222395D01*
X0377000Y0222000D02*
X0380178Y0222000D01*
X0380924Y0222118D01*
X0381643Y0222352D01*
X0382316Y0222695D01*
X0382927Y0223139D01*
X0383461Y0223673D01*
X0383905Y0224284D01*
X0384248Y0224957D01*
X0384482Y0225676D01*
X0384600Y0226422D01*
X0384600Y0226600D01*
X0377000Y0226600D01*
X0377000Y0222000D01*
X0377000Y0223993D02*
X0376600Y0223993D01*
X0376600Y0225592D02*
X0377000Y0225592D01*
X0377000Y0227000D02*
X0384600Y0227000D01*
X0384600Y0227178D01*
X0384482Y0227924D01*
X0384248Y0228643D01*
X0383905Y0229316D01*
X0383461Y0229927D01*
X0382927Y0230461D01*
X0382316Y0230905D01*
X0381643Y0231248D01*
X0380924Y0231482D01*
X0380178Y0231600D01*
X0377000Y0231600D01*
X0377000Y0227000D01*
X0377000Y0227190D02*
X0376600Y0227190D01*
X0376600Y0228789D02*
X0377000Y0228789D01*
X0377000Y0230387D02*
X0376600Y0230387D01*
X0383001Y0230387D02*
X0387000Y0230387D01*
X0387000Y0228789D02*
X0384174Y0228789D01*
X0384598Y0227190D02*
X0387000Y0227190D01*
X0387000Y0225592D02*
X0384454Y0225592D01*
X0383694Y0223993D02*
X0387000Y0223993D01*
X0387000Y0222395D02*
X0381727Y0222395D01*
X0382173Y0220796D02*
X0387000Y0220796D01*
X0387000Y0219198D02*
X0383786Y0219198D01*
X0384400Y0217599D02*
X0387000Y0217599D01*
X0387000Y0216001D02*
X0384400Y0216001D01*
X0383786Y0214402D02*
X0387000Y0214402D01*
X0387000Y0212803D02*
X0382172Y0212803D01*
X0381186Y0211205D02*
X0387000Y0211205D01*
X0387000Y0209606D02*
X0383499Y0209606D01*
X0384279Y0208008D02*
X0387000Y0208008D01*
X0387000Y0206409D02*
X0384400Y0206409D01*
X0383955Y0204811D02*
X0387000Y0204811D01*
X0387000Y0203212D02*
X0382718Y0203212D01*
X0376800Y0206800D02*
X0366800Y0206800D01*
X0365395Y0204811D02*
X0359729Y0204811D01*
X0362198Y0208008D02*
X0264200Y0208008D01*
X0264200Y0209606D02*
X0360599Y0209606D01*
X0359001Y0211205D02*
X0264599Y0211205D01*
X0266198Y0212803D02*
X0357402Y0212803D01*
X0355804Y0214402D02*
X0267796Y0214402D01*
X0269395Y0216001D02*
X0354205Y0216001D01*
X0352607Y0217599D02*
X0270993Y0217599D01*
X0272592Y0219198D02*
X0351008Y0219198D01*
X0349410Y0220796D02*
X0274190Y0220796D01*
X0275789Y0222395D02*
X0347811Y0222395D01*
X0346213Y0223993D02*
X0277387Y0223993D01*
X0278986Y0225592D02*
X0344614Y0225592D01*
X0343016Y0227190D02*
X0280584Y0227190D01*
X0276993Y0230387D02*
X0263781Y0230387D01*
X0263159Y0229765D02*
X0333159Y0299765D01*
X0333835Y0300441D01*
X0334200Y0301323D01*
X0334200Y0325860D01*
X0335161Y0326821D01*
X0335800Y0328365D01*
X0335800Y0335235D01*
X0335161Y0336779D01*
X0333979Y0337961D01*
X0332435Y0338600D01*
X0330765Y0338600D01*
X0329221Y0337961D01*
X0328039Y0336779D01*
X0327400Y0335235D01*
X0327400Y0328365D01*
X0328039Y0326821D01*
X0329221Y0325639D01*
X0329400Y0325565D01*
X0329400Y0302794D01*
X0260806Y0234200D01*
X0188923Y0234200D01*
X0188041Y0233835D01*
X0187365Y0233159D01*
X0139765Y0185559D01*
X0139400Y0184677D01*
X0139400Y0183723D01*
X0139400Y0167277D01*
X0139400Y0166323D01*
X0139765Y0165441D01*
X0147600Y0157606D01*
X0147600Y0155060D01*
X0150060Y0152600D01*
X0153540Y0152600D01*
X0156000Y0155060D01*
X0156000Y0158540D01*
X0153540Y0161000D01*
X0150994Y0161000D01*
X0144200Y0167794D01*
X0144200Y0183206D01*
X0190394Y0229400D01*
X0262277Y0229400D01*
X0263159Y0229765D01*
X0261800Y0231800D02*
X0331800Y0301800D01*
X0331800Y0327000D01*
X0331600Y0331800D01*
X0335800Y0331093D02*
X0337400Y0331093D01*
X0337400Y0329495D02*
X0335800Y0329495D01*
X0335606Y0327896D02*
X0337594Y0327896D01*
X0338563Y0326298D02*
X0334637Y0326298D01*
X0334200Y0324699D02*
X0339400Y0324699D01*
X0339400Y0323101D02*
X0334200Y0323101D01*
X0334200Y0321502D02*
X0339400Y0321502D01*
X0339400Y0319904D02*
X0334200Y0319904D01*
X0334200Y0318305D02*
X0339400Y0318305D01*
X0339400Y0316707D02*
X0334200Y0316707D01*
X0334200Y0315108D02*
X0339400Y0315108D01*
X0339400Y0313510D02*
X0334200Y0313510D01*
X0334200Y0311911D02*
X0339400Y0311911D01*
X0339400Y0310313D02*
X0334200Y0310313D01*
X0334200Y0308714D02*
X0339400Y0308714D01*
X0339400Y0307116D02*
X0334200Y0307116D01*
X0334200Y0305517D02*
X0339400Y0305517D01*
X0339400Y0303919D02*
X0334200Y0303919D01*
X0334200Y0302320D02*
X0339400Y0302320D01*
X0339400Y0300722D02*
X0333951Y0300722D01*
X0332517Y0299123D02*
X0339400Y0299123D01*
X0339400Y0297525D02*
X0330919Y0297525D01*
X0329320Y0295926D02*
X0339400Y0295926D01*
X0339400Y0294328D02*
X0327722Y0294328D01*
X0326123Y0292729D02*
X0339335Y0292729D01*
X0337736Y0291131D02*
X0324525Y0291131D01*
X0322926Y0289532D02*
X0336138Y0289532D01*
X0334539Y0287934D02*
X0321328Y0287934D01*
X0319729Y0286335D02*
X0332941Y0286335D01*
X0331342Y0284737D02*
X0318131Y0284737D01*
X0316532Y0283138D02*
X0329744Y0283138D01*
X0328145Y0281539D02*
X0314934Y0281539D01*
X0313335Y0279941D02*
X0326547Y0279941D01*
X0324948Y0278342D02*
X0311737Y0278342D01*
X0310138Y0276744D02*
X0323350Y0276744D01*
X0321751Y0275145D02*
X0308540Y0275145D01*
X0306941Y0273547D02*
X0320153Y0273547D01*
X0318554Y0271948D02*
X0305343Y0271948D01*
X0303744Y0270350D02*
X0316956Y0270350D01*
X0315357Y0268751D02*
X0302145Y0268751D01*
X0300547Y0267153D02*
X0313759Y0267153D01*
X0312160Y0265554D02*
X0298948Y0265554D01*
X0297350Y0263956D02*
X0310562Y0263956D01*
X0308963Y0262357D02*
X0295751Y0262357D01*
X0294153Y0260759D02*
X0307365Y0260759D01*
X0305766Y0259160D02*
X0292554Y0259160D01*
X0290956Y0257562D02*
X0304168Y0257562D01*
X0302569Y0255963D02*
X0289357Y0255963D01*
X0287759Y0254365D02*
X0300971Y0254365D01*
X0299372Y0252766D02*
X0286160Y0252766D01*
X0284562Y0251168D02*
X0297774Y0251168D01*
X0296175Y0249569D02*
X0282963Y0249569D01*
X0281365Y0247971D02*
X0294577Y0247971D01*
X0292978Y0246372D02*
X0279766Y0246372D01*
X0278168Y0244774D02*
X0291380Y0244774D01*
X0289781Y0243175D02*
X0276569Y0243175D01*
X0274971Y0241577D02*
X0288183Y0241577D01*
X0286584Y0239978D02*
X0273372Y0239978D01*
X0271774Y0238380D02*
X0284986Y0238380D01*
X0283387Y0236781D02*
X0270175Y0236781D01*
X0268577Y0235183D02*
X0281789Y0235183D01*
X0280190Y0233584D02*
X0266978Y0233584D01*
X0265380Y0231986D02*
X0278592Y0231986D01*
X0275395Y0228789D02*
X0189783Y0228789D01*
X0188184Y0227190D02*
X0273796Y0227190D01*
X0272197Y0225592D02*
X0219231Y0225592D01*
X0218623Y0226200D02*
X0216800Y0226200D01*
X0216800Y0221800D01*
X0236800Y0221800D01*
X0241800Y0216800D01*
X0241800Y0216800D01*
X0241800Y0221200D01*
X0243623Y0221200D01*
X0246200Y0218623D01*
X0246200Y0216800D01*
X0241800Y0216800D01*
X0241800Y0216800D01*
X0241800Y0216800D01*
X0237400Y0216800D01*
X0237400Y0218623D01*
X0239977Y0221200D01*
X0241800Y0221200D01*
X0241800Y0216800D01*
X0246200Y0216800D01*
X0246200Y0214977D01*
X0243623Y0212400D01*
X0241800Y0212400D01*
X0241800Y0216800D01*
X0241800Y0216800D01*
X0237400Y0216800D01*
X0237400Y0214977D01*
X0239977Y0212400D01*
X0241800Y0212400D01*
X0241800Y0216800D01*
X0241800Y0217599D02*
X0241800Y0217599D01*
X0241800Y0216001D02*
X0241800Y0216001D01*
X0241800Y0214402D02*
X0241800Y0214402D01*
X0241800Y0212803D02*
X0241800Y0212803D01*
X0244026Y0212803D02*
X0259618Y0212803D01*
X0259400Y0211205D02*
X0206000Y0211205D01*
X0206000Y0212803D02*
X0239574Y0212803D01*
X0240060Y0211000D02*
X0237600Y0208540D01*
X0237600Y0205060D01*
X0240060Y0202600D01*
X0243540Y0202600D01*
X0246000Y0205060D01*
X0246000Y0208540D01*
X0243540Y0211000D01*
X0240060Y0211000D01*
X0238667Y0209606D02*
X0206000Y0209606D01*
X0206000Y0208365D02*
X0206000Y0215235D01*
X0205361Y0216779D01*
X0204179Y0217961D01*
X0202635Y0218600D01*
X0200965Y0218600D01*
X0199421Y0217961D01*
X0198239Y0216779D01*
X0197600Y0215235D01*
X0197600Y0208365D01*
X0198239Y0206821D01*
X0199400Y0205660D01*
X0199400Y0157794D01*
X0192606Y0151000D01*
X0190060Y0151000D01*
X0187600Y0148540D01*
X0187600Y0145060D01*
X0190060Y0142600D01*
X0193540Y0142600D01*
X0196000Y0145060D01*
X0196000Y0147606D01*
X0203835Y0155441D01*
X0204200Y0156323D01*
X0204200Y0205660D01*
X0205361Y0206821D01*
X0206000Y0208365D01*
X0205852Y0208008D02*
X0237600Y0208008D01*
X0237600Y0206409D02*
X0204949Y0206409D01*
X0204200Y0204811D02*
X0237849Y0204811D01*
X0239448Y0203212D02*
X0204200Y0203212D01*
X0204200Y0201614D02*
X0259400Y0201614D01*
X0259400Y0203212D02*
X0254152Y0203212D01*
X0253540Y0202600D02*
X0256000Y0205060D01*
X0256000Y0208540D01*
X0253540Y0211000D01*
X0250060Y0211000D01*
X0247600Y0208540D01*
X0247600Y0205060D01*
X0250060Y0202600D01*
X0253540Y0202600D01*
X0255751Y0204811D02*
X0259400Y0204811D01*
X0259400Y0206409D02*
X0256000Y0206409D01*
X0256000Y0208008D02*
X0259400Y0208008D01*
X0259400Y0209606D02*
X0254933Y0209606D01*
X0248667Y0209606D02*
X0244933Y0209606D01*
X0246000Y0208008D02*
X0247600Y0208008D01*
X0247600Y0206409D02*
X0246000Y0206409D01*
X0245751Y0204811D02*
X0247849Y0204811D01*
X0249448Y0203212D02*
X0244152Y0203212D01*
X0245479Y0196818D02*
X0204200Y0196818D01*
X0204200Y0195220D02*
X0214280Y0195220D01*
X0215060Y0196000D02*
X0212600Y0193540D01*
X0212600Y0190060D01*
X0215060Y0187600D01*
X0218540Y0187600D01*
X0221000Y0190060D01*
X0221000Y0193540D01*
X0218540Y0196000D01*
X0215060Y0196000D01*
X0212682Y0193621D02*
X0204200Y0193621D01*
X0204200Y0192023D02*
X0212600Y0192023D01*
X0212600Y0190424D02*
X0204200Y0190424D01*
X0204200Y0188826D02*
X0213834Y0188826D01*
X0219766Y0188826D02*
X0246000Y0188826D01*
X0245888Y0187227D02*
X0204200Y0187227D01*
X0204200Y0185629D02*
X0244611Y0185629D01*
X0244200Y0184030D02*
X0204200Y0184030D01*
X0204200Y0182432D02*
X0244421Y0182432D01*
X0245427Y0180833D02*
X0204200Y0180833D01*
X0204200Y0179235D02*
X0310203Y0179235D01*
X0311384Y0190424D02*
X0280964Y0190424D01*
X0282210Y0192023D02*
X0312694Y0192023D01*
X0314511Y0193621D02*
X0282600Y0193621D01*
X0282358Y0195220D02*
X0317941Y0195220D01*
X0333200Y0182432D02*
X0379946Y0182432D01*
X0387000Y0180833D02*
X0332825Y0180833D01*
X0332397Y0179235D02*
X0387000Y0179235D01*
X0387000Y0177636D02*
X0331482Y0177636D01*
X0330367Y0176038D02*
X0387000Y0176038D01*
X0387000Y0174439D02*
X0328768Y0174439D01*
X0326118Y0172841D02*
X0387000Y0172841D01*
X0387000Y0158454D02*
X0224200Y0158454D01*
X0224200Y0156856D02*
X0387000Y0156856D01*
X0354243Y0198417D02*
X0344357Y0198417D01*
X0343540Y0197600D02*
X0346000Y0200060D01*
X0346000Y0203540D01*
X0343540Y0206000D01*
X0340060Y0206000D01*
X0337600Y0203540D01*
X0337600Y0200060D01*
X0340060Y0197600D01*
X0343540Y0197600D01*
X0345955Y0200015D02*
X0352645Y0200015D01*
X0352600Y0201614D02*
X0346000Y0201614D01*
X0346000Y0203212D02*
X0352600Y0203212D01*
X0353871Y0204811D02*
X0344729Y0204811D01*
X0338871Y0204811D02*
X0264200Y0204811D01*
X0264200Y0206409D02*
X0363796Y0206409D01*
X0367388Y0209606D02*
X0370101Y0209606D01*
X0372414Y0211205D02*
X0365789Y0211205D01*
X0364191Y0212803D02*
X0371428Y0212803D01*
X0376800Y0216800D02*
X0364300Y0216800D01*
X0356800Y0224300D01*
X0356800Y0231800D01*
X0353872Y0228789D02*
X0348205Y0228789D01*
X0346607Y0230387D02*
X0352600Y0230387D01*
X0352600Y0231986D02*
X0346000Y0231986D01*
X0345956Y0233584D02*
X0352644Y0233584D01*
X0354243Y0235183D02*
X0344357Y0235183D01*
X0349804Y0227190D02*
X0354400Y0227190D01*
X0354400Y0225592D02*
X0351403Y0225592D01*
X0353001Y0223993D02*
X0354400Y0223993D01*
X0354600Y0222395D02*
X0355311Y0222395D01*
X0356198Y0220796D02*
X0356910Y0220796D01*
X0357797Y0219198D02*
X0358508Y0219198D01*
X0359395Y0217599D02*
X0360107Y0217599D01*
X0360994Y0216001D02*
X0361705Y0216001D01*
X0362592Y0214402D02*
X0363818Y0214402D01*
X0339243Y0198417D02*
X0264200Y0198417D01*
X0264200Y0200015D02*
X0337645Y0200015D01*
X0337600Y0201614D02*
X0264200Y0201614D01*
X0264200Y0203212D02*
X0337600Y0203212D01*
X0296569Y0243175D02*
X0387000Y0243175D01*
X0387000Y0241577D02*
X0294971Y0241577D01*
X0293372Y0239978D02*
X0387000Y0239978D01*
X0387000Y0238380D02*
X0291774Y0238380D01*
X0298168Y0244774D02*
X0387000Y0244774D01*
X0387000Y0246372D02*
X0299766Y0246372D01*
X0301365Y0247971D02*
X0387000Y0247971D01*
X0387000Y0249569D02*
X0302963Y0249569D01*
X0304562Y0251168D02*
X0387000Y0251168D01*
X0387000Y0252766D02*
X0306160Y0252766D01*
X0307759Y0254365D02*
X0387000Y0254365D01*
X0387000Y0255963D02*
X0309357Y0255963D01*
X0310956Y0257562D02*
X0387000Y0257562D01*
X0387000Y0259160D02*
X0312554Y0259160D01*
X0314153Y0260759D02*
X0387000Y0260759D01*
X0387000Y0262357D02*
X0315751Y0262357D01*
X0317350Y0263956D02*
X0387000Y0263956D01*
X0387000Y0265554D02*
X0318948Y0265554D01*
X0320547Y0267153D02*
X0387000Y0267153D01*
X0387000Y0268751D02*
X0322145Y0268751D01*
X0323744Y0270350D02*
X0387000Y0270350D01*
X0387000Y0271948D02*
X0325343Y0271948D01*
X0326941Y0273547D02*
X0387000Y0273547D01*
X0387000Y0275145D02*
X0328540Y0275145D01*
X0330138Y0276744D02*
X0387000Y0276744D01*
X0387000Y0278342D02*
X0331737Y0278342D01*
X0333335Y0279941D02*
X0387000Y0279941D01*
X0387000Y0281539D02*
X0334934Y0281539D01*
X0336532Y0283138D02*
X0387000Y0283138D01*
X0387000Y0284737D02*
X0338131Y0284737D01*
X0339729Y0286335D02*
X0387000Y0286335D01*
X0387000Y0287934D02*
X0341328Y0287934D01*
X0342926Y0289532D02*
X0387000Y0289532D01*
X0387000Y0291131D02*
X0344120Y0291131D01*
X0344200Y0292729D02*
X0387000Y0292729D01*
X0387000Y0294328D02*
X0344200Y0294328D01*
X0344200Y0295926D02*
X0387000Y0295926D01*
X0387000Y0297525D02*
X0344200Y0297525D01*
X0344200Y0299123D02*
X0387000Y0299123D01*
X0387000Y0300722D02*
X0344200Y0300722D01*
X0344200Y0302320D02*
X0387000Y0302320D01*
X0387000Y0303919D02*
X0344200Y0303919D01*
X0344200Y0305517D02*
X0387000Y0305517D01*
X0387000Y0307116D02*
X0344200Y0307116D01*
X0344200Y0308714D02*
X0387000Y0308714D01*
X0387000Y0310313D02*
X0344200Y0310313D01*
X0344200Y0311911D02*
X0387000Y0311911D01*
X0387000Y0313510D02*
X0344200Y0313510D01*
X0344200Y0315108D02*
X0387000Y0315108D01*
X0387000Y0316707D02*
X0344200Y0316707D01*
X0344200Y0318305D02*
X0387000Y0318305D01*
X0387000Y0319904D02*
X0344200Y0319904D01*
X0344200Y0321502D02*
X0387000Y0321502D01*
X0387000Y0323101D02*
X0344200Y0323101D01*
X0344200Y0324699D02*
X0387000Y0324699D01*
X0387000Y0326298D02*
X0354637Y0326298D01*
X0355161Y0326821D02*
X0355800Y0328365D01*
X0355800Y0335235D01*
X0355161Y0336779D01*
X0353979Y0337961D01*
X0352435Y0338600D01*
X0350765Y0338600D01*
X0349221Y0337961D01*
X0348039Y0336779D01*
X0347400Y0335235D01*
X0347400Y0328365D01*
X0348039Y0326821D01*
X0349221Y0325639D01*
X0350765Y0325000D01*
X0352435Y0325000D01*
X0353979Y0325639D01*
X0355161Y0326821D01*
X0355606Y0327896D02*
X0387000Y0327896D01*
X0387000Y0329495D02*
X0355800Y0329495D01*
X0355800Y0331093D02*
X0387000Y0331093D01*
X0387000Y0332692D02*
X0355800Y0332692D01*
X0355800Y0334290D02*
X0387000Y0334290D01*
X0387000Y0335889D02*
X0355529Y0335889D01*
X0354452Y0337487D02*
X0387000Y0337487D01*
X0387000Y0355071D02*
X0212069Y0355071D01*
X0210235Y0346000D02*
X0203365Y0346000D01*
X0201821Y0345361D01*
X0200660Y0344200D01*
X0200340Y0344200D01*
X0198540Y0346000D01*
X0195060Y0346000D01*
X0192600Y0343540D01*
X0192600Y0340060D01*
X0195060Y0337600D01*
X0198540Y0337600D01*
X0200340Y0339400D01*
X0200660Y0339400D01*
X0201821Y0338239D01*
X0203365Y0337600D01*
X0210235Y0337600D01*
X0211779Y0338239D01*
X0212961Y0339421D01*
X0213600Y0340965D01*
X0213600Y0342635D01*
X0212961Y0344179D01*
X0211779Y0345361D01*
X0210235Y0346000D01*
X0213084Y0343881D02*
X0236324Y0343881D01*
X0237923Y0342283D02*
X0213600Y0342283D01*
X0213484Y0340684D02*
X0239377Y0340684D01*
X0239345Y0339086D02*
X0212626Y0339086D01*
X0206800Y0341800D02*
X0196800Y0341800D01*
X0200026Y0339086D02*
X0200974Y0339086D01*
X0202109Y0345480D02*
X0199060Y0345480D01*
X0201383Y0348677D02*
X0172217Y0348677D01*
X0171491Y0345480D02*
X0194540Y0345480D01*
X0192942Y0343881D02*
X0173084Y0343881D01*
X0173600Y0342283D02*
X0192600Y0342283D01*
X0192600Y0340684D02*
X0173484Y0340684D01*
X0172626Y0339086D02*
X0193574Y0339086D01*
X0201531Y0355071D02*
X0172069Y0355071D01*
X0161531Y0355071D02*
X0122069Y0355071D01*
X0111531Y0355071D02*
X0072069Y0355071D01*
X0061531Y0355071D02*
X0044411Y0355071D01*
X0044652Y0356670D02*
X0387000Y0356670D01*
X0387000Y0358268D02*
X0044707Y0358268D01*
X0044466Y0359867D02*
X0387000Y0359867D01*
X0387000Y0361465D02*
X0044225Y0361465D01*
X0043831Y0363064D02*
X0387000Y0363064D01*
X0387000Y0364662D02*
X0043061Y0364662D01*
X0042292Y0366261D02*
X0387000Y0366261D01*
X0387000Y0367859D02*
X0041189Y0367859D01*
X0039706Y0369458D02*
X0387000Y0369458D01*
X0387000Y0371056D02*
X0038005Y0371056D01*
X0035236Y0372655D02*
X0387000Y0372655D01*
X0387000Y0374253D02*
X0029912Y0374253D01*
X0027255Y0374253D02*
X0006600Y0374253D01*
X0006600Y0372655D02*
X0020760Y0372655D01*
X0018167Y0371056D02*
X0006600Y0371056D01*
X0006600Y0369458D02*
X0016162Y0369458D01*
X0014854Y0367859D02*
X0006600Y0367859D01*
X0006600Y0366261D02*
X0013765Y0366261D01*
X0012778Y0364662D02*
X0006600Y0364662D01*
X0006600Y0363064D02*
X0012285Y0363064D01*
X0011792Y0361465D02*
X0006600Y0361465D01*
X0006600Y0359867D02*
X0011388Y0359867D01*
X0011388Y0358268D02*
X0006600Y0358268D01*
X0006600Y0356670D02*
X0011388Y0356670D01*
X0011411Y0355071D02*
X0006600Y0355071D01*
X0006600Y0353472D02*
X0011904Y0353472D01*
X0012397Y0351874D02*
X0006600Y0351874D01*
X0006600Y0350275D02*
X0012922Y0350275D01*
X0014012Y0348677D02*
X0006600Y0348677D01*
X0006600Y0347078D02*
X0015102Y0347078D01*
X0016617Y0345480D02*
X0006600Y0345480D01*
X0006600Y0343881D02*
X0018621Y0343881D01*
X0021684Y0342283D02*
X0006600Y0342283D01*
X0006600Y0375852D02*
X0387000Y0375852D01*
X0387000Y0377000D02*
X0387000Y0006600D01*
X0006600Y0006600D01*
X0006600Y0377000D01*
X0387000Y0377000D01*
X0348748Y0337487D02*
X0344452Y0337487D01*
X0345529Y0335889D02*
X0347671Y0335889D01*
X0347400Y0334290D02*
X0345800Y0334290D01*
X0345800Y0332692D02*
X0347400Y0332692D01*
X0347400Y0331093D02*
X0345800Y0331093D01*
X0345800Y0329495D02*
X0347400Y0329495D01*
X0347594Y0327896D02*
X0345606Y0327896D01*
X0344637Y0326298D02*
X0348562Y0326298D01*
X0341800Y0327000D02*
X0341600Y0331800D01*
X0337400Y0332692D02*
X0335800Y0332692D01*
X0335800Y0334290D02*
X0337400Y0334290D01*
X0337671Y0335889D02*
X0335529Y0335889D01*
X0334452Y0337487D02*
X0338748Y0337487D01*
X0341800Y0327000D02*
X0341800Y0291800D01*
X0261800Y0211800D01*
X0261800Y0198600D01*
X0257000Y0193800D01*
X0248400Y0193800D01*
X0248400Y0183800D01*
X0251373Y0180833D02*
X0275427Y0180833D01*
X0274421Y0182432D02*
X0252379Y0182432D01*
X0252600Y0184030D02*
X0274200Y0184030D01*
X0274611Y0185629D02*
X0252189Y0185629D01*
X0250912Y0187227D02*
X0275888Y0187227D01*
X0276686Y0177636D02*
X0250114Y0177636D01*
X0252019Y0176038D02*
X0274781Y0176038D01*
X0274200Y0174439D02*
X0252600Y0174439D01*
X0252549Y0172841D02*
X0274251Y0172841D01*
X0275018Y0171242D02*
X0251782Y0171242D01*
X0245018Y0171242D02*
X0204200Y0171242D01*
X0204200Y0169644D02*
X0218704Y0169644D01*
X0217600Y0168045D02*
X0204200Y0168045D01*
X0204200Y0166447D02*
X0217600Y0166447D01*
X0217812Y0164848D02*
X0204200Y0164848D01*
X0204200Y0163250D02*
X0219400Y0163250D01*
X0219400Y0161651D02*
X0204200Y0161651D01*
X0204200Y0160053D02*
X0219400Y0160053D01*
X0219400Y0158454D02*
X0204200Y0158454D01*
X0204200Y0156856D02*
X0219400Y0156856D01*
X0219400Y0155257D02*
X0203651Y0155257D01*
X0202053Y0153659D02*
X0219400Y0153659D01*
X0219400Y0152060D02*
X0200454Y0152060D01*
X0198856Y0150462D02*
X0219400Y0150462D01*
X0217923Y0148863D02*
X0197257Y0148863D01*
X0196000Y0147265D02*
X0217600Y0147265D01*
X0217600Y0145666D02*
X0196000Y0145666D01*
X0195007Y0144068D02*
X0218593Y0144068D01*
X0201800Y0156800D02*
X0191800Y0146800D01*
X0188593Y0144068D02*
X0152927Y0144068D01*
X0151328Y0145666D02*
X0187600Y0145666D01*
X0187600Y0147265D02*
X0149730Y0147265D01*
X0148131Y0148863D02*
X0187923Y0148863D01*
X0189522Y0150462D02*
X0146533Y0150462D01*
X0144934Y0152060D02*
X0193666Y0152060D01*
X0195264Y0153659D02*
X0184598Y0153659D01*
X0183540Y0152600D02*
X0180060Y0152600D01*
X0177600Y0155060D01*
X0177600Y0158540D01*
X0180060Y0161000D01*
X0183540Y0161000D01*
X0186000Y0158540D01*
X0186000Y0155060D01*
X0183540Y0152600D01*
X0186000Y0155257D02*
X0196863Y0155257D01*
X0198462Y0156856D02*
X0186000Y0156856D01*
X0186000Y0158454D02*
X0199400Y0158454D01*
X0199400Y0160053D02*
X0184487Y0160053D01*
X0179113Y0160053D02*
X0154487Y0160053D01*
X0156000Y0158454D02*
X0177600Y0158454D01*
X0177600Y0156856D02*
X0156000Y0156856D01*
X0156000Y0155257D02*
X0177600Y0155257D01*
X0179002Y0153659D02*
X0154598Y0153659D01*
X0151800Y0156800D02*
X0141800Y0166800D01*
X0141800Y0184200D01*
X0189400Y0231800D01*
X0261800Y0231800D01*
X0261789Y0235183D02*
X0178577Y0235183D01*
X0180175Y0236781D02*
X0263387Y0236781D01*
X0264986Y0238380D02*
X0181774Y0238380D01*
X0181800Y0241800D02*
X0261800Y0241800D01*
X0311800Y0291800D01*
X0311800Y0327000D01*
X0311600Y0331800D01*
X0315800Y0331093D02*
X0317400Y0331093D01*
X0317400Y0329495D02*
X0315800Y0329495D01*
X0315606Y0327896D02*
X0317594Y0327896D01*
X0317400Y0328365D02*
X0318039Y0326821D01*
X0319221Y0325639D01*
X0320765Y0325000D01*
X0322435Y0325000D01*
X0323979Y0325639D01*
X0325161Y0326821D01*
X0325800Y0328365D01*
X0325800Y0335235D01*
X0325161Y0336779D01*
X0323979Y0337961D01*
X0322435Y0338600D01*
X0320765Y0338600D01*
X0319221Y0337961D01*
X0318039Y0336779D01*
X0317400Y0335235D01*
X0317400Y0328365D01*
X0318563Y0326298D02*
X0314637Y0326298D01*
X0314200Y0324699D02*
X0329400Y0324699D01*
X0329400Y0323101D02*
X0314200Y0323101D01*
X0314200Y0321502D02*
X0329400Y0321502D01*
X0329400Y0319904D02*
X0314200Y0319904D01*
X0314200Y0318305D02*
X0329400Y0318305D01*
X0329400Y0316707D02*
X0314200Y0316707D01*
X0314200Y0315108D02*
X0329400Y0315108D01*
X0329400Y0313510D02*
X0314200Y0313510D01*
X0314200Y0311911D02*
X0329400Y0311911D01*
X0329400Y0310313D02*
X0314200Y0310313D01*
X0314200Y0308714D02*
X0329400Y0308714D01*
X0329400Y0307116D02*
X0314200Y0307116D01*
X0314200Y0305517D02*
X0329400Y0305517D01*
X0329400Y0303919D02*
X0314200Y0303919D01*
X0314200Y0302320D02*
X0328926Y0302320D01*
X0327328Y0300722D02*
X0314200Y0300722D01*
X0314200Y0299123D02*
X0325729Y0299123D01*
X0324130Y0297525D02*
X0314200Y0297525D01*
X0314200Y0295926D02*
X0322532Y0295926D01*
X0320933Y0294328D02*
X0314200Y0294328D01*
X0314200Y0292729D02*
X0319335Y0292729D01*
X0317736Y0291131D02*
X0314120Y0291131D01*
X0312926Y0289532D02*
X0316138Y0289532D01*
X0314539Y0287934D02*
X0311328Y0287934D01*
X0309729Y0286335D02*
X0312941Y0286335D01*
X0311342Y0284737D02*
X0308131Y0284737D01*
X0306532Y0283138D02*
X0309744Y0283138D01*
X0308145Y0281539D02*
X0304934Y0281539D01*
X0303335Y0279941D02*
X0306547Y0279941D01*
X0304948Y0278342D02*
X0301737Y0278342D01*
X0300138Y0276744D02*
X0303350Y0276744D01*
X0301751Y0275145D02*
X0298540Y0275145D01*
X0296941Y0273547D02*
X0300153Y0273547D01*
X0298554Y0271948D02*
X0295343Y0271948D01*
X0293744Y0270350D02*
X0296956Y0270350D01*
X0295357Y0268751D02*
X0292145Y0268751D01*
X0290547Y0267153D02*
X0293759Y0267153D01*
X0292160Y0265554D02*
X0288948Y0265554D01*
X0287350Y0263956D02*
X0290562Y0263956D01*
X0288963Y0262357D02*
X0285751Y0262357D01*
X0284153Y0260759D02*
X0287365Y0260759D01*
X0285766Y0259160D02*
X0282554Y0259160D01*
X0280956Y0257562D02*
X0284168Y0257562D01*
X0282569Y0255963D02*
X0279357Y0255963D01*
X0277759Y0254365D02*
X0280971Y0254365D01*
X0279372Y0252766D02*
X0276160Y0252766D01*
X0274562Y0251168D02*
X0277774Y0251168D01*
X0276175Y0249569D02*
X0272963Y0249569D01*
X0271365Y0247971D02*
X0274577Y0247971D01*
X0272978Y0246372D02*
X0269766Y0246372D01*
X0268168Y0244774D02*
X0271380Y0244774D01*
X0269781Y0243175D02*
X0266569Y0243175D01*
X0264971Y0241577D02*
X0268183Y0241577D01*
X0266584Y0239978D02*
X0263372Y0239978D01*
X0261380Y0244774D02*
X0044200Y0244774D01*
X0044200Y0246372D02*
X0262978Y0246372D01*
X0264577Y0247971D02*
X0044200Y0247971D01*
X0044200Y0249569D02*
X0195914Y0249569D01*
X0196323Y0249400D02*
X0262277Y0249400D01*
X0263159Y0249765D01*
X0303159Y0289765D01*
X0303835Y0290441D01*
X0304200Y0291323D01*
X0304200Y0325860D01*
X0305161Y0326821D01*
X0305800Y0328365D01*
X0305800Y0335235D01*
X0305161Y0336779D01*
X0303979Y0337961D01*
X0302435Y0338600D01*
X0300765Y0338600D01*
X0299221Y0337961D01*
X0298039Y0336779D01*
X0297400Y0335235D01*
X0297400Y0328365D01*
X0298039Y0326821D01*
X0299221Y0325639D01*
X0299400Y0325565D01*
X0299400Y0292794D01*
X0260806Y0254200D01*
X0197794Y0254200D01*
X0191000Y0260994D01*
X0191000Y0263540D01*
X0188540Y0266000D01*
X0185060Y0266000D01*
X0182600Y0263540D01*
X0182600Y0260060D01*
X0185060Y0257600D01*
X0187606Y0257600D01*
X0195441Y0249765D01*
X0196323Y0249400D01*
X0196800Y0251800D02*
X0186800Y0261800D01*
X0183500Y0259160D02*
X0135100Y0259160D01*
X0136000Y0260060D02*
X0136000Y0262606D01*
X0142794Y0269400D01*
X0262277Y0269400D01*
X0263159Y0269765D01*
X0283159Y0289765D01*
X0283835Y0290441D01*
X0284200Y0291323D01*
X0284200Y0325860D01*
X0285161Y0326821D01*
X0285800Y0328365D01*
X0285800Y0335235D01*
X0285161Y0336779D01*
X0283979Y0337961D01*
X0282435Y0338600D01*
X0280765Y0338600D01*
X0279221Y0337961D01*
X0278039Y0336779D01*
X0277400Y0335235D01*
X0277400Y0328365D01*
X0278039Y0326821D01*
X0279221Y0325639D01*
X0279400Y0325565D01*
X0279400Y0292794D01*
X0260806Y0274200D01*
X0142277Y0274200D01*
X0141323Y0274200D01*
X0140441Y0273835D01*
X0132606Y0266000D01*
X0130060Y0266000D01*
X0127600Y0263540D01*
X0127600Y0260060D01*
X0130060Y0257600D01*
X0133540Y0257600D01*
X0136000Y0260060D01*
X0136000Y0260759D02*
X0182600Y0260759D01*
X0182600Y0262357D02*
X0136000Y0262357D01*
X0137350Y0263956D02*
X0183016Y0263956D01*
X0184615Y0265554D02*
X0138948Y0265554D01*
X0140547Y0267153D02*
X0263759Y0267153D01*
X0265357Y0268751D02*
X0142145Y0268751D01*
X0141800Y0271800D02*
X0131800Y0261800D01*
X0128500Y0259160D02*
X0090100Y0259160D01*
X0091000Y0260060D02*
X0088540Y0257600D01*
X0085060Y0257600D01*
X0082600Y0260060D01*
X0082600Y0263540D01*
X0085060Y0266000D01*
X0087606Y0266000D01*
X0105441Y0283835D01*
X0106323Y0284200D01*
X0107277Y0284200D01*
X0260806Y0284200D01*
X0269400Y0292794D01*
X0269400Y0325565D01*
X0269221Y0325639D01*
X0268039Y0326821D01*
X0267400Y0328365D01*
X0267400Y0335235D01*
X0268039Y0336779D01*
X0269221Y0337961D01*
X0270765Y0338600D01*
X0272435Y0338600D01*
X0273979Y0337961D01*
X0275161Y0336779D01*
X0275800Y0335235D01*
X0275800Y0328365D01*
X0275161Y0326821D01*
X0274200Y0325860D01*
X0274200Y0291323D01*
X0273835Y0290441D01*
X0273159Y0289765D01*
X0263159Y0279765D01*
X0262277Y0279400D01*
X0107794Y0279400D01*
X0091000Y0262606D01*
X0091000Y0260060D01*
X0091000Y0260759D02*
X0127600Y0260759D01*
X0127600Y0262357D02*
X0091000Y0262357D01*
X0092350Y0263956D02*
X0128016Y0263956D01*
X0129615Y0265554D02*
X0093948Y0265554D01*
X0095547Y0267153D02*
X0133759Y0267153D01*
X0135357Y0268751D02*
X0097145Y0268751D01*
X0098744Y0270350D02*
X0136956Y0270350D01*
X0138554Y0271948D02*
X0100343Y0271948D01*
X0101941Y0273547D02*
X0140153Y0273547D01*
X0141800Y0271800D02*
X0261800Y0271800D01*
X0281800Y0291800D01*
X0281800Y0327000D01*
X0281600Y0331800D01*
X0285800Y0331093D02*
X0287400Y0331093D01*
X0287400Y0329495D02*
X0285800Y0329495D01*
X0285606Y0327896D02*
X0287594Y0327896D01*
X0287400Y0328365D02*
X0288039Y0326821D01*
X0289221Y0325639D01*
X0289400Y0325565D01*
X0289400Y0292794D01*
X0260806Y0264200D01*
X0225340Y0264200D01*
X0223540Y0266000D01*
X0220060Y0266000D01*
X0217600Y0263540D01*
X0217600Y0260060D01*
X0220060Y0257600D01*
X0223540Y0257600D01*
X0225340Y0259400D01*
X0262277Y0259400D01*
X0263159Y0259765D01*
X0293159Y0289765D01*
X0293835Y0290441D01*
X0294200Y0291323D01*
X0294200Y0325860D01*
X0295161Y0326821D01*
X0295800Y0328365D01*
X0295800Y0335235D01*
X0295161Y0336779D01*
X0293979Y0337961D01*
X0292435Y0338600D01*
X0290765Y0338600D01*
X0289221Y0337961D01*
X0288039Y0336779D01*
X0287400Y0335235D01*
X0287400Y0328365D01*
X0288563Y0326298D02*
X0284637Y0326298D01*
X0284200Y0324699D02*
X0289400Y0324699D01*
X0289400Y0323101D02*
X0284200Y0323101D01*
X0284200Y0321502D02*
X0289400Y0321502D01*
X0289400Y0319904D02*
X0284200Y0319904D01*
X0284200Y0318305D02*
X0289400Y0318305D01*
X0289400Y0316707D02*
X0284200Y0316707D01*
X0284200Y0315108D02*
X0289400Y0315108D01*
X0289400Y0313510D02*
X0284200Y0313510D01*
X0284200Y0311911D02*
X0289400Y0311911D01*
X0289400Y0310313D02*
X0284200Y0310313D01*
X0284200Y0308714D02*
X0289400Y0308714D01*
X0289400Y0307116D02*
X0284200Y0307116D01*
X0284200Y0305517D02*
X0289400Y0305517D01*
X0289400Y0303919D02*
X0284200Y0303919D01*
X0284200Y0302320D02*
X0289400Y0302320D01*
X0289400Y0300722D02*
X0284200Y0300722D01*
X0284200Y0299123D02*
X0289400Y0299123D01*
X0289400Y0297525D02*
X0284200Y0297525D01*
X0284200Y0295926D02*
X0289400Y0295926D01*
X0289400Y0294328D02*
X0284200Y0294328D01*
X0284200Y0292729D02*
X0289335Y0292729D01*
X0287736Y0291131D02*
X0284120Y0291131D01*
X0282926Y0289532D02*
X0286138Y0289532D01*
X0284539Y0287934D02*
X0281328Y0287934D01*
X0279729Y0286335D02*
X0282941Y0286335D01*
X0281342Y0284737D02*
X0278131Y0284737D01*
X0276532Y0283138D02*
X0279744Y0283138D01*
X0278145Y0281539D02*
X0274934Y0281539D01*
X0273335Y0279941D02*
X0276547Y0279941D01*
X0274948Y0278342D02*
X0271737Y0278342D01*
X0270138Y0276744D02*
X0273350Y0276744D01*
X0271751Y0275145D02*
X0268540Y0275145D01*
X0266941Y0273547D02*
X0270153Y0273547D01*
X0268554Y0271948D02*
X0265343Y0271948D01*
X0263744Y0270350D02*
X0266956Y0270350D01*
X0270547Y0267153D02*
X0273759Y0267153D01*
X0275357Y0268751D02*
X0272145Y0268751D01*
X0273744Y0270350D02*
X0276956Y0270350D01*
X0278554Y0271948D02*
X0275343Y0271948D01*
X0276941Y0273547D02*
X0280153Y0273547D01*
X0281751Y0275145D02*
X0278540Y0275145D01*
X0280138Y0276744D02*
X0283350Y0276744D01*
X0284948Y0278342D02*
X0281737Y0278342D01*
X0283335Y0279941D02*
X0286547Y0279941D01*
X0288145Y0281539D02*
X0284934Y0281539D01*
X0286532Y0283138D02*
X0289744Y0283138D01*
X0291342Y0284737D02*
X0288131Y0284737D01*
X0289729Y0286335D02*
X0292941Y0286335D01*
X0294539Y0287934D02*
X0291328Y0287934D01*
X0292926Y0289532D02*
X0296138Y0289532D01*
X0297736Y0291131D02*
X0294120Y0291131D01*
X0294200Y0292729D02*
X0299335Y0292729D01*
X0299400Y0294328D02*
X0294200Y0294328D01*
X0294200Y0295926D02*
X0299400Y0295926D01*
X0299400Y0297525D02*
X0294200Y0297525D01*
X0294200Y0299123D02*
X0299400Y0299123D01*
X0299400Y0300722D02*
X0294200Y0300722D01*
X0294200Y0302320D02*
X0299400Y0302320D01*
X0299400Y0303919D02*
X0294200Y0303919D01*
X0294200Y0305517D02*
X0299400Y0305517D01*
X0299400Y0307116D02*
X0294200Y0307116D01*
X0294200Y0308714D02*
X0299400Y0308714D01*
X0299400Y0310313D02*
X0294200Y0310313D01*
X0294200Y0311911D02*
X0299400Y0311911D01*
X0299400Y0313510D02*
X0294200Y0313510D01*
X0294200Y0315108D02*
X0299400Y0315108D01*
X0299400Y0316707D02*
X0294200Y0316707D01*
X0294200Y0318305D02*
X0299400Y0318305D01*
X0299400Y0319904D02*
X0294200Y0319904D01*
X0294200Y0321502D02*
X0299400Y0321502D01*
X0299400Y0323101D02*
X0294200Y0323101D01*
X0294200Y0324699D02*
X0299400Y0324699D01*
X0298563Y0326298D02*
X0294637Y0326298D01*
X0295606Y0327896D02*
X0297594Y0327896D01*
X0297400Y0329495D02*
X0295800Y0329495D01*
X0295800Y0331093D02*
X0297400Y0331093D01*
X0297400Y0332692D02*
X0295800Y0332692D01*
X0295800Y0334290D02*
X0297400Y0334290D01*
X0297671Y0335889D02*
X0295529Y0335889D01*
X0294452Y0337487D02*
X0298748Y0337487D01*
X0301600Y0331800D02*
X0301800Y0327000D01*
X0301800Y0291800D01*
X0261800Y0251800D01*
X0196800Y0251800D01*
X0197629Y0254365D02*
X0260971Y0254365D01*
X0262569Y0255963D02*
X0196031Y0255963D01*
X0194432Y0257562D02*
X0264168Y0257562D01*
X0265766Y0259160D02*
X0225100Y0259160D01*
X0221800Y0261800D02*
X0261800Y0261800D01*
X0291800Y0291800D01*
X0291800Y0327000D01*
X0291600Y0331800D01*
X0287400Y0332692D02*
X0285800Y0332692D01*
X0285800Y0334290D02*
X0287400Y0334290D01*
X0287671Y0335889D02*
X0285529Y0335889D01*
X0284452Y0337487D02*
X0288748Y0337487D01*
X0278748Y0337487D02*
X0274452Y0337487D01*
X0275529Y0335889D02*
X0277671Y0335889D01*
X0277400Y0334290D02*
X0275800Y0334290D01*
X0275800Y0332692D02*
X0277400Y0332692D01*
X0277400Y0331093D02*
X0275800Y0331093D01*
X0275800Y0329495D02*
X0277400Y0329495D01*
X0277594Y0327896D02*
X0275606Y0327896D01*
X0274637Y0326298D02*
X0278563Y0326298D01*
X0279400Y0324699D02*
X0274200Y0324699D01*
X0274200Y0323101D02*
X0279400Y0323101D01*
X0279400Y0321502D02*
X0274200Y0321502D01*
X0274200Y0319904D02*
X0279400Y0319904D01*
X0279400Y0318305D02*
X0274200Y0318305D01*
X0274200Y0316707D02*
X0279400Y0316707D01*
X0279400Y0315108D02*
X0274200Y0315108D01*
X0274200Y0313510D02*
X0279400Y0313510D01*
X0279400Y0311911D02*
X0274200Y0311911D01*
X0274200Y0310313D02*
X0279400Y0310313D01*
X0279400Y0308714D02*
X0274200Y0308714D01*
X0274200Y0307116D02*
X0279400Y0307116D01*
X0279400Y0305517D02*
X0274200Y0305517D01*
X0274200Y0303919D02*
X0279400Y0303919D01*
X0279400Y0302320D02*
X0274200Y0302320D01*
X0274200Y0300722D02*
X0279400Y0300722D01*
X0279400Y0299123D02*
X0274200Y0299123D01*
X0274200Y0297525D02*
X0279400Y0297525D01*
X0279400Y0295926D02*
X0274200Y0295926D01*
X0274200Y0294328D02*
X0279400Y0294328D01*
X0279335Y0292729D02*
X0274200Y0292729D01*
X0274120Y0291131D02*
X0277736Y0291131D01*
X0276138Y0289532D02*
X0272926Y0289532D01*
X0271328Y0287934D02*
X0274539Y0287934D01*
X0272941Y0286335D02*
X0269729Y0286335D01*
X0268131Y0284737D02*
X0271342Y0284737D01*
X0269744Y0283138D02*
X0266532Y0283138D01*
X0264934Y0281539D02*
X0268145Y0281539D01*
X0266547Y0279941D02*
X0263335Y0279941D01*
X0264948Y0278342D02*
X0106737Y0278342D01*
X0105138Y0276744D02*
X0263350Y0276744D01*
X0261751Y0275145D02*
X0103540Y0275145D01*
X0099948Y0278342D02*
X0044200Y0278342D01*
X0044200Y0276744D02*
X0098350Y0276744D01*
X0096751Y0275145D02*
X0044200Y0275145D01*
X0044200Y0273547D02*
X0095153Y0273547D01*
X0093554Y0271948D02*
X0044200Y0271948D01*
X0044200Y0270350D02*
X0091956Y0270350D01*
X0090357Y0268751D02*
X0044200Y0268751D01*
X0044200Y0267153D02*
X0088759Y0267153D01*
X0084615Y0265554D02*
X0044200Y0265554D01*
X0044200Y0263956D02*
X0083016Y0263956D01*
X0082600Y0262357D02*
X0044200Y0262357D01*
X0044200Y0260759D02*
X0082600Y0260759D01*
X0083500Y0259160D02*
X0044200Y0259160D01*
X0044200Y0257562D02*
X0187644Y0257562D01*
X0189243Y0255963D02*
X0044200Y0255963D01*
X0044200Y0254365D02*
X0190841Y0254365D01*
X0192440Y0252766D02*
X0044200Y0252766D01*
X0044200Y0251168D02*
X0194038Y0251168D01*
X0192834Y0259160D02*
X0218500Y0259160D01*
X0217600Y0260759D02*
X0191235Y0260759D01*
X0191000Y0262357D02*
X0217600Y0262357D01*
X0218016Y0263956D02*
X0190584Y0263956D01*
X0188985Y0265554D02*
X0219615Y0265554D01*
X0223985Y0265554D02*
X0262160Y0265554D01*
X0265751Y0262357D02*
X0268963Y0262357D01*
X0267365Y0260759D02*
X0264153Y0260759D01*
X0267350Y0263956D02*
X0270562Y0263956D01*
X0272160Y0265554D02*
X0268948Y0265554D01*
X0274153Y0260759D02*
X0277365Y0260759D01*
X0278963Y0262357D02*
X0275751Y0262357D01*
X0277350Y0263956D02*
X0280562Y0263956D01*
X0282160Y0265554D02*
X0278948Y0265554D01*
X0280547Y0267153D02*
X0283759Y0267153D01*
X0285357Y0268751D02*
X0282145Y0268751D01*
X0283744Y0270350D02*
X0286956Y0270350D01*
X0288554Y0271948D02*
X0285343Y0271948D01*
X0286941Y0273547D02*
X0290153Y0273547D01*
X0291751Y0275145D02*
X0288540Y0275145D01*
X0290138Y0276744D02*
X0293350Y0276744D01*
X0294948Y0278342D02*
X0291737Y0278342D01*
X0293335Y0279941D02*
X0296547Y0279941D01*
X0298145Y0281539D02*
X0294934Y0281539D01*
X0296532Y0283138D02*
X0299744Y0283138D01*
X0301342Y0284737D02*
X0298131Y0284737D01*
X0299729Y0286335D02*
X0302941Y0286335D01*
X0304539Y0287934D02*
X0301328Y0287934D01*
X0302926Y0289532D02*
X0306138Y0289532D01*
X0307736Y0291131D02*
X0304120Y0291131D01*
X0304200Y0292729D02*
X0309335Y0292729D01*
X0309400Y0294328D02*
X0304200Y0294328D01*
X0304200Y0295926D02*
X0309400Y0295926D01*
X0309400Y0297525D02*
X0304200Y0297525D01*
X0304200Y0299123D02*
X0309400Y0299123D01*
X0309400Y0300722D02*
X0304200Y0300722D01*
X0304200Y0302320D02*
X0309400Y0302320D01*
X0309400Y0303919D02*
X0304200Y0303919D01*
X0304200Y0305517D02*
X0309400Y0305517D01*
X0309400Y0307116D02*
X0304200Y0307116D01*
X0304200Y0308714D02*
X0309400Y0308714D01*
X0309400Y0310313D02*
X0304200Y0310313D01*
X0304200Y0311911D02*
X0309400Y0311911D01*
X0309400Y0313510D02*
X0304200Y0313510D01*
X0304200Y0315108D02*
X0309400Y0315108D01*
X0309400Y0316707D02*
X0304200Y0316707D01*
X0304200Y0318305D02*
X0309400Y0318305D01*
X0309400Y0319904D02*
X0304200Y0319904D01*
X0304200Y0321502D02*
X0309400Y0321502D01*
X0309400Y0323101D02*
X0304200Y0323101D01*
X0304200Y0324699D02*
X0309400Y0324699D01*
X0308563Y0326298D02*
X0304637Y0326298D01*
X0305606Y0327896D02*
X0307594Y0327896D01*
X0307400Y0329495D02*
X0305800Y0329495D01*
X0305800Y0331093D02*
X0307400Y0331093D01*
X0307400Y0332692D02*
X0305800Y0332692D01*
X0305800Y0334290D02*
X0307400Y0334290D01*
X0307671Y0335889D02*
X0305529Y0335889D01*
X0304452Y0337487D02*
X0308748Y0337487D01*
X0314452Y0337487D02*
X0318748Y0337487D01*
X0317671Y0335889D02*
X0315529Y0335889D01*
X0315800Y0334290D02*
X0317400Y0334290D01*
X0317400Y0332692D02*
X0315800Y0332692D01*
X0324452Y0337487D02*
X0328748Y0337487D01*
X0327671Y0335889D02*
X0325529Y0335889D01*
X0325800Y0334290D02*
X0327400Y0334290D01*
X0327400Y0332692D02*
X0325800Y0332692D01*
X0325800Y0331093D02*
X0327400Y0331093D01*
X0327400Y0329495D02*
X0325800Y0329495D01*
X0325606Y0327896D02*
X0327594Y0327896D01*
X0328563Y0326298D02*
X0324637Y0326298D01*
X0271800Y0327000D02*
X0271800Y0291800D01*
X0261800Y0281800D01*
X0106800Y0281800D01*
X0086800Y0261800D01*
X0101547Y0279941D02*
X0044200Y0279941D01*
X0044200Y0281539D02*
X0103145Y0281539D01*
X0104744Y0283138D02*
X0044200Y0283138D01*
X0044200Y0284737D02*
X0261342Y0284737D01*
X0262941Y0286335D02*
X0044200Y0286335D01*
X0044200Y0287934D02*
X0067097Y0287934D01*
X0066894Y0288037D02*
X0067511Y0287722D01*
X0068170Y0287508D01*
X0068854Y0287400D01*
X0071800Y0287400D01*
X0074746Y0287400D01*
X0075430Y0287508D01*
X0076089Y0287722D01*
X0076706Y0288037D01*
X0077266Y0288444D01*
X0077756Y0288934D01*
X0078163Y0289494D01*
X0078478Y0290111D01*
X0078692Y0290770D01*
X0078800Y0291454D01*
X0078800Y0291800D01*
X0078800Y0292146D01*
X0078692Y0292830D01*
X0078478Y0293489D01*
X0078163Y0294106D01*
X0077756Y0294666D01*
X0077266Y0295156D01*
X0076706Y0295563D01*
X0076089Y0295878D01*
X0075430Y0296092D01*
X0074746Y0296200D01*
X0071800Y0296200D01*
X0071800Y0291800D01*
X0071800Y0291800D01*
X0078800Y0291800D01*
X0071800Y0291800D01*
X0071800Y0291800D01*
X0071800Y0296200D01*
X0068854Y0296200D01*
X0068170Y0296092D01*
X0067511Y0295878D01*
X0066894Y0295563D01*
X0066334Y0295156D01*
X0065844Y0294666D01*
X0065437Y0294106D01*
X0065122Y0293489D01*
X0064908Y0292830D01*
X0064800Y0292146D01*
X0064800Y0291800D01*
X0071800Y0291800D01*
X0071800Y0287400D01*
X0071800Y0291800D01*
X0071800Y0291800D01*
X0071800Y0291800D01*
X0064800Y0291800D01*
X0064800Y0291454D01*
X0064908Y0290770D01*
X0065122Y0290111D01*
X0065437Y0289494D01*
X0065844Y0288934D01*
X0066334Y0288444D01*
X0066894Y0288037D01*
X0065417Y0289532D02*
X0044200Y0289532D01*
X0044200Y0291131D02*
X0064851Y0291131D01*
X0064892Y0292729D02*
X0044200Y0292729D01*
X0044200Y0294328D02*
X0065598Y0294328D01*
X0067660Y0295926D02*
X0044200Y0295926D01*
X0044200Y0297525D02*
X0082681Y0297525D01*
X0081083Y0299123D02*
X0077663Y0299123D01*
X0077940Y0299400D02*
X0076779Y0298239D01*
X0075235Y0297600D01*
X0068365Y0297600D01*
X0066821Y0298239D01*
X0065639Y0299421D01*
X0065000Y0300965D01*
X0065000Y0302635D01*
X0065639Y0304179D01*
X0066821Y0305361D01*
X0068365Y0306000D01*
X0075235Y0306000D01*
X0076779Y0305361D01*
X0077940Y0304200D01*
X0082277Y0304200D01*
X0083159Y0303835D01*
X0088159Y0298835D01*
X0088835Y0298159D01*
X0089200Y0297277D01*
X0089200Y0295340D01*
X0091000Y0293540D01*
X0091000Y0290060D01*
X0088540Y0287600D01*
X0085060Y0287600D01*
X0082600Y0290060D01*
X0082600Y0293540D01*
X0084400Y0295340D01*
X0084400Y0295806D01*
X0080806Y0299400D01*
X0077940Y0299400D01*
X0075940Y0295926D02*
X0084280Y0295926D01*
X0083388Y0294328D02*
X0078002Y0294328D01*
X0078708Y0292729D02*
X0082600Y0292729D01*
X0082600Y0291131D02*
X0078749Y0291131D01*
X0078183Y0289532D02*
X0083128Y0289532D01*
X0084727Y0287934D02*
X0076503Y0287934D01*
X0071800Y0287934D02*
X0071800Y0287934D01*
X0071800Y0289532D02*
X0071800Y0289532D01*
X0071800Y0291131D02*
X0071800Y0291131D01*
X0071800Y0292729D02*
X0071800Y0292729D01*
X0071800Y0294328D02*
X0071800Y0294328D01*
X0071800Y0295926D02*
X0071800Y0295926D01*
X0071800Y0301800D02*
X0081800Y0301800D01*
X0086800Y0296800D01*
X0086800Y0291800D01*
X0090212Y0294328D02*
X0110598Y0294328D01*
X0110437Y0294106D02*
X0110122Y0293489D01*
X0109908Y0292830D01*
X0109800Y0292146D01*
X0109800Y0291800D01*
X0116800Y0291800D01*
X0116800Y0291800D01*
X0116800Y0296200D01*
X0119746Y0296200D01*
X0120430Y0296092D01*
X0121089Y0295878D01*
X0121706Y0295563D01*
X0122266Y0295156D01*
X0122756Y0294666D01*
X0123163Y0294106D01*
X0123478Y0293489D01*
X0123692Y0292830D01*
X0123800Y0292146D01*
X0123800Y0291800D01*
X0116800Y0291800D01*
X0116800Y0291800D01*
X0116800Y0296200D01*
X0113854Y0296200D01*
X0113170Y0296092D01*
X0112511Y0295878D01*
X0111894Y0295563D01*
X0111334Y0295156D01*
X0110844Y0294666D01*
X0110437Y0294106D01*
X0109892Y0292729D02*
X0091000Y0292729D01*
X0091000Y0291131D02*
X0109851Y0291131D01*
X0109800Y0291454D02*
X0109908Y0290770D01*
X0110122Y0290111D01*
X0110437Y0289494D01*
X0110844Y0288934D01*
X0111334Y0288444D01*
X0111894Y0288037D01*
X0112511Y0287722D01*
X0113170Y0287508D01*
X0113854Y0287400D01*
X0116800Y0287400D01*
X0119746Y0287400D01*
X0120430Y0287508D01*
X0121089Y0287722D01*
X0121706Y0288037D01*
X0122266Y0288444D01*
X0122756Y0288934D01*
X0123163Y0289494D01*
X0123478Y0290111D01*
X0123692Y0290770D01*
X0123800Y0291454D01*
X0123800Y0291800D01*
X0116800Y0291800D01*
X0116800Y0287400D01*
X0116800Y0291800D01*
X0116800Y0291800D01*
X0116800Y0291800D01*
X0109800Y0291800D01*
X0109800Y0291454D01*
X0110417Y0289532D02*
X0090472Y0289532D01*
X0088873Y0287934D02*
X0112097Y0287934D01*
X0116800Y0287934D02*
X0116800Y0287934D01*
X0116800Y0289532D02*
X0116800Y0289532D01*
X0116800Y0291131D02*
X0116800Y0291131D01*
X0116800Y0292729D02*
X0116800Y0292729D01*
X0116800Y0294328D02*
X0116800Y0294328D01*
X0116800Y0295926D02*
X0116800Y0295926D01*
X0113365Y0297600D02*
X0120235Y0297600D01*
X0121779Y0298239D01*
X0122940Y0299400D01*
X0125806Y0299400D01*
X0129400Y0295806D01*
X0129400Y0295340D01*
X0127600Y0293540D01*
X0127600Y0290060D01*
X0130060Y0287600D01*
X0133540Y0287600D01*
X0136000Y0290060D01*
X0136000Y0293540D01*
X0134200Y0295340D01*
X0134200Y0297277D01*
X0133835Y0298159D01*
X0133159Y0298835D01*
X0128159Y0303835D01*
X0127277Y0304200D01*
X0122940Y0304200D01*
X0121779Y0305361D01*
X0120235Y0306000D01*
X0113365Y0306000D01*
X0111821Y0305361D01*
X0110639Y0304179D01*
X0110000Y0302635D01*
X0110000Y0300965D01*
X0110639Y0299421D01*
X0111821Y0298239D01*
X0113365Y0297600D01*
X0112660Y0295926D02*
X0089200Y0295926D01*
X0089098Y0297525D02*
X0127681Y0297525D01*
X0126083Y0299123D02*
X0122663Y0299123D01*
X0120940Y0295926D02*
X0129280Y0295926D01*
X0128388Y0294328D02*
X0123002Y0294328D01*
X0123708Y0292729D02*
X0127600Y0292729D01*
X0127600Y0291131D02*
X0123749Y0291131D01*
X0123183Y0289532D02*
X0128128Y0289532D01*
X0129727Y0287934D02*
X0121503Y0287934D01*
X0110937Y0299123D02*
X0087871Y0299123D01*
X0086272Y0300722D02*
X0110101Y0300722D01*
X0110000Y0302320D02*
X0084674Y0302320D01*
X0082957Y0303919D02*
X0110532Y0303919D01*
X0112199Y0305517D02*
X0076401Y0305517D01*
X0075235Y0307600D02*
X0076779Y0308239D01*
X0077961Y0309421D01*
X0078600Y0310965D01*
X0078600Y0312635D01*
X0077961Y0314179D01*
X0076779Y0315361D01*
X0075235Y0316000D01*
X0068365Y0316000D01*
X0066821Y0315361D01*
X0065660Y0314200D01*
X0060340Y0314200D01*
X0058540Y0316000D01*
X0055060Y0316000D01*
X0052600Y0313540D01*
X0052600Y0310060D01*
X0055060Y0307600D01*
X0058540Y0307600D01*
X0060340Y0309400D01*
X0065660Y0309400D01*
X0066821Y0308239D01*
X0068365Y0307600D01*
X0075235Y0307600D01*
X0077254Y0308714D02*
X0103946Y0308714D01*
X0105060Y0307600D02*
X0108540Y0307600D01*
X0110340Y0309400D01*
X0110660Y0309400D01*
X0111821Y0308239D01*
X0113365Y0307600D01*
X0120235Y0307600D01*
X0121779Y0308239D01*
X0122961Y0309421D01*
X0123600Y0310965D01*
X0123600Y0312635D01*
X0122961Y0314179D01*
X0121779Y0315361D01*
X0120235Y0316000D01*
X0113365Y0316000D01*
X0111821Y0315361D01*
X0110660Y0314200D01*
X0110340Y0314200D01*
X0108540Y0316000D01*
X0105060Y0316000D01*
X0102600Y0313540D01*
X0102600Y0310060D01*
X0105060Y0307600D01*
X0102600Y0310313D02*
X0078330Y0310313D01*
X0078600Y0311911D02*
X0102600Y0311911D01*
X0102600Y0313510D02*
X0078238Y0313510D01*
X0077031Y0315108D02*
X0104169Y0315108D01*
X0106800Y0311800D02*
X0116800Y0311800D01*
X0111569Y0315108D02*
X0109431Y0315108D01*
X0109654Y0308714D02*
X0111346Y0308714D01*
X0116800Y0301800D02*
X0126800Y0301800D01*
X0131800Y0296800D01*
X0131800Y0291800D01*
X0135212Y0294328D02*
X0165598Y0294328D01*
X0165437Y0294106D02*
X0165122Y0293489D01*
X0164908Y0292830D01*
X0164800Y0292146D01*
X0164800Y0291800D01*
X0171800Y0291800D01*
X0171800Y0291800D01*
X0171800Y0296200D01*
X0174746Y0296200D01*
X0175430Y0296092D01*
X0176089Y0295878D01*
X0176706Y0295563D01*
X0177266Y0295156D01*
X0177756Y0294666D01*
X0178163Y0294106D01*
X0178478Y0293489D01*
X0178692Y0292830D01*
X0178800Y0292146D01*
X0178800Y0291800D01*
X0171800Y0291800D01*
X0171800Y0291800D01*
X0171800Y0296200D01*
X0168854Y0296200D01*
X0168170Y0296092D01*
X0167511Y0295878D01*
X0166894Y0295563D01*
X0166334Y0295156D01*
X0165844Y0294666D01*
X0165437Y0294106D01*
X0164892Y0292729D02*
X0136000Y0292729D01*
X0136000Y0291131D02*
X0164851Y0291131D01*
X0164800Y0291454D02*
X0164908Y0290770D01*
X0165122Y0290111D01*
X0165437Y0289494D01*
X0165844Y0288934D01*
X0166334Y0288444D01*
X0166894Y0288037D01*
X0167511Y0287722D01*
X0168170Y0287508D01*
X0168854Y0287400D01*
X0171800Y0287400D01*
X0174746Y0287400D01*
X0175430Y0287508D01*
X0176089Y0287722D01*
X0176706Y0288037D01*
X0177266Y0288444D01*
X0177756Y0288934D01*
X0178163Y0289494D01*
X0178478Y0290111D01*
X0178692Y0290770D01*
X0178800Y0291454D01*
X0178800Y0291800D01*
X0171800Y0291800D01*
X0171800Y0287400D01*
X0171800Y0291800D01*
X0171800Y0291800D01*
X0171800Y0291800D01*
X0164800Y0291800D01*
X0164800Y0291454D01*
X0165417Y0289532D02*
X0135472Y0289532D01*
X0133873Y0287934D02*
X0167097Y0287934D01*
X0171800Y0287934D02*
X0171800Y0287934D01*
X0171800Y0289532D02*
X0171800Y0289532D01*
X0171800Y0291131D02*
X0171800Y0291131D01*
X0171800Y0292729D02*
X0171800Y0292729D01*
X0171800Y0294328D02*
X0171800Y0294328D01*
X0171800Y0295926D02*
X0171800Y0295926D01*
X0168365Y0297600D02*
X0175235Y0297600D01*
X0176779Y0298239D01*
X0177940Y0299400D01*
X0180806Y0299400D01*
X0184400Y0295806D01*
X0184400Y0295340D01*
X0182600Y0293540D01*
X0182600Y0290060D01*
X0185060Y0287600D01*
X0188540Y0287600D01*
X0191000Y0290060D01*
X0191000Y0293540D01*
X0189200Y0295340D01*
X0189200Y0297277D01*
X0188835Y0298159D01*
X0183835Y0303159D01*
X0183159Y0303835D01*
X0182277Y0304200D01*
X0177940Y0304200D01*
X0176779Y0305361D01*
X0175235Y0306000D01*
X0168365Y0306000D01*
X0166821Y0305361D01*
X0165639Y0304179D01*
X0165000Y0302635D01*
X0165000Y0300965D01*
X0165639Y0299421D01*
X0166821Y0298239D01*
X0168365Y0297600D01*
X0167660Y0295926D02*
X0134200Y0295926D01*
X0134098Y0297525D02*
X0182681Y0297525D01*
X0181083Y0299123D02*
X0177663Y0299123D01*
X0175940Y0295926D02*
X0184280Y0295926D01*
X0183388Y0294328D02*
X0178002Y0294328D01*
X0178708Y0292729D02*
X0182600Y0292729D01*
X0182600Y0291131D02*
X0178749Y0291131D01*
X0178183Y0289532D02*
X0183128Y0289532D01*
X0184727Y0287934D02*
X0176503Y0287934D01*
X0165937Y0299123D02*
X0132871Y0299123D01*
X0133159Y0298835D02*
X0133159Y0298835D01*
X0131272Y0300722D02*
X0165101Y0300722D01*
X0165000Y0302320D02*
X0129674Y0302320D01*
X0127957Y0303919D02*
X0165532Y0303919D01*
X0167199Y0305517D02*
X0121401Y0305517D01*
X0122254Y0308714D02*
X0153946Y0308714D01*
X0155060Y0307600D02*
X0158540Y0307600D01*
X0160340Y0309400D01*
X0165660Y0309400D01*
X0166821Y0308239D01*
X0168365Y0307600D01*
X0175235Y0307600D01*
X0176779Y0308239D01*
X0177961Y0309421D01*
X0178600Y0310965D01*
X0178600Y0312635D01*
X0177961Y0314179D01*
X0176779Y0315361D01*
X0175235Y0316000D01*
X0168365Y0316000D01*
X0166821Y0315361D01*
X0165660Y0314200D01*
X0160340Y0314200D01*
X0158540Y0316000D01*
X0155060Y0316000D01*
X0152600Y0313540D01*
X0152600Y0310060D01*
X0155060Y0307600D01*
X0152600Y0310313D02*
X0123330Y0310313D01*
X0123600Y0311911D02*
X0152600Y0311911D01*
X0152600Y0313510D02*
X0123238Y0313510D01*
X0122031Y0315108D02*
X0154169Y0315108D01*
X0156800Y0311800D02*
X0171800Y0311800D01*
X0177031Y0315108D02*
X0194169Y0315108D01*
X0195060Y0316000D02*
X0192600Y0313540D01*
X0192600Y0310060D01*
X0195060Y0307600D01*
X0198540Y0307600D01*
X0200340Y0309400D01*
X0200660Y0309400D01*
X0201821Y0308239D01*
X0203365Y0307600D01*
X0210235Y0307600D01*
X0211779Y0308239D01*
X0212961Y0309421D01*
X0213600Y0310965D01*
X0213600Y0312635D01*
X0212961Y0314179D01*
X0211779Y0315361D01*
X0210235Y0316000D01*
X0203365Y0316000D01*
X0201821Y0315361D01*
X0200660Y0314200D01*
X0200340Y0314200D01*
X0198540Y0316000D01*
X0195060Y0316000D01*
X0192600Y0313510D02*
X0178238Y0313510D01*
X0178600Y0311911D02*
X0192600Y0311911D01*
X0192600Y0310313D02*
X0178330Y0310313D01*
X0177254Y0308714D02*
X0193946Y0308714D01*
X0196800Y0311800D02*
X0206800Y0311800D01*
X0212031Y0315108D02*
X0269400Y0315108D01*
X0269400Y0313510D02*
X0213238Y0313510D01*
X0213600Y0311911D02*
X0269400Y0311911D01*
X0269400Y0310313D02*
X0213330Y0310313D01*
X0212254Y0308714D02*
X0269400Y0308714D01*
X0269400Y0307116D02*
X0044200Y0307116D01*
X0044200Y0308714D02*
X0053946Y0308714D01*
X0052600Y0310313D02*
X0044200Y0310313D01*
X0044200Y0311911D02*
X0052600Y0311911D01*
X0052600Y0313510D02*
X0044200Y0313510D01*
X0044200Y0315108D02*
X0054169Y0315108D01*
X0056800Y0311800D02*
X0071800Y0311800D01*
X0066569Y0315108D02*
X0059431Y0315108D01*
X0059654Y0308714D02*
X0066346Y0308714D01*
X0067199Y0305517D02*
X0044200Y0305517D01*
X0044200Y0303919D02*
X0065532Y0303919D01*
X0065000Y0302320D02*
X0044200Y0302320D01*
X0044200Y0300722D02*
X0065101Y0300722D01*
X0065937Y0299123D02*
X0044200Y0299123D01*
X0044200Y0316707D02*
X0269400Y0316707D01*
X0269400Y0318305D02*
X0044200Y0318305D01*
X0044200Y0319904D02*
X0269400Y0319904D01*
X0269400Y0321502D02*
X0044200Y0321502D01*
X0044200Y0323101D02*
X0269400Y0323101D01*
X0269400Y0324699D02*
X0044200Y0324699D01*
X0044200Y0326298D02*
X0238562Y0326298D01*
X0237594Y0327896D02*
X0044200Y0327896D01*
X0044200Y0329495D02*
X0237400Y0329495D01*
X0237400Y0331093D02*
X0044200Y0331093D01*
X0044200Y0332692D02*
X0237400Y0332692D01*
X0237400Y0334290D02*
X0044200Y0334290D01*
X0044200Y0335889D02*
X0237671Y0335889D01*
X0238748Y0337487D02*
X0044200Y0337487D01*
X0060026Y0339086D02*
X0060974Y0339086D01*
X0044200Y0243175D02*
X0179781Y0243175D01*
X0178183Y0241577D02*
X0045417Y0241577D01*
X0047016Y0239978D02*
X0176584Y0239978D01*
X0174986Y0238380D02*
X0048614Y0238380D01*
X0050213Y0236781D02*
X0173387Y0236781D01*
X0171789Y0235183D02*
X0051811Y0235183D01*
X0053410Y0233584D02*
X0170190Y0233584D01*
X0168592Y0231986D02*
X0055008Y0231986D01*
X0056800Y0226800D02*
X0056800Y0206800D01*
X0051900Y0206409D02*
X0032700Y0206409D01*
X0032700Y0204811D02*
X0051417Y0204811D01*
X0049818Y0203212D02*
X0033105Y0203212D01*
X0032700Y0203618D02*
X0035050Y0201268D01*
X0035050Y0197332D01*
X0032268Y0194550D01*
X0028332Y0194550D01*
X0025550Y0197332D01*
X0025550Y0201268D01*
X0027900Y0203618D01*
X0027900Y0209982D01*
X0025550Y0212332D01*
X0025550Y0216268D01*
X0028332Y0219050D01*
X0032268Y0219050D01*
X0035050Y0216268D01*
X0035050Y0212332D01*
X0032700Y0209982D01*
X0032700Y0203618D01*
X0034704Y0201614D02*
X0049400Y0201614D01*
X0049400Y0200015D02*
X0035050Y0200015D01*
X0035050Y0198417D02*
X0049400Y0198417D01*
X0049400Y0196818D02*
X0034536Y0196818D01*
X0032937Y0195220D02*
X0049400Y0195220D01*
X0049400Y0193621D02*
X0014200Y0193621D01*
X0014200Y0192023D02*
X0049400Y0192023D01*
X0054200Y0196818D02*
X0078424Y0196818D01*
X0080023Y0198417D02*
X0054200Y0198417D01*
X0054200Y0200015D02*
X0081621Y0200015D01*
X0083220Y0201614D02*
X0055008Y0201614D01*
X0051997Y0208008D02*
X0032700Y0208008D01*
X0032700Y0209606D02*
X0052677Y0209606D01*
X0054400Y0211205D02*
X0033922Y0211205D01*
X0035050Y0212803D02*
X0054400Y0212803D01*
X0054400Y0214402D02*
X0035050Y0214402D01*
X0035050Y0216001D02*
X0054400Y0216001D01*
X0054400Y0217599D02*
X0033718Y0217599D01*
X0030300Y0214300D02*
X0030300Y0199300D01*
X0025550Y0200015D02*
X0025250Y0200015D01*
X0025250Y0199300D02*
X0025250Y0201350D01*
X0022350Y0204250D01*
X0020300Y0204250D01*
X0020300Y0199300D01*
X0025250Y0199300D01*
X0020300Y0199300D01*
X0020300Y0199300D01*
X0020300Y0199300D01*
X0020300Y0194350D01*
X0022350Y0194350D01*
X0025250Y0197250D01*
X0025250Y0199300D01*
X0025250Y0198417D02*
X0025550Y0198417D01*
X0026064Y0196818D02*
X0024819Y0196818D01*
X0023220Y0195220D02*
X0027663Y0195220D01*
X0025896Y0201614D02*
X0024986Y0201614D01*
X0023388Y0203212D02*
X0027495Y0203212D01*
X0027900Y0204811D02*
X0014200Y0204811D01*
X0014200Y0206409D02*
X0027900Y0206409D01*
X0027900Y0208008D02*
X0014200Y0208008D01*
X0014200Y0209606D02*
X0018276Y0209606D01*
X0016677Y0211205D02*
X0014599Y0211205D01*
X0018250Y0204250D02*
X0015350Y0201350D01*
X0015350Y0199300D01*
X0020300Y0199300D01*
X0020300Y0199300D01*
X0020300Y0199300D01*
X0020300Y0204250D01*
X0018250Y0204250D01*
X0017212Y0203212D02*
X0014200Y0203212D01*
X0014200Y0201614D02*
X0015614Y0201614D01*
X0015350Y0200015D02*
X0014200Y0200015D01*
X0015350Y0199300D02*
X0015350Y0197250D01*
X0018250Y0194350D01*
X0020300Y0194350D01*
X0020300Y0199300D01*
X0015350Y0199300D01*
X0015350Y0198417D02*
X0014200Y0198417D01*
X0014200Y0196818D02*
X0015781Y0196818D01*
X0014200Y0195220D02*
X0017380Y0195220D01*
X0020300Y0195220D02*
X0020300Y0195220D01*
X0020300Y0196818D02*
X0020300Y0196818D01*
X0020300Y0198417D02*
X0020300Y0198417D01*
X0020300Y0200015D02*
X0020300Y0200015D01*
X0020300Y0201614D02*
X0020300Y0201614D01*
X0020300Y0203212D02*
X0020300Y0203212D01*
X0022324Y0209606D02*
X0027900Y0209606D01*
X0026677Y0211205D02*
X0023922Y0211205D01*
X0025050Y0212803D02*
X0025550Y0212803D01*
X0025550Y0214402D02*
X0025050Y0214402D01*
X0025050Y0216001D02*
X0025550Y0216001D01*
X0026882Y0217599D02*
X0023718Y0217599D01*
X0022700Y0219198D02*
X0054400Y0219198D01*
X0054400Y0220796D02*
X0022700Y0220796D01*
X0022700Y0222395D02*
X0054400Y0222395D01*
X0060143Y0230387D02*
X0093457Y0230387D01*
X0100143Y0230387D02*
X0166993Y0230387D01*
X0165395Y0228789D02*
X0101280Y0228789D01*
X0101700Y0227190D02*
X0163796Y0227190D01*
X0162197Y0225592D02*
X0101603Y0225592D01*
X0103001Y0223993D02*
X0160599Y0223993D01*
X0159000Y0222395D02*
X0104600Y0222395D01*
X0106198Y0220796D02*
X0157402Y0220796D01*
X0155803Y0219198D02*
X0107797Y0219198D01*
X0109395Y0217599D02*
X0154205Y0217599D01*
X0152606Y0216001D02*
X0110994Y0216001D01*
X0112592Y0214402D02*
X0151008Y0214402D01*
X0149409Y0212803D02*
X0113982Y0212803D01*
X0114200Y0211205D02*
X0147811Y0211205D01*
X0146212Y0209606D02*
X0114200Y0209606D01*
X0114200Y0208008D02*
X0144614Y0208008D01*
X0143015Y0206409D02*
X0114200Y0206409D01*
X0114200Y0204811D02*
X0141417Y0204811D01*
X0139818Y0203212D02*
X0114200Y0203212D01*
X0114200Y0201614D02*
X0138220Y0201614D01*
X0136621Y0200015D02*
X0114200Y0200015D01*
X0114200Y0198417D02*
X0135023Y0198417D01*
X0133424Y0196818D02*
X0114200Y0196818D01*
X0114200Y0195220D02*
X0131826Y0195220D01*
X0130227Y0193621D02*
X0114200Y0193621D01*
X0114200Y0192023D02*
X0129400Y0192023D01*
X0129400Y0190424D02*
X0114200Y0190424D01*
X0114200Y0188826D02*
X0129400Y0188826D01*
X0129400Y0187227D02*
X0114200Y0187227D01*
X0114200Y0185629D02*
X0129400Y0185629D01*
X0129400Y0184030D02*
X0114200Y0184030D01*
X0114200Y0182432D02*
X0129400Y0182432D01*
X0129400Y0180833D02*
X0114200Y0180833D01*
X0114200Y0179235D02*
X0129400Y0179235D01*
X0129400Y0177636D02*
X0114200Y0177636D01*
X0114200Y0176038D02*
X0129400Y0176038D01*
X0129400Y0174439D02*
X0114200Y0174439D01*
X0114200Y0172841D02*
X0129400Y0172841D01*
X0129400Y0171242D02*
X0114167Y0171242D01*
X0113038Y0169644D02*
X0129400Y0169644D01*
X0129400Y0168045D02*
X0111439Y0168045D01*
X0109841Y0166447D02*
X0129400Y0166447D01*
X0129400Y0164848D02*
X0108242Y0164848D01*
X0106644Y0163250D02*
X0129400Y0163250D01*
X0129400Y0161651D02*
X0105045Y0161651D01*
X0103447Y0160053D02*
X0130153Y0160053D01*
X0131752Y0158454D02*
X0101848Y0158454D01*
X0100250Y0156856D02*
X0133350Y0156856D01*
X0134949Y0155257D02*
X0098651Y0155257D01*
X0097053Y0153659D02*
X0136547Y0153659D01*
X0138146Y0152060D02*
X0095454Y0152060D01*
X0093856Y0150462D02*
X0139744Y0150462D01*
X0141343Y0148863D02*
X0092257Y0148863D01*
X0090659Y0147265D02*
X0142941Y0147265D01*
X0144540Y0145666D02*
X0089060Y0145666D01*
X0087462Y0144068D02*
X0111003Y0144068D01*
X0109765Y0143159D02*
X0109765Y0143159D01*
X0109075Y0142469D02*
X0085863Y0142469D01*
X0084265Y0140870D02*
X0107476Y0140870D01*
X0105576Y0139272D02*
X0024200Y0139272D01*
X0024200Y0140870D02*
X0039335Y0140870D01*
X0037737Y0142469D02*
X0024200Y0142469D01*
X0024200Y0144068D02*
X0036138Y0144068D01*
X0034540Y0145666D02*
X0024200Y0145666D01*
X0024200Y0147265D02*
X0032941Y0147265D01*
X0031343Y0148863D02*
X0024200Y0148863D01*
X0024200Y0150462D02*
X0029744Y0150462D01*
X0028146Y0152060D02*
X0024200Y0152060D01*
X0024200Y0153659D02*
X0026547Y0153659D01*
X0024949Y0155257D02*
X0024200Y0155257D01*
X0030138Y0156856D02*
X0053350Y0156856D01*
X0054949Y0155257D02*
X0031737Y0155257D01*
X0033336Y0153659D02*
X0056547Y0153659D01*
X0058146Y0152060D02*
X0034934Y0152060D01*
X0036533Y0150462D02*
X0059744Y0150462D01*
X0061737Y0155257D02*
X0081863Y0155257D01*
X0083461Y0156856D02*
X0060138Y0156856D01*
X0059977Y0157400D02*
X0057400Y0159977D01*
X0057400Y0161800D01*
X0061800Y0161800D01*
X0061800Y0161800D01*
X0061800Y0166200D01*
X0063623Y0166200D01*
X0066200Y0163623D01*
X0066200Y0161800D01*
X0061800Y0161800D01*
X0061800Y0161800D01*
X0061800Y0161800D01*
X0061800Y0166200D01*
X0059977Y0166200D01*
X0057400Y0163623D01*
X0057400Y0161800D01*
X0061800Y0161800D01*
X0066200Y0161800D01*
X0066200Y0159977D01*
X0063623Y0157400D01*
X0061800Y0157400D01*
X0061800Y0161800D01*
X0061800Y0161800D01*
X0061800Y0157400D01*
X0059977Y0157400D01*
X0058923Y0158454D02*
X0058540Y0158454D01*
X0057400Y0160053D02*
X0056941Y0160053D01*
X0057400Y0161651D02*
X0055343Y0161651D01*
X0053744Y0163250D02*
X0057400Y0163250D01*
X0058626Y0164848D02*
X0052146Y0164848D01*
X0050547Y0166447D02*
X0063759Y0166447D01*
X0064974Y0164848D02*
X0065358Y0164848D01*
X0066200Y0163250D02*
X0066956Y0163250D01*
X0066200Y0161651D02*
X0068555Y0161651D01*
X0070153Y0160053D02*
X0066200Y0160053D01*
X0064677Y0158454D02*
X0074206Y0158454D01*
X0079394Y0158454D02*
X0085060Y0158454D01*
X0086659Y0160053D02*
X0080992Y0160053D01*
X0081000Y0161651D02*
X0088257Y0161651D01*
X0089400Y0163250D02*
X0081000Y0163250D01*
X0079692Y0164848D02*
X0089400Y0164848D01*
X0094200Y0164848D02*
X0101454Y0164848D01*
X0099856Y0163250D02*
X0094200Y0163250D01*
X0094200Y0161651D02*
X0098257Y0161651D01*
X0096659Y0160053D02*
X0093447Y0160053D01*
X0091848Y0158454D02*
X0095060Y0158454D01*
X0093461Y0156856D02*
X0090250Y0156856D01*
X0088651Y0155257D02*
X0091863Y0155257D01*
X0090264Y0153659D02*
X0087053Y0153659D01*
X0085454Y0152060D02*
X0088666Y0152060D01*
X0087067Y0150462D02*
X0083856Y0150462D01*
X0085469Y0148863D02*
X0038131Y0148863D01*
X0039730Y0147265D02*
X0083870Y0147265D01*
X0082272Y0145666D02*
X0041328Y0145666D01*
X0024200Y0137673D02*
X0103168Y0137673D01*
X0102349Y0136075D02*
X0024200Y0136075D01*
X0024200Y0134476D02*
X0068537Y0134476D01*
X0067600Y0132878D02*
X0024200Y0132878D01*
X0024200Y0131279D02*
X0067600Y0131279D01*
X0067979Y0129681D02*
X0024200Y0129681D01*
X0024200Y0128082D02*
X0069578Y0128082D01*
X0071800Y0131800D02*
X0086800Y0131800D01*
X0106800Y0131800D01*
X0106800Y0136800D01*
X0111800Y0141800D01*
X0131800Y0141800D01*
X0123168Y0137673D02*
X0120432Y0137673D01*
X0121251Y0136075D02*
X0122349Y0136075D01*
X0122200Y0134476D02*
X0121400Y0134476D01*
X0121400Y0132878D02*
X0122200Y0132878D01*
X0104230Y0124885D02*
X0024200Y0124885D01*
X0024200Y0126484D02*
X0102780Y0126484D01*
X0102200Y0128082D02*
X0089022Y0128082D01*
X0084578Y0128082D02*
X0074022Y0128082D01*
X0075063Y0134476D02*
X0083537Y0134476D01*
X0090063Y0134476D02*
X0102200Y0134476D01*
X0101800Y0111800D02*
X0101800Y0106800D01*
X0111800Y0096800D01*
X0107050Y0096112D02*
X0106550Y0096112D01*
X0106550Y0097711D02*
X0107050Y0097711D01*
X0107369Y0094514D02*
X0106231Y0094514D01*
X0104633Y0092915D02*
X0108967Y0092915D01*
X0099521Y0086521D02*
X0089200Y0086521D01*
X0090607Y0084923D02*
X0097922Y0084923D01*
X0096850Y0083324D02*
X0091472Y0083324D01*
X0091700Y0081726D02*
X0096850Y0081726D01*
X0096850Y0080127D02*
X0091411Y0080127D01*
X0090458Y0078529D02*
X0098071Y0078529D01*
X0086800Y0081800D02*
X0086800Y0101800D01*
X0090249Y0099309D02*
X0095897Y0099309D01*
X0097050Y0097711D02*
X0089200Y0097711D01*
X0084400Y0086521D02*
X0048207Y0086521D01*
X0086800Y0081800D02*
X0086800Y0061800D01*
X0103785Y0043361D02*
X0150000Y0043361D01*
X0150000Y0041763D02*
X0106182Y0041763D01*
X0108580Y0040164D02*
X0150000Y0040164D01*
X0150000Y0038566D02*
X0110978Y0038566D01*
X0035030Y0011391D02*
X0387000Y0011391D01*
X0387000Y0009793D02*
X0006600Y0009793D01*
X0006600Y0011391D02*
X0023755Y0011391D01*
X0020250Y0012990D02*
X0006600Y0012990D01*
X0006600Y0014588D02*
X0018245Y0014588D01*
X0016535Y0016187D02*
X0006600Y0016187D01*
X0006600Y0017785D02*
X0015445Y0017785D01*
X0014355Y0019384D02*
X0006600Y0019384D01*
X0006600Y0020982D02*
X0013702Y0020982D01*
X0013209Y0022581D02*
X0006600Y0022581D01*
X0006600Y0024179D02*
X0012716Y0024179D01*
X0012588Y0025778D02*
X0006600Y0025778D01*
X0006600Y0027376D02*
X0012588Y0027376D01*
X0012588Y0028975D02*
X0006600Y0028975D01*
X0006600Y0030573D02*
X0012887Y0030573D01*
X0013380Y0032172D02*
X0006600Y0032172D01*
X0006600Y0033770D02*
X0013873Y0033770D01*
X0014732Y0035369D02*
X0006600Y0035369D01*
X0006600Y0036967D02*
X0015821Y0036967D01*
X0016933Y0038566D02*
X0006600Y0038566D01*
X0006600Y0040164D02*
X0018938Y0040164D01*
X0021089Y0041763D02*
X0006600Y0041763D01*
X0006600Y0043361D02*
X0025162Y0043361D01*
X0006600Y0008194D02*
X0387000Y0008194D01*
X0367055Y0045653D02*
X0367055Y0045653D01*
X0244251Y0172841D02*
X0204200Y0172841D01*
X0204200Y0174439D02*
X0244200Y0174439D01*
X0244781Y0176038D02*
X0204200Y0176038D01*
X0204200Y0177636D02*
X0246686Y0177636D01*
X0245836Y0190424D02*
X0221000Y0190424D01*
X0221000Y0192023D02*
X0244590Y0192023D01*
X0244200Y0193621D02*
X0220918Y0193621D01*
X0219320Y0195220D02*
X0244442Y0195220D01*
X0251321Y0196818D02*
X0256624Y0196818D01*
X0258223Y0198417D02*
X0204200Y0198417D01*
X0204200Y0200015D02*
X0259400Y0200015D01*
X0261008Y0214402D02*
X0245625Y0214402D01*
X0246200Y0216001D02*
X0262606Y0216001D01*
X0264205Y0217599D02*
X0246200Y0217599D01*
X0245625Y0219198D02*
X0265803Y0219198D01*
X0267402Y0220796D02*
X0244026Y0220796D01*
X0241800Y0220796D02*
X0241800Y0220796D01*
X0241800Y0219198D02*
X0241800Y0219198D01*
X0239574Y0220796D02*
X0221200Y0220796D01*
X0221200Y0219977D02*
X0221200Y0221800D01*
X0221200Y0223623D01*
X0218623Y0226200D01*
X0216800Y0226200D02*
X0214977Y0226200D01*
X0212400Y0223623D01*
X0212400Y0221800D01*
X0216800Y0221800D01*
X0216800Y0221800D01*
X0221200Y0221800D01*
X0216800Y0221800D01*
X0216800Y0221800D01*
X0216800Y0221800D01*
X0216800Y0226200D01*
X0216800Y0225592D02*
X0216800Y0225592D01*
X0216800Y0223993D02*
X0216800Y0223993D01*
X0216800Y0222395D02*
X0216800Y0222395D01*
X0216800Y0221800D02*
X0212400Y0221800D01*
X0212400Y0219977D01*
X0214977Y0217400D01*
X0216800Y0217400D01*
X0218623Y0217400D01*
X0221200Y0219977D01*
X0220420Y0219198D02*
X0237975Y0219198D01*
X0237400Y0217599D02*
X0218822Y0217599D01*
X0216800Y0217599D02*
X0216800Y0217599D01*
X0216800Y0217400D02*
X0216800Y0221800D01*
X0216800Y0221800D01*
X0216800Y0217400D01*
X0216800Y0219198D02*
X0216800Y0219198D01*
X0216800Y0220796D02*
X0216800Y0220796D01*
X0214778Y0217599D02*
X0204541Y0217599D01*
X0205683Y0216001D02*
X0237400Y0216001D01*
X0237975Y0214402D02*
X0206000Y0214402D01*
X0201800Y0211800D02*
X0201800Y0156800D01*
X0199400Y0161651D02*
X0150343Y0161651D01*
X0148744Y0163250D02*
X0189411Y0163250D01*
X0190060Y0162600D02*
X0193540Y0162600D01*
X0196000Y0165060D01*
X0196000Y0168540D01*
X0194200Y0170340D01*
X0194200Y0205660D01*
X0195361Y0206821D01*
X0196000Y0208365D01*
X0196000Y0215235D01*
X0195361Y0216779D01*
X0194179Y0217961D01*
X0192635Y0218600D01*
X0190965Y0218600D01*
X0189421Y0217961D01*
X0188239Y0216779D01*
X0187600Y0215235D01*
X0187600Y0208365D01*
X0188239Y0206821D01*
X0189400Y0205660D01*
X0189400Y0170340D01*
X0187600Y0168540D01*
X0187600Y0165060D01*
X0190060Y0162600D01*
X0187812Y0164848D02*
X0147146Y0164848D01*
X0145547Y0166447D02*
X0187600Y0166447D01*
X0187600Y0168045D02*
X0144200Y0168045D01*
X0144200Y0169644D02*
X0188704Y0169644D01*
X0189400Y0171242D02*
X0144200Y0171242D01*
X0144200Y0172841D02*
X0149820Y0172841D01*
X0150060Y0172600D02*
X0153540Y0172600D01*
X0156000Y0175060D01*
X0156000Y0177606D01*
X0183835Y0205441D01*
X0183863Y0205508D01*
X0184179Y0205639D01*
X0185361Y0206821D01*
X0186000Y0208365D01*
X0186000Y0215235D01*
X0185361Y0216779D01*
X0184179Y0217961D01*
X0182635Y0218600D01*
X0180965Y0218600D01*
X0179421Y0217961D01*
X0178239Y0216779D01*
X0177600Y0215235D01*
X0177600Y0208365D01*
X0178239Y0206821D01*
X0178333Y0206727D01*
X0152606Y0181000D01*
X0150060Y0181000D01*
X0147600Y0178540D01*
X0147600Y0175060D01*
X0150060Y0172600D01*
X0148221Y0174439D02*
X0144200Y0174439D01*
X0144200Y0176038D02*
X0147600Y0176038D01*
X0147600Y0177636D02*
X0144200Y0177636D01*
X0144200Y0179235D02*
X0148295Y0179235D01*
X0149894Y0180833D02*
X0144200Y0180833D01*
X0144200Y0182432D02*
X0154038Y0182432D01*
X0155636Y0184030D02*
X0145024Y0184030D01*
X0146623Y0185629D02*
X0157235Y0185629D01*
X0158833Y0187227D02*
X0148221Y0187227D01*
X0149820Y0188826D02*
X0160432Y0188826D01*
X0162030Y0190424D02*
X0151418Y0190424D01*
X0153017Y0192023D02*
X0163629Y0192023D01*
X0165227Y0193621D02*
X0154615Y0193621D01*
X0156214Y0195220D02*
X0166826Y0195220D01*
X0168424Y0196818D02*
X0157812Y0196818D01*
X0159411Y0198417D02*
X0170023Y0198417D01*
X0171621Y0200015D02*
X0161010Y0200015D01*
X0162608Y0201614D02*
X0173220Y0201614D01*
X0174818Y0203212D02*
X0164207Y0203212D01*
X0165805Y0204811D02*
X0176417Y0204811D01*
X0178015Y0206409D02*
X0167404Y0206409D01*
X0169002Y0208008D02*
X0177748Y0208008D01*
X0177600Y0209606D02*
X0170601Y0209606D01*
X0172199Y0211205D02*
X0177600Y0211205D01*
X0177600Y0212803D02*
X0173798Y0212803D01*
X0175396Y0214402D02*
X0177600Y0214402D01*
X0177917Y0216001D02*
X0176995Y0216001D01*
X0178593Y0217599D02*
X0179059Y0217599D01*
X0180192Y0219198D02*
X0213180Y0219198D01*
X0212400Y0220796D02*
X0181790Y0220796D01*
X0183389Y0222395D02*
X0212400Y0222395D01*
X0212771Y0223993D02*
X0184987Y0223993D01*
X0186586Y0225592D02*
X0214369Y0225592D01*
X0220829Y0223993D02*
X0270599Y0223993D01*
X0269000Y0222395D02*
X0221200Y0222395D01*
X0199059Y0217599D02*
X0194541Y0217599D01*
X0195683Y0216001D02*
X0197917Y0216001D01*
X0197600Y0214402D02*
X0196000Y0214402D01*
X0196000Y0212803D02*
X0197600Y0212803D01*
X0197600Y0211205D02*
X0196000Y0211205D01*
X0196000Y0209606D02*
X0197600Y0209606D01*
X0197748Y0208008D02*
X0195852Y0208008D01*
X0194949Y0206409D02*
X0198651Y0206409D01*
X0199400Y0204811D02*
X0194200Y0204811D01*
X0194200Y0203212D02*
X0199400Y0203212D01*
X0199400Y0201614D02*
X0194200Y0201614D01*
X0194200Y0200015D02*
X0199400Y0200015D01*
X0199400Y0198417D02*
X0194200Y0198417D01*
X0194200Y0196818D02*
X0199400Y0196818D01*
X0199400Y0195220D02*
X0194200Y0195220D01*
X0194200Y0193621D02*
X0199400Y0193621D01*
X0199400Y0192023D02*
X0194200Y0192023D01*
X0194200Y0190424D02*
X0199400Y0190424D01*
X0199400Y0188826D02*
X0194200Y0188826D01*
X0194200Y0187227D02*
X0199400Y0187227D01*
X0199400Y0185629D02*
X0194200Y0185629D01*
X0194200Y0184030D02*
X0199400Y0184030D01*
X0199400Y0182432D02*
X0194200Y0182432D01*
X0194200Y0180833D02*
X0199400Y0180833D01*
X0199400Y0179235D02*
X0194200Y0179235D01*
X0194200Y0177636D02*
X0199400Y0177636D01*
X0199400Y0176038D02*
X0194200Y0176038D01*
X0194200Y0174439D02*
X0199400Y0174439D01*
X0199400Y0172841D02*
X0194200Y0172841D01*
X0194200Y0171242D02*
X0199400Y0171242D01*
X0199400Y0169644D02*
X0194896Y0169644D01*
X0196000Y0168045D02*
X0199400Y0168045D01*
X0199400Y0166447D02*
X0196000Y0166447D01*
X0195788Y0164848D02*
X0199400Y0164848D01*
X0199400Y0163250D02*
X0194189Y0163250D01*
X0191800Y0166800D02*
X0191800Y0211800D01*
X0187600Y0211205D02*
X0186000Y0211205D01*
X0186000Y0212803D02*
X0187600Y0212803D01*
X0187600Y0214402D02*
X0186000Y0214402D01*
X0185683Y0216001D02*
X0187917Y0216001D01*
X0189059Y0217599D02*
X0184541Y0217599D01*
X0181800Y0211800D02*
X0181800Y0206800D01*
X0151800Y0176800D01*
X0156000Y0176038D02*
X0177600Y0176038D01*
X0177600Y0175060D02*
X0180060Y0172600D01*
X0183540Y0172600D01*
X0186000Y0175060D01*
X0186000Y0178540D01*
X0183540Y0181000D01*
X0180060Y0181000D01*
X0177600Y0178540D01*
X0177600Y0175060D01*
X0178221Y0174439D02*
X0155379Y0174439D01*
X0153780Y0172841D02*
X0179820Y0172841D01*
X0183780Y0172841D02*
X0189400Y0172841D01*
X0189400Y0174439D02*
X0185379Y0174439D01*
X0186000Y0176038D02*
X0189400Y0176038D01*
X0189400Y0177636D02*
X0186000Y0177636D01*
X0185305Y0179235D02*
X0189400Y0179235D01*
X0189400Y0180833D02*
X0183706Y0180833D01*
X0179894Y0180833D02*
X0159227Y0180833D01*
X0157629Y0179235D02*
X0178295Y0179235D01*
X0177600Y0177636D02*
X0156030Y0177636D01*
X0160826Y0182432D02*
X0189400Y0182432D01*
X0189400Y0184030D02*
X0162424Y0184030D01*
X0164023Y0185629D02*
X0189400Y0185629D01*
X0189400Y0187227D02*
X0165621Y0187227D01*
X0167220Y0188826D02*
X0189400Y0188826D01*
X0189400Y0190424D02*
X0168818Y0190424D01*
X0170417Y0192023D02*
X0189400Y0192023D01*
X0189400Y0193621D02*
X0172015Y0193621D01*
X0173614Y0195220D02*
X0189400Y0195220D01*
X0189400Y0196818D02*
X0175212Y0196818D01*
X0176811Y0198417D02*
X0189400Y0198417D01*
X0189400Y0200015D02*
X0178410Y0200015D01*
X0180008Y0201614D02*
X0189400Y0201614D01*
X0189400Y0203212D02*
X0181607Y0203212D01*
X0183205Y0204811D02*
X0189400Y0204811D01*
X0188651Y0206409D02*
X0184949Y0206409D01*
X0185852Y0208008D02*
X0187748Y0208008D01*
X0187600Y0209606D02*
X0186000Y0209606D01*
X0175002Y0220796D02*
X0164190Y0220796D01*
X0162592Y0219198D02*
X0173403Y0219198D01*
X0171805Y0217599D02*
X0160993Y0217599D01*
X0159395Y0216001D02*
X0170206Y0216001D01*
X0168608Y0214402D02*
X0157796Y0214402D01*
X0156198Y0212803D02*
X0167009Y0212803D01*
X0165411Y0211205D02*
X0154599Y0211205D01*
X0153001Y0209606D02*
X0163812Y0209606D01*
X0162214Y0208008D02*
X0151402Y0208008D01*
X0149804Y0206409D02*
X0160615Y0206409D01*
X0159017Y0204811D02*
X0148205Y0204811D01*
X0146607Y0203212D02*
X0157418Y0203212D01*
X0155820Y0201614D02*
X0145008Y0201614D01*
X0143410Y0200015D02*
X0154221Y0200015D01*
X0152623Y0198417D02*
X0141811Y0198417D01*
X0140212Y0196818D02*
X0151024Y0196818D01*
X0149426Y0195220D02*
X0138614Y0195220D01*
X0137015Y0193621D02*
X0147827Y0193621D01*
X0146229Y0192023D02*
X0135417Y0192023D01*
X0134200Y0190424D02*
X0144630Y0190424D01*
X0143032Y0188826D02*
X0134200Y0188826D01*
X0134200Y0187227D02*
X0141433Y0187227D01*
X0139835Y0185629D02*
X0134200Y0185629D01*
X0134200Y0184030D02*
X0139400Y0184030D01*
X0139400Y0182432D02*
X0134200Y0182432D01*
X0134200Y0180833D02*
X0139400Y0180833D01*
X0139400Y0179235D02*
X0134200Y0179235D01*
X0134200Y0177636D02*
X0139400Y0177636D01*
X0139400Y0176038D02*
X0134200Y0176038D01*
X0134200Y0174439D02*
X0139400Y0174439D01*
X0139400Y0172841D02*
X0134200Y0172841D01*
X0134200Y0171242D02*
X0139400Y0171242D01*
X0139400Y0169644D02*
X0134200Y0169644D01*
X0134200Y0168045D02*
X0139400Y0168045D01*
X0139400Y0166447D02*
X0134200Y0166447D01*
X0134200Y0164848D02*
X0140358Y0164848D01*
X0141956Y0163250D02*
X0134200Y0163250D01*
X0135343Y0161651D02*
X0143555Y0161651D01*
X0145153Y0160053D02*
X0136941Y0160053D01*
X0138540Y0158454D02*
X0146752Y0158454D01*
X0147600Y0156856D02*
X0140138Y0156856D01*
X0141737Y0155257D02*
X0147600Y0155257D01*
X0149002Y0153659D02*
X0143336Y0153659D01*
X0131800Y0161800D02*
X0131800Y0191800D01*
X0181800Y0241800D01*
X0176978Y0233584D02*
X0187790Y0233584D01*
X0187365Y0233159D02*
X0187365Y0233159D01*
X0186192Y0231986D02*
X0175380Y0231986D01*
X0173781Y0230387D02*
X0184593Y0230387D01*
X0182995Y0228789D02*
X0172183Y0228789D01*
X0170584Y0227190D02*
X0181396Y0227190D01*
X0179797Y0225592D02*
X0168986Y0225592D01*
X0167387Y0223993D02*
X0178199Y0223993D01*
X0176600Y0222395D02*
X0165789Y0222395D01*
X0109400Y0209606D02*
X0100923Y0209606D01*
X0101603Y0208008D02*
X0109400Y0208008D01*
X0109400Y0206409D02*
X0101700Y0206409D01*
X0101280Y0204811D02*
X0109400Y0204811D01*
X0109400Y0203212D02*
X0100142Y0203212D01*
X0096800Y0206800D02*
X0091800Y0206800D01*
X0076800Y0191800D01*
X0073834Y0188826D02*
X0064766Y0188826D01*
X0064320Y0195220D02*
X0074280Y0195220D01*
X0081000Y0192023D02*
X0109400Y0192023D01*
X0109400Y0193621D02*
X0082015Y0193621D01*
X0083614Y0195220D02*
X0109400Y0195220D01*
X0109400Y0196818D02*
X0085212Y0196818D01*
X0086811Y0198417D02*
X0109400Y0198417D01*
X0109400Y0200015D02*
X0088409Y0200015D01*
X0090008Y0201614D02*
X0109400Y0201614D01*
X0109001Y0211205D02*
X0098970Y0211205D01*
X0093458Y0203212D02*
X0091607Y0203212D01*
X0081570Y0190424D02*
X0109400Y0190424D01*
X0109400Y0188826D02*
X0083168Y0188826D01*
X0084767Y0187227D02*
X0109400Y0187227D01*
X0109400Y0185629D02*
X0086365Y0185629D01*
X0087964Y0184030D02*
X0109400Y0184030D01*
X0109400Y0182432D02*
X0089562Y0182432D01*
X0091161Y0180833D02*
X0109400Y0180833D01*
X0109400Y0179235D02*
X0092759Y0179235D01*
X0094051Y0177636D02*
X0109400Y0177636D01*
X0109400Y0176038D02*
X0094200Y0176038D01*
X0094200Y0174439D02*
X0109400Y0174439D01*
X0109400Y0172841D02*
X0094200Y0172841D01*
X0094200Y0171242D02*
X0107848Y0171242D01*
X0106250Y0169644D02*
X0094200Y0169644D01*
X0094200Y0168045D02*
X0104651Y0168045D01*
X0103053Y0166447D02*
X0094200Y0166447D01*
X0062161Y0168045D02*
X0048949Y0168045D01*
X0061800Y0164848D02*
X0061800Y0164848D01*
X0061800Y0163250D02*
X0061800Y0163250D01*
X0061800Y0161651D02*
X0061800Y0161651D01*
X0061800Y0160053D02*
X0061800Y0160053D01*
X0061800Y0158454D02*
X0061800Y0158454D01*
X0131800Y0161800D02*
X0152300Y0141300D01*
X0152300Y0136300D01*
X0262686Y0249569D02*
X0266175Y0249569D01*
X0267774Y0251168D02*
X0264562Y0251168D01*
X0266160Y0252766D02*
X0269372Y0252766D01*
X0270971Y0254365D02*
X0267759Y0254365D01*
X0269357Y0255963D02*
X0272569Y0255963D01*
X0274168Y0257562D02*
X0270956Y0257562D01*
X0272554Y0259160D02*
X0275766Y0259160D01*
X0264539Y0287934D02*
X0223873Y0287934D01*
X0223540Y0287600D02*
X0220060Y0287600D01*
X0217600Y0290060D01*
X0217600Y0293540D01*
X0219400Y0295340D01*
X0219400Y0295806D01*
X0215806Y0299400D01*
X0212940Y0299400D01*
X0211779Y0298239D01*
X0210235Y0297600D01*
X0203365Y0297600D01*
X0201821Y0298239D01*
X0200639Y0299421D01*
X0200000Y0300965D01*
X0200000Y0302635D01*
X0200639Y0304179D01*
X0201821Y0305361D01*
X0203365Y0306000D01*
X0210235Y0306000D01*
X0211779Y0305361D01*
X0212940Y0304200D01*
X0217277Y0304200D01*
X0218159Y0303835D01*
X0218835Y0303159D01*
X0223835Y0298159D01*
X0224200Y0297277D01*
X0224200Y0295340D01*
X0226000Y0293540D01*
X0226000Y0290060D01*
X0223540Y0287600D01*
X0225472Y0289532D02*
X0266138Y0289532D01*
X0267736Y0291131D02*
X0226000Y0291131D01*
X0226000Y0292729D02*
X0269335Y0292729D01*
X0269400Y0294328D02*
X0225212Y0294328D01*
X0224200Y0295926D02*
X0269400Y0295926D01*
X0269400Y0297525D02*
X0224098Y0297525D01*
X0222871Y0299123D02*
X0269400Y0299123D01*
X0269400Y0300722D02*
X0221272Y0300722D01*
X0219674Y0302320D02*
X0269400Y0302320D01*
X0269400Y0303919D02*
X0217957Y0303919D01*
X0216800Y0301800D02*
X0206800Y0301800D01*
X0206800Y0296200D02*
X0203854Y0296200D01*
X0203170Y0296092D01*
X0202511Y0295878D01*
X0201894Y0295563D01*
X0201334Y0295156D01*
X0200844Y0294666D01*
X0200437Y0294106D01*
X0200122Y0293489D01*
X0199908Y0292830D01*
X0199800Y0292146D01*
X0199800Y0291800D01*
X0206800Y0291800D01*
X0206800Y0291800D01*
X0206800Y0296200D01*
X0209746Y0296200D01*
X0210430Y0296092D01*
X0211089Y0295878D01*
X0211706Y0295563D01*
X0212266Y0295156D01*
X0212756Y0294666D01*
X0213163Y0294106D01*
X0213478Y0293489D01*
X0213692Y0292830D01*
X0213800Y0292146D01*
X0213800Y0291800D01*
X0206800Y0291800D01*
X0206800Y0291800D01*
X0206800Y0296200D01*
X0206800Y0295926D02*
X0206800Y0295926D01*
X0206800Y0294328D02*
X0206800Y0294328D01*
X0206800Y0292729D02*
X0206800Y0292729D01*
X0206800Y0291800D02*
X0206800Y0291800D01*
X0213800Y0291800D01*
X0213800Y0291454D01*
X0213692Y0290770D01*
X0213478Y0290111D01*
X0213163Y0289494D01*
X0212756Y0288934D01*
X0212266Y0288444D01*
X0211706Y0288037D01*
X0211089Y0287722D01*
X0210430Y0287508D01*
X0209746Y0287400D01*
X0206800Y0287400D01*
X0206800Y0291800D01*
X0206800Y0291800D01*
X0206800Y0287400D01*
X0203854Y0287400D01*
X0203170Y0287508D01*
X0202511Y0287722D01*
X0201894Y0288037D01*
X0201334Y0288444D01*
X0200844Y0288934D01*
X0200437Y0289494D01*
X0200122Y0290111D01*
X0199908Y0290770D01*
X0199800Y0291454D01*
X0199800Y0291800D01*
X0206800Y0291800D01*
X0206800Y0291131D02*
X0206800Y0291131D01*
X0206800Y0289532D02*
X0206800Y0289532D01*
X0206800Y0287934D02*
X0206800Y0287934D01*
X0211503Y0287934D02*
X0219727Y0287934D01*
X0218128Y0289532D02*
X0213183Y0289532D01*
X0213749Y0291131D02*
X0217600Y0291131D01*
X0217600Y0292729D02*
X0213708Y0292729D01*
X0213002Y0294328D02*
X0218388Y0294328D01*
X0219280Y0295926D02*
X0210940Y0295926D01*
X0212663Y0299123D02*
X0216083Y0299123D01*
X0217681Y0297525D02*
X0189098Y0297525D01*
X0189200Y0295926D02*
X0202660Y0295926D01*
X0200598Y0294328D02*
X0190212Y0294328D01*
X0191000Y0292729D02*
X0199892Y0292729D01*
X0199851Y0291131D02*
X0191000Y0291131D01*
X0190472Y0289532D02*
X0200417Y0289532D01*
X0202097Y0287934D02*
X0188873Y0287934D01*
X0186800Y0291800D02*
X0186800Y0296800D01*
X0181800Y0301800D01*
X0171800Y0301800D01*
X0176401Y0305517D02*
X0202199Y0305517D01*
X0200532Y0303919D02*
X0182957Y0303919D01*
X0184674Y0302320D02*
X0200000Y0302320D01*
X0200101Y0300722D02*
X0186272Y0300722D01*
X0187871Y0299123D02*
X0200937Y0299123D01*
X0211401Y0305517D02*
X0269400Y0305517D01*
X0263289Y0325122D02*
X0263906Y0325437D01*
X0264466Y0325844D01*
X0264956Y0326334D01*
X0265363Y0326894D01*
X0265678Y0327511D01*
X0265892Y0328170D01*
X0266000Y0328854D01*
X0266000Y0331800D01*
X0266000Y0334746D01*
X0265892Y0335430D01*
X0265678Y0336089D01*
X0265363Y0336706D01*
X0264956Y0337266D01*
X0264466Y0337756D01*
X0263906Y0338163D01*
X0263289Y0338478D01*
X0262630Y0338692D01*
X0261946Y0338800D01*
X0261600Y0338800D01*
X0261600Y0331800D01*
X0266000Y0331800D01*
X0261600Y0331800D01*
X0261600Y0331800D01*
X0261600Y0331800D01*
X0261600Y0324800D01*
X0261946Y0324800D01*
X0262630Y0324908D01*
X0263289Y0325122D01*
X0261600Y0324800D02*
X0261600Y0331800D01*
X0261600Y0331800D01*
X0261600Y0331800D01*
X0257200Y0331800D01*
X0257200Y0334746D01*
X0257308Y0335430D01*
X0257522Y0336089D01*
X0257837Y0336706D01*
X0258244Y0337266D01*
X0258734Y0337756D01*
X0259294Y0338163D01*
X0259911Y0338478D01*
X0260570Y0338692D01*
X0261254Y0338800D01*
X0261600Y0338800D01*
X0261600Y0331800D01*
X0257200Y0331800D01*
X0257200Y0328854D01*
X0257308Y0328170D01*
X0257522Y0327511D01*
X0257837Y0326894D01*
X0258244Y0326334D01*
X0258734Y0325844D01*
X0259294Y0325437D01*
X0259911Y0325122D01*
X0260570Y0324908D01*
X0261254Y0324800D01*
X0261600Y0324800D01*
X0261600Y0326298D02*
X0261600Y0326298D01*
X0261600Y0327896D02*
X0261600Y0327896D01*
X0261600Y0329495D02*
X0261600Y0329495D01*
X0261600Y0331093D02*
X0261600Y0331093D01*
X0261600Y0332692D02*
X0261600Y0332692D01*
X0261600Y0334290D02*
X0261600Y0334290D01*
X0261600Y0335889D02*
X0261600Y0335889D01*
X0261600Y0337487D02*
X0261600Y0337487D01*
X0264735Y0337487D02*
X0268748Y0337487D01*
X0267671Y0335889D02*
X0265743Y0335889D01*
X0266000Y0334290D02*
X0267400Y0334290D01*
X0267400Y0332692D02*
X0266000Y0332692D01*
X0266000Y0331093D02*
X0267400Y0331093D01*
X0267400Y0329495D02*
X0266000Y0329495D01*
X0265803Y0327896D02*
X0267594Y0327896D01*
X0268563Y0326298D02*
X0264920Y0326298D01*
X0258280Y0326298D02*
X0254637Y0326298D01*
X0255606Y0327896D02*
X0257397Y0327896D01*
X0257200Y0329495D02*
X0255800Y0329495D01*
X0255800Y0331093D02*
X0257200Y0331093D01*
X0257200Y0332692D02*
X0255800Y0332692D01*
X0255800Y0334290D02*
X0257200Y0334290D01*
X0257457Y0335889D02*
X0255529Y0335889D01*
X0254452Y0337487D02*
X0258465Y0337487D01*
X0271600Y0331800D02*
X0271800Y0327000D01*
X0221800Y0296800D02*
X0221800Y0291800D01*
X0221800Y0296800D02*
X0216800Y0301800D01*
X0201346Y0308714D02*
X0199654Y0308714D01*
X0199431Y0315108D02*
X0201569Y0315108D01*
X0166569Y0315108D02*
X0159431Y0315108D01*
X0159654Y0308714D02*
X0166346Y0308714D01*
X0160974Y0339086D02*
X0160026Y0339086D01*
D20*
X0211800Y0061800D02*
X0196800Y0046800D01*
X0196800Y0036800D01*
X0196800Y0031800D01*
X0211800Y0061800D02*
X0251800Y0061800D01*
X0268800Y0036800D01*
M02*
