%
M48
M72
T01C0.03200
T02C0.04000
T03C0.04400
T04C0.11811
T05C0.14200
%
T01
X81800Y101800
X96800Y101800
X111800Y96800
X121800Y96800
X121800Y81800
X111800Y81800
X111800Y111800
X121800Y111800
X96800Y131800
X81800Y131800
X86800Y161800
X71800Y161800
X71800Y191800
X86800Y191800
X40300Y184300
X30300Y184300
X30300Y199300
X40300Y199300
X40300Y214300
X30300Y214300
X96800Y261800
X96800Y291800
X81800Y291800
X81800Y301800
X81800Y311800
X66800Y311800
X66800Y341800
X76800Y341800
X76800Y351800
X116800Y341800
X126800Y341800
X126800Y351800
X126800Y311800
X126800Y301800
X126800Y291800
X141800Y291800
X166800Y311800
X181800Y311800
X181800Y301800
X181800Y291800
X196800Y291800
X216800Y291800
X216800Y301800
X216800Y311800
X206800Y311800
X231800Y291800
X231800Y261800
X196800Y261800
X226800Y221800
X211800Y211800
X201800Y211800
X191800Y211800
X191800Y176800
X201800Y166800
X191800Y156800
X201800Y146800
X192300Y136300
X162300Y136300
X161800Y156800
X161800Y176800
X226800Y191800
X231800Y166800
X231800Y146800
X258400Y163800
X258400Y173800
X258400Y183800
X258400Y193800
X261800Y206800
X251800Y206800
X251800Y216800
X288400Y193800
X288400Y183800
X288400Y173800
X288400Y163800
X264800Y105800
X254800Y105800
X244800Y105800
X250550Y35550
X260550Y35550
X191800Y36800
X181800Y36800
X351800Y201800
X366800Y201800
X381800Y186800
X391800Y186800
X366800Y231800
X351800Y231800
X351600Y331800
X361600Y331800
X341600Y331800
X331600Y331800
X321600Y331800
X311600Y331800
X301600Y331800
X291600Y331800
X281600Y331800
X271600Y331800
X261600Y331800
X251600Y331800
X216800Y341800
X206800Y341800
X216800Y351800
X176800Y351800
X176800Y341800
X166800Y341800
X116800Y311800
X141800Y261800
T02
X46800Y166800
X36800Y166800
X26800Y166800
X116800Y131800
X126800Y131800
X136800Y131800
X276300Y134200
X286300Y149400
X386800Y206800
X386800Y216800
X386800Y226800
T03
X271800Y81800
X231800Y81800
X106800Y206800
X106800Y226800
X66800Y226800
X66800Y206800
X56800Y81800
X56800Y61800
X96800Y61800
X96800Y81800
T04
X41700Y29600
X375800Y28900
X40500Y363900
T05
X331300Y183800
X331300Y29800
M30
