G75*
%MOIN*%
%OFA0B0*%
%FSLAX25Y25*%
%IPPOS*%
%LPD*%
%AMOC8*
5,1,8,0,0,1.08239X$1,22.5*
%
%ADD10C,0.00000*%
%ADD11OC8,0.06000*%
%ADD12OC8,0.07100*%
%ADD13C,0.06000*%
%ADD14C,0.07400*%
%ADD15C,0.06800*%
%ADD16R,0.10800X0.20800*%
%ADD17C,0.06000*%
%ADD18C,0.12611*%
%ADD19OC8,0.10800*%
%ADD20C,0.15000*%
D10*
X0006800Y0001800D02*
X0006800Y0386761D01*
X0401251Y0387011D01*
X0401251Y0002050D01*
X0006800Y0001800D01*
X0035794Y0029600D02*
X0035796Y0029753D01*
X0035802Y0029907D01*
X0035812Y0030060D01*
X0035826Y0030212D01*
X0035844Y0030365D01*
X0035866Y0030516D01*
X0035891Y0030667D01*
X0035921Y0030818D01*
X0035955Y0030968D01*
X0035992Y0031116D01*
X0036033Y0031264D01*
X0036078Y0031410D01*
X0036127Y0031556D01*
X0036180Y0031700D01*
X0036236Y0031842D01*
X0036296Y0031983D01*
X0036360Y0032123D01*
X0036427Y0032261D01*
X0036498Y0032397D01*
X0036573Y0032531D01*
X0036650Y0032663D01*
X0036732Y0032793D01*
X0036816Y0032921D01*
X0036904Y0033047D01*
X0036995Y0033170D01*
X0037089Y0033291D01*
X0037187Y0033409D01*
X0037287Y0033525D01*
X0037391Y0033638D01*
X0037497Y0033749D01*
X0037606Y0033857D01*
X0037718Y0033962D01*
X0037832Y0034063D01*
X0037950Y0034162D01*
X0038069Y0034258D01*
X0038191Y0034351D01*
X0038316Y0034440D01*
X0038443Y0034527D01*
X0038572Y0034609D01*
X0038703Y0034689D01*
X0038836Y0034765D01*
X0038971Y0034838D01*
X0039108Y0034907D01*
X0039247Y0034972D01*
X0039387Y0035034D01*
X0039529Y0035092D01*
X0039672Y0035147D01*
X0039817Y0035198D01*
X0039963Y0035245D01*
X0040110Y0035288D01*
X0040258Y0035327D01*
X0040407Y0035363D01*
X0040557Y0035394D01*
X0040708Y0035422D01*
X0040859Y0035446D01*
X0041012Y0035466D01*
X0041164Y0035482D01*
X0041317Y0035494D01*
X0041470Y0035502D01*
X0041623Y0035506D01*
X0041777Y0035506D01*
X0041930Y0035502D01*
X0042083Y0035494D01*
X0042236Y0035482D01*
X0042388Y0035466D01*
X0042541Y0035446D01*
X0042692Y0035422D01*
X0042843Y0035394D01*
X0042993Y0035363D01*
X0043142Y0035327D01*
X0043290Y0035288D01*
X0043437Y0035245D01*
X0043583Y0035198D01*
X0043728Y0035147D01*
X0043871Y0035092D01*
X0044013Y0035034D01*
X0044153Y0034972D01*
X0044292Y0034907D01*
X0044429Y0034838D01*
X0044564Y0034765D01*
X0044697Y0034689D01*
X0044828Y0034609D01*
X0044957Y0034527D01*
X0045084Y0034440D01*
X0045209Y0034351D01*
X0045331Y0034258D01*
X0045450Y0034162D01*
X0045568Y0034063D01*
X0045682Y0033962D01*
X0045794Y0033857D01*
X0045903Y0033749D01*
X0046009Y0033638D01*
X0046113Y0033525D01*
X0046213Y0033409D01*
X0046311Y0033291D01*
X0046405Y0033170D01*
X0046496Y0033047D01*
X0046584Y0032921D01*
X0046668Y0032793D01*
X0046750Y0032663D01*
X0046827Y0032531D01*
X0046902Y0032397D01*
X0046973Y0032261D01*
X0047040Y0032123D01*
X0047104Y0031983D01*
X0047164Y0031842D01*
X0047220Y0031700D01*
X0047273Y0031556D01*
X0047322Y0031410D01*
X0047367Y0031264D01*
X0047408Y0031116D01*
X0047445Y0030968D01*
X0047479Y0030818D01*
X0047509Y0030667D01*
X0047534Y0030516D01*
X0047556Y0030365D01*
X0047574Y0030212D01*
X0047588Y0030060D01*
X0047598Y0029907D01*
X0047604Y0029753D01*
X0047606Y0029600D01*
X0047604Y0029447D01*
X0047598Y0029293D01*
X0047588Y0029140D01*
X0047574Y0028988D01*
X0047556Y0028835D01*
X0047534Y0028684D01*
X0047509Y0028533D01*
X0047479Y0028382D01*
X0047445Y0028232D01*
X0047408Y0028084D01*
X0047367Y0027936D01*
X0047322Y0027790D01*
X0047273Y0027644D01*
X0047220Y0027500D01*
X0047164Y0027358D01*
X0047104Y0027217D01*
X0047040Y0027077D01*
X0046973Y0026939D01*
X0046902Y0026803D01*
X0046827Y0026669D01*
X0046750Y0026537D01*
X0046668Y0026407D01*
X0046584Y0026279D01*
X0046496Y0026153D01*
X0046405Y0026030D01*
X0046311Y0025909D01*
X0046213Y0025791D01*
X0046113Y0025675D01*
X0046009Y0025562D01*
X0045903Y0025451D01*
X0045794Y0025343D01*
X0045682Y0025238D01*
X0045568Y0025137D01*
X0045450Y0025038D01*
X0045331Y0024942D01*
X0045209Y0024849D01*
X0045084Y0024760D01*
X0044957Y0024673D01*
X0044828Y0024591D01*
X0044697Y0024511D01*
X0044564Y0024435D01*
X0044429Y0024362D01*
X0044292Y0024293D01*
X0044153Y0024228D01*
X0044013Y0024166D01*
X0043871Y0024108D01*
X0043728Y0024053D01*
X0043583Y0024002D01*
X0043437Y0023955D01*
X0043290Y0023912D01*
X0043142Y0023873D01*
X0042993Y0023837D01*
X0042843Y0023806D01*
X0042692Y0023778D01*
X0042541Y0023754D01*
X0042388Y0023734D01*
X0042236Y0023718D01*
X0042083Y0023706D01*
X0041930Y0023698D01*
X0041777Y0023694D01*
X0041623Y0023694D01*
X0041470Y0023698D01*
X0041317Y0023706D01*
X0041164Y0023718D01*
X0041012Y0023734D01*
X0040859Y0023754D01*
X0040708Y0023778D01*
X0040557Y0023806D01*
X0040407Y0023837D01*
X0040258Y0023873D01*
X0040110Y0023912D01*
X0039963Y0023955D01*
X0039817Y0024002D01*
X0039672Y0024053D01*
X0039529Y0024108D01*
X0039387Y0024166D01*
X0039247Y0024228D01*
X0039108Y0024293D01*
X0038971Y0024362D01*
X0038836Y0024435D01*
X0038703Y0024511D01*
X0038572Y0024591D01*
X0038443Y0024673D01*
X0038316Y0024760D01*
X0038191Y0024849D01*
X0038069Y0024942D01*
X0037950Y0025038D01*
X0037832Y0025137D01*
X0037718Y0025238D01*
X0037606Y0025343D01*
X0037497Y0025451D01*
X0037391Y0025562D01*
X0037287Y0025675D01*
X0037187Y0025791D01*
X0037089Y0025909D01*
X0036995Y0026030D01*
X0036904Y0026153D01*
X0036816Y0026279D01*
X0036732Y0026407D01*
X0036650Y0026537D01*
X0036573Y0026669D01*
X0036498Y0026803D01*
X0036427Y0026939D01*
X0036360Y0027077D01*
X0036296Y0027217D01*
X0036236Y0027358D01*
X0036180Y0027500D01*
X0036127Y0027644D01*
X0036078Y0027790D01*
X0036033Y0027936D01*
X0035992Y0028084D01*
X0035955Y0028232D01*
X0035921Y0028382D01*
X0035891Y0028533D01*
X0035866Y0028684D01*
X0035844Y0028835D01*
X0035826Y0028988D01*
X0035812Y0029140D01*
X0035802Y0029293D01*
X0035796Y0029447D01*
X0035794Y0029600D01*
X0324200Y0029800D02*
X0324202Y0029974D01*
X0324209Y0030148D01*
X0324219Y0030322D01*
X0324234Y0030496D01*
X0324253Y0030669D01*
X0324277Y0030842D01*
X0324305Y0031014D01*
X0324336Y0031185D01*
X0324373Y0031356D01*
X0324413Y0031525D01*
X0324457Y0031694D01*
X0324506Y0031861D01*
X0324558Y0032027D01*
X0324615Y0032192D01*
X0324676Y0032355D01*
X0324740Y0032517D01*
X0324809Y0032677D01*
X0324882Y0032836D01*
X0324958Y0032992D01*
X0325038Y0033147D01*
X0325122Y0033300D01*
X0325210Y0033450D01*
X0325302Y0033598D01*
X0325397Y0033745D01*
X0325495Y0033888D01*
X0325597Y0034029D01*
X0325703Y0034168D01*
X0325812Y0034304D01*
X0325924Y0034438D01*
X0326039Y0034568D01*
X0326158Y0034696D01*
X0326280Y0034820D01*
X0326404Y0034942D01*
X0326532Y0035061D01*
X0326662Y0035176D01*
X0326796Y0035288D01*
X0326932Y0035397D01*
X0327071Y0035503D01*
X0327212Y0035605D01*
X0327355Y0035703D01*
X0327502Y0035798D01*
X0327650Y0035890D01*
X0327800Y0035978D01*
X0327953Y0036062D01*
X0328108Y0036142D01*
X0328264Y0036218D01*
X0328423Y0036291D01*
X0328583Y0036360D01*
X0328745Y0036424D01*
X0328908Y0036485D01*
X0329073Y0036542D01*
X0329239Y0036594D01*
X0329406Y0036643D01*
X0329575Y0036687D01*
X0329744Y0036727D01*
X0329915Y0036764D01*
X0330086Y0036795D01*
X0330258Y0036823D01*
X0330431Y0036847D01*
X0330604Y0036866D01*
X0330778Y0036881D01*
X0330952Y0036891D01*
X0331126Y0036898D01*
X0331300Y0036900D01*
X0331474Y0036898D01*
X0331648Y0036891D01*
X0331822Y0036881D01*
X0331996Y0036866D01*
X0332169Y0036847D01*
X0332342Y0036823D01*
X0332514Y0036795D01*
X0332685Y0036764D01*
X0332856Y0036727D01*
X0333025Y0036687D01*
X0333194Y0036643D01*
X0333361Y0036594D01*
X0333527Y0036542D01*
X0333692Y0036485D01*
X0333855Y0036424D01*
X0334017Y0036360D01*
X0334177Y0036291D01*
X0334336Y0036218D01*
X0334492Y0036142D01*
X0334647Y0036062D01*
X0334800Y0035978D01*
X0334950Y0035890D01*
X0335098Y0035798D01*
X0335245Y0035703D01*
X0335388Y0035605D01*
X0335529Y0035503D01*
X0335668Y0035397D01*
X0335804Y0035288D01*
X0335938Y0035176D01*
X0336068Y0035061D01*
X0336196Y0034942D01*
X0336320Y0034820D01*
X0336442Y0034696D01*
X0336561Y0034568D01*
X0336676Y0034438D01*
X0336788Y0034304D01*
X0336897Y0034168D01*
X0337003Y0034029D01*
X0337105Y0033888D01*
X0337203Y0033745D01*
X0337298Y0033598D01*
X0337390Y0033450D01*
X0337478Y0033300D01*
X0337562Y0033147D01*
X0337642Y0032992D01*
X0337718Y0032836D01*
X0337791Y0032677D01*
X0337860Y0032517D01*
X0337924Y0032355D01*
X0337985Y0032192D01*
X0338042Y0032027D01*
X0338094Y0031861D01*
X0338143Y0031694D01*
X0338187Y0031525D01*
X0338227Y0031356D01*
X0338264Y0031185D01*
X0338295Y0031014D01*
X0338323Y0030842D01*
X0338347Y0030669D01*
X0338366Y0030496D01*
X0338381Y0030322D01*
X0338391Y0030148D01*
X0338398Y0029974D01*
X0338400Y0029800D01*
X0338398Y0029626D01*
X0338391Y0029452D01*
X0338381Y0029278D01*
X0338366Y0029104D01*
X0338347Y0028931D01*
X0338323Y0028758D01*
X0338295Y0028586D01*
X0338264Y0028415D01*
X0338227Y0028244D01*
X0338187Y0028075D01*
X0338143Y0027906D01*
X0338094Y0027739D01*
X0338042Y0027573D01*
X0337985Y0027408D01*
X0337924Y0027245D01*
X0337860Y0027083D01*
X0337791Y0026923D01*
X0337718Y0026764D01*
X0337642Y0026608D01*
X0337562Y0026453D01*
X0337478Y0026300D01*
X0337390Y0026150D01*
X0337298Y0026002D01*
X0337203Y0025855D01*
X0337105Y0025712D01*
X0337003Y0025571D01*
X0336897Y0025432D01*
X0336788Y0025296D01*
X0336676Y0025162D01*
X0336561Y0025032D01*
X0336442Y0024904D01*
X0336320Y0024780D01*
X0336196Y0024658D01*
X0336068Y0024539D01*
X0335938Y0024424D01*
X0335804Y0024312D01*
X0335668Y0024203D01*
X0335529Y0024097D01*
X0335388Y0023995D01*
X0335245Y0023897D01*
X0335098Y0023802D01*
X0334950Y0023710D01*
X0334800Y0023622D01*
X0334647Y0023538D01*
X0334492Y0023458D01*
X0334336Y0023382D01*
X0334177Y0023309D01*
X0334017Y0023240D01*
X0333855Y0023176D01*
X0333692Y0023115D01*
X0333527Y0023058D01*
X0333361Y0023006D01*
X0333194Y0022957D01*
X0333025Y0022913D01*
X0332856Y0022873D01*
X0332685Y0022836D01*
X0332514Y0022805D01*
X0332342Y0022777D01*
X0332169Y0022753D01*
X0331996Y0022734D01*
X0331822Y0022719D01*
X0331648Y0022709D01*
X0331474Y0022702D01*
X0331300Y0022700D01*
X0331126Y0022702D01*
X0330952Y0022709D01*
X0330778Y0022719D01*
X0330604Y0022734D01*
X0330431Y0022753D01*
X0330258Y0022777D01*
X0330086Y0022805D01*
X0329915Y0022836D01*
X0329744Y0022873D01*
X0329575Y0022913D01*
X0329406Y0022957D01*
X0329239Y0023006D01*
X0329073Y0023058D01*
X0328908Y0023115D01*
X0328745Y0023176D01*
X0328583Y0023240D01*
X0328423Y0023309D01*
X0328264Y0023382D01*
X0328108Y0023458D01*
X0327953Y0023538D01*
X0327800Y0023622D01*
X0327650Y0023710D01*
X0327502Y0023802D01*
X0327355Y0023897D01*
X0327212Y0023995D01*
X0327071Y0024097D01*
X0326932Y0024203D01*
X0326796Y0024312D01*
X0326662Y0024424D01*
X0326532Y0024539D01*
X0326404Y0024658D01*
X0326280Y0024780D01*
X0326158Y0024904D01*
X0326039Y0025032D01*
X0325924Y0025162D01*
X0325812Y0025296D01*
X0325703Y0025432D01*
X0325597Y0025571D01*
X0325495Y0025712D01*
X0325397Y0025855D01*
X0325302Y0026002D01*
X0325210Y0026150D01*
X0325122Y0026300D01*
X0325038Y0026453D01*
X0324958Y0026608D01*
X0324882Y0026764D01*
X0324809Y0026923D01*
X0324740Y0027083D01*
X0324676Y0027245D01*
X0324615Y0027408D01*
X0324558Y0027573D01*
X0324506Y0027739D01*
X0324457Y0027906D01*
X0324413Y0028075D01*
X0324373Y0028244D01*
X0324336Y0028415D01*
X0324305Y0028586D01*
X0324277Y0028758D01*
X0324253Y0028931D01*
X0324234Y0029104D01*
X0324219Y0029278D01*
X0324209Y0029452D01*
X0324202Y0029626D01*
X0324200Y0029800D01*
X0369894Y0028900D02*
X0369896Y0029053D01*
X0369902Y0029207D01*
X0369912Y0029360D01*
X0369926Y0029512D01*
X0369944Y0029665D01*
X0369966Y0029816D01*
X0369991Y0029967D01*
X0370021Y0030118D01*
X0370055Y0030268D01*
X0370092Y0030416D01*
X0370133Y0030564D01*
X0370178Y0030710D01*
X0370227Y0030856D01*
X0370280Y0031000D01*
X0370336Y0031142D01*
X0370396Y0031283D01*
X0370460Y0031423D01*
X0370527Y0031561D01*
X0370598Y0031697D01*
X0370673Y0031831D01*
X0370750Y0031963D01*
X0370832Y0032093D01*
X0370916Y0032221D01*
X0371004Y0032347D01*
X0371095Y0032470D01*
X0371189Y0032591D01*
X0371287Y0032709D01*
X0371387Y0032825D01*
X0371491Y0032938D01*
X0371597Y0033049D01*
X0371706Y0033157D01*
X0371818Y0033262D01*
X0371932Y0033363D01*
X0372050Y0033462D01*
X0372169Y0033558D01*
X0372291Y0033651D01*
X0372416Y0033740D01*
X0372543Y0033827D01*
X0372672Y0033909D01*
X0372803Y0033989D01*
X0372936Y0034065D01*
X0373071Y0034138D01*
X0373208Y0034207D01*
X0373347Y0034272D01*
X0373487Y0034334D01*
X0373629Y0034392D01*
X0373772Y0034447D01*
X0373917Y0034498D01*
X0374063Y0034545D01*
X0374210Y0034588D01*
X0374358Y0034627D01*
X0374507Y0034663D01*
X0374657Y0034694D01*
X0374808Y0034722D01*
X0374959Y0034746D01*
X0375112Y0034766D01*
X0375264Y0034782D01*
X0375417Y0034794D01*
X0375570Y0034802D01*
X0375723Y0034806D01*
X0375877Y0034806D01*
X0376030Y0034802D01*
X0376183Y0034794D01*
X0376336Y0034782D01*
X0376488Y0034766D01*
X0376641Y0034746D01*
X0376792Y0034722D01*
X0376943Y0034694D01*
X0377093Y0034663D01*
X0377242Y0034627D01*
X0377390Y0034588D01*
X0377537Y0034545D01*
X0377683Y0034498D01*
X0377828Y0034447D01*
X0377971Y0034392D01*
X0378113Y0034334D01*
X0378253Y0034272D01*
X0378392Y0034207D01*
X0378529Y0034138D01*
X0378664Y0034065D01*
X0378797Y0033989D01*
X0378928Y0033909D01*
X0379057Y0033827D01*
X0379184Y0033740D01*
X0379309Y0033651D01*
X0379431Y0033558D01*
X0379550Y0033462D01*
X0379668Y0033363D01*
X0379782Y0033262D01*
X0379894Y0033157D01*
X0380003Y0033049D01*
X0380109Y0032938D01*
X0380213Y0032825D01*
X0380313Y0032709D01*
X0380411Y0032591D01*
X0380505Y0032470D01*
X0380596Y0032347D01*
X0380684Y0032221D01*
X0380768Y0032093D01*
X0380850Y0031963D01*
X0380927Y0031831D01*
X0381002Y0031697D01*
X0381073Y0031561D01*
X0381140Y0031423D01*
X0381204Y0031283D01*
X0381264Y0031142D01*
X0381320Y0031000D01*
X0381373Y0030856D01*
X0381422Y0030710D01*
X0381467Y0030564D01*
X0381508Y0030416D01*
X0381545Y0030268D01*
X0381579Y0030118D01*
X0381609Y0029967D01*
X0381634Y0029816D01*
X0381656Y0029665D01*
X0381674Y0029512D01*
X0381688Y0029360D01*
X0381698Y0029207D01*
X0381704Y0029053D01*
X0381706Y0028900D01*
X0381704Y0028747D01*
X0381698Y0028593D01*
X0381688Y0028440D01*
X0381674Y0028288D01*
X0381656Y0028135D01*
X0381634Y0027984D01*
X0381609Y0027833D01*
X0381579Y0027682D01*
X0381545Y0027532D01*
X0381508Y0027384D01*
X0381467Y0027236D01*
X0381422Y0027090D01*
X0381373Y0026944D01*
X0381320Y0026800D01*
X0381264Y0026658D01*
X0381204Y0026517D01*
X0381140Y0026377D01*
X0381073Y0026239D01*
X0381002Y0026103D01*
X0380927Y0025969D01*
X0380850Y0025837D01*
X0380768Y0025707D01*
X0380684Y0025579D01*
X0380596Y0025453D01*
X0380505Y0025330D01*
X0380411Y0025209D01*
X0380313Y0025091D01*
X0380213Y0024975D01*
X0380109Y0024862D01*
X0380003Y0024751D01*
X0379894Y0024643D01*
X0379782Y0024538D01*
X0379668Y0024437D01*
X0379550Y0024338D01*
X0379431Y0024242D01*
X0379309Y0024149D01*
X0379184Y0024060D01*
X0379057Y0023973D01*
X0378928Y0023891D01*
X0378797Y0023811D01*
X0378664Y0023735D01*
X0378529Y0023662D01*
X0378392Y0023593D01*
X0378253Y0023528D01*
X0378113Y0023466D01*
X0377971Y0023408D01*
X0377828Y0023353D01*
X0377683Y0023302D01*
X0377537Y0023255D01*
X0377390Y0023212D01*
X0377242Y0023173D01*
X0377093Y0023137D01*
X0376943Y0023106D01*
X0376792Y0023078D01*
X0376641Y0023054D01*
X0376488Y0023034D01*
X0376336Y0023018D01*
X0376183Y0023006D01*
X0376030Y0022998D01*
X0375877Y0022994D01*
X0375723Y0022994D01*
X0375570Y0022998D01*
X0375417Y0023006D01*
X0375264Y0023018D01*
X0375112Y0023034D01*
X0374959Y0023054D01*
X0374808Y0023078D01*
X0374657Y0023106D01*
X0374507Y0023137D01*
X0374358Y0023173D01*
X0374210Y0023212D01*
X0374063Y0023255D01*
X0373917Y0023302D01*
X0373772Y0023353D01*
X0373629Y0023408D01*
X0373487Y0023466D01*
X0373347Y0023528D01*
X0373208Y0023593D01*
X0373071Y0023662D01*
X0372936Y0023735D01*
X0372803Y0023811D01*
X0372672Y0023891D01*
X0372543Y0023973D01*
X0372416Y0024060D01*
X0372291Y0024149D01*
X0372169Y0024242D01*
X0372050Y0024338D01*
X0371932Y0024437D01*
X0371818Y0024538D01*
X0371706Y0024643D01*
X0371597Y0024751D01*
X0371491Y0024862D01*
X0371387Y0024975D01*
X0371287Y0025091D01*
X0371189Y0025209D01*
X0371095Y0025330D01*
X0371004Y0025453D01*
X0370916Y0025579D01*
X0370832Y0025707D01*
X0370750Y0025837D01*
X0370673Y0025969D01*
X0370598Y0026103D01*
X0370527Y0026239D01*
X0370460Y0026377D01*
X0370396Y0026517D01*
X0370336Y0026658D01*
X0370280Y0026800D01*
X0370227Y0026944D01*
X0370178Y0027090D01*
X0370133Y0027236D01*
X0370092Y0027384D01*
X0370055Y0027532D01*
X0370021Y0027682D01*
X0369991Y0027833D01*
X0369966Y0027984D01*
X0369944Y0028135D01*
X0369926Y0028288D01*
X0369912Y0028440D01*
X0369902Y0028593D01*
X0369896Y0028747D01*
X0369894Y0028900D01*
X0324200Y0183800D02*
X0324202Y0183974D01*
X0324209Y0184148D01*
X0324219Y0184322D01*
X0324234Y0184496D01*
X0324253Y0184669D01*
X0324277Y0184842D01*
X0324305Y0185014D01*
X0324336Y0185185D01*
X0324373Y0185356D01*
X0324413Y0185525D01*
X0324457Y0185694D01*
X0324506Y0185861D01*
X0324558Y0186027D01*
X0324615Y0186192D01*
X0324676Y0186355D01*
X0324740Y0186517D01*
X0324809Y0186677D01*
X0324882Y0186836D01*
X0324958Y0186992D01*
X0325038Y0187147D01*
X0325122Y0187300D01*
X0325210Y0187450D01*
X0325302Y0187598D01*
X0325397Y0187745D01*
X0325495Y0187888D01*
X0325597Y0188029D01*
X0325703Y0188168D01*
X0325812Y0188304D01*
X0325924Y0188438D01*
X0326039Y0188568D01*
X0326158Y0188696D01*
X0326280Y0188820D01*
X0326404Y0188942D01*
X0326532Y0189061D01*
X0326662Y0189176D01*
X0326796Y0189288D01*
X0326932Y0189397D01*
X0327071Y0189503D01*
X0327212Y0189605D01*
X0327355Y0189703D01*
X0327502Y0189798D01*
X0327650Y0189890D01*
X0327800Y0189978D01*
X0327953Y0190062D01*
X0328108Y0190142D01*
X0328264Y0190218D01*
X0328423Y0190291D01*
X0328583Y0190360D01*
X0328745Y0190424D01*
X0328908Y0190485D01*
X0329073Y0190542D01*
X0329239Y0190594D01*
X0329406Y0190643D01*
X0329575Y0190687D01*
X0329744Y0190727D01*
X0329915Y0190764D01*
X0330086Y0190795D01*
X0330258Y0190823D01*
X0330431Y0190847D01*
X0330604Y0190866D01*
X0330778Y0190881D01*
X0330952Y0190891D01*
X0331126Y0190898D01*
X0331300Y0190900D01*
X0331474Y0190898D01*
X0331648Y0190891D01*
X0331822Y0190881D01*
X0331996Y0190866D01*
X0332169Y0190847D01*
X0332342Y0190823D01*
X0332514Y0190795D01*
X0332685Y0190764D01*
X0332856Y0190727D01*
X0333025Y0190687D01*
X0333194Y0190643D01*
X0333361Y0190594D01*
X0333527Y0190542D01*
X0333692Y0190485D01*
X0333855Y0190424D01*
X0334017Y0190360D01*
X0334177Y0190291D01*
X0334336Y0190218D01*
X0334492Y0190142D01*
X0334647Y0190062D01*
X0334800Y0189978D01*
X0334950Y0189890D01*
X0335098Y0189798D01*
X0335245Y0189703D01*
X0335388Y0189605D01*
X0335529Y0189503D01*
X0335668Y0189397D01*
X0335804Y0189288D01*
X0335938Y0189176D01*
X0336068Y0189061D01*
X0336196Y0188942D01*
X0336320Y0188820D01*
X0336442Y0188696D01*
X0336561Y0188568D01*
X0336676Y0188438D01*
X0336788Y0188304D01*
X0336897Y0188168D01*
X0337003Y0188029D01*
X0337105Y0187888D01*
X0337203Y0187745D01*
X0337298Y0187598D01*
X0337390Y0187450D01*
X0337478Y0187300D01*
X0337562Y0187147D01*
X0337642Y0186992D01*
X0337718Y0186836D01*
X0337791Y0186677D01*
X0337860Y0186517D01*
X0337924Y0186355D01*
X0337985Y0186192D01*
X0338042Y0186027D01*
X0338094Y0185861D01*
X0338143Y0185694D01*
X0338187Y0185525D01*
X0338227Y0185356D01*
X0338264Y0185185D01*
X0338295Y0185014D01*
X0338323Y0184842D01*
X0338347Y0184669D01*
X0338366Y0184496D01*
X0338381Y0184322D01*
X0338391Y0184148D01*
X0338398Y0183974D01*
X0338400Y0183800D01*
X0338398Y0183626D01*
X0338391Y0183452D01*
X0338381Y0183278D01*
X0338366Y0183104D01*
X0338347Y0182931D01*
X0338323Y0182758D01*
X0338295Y0182586D01*
X0338264Y0182415D01*
X0338227Y0182244D01*
X0338187Y0182075D01*
X0338143Y0181906D01*
X0338094Y0181739D01*
X0338042Y0181573D01*
X0337985Y0181408D01*
X0337924Y0181245D01*
X0337860Y0181083D01*
X0337791Y0180923D01*
X0337718Y0180764D01*
X0337642Y0180608D01*
X0337562Y0180453D01*
X0337478Y0180300D01*
X0337390Y0180150D01*
X0337298Y0180002D01*
X0337203Y0179855D01*
X0337105Y0179712D01*
X0337003Y0179571D01*
X0336897Y0179432D01*
X0336788Y0179296D01*
X0336676Y0179162D01*
X0336561Y0179032D01*
X0336442Y0178904D01*
X0336320Y0178780D01*
X0336196Y0178658D01*
X0336068Y0178539D01*
X0335938Y0178424D01*
X0335804Y0178312D01*
X0335668Y0178203D01*
X0335529Y0178097D01*
X0335388Y0177995D01*
X0335245Y0177897D01*
X0335098Y0177802D01*
X0334950Y0177710D01*
X0334800Y0177622D01*
X0334647Y0177538D01*
X0334492Y0177458D01*
X0334336Y0177382D01*
X0334177Y0177309D01*
X0334017Y0177240D01*
X0333855Y0177176D01*
X0333692Y0177115D01*
X0333527Y0177058D01*
X0333361Y0177006D01*
X0333194Y0176957D01*
X0333025Y0176913D01*
X0332856Y0176873D01*
X0332685Y0176836D01*
X0332514Y0176805D01*
X0332342Y0176777D01*
X0332169Y0176753D01*
X0331996Y0176734D01*
X0331822Y0176719D01*
X0331648Y0176709D01*
X0331474Y0176702D01*
X0331300Y0176700D01*
X0331126Y0176702D01*
X0330952Y0176709D01*
X0330778Y0176719D01*
X0330604Y0176734D01*
X0330431Y0176753D01*
X0330258Y0176777D01*
X0330086Y0176805D01*
X0329915Y0176836D01*
X0329744Y0176873D01*
X0329575Y0176913D01*
X0329406Y0176957D01*
X0329239Y0177006D01*
X0329073Y0177058D01*
X0328908Y0177115D01*
X0328745Y0177176D01*
X0328583Y0177240D01*
X0328423Y0177309D01*
X0328264Y0177382D01*
X0328108Y0177458D01*
X0327953Y0177538D01*
X0327800Y0177622D01*
X0327650Y0177710D01*
X0327502Y0177802D01*
X0327355Y0177897D01*
X0327212Y0177995D01*
X0327071Y0178097D01*
X0326932Y0178203D01*
X0326796Y0178312D01*
X0326662Y0178424D01*
X0326532Y0178539D01*
X0326404Y0178658D01*
X0326280Y0178780D01*
X0326158Y0178904D01*
X0326039Y0179032D01*
X0325924Y0179162D01*
X0325812Y0179296D01*
X0325703Y0179432D01*
X0325597Y0179571D01*
X0325495Y0179712D01*
X0325397Y0179855D01*
X0325302Y0180002D01*
X0325210Y0180150D01*
X0325122Y0180300D01*
X0325038Y0180453D01*
X0324958Y0180608D01*
X0324882Y0180764D01*
X0324809Y0180923D01*
X0324740Y0181083D01*
X0324676Y0181245D01*
X0324615Y0181408D01*
X0324558Y0181573D01*
X0324506Y0181739D01*
X0324457Y0181906D01*
X0324413Y0182075D01*
X0324373Y0182244D01*
X0324336Y0182415D01*
X0324305Y0182586D01*
X0324277Y0182758D01*
X0324253Y0182931D01*
X0324234Y0183104D01*
X0324219Y0183278D01*
X0324209Y0183452D01*
X0324202Y0183626D01*
X0324200Y0183800D01*
X0034594Y0363900D02*
X0034596Y0364053D01*
X0034602Y0364207D01*
X0034612Y0364360D01*
X0034626Y0364512D01*
X0034644Y0364665D01*
X0034666Y0364816D01*
X0034691Y0364967D01*
X0034721Y0365118D01*
X0034755Y0365268D01*
X0034792Y0365416D01*
X0034833Y0365564D01*
X0034878Y0365710D01*
X0034927Y0365856D01*
X0034980Y0366000D01*
X0035036Y0366142D01*
X0035096Y0366283D01*
X0035160Y0366423D01*
X0035227Y0366561D01*
X0035298Y0366697D01*
X0035373Y0366831D01*
X0035450Y0366963D01*
X0035532Y0367093D01*
X0035616Y0367221D01*
X0035704Y0367347D01*
X0035795Y0367470D01*
X0035889Y0367591D01*
X0035987Y0367709D01*
X0036087Y0367825D01*
X0036191Y0367938D01*
X0036297Y0368049D01*
X0036406Y0368157D01*
X0036518Y0368262D01*
X0036632Y0368363D01*
X0036750Y0368462D01*
X0036869Y0368558D01*
X0036991Y0368651D01*
X0037116Y0368740D01*
X0037243Y0368827D01*
X0037372Y0368909D01*
X0037503Y0368989D01*
X0037636Y0369065D01*
X0037771Y0369138D01*
X0037908Y0369207D01*
X0038047Y0369272D01*
X0038187Y0369334D01*
X0038329Y0369392D01*
X0038472Y0369447D01*
X0038617Y0369498D01*
X0038763Y0369545D01*
X0038910Y0369588D01*
X0039058Y0369627D01*
X0039207Y0369663D01*
X0039357Y0369694D01*
X0039508Y0369722D01*
X0039659Y0369746D01*
X0039812Y0369766D01*
X0039964Y0369782D01*
X0040117Y0369794D01*
X0040270Y0369802D01*
X0040423Y0369806D01*
X0040577Y0369806D01*
X0040730Y0369802D01*
X0040883Y0369794D01*
X0041036Y0369782D01*
X0041188Y0369766D01*
X0041341Y0369746D01*
X0041492Y0369722D01*
X0041643Y0369694D01*
X0041793Y0369663D01*
X0041942Y0369627D01*
X0042090Y0369588D01*
X0042237Y0369545D01*
X0042383Y0369498D01*
X0042528Y0369447D01*
X0042671Y0369392D01*
X0042813Y0369334D01*
X0042953Y0369272D01*
X0043092Y0369207D01*
X0043229Y0369138D01*
X0043364Y0369065D01*
X0043497Y0368989D01*
X0043628Y0368909D01*
X0043757Y0368827D01*
X0043884Y0368740D01*
X0044009Y0368651D01*
X0044131Y0368558D01*
X0044250Y0368462D01*
X0044368Y0368363D01*
X0044482Y0368262D01*
X0044594Y0368157D01*
X0044703Y0368049D01*
X0044809Y0367938D01*
X0044913Y0367825D01*
X0045013Y0367709D01*
X0045111Y0367591D01*
X0045205Y0367470D01*
X0045296Y0367347D01*
X0045384Y0367221D01*
X0045468Y0367093D01*
X0045550Y0366963D01*
X0045627Y0366831D01*
X0045702Y0366697D01*
X0045773Y0366561D01*
X0045840Y0366423D01*
X0045904Y0366283D01*
X0045964Y0366142D01*
X0046020Y0366000D01*
X0046073Y0365856D01*
X0046122Y0365710D01*
X0046167Y0365564D01*
X0046208Y0365416D01*
X0046245Y0365268D01*
X0046279Y0365118D01*
X0046309Y0364967D01*
X0046334Y0364816D01*
X0046356Y0364665D01*
X0046374Y0364512D01*
X0046388Y0364360D01*
X0046398Y0364207D01*
X0046404Y0364053D01*
X0046406Y0363900D01*
X0046404Y0363747D01*
X0046398Y0363593D01*
X0046388Y0363440D01*
X0046374Y0363288D01*
X0046356Y0363135D01*
X0046334Y0362984D01*
X0046309Y0362833D01*
X0046279Y0362682D01*
X0046245Y0362532D01*
X0046208Y0362384D01*
X0046167Y0362236D01*
X0046122Y0362090D01*
X0046073Y0361944D01*
X0046020Y0361800D01*
X0045964Y0361658D01*
X0045904Y0361517D01*
X0045840Y0361377D01*
X0045773Y0361239D01*
X0045702Y0361103D01*
X0045627Y0360969D01*
X0045550Y0360837D01*
X0045468Y0360707D01*
X0045384Y0360579D01*
X0045296Y0360453D01*
X0045205Y0360330D01*
X0045111Y0360209D01*
X0045013Y0360091D01*
X0044913Y0359975D01*
X0044809Y0359862D01*
X0044703Y0359751D01*
X0044594Y0359643D01*
X0044482Y0359538D01*
X0044368Y0359437D01*
X0044250Y0359338D01*
X0044131Y0359242D01*
X0044009Y0359149D01*
X0043884Y0359060D01*
X0043757Y0358973D01*
X0043628Y0358891D01*
X0043497Y0358811D01*
X0043364Y0358735D01*
X0043229Y0358662D01*
X0043092Y0358593D01*
X0042953Y0358528D01*
X0042813Y0358466D01*
X0042671Y0358408D01*
X0042528Y0358353D01*
X0042383Y0358302D01*
X0042237Y0358255D01*
X0042090Y0358212D01*
X0041942Y0358173D01*
X0041793Y0358137D01*
X0041643Y0358106D01*
X0041492Y0358078D01*
X0041341Y0358054D01*
X0041188Y0358034D01*
X0041036Y0358018D01*
X0040883Y0358006D01*
X0040730Y0357998D01*
X0040577Y0357994D01*
X0040423Y0357994D01*
X0040270Y0357998D01*
X0040117Y0358006D01*
X0039964Y0358018D01*
X0039812Y0358034D01*
X0039659Y0358054D01*
X0039508Y0358078D01*
X0039357Y0358106D01*
X0039207Y0358137D01*
X0039058Y0358173D01*
X0038910Y0358212D01*
X0038763Y0358255D01*
X0038617Y0358302D01*
X0038472Y0358353D01*
X0038329Y0358408D01*
X0038187Y0358466D01*
X0038047Y0358528D01*
X0037908Y0358593D01*
X0037771Y0358662D01*
X0037636Y0358735D01*
X0037503Y0358811D01*
X0037372Y0358891D01*
X0037243Y0358973D01*
X0037116Y0359060D01*
X0036991Y0359149D01*
X0036869Y0359242D01*
X0036750Y0359338D01*
X0036632Y0359437D01*
X0036518Y0359538D01*
X0036406Y0359643D01*
X0036297Y0359751D01*
X0036191Y0359862D01*
X0036087Y0359975D01*
X0035987Y0360091D01*
X0035889Y0360209D01*
X0035795Y0360330D01*
X0035704Y0360453D01*
X0035616Y0360579D01*
X0035532Y0360707D01*
X0035450Y0360837D01*
X0035373Y0360969D01*
X0035298Y0361103D01*
X0035227Y0361239D01*
X0035160Y0361377D01*
X0035096Y0361517D01*
X0035036Y0361658D01*
X0034980Y0361800D01*
X0034927Y0361944D01*
X0034878Y0362090D01*
X0034833Y0362236D01*
X0034792Y0362384D01*
X0034755Y0362532D01*
X0034721Y0362682D01*
X0034691Y0362833D01*
X0034666Y0362984D01*
X0034644Y0363135D01*
X0034626Y0363288D01*
X0034612Y0363440D01*
X0034602Y0363593D01*
X0034596Y0363747D01*
X0034594Y0363900D01*
D11*
X0066800Y0341800D03*
X0066800Y0311800D03*
X0096800Y0291800D03*
X0116800Y0311800D03*
X0116800Y0341800D03*
X0141800Y0291800D03*
X0166800Y0311800D03*
X0166800Y0341800D03*
X0206800Y0341800D03*
X0206800Y0311800D03*
X0196800Y0291800D03*
X0196800Y0261800D03*
X0231800Y0261800D03*
X0231800Y0291800D03*
X0226800Y0221800D03*
X0251800Y0216800D03*
X0251800Y0206800D03*
X0261800Y0206800D03*
X0226800Y0191800D03*
X0231800Y0166800D03*
X0231800Y0146800D03*
X0201800Y0146800D03*
X0191800Y0156800D03*
X0201800Y0166800D03*
X0191800Y0176800D03*
X0161800Y0176800D03*
X0161800Y0156800D03*
X0162300Y0136300D03*
X0192300Y0136300D03*
X0096800Y0131800D03*
X0081800Y0131800D03*
X0081800Y0101800D03*
X0096800Y0101800D03*
X0086800Y0161800D03*
X0071800Y0161800D03*
X0071800Y0191800D03*
X0086800Y0191800D03*
X0096800Y0261800D03*
X0141800Y0261800D03*
X0351800Y0231800D03*
X0366800Y0231800D03*
X0366800Y0201800D03*
X0351800Y0201800D03*
X0381800Y0186800D03*
X0391800Y0186800D03*
D12*
X0260550Y0035550D03*
X0250550Y0035550D03*
X0191800Y0036800D03*
X0181800Y0036800D03*
X0121800Y0081800D03*
X0111800Y0081800D03*
X0111800Y0096800D03*
X0121800Y0096800D03*
X0121800Y0111800D03*
X0111800Y0111800D03*
X0040300Y0184300D03*
X0030300Y0184300D03*
X0030300Y0199300D03*
X0040300Y0199300D03*
X0040300Y0214300D03*
X0030300Y0214300D03*
D13*
X0079200Y0291800D02*
X0084400Y0291800D01*
X0084400Y0301800D02*
X0079200Y0301800D01*
X0079200Y0311800D02*
X0084400Y0311800D01*
X0079400Y0341800D02*
X0074200Y0341800D01*
X0074200Y0351800D02*
X0079400Y0351800D01*
X0124200Y0351800D02*
X0129400Y0351800D01*
X0129400Y0341800D02*
X0124200Y0341800D01*
X0124200Y0311800D02*
X0129400Y0311800D01*
X0129400Y0301800D02*
X0124200Y0301800D01*
X0124200Y0291800D02*
X0129400Y0291800D01*
X0179200Y0291800D02*
X0184400Y0291800D01*
X0184400Y0301800D02*
X0179200Y0301800D01*
X0179200Y0311800D02*
X0184400Y0311800D01*
X0179400Y0341800D02*
X0174200Y0341800D01*
X0174200Y0351800D02*
X0179400Y0351800D01*
X0214200Y0351800D02*
X0219400Y0351800D01*
X0219400Y0341800D02*
X0214200Y0341800D01*
X0214200Y0311800D02*
X0219400Y0311800D01*
X0219400Y0301800D02*
X0214200Y0301800D01*
X0214200Y0291800D02*
X0219400Y0291800D01*
X0251600Y0329200D02*
X0251600Y0334400D01*
X0261600Y0334400D02*
X0261600Y0329200D01*
X0271600Y0329200D02*
X0271600Y0334400D01*
X0281600Y0334400D02*
X0281600Y0329200D01*
X0291600Y0329200D02*
X0291600Y0334400D01*
X0301600Y0334400D02*
X0301600Y0329200D01*
X0311600Y0329200D02*
X0311600Y0334400D01*
X0321600Y0334400D02*
X0321600Y0329200D01*
X0331600Y0329200D02*
X0331600Y0334400D01*
X0341600Y0334400D02*
X0341600Y0329200D01*
X0351600Y0329200D02*
X0351600Y0334400D01*
X0361600Y0334400D02*
X0361600Y0329200D01*
X0211800Y0214400D02*
X0211800Y0209200D01*
X0201800Y0209200D02*
X0201800Y0214400D01*
X0191800Y0214400D02*
X0191800Y0209200D01*
X0244800Y0108400D02*
X0244800Y0103200D01*
X0254800Y0103200D02*
X0254800Y0108400D01*
X0264800Y0108400D02*
X0264800Y0103200D01*
D14*
X0271800Y0081800D03*
X0231800Y0081800D03*
X0106800Y0206800D03*
X0106800Y0226800D03*
X0066800Y0226800D03*
X0066800Y0206800D03*
X0056800Y0081800D03*
X0056800Y0061800D03*
X0096800Y0061800D03*
X0096800Y0081800D03*
D15*
X0116800Y0128800D02*
X0116800Y0134800D01*
X0126800Y0134800D02*
X0126800Y0128800D01*
X0136800Y0128800D02*
X0136800Y0134800D01*
X0046800Y0163800D02*
X0046800Y0169800D01*
X0036800Y0169800D02*
X0036800Y0163800D01*
X0026800Y0163800D02*
X0026800Y0169800D01*
X0383800Y0206800D02*
X0389800Y0206800D01*
X0389800Y0216800D02*
X0383800Y0216800D01*
X0383800Y0226800D02*
X0389800Y0226800D01*
D16*
X0278800Y0036800D03*
X0231800Y0036800D03*
X0206800Y0036800D03*
X0166800Y0036800D03*
D17*
X0258400Y0163800D03*
X0258400Y0173800D03*
X0258400Y0183800D03*
X0258400Y0193800D03*
X0288400Y0193800D03*
X0288400Y0183800D03*
X0288400Y0173800D03*
X0288400Y0163800D03*
D18*
X0375800Y0028900D03*
X0041700Y0029600D03*
X0040500Y0363900D03*
D19*
X0276300Y0134200D03*
X0286300Y0149400D03*
D20*
X0331300Y0183800D03*
X0331300Y0029800D03*
M02*
