%
M48
M72
T01C0.03200
T02C0.04000
T03C0.04400
T04C0.11811
T05C0.14200
%
T01
X101800Y81800
X111800Y81800
X111800Y96800
X101800Y96800
X86800Y101800
X101800Y111800
X111800Y111800
X86800Y131800
X71800Y131800
X71800Y101800
X76800Y161800
X61800Y161800
X61800Y191800
X76800Y191800
X30300Y184300
X20300Y184300
X20300Y199300
X30300Y199300
X30300Y214300
X20300Y214300
X86800Y261800
X86800Y291800
X71800Y291800
X71800Y301800
X71800Y311800
X56800Y311800
X56800Y341800
X66800Y341800
X66800Y351800
X106800Y341800
X116800Y341800
X116800Y351800
X116800Y311800
X106800Y311800
X116800Y301800
X116800Y291800
X131800Y291800
X156800Y311800
X171800Y311800
X171800Y301800
X171800Y291800
X186800Y291800
X206800Y291800
X206800Y301800
X206800Y311800
X196800Y311800
X221800Y291800
X221800Y261800
X186800Y261800
X216800Y221800
X201800Y211800
X191800Y211800
X181800Y211800
X181800Y176800
X191800Y166800
X181800Y156800
X191800Y146800
X182300Y136300
X152300Y136300
X151800Y156800
X151800Y176800
X216800Y191800
X241800Y206800
X251800Y206800
X248400Y193800
X248400Y183800
X248400Y173800
X248400Y163800
X221800Y166800
X221800Y146800
X234800Y105800
X244800Y105800
X254800Y105800
X278400Y163800
X278400Y173800
X278400Y183800
X278400Y193800
X241800Y216800
X341800Y201800
X356800Y201800
X371800Y186800
X381800Y186800
X356800Y231800
X341800Y231800
X341600Y331800
X331600Y331800
X321600Y331800
X311600Y331800
X301600Y331800
X291600Y331800
X281600Y331800
X271600Y331800
X261600Y331800
X251600Y331800
X241600Y331800
X206800Y341800
X206800Y351800
X196800Y341800
X166800Y341800
X166800Y351800
X156800Y341800
X131800Y261800
X351600Y331800
X250550Y35550
X240550Y35550
X181800Y36800
X171800Y36800
T02
X126800Y131800
X116800Y131800
X106800Y131800
X36800Y166800
X26800Y166800
X16800Y166800
X266300Y134200
X276300Y149400
X376800Y206800
X376800Y216800
X376800Y226800
T03
X261800Y81800
X221800Y81800
X96800Y206800
X96800Y226800
X56800Y226800
X56800Y206800
X46800Y81800
X46800Y61800
X86800Y61800
X86800Y81800
T04
X29200Y27100
X365800Y28900
X28000Y357650
T05
X321300Y183800
X321300Y29800
M30
