G75*
%MOIN*%
%OFA0B0*%
%FSLAX25Y25*%
%IPPOS*%
%LPD*%
%AMOC8*
5,1,8,0,0,1.08239X$1,22.5*
%
%ADD10C,0.00000*%
%ADD11OC8,0.05200*%
%ADD12OC8,0.06300*%
%ADD13C,0.05200*%
%ADD14C,0.06600*%
%ADD15C,0.06000*%
%ADD16R,0.10000X0.20000*%
%ADD17C,0.05200*%
%ADD18OC8,0.10000*%
%ADD19C,0.01600*%
%ADD20C,0.08000*%
D10*
X0006800Y0001800D02*
X0006800Y0386761D01*
X0401251Y0387011D01*
X0401251Y0002050D01*
X0006800Y0001800D01*
X0035794Y0029600D02*
X0035796Y0029753D01*
X0035802Y0029907D01*
X0035812Y0030060D01*
X0035826Y0030212D01*
X0035844Y0030365D01*
X0035866Y0030516D01*
X0035891Y0030667D01*
X0035921Y0030818D01*
X0035955Y0030968D01*
X0035992Y0031116D01*
X0036033Y0031264D01*
X0036078Y0031410D01*
X0036127Y0031556D01*
X0036180Y0031700D01*
X0036236Y0031842D01*
X0036296Y0031983D01*
X0036360Y0032123D01*
X0036427Y0032261D01*
X0036498Y0032397D01*
X0036573Y0032531D01*
X0036650Y0032663D01*
X0036732Y0032793D01*
X0036816Y0032921D01*
X0036904Y0033047D01*
X0036995Y0033170D01*
X0037089Y0033291D01*
X0037187Y0033409D01*
X0037287Y0033525D01*
X0037391Y0033638D01*
X0037497Y0033749D01*
X0037606Y0033857D01*
X0037718Y0033962D01*
X0037832Y0034063D01*
X0037950Y0034162D01*
X0038069Y0034258D01*
X0038191Y0034351D01*
X0038316Y0034440D01*
X0038443Y0034527D01*
X0038572Y0034609D01*
X0038703Y0034689D01*
X0038836Y0034765D01*
X0038971Y0034838D01*
X0039108Y0034907D01*
X0039247Y0034972D01*
X0039387Y0035034D01*
X0039529Y0035092D01*
X0039672Y0035147D01*
X0039817Y0035198D01*
X0039963Y0035245D01*
X0040110Y0035288D01*
X0040258Y0035327D01*
X0040407Y0035363D01*
X0040557Y0035394D01*
X0040708Y0035422D01*
X0040859Y0035446D01*
X0041012Y0035466D01*
X0041164Y0035482D01*
X0041317Y0035494D01*
X0041470Y0035502D01*
X0041623Y0035506D01*
X0041777Y0035506D01*
X0041930Y0035502D01*
X0042083Y0035494D01*
X0042236Y0035482D01*
X0042388Y0035466D01*
X0042541Y0035446D01*
X0042692Y0035422D01*
X0042843Y0035394D01*
X0042993Y0035363D01*
X0043142Y0035327D01*
X0043290Y0035288D01*
X0043437Y0035245D01*
X0043583Y0035198D01*
X0043728Y0035147D01*
X0043871Y0035092D01*
X0044013Y0035034D01*
X0044153Y0034972D01*
X0044292Y0034907D01*
X0044429Y0034838D01*
X0044564Y0034765D01*
X0044697Y0034689D01*
X0044828Y0034609D01*
X0044957Y0034527D01*
X0045084Y0034440D01*
X0045209Y0034351D01*
X0045331Y0034258D01*
X0045450Y0034162D01*
X0045568Y0034063D01*
X0045682Y0033962D01*
X0045794Y0033857D01*
X0045903Y0033749D01*
X0046009Y0033638D01*
X0046113Y0033525D01*
X0046213Y0033409D01*
X0046311Y0033291D01*
X0046405Y0033170D01*
X0046496Y0033047D01*
X0046584Y0032921D01*
X0046668Y0032793D01*
X0046750Y0032663D01*
X0046827Y0032531D01*
X0046902Y0032397D01*
X0046973Y0032261D01*
X0047040Y0032123D01*
X0047104Y0031983D01*
X0047164Y0031842D01*
X0047220Y0031700D01*
X0047273Y0031556D01*
X0047322Y0031410D01*
X0047367Y0031264D01*
X0047408Y0031116D01*
X0047445Y0030968D01*
X0047479Y0030818D01*
X0047509Y0030667D01*
X0047534Y0030516D01*
X0047556Y0030365D01*
X0047574Y0030212D01*
X0047588Y0030060D01*
X0047598Y0029907D01*
X0047604Y0029753D01*
X0047606Y0029600D01*
X0047604Y0029447D01*
X0047598Y0029293D01*
X0047588Y0029140D01*
X0047574Y0028988D01*
X0047556Y0028835D01*
X0047534Y0028684D01*
X0047509Y0028533D01*
X0047479Y0028382D01*
X0047445Y0028232D01*
X0047408Y0028084D01*
X0047367Y0027936D01*
X0047322Y0027790D01*
X0047273Y0027644D01*
X0047220Y0027500D01*
X0047164Y0027358D01*
X0047104Y0027217D01*
X0047040Y0027077D01*
X0046973Y0026939D01*
X0046902Y0026803D01*
X0046827Y0026669D01*
X0046750Y0026537D01*
X0046668Y0026407D01*
X0046584Y0026279D01*
X0046496Y0026153D01*
X0046405Y0026030D01*
X0046311Y0025909D01*
X0046213Y0025791D01*
X0046113Y0025675D01*
X0046009Y0025562D01*
X0045903Y0025451D01*
X0045794Y0025343D01*
X0045682Y0025238D01*
X0045568Y0025137D01*
X0045450Y0025038D01*
X0045331Y0024942D01*
X0045209Y0024849D01*
X0045084Y0024760D01*
X0044957Y0024673D01*
X0044828Y0024591D01*
X0044697Y0024511D01*
X0044564Y0024435D01*
X0044429Y0024362D01*
X0044292Y0024293D01*
X0044153Y0024228D01*
X0044013Y0024166D01*
X0043871Y0024108D01*
X0043728Y0024053D01*
X0043583Y0024002D01*
X0043437Y0023955D01*
X0043290Y0023912D01*
X0043142Y0023873D01*
X0042993Y0023837D01*
X0042843Y0023806D01*
X0042692Y0023778D01*
X0042541Y0023754D01*
X0042388Y0023734D01*
X0042236Y0023718D01*
X0042083Y0023706D01*
X0041930Y0023698D01*
X0041777Y0023694D01*
X0041623Y0023694D01*
X0041470Y0023698D01*
X0041317Y0023706D01*
X0041164Y0023718D01*
X0041012Y0023734D01*
X0040859Y0023754D01*
X0040708Y0023778D01*
X0040557Y0023806D01*
X0040407Y0023837D01*
X0040258Y0023873D01*
X0040110Y0023912D01*
X0039963Y0023955D01*
X0039817Y0024002D01*
X0039672Y0024053D01*
X0039529Y0024108D01*
X0039387Y0024166D01*
X0039247Y0024228D01*
X0039108Y0024293D01*
X0038971Y0024362D01*
X0038836Y0024435D01*
X0038703Y0024511D01*
X0038572Y0024591D01*
X0038443Y0024673D01*
X0038316Y0024760D01*
X0038191Y0024849D01*
X0038069Y0024942D01*
X0037950Y0025038D01*
X0037832Y0025137D01*
X0037718Y0025238D01*
X0037606Y0025343D01*
X0037497Y0025451D01*
X0037391Y0025562D01*
X0037287Y0025675D01*
X0037187Y0025791D01*
X0037089Y0025909D01*
X0036995Y0026030D01*
X0036904Y0026153D01*
X0036816Y0026279D01*
X0036732Y0026407D01*
X0036650Y0026537D01*
X0036573Y0026669D01*
X0036498Y0026803D01*
X0036427Y0026939D01*
X0036360Y0027077D01*
X0036296Y0027217D01*
X0036236Y0027358D01*
X0036180Y0027500D01*
X0036127Y0027644D01*
X0036078Y0027790D01*
X0036033Y0027936D01*
X0035992Y0028084D01*
X0035955Y0028232D01*
X0035921Y0028382D01*
X0035891Y0028533D01*
X0035866Y0028684D01*
X0035844Y0028835D01*
X0035826Y0028988D01*
X0035812Y0029140D01*
X0035802Y0029293D01*
X0035796Y0029447D01*
X0035794Y0029600D01*
X0324200Y0029800D02*
X0324202Y0029974D01*
X0324209Y0030148D01*
X0324219Y0030322D01*
X0324234Y0030496D01*
X0324253Y0030669D01*
X0324277Y0030842D01*
X0324305Y0031014D01*
X0324336Y0031185D01*
X0324373Y0031356D01*
X0324413Y0031525D01*
X0324457Y0031694D01*
X0324506Y0031861D01*
X0324558Y0032027D01*
X0324615Y0032192D01*
X0324676Y0032355D01*
X0324740Y0032517D01*
X0324809Y0032677D01*
X0324882Y0032836D01*
X0324958Y0032992D01*
X0325038Y0033147D01*
X0325122Y0033300D01*
X0325210Y0033450D01*
X0325302Y0033598D01*
X0325397Y0033745D01*
X0325495Y0033888D01*
X0325597Y0034029D01*
X0325703Y0034168D01*
X0325812Y0034304D01*
X0325924Y0034438D01*
X0326039Y0034568D01*
X0326158Y0034696D01*
X0326280Y0034820D01*
X0326404Y0034942D01*
X0326532Y0035061D01*
X0326662Y0035176D01*
X0326796Y0035288D01*
X0326932Y0035397D01*
X0327071Y0035503D01*
X0327212Y0035605D01*
X0327355Y0035703D01*
X0327502Y0035798D01*
X0327650Y0035890D01*
X0327800Y0035978D01*
X0327953Y0036062D01*
X0328108Y0036142D01*
X0328264Y0036218D01*
X0328423Y0036291D01*
X0328583Y0036360D01*
X0328745Y0036424D01*
X0328908Y0036485D01*
X0329073Y0036542D01*
X0329239Y0036594D01*
X0329406Y0036643D01*
X0329575Y0036687D01*
X0329744Y0036727D01*
X0329915Y0036764D01*
X0330086Y0036795D01*
X0330258Y0036823D01*
X0330431Y0036847D01*
X0330604Y0036866D01*
X0330778Y0036881D01*
X0330952Y0036891D01*
X0331126Y0036898D01*
X0331300Y0036900D01*
X0331474Y0036898D01*
X0331648Y0036891D01*
X0331822Y0036881D01*
X0331996Y0036866D01*
X0332169Y0036847D01*
X0332342Y0036823D01*
X0332514Y0036795D01*
X0332685Y0036764D01*
X0332856Y0036727D01*
X0333025Y0036687D01*
X0333194Y0036643D01*
X0333361Y0036594D01*
X0333527Y0036542D01*
X0333692Y0036485D01*
X0333855Y0036424D01*
X0334017Y0036360D01*
X0334177Y0036291D01*
X0334336Y0036218D01*
X0334492Y0036142D01*
X0334647Y0036062D01*
X0334800Y0035978D01*
X0334950Y0035890D01*
X0335098Y0035798D01*
X0335245Y0035703D01*
X0335388Y0035605D01*
X0335529Y0035503D01*
X0335668Y0035397D01*
X0335804Y0035288D01*
X0335938Y0035176D01*
X0336068Y0035061D01*
X0336196Y0034942D01*
X0336320Y0034820D01*
X0336442Y0034696D01*
X0336561Y0034568D01*
X0336676Y0034438D01*
X0336788Y0034304D01*
X0336897Y0034168D01*
X0337003Y0034029D01*
X0337105Y0033888D01*
X0337203Y0033745D01*
X0337298Y0033598D01*
X0337390Y0033450D01*
X0337478Y0033300D01*
X0337562Y0033147D01*
X0337642Y0032992D01*
X0337718Y0032836D01*
X0337791Y0032677D01*
X0337860Y0032517D01*
X0337924Y0032355D01*
X0337985Y0032192D01*
X0338042Y0032027D01*
X0338094Y0031861D01*
X0338143Y0031694D01*
X0338187Y0031525D01*
X0338227Y0031356D01*
X0338264Y0031185D01*
X0338295Y0031014D01*
X0338323Y0030842D01*
X0338347Y0030669D01*
X0338366Y0030496D01*
X0338381Y0030322D01*
X0338391Y0030148D01*
X0338398Y0029974D01*
X0338400Y0029800D01*
X0338398Y0029626D01*
X0338391Y0029452D01*
X0338381Y0029278D01*
X0338366Y0029104D01*
X0338347Y0028931D01*
X0338323Y0028758D01*
X0338295Y0028586D01*
X0338264Y0028415D01*
X0338227Y0028244D01*
X0338187Y0028075D01*
X0338143Y0027906D01*
X0338094Y0027739D01*
X0338042Y0027573D01*
X0337985Y0027408D01*
X0337924Y0027245D01*
X0337860Y0027083D01*
X0337791Y0026923D01*
X0337718Y0026764D01*
X0337642Y0026608D01*
X0337562Y0026453D01*
X0337478Y0026300D01*
X0337390Y0026150D01*
X0337298Y0026002D01*
X0337203Y0025855D01*
X0337105Y0025712D01*
X0337003Y0025571D01*
X0336897Y0025432D01*
X0336788Y0025296D01*
X0336676Y0025162D01*
X0336561Y0025032D01*
X0336442Y0024904D01*
X0336320Y0024780D01*
X0336196Y0024658D01*
X0336068Y0024539D01*
X0335938Y0024424D01*
X0335804Y0024312D01*
X0335668Y0024203D01*
X0335529Y0024097D01*
X0335388Y0023995D01*
X0335245Y0023897D01*
X0335098Y0023802D01*
X0334950Y0023710D01*
X0334800Y0023622D01*
X0334647Y0023538D01*
X0334492Y0023458D01*
X0334336Y0023382D01*
X0334177Y0023309D01*
X0334017Y0023240D01*
X0333855Y0023176D01*
X0333692Y0023115D01*
X0333527Y0023058D01*
X0333361Y0023006D01*
X0333194Y0022957D01*
X0333025Y0022913D01*
X0332856Y0022873D01*
X0332685Y0022836D01*
X0332514Y0022805D01*
X0332342Y0022777D01*
X0332169Y0022753D01*
X0331996Y0022734D01*
X0331822Y0022719D01*
X0331648Y0022709D01*
X0331474Y0022702D01*
X0331300Y0022700D01*
X0331126Y0022702D01*
X0330952Y0022709D01*
X0330778Y0022719D01*
X0330604Y0022734D01*
X0330431Y0022753D01*
X0330258Y0022777D01*
X0330086Y0022805D01*
X0329915Y0022836D01*
X0329744Y0022873D01*
X0329575Y0022913D01*
X0329406Y0022957D01*
X0329239Y0023006D01*
X0329073Y0023058D01*
X0328908Y0023115D01*
X0328745Y0023176D01*
X0328583Y0023240D01*
X0328423Y0023309D01*
X0328264Y0023382D01*
X0328108Y0023458D01*
X0327953Y0023538D01*
X0327800Y0023622D01*
X0327650Y0023710D01*
X0327502Y0023802D01*
X0327355Y0023897D01*
X0327212Y0023995D01*
X0327071Y0024097D01*
X0326932Y0024203D01*
X0326796Y0024312D01*
X0326662Y0024424D01*
X0326532Y0024539D01*
X0326404Y0024658D01*
X0326280Y0024780D01*
X0326158Y0024904D01*
X0326039Y0025032D01*
X0325924Y0025162D01*
X0325812Y0025296D01*
X0325703Y0025432D01*
X0325597Y0025571D01*
X0325495Y0025712D01*
X0325397Y0025855D01*
X0325302Y0026002D01*
X0325210Y0026150D01*
X0325122Y0026300D01*
X0325038Y0026453D01*
X0324958Y0026608D01*
X0324882Y0026764D01*
X0324809Y0026923D01*
X0324740Y0027083D01*
X0324676Y0027245D01*
X0324615Y0027408D01*
X0324558Y0027573D01*
X0324506Y0027739D01*
X0324457Y0027906D01*
X0324413Y0028075D01*
X0324373Y0028244D01*
X0324336Y0028415D01*
X0324305Y0028586D01*
X0324277Y0028758D01*
X0324253Y0028931D01*
X0324234Y0029104D01*
X0324219Y0029278D01*
X0324209Y0029452D01*
X0324202Y0029626D01*
X0324200Y0029800D01*
X0369894Y0028900D02*
X0369896Y0029053D01*
X0369902Y0029207D01*
X0369912Y0029360D01*
X0369926Y0029512D01*
X0369944Y0029665D01*
X0369966Y0029816D01*
X0369991Y0029967D01*
X0370021Y0030118D01*
X0370055Y0030268D01*
X0370092Y0030416D01*
X0370133Y0030564D01*
X0370178Y0030710D01*
X0370227Y0030856D01*
X0370280Y0031000D01*
X0370336Y0031142D01*
X0370396Y0031283D01*
X0370460Y0031423D01*
X0370527Y0031561D01*
X0370598Y0031697D01*
X0370673Y0031831D01*
X0370750Y0031963D01*
X0370832Y0032093D01*
X0370916Y0032221D01*
X0371004Y0032347D01*
X0371095Y0032470D01*
X0371189Y0032591D01*
X0371287Y0032709D01*
X0371387Y0032825D01*
X0371491Y0032938D01*
X0371597Y0033049D01*
X0371706Y0033157D01*
X0371818Y0033262D01*
X0371932Y0033363D01*
X0372050Y0033462D01*
X0372169Y0033558D01*
X0372291Y0033651D01*
X0372416Y0033740D01*
X0372543Y0033827D01*
X0372672Y0033909D01*
X0372803Y0033989D01*
X0372936Y0034065D01*
X0373071Y0034138D01*
X0373208Y0034207D01*
X0373347Y0034272D01*
X0373487Y0034334D01*
X0373629Y0034392D01*
X0373772Y0034447D01*
X0373917Y0034498D01*
X0374063Y0034545D01*
X0374210Y0034588D01*
X0374358Y0034627D01*
X0374507Y0034663D01*
X0374657Y0034694D01*
X0374808Y0034722D01*
X0374959Y0034746D01*
X0375112Y0034766D01*
X0375264Y0034782D01*
X0375417Y0034794D01*
X0375570Y0034802D01*
X0375723Y0034806D01*
X0375877Y0034806D01*
X0376030Y0034802D01*
X0376183Y0034794D01*
X0376336Y0034782D01*
X0376488Y0034766D01*
X0376641Y0034746D01*
X0376792Y0034722D01*
X0376943Y0034694D01*
X0377093Y0034663D01*
X0377242Y0034627D01*
X0377390Y0034588D01*
X0377537Y0034545D01*
X0377683Y0034498D01*
X0377828Y0034447D01*
X0377971Y0034392D01*
X0378113Y0034334D01*
X0378253Y0034272D01*
X0378392Y0034207D01*
X0378529Y0034138D01*
X0378664Y0034065D01*
X0378797Y0033989D01*
X0378928Y0033909D01*
X0379057Y0033827D01*
X0379184Y0033740D01*
X0379309Y0033651D01*
X0379431Y0033558D01*
X0379550Y0033462D01*
X0379668Y0033363D01*
X0379782Y0033262D01*
X0379894Y0033157D01*
X0380003Y0033049D01*
X0380109Y0032938D01*
X0380213Y0032825D01*
X0380313Y0032709D01*
X0380411Y0032591D01*
X0380505Y0032470D01*
X0380596Y0032347D01*
X0380684Y0032221D01*
X0380768Y0032093D01*
X0380850Y0031963D01*
X0380927Y0031831D01*
X0381002Y0031697D01*
X0381073Y0031561D01*
X0381140Y0031423D01*
X0381204Y0031283D01*
X0381264Y0031142D01*
X0381320Y0031000D01*
X0381373Y0030856D01*
X0381422Y0030710D01*
X0381467Y0030564D01*
X0381508Y0030416D01*
X0381545Y0030268D01*
X0381579Y0030118D01*
X0381609Y0029967D01*
X0381634Y0029816D01*
X0381656Y0029665D01*
X0381674Y0029512D01*
X0381688Y0029360D01*
X0381698Y0029207D01*
X0381704Y0029053D01*
X0381706Y0028900D01*
X0381704Y0028747D01*
X0381698Y0028593D01*
X0381688Y0028440D01*
X0381674Y0028288D01*
X0381656Y0028135D01*
X0381634Y0027984D01*
X0381609Y0027833D01*
X0381579Y0027682D01*
X0381545Y0027532D01*
X0381508Y0027384D01*
X0381467Y0027236D01*
X0381422Y0027090D01*
X0381373Y0026944D01*
X0381320Y0026800D01*
X0381264Y0026658D01*
X0381204Y0026517D01*
X0381140Y0026377D01*
X0381073Y0026239D01*
X0381002Y0026103D01*
X0380927Y0025969D01*
X0380850Y0025837D01*
X0380768Y0025707D01*
X0380684Y0025579D01*
X0380596Y0025453D01*
X0380505Y0025330D01*
X0380411Y0025209D01*
X0380313Y0025091D01*
X0380213Y0024975D01*
X0380109Y0024862D01*
X0380003Y0024751D01*
X0379894Y0024643D01*
X0379782Y0024538D01*
X0379668Y0024437D01*
X0379550Y0024338D01*
X0379431Y0024242D01*
X0379309Y0024149D01*
X0379184Y0024060D01*
X0379057Y0023973D01*
X0378928Y0023891D01*
X0378797Y0023811D01*
X0378664Y0023735D01*
X0378529Y0023662D01*
X0378392Y0023593D01*
X0378253Y0023528D01*
X0378113Y0023466D01*
X0377971Y0023408D01*
X0377828Y0023353D01*
X0377683Y0023302D01*
X0377537Y0023255D01*
X0377390Y0023212D01*
X0377242Y0023173D01*
X0377093Y0023137D01*
X0376943Y0023106D01*
X0376792Y0023078D01*
X0376641Y0023054D01*
X0376488Y0023034D01*
X0376336Y0023018D01*
X0376183Y0023006D01*
X0376030Y0022998D01*
X0375877Y0022994D01*
X0375723Y0022994D01*
X0375570Y0022998D01*
X0375417Y0023006D01*
X0375264Y0023018D01*
X0375112Y0023034D01*
X0374959Y0023054D01*
X0374808Y0023078D01*
X0374657Y0023106D01*
X0374507Y0023137D01*
X0374358Y0023173D01*
X0374210Y0023212D01*
X0374063Y0023255D01*
X0373917Y0023302D01*
X0373772Y0023353D01*
X0373629Y0023408D01*
X0373487Y0023466D01*
X0373347Y0023528D01*
X0373208Y0023593D01*
X0373071Y0023662D01*
X0372936Y0023735D01*
X0372803Y0023811D01*
X0372672Y0023891D01*
X0372543Y0023973D01*
X0372416Y0024060D01*
X0372291Y0024149D01*
X0372169Y0024242D01*
X0372050Y0024338D01*
X0371932Y0024437D01*
X0371818Y0024538D01*
X0371706Y0024643D01*
X0371597Y0024751D01*
X0371491Y0024862D01*
X0371387Y0024975D01*
X0371287Y0025091D01*
X0371189Y0025209D01*
X0371095Y0025330D01*
X0371004Y0025453D01*
X0370916Y0025579D01*
X0370832Y0025707D01*
X0370750Y0025837D01*
X0370673Y0025969D01*
X0370598Y0026103D01*
X0370527Y0026239D01*
X0370460Y0026377D01*
X0370396Y0026517D01*
X0370336Y0026658D01*
X0370280Y0026800D01*
X0370227Y0026944D01*
X0370178Y0027090D01*
X0370133Y0027236D01*
X0370092Y0027384D01*
X0370055Y0027532D01*
X0370021Y0027682D01*
X0369991Y0027833D01*
X0369966Y0027984D01*
X0369944Y0028135D01*
X0369926Y0028288D01*
X0369912Y0028440D01*
X0369902Y0028593D01*
X0369896Y0028747D01*
X0369894Y0028900D01*
X0324200Y0183800D02*
X0324202Y0183974D01*
X0324209Y0184148D01*
X0324219Y0184322D01*
X0324234Y0184496D01*
X0324253Y0184669D01*
X0324277Y0184842D01*
X0324305Y0185014D01*
X0324336Y0185185D01*
X0324373Y0185356D01*
X0324413Y0185525D01*
X0324457Y0185694D01*
X0324506Y0185861D01*
X0324558Y0186027D01*
X0324615Y0186192D01*
X0324676Y0186355D01*
X0324740Y0186517D01*
X0324809Y0186677D01*
X0324882Y0186836D01*
X0324958Y0186992D01*
X0325038Y0187147D01*
X0325122Y0187300D01*
X0325210Y0187450D01*
X0325302Y0187598D01*
X0325397Y0187745D01*
X0325495Y0187888D01*
X0325597Y0188029D01*
X0325703Y0188168D01*
X0325812Y0188304D01*
X0325924Y0188438D01*
X0326039Y0188568D01*
X0326158Y0188696D01*
X0326280Y0188820D01*
X0326404Y0188942D01*
X0326532Y0189061D01*
X0326662Y0189176D01*
X0326796Y0189288D01*
X0326932Y0189397D01*
X0327071Y0189503D01*
X0327212Y0189605D01*
X0327355Y0189703D01*
X0327502Y0189798D01*
X0327650Y0189890D01*
X0327800Y0189978D01*
X0327953Y0190062D01*
X0328108Y0190142D01*
X0328264Y0190218D01*
X0328423Y0190291D01*
X0328583Y0190360D01*
X0328745Y0190424D01*
X0328908Y0190485D01*
X0329073Y0190542D01*
X0329239Y0190594D01*
X0329406Y0190643D01*
X0329575Y0190687D01*
X0329744Y0190727D01*
X0329915Y0190764D01*
X0330086Y0190795D01*
X0330258Y0190823D01*
X0330431Y0190847D01*
X0330604Y0190866D01*
X0330778Y0190881D01*
X0330952Y0190891D01*
X0331126Y0190898D01*
X0331300Y0190900D01*
X0331474Y0190898D01*
X0331648Y0190891D01*
X0331822Y0190881D01*
X0331996Y0190866D01*
X0332169Y0190847D01*
X0332342Y0190823D01*
X0332514Y0190795D01*
X0332685Y0190764D01*
X0332856Y0190727D01*
X0333025Y0190687D01*
X0333194Y0190643D01*
X0333361Y0190594D01*
X0333527Y0190542D01*
X0333692Y0190485D01*
X0333855Y0190424D01*
X0334017Y0190360D01*
X0334177Y0190291D01*
X0334336Y0190218D01*
X0334492Y0190142D01*
X0334647Y0190062D01*
X0334800Y0189978D01*
X0334950Y0189890D01*
X0335098Y0189798D01*
X0335245Y0189703D01*
X0335388Y0189605D01*
X0335529Y0189503D01*
X0335668Y0189397D01*
X0335804Y0189288D01*
X0335938Y0189176D01*
X0336068Y0189061D01*
X0336196Y0188942D01*
X0336320Y0188820D01*
X0336442Y0188696D01*
X0336561Y0188568D01*
X0336676Y0188438D01*
X0336788Y0188304D01*
X0336897Y0188168D01*
X0337003Y0188029D01*
X0337105Y0187888D01*
X0337203Y0187745D01*
X0337298Y0187598D01*
X0337390Y0187450D01*
X0337478Y0187300D01*
X0337562Y0187147D01*
X0337642Y0186992D01*
X0337718Y0186836D01*
X0337791Y0186677D01*
X0337860Y0186517D01*
X0337924Y0186355D01*
X0337985Y0186192D01*
X0338042Y0186027D01*
X0338094Y0185861D01*
X0338143Y0185694D01*
X0338187Y0185525D01*
X0338227Y0185356D01*
X0338264Y0185185D01*
X0338295Y0185014D01*
X0338323Y0184842D01*
X0338347Y0184669D01*
X0338366Y0184496D01*
X0338381Y0184322D01*
X0338391Y0184148D01*
X0338398Y0183974D01*
X0338400Y0183800D01*
X0338398Y0183626D01*
X0338391Y0183452D01*
X0338381Y0183278D01*
X0338366Y0183104D01*
X0338347Y0182931D01*
X0338323Y0182758D01*
X0338295Y0182586D01*
X0338264Y0182415D01*
X0338227Y0182244D01*
X0338187Y0182075D01*
X0338143Y0181906D01*
X0338094Y0181739D01*
X0338042Y0181573D01*
X0337985Y0181408D01*
X0337924Y0181245D01*
X0337860Y0181083D01*
X0337791Y0180923D01*
X0337718Y0180764D01*
X0337642Y0180608D01*
X0337562Y0180453D01*
X0337478Y0180300D01*
X0337390Y0180150D01*
X0337298Y0180002D01*
X0337203Y0179855D01*
X0337105Y0179712D01*
X0337003Y0179571D01*
X0336897Y0179432D01*
X0336788Y0179296D01*
X0336676Y0179162D01*
X0336561Y0179032D01*
X0336442Y0178904D01*
X0336320Y0178780D01*
X0336196Y0178658D01*
X0336068Y0178539D01*
X0335938Y0178424D01*
X0335804Y0178312D01*
X0335668Y0178203D01*
X0335529Y0178097D01*
X0335388Y0177995D01*
X0335245Y0177897D01*
X0335098Y0177802D01*
X0334950Y0177710D01*
X0334800Y0177622D01*
X0334647Y0177538D01*
X0334492Y0177458D01*
X0334336Y0177382D01*
X0334177Y0177309D01*
X0334017Y0177240D01*
X0333855Y0177176D01*
X0333692Y0177115D01*
X0333527Y0177058D01*
X0333361Y0177006D01*
X0333194Y0176957D01*
X0333025Y0176913D01*
X0332856Y0176873D01*
X0332685Y0176836D01*
X0332514Y0176805D01*
X0332342Y0176777D01*
X0332169Y0176753D01*
X0331996Y0176734D01*
X0331822Y0176719D01*
X0331648Y0176709D01*
X0331474Y0176702D01*
X0331300Y0176700D01*
X0331126Y0176702D01*
X0330952Y0176709D01*
X0330778Y0176719D01*
X0330604Y0176734D01*
X0330431Y0176753D01*
X0330258Y0176777D01*
X0330086Y0176805D01*
X0329915Y0176836D01*
X0329744Y0176873D01*
X0329575Y0176913D01*
X0329406Y0176957D01*
X0329239Y0177006D01*
X0329073Y0177058D01*
X0328908Y0177115D01*
X0328745Y0177176D01*
X0328583Y0177240D01*
X0328423Y0177309D01*
X0328264Y0177382D01*
X0328108Y0177458D01*
X0327953Y0177538D01*
X0327800Y0177622D01*
X0327650Y0177710D01*
X0327502Y0177802D01*
X0327355Y0177897D01*
X0327212Y0177995D01*
X0327071Y0178097D01*
X0326932Y0178203D01*
X0326796Y0178312D01*
X0326662Y0178424D01*
X0326532Y0178539D01*
X0326404Y0178658D01*
X0326280Y0178780D01*
X0326158Y0178904D01*
X0326039Y0179032D01*
X0325924Y0179162D01*
X0325812Y0179296D01*
X0325703Y0179432D01*
X0325597Y0179571D01*
X0325495Y0179712D01*
X0325397Y0179855D01*
X0325302Y0180002D01*
X0325210Y0180150D01*
X0325122Y0180300D01*
X0325038Y0180453D01*
X0324958Y0180608D01*
X0324882Y0180764D01*
X0324809Y0180923D01*
X0324740Y0181083D01*
X0324676Y0181245D01*
X0324615Y0181408D01*
X0324558Y0181573D01*
X0324506Y0181739D01*
X0324457Y0181906D01*
X0324413Y0182075D01*
X0324373Y0182244D01*
X0324336Y0182415D01*
X0324305Y0182586D01*
X0324277Y0182758D01*
X0324253Y0182931D01*
X0324234Y0183104D01*
X0324219Y0183278D01*
X0324209Y0183452D01*
X0324202Y0183626D01*
X0324200Y0183800D01*
X0034594Y0363900D02*
X0034596Y0364053D01*
X0034602Y0364207D01*
X0034612Y0364360D01*
X0034626Y0364512D01*
X0034644Y0364665D01*
X0034666Y0364816D01*
X0034691Y0364967D01*
X0034721Y0365118D01*
X0034755Y0365268D01*
X0034792Y0365416D01*
X0034833Y0365564D01*
X0034878Y0365710D01*
X0034927Y0365856D01*
X0034980Y0366000D01*
X0035036Y0366142D01*
X0035096Y0366283D01*
X0035160Y0366423D01*
X0035227Y0366561D01*
X0035298Y0366697D01*
X0035373Y0366831D01*
X0035450Y0366963D01*
X0035532Y0367093D01*
X0035616Y0367221D01*
X0035704Y0367347D01*
X0035795Y0367470D01*
X0035889Y0367591D01*
X0035987Y0367709D01*
X0036087Y0367825D01*
X0036191Y0367938D01*
X0036297Y0368049D01*
X0036406Y0368157D01*
X0036518Y0368262D01*
X0036632Y0368363D01*
X0036750Y0368462D01*
X0036869Y0368558D01*
X0036991Y0368651D01*
X0037116Y0368740D01*
X0037243Y0368827D01*
X0037372Y0368909D01*
X0037503Y0368989D01*
X0037636Y0369065D01*
X0037771Y0369138D01*
X0037908Y0369207D01*
X0038047Y0369272D01*
X0038187Y0369334D01*
X0038329Y0369392D01*
X0038472Y0369447D01*
X0038617Y0369498D01*
X0038763Y0369545D01*
X0038910Y0369588D01*
X0039058Y0369627D01*
X0039207Y0369663D01*
X0039357Y0369694D01*
X0039508Y0369722D01*
X0039659Y0369746D01*
X0039812Y0369766D01*
X0039964Y0369782D01*
X0040117Y0369794D01*
X0040270Y0369802D01*
X0040423Y0369806D01*
X0040577Y0369806D01*
X0040730Y0369802D01*
X0040883Y0369794D01*
X0041036Y0369782D01*
X0041188Y0369766D01*
X0041341Y0369746D01*
X0041492Y0369722D01*
X0041643Y0369694D01*
X0041793Y0369663D01*
X0041942Y0369627D01*
X0042090Y0369588D01*
X0042237Y0369545D01*
X0042383Y0369498D01*
X0042528Y0369447D01*
X0042671Y0369392D01*
X0042813Y0369334D01*
X0042953Y0369272D01*
X0043092Y0369207D01*
X0043229Y0369138D01*
X0043364Y0369065D01*
X0043497Y0368989D01*
X0043628Y0368909D01*
X0043757Y0368827D01*
X0043884Y0368740D01*
X0044009Y0368651D01*
X0044131Y0368558D01*
X0044250Y0368462D01*
X0044368Y0368363D01*
X0044482Y0368262D01*
X0044594Y0368157D01*
X0044703Y0368049D01*
X0044809Y0367938D01*
X0044913Y0367825D01*
X0045013Y0367709D01*
X0045111Y0367591D01*
X0045205Y0367470D01*
X0045296Y0367347D01*
X0045384Y0367221D01*
X0045468Y0367093D01*
X0045550Y0366963D01*
X0045627Y0366831D01*
X0045702Y0366697D01*
X0045773Y0366561D01*
X0045840Y0366423D01*
X0045904Y0366283D01*
X0045964Y0366142D01*
X0046020Y0366000D01*
X0046073Y0365856D01*
X0046122Y0365710D01*
X0046167Y0365564D01*
X0046208Y0365416D01*
X0046245Y0365268D01*
X0046279Y0365118D01*
X0046309Y0364967D01*
X0046334Y0364816D01*
X0046356Y0364665D01*
X0046374Y0364512D01*
X0046388Y0364360D01*
X0046398Y0364207D01*
X0046404Y0364053D01*
X0046406Y0363900D01*
X0046404Y0363747D01*
X0046398Y0363593D01*
X0046388Y0363440D01*
X0046374Y0363288D01*
X0046356Y0363135D01*
X0046334Y0362984D01*
X0046309Y0362833D01*
X0046279Y0362682D01*
X0046245Y0362532D01*
X0046208Y0362384D01*
X0046167Y0362236D01*
X0046122Y0362090D01*
X0046073Y0361944D01*
X0046020Y0361800D01*
X0045964Y0361658D01*
X0045904Y0361517D01*
X0045840Y0361377D01*
X0045773Y0361239D01*
X0045702Y0361103D01*
X0045627Y0360969D01*
X0045550Y0360837D01*
X0045468Y0360707D01*
X0045384Y0360579D01*
X0045296Y0360453D01*
X0045205Y0360330D01*
X0045111Y0360209D01*
X0045013Y0360091D01*
X0044913Y0359975D01*
X0044809Y0359862D01*
X0044703Y0359751D01*
X0044594Y0359643D01*
X0044482Y0359538D01*
X0044368Y0359437D01*
X0044250Y0359338D01*
X0044131Y0359242D01*
X0044009Y0359149D01*
X0043884Y0359060D01*
X0043757Y0358973D01*
X0043628Y0358891D01*
X0043497Y0358811D01*
X0043364Y0358735D01*
X0043229Y0358662D01*
X0043092Y0358593D01*
X0042953Y0358528D01*
X0042813Y0358466D01*
X0042671Y0358408D01*
X0042528Y0358353D01*
X0042383Y0358302D01*
X0042237Y0358255D01*
X0042090Y0358212D01*
X0041942Y0358173D01*
X0041793Y0358137D01*
X0041643Y0358106D01*
X0041492Y0358078D01*
X0041341Y0358054D01*
X0041188Y0358034D01*
X0041036Y0358018D01*
X0040883Y0358006D01*
X0040730Y0357998D01*
X0040577Y0357994D01*
X0040423Y0357994D01*
X0040270Y0357998D01*
X0040117Y0358006D01*
X0039964Y0358018D01*
X0039812Y0358034D01*
X0039659Y0358054D01*
X0039508Y0358078D01*
X0039357Y0358106D01*
X0039207Y0358137D01*
X0039058Y0358173D01*
X0038910Y0358212D01*
X0038763Y0358255D01*
X0038617Y0358302D01*
X0038472Y0358353D01*
X0038329Y0358408D01*
X0038187Y0358466D01*
X0038047Y0358528D01*
X0037908Y0358593D01*
X0037771Y0358662D01*
X0037636Y0358735D01*
X0037503Y0358811D01*
X0037372Y0358891D01*
X0037243Y0358973D01*
X0037116Y0359060D01*
X0036991Y0359149D01*
X0036869Y0359242D01*
X0036750Y0359338D01*
X0036632Y0359437D01*
X0036518Y0359538D01*
X0036406Y0359643D01*
X0036297Y0359751D01*
X0036191Y0359862D01*
X0036087Y0359975D01*
X0035987Y0360091D01*
X0035889Y0360209D01*
X0035795Y0360330D01*
X0035704Y0360453D01*
X0035616Y0360579D01*
X0035532Y0360707D01*
X0035450Y0360837D01*
X0035373Y0360969D01*
X0035298Y0361103D01*
X0035227Y0361239D01*
X0035160Y0361377D01*
X0035096Y0361517D01*
X0035036Y0361658D01*
X0034980Y0361800D01*
X0034927Y0361944D01*
X0034878Y0362090D01*
X0034833Y0362236D01*
X0034792Y0362384D01*
X0034755Y0362532D01*
X0034721Y0362682D01*
X0034691Y0362833D01*
X0034666Y0362984D01*
X0034644Y0363135D01*
X0034626Y0363288D01*
X0034612Y0363440D01*
X0034602Y0363593D01*
X0034596Y0363747D01*
X0034594Y0363900D01*
D11*
X0066800Y0341800D03*
X0066800Y0311800D03*
X0096800Y0291800D03*
X0116800Y0311800D03*
X0116800Y0341800D03*
X0141800Y0291800D03*
X0166800Y0311800D03*
X0166800Y0341800D03*
X0206800Y0341800D03*
X0206800Y0311800D03*
X0196800Y0291800D03*
X0196800Y0261800D03*
X0231800Y0261800D03*
X0231800Y0291800D03*
X0226800Y0221800D03*
X0251800Y0216800D03*
X0251800Y0206800D03*
X0261800Y0206800D03*
X0226800Y0191800D03*
X0231800Y0166800D03*
X0231800Y0146800D03*
X0201800Y0146800D03*
X0191800Y0156800D03*
X0201800Y0166800D03*
X0191800Y0176800D03*
X0161800Y0176800D03*
X0161800Y0156800D03*
X0162300Y0136300D03*
X0192300Y0136300D03*
X0096800Y0131800D03*
X0081800Y0131800D03*
X0081800Y0101800D03*
X0096800Y0101800D03*
X0086800Y0161800D03*
X0071800Y0161800D03*
X0071800Y0191800D03*
X0086800Y0191800D03*
X0096800Y0261800D03*
X0141800Y0261800D03*
X0351800Y0231800D03*
X0366800Y0231800D03*
X0366800Y0201800D03*
X0351800Y0201800D03*
X0381800Y0186800D03*
X0391800Y0186800D03*
D12*
X0260550Y0035550D03*
X0250550Y0035550D03*
X0191800Y0036800D03*
X0181800Y0036800D03*
X0121800Y0081800D03*
X0111800Y0081800D03*
X0111800Y0096800D03*
X0121800Y0096800D03*
X0121800Y0111800D03*
X0111800Y0111800D03*
X0040300Y0184300D03*
X0030300Y0184300D03*
X0030300Y0199300D03*
X0040300Y0199300D03*
X0040300Y0214300D03*
X0030300Y0214300D03*
D13*
X0079200Y0291800D02*
X0084400Y0291800D01*
X0084400Y0301800D02*
X0079200Y0301800D01*
X0079200Y0311800D02*
X0084400Y0311800D01*
X0079400Y0341800D02*
X0074200Y0341800D01*
X0074200Y0351800D02*
X0079400Y0351800D01*
X0124200Y0351800D02*
X0129400Y0351800D01*
X0129400Y0341800D02*
X0124200Y0341800D01*
X0124200Y0311800D02*
X0129400Y0311800D01*
X0129400Y0301800D02*
X0124200Y0301800D01*
X0124200Y0291800D02*
X0129400Y0291800D01*
X0179200Y0291800D02*
X0184400Y0291800D01*
X0184400Y0301800D02*
X0179200Y0301800D01*
X0179200Y0311800D02*
X0184400Y0311800D01*
X0179400Y0341800D02*
X0174200Y0341800D01*
X0174200Y0351800D02*
X0179400Y0351800D01*
X0214200Y0351800D02*
X0219400Y0351800D01*
X0219400Y0341800D02*
X0214200Y0341800D01*
X0214200Y0311800D02*
X0219400Y0311800D01*
X0219400Y0301800D02*
X0214200Y0301800D01*
X0214200Y0291800D02*
X0219400Y0291800D01*
X0251600Y0329200D02*
X0251600Y0334400D01*
X0261600Y0334400D02*
X0261600Y0329200D01*
X0271600Y0329200D02*
X0271600Y0334400D01*
X0281600Y0334400D02*
X0281600Y0329200D01*
X0291600Y0329200D02*
X0291600Y0334400D01*
X0301600Y0334400D02*
X0301600Y0329200D01*
X0311600Y0329200D02*
X0311600Y0334400D01*
X0321600Y0334400D02*
X0321600Y0329200D01*
X0331600Y0329200D02*
X0331600Y0334400D01*
X0341600Y0334400D02*
X0341600Y0329200D01*
X0351600Y0329200D02*
X0351600Y0334400D01*
X0361600Y0334400D02*
X0361600Y0329200D01*
X0211800Y0214400D02*
X0211800Y0209200D01*
X0201800Y0209200D02*
X0201800Y0214400D01*
X0191800Y0214400D02*
X0191800Y0209200D01*
X0244800Y0108400D02*
X0244800Y0103200D01*
X0254800Y0103200D02*
X0254800Y0108400D01*
X0264800Y0108400D02*
X0264800Y0103200D01*
D14*
X0271800Y0081800D03*
X0231800Y0081800D03*
X0106800Y0206800D03*
X0106800Y0226800D03*
X0066800Y0226800D03*
X0066800Y0206800D03*
X0056800Y0081800D03*
X0056800Y0061800D03*
X0096800Y0061800D03*
X0096800Y0081800D03*
D15*
X0116800Y0128800D02*
X0116800Y0134800D01*
X0126800Y0134800D02*
X0126800Y0128800D01*
X0136800Y0128800D02*
X0136800Y0134800D01*
X0046800Y0163800D02*
X0046800Y0169800D01*
X0036800Y0169800D02*
X0036800Y0163800D01*
X0026800Y0163800D02*
X0026800Y0169800D01*
X0383800Y0206800D02*
X0389800Y0206800D01*
X0389800Y0216800D02*
X0383800Y0216800D01*
X0383800Y0226800D02*
X0389800Y0226800D01*
D16*
X0278800Y0036800D03*
X0231800Y0036800D03*
X0206800Y0036800D03*
X0166800Y0036800D03*
D17*
X0258400Y0163800D03*
X0258400Y0173800D03*
X0258400Y0183800D03*
X0258400Y0193800D03*
X0288400Y0193800D03*
X0288400Y0183800D03*
X0288400Y0173800D03*
X0288400Y0163800D03*
D18*
X0286300Y0149400D03*
X0276300Y0134200D03*
D19*
X0276300Y0117300D01*
X0264800Y0105800D01*
X0266900Y0105800D01*
X0264800Y0105800D02*
X0271800Y0098800D01*
X0271800Y0081800D01*
X0269400Y0086110D02*
X0269024Y0085954D01*
X0267646Y0084576D01*
X0266900Y0082775D01*
X0266900Y0080825D01*
X0267646Y0079024D01*
X0269024Y0077646D01*
X0270825Y0076900D01*
X0272775Y0076900D01*
X0274576Y0077646D01*
X0275954Y0079024D01*
X0276700Y0080825D01*
X0276700Y0082775D01*
X0275954Y0084576D01*
X0274576Y0085954D01*
X0274200Y0086110D01*
X0274200Y0099277D01*
X0273835Y0100159D01*
X0269116Y0104878D01*
X0269300Y0105323D01*
X0269300Y0106277D01*
X0269116Y0106722D01*
X0278335Y0115941D01*
X0278700Y0116823D01*
X0278700Y0127600D01*
X0279034Y0127600D01*
X0282900Y0131466D01*
X0282900Y0136934D01*
X0279034Y0140800D01*
X0273566Y0140800D01*
X0269700Y0136934D01*
X0269700Y0131466D01*
X0273566Y0127600D01*
X0273900Y0127600D01*
X0273900Y0118294D01*
X0267373Y0111767D01*
X0267179Y0111961D01*
X0265635Y0112600D01*
X0263965Y0112600D01*
X0262421Y0111961D01*
X0261239Y0110779D01*
X0260600Y0109235D01*
X0260600Y0102365D01*
X0261239Y0100821D01*
X0262421Y0099639D01*
X0263965Y0099000D01*
X0265635Y0099000D01*
X0267179Y0099639D01*
X0267373Y0099833D01*
X0269400Y0097806D01*
X0269400Y0086110D01*
X0268870Y0085800D02*
X0234730Y0085800D01*
X0234576Y0085954D02*
X0232775Y0086700D01*
X0230825Y0086700D01*
X0229024Y0085954D01*
X0227646Y0084576D01*
X0226900Y0082775D01*
X0226900Y0080825D01*
X0227646Y0079024D01*
X0229024Y0077646D01*
X0230825Y0076900D01*
X0232775Y0076900D01*
X0233150Y0077056D01*
X0240441Y0069765D01*
X0241323Y0069400D01*
X0282277Y0069400D01*
X0283159Y0069765D01*
X0283835Y0070441D01*
X0301659Y0088265D01*
X0302335Y0088941D01*
X0302700Y0089823D01*
X0302700Y0135877D01*
X0302335Y0136759D01*
X0292664Y0146430D01*
X0292900Y0146666D01*
X0292900Y0152134D01*
X0289034Y0156000D01*
X0283566Y0156000D01*
X0279700Y0152134D01*
X0279700Y0146666D01*
X0283566Y0142800D01*
X0289034Y0142800D01*
X0289270Y0143036D01*
X0297900Y0134406D01*
X0297900Y0091294D01*
X0280806Y0074200D01*
X0242794Y0074200D01*
X0236544Y0080450D01*
X0236700Y0080825D01*
X0236700Y0082775D01*
X0235954Y0084576D01*
X0234576Y0085954D01*
X0232800Y0086689D02*
X0232800Y0119400D01*
X0232800Y0124200D02*
X0232800Y0142600D01*
X0233540Y0142600D02*
X0236000Y0145060D01*
X0236000Y0148540D01*
X0234200Y0150340D01*
X0234200Y0163260D01*
X0236000Y0165060D01*
X0236000Y0168540D01*
X0233540Y0171000D01*
X0230060Y0171000D01*
X0227600Y0168540D01*
X0227600Y0165060D01*
X0229400Y0163260D01*
X0229400Y0150340D01*
X0227600Y0148540D01*
X0227600Y0145060D01*
X0230060Y0142600D01*
X0233540Y0142600D01*
X0231800Y0146800D02*
X0231800Y0166800D01*
X0234740Y0169800D02*
X0257082Y0169800D01*
X0257565Y0169600D02*
X0259235Y0169600D01*
X0260779Y0170239D01*
X0261961Y0171421D01*
X0262600Y0172965D01*
X0262600Y0174635D01*
X0261961Y0176179D01*
X0260779Y0177361D01*
X0259235Y0178000D01*
X0257565Y0178000D01*
X0256021Y0177361D01*
X0254839Y0176179D01*
X0254200Y0174635D01*
X0254200Y0172965D01*
X0254839Y0171421D01*
X0256021Y0170239D01*
X0257565Y0169600D01*
X0258054Y0168200D02*
X0257370Y0168092D01*
X0256711Y0167878D01*
X0256094Y0167563D01*
X0255534Y0167156D01*
X0255044Y0166666D01*
X0254637Y0166106D01*
X0254322Y0165489D01*
X0254108Y0164830D01*
X0254000Y0164146D01*
X0254000Y0163800D01*
X0258400Y0163800D01*
X0262800Y0163800D01*
X0262800Y0164146D01*
X0262692Y0164830D01*
X0262478Y0165489D01*
X0262163Y0166106D01*
X0261756Y0166666D01*
X0261266Y0167156D01*
X0260706Y0167563D01*
X0260089Y0167878D01*
X0259430Y0168092D01*
X0258746Y0168200D01*
X0258400Y0168200D01*
X0258400Y0163800D01*
X0258400Y0163800D01*
X0258400Y0163800D01*
X0262800Y0163800D01*
X0262800Y0163454D01*
X0262692Y0162770D01*
X0262478Y0162111D01*
X0262163Y0161494D01*
X0261756Y0160934D01*
X0261266Y0160444D01*
X0260706Y0160037D01*
X0260089Y0159722D01*
X0259430Y0159508D01*
X0258746Y0159400D01*
X0258400Y0159400D01*
X0258400Y0163800D01*
X0258400Y0163800D01*
X0258400Y0163800D01*
X0258400Y0168200D01*
X0258054Y0168200D01*
X0259718Y0169800D02*
X0287082Y0169800D01*
X0287565Y0169600D02*
X0289235Y0169600D01*
X0290779Y0170239D01*
X0291961Y0171421D01*
X0292600Y0172965D01*
X0292600Y0174635D01*
X0291961Y0176179D01*
X0290779Y0177361D01*
X0289235Y0178000D01*
X0287565Y0178000D01*
X0286021Y0177361D01*
X0284839Y0176179D01*
X0284200Y0174635D01*
X0284200Y0172965D01*
X0284839Y0171421D01*
X0286021Y0170239D01*
X0287565Y0169600D01*
X0288800Y0169600D02*
X0288800Y0168000D01*
X0289235Y0168000D02*
X0287565Y0168000D01*
X0286021Y0167361D01*
X0284839Y0166179D01*
X0284200Y0164635D01*
X0284200Y0162965D01*
X0284839Y0161421D01*
X0286021Y0160239D01*
X0287565Y0159600D01*
X0289235Y0159600D01*
X0290779Y0160239D01*
X0291961Y0161421D01*
X0292600Y0162965D01*
X0292600Y0164635D01*
X0291961Y0166179D01*
X0290779Y0167361D01*
X0289235Y0168000D01*
X0289718Y0169800D02*
X0396451Y0169800D01*
X0396451Y0176800D02*
X0340999Y0176800D01*
X0340822Y0176493D02*
X0342389Y0179207D01*
X0343200Y0182233D01*
X0343200Y0185367D01*
X0342389Y0188393D01*
X0340822Y0191107D01*
X0338607Y0193322D01*
X0335893Y0194889D01*
X0332867Y0195700D01*
X0329733Y0195700D01*
X0326707Y0194889D01*
X0323993Y0193322D01*
X0321778Y0191107D01*
X0320211Y0188393D01*
X0319400Y0185367D01*
X0319400Y0182233D01*
X0320211Y0179207D01*
X0321778Y0176493D01*
X0323993Y0174278D01*
X0326707Y0172711D01*
X0329733Y0171900D01*
X0332867Y0171900D01*
X0335893Y0172711D01*
X0338607Y0174278D01*
X0340822Y0176493D01*
X0337800Y0173812D02*
X0337800Y0039788D01*
X0338607Y0039322D02*
X0335893Y0040889D01*
X0332867Y0041700D01*
X0329733Y0041700D01*
X0326707Y0040889D01*
X0323993Y0039322D01*
X0321778Y0037107D01*
X0320211Y0034393D01*
X0319400Y0031367D01*
X0319400Y0028233D01*
X0320211Y0025207D01*
X0321778Y0022493D01*
X0323993Y0020278D01*
X0326707Y0018711D01*
X0329733Y0017900D01*
X0332867Y0017900D01*
X0335893Y0018711D01*
X0338607Y0020278D01*
X0340822Y0022493D01*
X0342389Y0025207D01*
X0343200Y0028233D01*
X0343200Y0031367D01*
X0342389Y0034393D01*
X0340822Y0037107D01*
X0338607Y0039322D01*
X0340999Y0036800D02*
X0361079Y0036800D01*
X0360663Y0036190D02*
X0360663Y0036190D01*
X0363484Y0040328D01*
X0363484Y0040328D01*
X0367399Y0043450D01*
X0367399Y0043450D01*
X0372061Y0045280D01*
X0372061Y0045280D01*
X0377056Y0045654D01*
X0377056Y0045654D01*
X0381938Y0044540D01*
X0381938Y0044540D01*
X0386275Y0042036D01*
X0386275Y0042036D01*
X0389682Y0038364D01*
X0389682Y0038364D01*
X0391855Y0033852D01*
X0391855Y0033852D01*
X0392601Y0028900D01*
X0391855Y0023948D01*
X0391855Y0023948D01*
X0389682Y0019436D01*
X0389682Y0019436D01*
X0386275Y0015764D01*
X0386275Y0015764D01*
X0386275Y0015764D01*
X0381938Y0013260D01*
X0381938Y0013260D01*
X0377056Y0012146D01*
X0377056Y0012146D01*
X0372061Y0012520D01*
X0372061Y0012520D01*
X0367399Y0014350D01*
X0367399Y0014350D01*
X0363484Y0017472D01*
X0363484Y0017472D01*
X0363484Y0017472D01*
X0360663Y0021610D01*
X0360663Y0021610D01*
X0359186Y0026396D01*
X0359186Y0031404D01*
X0360663Y0036190D01*
X0363484Y0040328D02*
X0363484Y0040328D01*
X0365800Y0042175D02*
X0365800Y0197600D01*
X0365060Y0197600D02*
X0368540Y0197600D01*
X0371000Y0200060D01*
X0371000Y0203540D01*
X0368540Y0206000D01*
X0365060Y0206000D01*
X0362600Y0203540D01*
X0362600Y0200060D01*
X0365060Y0197600D01*
X0364860Y0197800D02*
X0353740Y0197800D01*
X0353540Y0197600D02*
X0356000Y0200060D01*
X0356000Y0203540D01*
X0353540Y0206000D01*
X0350060Y0206000D01*
X0347600Y0203540D01*
X0347600Y0200060D01*
X0350060Y0197600D01*
X0353540Y0197600D01*
X0351800Y0197600D02*
X0351800Y0006819D01*
X0358800Y0006823D02*
X0358800Y0229400D01*
X0355340Y0229400D02*
X0363260Y0229400D01*
X0364400Y0228260D01*
X0364400Y0216323D01*
X0364765Y0215441D01*
X0375441Y0204765D01*
X0376323Y0204400D01*
X0379815Y0204400D01*
X0379900Y0204194D01*
X0381194Y0202900D01*
X0382885Y0202200D01*
X0390715Y0202200D01*
X0392406Y0202900D01*
X0393700Y0204194D01*
X0394400Y0205885D01*
X0394400Y0207715D01*
X0393700Y0209406D01*
X0392406Y0210700D01*
X0390715Y0211400D01*
X0382885Y0211400D01*
X0381194Y0210700D01*
X0379900Y0209406D01*
X0379815Y0209200D01*
X0377794Y0209200D01*
X0369200Y0217794D01*
X0369200Y0228260D01*
X0371000Y0230060D01*
X0371000Y0233540D01*
X0368540Y0236000D01*
X0365060Y0236000D01*
X0363260Y0234200D01*
X0355340Y0234200D01*
X0353540Y0236000D01*
X0350060Y0236000D01*
X0347600Y0233540D01*
X0347600Y0230060D01*
X0350060Y0227600D01*
X0353540Y0227600D01*
X0355340Y0229400D01*
X0351800Y0227600D02*
X0351800Y0206000D01*
X0354740Y0204800D02*
X0363860Y0204800D01*
X0365800Y0206000D02*
X0365800Y0214406D01*
X0366800Y0216800D02*
X0376800Y0206800D01*
X0386800Y0206800D01*
X0386800Y0211400D02*
X0386800Y0212200D01*
X0382885Y0212200D02*
X0390715Y0212200D01*
X0392406Y0212900D01*
X0393700Y0214194D01*
X0394400Y0215885D01*
X0394400Y0217715D01*
X0393700Y0219406D01*
X0392406Y0220700D01*
X0390715Y0221400D01*
X0382885Y0221400D01*
X0381194Y0220700D01*
X0379900Y0219406D01*
X0379200Y0217715D01*
X0379200Y0215885D01*
X0379900Y0214194D01*
X0381194Y0212900D01*
X0382885Y0212200D01*
X0379800Y0214436D02*
X0379800Y0209200D01*
X0375406Y0204800D02*
X0369740Y0204800D01*
X0372800Y0207406D02*
X0372800Y0045335D01*
X0368291Y0043800D02*
X0285400Y0043800D01*
X0285400Y0047463D02*
X0284463Y0048400D01*
X0277684Y0048400D01*
X0266754Y0064474D01*
X0266547Y0064972D01*
X0266134Y0065386D01*
X0265804Y0065870D01*
X0265354Y0066166D01*
X0264972Y0066547D01*
X0264431Y0066771D01*
X0263942Y0067093D01*
X0263412Y0067194D01*
X0262914Y0067400D01*
X0262329Y0067400D01*
X0261754Y0067510D01*
X0261225Y0067400D01*
X0220686Y0067400D01*
X0218628Y0066547D01*
X0203628Y0051547D01*
X0202053Y0049972D01*
X0201401Y0048400D01*
X0201137Y0048400D01*
X0200200Y0047463D01*
X0200200Y0039200D01*
X0196118Y0039200D01*
X0193768Y0041550D01*
X0189832Y0041550D01*
X0187050Y0038768D01*
X0187050Y0034832D01*
X0189832Y0032050D01*
X0193768Y0032050D01*
X0196118Y0034400D01*
X0200200Y0034400D01*
X0200200Y0028594D01*
X0185806Y0014200D01*
X0142794Y0014200D01*
X0113159Y0043835D01*
X0112277Y0044200D01*
X0082794Y0044200D01*
X0063159Y0063835D01*
X0062277Y0064200D01*
X0061110Y0064200D01*
X0060954Y0064576D01*
X0059576Y0065954D01*
X0059200Y0066110D01*
X0059200Y0067277D01*
X0058835Y0068159D01*
X0034200Y0092794D01*
X0034200Y0156006D01*
X0050441Y0139765D01*
X0051323Y0139400D01*
X0092277Y0139400D01*
X0093159Y0139765D01*
X0093835Y0140441D01*
X0123835Y0170441D01*
X0124200Y0171323D01*
X0124200Y0212277D01*
X0123835Y0213159D01*
X0111544Y0225450D01*
X0111700Y0225825D01*
X0111700Y0227775D01*
X0110954Y0229576D01*
X0109576Y0230954D01*
X0107775Y0231700D01*
X0105825Y0231700D01*
X0104024Y0230954D01*
X0102646Y0229576D01*
X0101900Y0227775D01*
X0101900Y0225825D01*
X0102646Y0224024D01*
X0104024Y0222646D01*
X0105825Y0221900D01*
X0107775Y0221900D01*
X0108150Y0222056D01*
X0119400Y0210806D01*
X0119400Y0172794D01*
X0090806Y0144200D01*
X0052794Y0144200D01*
X0037771Y0159223D01*
X0039406Y0159900D01*
X0040700Y0161194D01*
X0041400Y0162885D01*
X0041400Y0169806D01*
X0042200Y0169006D01*
X0042200Y0162885D01*
X0042900Y0161194D01*
X0044194Y0159900D01*
X0045885Y0159200D01*
X0047715Y0159200D01*
X0049406Y0159900D01*
X0050700Y0161194D01*
X0051400Y0162885D01*
X0051400Y0164400D01*
X0055806Y0164400D01*
X0069765Y0150441D01*
X0070441Y0149765D01*
X0071323Y0149400D01*
X0092277Y0149400D01*
X0093159Y0149765D01*
X0103159Y0159765D01*
X0103835Y0160441D01*
X0104200Y0161323D01*
X0104200Y0177277D01*
X0103835Y0178159D01*
X0091000Y0190994D01*
X0091000Y0192606D01*
X0102579Y0204185D01*
X0102646Y0204024D01*
X0104024Y0202646D01*
X0105825Y0201900D01*
X0107775Y0201900D01*
X0109576Y0202646D01*
X0110954Y0204024D01*
X0111700Y0205825D01*
X0111700Y0207775D01*
X0110954Y0209576D01*
X0109576Y0210954D01*
X0107775Y0211700D01*
X0105825Y0211700D01*
X0104024Y0210954D01*
X0102646Y0209576D01*
X0102490Y0209200D01*
X0101323Y0209200D01*
X0100441Y0208835D01*
X0087606Y0196000D01*
X0085060Y0196000D01*
X0083260Y0194200D01*
X0075340Y0194200D01*
X0073540Y0196000D01*
X0070060Y0196000D01*
X0067600Y0193540D01*
X0067600Y0190060D01*
X0070060Y0187600D01*
X0073540Y0187600D01*
X0075340Y0189400D01*
X0083260Y0189400D01*
X0085060Y0187600D01*
X0087606Y0187600D01*
X0099400Y0175806D01*
X0099400Y0162794D01*
X0090806Y0154200D01*
X0072794Y0154200D01*
X0058159Y0168835D01*
X0057277Y0169200D01*
X0051400Y0169200D01*
X0051400Y0170715D01*
X0050700Y0172406D01*
X0049406Y0173700D01*
X0047715Y0174400D01*
X0045885Y0174400D01*
X0044265Y0173729D01*
X0038644Y0179350D01*
X0040300Y0179350D01*
X0042350Y0179350D01*
X0045250Y0182250D01*
X0045250Y0184300D01*
X0045250Y0186350D01*
X0042350Y0189250D01*
X0040300Y0189250D01*
X0040300Y0184300D01*
X0040300Y0184300D01*
X0045250Y0184300D01*
X0040300Y0184300D01*
X0040300Y0184300D01*
X0040300Y0184300D01*
X0035350Y0184300D01*
X0035350Y0186350D01*
X0038250Y0189250D01*
X0040300Y0189250D01*
X0040300Y0184300D01*
X0040300Y0179350D01*
X0040300Y0184300D01*
X0040300Y0184300D01*
X0035350Y0184300D01*
X0035350Y0182644D01*
X0035050Y0182944D01*
X0035050Y0186268D01*
X0032268Y0189050D01*
X0028332Y0189050D01*
X0025550Y0186268D01*
X0025550Y0182332D01*
X0028332Y0179550D01*
X0031656Y0179550D01*
X0036806Y0174400D01*
X0035885Y0174400D01*
X0034194Y0173700D01*
X0033744Y0173250D01*
X0024200Y0182794D01*
X0024200Y0210806D01*
X0025294Y0211900D01*
X0025982Y0211900D01*
X0028332Y0209550D01*
X0032268Y0209550D01*
X0035050Y0212332D01*
X0035050Y0216268D01*
X0032700Y0218618D01*
X0032700Y0223056D01*
X0032794Y0223150D01*
X0063520Y0223150D01*
X0064024Y0222646D01*
X0064400Y0222490D01*
X0064400Y0211110D01*
X0064024Y0210954D01*
X0062646Y0209576D01*
X0061900Y0207775D01*
X0061900Y0205825D01*
X0062056Y0205450D01*
X0059765Y0203159D01*
X0059400Y0202277D01*
X0059400Y0181323D01*
X0059765Y0180441D01*
X0060441Y0179765D01*
X0080441Y0159765D01*
X0081323Y0159400D01*
X0083260Y0159400D01*
X0085060Y0157600D01*
X0088540Y0157600D01*
X0091000Y0160060D01*
X0091000Y0163540D01*
X0088540Y0166000D01*
X0085060Y0166000D01*
X0083260Y0164200D01*
X0082794Y0164200D01*
X0064200Y0182794D01*
X0064200Y0200806D01*
X0065450Y0202056D01*
X0065825Y0201900D01*
X0067775Y0201900D01*
X0069576Y0202646D01*
X0070954Y0204024D01*
X0071700Y0205825D01*
X0071700Y0207775D01*
X0070954Y0209576D01*
X0069576Y0210954D01*
X0069200Y0211110D01*
X0069200Y0222490D01*
X0069576Y0222646D01*
X0070954Y0224024D01*
X0071700Y0225825D01*
X0071700Y0227775D01*
X0070954Y0229576D01*
X0069576Y0230954D01*
X0067775Y0231700D01*
X0065825Y0231700D01*
X0065450Y0231544D01*
X0054200Y0242794D01*
X0054200Y0340806D01*
X0062794Y0349400D01*
X0070660Y0349400D01*
X0071821Y0348239D01*
X0073365Y0347600D01*
X0080235Y0347600D01*
X0081779Y0348239D01*
X0082940Y0349400D01*
X0120660Y0349400D01*
X0121821Y0348239D01*
X0123365Y0347600D01*
X0130235Y0347600D01*
X0131779Y0348239D01*
X0132940Y0349400D01*
X0170660Y0349400D01*
X0171821Y0348239D01*
X0173365Y0347600D01*
X0180235Y0347600D01*
X0181779Y0348239D01*
X0182940Y0349400D01*
X0210660Y0349400D01*
X0211821Y0348239D01*
X0213365Y0347600D01*
X0220235Y0347600D01*
X0221779Y0348239D01*
X0222940Y0349400D01*
X0240806Y0349400D01*
X0249380Y0340826D01*
X0249324Y0338003D01*
X0249221Y0337961D01*
X0248039Y0336779D01*
X0247400Y0335235D01*
X0247400Y0328365D01*
X0248039Y0326821D01*
X0249221Y0325639D01*
X0250765Y0325000D01*
X0252435Y0325000D01*
X0253979Y0325639D01*
X0255161Y0326821D01*
X0255800Y0328365D01*
X0255800Y0335235D01*
X0255161Y0336779D01*
X0254121Y0337819D01*
X0254190Y0341300D01*
X0254200Y0341323D01*
X0254200Y0341776D01*
X0254209Y0342229D01*
X0254200Y0342252D01*
X0254200Y0342277D01*
X0254027Y0342696D01*
X0253861Y0343119D01*
X0253844Y0343136D01*
X0253835Y0343159D01*
X0253514Y0343480D01*
X0253200Y0343807D01*
X0253177Y0343817D01*
X0243835Y0353159D01*
X0243835Y0353159D01*
X0243159Y0353835D01*
X0242277Y0354200D01*
X0222940Y0354200D01*
X0221779Y0355361D01*
X0220235Y0356000D01*
X0213365Y0356000D01*
X0211821Y0355361D01*
X0210660Y0354200D01*
X0182940Y0354200D01*
X0181779Y0355361D01*
X0180235Y0356000D01*
X0173365Y0356000D01*
X0171821Y0355361D01*
X0170660Y0354200D01*
X0132940Y0354200D01*
X0131779Y0355361D01*
X0130235Y0356000D01*
X0123365Y0356000D01*
X0121821Y0355361D01*
X0120660Y0354200D01*
X0082940Y0354200D01*
X0081779Y0355361D01*
X0080235Y0356000D01*
X0073365Y0356000D01*
X0071821Y0355361D01*
X0070660Y0354200D01*
X0061323Y0354200D01*
X0060441Y0353835D01*
X0050441Y0343835D01*
X0049765Y0343159D01*
X0049400Y0342277D01*
X0049400Y0241323D01*
X0049765Y0240441D01*
X0062056Y0228150D01*
X0061973Y0227950D01*
X0031323Y0227950D01*
X0030441Y0227585D01*
X0029765Y0226909D01*
X0028265Y0225409D01*
X0027900Y0224527D01*
X0027900Y0218618D01*
X0025982Y0216700D01*
X0023823Y0216700D01*
X0022941Y0216335D01*
X0020441Y0213835D01*
X0019765Y0213159D01*
X0019400Y0212277D01*
X0019400Y0181323D01*
X0019765Y0180441D01*
X0025829Y0174377D01*
X0024194Y0173700D01*
X0022900Y0172406D01*
X0022200Y0170715D01*
X0022200Y0162885D01*
X0022900Y0161194D01*
X0024194Y0159900D01*
X0025885Y0159200D01*
X0027715Y0159200D01*
X0029400Y0159898D01*
X0029400Y0091323D01*
X0029765Y0090441D01*
X0030441Y0089765D01*
X0054185Y0066021D01*
X0054024Y0065954D01*
X0052646Y0064576D01*
X0051900Y0062775D01*
X0051900Y0060825D01*
X0052646Y0059024D01*
X0054024Y0057646D01*
X0055825Y0056900D01*
X0057775Y0056900D01*
X0059576Y0057646D01*
X0060954Y0059024D01*
X0061021Y0059185D01*
X0079765Y0040441D01*
X0080441Y0039765D01*
X0081323Y0039400D01*
X0110806Y0039400D01*
X0139765Y0010441D01*
X0140441Y0009765D01*
X0141323Y0009400D01*
X0187277Y0009400D01*
X0188159Y0009765D01*
X0203594Y0025200D01*
X0212463Y0025200D01*
X0213400Y0026137D01*
X0213400Y0045480D01*
X0224120Y0056200D01*
X0258836Y0056200D01*
X0270396Y0039200D01*
X0263618Y0039200D01*
X0262518Y0040300D01*
X0258582Y0040300D01*
X0255800Y0037518D01*
X0255800Y0033582D01*
X0258582Y0030800D01*
X0262518Y0030800D01*
X0265300Y0033582D01*
X0265300Y0034400D01*
X0272200Y0034400D01*
X0272200Y0026137D01*
X0273137Y0025200D01*
X0284463Y0025200D01*
X0285400Y0026137D01*
X0285400Y0047463D01*
X0281800Y0048400D02*
X0281800Y0069400D01*
X0281800Y0071800D02*
X0241800Y0071800D01*
X0231800Y0081800D01*
X0227870Y0078800D02*
X0125518Y0078800D01*
X0126550Y0079832D02*
X0126550Y0083156D01*
X0153835Y0110441D01*
X0154200Y0111323D01*
X0154200Y0132277D01*
X0153835Y0133159D01*
X0153159Y0133835D01*
X0143159Y0143835D01*
X0142277Y0144200D01*
X0121323Y0144200D01*
X0120441Y0143835D01*
X0119765Y0143159D01*
X0116006Y0139400D01*
X0115885Y0139400D01*
X0114194Y0138700D01*
X0112900Y0137406D01*
X0112200Y0135715D01*
X0112200Y0134200D01*
X0100340Y0134200D01*
X0098540Y0136000D01*
X0095060Y0136000D01*
X0093260Y0134200D01*
X0085340Y0134200D01*
X0083540Y0136000D01*
X0080060Y0136000D01*
X0077600Y0133540D01*
X0077600Y0130060D01*
X0080060Y0127600D01*
X0083540Y0127600D01*
X0085340Y0129400D01*
X0093260Y0129400D01*
X0095060Y0127600D01*
X0098540Y0127600D01*
X0100340Y0129400D01*
X0112200Y0129400D01*
X0112200Y0127885D01*
X0112900Y0126194D01*
X0114194Y0124900D01*
X0115885Y0124200D01*
X0117715Y0124200D01*
X0119406Y0124900D01*
X0120700Y0126194D01*
X0121400Y0127885D01*
X0121400Y0135715D01*
X0120729Y0137335D01*
X0122794Y0139400D01*
X0140806Y0139400D01*
X0149400Y0130806D01*
X0149400Y0112794D01*
X0123156Y0086550D01*
X0119832Y0086550D01*
X0117050Y0083768D01*
X0117050Y0079832D01*
X0119400Y0077482D01*
X0119400Y0062794D01*
X0110806Y0054200D01*
X0087794Y0054200D01*
X0061544Y0080450D01*
X0061700Y0080825D01*
X0061700Y0082775D01*
X0060954Y0084576D01*
X0059576Y0085954D01*
X0057775Y0086700D01*
X0055825Y0086700D01*
X0054024Y0085954D01*
X0052646Y0084576D01*
X0051900Y0082775D01*
X0051900Y0080825D01*
X0052646Y0079024D01*
X0054024Y0077646D01*
X0055825Y0076900D01*
X0057775Y0076900D01*
X0058150Y0077056D01*
X0085441Y0049765D01*
X0086323Y0049400D01*
X0112277Y0049400D01*
X0113159Y0049765D01*
X0113835Y0050441D01*
X0123835Y0060441D01*
X0124200Y0061323D01*
X0124200Y0077482D01*
X0126550Y0079832D01*
X0127800Y0084406D02*
X0127800Y0029194D01*
X0127194Y0029800D02*
X0160000Y0029800D01*
X0160000Y0026563D02*
X0160123Y0026105D01*
X0160360Y0025695D01*
X0160695Y0025360D01*
X0161105Y0025123D01*
X0161563Y0025000D01*
X0166000Y0025000D01*
X0166000Y0036000D01*
X0167600Y0036000D01*
X0167600Y0037600D01*
X0173600Y0037600D01*
X0173600Y0047037D01*
X0173477Y0047495D01*
X0173240Y0047905D01*
X0172905Y0048240D01*
X0172495Y0048477D01*
X0172037Y0048600D01*
X0167600Y0048600D01*
X0167600Y0037600D01*
X0166000Y0037600D01*
X0166000Y0048600D01*
X0161563Y0048600D01*
X0161105Y0048477D01*
X0160695Y0048240D01*
X0160360Y0047905D01*
X0160123Y0047495D01*
X0160000Y0047037D01*
X0160000Y0037600D01*
X0166000Y0037600D01*
X0166000Y0036000D01*
X0160000Y0036000D01*
X0160000Y0026563D01*
X0162800Y0025000D02*
X0162800Y0014200D01*
X0162800Y0009400D02*
X0162800Y0006699D01*
X0155800Y0006694D02*
X0155800Y0009400D01*
X0155800Y0014200D02*
X0155800Y0144406D01*
X0158406Y0141800D02*
X0145194Y0141800D01*
X0141800Y0141800D02*
X0151800Y0131800D01*
X0151800Y0111800D01*
X0121800Y0081800D01*
X0121800Y0061800D01*
X0111800Y0051800D01*
X0086800Y0051800D01*
X0056800Y0081800D01*
X0052870Y0078800D02*
X0048194Y0078800D01*
X0050800Y0076194D02*
X0050800Y0139616D01*
X0051800Y0141800D02*
X0026800Y0166800D01*
X0031800Y0161800D01*
X0031800Y0091800D01*
X0056800Y0066800D01*
X0056800Y0061800D01*
X0061800Y0061800D01*
X0081800Y0041800D01*
X0111800Y0041800D01*
X0141800Y0011800D01*
X0186800Y0011800D01*
X0206800Y0031800D01*
X0206800Y0036800D02*
X0191800Y0036800D01*
X0187050Y0036800D02*
X0181800Y0036800D01*
X0186750Y0036800D01*
X0186750Y0038850D01*
X0183850Y0041750D01*
X0181800Y0041750D01*
X0181800Y0036800D01*
X0181800Y0036800D01*
X0181800Y0036800D01*
X0167600Y0036800D01*
X0167600Y0036000D02*
X0173600Y0036000D01*
X0173600Y0026563D01*
X0173477Y0026105D01*
X0173240Y0025695D01*
X0172905Y0025360D01*
X0172495Y0025123D01*
X0172037Y0025000D01*
X0167600Y0025000D01*
X0167600Y0036000D01*
X0166000Y0036800D02*
X0120194Y0036800D01*
X0120800Y0036194D02*
X0120800Y0057406D01*
X0121194Y0057800D02*
X0209880Y0057800D01*
X0211800Y0059720D02*
X0211800Y0119400D01*
X0211800Y0124200D02*
X0211800Y0153406D01*
X0213835Y0155441D02*
X0206000Y0147606D01*
X0206000Y0145060D01*
X0203540Y0142600D01*
X0200060Y0142600D01*
X0197600Y0145060D01*
X0197600Y0148540D01*
X0200060Y0151000D01*
X0202606Y0151000D01*
X0209400Y0157794D01*
X0209400Y0205660D01*
X0208239Y0206821D01*
X0207600Y0208365D01*
X0207600Y0215235D01*
X0208239Y0216779D01*
X0209421Y0217961D01*
X0210965Y0218600D01*
X0212635Y0218600D01*
X0214179Y0217961D01*
X0215361Y0216779D01*
X0216000Y0215235D01*
X0216000Y0208365D01*
X0215361Y0206821D01*
X0214200Y0205660D01*
X0214200Y0156323D01*
X0213835Y0155441D01*
X0213984Y0155800D02*
X0229400Y0155800D01*
X0234200Y0155800D02*
X0283366Y0155800D01*
X0281800Y0154234D02*
X0281800Y0218406D01*
X0282194Y0218800D02*
X0364400Y0218800D01*
X0366800Y0216800D02*
X0366800Y0231800D01*
X0351800Y0231800D01*
X0351800Y0236000D02*
X0351800Y0288406D01*
X0352194Y0288800D02*
X0396451Y0288800D01*
X0396451Y0281800D02*
X0345194Y0281800D01*
X0344800Y0281406D02*
X0344800Y0006814D01*
X0337800Y0006810D02*
X0337800Y0019812D01*
X0340999Y0022800D02*
X0360296Y0022800D01*
X0365581Y0015800D02*
X0194194Y0015800D01*
X0190800Y0012406D02*
X0190800Y0006717D01*
X0183800Y0006712D02*
X0183800Y0009400D01*
X0183800Y0014200D02*
X0183800Y0031850D01*
X0183850Y0031850D02*
X0186750Y0034750D01*
X0186750Y0036800D01*
X0181800Y0036800D01*
X0181800Y0031850D01*
X0183850Y0031850D01*
X0181800Y0031850D02*
X0181800Y0036800D01*
X0181800Y0036800D01*
X0181800Y0036800D01*
X0176850Y0036800D01*
X0176850Y0038850D01*
X0179750Y0041750D01*
X0181800Y0041750D01*
X0181800Y0036800D01*
X0176850Y0036800D01*
X0176850Y0034750D01*
X0179750Y0031850D01*
X0181800Y0031850D01*
X0183800Y0036800D02*
X0183800Y0036800D01*
X0183800Y0041750D02*
X0183800Y0195406D01*
X0186194Y0197800D02*
X0199400Y0197800D01*
X0204200Y0197800D02*
X0209400Y0197800D01*
X0214200Y0197800D02*
X0257082Y0197800D01*
X0257565Y0198000D02*
X0256021Y0197361D01*
X0254839Y0196179D01*
X0254200Y0194635D01*
X0254200Y0192965D01*
X0254839Y0191421D01*
X0256000Y0190260D01*
X0256000Y0187340D01*
X0254839Y0186179D01*
X0254200Y0184635D01*
X0254200Y0182965D01*
X0254839Y0181421D01*
X0256021Y0180239D01*
X0257565Y0179600D01*
X0259235Y0179600D01*
X0260779Y0180239D01*
X0261961Y0181421D01*
X0262600Y0182965D01*
X0262600Y0184635D01*
X0261961Y0186179D01*
X0260800Y0187340D01*
X0260800Y0190260D01*
X0261940Y0191400D01*
X0267477Y0191400D01*
X0268359Y0191765D01*
X0269035Y0192441D01*
X0273835Y0197241D01*
X0274200Y0198123D01*
X0274200Y0210806D01*
X0353159Y0289765D01*
X0353835Y0290441D01*
X0354200Y0291323D01*
X0354200Y0325860D01*
X0355161Y0326821D01*
X0355800Y0328365D01*
X0355800Y0335235D01*
X0355161Y0336779D01*
X0353979Y0337961D01*
X0352435Y0338600D01*
X0350765Y0338600D01*
X0349221Y0337961D01*
X0348039Y0336779D01*
X0347400Y0335235D01*
X0347400Y0328365D01*
X0348039Y0326821D01*
X0349221Y0325639D01*
X0349400Y0325565D01*
X0349400Y0292794D01*
X0269765Y0213159D01*
X0269400Y0212277D01*
X0269400Y0199594D01*
X0266006Y0196200D01*
X0261940Y0196200D01*
X0260779Y0197361D01*
X0259235Y0198000D01*
X0257565Y0198000D01*
X0259718Y0197800D02*
X0267606Y0197800D01*
X0267800Y0197994D02*
X0267800Y0229400D01*
X0272277Y0229400D02*
X0273159Y0229765D01*
X0343159Y0299765D01*
X0343835Y0300441D01*
X0344200Y0301323D01*
X0344200Y0325860D01*
X0345161Y0326821D01*
X0345800Y0328365D01*
X0345800Y0335235D01*
X0345161Y0336779D01*
X0343979Y0337961D01*
X0342435Y0338600D01*
X0340765Y0338600D01*
X0339221Y0337961D01*
X0338039Y0336779D01*
X0337400Y0335235D01*
X0337400Y0328365D01*
X0338039Y0326821D01*
X0339221Y0325639D01*
X0339400Y0325565D01*
X0339400Y0302794D01*
X0270806Y0234200D01*
X0198923Y0234200D01*
X0198041Y0233835D01*
X0197365Y0233159D01*
X0149765Y0185559D01*
X0149400Y0184677D01*
X0149400Y0183723D01*
X0149400Y0167277D01*
X0149400Y0166323D01*
X0149765Y0165441D01*
X0157600Y0157606D01*
X0157600Y0155060D01*
X0160060Y0152600D01*
X0163540Y0152600D01*
X0166000Y0155060D01*
X0166000Y0158540D01*
X0163540Y0161000D01*
X0160994Y0161000D01*
X0154200Y0167794D01*
X0154200Y0183206D01*
X0200394Y0229400D01*
X0272277Y0229400D01*
X0271800Y0231800D02*
X0341800Y0301800D01*
X0341800Y0327000D01*
X0341600Y0331800D01*
X0345800Y0330800D02*
X0347400Y0330800D01*
X0351600Y0331800D02*
X0351800Y0327000D01*
X0351800Y0291800D01*
X0271800Y0211800D01*
X0271800Y0198600D01*
X0267000Y0193800D01*
X0258400Y0193800D01*
X0258400Y0183800D01*
X0262600Y0183800D02*
X0284200Y0183800D01*
X0284200Y0184635D02*
X0284200Y0182965D01*
X0284839Y0181421D01*
X0286021Y0180239D01*
X0287565Y0179600D01*
X0289235Y0179600D01*
X0290779Y0180239D01*
X0291961Y0181421D01*
X0292600Y0182965D01*
X0292600Y0184635D01*
X0291961Y0186179D01*
X0290779Y0187361D01*
X0289235Y0188000D01*
X0287565Y0188000D01*
X0286021Y0187361D01*
X0284839Y0186179D01*
X0284200Y0184635D01*
X0288800Y0188000D02*
X0288800Y0189600D01*
X0289235Y0189600D02*
X0290779Y0190239D01*
X0291961Y0191421D01*
X0292600Y0192965D01*
X0292600Y0194635D01*
X0291961Y0196179D01*
X0290779Y0197361D01*
X0289235Y0198000D01*
X0287565Y0198000D01*
X0286021Y0197361D01*
X0284839Y0196179D01*
X0284200Y0194635D01*
X0284200Y0192965D01*
X0284839Y0191421D01*
X0286021Y0190239D01*
X0287565Y0189600D01*
X0289235Y0189600D01*
X0291340Y0190800D02*
X0321601Y0190800D01*
X0323800Y0193129D02*
X0323800Y0260406D01*
X0324194Y0260800D02*
X0396451Y0260800D01*
X0396451Y0253800D02*
X0317194Y0253800D01*
X0316800Y0253406D02*
X0316800Y0006796D01*
X0309800Y0006792D02*
X0309800Y0246406D01*
X0310194Y0246800D02*
X0396451Y0246800D01*
X0396451Y0239800D02*
X0303194Y0239800D01*
X0302800Y0239406D02*
X0302800Y0006788D01*
X0295800Y0006783D02*
X0295800Y0082406D01*
X0292406Y0085800D02*
X0274730Y0085800D01*
X0274800Y0085730D02*
X0274800Y0112406D01*
X0276194Y0113800D02*
X0297900Y0113800D01*
X0297900Y0106800D02*
X0269194Y0106800D01*
X0267800Y0112194D02*
X0267800Y0191534D01*
X0261340Y0190800D02*
X0285460Y0190800D01*
X0287082Y0197800D02*
X0274066Y0197800D01*
X0274200Y0204800D02*
X0348860Y0204800D01*
X0349860Y0197800D02*
X0289718Y0197800D01*
X0288800Y0198000D02*
X0288800Y0225406D01*
X0289194Y0225800D02*
X0364400Y0225800D01*
X0369200Y0225800D02*
X0379099Y0225800D01*
X0379118Y0225676D02*
X0379352Y0224957D01*
X0379695Y0224284D01*
X0380139Y0223673D01*
X0380673Y0223139D01*
X0381284Y0222695D01*
X0381957Y0222352D01*
X0382676Y0222118D01*
X0383422Y0222000D01*
X0386600Y0222000D01*
X0386600Y0226600D01*
X0387000Y0226600D01*
X0387000Y0227000D01*
X0386600Y0227000D01*
X0386600Y0231600D01*
X0383422Y0231600D01*
X0382676Y0231482D01*
X0381957Y0231248D01*
X0381284Y0230905D01*
X0380673Y0230461D01*
X0380139Y0229927D01*
X0379695Y0229316D01*
X0379352Y0228643D01*
X0379118Y0227924D01*
X0379000Y0227178D01*
X0379000Y0227000D01*
X0386600Y0227000D01*
X0386600Y0226600D01*
X0379000Y0226600D01*
X0379000Y0226422D01*
X0379118Y0225676D01*
X0379800Y0226600D02*
X0379800Y0227000D01*
X0379800Y0229461D02*
X0379800Y0382197D01*
X0386800Y0382201D02*
X0386800Y0227000D01*
X0387000Y0227000D02*
X0387000Y0231600D01*
X0390178Y0231600D01*
X0390924Y0231482D01*
X0391643Y0231248D01*
X0392316Y0230905D01*
X0392927Y0230461D01*
X0393461Y0229927D01*
X0393905Y0229316D01*
X0394248Y0228643D01*
X0394482Y0227924D01*
X0394600Y0227178D01*
X0394600Y0227000D01*
X0387000Y0227000D01*
X0387000Y0226600D02*
X0394600Y0226600D01*
X0394600Y0226422D01*
X0394482Y0225676D01*
X0394248Y0224957D01*
X0393905Y0224284D01*
X0393461Y0223673D01*
X0392927Y0223139D01*
X0392316Y0222695D01*
X0391643Y0222352D01*
X0390924Y0222118D01*
X0390178Y0222000D01*
X0387000Y0222000D01*
X0387000Y0226600D01*
X0386800Y0226600D02*
X0386800Y0221400D01*
X0386600Y0225800D02*
X0387000Y0225800D01*
X0379800Y0224139D02*
X0379800Y0219164D01*
X0379649Y0218800D02*
X0369200Y0218800D01*
X0372800Y0214194D02*
X0372800Y0382193D01*
X0365800Y0382188D02*
X0365800Y0236000D01*
X0371000Y0232800D02*
X0396451Y0232800D01*
X0393800Y0229461D02*
X0393800Y0382206D01*
X0396451Y0382208D02*
X0011600Y0381964D01*
X0011600Y0006603D01*
X0396451Y0006847D01*
X0396451Y0382208D01*
X0396451Y0379800D02*
X0045498Y0379800D01*
X0046638Y0379540D02*
X0041756Y0380654D01*
X0036761Y0380280D01*
X0032099Y0378450D01*
X0028184Y0375328D01*
X0028184Y0375328D01*
X0025363Y0371190D01*
X0025363Y0371190D01*
X0023886Y0366404D01*
X0023886Y0361396D01*
X0025363Y0356610D01*
X0028184Y0352472D01*
X0032099Y0349350D01*
X0036761Y0347520D01*
X0036761Y0347520D01*
X0041756Y0347146D01*
X0046638Y0348260D01*
X0050975Y0350764D01*
X0054382Y0354436D01*
X0056555Y0358948D01*
X0057301Y0363900D01*
X0056555Y0368852D01*
X0054382Y0373364D01*
X0054382Y0373364D01*
X0050975Y0377036D01*
X0046638Y0379540D01*
X0046638Y0379540D01*
X0043800Y0380188D02*
X0043800Y0381984D01*
X0036800Y0381980D02*
X0036800Y0380283D01*
X0035538Y0379800D02*
X0011600Y0379800D01*
X0015800Y0381966D02*
X0015800Y0006606D01*
X0011600Y0008800D02*
X0396451Y0008800D01*
X0393800Y0006845D02*
X0393800Y0182577D01*
X0393623Y0182400D02*
X0396200Y0184977D01*
X0396200Y0186800D01*
X0396200Y0188623D01*
X0393623Y0191200D01*
X0391800Y0191200D01*
X0391800Y0186800D01*
X0396200Y0186800D01*
X0391800Y0186800D01*
X0391800Y0186800D01*
X0391800Y0186800D01*
X0391800Y0182400D01*
X0393623Y0182400D01*
X0391800Y0182400D02*
X0391800Y0186800D01*
X0391800Y0186800D01*
X0391800Y0186800D01*
X0387400Y0186800D01*
X0387400Y0188623D01*
X0389977Y0191200D01*
X0391800Y0191200D01*
X0391800Y0186800D01*
X0387400Y0186800D01*
X0387400Y0184977D01*
X0389977Y0182400D01*
X0391800Y0182400D01*
X0391800Y0183800D02*
X0391800Y0183800D01*
X0395023Y0183800D02*
X0396451Y0183800D01*
X0393800Y0186800D02*
X0393800Y0186800D01*
X0394023Y0190800D02*
X0396451Y0190800D01*
X0393800Y0191023D02*
X0393800Y0204436D01*
X0393951Y0204800D02*
X0396451Y0204800D01*
X0393800Y0209163D02*
X0393800Y0214436D01*
X0396451Y0211800D02*
X0375194Y0211800D01*
X0368406Y0211800D02*
X0275194Y0211800D01*
X0274800Y0211406D02*
X0274800Y0140800D01*
X0281800Y0138034D02*
X0281800Y0144566D01*
X0279700Y0148800D02*
X0235740Y0148800D01*
X0227860Y0148800D02*
X0207194Y0148800D01*
X0204800Y0153194D02*
X0204800Y0163860D01*
X0203740Y0162800D02*
X0209400Y0162800D01*
X0206000Y0165060D02*
X0206000Y0168540D01*
X0204200Y0170340D01*
X0204200Y0205660D01*
X0205361Y0206821D01*
X0206000Y0208365D01*
X0206000Y0215235D01*
X0205361Y0216779D01*
X0204179Y0217961D01*
X0202635Y0218600D01*
X0200965Y0218600D01*
X0199421Y0217961D01*
X0198239Y0216779D01*
X0197600Y0215235D01*
X0197600Y0208365D01*
X0198239Y0206821D01*
X0199400Y0205660D01*
X0199400Y0170340D01*
X0197600Y0168540D01*
X0197600Y0165060D01*
X0200060Y0162600D01*
X0203540Y0162600D01*
X0206000Y0165060D01*
X0201800Y0166800D02*
X0201800Y0211800D01*
X0206000Y0211800D02*
X0207600Y0211800D01*
X0211800Y0211800D02*
X0211800Y0156800D01*
X0201800Y0146800D01*
X0204800Y0143860D02*
X0204800Y0127194D01*
X0204194Y0127800D02*
X0273366Y0127800D01*
X0279234Y0127800D02*
X0297900Y0127800D01*
X0302700Y0127800D02*
X0396451Y0127800D01*
X0396451Y0120800D02*
X0302700Y0120800D01*
X0297900Y0120800D02*
X0278700Y0120800D01*
X0273900Y0120800D02*
X0256194Y0120800D01*
X0256835Y0120159D02*
X0253835Y0123159D01*
X0253159Y0123835D01*
X0252277Y0124200D01*
X0207794Y0124200D01*
X0196500Y0135494D01*
X0196500Y0138040D01*
X0194040Y0140500D01*
X0190560Y0140500D01*
X0188100Y0138040D01*
X0188100Y0134560D01*
X0190560Y0132100D01*
X0193106Y0132100D01*
X0205441Y0119765D01*
X0206323Y0119400D01*
X0250806Y0119400D01*
X0252400Y0117806D01*
X0252400Y0111940D01*
X0251239Y0110779D01*
X0250600Y0109235D01*
X0250600Y0102365D01*
X0251239Y0100821D01*
X0252421Y0099639D01*
X0253965Y0099000D01*
X0255635Y0099000D01*
X0257179Y0099639D01*
X0258361Y0100821D01*
X0259000Y0102365D01*
X0259000Y0109235D01*
X0258361Y0110779D01*
X0257200Y0111940D01*
X0257200Y0119277D01*
X0256835Y0120159D01*
X0254800Y0118800D02*
X0251800Y0121800D01*
X0206800Y0121800D01*
X0192300Y0136300D01*
X0190800Y0140500D02*
X0190800Y0152600D01*
X0190060Y0152600D02*
X0193540Y0152600D01*
X0196000Y0155060D01*
X0196000Y0158540D01*
X0193540Y0161000D01*
X0190060Y0161000D01*
X0187600Y0158540D01*
X0187600Y0155060D01*
X0190060Y0152600D01*
X0187600Y0155800D02*
X0166000Y0155800D01*
X0161800Y0156800D02*
X0151800Y0166800D01*
X0151800Y0184200D01*
X0199400Y0231800D01*
X0271800Y0231800D01*
X0274800Y0231406D02*
X0274800Y0218194D01*
X0275406Y0218800D02*
X0256023Y0218800D01*
X0256200Y0218623D02*
X0253623Y0221200D01*
X0251800Y0221200D01*
X0251800Y0216800D01*
X0246800Y0221800D01*
X0226800Y0221800D01*
X0226800Y0221800D01*
X0226800Y0226200D01*
X0228623Y0226200D01*
X0231200Y0223623D01*
X0231200Y0221800D01*
X0226800Y0221800D01*
X0226800Y0221800D01*
X0226800Y0221800D01*
X0222400Y0221800D01*
X0222400Y0223623D01*
X0224977Y0226200D01*
X0226800Y0226200D01*
X0226800Y0221800D01*
X0231200Y0221800D01*
X0231200Y0219977D01*
X0228623Y0217400D01*
X0226800Y0217400D01*
X0226800Y0221800D01*
X0226800Y0221800D01*
X0222400Y0221800D01*
X0222400Y0219977D01*
X0224977Y0217400D01*
X0226800Y0217400D01*
X0226800Y0221800D01*
X0225800Y0221800D02*
X0225800Y0221800D01*
X0226800Y0218800D02*
X0226800Y0218800D01*
X0225800Y0217400D02*
X0225800Y0196000D01*
X0225060Y0196000D02*
X0222600Y0193540D01*
X0222600Y0190060D01*
X0225060Y0187600D01*
X0228540Y0187600D01*
X0231000Y0190060D01*
X0231000Y0193540D01*
X0228540Y0196000D01*
X0225060Y0196000D01*
X0222600Y0190800D02*
X0214200Y0190800D01*
X0209400Y0190800D02*
X0204200Y0190800D01*
X0199400Y0190800D02*
X0179194Y0190800D01*
X0176800Y0188406D02*
X0176800Y0014200D01*
X0176800Y0009400D02*
X0176800Y0006708D01*
X0169800Y0006703D02*
X0169800Y0009400D01*
X0169800Y0014200D02*
X0169800Y0025000D01*
X0167600Y0029800D02*
X0166000Y0029800D01*
X0162800Y0036000D02*
X0162800Y0037600D01*
X0160000Y0043800D02*
X0113194Y0043800D01*
X0113800Y0043194D02*
X0113800Y0050406D01*
X0114194Y0050800D02*
X0202880Y0050800D01*
X0204800Y0052720D02*
X0204800Y0120406D01*
X0204406Y0120800D02*
X0154200Y0120800D01*
X0149400Y0120800D02*
X0124194Y0120800D01*
X0123835Y0120441D02*
X0127594Y0124200D01*
X0127715Y0124200D01*
X0129406Y0124900D01*
X0130700Y0126194D01*
X0131400Y0127885D01*
X0131400Y0135715D01*
X0130700Y0137406D01*
X0129406Y0138700D01*
X0127715Y0139400D01*
X0125885Y0139400D01*
X0124194Y0138700D01*
X0122900Y0137406D01*
X0122200Y0135715D01*
X0122200Y0127885D01*
X0122871Y0126265D01*
X0120806Y0124200D01*
X0111323Y0124200D01*
X0110441Y0123835D01*
X0100441Y0113835D01*
X0099765Y0113159D01*
X0099400Y0112277D01*
X0099400Y0107794D01*
X0097606Y0106000D01*
X0095060Y0106000D01*
X0092600Y0103540D01*
X0092600Y0100060D01*
X0094400Y0098260D01*
X0094400Y0086110D01*
X0094024Y0085954D01*
X0092646Y0084576D01*
X0091900Y0082775D01*
X0091900Y0080825D01*
X0092646Y0079024D01*
X0094024Y0077646D01*
X0094400Y0077490D01*
X0094400Y0066110D01*
X0094024Y0065954D01*
X0092646Y0064576D01*
X0091900Y0062775D01*
X0091900Y0060825D01*
X0092646Y0059024D01*
X0094024Y0057646D01*
X0095825Y0056900D01*
X0097775Y0056900D01*
X0099576Y0057646D01*
X0100954Y0059024D01*
X0101700Y0060825D01*
X0101700Y0062775D01*
X0100954Y0064576D01*
X0099576Y0065954D01*
X0099200Y0066110D01*
X0099200Y0077490D01*
X0099576Y0077646D01*
X0100954Y0079024D01*
X0101700Y0080825D01*
X0101700Y0082775D01*
X0100954Y0084576D01*
X0099576Y0085954D01*
X0099200Y0086110D01*
X0099200Y0098260D01*
X0100340Y0099400D01*
X0105806Y0099400D01*
X0107050Y0098156D01*
X0107050Y0094832D01*
X0109832Y0092050D01*
X0113768Y0092050D01*
X0116550Y0094832D01*
X0116550Y0098656D01*
X0117050Y0098156D01*
X0117050Y0094832D01*
X0119832Y0092050D01*
X0123768Y0092050D01*
X0126550Y0094832D01*
X0126550Y0098768D01*
X0123768Y0101550D01*
X0120444Y0101550D01*
X0114356Y0107638D01*
X0116550Y0109832D01*
X0116550Y0113768D01*
X0113768Y0116550D01*
X0109944Y0116550D01*
X0112794Y0119400D01*
X0122277Y0119400D01*
X0123159Y0119765D01*
X0123835Y0120441D01*
X0121800Y0121800D02*
X0111800Y0121800D01*
X0101800Y0111800D01*
X0101800Y0106800D01*
X0096800Y0101800D01*
X0106800Y0101800D01*
X0111800Y0096800D01*
X0114518Y0092800D02*
X0119082Y0092800D01*
X0120800Y0092050D02*
X0120800Y0086550D01*
X0119082Y0085800D02*
X0114800Y0085800D01*
X0113850Y0086750D02*
X0116750Y0083850D01*
X0116750Y0081800D01*
X0111800Y0081800D01*
X0111800Y0081800D01*
X0111800Y0081800D01*
X0111800Y0086750D01*
X0113850Y0086750D01*
X0113800Y0086750D02*
X0113800Y0092082D01*
X0109082Y0092800D02*
X0099200Y0092800D01*
X0094400Y0092800D02*
X0034200Y0092800D01*
X0036800Y0090194D02*
X0036800Y0153406D01*
X0034406Y0155800D02*
X0034200Y0155800D01*
X0029400Y0155800D02*
X0011600Y0155800D01*
X0011600Y0148800D02*
X0029400Y0148800D01*
X0034200Y0148800D02*
X0041406Y0148800D01*
X0043800Y0146406D02*
X0043800Y0083194D01*
X0041194Y0085800D02*
X0053870Y0085800D01*
X0057800Y0086689D02*
X0057800Y0139400D01*
X0057800Y0144200D02*
X0057800Y0162406D01*
X0057406Y0162800D02*
X0051365Y0162800D01*
X0050800Y0161436D02*
X0050800Y0146194D01*
X0048194Y0148800D02*
X0095406Y0148800D01*
X0092800Y0149616D02*
X0092800Y0146194D01*
X0091800Y0141800D02*
X0051800Y0141800D01*
X0048406Y0141800D02*
X0034200Y0141800D01*
X0029400Y0141800D02*
X0011600Y0141800D01*
X0011600Y0134800D02*
X0029400Y0134800D01*
X0034200Y0134800D02*
X0078860Y0134800D01*
X0078800Y0134740D02*
X0078800Y0139400D01*
X0078800Y0144200D02*
X0078800Y0149400D01*
X0078800Y0154200D02*
X0078800Y0161406D01*
X0077406Y0162800D02*
X0076200Y0162800D01*
X0076200Y0163623D02*
X0073623Y0166200D01*
X0071800Y0166200D01*
X0071800Y0161800D01*
X0071800Y0168406D01*
X0070406Y0169800D02*
X0051400Y0169800D01*
X0050800Y0172163D02*
X0050800Y0223150D01*
X0050800Y0227950D02*
X0050800Y0239406D01*
X0050406Y0239800D02*
X0011600Y0239800D01*
X0011600Y0232800D02*
X0057406Y0232800D01*
X0057800Y0232406D02*
X0057800Y0227950D01*
X0057800Y0223150D02*
X0057800Y0168984D01*
X0056800Y0166800D02*
X0071800Y0151800D01*
X0091800Y0151800D01*
X0101800Y0161800D01*
X0101800Y0176800D01*
X0086800Y0191800D01*
X0071800Y0191800D01*
X0071800Y0196000D02*
X0071800Y0309400D01*
X0070340Y0309400D02*
X0075660Y0309400D01*
X0076821Y0308239D01*
X0078365Y0307600D01*
X0085235Y0307600D01*
X0086779Y0308239D01*
X0087961Y0309421D01*
X0088600Y0310965D01*
X0088600Y0312635D01*
X0087961Y0314179D01*
X0086779Y0315361D01*
X0085235Y0316000D01*
X0078365Y0316000D01*
X0076821Y0315361D01*
X0075660Y0314200D01*
X0070340Y0314200D01*
X0068540Y0316000D01*
X0065060Y0316000D01*
X0062600Y0313540D01*
X0062600Y0310060D01*
X0065060Y0307600D01*
X0068540Y0307600D01*
X0070340Y0309400D01*
X0066800Y0311800D02*
X0081800Y0311800D01*
X0078800Y0316000D02*
X0078800Y0337600D01*
X0080235Y0337600D02*
X0081779Y0338239D01*
X0082961Y0339421D01*
X0083600Y0340965D01*
X0083600Y0342635D01*
X0082961Y0344179D01*
X0081779Y0345361D01*
X0080235Y0346000D01*
X0073365Y0346000D01*
X0071821Y0345361D01*
X0070660Y0344200D01*
X0070340Y0344200D01*
X0068540Y0346000D01*
X0065060Y0346000D01*
X0062600Y0343540D01*
X0062600Y0340060D01*
X0065060Y0337600D01*
X0068540Y0337600D01*
X0070340Y0339400D01*
X0070660Y0339400D01*
X0071821Y0338239D01*
X0073365Y0337600D01*
X0080235Y0337600D01*
X0080718Y0337800D02*
X0114860Y0337800D01*
X0115060Y0337600D02*
X0118540Y0337600D01*
X0120340Y0339400D01*
X0120660Y0339400D01*
X0121821Y0338239D01*
X0123365Y0337600D01*
X0130235Y0337600D01*
X0131779Y0338239D01*
X0132961Y0339421D01*
X0133600Y0340965D01*
X0133600Y0342635D01*
X0132961Y0344179D01*
X0131779Y0345361D01*
X0130235Y0346000D01*
X0123365Y0346000D01*
X0121821Y0345361D01*
X0120660Y0344200D01*
X0120340Y0344200D01*
X0118540Y0346000D01*
X0115060Y0346000D01*
X0112600Y0343540D01*
X0112600Y0340060D01*
X0115060Y0337600D01*
X0113800Y0338860D02*
X0113800Y0314740D01*
X0112600Y0313540D02*
X0112600Y0310060D01*
X0115060Y0307600D01*
X0118540Y0307600D01*
X0120340Y0309400D01*
X0120660Y0309400D01*
X0121821Y0308239D01*
X0123365Y0307600D01*
X0130235Y0307600D01*
X0131779Y0308239D01*
X0132961Y0309421D01*
X0133600Y0310965D01*
X0133600Y0312635D01*
X0132961Y0314179D01*
X0131779Y0315361D01*
X0130235Y0316000D01*
X0123365Y0316000D01*
X0121821Y0315361D01*
X0120660Y0314200D01*
X0120340Y0314200D01*
X0118540Y0316000D01*
X0115060Y0316000D01*
X0112600Y0313540D01*
X0112860Y0309800D02*
X0088118Y0309800D01*
X0085800Y0307834D02*
X0085800Y0305766D01*
X0085235Y0306000D02*
X0078365Y0306000D01*
X0076821Y0305361D01*
X0075639Y0304179D01*
X0075000Y0302635D01*
X0075000Y0300965D01*
X0075639Y0299421D01*
X0076821Y0298239D01*
X0078365Y0297600D01*
X0083773Y0297600D01*
X0092600Y0291716D01*
X0092600Y0290060D01*
X0095060Y0287600D01*
X0098540Y0287600D01*
X0101000Y0290060D01*
X0101000Y0293540D01*
X0098540Y0296000D01*
X0095060Y0296000D01*
X0094967Y0295907D01*
X0088336Y0300327D01*
X0088600Y0300965D01*
X0088600Y0302635D01*
X0087961Y0304179D01*
X0086779Y0305361D01*
X0085235Y0306000D01*
X0088532Y0302800D02*
X0120068Y0302800D01*
X0120000Y0302635D02*
X0120000Y0300965D01*
X0120639Y0299421D01*
X0121821Y0298239D01*
X0123365Y0297600D01*
X0128773Y0297600D01*
X0137600Y0291716D01*
X0137600Y0290060D01*
X0140060Y0287600D01*
X0143540Y0287600D01*
X0146000Y0290060D01*
X0146000Y0293540D01*
X0143540Y0296000D01*
X0140060Y0296000D01*
X0139967Y0295907D01*
X0133336Y0300327D01*
X0133600Y0300965D01*
X0133600Y0302635D01*
X0132961Y0304179D01*
X0131779Y0305361D01*
X0130235Y0306000D01*
X0123365Y0306000D01*
X0121821Y0305361D01*
X0120639Y0304179D01*
X0120000Y0302635D01*
X0120800Y0304340D02*
X0120800Y0309260D01*
X0116800Y0311800D02*
X0126800Y0311800D01*
X0127800Y0316000D02*
X0127800Y0337600D01*
X0130718Y0337800D02*
X0164860Y0337800D01*
X0165060Y0337600D02*
X0168540Y0337600D01*
X0170340Y0339400D01*
X0170660Y0339400D01*
X0171821Y0338239D01*
X0173365Y0337600D01*
X0180235Y0337600D01*
X0181779Y0338239D01*
X0182961Y0339421D01*
X0183600Y0340965D01*
X0183600Y0342635D01*
X0182961Y0344179D01*
X0181779Y0345361D01*
X0180235Y0346000D01*
X0173365Y0346000D01*
X0171821Y0345361D01*
X0170660Y0344200D01*
X0170340Y0344200D01*
X0168540Y0346000D01*
X0165060Y0346000D01*
X0162600Y0343540D01*
X0162600Y0340060D01*
X0165060Y0337600D01*
X0162800Y0339860D02*
X0162800Y0313740D01*
X0162600Y0313540D02*
X0162600Y0310060D01*
X0165060Y0307600D01*
X0168540Y0307600D01*
X0170340Y0309400D01*
X0175660Y0309400D01*
X0176821Y0308239D01*
X0178365Y0307600D01*
X0185235Y0307600D01*
X0186779Y0308239D01*
X0187961Y0309421D01*
X0188600Y0310965D01*
X0188600Y0312635D01*
X0187961Y0314179D01*
X0186779Y0315361D01*
X0185235Y0316000D01*
X0178365Y0316000D01*
X0176821Y0315361D01*
X0175660Y0314200D01*
X0170340Y0314200D01*
X0168540Y0316000D01*
X0165060Y0316000D01*
X0162600Y0313540D01*
X0162800Y0309860D02*
X0162800Y0284200D01*
X0162800Y0279400D02*
X0162800Y0274200D01*
X0162800Y0269400D02*
X0162800Y0216194D01*
X0165406Y0218800D02*
X0118194Y0218800D01*
X0120800Y0216194D02*
X0120800Y0279400D01*
X0117794Y0279400D02*
X0272277Y0279400D01*
X0273159Y0279765D01*
X0273835Y0280441D01*
X0283159Y0289765D01*
X0283835Y0290441D01*
X0284200Y0291323D01*
X0284200Y0325860D01*
X0285161Y0326821D01*
X0285800Y0328365D01*
X0285800Y0335235D01*
X0285161Y0336779D01*
X0283979Y0337961D01*
X0282435Y0338600D01*
X0280765Y0338600D01*
X0279221Y0337961D01*
X0278039Y0336779D01*
X0277400Y0335235D01*
X0277400Y0328365D01*
X0278039Y0326821D01*
X0279221Y0325639D01*
X0279400Y0325565D01*
X0279400Y0292794D01*
X0270806Y0284200D01*
X0116323Y0284200D01*
X0115441Y0283835D01*
X0114765Y0283159D01*
X0097606Y0266000D01*
X0095060Y0266000D01*
X0092600Y0263540D01*
X0092600Y0260060D01*
X0095060Y0257600D01*
X0098540Y0257600D01*
X0101000Y0260060D01*
X0101000Y0262606D01*
X0117794Y0279400D01*
X0116800Y0281800D02*
X0096800Y0261800D01*
X0099800Y0258860D02*
X0099800Y0208194D01*
X0101800Y0206800D02*
X0086800Y0191800D01*
X0085800Y0196000D02*
X0085800Y0287628D01*
X0086089Y0287722D02*
X0086706Y0288037D01*
X0087266Y0288444D01*
X0087756Y0288934D01*
X0088163Y0289494D01*
X0088478Y0290111D01*
X0088692Y0290770D01*
X0088800Y0291454D01*
X0088800Y0291800D01*
X0088800Y0292146D01*
X0088692Y0292830D01*
X0088478Y0293489D01*
X0088163Y0294106D01*
X0087756Y0294666D01*
X0087266Y0295156D01*
X0086706Y0295563D01*
X0086089Y0295878D01*
X0085430Y0296092D01*
X0084746Y0296200D01*
X0081800Y0296200D01*
X0081800Y0291800D01*
X0081800Y0291800D01*
X0088800Y0291800D01*
X0081800Y0291800D01*
X0081800Y0291800D01*
X0081800Y0296200D01*
X0078854Y0296200D01*
X0078170Y0296092D01*
X0077511Y0295878D01*
X0076894Y0295563D01*
X0076334Y0295156D01*
X0075844Y0294666D01*
X0075437Y0294106D01*
X0075122Y0293489D01*
X0074908Y0292830D01*
X0074800Y0292146D01*
X0074800Y0291800D01*
X0081800Y0291800D01*
X0081800Y0287400D01*
X0084746Y0287400D01*
X0085430Y0287508D01*
X0086089Y0287722D01*
X0087623Y0288800D02*
X0093860Y0288800D01*
X0092800Y0289860D02*
X0092800Y0263740D01*
X0092600Y0260800D02*
X0054200Y0260800D01*
X0049400Y0260800D02*
X0011600Y0260800D01*
X0011600Y0253800D02*
X0049400Y0253800D01*
X0054200Y0253800D02*
X0201406Y0253800D01*
X0204800Y0257194D02*
X0204800Y0269400D01*
X0204800Y0274200D02*
X0204800Y0279400D01*
X0197800Y0279400D02*
X0197800Y0274200D01*
X0197800Y0269400D02*
X0197800Y0266000D01*
X0198540Y0266000D02*
X0195060Y0266000D01*
X0192600Y0263540D01*
X0192600Y0260060D01*
X0195060Y0257600D01*
X0197606Y0257600D01*
X0205441Y0249765D01*
X0206323Y0249400D01*
X0272277Y0249400D01*
X0273159Y0249765D01*
X0313159Y0289765D01*
X0313835Y0290441D01*
X0314200Y0291323D01*
X0314200Y0325860D01*
X0315161Y0326821D01*
X0315800Y0328365D01*
X0315800Y0335235D01*
X0315161Y0336779D01*
X0313979Y0337961D01*
X0312435Y0338600D01*
X0310765Y0338600D01*
X0309221Y0337961D01*
X0308039Y0336779D01*
X0307400Y0335235D01*
X0307400Y0328365D01*
X0308039Y0326821D01*
X0309221Y0325639D01*
X0309400Y0325565D01*
X0309400Y0292794D01*
X0270806Y0254200D01*
X0207794Y0254200D01*
X0201000Y0260994D01*
X0201000Y0263540D01*
X0198540Y0266000D01*
X0196800Y0261800D02*
X0206800Y0251800D01*
X0271800Y0251800D01*
X0311800Y0291800D01*
X0311800Y0327000D01*
X0311600Y0331800D01*
X0315800Y0330800D02*
X0317400Y0330800D01*
X0317400Y0328365D02*
X0318039Y0326821D01*
X0319221Y0325639D01*
X0319400Y0325565D01*
X0319400Y0292794D01*
X0270806Y0244200D01*
X0191323Y0244200D01*
X0190441Y0243835D01*
X0189765Y0243159D01*
X0139765Y0193159D01*
X0139400Y0192277D01*
X0139400Y0161323D01*
X0139765Y0160441D01*
X0140441Y0159765D01*
X0159900Y0140306D01*
X0159900Y0139840D01*
X0158100Y0138040D01*
X0158100Y0134560D01*
X0160560Y0132100D01*
X0164040Y0132100D01*
X0166500Y0134560D01*
X0166500Y0138040D01*
X0164700Y0139840D01*
X0164700Y0141777D01*
X0164335Y0142659D01*
X0144200Y0162794D01*
X0144200Y0190806D01*
X0192794Y0239400D01*
X0272277Y0239400D01*
X0273159Y0239765D01*
X0323159Y0289765D01*
X0323835Y0290441D01*
X0324200Y0291323D01*
X0324200Y0325860D01*
X0325161Y0326821D01*
X0325800Y0328365D01*
X0325800Y0335235D01*
X0325161Y0336779D01*
X0323979Y0337961D01*
X0322435Y0338600D01*
X0320765Y0338600D01*
X0319221Y0337961D01*
X0318039Y0336779D01*
X0317400Y0335235D01*
X0317400Y0328365D01*
X0321800Y0327000D02*
X0321600Y0331800D01*
X0325800Y0330800D02*
X0327400Y0330800D01*
X0327400Y0328365D02*
X0328039Y0326821D01*
X0329221Y0325639D01*
X0330765Y0325000D01*
X0332435Y0325000D01*
X0333979Y0325639D01*
X0335161Y0326821D01*
X0335800Y0328365D01*
X0335800Y0335235D01*
X0335161Y0336779D01*
X0333979Y0337961D01*
X0332435Y0338600D01*
X0330765Y0338600D01*
X0329221Y0337961D01*
X0328039Y0336779D01*
X0327400Y0335235D01*
X0327400Y0328365D01*
X0330800Y0325000D02*
X0330800Y0294194D01*
X0332406Y0295800D02*
X0324200Y0295800D01*
X0321800Y0291800D02*
X0321800Y0327000D01*
X0324200Y0323800D02*
X0339400Y0323800D01*
X0337800Y0327399D02*
X0337800Y0301194D01*
X0339400Y0302800D02*
X0324200Y0302800D01*
X0319400Y0302800D02*
X0314200Y0302800D01*
X0309400Y0302800D02*
X0304200Y0302800D01*
X0299400Y0302800D02*
X0294200Y0302800D01*
X0289400Y0302800D02*
X0284200Y0302800D01*
X0279400Y0302800D02*
X0223532Y0302800D01*
X0223600Y0302635D02*
X0222961Y0304179D01*
X0221779Y0305361D01*
X0220235Y0306000D01*
X0213365Y0306000D01*
X0211821Y0305361D01*
X0210639Y0304179D01*
X0210000Y0302635D01*
X0210000Y0300965D01*
X0210639Y0299421D01*
X0211821Y0298239D01*
X0213365Y0297600D01*
X0218773Y0297600D01*
X0227600Y0291716D01*
X0227600Y0290060D01*
X0230060Y0287600D01*
X0233540Y0287600D01*
X0236000Y0290060D01*
X0236000Y0293540D01*
X0233540Y0296000D01*
X0230060Y0296000D01*
X0229967Y0295907D01*
X0223336Y0300327D01*
X0223600Y0300965D01*
X0223600Y0302635D01*
X0225800Y0298684D02*
X0225800Y0349400D01*
X0225800Y0354200D02*
X0225800Y0382099D01*
X0218800Y0382095D02*
X0218800Y0356000D01*
X0216800Y0351800D02*
X0176800Y0351800D01*
X0126800Y0351800D01*
X0076800Y0351800D01*
X0061800Y0351800D01*
X0051800Y0341800D01*
X0051800Y0241800D01*
X0066800Y0226800D01*
X0065550Y0225550D01*
X0031800Y0225550D01*
X0030300Y0224050D01*
X0030300Y0214300D01*
X0024300Y0214300D01*
X0021800Y0211800D01*
X0021800Y0181800D01*
X0036800Y0166800D01*
X0041400Y0169800D02*
X0041406Y0169800D01*
X0043800Y0174194D02*
X0043800Y0180800D01*
X0045250Y0183800D02*
X0059400Y0183800D01*
X0061800Y0181800D02*
X0061800Y0201800D01*
X0066800Y0206800D01*
X0066800Y0226800D01*
X0071689Y0225800D02*
X0101910Y0225800D01*
X0106800Y0226800D02*
X0121800Y0211800D01*
X0121800Y0171800D01*
X0091800Y0141800D01*
X0092800Y0139616D02*
X0092800Y0134200D01*
X0093860Y0134800D02*
X0084740Y0134800D01*
X0085800Y0134200D02*
X0085800Y0139400D01*
X0085800Y0144200D02*
X0085800Y0149400D01*
X0085800Y0154200D02*
X0085800Y0157600D01*
X0086800Y0161800D02*
X0081800Y0161800D01*
X0061800Y0181800D01*
X0064800Y0182194D02*
X0064800Y0201406D01*
X0064200Y0197800D02*
X0089406Y0197800D01*
X0092800Y0194406D02*
X0092800Y0189194D01*
X0091194Y0190800D02*
X0119400Y0190800D01*
X0124200Y0190800D02*
X0139400Y0190800D01*
X0141800Y0191800D02*
X0191800Y0241800D01*
X0271800Y0241800D01*
X0321800Y0291800D01*
X0323800Y0290406D02*
X0323800Y0287194D01*
X0322194Y0288800D02*
X0325406Y0288800D01*
X0330800Y0287406D02*
X0330800Y0274194D01*
X0331406Y0274800D02*
X0318194Y0274800D01*
X0316800Y0273406D02*
X0316800Y0260194D01*
X0317406Y0260800D02*
X0304194Y0260800D01*
X0302800Y0259406D02*
X0302800Y0246194D01*
X0303406Y0246800D02*
X0290194Y0246800D01*
X0288800Y0245406D02*
X0288800Y0232194D01*
X0289406Y0232800D02*
X0276194Y0232800D01*
X0274800Y0238194D02*
X0274800Y0241406D01*
X0273194Y0239800D02*
X0276406Y0239800D01*
X0281800Y0238406D02*
X0281800Y0225194D01*
X0282406Y0225800D02*
X0229023Y0225800D01*
X0226800Y0225800D02*
X0226800Y0225800D01*
X0225800Y0226200D02*
X0225800Y0229400D01*
X0224577Y0225800D02*
X0196794Y0225800D01*
X0197800Y0226806D02*
X0197800Y0215718D01*
X0196000Y0215235D02*
X0195361Y0216779D01*
X0194179Y0217961D01*
X0192635Y0218600D01*
X0190965Y0218600D01*
X0189421Y0217961D01*
X0188239Y0216779D01*
X0187600Y0215235D01*
X0187600Y0208365D01*
X0188239Y0206821D01*
X0188333Y0206727D01*
X0162606Y0181000D01*
X0160060Y0181000D01*
X0157600Y0178540D01*
X0157600Y0175060D01*
X0160060Y0172600D01*
X0163540Y0172600D01*
X0166000Y0175060D01*
X0166000Y0177606D01*
X0193835Y0205441D01*
X0193863Y0205508D01*
X0194179Y0205639D01*
X0195361Y0206821D01*
X0196000Y0208365D01*
X0196000Y0215235D01*
X0196000Y0211800D02*
X0197600Y0211800D01*
X0197800Y0207882D02*
X0197800Y0168740D01*
X0198860Y0169800D02*
X0154200Y0169800D01*
X0155800Y0166194D02*
X0155800Y0184806D01*
X0154794Y0183800D02*
X0165406Y0183800D01*
X0162800Y0181194D02*
X0162800Y0191806D01*
X0161794Y0190800D02*
X0172406Y0190800D01*
X0169800Y0188194D02*
X0169800Y0198806D01*
X0168794Y0197800D02*
X0179406Y0197800D01*
X0176800Y0195194D02*
X0176800Y0205806D01*
X0175794Y0204800D02*
X0186406Y0204800D01*
X0183800Y0202194D02*
X0183800Y0212806D01*
X0182794Y0211800D02*
X0187600Y0211800D01*
X0191800Y0211800D02*
X0191800Y0206800D01*
X0161800Y0176800D01*
X0166000Y0176800D02*
X0187600Y0176800D01*
X0187600Y0178540D02*
X0187600Y0175060D01*
X0190060Y0172600D01*
X0193540Y0172600D01*
X0196000Y0175060D01*
X0196000Y0178540D01*
X0193540Y0181000D01*
X0190060Y0181000D01*
X0187600Y0178540D01*
X0190800Y0181000D02*
X0190800Y0202406D01*
X0193194Y0204800D02*
X0199400Y0204800D01*
X0204200Y0204800D02*
X0209400Y0204800D01*
X0204800Y0206260D02*
X0204800Y0169740D01*
X0204740Y0169800D02*
X0209400Y0169800D01*
X0209400Y0176800D02*
X0204200Y0176800D01*
X0199400Y0176800D02*
X0196000Y0176800D01*
X0190800Y0172600D02*
X0190800Y0161000D01*
X0196000Y0155800D02*
X0207406Y0155800D01*
X0214200Y0162800D02*
X0229400Y0162800D01*
X0234200Y0162800D02*
X0254104Y0162800D01*
X0254108Y0162770D02*
X0254322Y0162111D01*
X0254637Y0161494D01*
X0255044Y0160934D01*
X0255534Y0160444D01*
X0256094Y0160037D01*
X0256711Y0159722D01*
X0257370Y0159508D01*
X0258054Y0159400D01*
X0258400Y0159400D01*
X0258400Y0163800D01*
X0254000Y0163800D01*
X0254000Y0163454D01*
X0254108Y0162770D01*
X0258400Y0162800D02*
X0258400Y0162800D01*
X0260800Y0163800D02*
X0260800Y0163800D01*
X0262696Y0162800D02*
X0284268Y0162800D01*
X0288800Y0159600D02*
X0288800Y0156000D01*
X0289234Y0155800D02*
X0396451Y0155800D01*
X0396451Y0148800D02*
X0292900Y0148800D01*
X0295800Y0143294D02*
X0295800Y0232406D01*
X0296194Y0232800D02*
X0347600Y0232800D01*
X0358800Y0234200D02*
X0358800Y0326060D01*
X0359221Y0325639D02*
X0358039Y0326821D01*
X0357400Y0328365D01*
X0357400Y0335235D01*
X0358039Y0336779D01*
X0359221Y0337961D01*
X0360765Y0338600D01*
X0362435Y0338600D01*
X0363979Y0337961D01*
X0365161Y0336779D01*
X0365800Y0335235D01*
X0365800Y0328365D01*
X0365161Y0326821D01*
X0363979Y0325639D01*
X0362435Y0325000D01*
X0360765Y0325000D01*
X0359221Y0325639D01*
X0354200Y0323800D02*
X0396451Y0323800D01*
X0396451Y0316800D02*
X0354200Y0316800D01*
X0349400Y0316800D02*
X0344200Y0316800D01*
X0339400Y0316800D02*
X0324200Y0316800D01*
X0319400Y0316800D02*
X0314200Y0316800D01*
X0309400Y0316800D02*
X0304200Y0316800D01*
X0299400Y0316800D02*
X0294200Y0316800D01*
X0289400Y0316800D02*
X0284200Y0316800D01*
X0279400Y0316800D02*
X0054200Y0316800D01*
X0049400Y0316800D02*
X0011600Y0316800D01*
X0011600Y0309800D02*
X0049400Y0309800D01*
X0054200Y0309800D02*
X0062860Y0309800D01*
X0064800Y0307860D02*
X0064800Y0232194D01*
X0064194Y0232800D02*
X0179406Y0232800D01*
X0176800Y0230194D02*
X0176800Y0269400D01*
X0176800Y0274200D02*
X0176800Y0279400D01*
X0169800Y0279400D02*
X0169800Y0274200D01*
X0169800Y0269400D02*
X0169800Y0223194D01*
X0172406Y0225800D02*
X0111689Y0225800D01*
X0113800Y0223194D02*
X0113800Y0275406D01*
X0113194Y0274800D02*
X0271406Y0274800D01*
X0270806Y0274200D02*
X0152277Y0274200D01*
X0151323Y0274200D01*
X0150441Y0273835D01*
X0142606Y0266000D01*
X0140060Y0266000D01*
X0137600Y0263540D01*
X0137600Y0260060D01*
X0140060Y0257600D01*
X0143540Y0257600D01*
X0146000Y0260060D01*
X0146000Y0262606D01*
X0152794Y0269400D01*
X0272277Y0269400D01*
X0273159Y0269765D01*
X0293159Y0289765D01*
X0293835Y0290441D01*
X0294200Y0291323D01*
X0294200Y0325860D01*
X0295161Y0326821D01*
X0295800Y0328365D01*
X0295800Y0335235D01*
X0295161Y0336779D01*
X0293979Y0337961D01*
X0292435Y0338600D01*
X0290765Y0338600D01*
X0289221Y0337961D01*
X0288039Y0336779D01*
X0287400Y0335235D01*
X0287400Y0328365D01*
X0288039Y0326821D01*
X0289221Y0325639D01*
X0289400Y0325565D01*
X0289400Y0292794D01*
X0270806Y0274200D01*
X0271800Y0271800D02*
X0291800Y0291800D01*
X0291800Y0327000D01*
X0291600Y0331800D01*
X0295800Y0330800D02*
X0297400Y0330800D01*
X0297400Y0328365D02*
X0298039Y0326821D01*
X0299221Y0325639D01*
X0299400Y0325565D01*
X0299400Y0292794D01*
X0270806Y0264200D01*
X0235340Y0264200D01*
X0233540Y0266000D01*
X0230060Y0266000D01*
X0227600Y0263540D01*
X0227600Y0260060D01*
X0230060Y0257600D01*
X0233540Y0257600D01*
X0235340Y0259400D01*
X0272277Y0259400D01*
X0273159Y0259765D01*
X0303159Y0289765D01*
X0303835Y0290441D01*
X0304200Y0291323D01*
X0304200Y0325860D01*
X0305161Y0326821D01*
X0305800Y0328365D01*
X0305800Y0335235D01*
X0305161Y0336779D01*
X0303979Y0337961D01*
X0302435Y0338600D01*
X0300765Y0338600D01*
X0299221Y0337961D01*
X0298039Y0336779D01*
X0297400Y0335235D01*
X0297400Y0328365D01*
X0301800Y0327000D02*
X0301600Y0331800D01*
X0305800Y0330800D02*
X0307400Y0330800D01*
X0309060Y0337800D02*
X0304140Y0337800D01*
X0302800Y0338449D02*
X0302800Y0382148D01*
X0309800Y0382153D02*
X0309800Y0338200D01*
X0314140Y0337800D02*
X0319060Y0337800D01*
X0323800Y0338035D02*
X0323800Y0382162D01*
X0330800Y0382166D02*
X0330800Y0338600D01*
X0329060Y0337800D02*
X0324140Y0337800D01*
X0334140Y0337800D02*
X0339060Y0337800D01*
X0337800Y0336201D02*
X0337800Y0382170D01*
X0344800Y0382175D02*
X0344800Y0337140D01*
X0344140Y0337800D02*
X0349060Y0337800D01*
X0351800Y0338600D02*
X0351800Y0382179D01*
X0358800Y0382184D02*
X0358800Y0337540D01*
X0359060Y0337800D02*
X0354140Y0337800D01*
X0355800Y0330800D02*
X0357400Y0330800D01*
X0365800Y0330800D02*
X0396451Y0330800D01*
X0396451Y0337800D02*
X0364140Y0337800D01*
X0349400Y0323800D02*
X0344200Y0323800D01*
X0344800Y0326460D02*
X0344800Y0288194D01*
X0345406Y0288800D02*
X0332194Y0288800D01*
X0337800Y0294406D02*
X0337800Y0281194D01*
X0338406Y0281800D02*
X0325194Y0281800D01*
X0323800Y0280406D02*
X0323800Y0267194D01*
X0324406Y0267800D02*
X0311194Y0267800D01*
X0309800Y0266406D02*
X0309800Y0253194D01*
X0310406Y0253800D02*
X0297194Y0253800D01*
X0295800Y0252406D02*
X0295800Y0239194D01*
X0296406Y0239800D02*
X0283194Y0239800D01*
X0281800Y0245194D02*
X0281800Y0248406D01*
X0280194Y0246800D02*
X0283406Y0246800D01*
X0280406Y0253800D02*
X0277194Y0253800D01*
X0274800Y0251406D02*
X0274800Y0248194D01*
X0273406Y0246800D02*
X0054200Y0246800D01*
X0049400Y0246800D02*
X0011600Y0246800D01*
X0011600Y0225800D02*
X0028656Y0225800D01*
X0029800Y0226944D02*
X0029800Y0351183D01*
X0029027Y0351800D02*
X0011600Y0351800D01*
X0011600Y0344800D02*
X0051406Y0344800D01*
X0050800Y0344194D02*
X0050800Y0350663D01*
X0050975Y0350764D02*
X0050975Y0350764D01*
X0051936Y0351800D02*
X0058406Y0351800D01*
X0057800Y0351194D02*
X0057800Y0381993D01*
X0050800Y0381989D02*
X0050800Y0377137D01*
X0050975Y0377036D02*
X0050975Y0377036D01*
X0054654Y0372800D02*
X0396451Y0372800D01*
X0396451Y0365800D02*
X0057015Y0365800D01*
X0056555Y0368852D02*
X0056555Y0368852D01*
X0056555Y0358948D02*
X0056555Y0358948D01*
X0056484Y0358800D02*
X0396451Y0358800D01*
X0396451Y0351800D02*
X0245194Y0351800D01*
X0246800Y0350194D02*
X0246800Y0382113D01*
X0253800Y0382117D02*
X0253800Y0343194D01*
X0252194Y0344800D02*
X0396451Y0344800D01*
X0396451Y0309800D02*
X0354200Y0309800D01*
X0349400Y0309800D02*
X0344200Y0309800D01*
X0339400Y0309800D02*
X0324200Y0309800D01*
X0319400Y0309800D02*
X0314200Y0309800D01*
X0309400Y0309800D02*
X0304200Y0309800D01*
X0299400Y0309800D02*
X0294200Y0309800D01*
X0289400Y0309800D02*
X0284200Y0309800D01*
X0279400Y0309800D02*
X0223118Y0309800D01*
X0222961Y0309421D02*
X0223600Y0310965D01*
X0223600Y0312635D01*
X0222961Y0314179D01*
X0221779Y0315361D01*
X0220235Y0316000D01*
X0213365Y0316000D01*
X0211821Y0315361D01*
X0210660Y0314200D01*
X0210340Y0314200D01*
X0208540Y0316000D01*
X0205060Y0316000D01*
X0202600Y0313540D01*
X0202600Y0310060D01*
X0205060Y0307600D01*
X0208540Y0307600D01*
X0210340Y0309400D01*
X0210660Y0309400D01*
X0211821Y0308239D01*
X0213365Y0307600D01*
X0220235Y0307600D01*
X0221779Y0308239D01*
X0222961Y0309421D01*
X0218800Y0307600D02*
X0218800Y0306000D01*
X0216800Y0301800D02*
X0231800Y0291800D01*
X0228860Y0288800D02*
X0222623Y0288800D01*
X0222756Y0288934D02*
X0223163Y0289494D01*
X0223478Y0290111D01*
X0223692Y0290770D01*
X0223800Y0291454D01*
X0223800Y0291800D01*
X0223800Y0292146D01*
X0223692Y0292830D01*
X0223478Y0293489D01*
X0223163Y0294106D01*
X0222756Y0294666D01*
X0222266Y0295156D01*
X0221706Y0295563D01*
X0221089Y0295878D01*
X0220430Y0296092D01*
X0219746Y0296200D01*
X0216800Y0296200D01*
X0216800Y0291800D01*
X0216800Y0291800D01*
X0223800Y0291800D01*
X0216800Y0291800D01*
X0216800Y0291800D01*
X0216800Y0296200D01*
X0213854Y0296200D01*
X0213170Y0296092D01*
X0212511Y0295878D01*
X0211894Y0295563D01*
X0211334Y0295156D01*
X0210844Y0294666D01*
X0210437Y0294106D01*
X0210122Y0293489D01*
X0209908Y0292830D01*
X0209800Y0292146D01*
X0209800Y0291800D01*
X0216800Y0291800D01*
X0216800Y0287400D01*
X0219746Y0287400D01*
X0220430Y0287508D01*
X0221089Y0287722D01*
X0221706Y0288037D01*
X0222266Y0288444D01*
X0222756Y0288934D01*
X0218800Y0287400D02*
X0218800Y0284200D01*
X0216800Y0287400D02*
X0216800Y0291800D01*
X0216800Y0291800D01*
X0216800Y0291800D01*
X0209800Y0291800D01*
X0209800Y0291454D01*
X0209908Y0290770D01*
X0210122Y0290111D01*
X0210437Y0289494D01*
X0210844Y0288934D01*
X0211334Y0288444D01*
X0211894Y0288037D01*
X0212511Y0287722D01*
X0213170Y0287508D01*
X0213854Y0287400D01*
X0216800Y0287400D01*
X0216800Y0288800D02*
X0216800Y0288800D01*
X0218800Y0291800D02*
X0218800Y0291800D01*
X0218800Y0296200D02*
X0218800Y0297582D01*
X0216800Y0295800D02*
X0216800Y0295800D01*
X0212359Y0295800D02*
X0198740Y0295800D01*
X0198540Y0296000D02*
X0195060Y0296000D01*
X0194967Y0295907D01*
X0188336Y0300327D01*
X0188600Y0300965D01*
X0188600Y0302635D01*
X0187961Y0304179D01*
X0186779Y0305361D01*
X0185235Y0306000D01*
X0178365Y0306000D01*
X0176821Y0305361D01*
X0175639Y0304179D01*
X0175000Y0302635D01*
X0175000Y0300965D01*
X0175639Y0299421D01*
X0176821Y0298239D01*
X0178365Y0297600D01*
X0183773Y0297600D01*
X0192600Y0291716D01*
X0192600Y0290060D01*
X0195060Y0287600D01*
X0198540Y0287600D01*
X0201000Y0290060D01*
X0201000Y0293540D01*
X0198540Y0296000D01*
X0197800Y0296000D02*
X0197800Y0349400D01*
X0197800Y0354200D02*
X0197800Y0382082D01*
X0204800Y0382086D02*
X0204800Y0354200D01*
X0204800Y0349400D02*
X0204800Y0345740D01*
X0205060Y0346000D02*
X0202600Y0343540D01*
X0202600Y0340060D01*
X0205060Y0337600D01*
X0208540Y0337600D01*
X0210340Y0339400D01*
X0210660Y0339400D01*
X0211821Y0338239D01*
X0213365Y0337600D01*
X0220235Y0337600D01*
X0221779Y0338239D01*
X0222961Y0339421D01*
X0223600Y0340965D01*
X0223600Y0342635D01*
X0222961Y0344179D01*
X0221779Y0345361D01*
X0220235Y0346000D01*
X0213365Y0346000D01*
X0211821Y0345361D01*
X0210660Y0344200D01*
X0210340Y0344200D01*
X0208540Y0346000D01*
X0205060Y0346000D01*
X0203860Y0344800D02*
X0182340Y0344800D01*
X0183800Y0349400D02*
X0183800Y0316000D01*
X0181800Y0311800D02*
X0166800Y0311800D01*
X0169800Y0314740D02*
X0169800Y0338860D01*
X0168740Y0337800D02*
X0172882Y0337800D01*
X0176800Y0337600D02*
X0176800Y0315340D01*
X0176800Y0308260D02*
X0176800Y0305340D01*
X0175068Y0302800D02*
X0133532Y0302800D01*
X0134800Y0299351D02*
X0134800Y0349400D01*
X0134800Y0354200D02*
X0134800Y0382042D01*
X0127800Y0382037D02*
X0127800Y0356000D01*
X0126800Y0351800D02*
X0121800Y0351800D01*
X0120800Y0354340D02*
X0120800Y0382033D01*
X0113800Y0382028D02*
X0113800Y0354200D01*
X0113800Y0349400D02*
X0113800Y0344740D01*
X0113860Y0344800D02*
X0082340Y0344800D01*
X0078800Y0346000D02*
X0078800Y0347600D01*
X0076800Y0341800D02*
X0066800Y0341800D01*
X0069740Y0344800D02*
X0071260Y0344800D01*
X0071800Y0345340D02*
X0071800Y0348260D01*
X0064800Y0349400D02*
X0064800Y0345740D01*
X0063860Y0344800D02*
X0058194Y0344800D01*
X0057800Y0344406D02*
X0057800Y0239194D01*
X0057194Y0239800D02*
X0186406Y0239800D01*
X0183800Y0237194D02*
X0183800Y0269400D01*
X0183800Y0274200D02*
X0183800Y0279400D01*
X0183800Y0284200D02*
X0183800Y0287400D01*
X0184746Y0287400D02*
X0185430Y0287508D01*
X0186089Y0287722D01*
X0186706Y0288037D01*
X0187266Y0288444D01*
X0187756Y0288934D01*
X0188163Y0289494D01*
X0188478Y0290111D01*
X0188692Y0290770D01*
X0188800Y0291454D01*
X0188800Y0291800D01*
X0188800Y0292146D01*
X0188692Y0292830D01*
X0188478Y0293489D01*
X0188163Y0294106D01*
X0187756Y0294666D01*
X0187266Y0295156D01*
X0186706Y0295563D01*
X0186089Y0295878D01*
X0185430Y0296092D01*
X0184746Y0296200D01*
X0181800Y0296200D01*
X0181800Y0291800D01*
X0181800Y0291800D01*
X0188800Y0291800D01*
X0181800Y0291800D01*
X0181800Y0291800D01*
X0181800Y0296200D01*
X0178854Y0296200D01*
X0178170Y0296092D01*
X0177511Y0295878D01*
X0176894Y0295563D01*
X0176334Y0295156D01*
X0175844Y0294666D01*
X0175437Y0294106D01*
X0175122Y0293489D01*
X0174908Y0292830D01*
X0174800Y0292146D01*
X0174800Y0291800D01*
X0181800Y0291800D01*
X0181800Y0287400D01*
X0184746Y0287400D01*
X0181800Y0287400D02*
X0181800Y0291800D01*
X0181800Y0291800D01*
X0181800Y0291800D01*
X0174800Y0291800D01*
X0174800Y0291454D01*
X0174908Y0290770D01*
X0175122Y0290111D01*
X0175437Y0289494D01*
X0175844Y0288934D01*
X0176334Y0288444D01*
X0176894Y0288037D01*
X0177511Y0287722D01*
X0178170Y0287508D01*
X0178854Y0287400D01*
X0181800Y0287400D01*
X0181800Y0288800D02*
X0181800Y0288800D01*
X0183800Y0291800D02*
X0183800Y0291800D01*
X0183800Y0296200D02*
X0183800Y0297582D01*
X0181800Y0295800D02*
X0181800Y0295800D01*
X0186241Y0295800D02*
X0186473Y0295800D01*
X0190800Y0298684D02*
X0190800Y0349400D01*
X0190800Y0354200D02*
X0190800Y0382077D01*
X0183800Y0382073D02*
X0183800Y0354200D01*
X0176800Y0356000D02*
X0176800Y0382068D01*
X0169800Y0382064D02*
X0169800Y0354200D01*
X0169800Y0349400D02*
X0169800Y0344740D01*
X0169740Y0344800D02*
X0171260Y0344800D01*
X0166800Y0341800D02*
X0176800Y0341800D01*
X0176800Y0346000D02*
X0176800Y0347600D01*
X0180718Y0337800D02*
X0204860Y0337800D01*
X0204800Y0337860D02*
X0204800Y0315740D01*
X0206800Y0311800D02*
X0216800Y0311800D01*
X0218800Y0316000D02*
X0218800Y0337600D01*
X0220718Y0337800D02*
X0249060Y0337800D01*
X0251800Y0341800D02*
X0251600Y0331800D01*
X0255800Y0330800D02*
X0257400Y0330800D01*
X0257400Y0328365D02*
X0258039Y0326821D01*
X0259221Y0325639D01*
X0260765Y0325000D01*
X0262435Y0325000D01*
X0263979Y0325639D01*
X0265161Y0326821D01*
X0265800Y0328365D01*
X0265800Y0335235D01*
X0265161Y0336779D01*
X0263979Y0337961D01*
X0262435Y0338600D01*
X0260765Y0338600D01*
X0259221Y0337961D01*
X0258039Y0336779D01*
X0257400Y0335235D01*
X0257400Y0328365D01*
X0253800Y0325565D02*
X0253800Y0284200D01*
X0246800Y0284200D02*
X0246800Y0343406D01*
X0245406Y0344800D02*
X0222340Y0344800D01*
X0218800Y0346000D02*
X0218800Y0347600D01*
X0216800Y0351800D02*
X0241800Y0351800D01*
X0251800Y0341800D01*
X0254140Y0337800D02*
X0259060Y0337800D01*
X0260800Y0338600D02*
X0260800Y0382122D01*
X0267800Y0382126D02*
X0267800Y0336634D01*
X0267837Y0336706D02*
X0267522Y0336089D01*
X0267308Y0335430D01*
X0267200Y0334746D01*
X0267200Y0331800D01*
X0271600Y0331800D01*
X0276000Y0331800D01*
X0276000Y0334746D01*
X0275892Y0335430D01*
X0275678Y0336089D01*
X0275363Y0336706D01*
X0274956Y0337266D01*
X0274466Y0337756D01*
X0273906Y0338163D01*
X0273289Y0338478D01*
X0272630Y0338692D01*
X0271946Y0338800D01*
X0271600Y0338800D01*
X0271600Y0331800D01*
X0271600Y0331800D01*
X0271600Y0331800D01*
X0276000Y0331800D01*
X0276000Y0328854D01*
X0275892Y0328170D01*
X0275678Y0327511D01*
X0275363Y0326894D01*
X0274956Y0326334D01*
X0274466Y0325844D01*
X0273906Y0325437D01*
X0273289Y0325122D01*
X0272630Y0324908D01*
X0271946Y0324800D01*
X0271600Y0324800D01*
X0271600Y0331800D01*
X0271600Y0331800D01*
X0271600Y0331800D01*
X0271600Y0338800D01*
X0271254Y0338800D01*
X0270570Y0338692D01*
X0269911Y0338478D01*
X0269294Y0338163D01*
X0268734Y0337756D01*
X0268244Y0337266D01*
X0267837Y0336706D01*
X0268794Y0337800D02*
X0264140Y0337800D01*
X0267200Y0331800D02*
X0267200Y0328854D01*
X0267308Y0328170D01*
X0267522Y0327511D01*
X0267837Y0326894D01*
X0268244Y0326334D01*
X0268734Y0325844D01*
X0269294Y0325437D01*
X0269911Y0325122D01*
X0270570Y0324908D01*
X0271254Y0324800D01*
X0271600Y0324800D01*
X0271600Y0331800D01*
X0267200Y0331800D01*
X0267800Y0331800D02*
X0267800Y0331800D01*
X0267200Y0330800D02*
X0265800Y0330800D01*
X0267800Y0326966D02*
X0267800Y0284200D01*
X0271800Y0281800D02*
X0281800Y0291800D01*
X0281800Y0327000D01*
X0281600Y0331800D01*
X0285800Y0330800D02*
X0287400Y0330800D01*
X0288800Y0337540D02*
X0288800Y0382139D01*
X0281800Y0382135D02*
X0281800Y0338600D01*
X0284140Y0337800D02*
X0289060Y0337800D01*
X0294140Y0337800D02*
X0299060Y0337800D01*
X0301800Y0327000D02*
X0301800Y0291800D01*
X0271800Y0261800D01*
X0231800Y0261800D01*
X0232800Y0266000D02*
X0232800Y0269400D01*
X0232800Y0274200D02*
X0232800Y0279400D01*
X0232800Y0284200D02*
X0232800Y0287600D01*
X0234740Y0288800D02*
X0275406Y0288800D01*
X0274800Y0288194D02*
X0274800Y0326177D01*
X0279400Y0323800D02*
X0054200Y0323800D01*
X0049400Y0323800D02*
X0011600Y0323800D01*
X0011600Y0330800D02*
X0049400Y0330800D01*
X0054200Y0330800D02*
X0247400Y0330800D01*
X0260800Y0325000D02*
X0260800Y0284200D01*
X0260800Y0279400D02*
X0260800Y0274200D01*
X0260800Y0269400D02*
X0260800Y0264200D01*
X0260800Y0259400D02*
X0260800Y0254200D01*
X0260800Y0249400D02*
X0260800Y0244200D01*
X0260800Y0239400D02*
X0260800Y0234200D01*
X0260800Y0229400D02*
X0260800Y0211000D01*
X0260060Y0211000D02*
X0257600Y0208540D01*
X0257600Y0205060D01*
X0260060Y0202600D01*
X0263540Y0202600D01*
X0266000Y0205060D01*
X0266000Y0208540D01*
X0263540Y0211000D01*
X0260060Y0211000D01*
X0256000Y0208540D02*
X0253540Y0211000D01*
X0250060Y0211000D01*
X0247600Y0208540D01*
X0247600Y0205060D01*
X0250060Y0202600D01*
X0253540Y0202600D01*
X0256000Y0205060D01*
X0256000Y0208540D01*
X0253800Y0210740D02*
X0253800Y0212577D01*
X0253623Y0212400D02*
X0256200Y0214977D01*
X0256200Y0216800D01*
X0256200Y0218623D01*
X0256200Y0216800D02*
X0251800Y0216800D01*
X0251800Y0216800D01*
X0251800Y0216800D01*
X0251800Y0216800D01*
X0247400Y0216800D01*
X0247400Y0218623D01*
X0249977Y0221200D01*
X0251800Y0221200D01*
X0251800Y0216800D01*
X0256200Y0216800D01*
X0253800Y0216800D02*
X0253800Y0216800D01*
X0251800Y0216800D02*
X0251800Y0212400D01*
X0253623Y0212400D01*
X0251800Y0212400D02*
X0251800Y0216800D01*
X0251800Y0216800D01*
X0247400Y0216800D01*
X0247400Y0214977D01*
X0249977Y0212400D01*
X0251800Y0212400D01*
X0255740Y0204800D02*
X0257860Y0204800D01*
X0260800Y0202600D02*
X0260800Y0197340D01*
X0260800Y0190260D02*
X0260800Y0187340D01*
X0255460Y0190800D02*
X0231000Y0190800D01*
X0225800Y0187600D02*
X0225800Y0124200D01*
X0225800Y0119400D02*
X0225800Y0067400D01*
X0218800Y0066619D02*
X0218800Y0119400D01*
X0218800Y0124200D02*
X0218800Y0229400D01*
X0218800Y0234200D02*
X0218800Y0239400D01*
X0225800Y0239400D02*
X0225800Y0234200D01*
X0232800Y0234200D02*
X0232800Y0239400D01*
X0232800Y0244200D02*
X0232800Y0249400D01*
X0232800Y0254200D02*
X0232800Y0257600D01*
X0227600Y0260800D02*
X0201194Y0260800D01*
X0197800Y0257406D02*
X0197800Y0244200D01*
X0204800Y0244200D02*
X0204800Y0250406D01*
X0211800Y0249400D02*
X0211800Y0244200D01*
X0211800Y0239400D02*
X0211800Y0234200D01*
X0211800Y0229400D02*
X0211800Y0218600D01*
X0204800Y0217340D02*
X0204800Y0229400D01*
X0204800Y0234200D02*
X0204800Y0239400D01*
X0197800Y0239400D02*
X0197800Y0233594D01*
X0197006Y0232800D02*
X0186194Y0232800D01*
X0183800Y0230406D02*
X0183800Y0219594D01*
X0183006Y0218800D02*
X0172194Y0218800D01*
X0169800Y0216406D02*
X0169800Y0205594D01*
X0169006Y0204800D02*
X0158194Y0204800D01*
X0155800Y0202406D02*
X0155800Y0191594D01*
X0155006Y0190800D02*
X0144200Y0190800D01*
X0141800Y0191800D02*
X0141800Y0161800D01*
X0162300Y0141300D01*
X0162300Y0136300D01*
X0162800Y0132100D02*
X0162800Y0048600D01*
X0166000Y0043800D02*
X0167600Y0043800D01*
X0169800Y0048600D02*
X0169800Y0181406D01*
X0172194Y0183800D02*
X0199400Y0183800D01*
X0204200Y0183800D02*
X0209400Y0183800D01*
X0214200Y0183800D02*
X0254200Y0183800D01*
X0255460Y0176800D02*
X0214200Y0176800D01*
X0214200Y0169800D02*
X0228860Y0169800D01*
X0232800Y0171000D02*
X0232800Y0229400D01*
X0239800Y0229400D02*
X0239800Y0124200D01*
X0239800Y0119400D02*
X0239800Y0077194D01*
X0238194Y0078800D02*
X0267870Y0078800D01*
X0267800Y0078870D02*
X0267800Y0074200D01*
X0267800Y0069400D02*
X0267800Y0062935D01*
X0266619Y0064800D02*
X0396451Y0064800D01*
X0396451Y0057800D02*
X0271292Y0057800D01*
X0274800Y0052641D02*
X0274800Y0069400D01*
X0274800Y0074200D02*
X0274800Y0077870D01*
X0275730Y0078800D02*
X0285406Y0078800D01*
X0288800Y0075406D02*
X0288800Y0006779D01*
X0281800Y0006774D02*
X0281800Y0025200D01*
X0285400Y0029800D02*
X0319400Y0029800D01*
X0321601Y0022800D02*
X0201194Y0022800D01*
X0204800Y0025200D02*
X0204800Y0006725D01*
X0197800Y0006721D02*
X0197800Y0019406D01*
X0194406Y0022800D02*
X0134194Y0022800D01*
X0134800Y0022194D02*
X0134800Y0091406D01*
X0136194Y0092800D02*
X0269400Y0092800D01*
X0274200Y0092800D02*
X0297900Y0092800D01*
X0300300Y0090300D02*
X0300300Y0135400D01*
X0286300Y0149400D01*
X0288800Y0142800D02*
X0288800Y0082194D01*
X0292194Y0078800D02*
X0396451Y0078800D01*
X0396451Y0085800D02*
X0299194Y0085800D01*
X0300300Y0090300D02*
X0281800Y0071800D01*
X0281800Y0075194D02*
X0281800Y0130366D01*
X0282900Y0134800D02*
X0297506Y0134800D01*
X0295800Y0136506D02*
X0295800Y0089194D01*
X0302700Y0092800D02*
X0396451Y0092800D01*
X0396451Y0099800D02*
X0302700Y0099800D01*
X0297900Y0099800D02*
X0273984Y0099800D01*
X0267800Y0099406D02*
X0267800Y0084730D01*
X0260800Y0074200D02*
X0260800Y0101882D01*
X0262260Y0099800D02*
X0257340Y0099800D01*
X0253800Y0099068D02*
X0253800Y0074200D01*
X0253800Y0069400D02*
X0253800Y0067400D01*
X0246800Y0067400D02*
X0246800Y0069400D01*
X0246800Y0074200D02*
X0246800Y0099281D01*
X0247106Y0099437D02*
X0247666Y0099844D01*
X0248156Y0100334D01*
X0248563Y0100894D01*
X0248878Y0101511D01*
X0249092Y0102170D01*
X0249200Y0102854D01*
X0249200Y0105800D01*
X0249200Y0108746D01*
X0249092Y0109430D01*
X0248878Y0110089D01*
X0248563Y0110706D01*
X0248156Y0111266D01*
X0247666Y0111756D01*
X0247106Y0112163D01*
X0246489Y0112478D01*
X0245830Y0112692D01*
X0245146Y0112800D01*
X0244800Y0112800D01*
X0244800Y0105800D01*
X0249200Y0105800D01*
X0244800Y0105800D01*
X0244800Y0105800D01*
X0244800Y0105800D01*
X0244800Y0098800D01*
X0245146Y0098800D01*
X0245830Y0098908D01*
X0246489Y0099122D01*
X0247106Y0099437D01*
X0247606Y0099800D02*
X0252260Y0099800D01*
X0254800Y0105800D02*
X0254800Y0118800D01*
X0253800Y0123194D02*
X0253800Y0202860D01*
X0247860Y0204800D02*
X0214200Y0204800D01*
X0216000Y0211800D02*
X0269400Y0211800D01*
X0269400Y0204800D02*
X0265740Y0204800D01*
X0251800Y0218800D02*
X0251800Y0218800D01*
X0253800Y0221023D02*
X0253800Y0229400D01*
X0253800Y0234200D02*
X0253800Y0239400D01*
X0246800Y0239400D02*
X0246800Y0234200D01*
X0246800Y0229400D02*
X0246800Y0124200D01*
X0246800Y0119400D02*
X0246800Y0112319D01*
X0244800Y0112800D02*
X0244454Y0112800D01*
X0243770Y0112692D01*
X0243111Y0112478D01*
X0242494Y0112163D01*
X0241934Y0111756D01*
X0241444Y0111266D01*
X0241037Y0110706D01*
X0240722Y0110089D01*
X0240508Y0109430D01*
X0240400Y0108746D01*
X0240400Y0105800D01*
X0244800Y0105800D01*
X0244800Y0105800D01*
X0244800Y0105800D01*
X0244800Y0112800D01*
X0244800Y0106800D02*
X0244800Y0106800D01*
X0244800Y0105800D02*
X0240400Y0105800D01*
X0240400Y0102854D01*
X0240508Y0102170D01*
X0240722Y0101511D01*
X0241037Y0100894D01*
X0241444Y0100334D01*
X0241934Y0099844D01*
X0242494Y0099437D01*
X0243111Y0099122D01*
X0243770Y0098908D01*
X0244454Y0098800D01*
X0244800Y0098800D01*
X0244800Y0105800D01*
X0246800Y0105800D02*
X0246800Y0105800D01*
X0249200Y0106800D02*
X0250600Y0106800D01*
X0252400Y0113800D02*
X0154200Y0113800D01*
X0149400Y0113800D02*
X0126750Y0113800D01*
X0126750Y0113850D02*
X0123850Y0116750D01*
X0121800Y0116750D01*
X0121800Y0111800D01*
X0126750Y0111800D01*
X0126750Y0113850D01*
X0126750Y0111800D02*
X0121800Y0111800D01*
X0121800Y0111800D01*
X0121800Y0111800D01*
X0121800Y0106850D01*
X0123850Y0106850D01*
X0126750Y0109750D01*
X0126750Y0111800D01*
X0121800Y0111800D02*
X0121800Y0111800D01*
X0121800Y0111800D01*
X0116850Y0111800D01*
X0116850Y0113850D01*
X0119750Y0116750D01*
X0121800Y0116750D01*
X0121800Y0111800D01*
X0121800Y0106850D01*
X0119750Y0106850D01*
X0116850Y0109750D01*
X0116850Y0111800D01*
X0121800Y0111800D01*
X0120800Y0111800D02*
X0120800Y0111800D01*
X0121800Y0113800D02*
X0121800Y0113800D01*
X0120800Y0116750D02*
X0120800Y0119400D01*
X0121800Y0121800D02*
X0126800Y0126800D01*
X0126800Y0131800D01*
X0131400Y0134800D02*
X0132200Y0134800D01*
X0132200Y0135715D02*
X0132900Y0137406D01*
X0134194Y0138700D01*
X0135885Y0139400D01*
X0137715Y0139400D01*
X0139406Y0138700D01*
X0140700Y0137406D01*
X0141400Y0135715D01*
X0141400Y0127885D01*
X0140700Y0126194D01*
X0139406Y0124900D01*
X0137715Y0124200D01*
X0135885Y0124200D01*
X0134194Y0124900D01*
X0132900Y0126194D01*
X0132200Y0127885D01*
X0132200Y0135715D01*
X0134800Y0138951D02*
X0134800Y0139400D01*
X0134800Y0144200D02*
X0134800Y0279400D01*
X0134800Y0284200D02*
X0134800Y0293582D01*
X0133478Y0293489D02*
X0133163Y0294106D01*
X0132756Y0294666D01*
X0132266Y0295156D01*
X0131706Y0295563D01*
X0131089Y0295878D01*
X0130430Y0296092D01*
X0129746Y0296200D01*
X0126800Y0296200D01*
X0126800Y0291800D01*
X0126800Y0291800D01*
X0133800Y0291800D01*
X0133800Y0292146D01*
X0133692Y0292830D01*
X0133478Y0293489D01*
X0133800Y0291800D02*
X0126800Y0291800D01*
X0126800Y0291800D01*
X0126800Y0296200D01*
X0123854Y0296200D01*
X0123170Y0296092D01*
X0122511Y0295878D01*
X0121894Y0295563D01*
X0121334Y0295156D01*
X0120844Y0294666D01*
X0120437Y0294106D01*
X0120122Y0293489D01*
X0119908Y0292830D01*
X0119800Y0292146D01*
X0119800Y0291800D01*
X0126800Y0291800D01*
X0126800Y0287400D01*
X0129746Y0287400D01*
X0130430Y0287508D01*
X0131089Y0287722D01*
X0131706Y0288037D01*
X0132266Y0288444D01*
X0132756Y0288934D01*
X0133163Y0289494D01*
X0133478Y0290111D01*
X0133692Y0290770D01*
X0133800Y0291454D01*
X0133800Y0291800D01*
X0132623Y0288800D02*
X0138860Y0288800D01*
X0141800Y0287600D02*
X0141800Y0284200D01*
X0144740Y0288800D02*
X0175977Y0288800D01*
X0176800Y0288105D02*
X0176800Y0284200D01*
X0169800Y0284200D02*
X0169800Y0308860D01*
X0162860Y0309800D02*
X0133118Y0309800D01*
X0127800Y0307600D02*
X0127800Y0306000D01*
X0126800Y0301800D02*
X0141800Y0291800D01*
X0141800Y0296000D02*
X0141800Y0349400D01*
X0141800Y0354200D02*
X0141800Y0382046D01*
X0148800Y0382051D02*
X0148800Y0354200D01*
X0148800Y0349400D02*
X0148800Y0284200D01*
X0148800Y0279400D02*
X0148800Y0272194D01*
X0151800Y0271800D02*
X0141800Y0261800D01*
X0141800Y0266000D02*
X0141800Y0279400D01*
X0144406Y0267800D02*
X0106194Y0267800D01*
X0106800Y0268406D02*
X0106800Y0231700D01*
X0106800Y0221900D02*
X0106800Y0211700D01*
X0106800Y0206800D02*
X0101800Y0206800D01*
X0099800Y0201406D02*
X0099800Y0182194D01*
X0098194Y0183800D02*
X0119400Y0183800D01*
X0124200Y0183800D02*
X0139400Y0183800D01*
X0144200Y0183800D02*
X0149400Y0183800D01*
X0149400Y0176800D02*
X0144200Y0176800D01*
X0139400Y0176800D02*
X0124200Y0176800D01*
X0119400Y0176800D02*
X0104200Y0176800D01*
X0098406Y0176800D02*
X0070194Y0176800D01*
X0071800Y0175194D02*
X0071800Y0187600D01*
X0067600Y0190800D02*
X0064200Y0190800D01*
X0059400Y0190800D02*
X0024200Y0190800D01*
X0019400Y0190800D02*
X0011600Y0190800D01*
X0011600Y0183800D02*
X0019400Y0183800D01*
X0024200Y0183800D02*
X0025550Y0183800D01*
X0030300Y0184300D02*
X0046800Y0167800D01*
X0046800Y0166800D01*
X0056800Y0166800D01*
X0064194Y0162800D02*
X0067400Y0162800D01*
X0067400Y0163623D02*
X0067400Y0161800D01*
X0071800Y0161800D01*
X0071800Y0161800D01*
X0076200Y0161800D01*
X0076200Y0163623D01*
X0076200Y0161800D02*
X0071800Y0161800D01*
X0071800Y0161800D01*
X0071800Y0155194D01*
X0071194Y0155800D02*
X0092406Y0155800D01*
X0092800Y0156194D02*
X0092800Y0182406D01*
X0091406Y0183800D02*
X0064200Y0183800D01*
X0063406Y0176800D02*
X0041194Y0176800D01*
X0036800Y0174406D02*
X0036800Y0174400D01*
X0034406Y0176800D02*
X0030194Y0176800D01*
X0029800Y0177194D02*
X0029800Y0179550D01*
X0035050Y0183800D02*
X0035350Y0183800D01*
X0036800Y0184300D02*
X0036800Y0184300D01*
X0036800Y0187800D02*
X0036800Y0196082D01*
X0035550Y0197332D02*
X0038332Y0194550D01*
X0042268Y0194550D01*
X0045050Y0197332D01*
X0045050Y0201268D01*
X0042700Y0203618D01*
X0042700Y0209982D01*
X0045050Y0212332D01*
X0045050Y0216268D01*
X0042268Y0219050D01*
X0038332Y0219050D01*
X0035550Y0216268D01*
X0035550Y0212332D01*
X0037900Y0209982D01*
X0037900Y0203618D01*
X0035550Y0201268D01*
X0035550Y0197332D01*
X0035250Y0197250D02*
X0035250Y0199300D01*
X0035250Y0201350D01*
X0032350Y0204250D01*
X0030300Y0204250D01*
X0030300Y0199300D01*
X0035250Y0199300D01*
X0030300Y0199300D01*
X0030300Y0199300D01*
X0030300Y0199300D01*
X0030300Y0194350D01*
X0032350Y0194350D01*
X0035250Y0197250D01*
X0035250Y0197800D02*
X0035550Y0197800D01*
X0036800Y0202518D02*
X0036800Y0211082D01*
X0036082Y0211800D02*
X0034518Y0211800D01*
X0029800Y0209550D02*
X0029800Y0204250D01*
X0030300Y0204250D02*
X0028250Y0204250D01*
X0025350Y0201350D01*
X0025350Y0199300D01*
X0030300Y0199300D01*
X0030300Y0199300D01*
X0030300Y0199300D01*
X0030300Y0204250D01*
X0030300Y0199300D02*
X0025350Y0199300D01*
X0025350Y0197250D01*
X0028250Y0194350D01*
X0030300Y0194350D01*
X0030300Y0199300D01*
X0029800Y0199300D02*
X0029800Y0199300D01*
X0030300Y0197800D02*
X0030300Y0197800D01*
X0029800Y0194350D02*
X0029800Y0189050D01*
X0025350Y0197800D02*
X0024200Y0197800D01*
X0019400Y0197800D02*
X0011600Y0197800D01*
X0011600Y0204800D02*
X0019400Y0204800D01*
X0024200Y0204800D02*
X0037900Y0204800D01*
X0042700Y0204800D02*
X0061406Y0204800D01*
X0064400Y0211800D02*
X0044518Y0211800D01*
X0043800Y0211082D02*
X0043800Y0202517D01*
X0040300Y0199300D02*
X0040300Y0214300D01*
X0036800Y0217518D02*
X0036800Y0223150D01*
X0038082Y0218800D02*
X0032700Y0218800D01*
X0027900Y0218800D02*
X0011600Y0218800D01*
X0011600Y0211800D02*
X0019400Y0211800D01*
X0022800Y0216194D02*
X0022800Y0381971D01*
X0029800Y0381975D02*
X0029800Y0376617D01*
X0032099Y0378450D02*
X0032099Y0378450D01*
X0026460Y0372800D02*
X0011600Y0372800D01*
X0011600Y0365800D02*
X0023886Y0365800D01*
X0024687Y0358800D02*
X0011600Y0358800D01*
X0025363Y0356610D02*
X0025363Y0356610D01*
X0028184Y0352472D02*
X0028184Y0352472D01*
X0028184Y0352472D01*
X0032099Y0349350D02*
X0032099Y0349350D01*
X0036800Y0347517D02*
X0036800Y0227950D01*
X0043800Y0227950D02*
X0043800Y0347612D01*
X0041756Y0347146D02*
X0041756Y0347146D01*
X0046638Y0348260D02*
X0046638Y0348260D01*
X0054382Y0354436D02*
X0054382Y0354436D01*
X0064800Y0354200D02*
X0064800Y0381997D01*
X0071800Y0382002D02*
X0071800Y0355340D01*
X0078800Y0356000D02*
X0078800Y0382006D01*
X0085800Y0382011D02*
X0085800Y0354200D01*
X0085800Y0349400D02*
X0085800Y0315766D01*
X0078800Y0307600D02*
X0078800Y0306000D01*
X0075068Y0302800D02*
X0054200Y0302800D01*
X0049400Y0302800D02*
X0011600Y0302800D01*
X0011600Y0295800D02*
X0049400Y0295800D01*
X0054200Y0295800D02*
X0077359Y0295800D01*
X0078800Y0296191D02*
X0078800Y0297600D01*
X0081800Y0295800D02*
X0081800Y0295800D01*
X0081800Y0291800D02*
X0081800Y0291800D01*
X0081800Y0291800D01*
X0081800Y0287400D01*
X0078854Y0287400D01*
X0078170Y0287508D01*
X0077511Y0287722D01*
X0076894Y0288037D01*
X0076334Y0288444D01*
X0075844Y0288934D01*
X0075437Y0289494D01*
X0075122Y0290111D01*
X0074908Y0290770D01*
X0074800Y0291454D01*
X0074800Y0291800D01*
X0081800Y0291800D01*
X0081800Y0288800D02*
X0081800Y0288800D01*
X0078800Y0287409D02*
X0078800Y0194200D01*
X0078800Y0189400D02*
X0078800Y0168194D01*
X0077194Y0169800D02*
X0099400Y0169800D01*
X0104200Y0169800D02*
X0116406Y0169800D01*
X0113800Y0167194D02*
X0113800Y0216406D01*
X0111406Y0218800D02*
X0069200Y0218800D01*
X0064400Y0218800D02*
X0042517Y0218800D01*
X0043800Y0217517D02*
X0043800Y0223150D01*
X0026082Y0211800D02*
X0025194Y0211800D01*
X0043800Y0196082D02*
X0043800Y0187800D01*
X0043800Y0184300D02*
X0043800Y0184300D01*
X0040300Y0183800D02*
X0040300Y0183800D01*
X0045050Y0197800D02*
X0059400Y0197800D01*
X0071275Y0204800D02*
X0096406Y0204800D01*
X0092800Y0201194D02*
X0092800Y0259860D01*
X0099406Y0267800D02*
X0054200Y0267800D01*
X0049400Y0267800D02*
X0011600Y0267800D01*
X0011600Y0274800D02*
X0049400Y0274800D01*
X0054200Y0274800D02*
X0106406Y0274800D01*
X0106800Y0275194D02*
X0106800Y0349400D01*
X0106800Y0354200D02*
X0106800Y0382024D01*
X0099800Y0382020D02*
X0099800Y0354200D01*
X0099800Y0349400D02*
X0099800Y0294740D01*
X0098740Y0295800D02*
X0122359Y0295800D01*
X0120800Y0294606D02*
X0120800Y0299260D01*
X0126800Y0295800D02*
X0126800Y0295800D01*
X0127800Y0296200D02*
X0127800Y0297600D01*
X0131241Y0295800D02*
X0131473Y0295800D01*
X0127800Y0291800D02*
X0127800Y0291800D01*
X0126800Y0291800D02*
X0126800Y0291800D01*
X0126800Y0291800D01*
X0126800Y0287400D01*
X0123854Y0287400D01*
X0123170Y0287508D01*
X0122511Y0287722D01*
X0121894Y0288037D01*
X0121334Y0288444D01*
X0120844Y0288934D01*
X0120437Y0289494D01*
X0120122Y0290111D01*
X0119908Y0290770D01*
X0119800Y0291454D01*
X0119800Y0291800D01*
X0126800Y0291800D01*
X0126800Y0288800D02*
X0126800Y0288800D01*
X0127800Y0287400D02*
X0127800Y0284200D01*
X0127800Y0279400D02*
X0127800Y0144200D01*
X0127800Y0139400D02*
X0127800Y0139365D01*
X0121800Y0141800D02*
X0141800Y0141800D01*
X0141800Y0144200D02*
X0141800Y0158406D01*
X0144406Y0155800D02*
X0109194Y0155800D01*
X0106800Y0153406D02*
X0106800Y0134200D01*
X0112200Y0134800D02*
X0099740Y0134800D01*
X0099800Y0134740D02*
X0099800Y0146406D01*
X0102194Y0148800D02*
X0151406Y0148800D01*
X0148800Y0151406D02*
X0148800Y0138194D01*
X0152194Y0134800D02*
X0158100Y0134800D01*
X0154200Y0127800D02*
X0197406Y0127800D01*
X0197800Y0127406D02*
X0197800Y0039200D01*
X0197800Y0034400D02*
X0197800Y0026194D01*
X0200200Y0029800D02*
X0173600Y0029800D01*
X0169800Y0036000D02*
X0169800Y0037600D01*
X0173600Y0043800D02*
X0200200Y0043800D01*
X0190800Y0041550D02*
X0190800Y0132100D01*
X0188100Y0134800D02*
X0166500Y0134800D01*
X0164691Y0141800D02*
X0290506Y0141800D01*
X0297294Y0141800D02*
X0396451Y0141800D01*
X0396451Y0134800D02*
X0302700Y0134800D01*
X0302700Y0113800D02*
X0396451Y0113800D01*
X0396451Y0106800D02*
X0302700Y0106800D01*
X0269406Y0113800D02*
X0257200Y0113800D01*
X0260800Y0109718D02*
X0260800Y0160105D01*
X0260800Y0167495D02*
X0260800Y0170260D01*
X0261340Y0176800D02*
X0285460Y0176800D01*
X0288800Y0178000D02*
X0288800Y0179600D01*
X0291340Y0176800D02*
X0321601Y0176800D01*
X0323800Y0174471D02*
X0323800Y0039129D01*
X0321601Y0036800D02*
X0285400Y0036800D01*
X0278800Y0036800D02*
X0261800Y0036800D01*
X0260550Y0035550D01*
X0260800Y0040300D02*
X0260800Y0053312D01*
X0262508Y0050800D02*
X0218720Y0050800D01*
X0218800Y0050880D02*
X0218800Y0006734D01*
X0225800Y0006739D02*
X0225800Y0025299D01*
X0225695Y0025360D02*
X0226105Y0025123D01*
X0226563Y0025000D01*
X0231000Y0025000D01*
X0231000Y0036000D01*
X0232600Y0036000D01*
X0232600Y0037600D01*
X0238600Y0037600D01*
X0238600Y0047037D01*
X0238477Y0047495D01*
X0238240Y0047905D01*
X0237905Y0048240D01*
X0237495Y0048477D01*
X0237037Y0048600D01*
X0232600Y0048600D01*
X0232600Y0037600D01*
X0231000Y0037600D01*
X0231000Y0048600D01*
X0226563Y0048600D01*
X0226105Y0048477D01*
X0225695Y0048240D01*
X0225360Y0047905D01*
X0225123Y0047495D01*
X0225000Y0047037D01*
X0225000Y0037600D01*
X0231000Y0037600D01*
X0231000Y0036000D01*
X0225000Y0036000D01*
X0225000Y0026563D01*
X0225123Y0026105D01*
X0225360Y0025695D01*
X0225695Y0025360D01*
X0225000Y0029800D02*
X0213400Y0029800D01*
X0211800Y0025200D02*
X0211800Y0006730D01*
X0232800Y0006743D02*
X0232800Y0025000D01*
X0232600Y0025000D02*
X0237037Y0025000D01*
X0237495Y0025123D01*
X0237905Y0025360D01*
X0238240Y0025695D01*
X0238477Y0026105D01*
X0238600Y0026563D01*
X0238600Y0036000D01*
X0232600Y0036000D01*
X0232600Y0025000D01*
X0232600Y0029800D02*
X0231000Y0029800D01*
X0232800Y0036000D02*
X0232800Y0037600D01*
X0232600Y0036800D02*
X0245600Y0036800D01*
X0245600Y0037600D02*
X0245600Y0035550D01*
X0250550Y0035550D01*
X0255500Y0035550D01*
X0255500Y0037600D01*
X0252600Y0040500D01*
X0250550Y0040500D01*
X0250550Y0035550D01*
X0250550Y0035550D01*
X0250550Y0035550D01*
X0255500Y0035550D01*
X0255500Y0033500D01*
X0252600Y0030600D01*
X0250550Y0030600D01*
X0250550Y0035550D01*
X0250550Y0035550D01*
X0250550Y0035550D01*
X0250550Y0040500D01*
X0248500Y0040500D01*
X0245600Y0037600D01*
X0246800Y0038800D02*
X0246800Y0056200D01*
X0253800Y0056200D02*
X0253800Y0039300D01*
X0255500Y0036800D02*
X0255800Y0036800D01*
X0253800Y0035550D02*
X0253800Y0035550D01*
X0250550Y0035550D02*
X0250550Y0030600D01*
X0248500Y0030600D01*
X0245600Y0033500D01*
X0245600Y0035550D01*
X0250550Y0035550D01*
X0250550Y0036800D02*
X0250550Y0036800D01*
X0246800Y0035550D02*
X0246800Y0035550D01*
X0246800Y0032300D02*
X0246800Y0006752D01*
X0253800Y0006757D02*
X0253800Y0031800D01*
X0260800Y0030800D02*
X0260800Y0006761D01*
X0267800Y0006765D02*
X0267800Y0034400D01*
X0267800Y0039200D02*
X0267800Y0043018D01*
X0267268Y0043800D02*
X0238600Y0043800D01*
X0232600Y0043800D02*
X0231000Y0043800D01*
X0232800Y0048600D02*
X0232800Y0056200D01*
X0225800Y0056200D02*
X0225800Y0048301D01*
X0225000Y0043800D02*
X0213400Y0043800D01*
X0213400Y0036800D02*
X0231000Y0036800D01*
X0225800Y0036000D02*
X0225800Y0037600D01*
X0238600Y0029800D02*
X0272200Y0029800D01*
X0274800Y0025200D02*
X0274800Y0006770D01*
X0239800Y0006748D02*
X0239800Y0056200D01*
X0239800Y0067400D02*
X0239800Y0070406D01*
X0238406Y0071800D02*
X0124200Y0071800D01*
X0119400Y0071800D02*
X0099200Y0071800D01*
X0094400Y0071800D02*
X0070194Y0071800D01*
X0071800Y0070194D02*
X0071800Y0139400D01*
X0071800Y0144200D02*
X0071800Y0149400D01*
X0064800Y0144200D02*
X0064800Y0155406D01*
X0064406Y0155800D02*
X0041194Y0155800D01*
X0043800Y0153194D02*
X0043800Y0160295D01*
X0042235Y0162800D02*
X0041365Y0162800D01*
X0022800Y0161436D02*
X0022800Y0006610D01*
X0029800Y0006615D02*
X0029800Y0017840D01*
X0029384Y0018172D02*
X0033299Y0015050D01*
X0037961Y0013220D01*
X0037961Y0013220D01*
X0042956Y0012846D01*
X0047838Y0013960D01*
X0052175Y0016464D01*
X0052175Y0016464D01*
X0052175Y0016464D01*
X0055582Y0020136D01*
X0057755Y0024648D01*
X0058501Y0029600D01*
X0058501Y0029600D01*
X0057755Y0034552D01*
X0055582Y0039064D01*
X0055582Y0039064D01*
X0052175Y0042736D01*
X0047838Y0045240D01*
X0042956Y0046354D01*
X0042956Y0046354D01*
X0037961Y0045980D01*
X0033299Y0044150D01*
X0029384Y0041028D01*
X0029384Y0041028D01*
X0026563Y0036890D01*
X0026563Y0036890D01*
X0025086Y0032104D01*
X0025086Y0027096D01*
X0026563Y0022310D01*
X0029384Y0018172D01*
X0029384Y0018172D01*
X0029384Y0018172D01*
X0032359Y0015800D02*
X0011600Y0015800D01*
X0011600Y0022800D02*
X0026412Y0022800D01*
X0026563Y0022310D02*
X0026563Y0022310D01*
X0025086Y0029800D02*
X0011600Y0029800D01*
X0011600Y0036800D02*
X0026535Y0036800D01*
X0029800Y0041360D02*
X0029800Y0090406D01*
X0029400Y0092800D02*
X0011600Y0092800D01*
X0011600Y0085800D02*
X0034406Y0085800D01*
X0036800Y0083406D02*
X0036800Y0045524D01*
X0037961Y0045980D02*
X0037961Y0045980D01*
X0033299Y0044150D02*
X0033299Y0044150D01*
X0032860Y0043800D02*
X0011600Y0043800D01*
X0011600Y0050800D02*
X0069406Y0050800D01*
X0071800Y0048406D02*
X0071800Y0006641D01*
X0064800Y0006637D02*
X0064800Y0055406D01*
X0062406Y0057800D02*
X0059730Y0057800D01*
X0057800Y0056910D02*
X0057800Y0034252D01*
X0057755Y0034552D02*
X0057755Y0034552D01*
X0056672Y0036800D02*
X0113406Y0036800D01*
X0113800Y0036406D02*
X0113800Y0006668D01*
X0120800Y0006672D02*
X0120800Y0029406D01*
X0120406Y0029800D02*
X0058471Y0029800D01*
X0057800Y0024948D02*
X0057800Y0006632D01*
X0050800Y0006628D02*
X0050800Y0015670D01*
X0051025Y0015800D02*
X0134406Y0015800D01*
X0134800Y0015406D02*
X0134800Y0006681D01*
X0127800Y0006677D02*
X0127800Y0022406D01*
X0127406Y0022800D02*
X0056865Y0022800D01*
X0047838Y0013960D02*
X0047838Y0013960D01*
X0043800Y0013039D02*
X0043800Y0006623D01*
X0036800Y0006619D02*
X0036800Y0013676D01*
X0033299Y0015050D02*
X0033299Y0015050D01*
X0042956Y0012846D02*
X0042956Y0012846D01*
X0052175Y0042736D02*
X0052175Y0042736D01*
X0050800Y0043530D02*
X0050800Y0069406D01*
X0048406Y0071800D02*
X0011600Y0071800D01*
X0011600Y0064800D02*
X0052870Y0064800D01*
X0057800Y0069194D02*
X0057800Y0076910D01*
X0063194Y0078800D02*
X0092870Y0078800D01*
X0092800Y0078870D02*
X0092800Y0064730D01*
X0092870Y0064800D02*
X0077194Y0064800D01*
X0078800Y0063194D02*
X0078800Y0098577D01*
X0079977Y0097400D02*
X0077400Y0099977D01*
X0077400Y0101800D01*
X0081800Y0101800D01*
X0081800Y0101800D01*
X0081800Y0106200D01*
X0083623Y0106200D01*
X0086200Y0103623D01*
X0086200Y0101800D01*
X0081800Y0101800D01*
X0081800Y0101800D01*
X0081800Y0101800D01*
X0081800Y0106200D01*
X0079977Y0106200D01*
X0077400Y0103623D01*
X0077400Y0101800D01*
X0081800Y0101800D01*
X0086200Y0101800D01*
X0086200Y0099977D01*
X0083623Y0097400D01*
X0081800Y0097400D01*
X0081800Y0101800D01*
X0081800Y0101800D01*
X0081800Y0097400D01*
X0079977Y0097400D01*
X0081800Y0099800D02*
X0081800Y0099800D01*
X0078800Y0101800D02*
X0078800Y0101800D01*
X0077577Y0099800D02*
X0034200Y0099800D01*
X0029400Y0099800D02*
X0011600Y0099800D01*
X0011600Y0106800D02*
X0029400Y0106800D01*
X0034200Y0106800D02*
X0098406Y0106800D01*
X0099800Y0113194D02*
X0099800Y0128860D01*
X0098740Y0127800D02*
X0112235Y0127800D01*
X0113800Y0125295D02*
X0113800Y0124200D01*
X0113800Y0119400D02*
X0113800Y0116517D01*
X0116517Y0113800D02*
X0116850Y0113800D01*
X0111800Y0111800D02*
X0111800Y0106800D01*
X0121800Y0096800D01*
X0125517Y0099800D02*
X0136406Y0099800D01*
X0134800Y0098194D02*
X0134800Y0124649D01*
X0132235Y0127800D02*
X0131365Y0127800D01*
X0127800Y0124235D02*
X0127800Y0091194D01*
X0129406Y0092800D02*
X0124518Y0092800D01*
X0129194Y0085800D02*
X0228870Y0085800D01*
X0232800Y0076910D02*
X0232800Y0067400D01*
X0216880Y0064800D02*
X0124200Y0064800D01*
X0119400Y0064800D02*
X0100730Y0064800D01*
X0099800Y0065730D02*
X0099800Y0077870D01*
X0100730Y0078800D02*
X0107800Y0078800D01*
X0106850Y0079750D02*
X0109750Y0076850D01*
X0111800Y0076850D01*
X0113850Y0076850D01*
X0116750Y0079750D01*
X0116750Y0081800D01*
X0111800Y0081800D01*
X0111800Y0076850D01*
X0111800Y0081800D01*
X0111800Y0081800D01*
X0111800Y0081800D01*
X0106850Y0081800D01*
X0106850Y0083850D01*
X0109750Y0086750D01*
X0111800Y0086750D01*
X0111800Y0081800D01*
X0106850Y0081800D01*
X0106850Y0079750D01*
X0111800Y0078800D02*
X0111800Y0078800D01*
X0113800Y0076850D02*
X0113800Y0057194D01*
X0114406Y0057800D02*
X0099730Y0057800D01*
X0099800Y0057870D02*
X0099800Y0054200D01*
X0099800Y0049400D02*
X0099800Y0044200D01*
X0099800Y0039400D02*
X0099800Y0006659D01*
X0092800Y0006654D02*
X0092800Y0039400D01*
X0092800Y0044200D02*
X0092800Y0049400D01*
X0092800Y0054200D02*
X0092800Y0058870D01*
X0093870Y0057800D02*
X0084194Y0057800D01*
X0085800Y0056194D02*
X0085800Y0099577D01*
X0086023Y0099800D02*
X0092860Y0099800D01*
X0092800Y0099860D02*
X0092800Y0084730D01*
X0093870Y0085800D02*
X0059730Y0085800D01*
X0064800Y0077194D02*
X0064800Y0139400D01*
X0078800Y0128860D02*
X0078800Y0105023D01*
X0085800Y0104023D02*
X0085800Y0129400D01*
X0083740Y0127800D02*
X0094860Y0127800D01*
X0092800Y0129400D02*
X0092800Y0103740D01*
X0096800Y0101800D02*
X0096800Y0081800D01*
X0096800Y0061800D01*
X0106800Y0054200D02*
X0106800Y0098406D01*
X0099800Y0098860D02*
X0099800Y0085730D01*
X0099730Y0085800D02*
X0108800Y0085800D01*
X0111800Y0085800D02*
X0111800Y0085800D01*
X0113800Y0081800D02*
X0113800Y0081800D01*
X0115800Y0078800D02*
X0118082Y0078800D01*
X0120800Y0101550D02*
X0120800Y0106850D01*
X0115194Y0106800D02*
X0143406Y0106800D01*
X0141800Y0105194D02*
X0141800Y0138406D01*
X0141400Y0134800D02*
X0145406Y0134800D01*
X0148800Y0131406D02*
X0148800Y0112194D01*
X0150194Y0106800D02*
X0240400Y0106800D01*
X0241994Y0099800D02*
X0143194Y0099800D01*
X0141800Y0098406D02*
X0141800Y0015194D01*
X0141194Y0015800D02*
X0187406Y0015800D01*
X0190800Y0019194D02*
X0190800Y0032050D01*
X0148800Y0014200D02*
X0148800Y0105406D01*
X0149400Y0127800D02*
X0141365Y0127800D01*
X0122235Y0127800D02*
X0121365Y0127800D01*
X0120800Y0126436D02*
X0120800Y0124200D01*
X0116800Y0131800D02*
X0116800Y0136800D01*
X0121800Y0141800D01*
X0120800Y0143984D02*
X0120800Y0167406D01*
X0123194Y0169800D02*
X0139400Y0169800D01*
X0144200Y0169800D02*
X0149400Y0169800D01*
X0154200Y0176800D02*
X0157600Y0176800D01*
X0162800Y0172600D02*
X0162800Y0161000D01*
X0159194Y0162800D02*
X0199860Y0162800D01*
X0197800Y0164860D02*
X0197800Y0148740D01*
X0197860Y0148800D02*
X0158194Y0148800D01*
X0155800Y0151194D02*
X0155800Y0159406D01*
X0157600Y0155800D02*
X0151194Y0155800D01*
X0148800Y0158194D02*
X0148800Y0195406D01*
X0151194Y0197800D02*
X0162006Y0197800D01*
X0162800Y0198594D02*
X0162800Y0209406D01*
X0165194Y0211800D02*
X0176006Y0211800D01*
X0176800Y0212594D02*
X0176800Y0223406D01*
X0179194Y0225800D02*
X0190006Y0225800D01*
X0190800Y0226594D02*
X0190800Y0237406D01*
X0190800Y0243984D02*
X0190800Y0269400D01*
X0190800Y0274200D02*
X0190800Y0279400D01*
X0190800Y0284200D02*
X0190800Y0292916D01*
X0193860Y0288800D02*
X0187623Y0288800D01*
X0196800Y0291800D02*
X0181800Y0301800D01*
X0183800Y0306000D02*
X0183800Y0307600D01*
X0188118Y0309800D02*
X0202860Y0309800D01*
X0204800Y0307860D02*
X0204800Y0284200D01*
X0199740Y0288800D02*
X0210977Y0288800D01*
X0211800Y0288105D02*
X0211800Y0284200D01*
X0211800Y0279400D02*
X0211800Y0274200D01*
X0211800Y0269400D02*
X0211800Y0254200D01*
X0218800Y0254200D02*
X0218800Y0269400D01*
X0218800Y0274200D02*
X0218800Y0279400D01*
X0225800Y0279400D02*
X0225800Y0274200D01*
X0225800Y0269400D02*
X0225800Y0254200D01*
X0225800Y0249400D02*
X0225800Y0244200D01*
X0218800Y0244200D02*
X0218800Y0249400D01*
X0239800Y0249400D02*
X0239800Y0244200D01*
X0239800Y0239400D02*
X0239800Y0234200D01*
X0246800Y0244200D02*
X0246800Y0249400D01*
X0246800Y0254200D02*
X0246800Y0259400D01*
X0253800Y0259400D02*
X0253800Y0254200D01*
X0253800Y0249400D02*
X0253800Y0244200D01*
X0239800Y0254200D02*
X0239800Y0259400D01*
X0239800Y0264200D02*
X0239800Y0269400D01*
X0239800Y0274200D02*
X0239800Y0279400D01*
X0239800Y0284200D02*
X0239800Y0349400D01*
X0239800Y0354200D02*
X0239800Y0382108D01*
X0232800Y0382104D02*
X0232800Y0354200D01*
X0232800Y0349400D02*
X0232800Y0296000D01*
X0233740Y0295800D02*
X0279400Y0295800D01*
X0284200Y0295800D02*
X0289400Y0295800D01*
X0288800Y0292194D02*
X0288800Y0326060D01*
X0289400Y0323800D02*
X0284200Y0323800D01*
X0277400Y0330800D02*
X0276000Y0330800D01*
X0274800Y0331800D02*
X0274800Y0331800D01*
X0271600Y0330800D02*
X0271600Y0330800D01*
X0271600Y0337800D02*
X0271600Y0337800D01*
X0274406Y0337800D02*
X0279060Y0337800D01*
X0274800Y0337423D02*
X0274800Y0382130D01*
X0295800Y0382144D02*
X0295800Y0289194D01*
X0295406Y0288800D02*
X0292194Y0288800D01*
X0288800Y0285406D02*
X0288800Y0282194D01*
X0288406Y0281800D02*
X0285194Y0281800D01*
X0281800Y0278406D02*
X0281800Y0275194D01*
X0281406Y0274800D02*
X0278194Y0274800D01*
X0274800Y0271406D02*
X0274800Y0268194D01*
X0274406Y0267800D02*
X0151194Y0267800D01*
X0148800Y0265406D02*
X0148800Y0202194D01*
X0151406Y0204800D02*
X0124200Y0204800D01*
X0119400Y0204800D02*
X0111275Y0204800D01*
X0106800Y0201900D02*
X0106800Y0160194D01*
X0104200Y0162800D02*
X0109406Y0162800D01*
X0113800Y0160406D02*
X0113800Y0138305D01*
X0118406Y0141800D02*
X0095194Y0141800D01*
X0093835Y0140441D02*
X0093835Y0140441D01*
X0096800Y0131800D02*
X0081800Y0131800D01*
X0079860Y0127800D02*
X0034200Y0127800D01*
X0029400Y0127800D02*
X0011600Y0127800D01*
X0011600Y0120800D02*
X0029400Y0120800D01*
X0034200Y0120800D02*
X0107406Y0120800D01*
X0106800Y0120194D02*
X0106800Y0129400D01*
X0116800Y0131800D02*
X0096800Y0131800D01*
X0100406Y0113800D02*
X0034200Y0113800D01*
X0029400Y0113800D02*
X0011600Y0113800D01*
X0011600Y0078800D02*
X0041406Y0078800D01*
X0043800Y0076406D02*
X0043800Y0046161D01*
X0047838Y0045240D02*
X0047838Y0045240D01*
X0050332Y0043800D02*
X0076406Y0043800D01*
X0078800Y0041406D02*
X0078800Y0006646D01*
X0085800Y0006650D02*
X0085800Y0039400D01*
X0085800Y0044200D02*
X0085800Y0049616D01*
X0084406Y0050800D02*
X0076194Y0050800D01*
X0078800Y0048194D02*
X0078800Y0056406D01*
X0077406Y0057800D02*
X0069194Y0057800D01*
X0071800Y0055194D02*
X0071800Y0063406D01*
X0070406Y0064800D02*
X0060730Y0064800D01*
X0064800Y0062194D02*
X0064800Y0070406D01*
X0063406Y0071800D02*
X0055194Y0071800D01*
X0053870Y0057800D02*
X0011600Y0057800D01*
X0085800Y0101800D02*
X0085800Y0101800D01*
X0121400Y0134800D02*
X0122200Y0134800D01*
X0120800Y0137163D02*
X0120800Y0137406D01*
X0102406Y0155800D02*
X0099194Y0155800D01*
X0099800Y0156406D02*
X0099800Y0153194D01*
X0099400Y0162800D02*
X0091000Y0162800D01*
X0085800Y0166000D02*
X0085800Y0187600D01*
X0096194Y0197800D02*
X0119400Y0197800D01*
X0124200Y0197800D02*
X0144406Y0197800D01*
X0141800Y0195194D02*
X0141800Y0257600D01*
X0146000Y0260800D02*
X0192600Y0260800D01*
X0197800Y0284200D02*
X0197800Y0287600D01*
X0211800Y0291800D02*
X0211800Y0291800D01*
X0211800Y0295495D02*
X0211800Y0298260D01*
X0210068Y0302800D02*
X0188532Y0302800D01*
X0176800Y0298260D02*
X0176800Y0295495D01*
X0177359Y0295800D02*
X0143740Y0295800D01*
X0155800Y0284200D02*
X0155800Y0349400D01*
X0155800Y0354200D02*
X0155800Y0382055D01*
X0162800Y0382059D02*
X0162800Y0354200D01*
X0162800Y0349400D02*
X0162800Y0343740D01*
X0163860Y0344800D02*
X0132340Y0344800D01*
X0127800Y0346000D02*
X0127800Y0347600D01*
X0121260Y0344800D02*
X0119740Y0344800D01*
X0120800Y0344340D02*
X0120800Y0349260D01*
X0116800Y0341800D02*
X0126800Y0341800D01*
X0122882Y0337800D02*
X0118740Y0337800D01*
X0120800Y0339260D02*
X0120800Y0314340D01*
X0113800Y0308860D02*
X0113800Y0282194D01*
X0113406Y0281800D02*
X0054200Y0281800D01*
X0049400Y0281800D02*
X0011600Y0281800D01*
X0011600Y0288800D02*
X0049400Y0288800D01*
X0054200Y0288800D02*
X0075977Y0288800D01*
X0078800Y0291800D02*
X0078800Y0291800D01*
X0085800Y0291800D02*
X0085800Y0291800D01*
X0086241Y0295800D02*
X0086473Y0295800D01*
X0085800Y0295972D02*
X0085800Y0296249D01*
X0081800Y0301800D02*
X0096800Y0291800D01*
X0099800Y0288860D02*
X0099800Y0268194D01*
X0101000Y0260800D02*
X0137600Y0260800D01*
X0151800Y0271800D02*
X0271800Y0271800D01*
X0267800Y0269400D02*
X0267800Y0264200D01*
X0274194Y0260800D02*
X0277406Y0260800D01*
X0274800Y0261406D02*
X0274800Y0258194D01*
X0281800Y0258406D02*
X0281800Y0255194D01*
X0287194Y0253800D02*
X0290406Y0253800D01*
X0288800Y0252194D02*
X0288800Y0255406D01*
X0287406Y0260800D02*
X0284194Y0260800D01*
X0288800Y0262194D02*
X0288800Y0265406D01*
X0291194Y0267800D02*
X0294406Y0267800D01*
X0295800Y0269194D02*
X0295800Y0272406D01*
X0298194Y0274800D02*
X0301406Y0274800D01*
X0302800Y0276194D02*
X0302800Y0279406D01*
X0305194Y0281800D02*
X0308406Y0281800D01*
X0309800Y0283194D02*
X0309800Y0286406D01*
X0312194Y0288800D02*
X0315406Y0288800D01*
X0316800Y0290194D02*
X0316800Y0382157D01*
X0335800Y0330800D02*
X0337400Y0330800D01*
X0319400Y0323800D02*
X0314200Y0323800D01*
X0309400Y0323800D02*
X0304200Y0323800D01*
X0299400Y0323800D02*
X0294200Y0323800D01*
X0294200Y0295800D02*
X0299400Y0295800D01*
X0304200Y0295800D02*
X0309400Y0295800D01*
X0314200Y0295800D02*
X0319400Y0295800D01*
X0316800Y0283406D02*
X0316800Y0280194D01*
X0315194Y0281800D02*
X0318406Y0281800D01*
X0311406Y0274800D02*
X0308194Y0274800D01*
X0309800Y0273194D02*
X0309800Y0276406D01*
X0302800Y0269406D02*
X0302800Y0266194D01*
X0301194Y0267800D02*
X0304406Y0267800D01*
X0297406Y0260800D02*
X0294194Y0260800D01*
X0295800Y0259194D02*
X0295800Y0262406D01*
X0288800Y0272194D02*
X0288800Y0275406D01*
X0288194Y0274800D02*
X0291406Y0274800D01*
X0295800Y0279194D02*
X0295800Y0282406D01*
X0295194Y0281800D02*
X0298406Y0281800D01*
X0302800Y0286194D02*
X0302800Y0289406D01*
X0302194Y0288800D02*
X0305406Y0288800D01*
X0285406Y0288800D02*
X0282194Y0288800D01*
X0281800Y0288406D02*
X0281800Y0285194D01*
X0283159Y0289765D02*
X0283159Y0289765D01*
X0278406Y0281800D02*
X0275194Y0281800D01*
X0274800Y0281406D02*
X0274800Y0278194D01*
X0273835Y0280441D02*
X0273835Y0280441D01*
X0271800Y0281800D02*
X0116800Y0281800D01*
X0114765Y0283159D02*
X0114765Y0283159D01*
X0120800Y0284200D02*
X0120800Y0288994D01*
X0120977Y0288800D02*
X0099740Y0288800D01*
X0092800Y0297351D02*
X0092800Y0349400D01*
X0092800Y0354200D02*
X0092800Y0382015D01*
X0072882Y0337800D02*
X0068740Y0337800D01*
X0071800Y0338260D02*
X0071800Y0314200D01*
X0064800Y0315740D02*
X0064800Y0337860D01*
X0064860Y0337800D02*
X0054200Y0337800D01*
X0049400Y0337800D02*
X0011600Y0337800D01*
X0120800Y0291800D02*
X0120800Y0291800D01*
X0155800Y0279400D02*
X0155800Y0274200D01*
X0155800Y0269400D02*
X0155800Y0209194D01*
X0158406Y0211800D02*
X0124200Y0211800D01*
X0118406Y0211800D02*
X0069200Y0211800D01*
X0064800Y0175406D02*
X0064800Y0162194D01*
X0067400Y0161800D02*
X0067400Y0159977D01*
X0069977Y0157400D01*
X0071800Y0157400D01*
X0073623Y0157400D01*
X0076200Y0159977D01*
X0076200Y0161800D01*
X0071800Y0161800D02*
X0071800Y0157400D01*
X0071800Y0161800D01*
X0071800Y0161800D01*
X0071800Y0166200D01*
X0069977Y0166200D01*
X0067400Y0163623D01*
X0067400Y0161800D02*
X0071800Y0161800D01*
X0071800Y0161800D01*
X0071800Y0162800D02*
X0071800Y0162800D01*
X0116194Y0162800D02*
X0139400Y0162800D01*
X0144200Y0162800D02*
X0152406Y0162800D01*
X0162800Y0152600D02*
X0162800Y0144194D01*
X0197194Y0134800D02*
X0269700Y0134800D01*
X0260600Y0106800D02*
X0259000Y0106800D01*
X0267340Y0099800D02*
X0267406Y0099800D01*
X0244800Y0099800D02*
X0244800Y0099800D01*
X0260800Y0069400D02*
X0260800Y0067400D01*
X0276052Y0050800D02*
X0396451Y0050800D01*
X0396451Y0043800D02*
X0383220Y0043800D01*
X0379800Y0045028D02*
X0379800Y0182860D01*
X0380060Y0182600D02*
X0383540Y0182600D01*
X0386000Y0185060D01*
X0386000Y0188540D01*
X0383540Y0191000D01*
X0380060Y0191000D01*
X0377600Y0188540D01*
X0377600Y0185060D01*
X0380060Y0182600D01*
X0378860Y0183800D02*
X0343200Y0183800D01*
X0340999Y0190800D02*
X0379860Y0190800D01*
X0379800Y0190740D02*
X0379800Y0204400D01*
X0386800Y0202200D02*
X0386800Y0041470D01*
X0390435Y0036800D02*
X0396451Y0036800D01*
X0396451Y0029800D02*
X0392466Y0029800D01*
X0391302Y0022800D02*
X0396451Y0022800D01*
X0396451Y0015800D02*
X0386308Y0015800D01*
X0386800Y0016330D02*
X0386800Y0006841D01*
X0379800Y0006836D02*
X0379800Y0012772D01*
X0372800Y0012465D02*
X0372800Y0006832D01*
X0365800Y0006828D02*
X0365800Y0015625D01*
X0359186Y0029800D02*
X0343200Y0029800D01*
X0330800Y0041700D02*
X0330800Y0171900D01*
X0319400Y0183800D02*
X0292600Y0183800D01*
X0292532Y0162800D02*
X0396451Y0162800D01*
X0388577Y0183800D02*
X0384740Y0183800D01*
X0383740Y0190800D02*
X0389577Y0190800D01*
X0391800Y0190800D02*
X0391800Y0190800D01*
X0396451Y0197800D02*
X0368740Y0197800D01*
X0393951Y0218800D02*
X0396451Y0218800D01*
X0393800Y0219163D02*
X0393800Y0224139D01*
X0394501Y0225800D02*
X0396451Y0225800D01*
X0393800Y0226600D02*
X0393800Y0227000D01*
X0396451Y0267800D02*
X0331194Y0267800D01*
X0330800Y0267406D02*
X0330800Y0195700D01*
X0337800Y0193788D02*
X0337800Y0274406D01*
X0338194Y0274800D02*
X0396451Y0274800D01*
X0396451Y0295800D02*
X0354200Y0295800D01*
X0349400Y0295800D02*
X0339194Y0295800D01*
X0344200Y0302800D02*
X0349400Y0302800D01*
X0354200Y0302800D02*
X0396451Y0302800D01*
X0284406Y0267800D02*
X0281194Y0267800D01*
X0281800Y0268406D02*
X0281800Y0265194D01*
X0267800Y0259400D02*
X0267800Y0254200D01*
X0267800Y0249400D02*
X0267800Y0244200D01*
X0267800Y0239400D02*
X0267800Y0234200D01*
X0247577Y0218800D02*
X0230023Y0218800D01*
X0223577Y0218800D02*
X0189794Y0218800D01*
X0190800Y0218532D02*
X0190800Y0219806D01*
X0246800Y0264200D02*
X0246800Y0269400D01*
X0246800Y0274200D02*
X0246800Y0279400D01*
X0253800Y0279400D02*
X0253800Y0274200D01*
X0253800Y0269400D02*
X0253800Y0264200D01*
X0267800Y0274200D02*
X0267800Y0279400D01*
X0225800Y0284200D02*
X0225800Y0292916D01*
X0221473Y0295800D02*
X0221241Y0295800D01*
X0211800Y0305340D02*
X0211800Y0308260D01*
X0211800Y0315340D02*
X0211800Y0338260D01*
X0212882Y0337800D02*
X0208740Y0337800D01*
X0206800Y0341800D02*
X0216800Y0341800D01*
X0211800Y0345340D02*
X0211800Y0348260D01*
X0211260Y0344800D02*
X0209740Y0344800D01*
X0211800Y0355340D02*
X0211800Y0382091D01*
X0176800Y0291800D02*
X0176800Y0291800D01*
X0260800Y0180260D02*
X0260800Y0177340D01*
X0197800Y0144860D02*
X0197800Y0134194D01*
X0285194Y0071800D02*
X0396451Y0071800D01*
X0330800Y0017900D02*
X0330800Y0006805D01*
X0323800Y0006801D02*
X0323800Y0020471D01*
X0148800Y0009400D02*
X0148800Y0006690D01*
X0141800Y0006686D02*
X0141800Y0009400D01*
X0106800Y0006663D02*
X0106800Y0039400D01*
X0106800Y0044200D02*
X0106800Y0049400D01*
X0022235Y0162800D02*
X0011600Y0162800D01*
X0011600Y0169800D02*
X0022200Y0169800D01*
X0022800Y0172164D02*
X0022800Y0177406D01*
X0023406Y0176800D02*
X0011600Y0176800D01*
D20*
X0206800Y0046800D02*
X0206800Y0036800D01*
X0206800Y0031800D01*
X0206800Y0046800D02*
X0221800Y0061800D01*
X0261800Y0061800D01*
X0278800Y0036800D01*
M02*
